<svg width="60" height="60" viewBox="0 0 60 60" fill="none" xmlns="http://www.w3.org/2000/svg">
<path opacity="0.4" d="M44.875 19.275L44.525 19.075L41.05 17.075L33.875 12.925C31.675 11.65 28.325 11.65 26.125 12.925L18.95 17.075L15.475 19.1L15.025 19.35C10.55 22.35 10.25 22.9 10.25 27.725V39.25C10.25 44.075 10.55 44.625 15.125 47.7L26.125 54.05C27.225 54.7 28.6 55 30 55C31.375 55 32.775 54.7 33.875 54.05L44.975 47.625C49.45 44.625 49.75 44.075 49.75 39.25V27.725C49.75 22.9 49.45 22.35 44.875 19.275Z" fill="#4B1FFC"/>
<path d="M15.4751 19.1L18.9501 17.075L25.8001 13.125L26.1251 12.925C28.3251 11.65 31.6751 11.65 33.8751 12.925L34.2001 13.125L41.0501 17.075L44.5251 19.075V13.725C44.5251 8.1 41.4251 5 35.8001 5H24.1751C18.5501 5 15.4751 8.1 15.4751 13.725V19.1Z" fill="#4B1FFC"/>
<path d="M37.1001 33.3502L35.5501 35.2502C35.3001 35.5252 35.1251 36.0752 35.1501 36.4502L35.3001 38.9002C35.4001 40.4002 34.3251 41.1752 32.9251 40.6252L30.6501 39.7252C30.3001 39.6002 29.7001 39.6002 29.3501 39.7252L27.0751 40.6252C25.6751 41.1752 24.6001 40.4002 24.7001 38.9002L24.8501 36.4502C24.8751 36.0752 24.7001 35.5252 24.4501 35.2502L22.9001 33.3502C21.9251 32.2002 22.3501 30.9252 23.8001 30.5502L26.1751 29.9502C26.5501 29.8502 27.0001 29.5002 27.2001 29.1752L28.5251 27.1252C29.3501 25.8502 30.6501 25.8502 31.4751 27.1252L32.8001 29.1752C33.0001 29.5002 33.4501 29.8502 33.8251 29.9502L36.2001 30.5502C37.6501 30.9252 38.0751 32.2002 37.1001 33.3502Z" fill="#4B1FFC"/>
</svg>
