<svg width="60" height="60" viewBox="0 0 60 60" fill="none" xmlns="http://www.w3.org/2000/svg">
<path opacity="0.4" d="M44.875 19.275L44.525 19.075L41.05 17.075L33.875 12.925C31.675 11.65 28.325 11.65 26.125 12.925L18.95 17.075L15.475 19.1L15.025 19.35C10.55 22.35 10.25 22.9 10.25 27.725V39.25C10.25 44.075 10.55 44.625 15.125 47.7L26.125 54.05C27.225 54.7 28.6 55 30 55C31.375 55 32.775 54.7 33.875 54.05L44.975 47.625C49.45 44.625 49.75 44.075 49.75 39.25V27.725C49.75 22.9 49.45 22.35 44.875 19.275Z" fill="#4B1FFC"/>
<path d="M15.475 19.1L18.95 17.075L25.8 13.125L26.125 12.925C28.325 11.65 31.675 11.65 33.875 12.925L34.2 13.125L41.05 17.075L44.525 19.075V13.725C44.525 8.1 41.425 5 35.8 5H24.175C18.55 5 15.475 8.1 15.475 13.725V19.1Z" fill="#4B1FFC"/>
<path d="M37.1 33.3502L35.55 35.2502C35.3 35.5252 35.125 36.0752 35.15 36.4502L35.3 38.9002C35.4 40.4002 34.325 41.1752 32.925 40.6252L30.65 39.7252C30.3 39.6002 29.7 39.6002 29.35 39.7252L27.075 40.6252C25.675 41.1752 24.6 40.4002 24.7 38.9002L24.85 36.4502C24.875 36.0752 24.7 35.5252 24.45 35.2502L22.9 33.3502C21.925 32.2002 22.35 30.9252 23.8 30.5502L26.175 29.9502C26.55 29.8502 27 29.5002 27.2 29.1752L28.525 27.1252C29.35 25.8502 30.65 25.8502 31.475 27.1252L32.8 29.1752C33 29.5002 33.45 29.8502 33.825 29.9502L36.2 30.5502C37.65 30.9252 38.075 32.2002 37.1 33.3502Z" fill="#4B1FFC"/>
</svg>
