<svg width="1440" height="122" viewBox="0 0 1440 122" fill="none" xmlns="http://www.w3.org/2000/svg">
<g opacity="0.5" clip-path="url(#clip0_2601_788)">
<path d="M197.328 50.9224L203 53.1552L197.328 55.2673V58.2845L207.044 54.3621V51.9483L197.328 48.0259V50.9224Z" fill="#1D1B1B"/>
<path d="M145.252 62.1465C142.536 62.1465 140.545 63.3534 140.364 65.8879H143.381V65.8276C143.441 64.9828 144.226 64.3793 145.07 64.4396C146.217 64.4396 146.76 65.1034 146.76 66.25V66.7931H145.372C142.415 66.7931 140.002 67.6983 140.002 70.5345V70.6552C140.002 72.9483 141.691 73.9741 143.743 73.9741C145.01 74.0345 146.157 73.431 146.881 72.4655V73.7931H149.958V66.1896C149.898 63.2931 147.907 62.1465 145.252 62.1465ZM144.588 71.7414C143.502 71.7414 143.019 71.1983 143.019 70.4138V70.2931C143.019 69.2672 143.803 68.8448 145.372 68.8448H146.639V69.931C146.7 71.1379 145.674 71.7414 144.588 71.7414Z" fill="#1D1B1B"/>
<path d="M157.199 71.6207C155.69 71.6207 154.906 70.5948 154.906 68.3017V67.9396C154.906 65.7069 155.811 64.6207 157.199 64.6207C158.285 64.6207 158.889 65.3448 159.07 66.431H162.087C161.846 63.4741 159.673 62.1465 157.139 62.1465C154.121 62.1465 151.708 64.1983 151.708 68.0603V68.181C151.708 72.0431 154.001 73.9741 157.139 73.9741C160.216 73.9741 161.966 72.1034 162.208 69.569H159.311C159.07 70.8362 158.285 71.6207 157.199 71.6207Z" fill="#1D1B1B"/>
<path d="M168.966 71.6207C167.458 71.6207 166.673 70.5948 166.673 68.3017V67.9396C166.673 65.7069 167.579 64.6207 168.966 64.6207C170.053 64.6207 170.656 65.3448 170.837 66.431H173.854C173.613 63.4741 171.441 62.1465 168.906 62.1465C165.889 62.1465 163.475 64.1983 163.475 68.0603V68.181C163.475 72.0431 165.768 73.9741 168.906 73.9741C171.984 73.9741 173.734 72.1034 173.915 69.569H171.079C170.897 70.8362 170.053 71.6207 168.966 71.6207Z" fill="#1D1B1B"/>
<path d="M180.855 71.681C179.467 71.681 178.622 70.8965 178.501 68.8448H185.863V67.5172C185.863 63.7759 183.51 62.1465 180.674 62.1465C177.596 62.1465 175.243 64.2586 175.243 68.0603V68.3017C175.243 72.1034 177.475 74.0345 180.734 74.0345C183.691 74.0345 185.501 72.4052 185.803 70.2328H182.846C182.725 71.1379 181.82 71.8017 180.855 71.681ZM180.674 64.319C181.941 64.319 182.725 65.0431 182.786 66.7328H178.561C178.803 64.9224 179.708 64.3793 180.674 64.319Z" fill="#1D1B1B"/>
<path d="M194.432 62.1466C192.984 62.0862 191.657 62.8104 190.993 64.0776V62.3879H187.855V73.7328H190.993V66.7931C190.993 66.6724 190.993 66.6121 190.993 66.4914C191.053 65.4655 191.958 64.6207 192.984 64.681C194.131 64.681 194.674 65.2845 194.674 66.6121V73.7328H197.872V66.1293C197.872 63.3535 196.484 62.1466 194.432 62.1466Z" fill="#1D1B1B"/>
<path d="M203.785 70.112V64.7413H205.958V62.3879H203.785V58.9482L200.647 60.2758V62.3879H199.259V64.7413H200.587V70.4741C200.587 72.7672 201.733 73.9138 204.208 73.9138C204.811 73.9138 205.414 73.8534 206.018 73.6724V71.1982C205.656 71.3189 205.294 71.3793 204.932 71.3793C204.208 71.3793 203.785 70.9569 203.785 70.112Z" fill="#1D1B1B"/>
<path d="M214.708 69.4483C214.708 69.569 214.708 69.6293 214.708 69.75C214.648 70.7759 213.742 71.6207 212.717 71.5604C211.57 71.5604 211.087 70.9569 211.087 69.6293V62.3879H207.889V70.0517C207.889 72.7069 209.398 73.9741 211.449 73.9741C212.837 74.0345 214.105 73.3104 214.768 72.0431V73.7328H217.967V62.3879H214.768L214.708 69.4483Z" fill="#1D1B1B"/>
<path d="M223.398 64.4396V62.3276H220.26V73.6724H223.398V67.819C223.398 65.9483 224.665 65.2845 226.837 65.2845V62.1465C225.268 62.1465 223.88 63.0517 223.398 64.4396Z" fill="#1D1B1B"/>
<path d="M238.424 67.4569C238.424 63.7155 236.07 62.1465 233.234 62.1465C230.157 62.1465 227.803 64.2586 227.803 68.0603V68.3017C227.803 72.1034 230.036 74.0345 233.294 74.0345C236.251 74.0345 238.001 72.4052 238.363 70.2328H235.407C235.165 71.1983 234.26 71.8017 233.294 71.7414C231.907 71.7414 231.062 70.9569 230.941 68.9052H238.303V67.4569H238.424ZM231.062 66.7328C231.303 64.8621 232.208 64.319 233.234 64.319C234.501 64.319 235.286 65.0431 235.346 66.7328H231.062Z" fill="#1D1B1B"/>
<g opacity="0.8">
<mask id="mask0_2601_788" style="mask-type:luminance" maskUnits="userSpaceOnUse" x="400" y="51" width="10" height="10">
<path d="M403.83 57.6967C403.475 57.2297 403.274 56.5403 403.274 55.6729C403.274 54.8056 403.452 54.1162 403.83 53.6491C404.564 52.7818 405.854 52.6928 406.722 53.4267C406.811 53.4935 406.877 53.5824 406.944 53.6491C407.3 54.1162 407.478 54.8056 407.478 55.6729C407.478 56.5403 407.3 57.2297 406.944 57.6967C406.21 58.5641 404.92 58.653 404.053 57.9191C403.964 57.8524 403.897 57.7857 403.83 57.6967ZM402.007 52.3815C400.517 54.3163 400.517 57.0073 402.007 58.9644C402.741 59.8762 403.875 60.3432 405.387 60.3432C406.899 60.3432 408.034 59.8984 408.768 58.9644C410.258 57.0295 410.258 54.3386 408.768 52.3815C408.034 51.4474 406.899 50.9804 405.387 51.0027C403.875 51.0249 402.741 51.4697 402.007 52.3815Z" fill="white"/>
</mask>
<g mask="url(#mask0_2601_788)">
<path d="M413.215 47.6666H397.559V63.6567H413.215V47.6666Z" fill="#1D1B1B"/>
</g>
<mask id="mask1_2601_788" style="mask-type:luminance" maskUnits="userSpaceOnUse" x="383" y="51" width="9" height="10">
<path d="M386.145 58.3636C385.901 58.1412 385.789 57.8299 385.812 57.5185C385.789 57.1182 385.989 56.7401 386.345 56.54C386.679 56.3843 387.035 56.2731 387.391 56.2286L387.902 56.1397C388.102 56.0952 388.302 56.0507 388.503 55.984C388.658 55.9173 388.814 55.8505 388.947 55.7616V56.6289C388.925 57.4073 388.725 57.9411 388.302 58.2302C387.902 58.5193 387.435 58.675 386.946 58.675C386.657 58.6527 386.39 58.5638 386.145 58.3636ZM384.477 52.1588C384.077 52.7148 383.854 53.382 383.832 54.0714H386.012C386.056 53.7823 386.167 53.4932 386.345 53.2708C386.568 53.0039 386.946 52.8705 387.502 52.8705C387.88 52.8482 388.258 52.9149 388.614 53.0706C388.881 53.2263 389.014 53.5154 388.992 53.8268C388.992 54.1381 388.792 54.405 388.503 54.4939C388.213 54.6051 387.902 54.6719 387.591 54.6941L386.812 54.783C386.123 54.8498 385.433 55.0277 384.811 55.3613C383.988 55.8505 383.565 56.6289 383.565 57.7187C383.565 58.5638 383.81 59.2087 384.344 59.6535C384.877 60.0983 385.5 60.2984 386.301 60.3429C391.238 60.5653 391.194 57.6964 391.238 57.096V53.76C391.238 52.6925 390.86 51.9809 390.126 51.5806C389.348 51.1803 388.458 50.9801 387.591 51.0023C386.123 51.0023 385.078 51.3804 384.477 52.1588Z" fill="white"/>
</mask>
<g mask="url(#mask1_2601_788)">
<path d="M394.552 47.6666H380.23V63.6568H394.552V47.6666Z" fill="#1D1B1B"/>
</g>
<mask id="mask2_2601_788" style="mask-type:luminance" maskUnits="userSpaceOnUse" x="374" y="51" width="9" height="10">
<path d="M375.691 52.248C374.935 53.0931 374.557 54.2718 374.557 55.7841C374.557 57.1185 374.891 58.2082 375.58 59.0533C376.269 59.8984 377.337 60.3209 378.783 60.3209C380.228 60.3209 381.34 59.8094 382.074 58.8087C382.519 58.2304 382.786 57.541 382.852 56.8071H380.45C380.428 57.2074 380.273 57.6077 380.028 57.9413C379.806 58.2304 379.405 58.3861 378.849 58.3861C378.138 58.4306 377.47 57.9636 377.248 57.2964C377.07 56.8071 377.003 56.2734 377.026 55.7396C377.003 55.1836 377.092 54.6277 377.248 54.1161C377.537 53.3378 378.093 52.9597 378.894 52.9597C379.361 52.9152 379.828 53.1154 380.139 53.4934C380.317 53.7603 380.428 54.0717 380.473 54.383H382.897C382.763 53.1154 382.341 52.248 381.607 51.7588C380.873 51.2695 379.961 51.0249 378.827 51.0249C377.493 51.0026 376.447 51.4029 375.691 52.248Z" fill="white"/>
</mask>
<g mask="url(#mask2_2601_788)">
<path d="M386.213 47.6667H371.223V63.6569H386.213V47.6667Z" fill="#1D1B1B"/>
</g>
<mask id="mask3_2601_788" style="mask-type:luminance" maskUnits="userSpaceOnUse" x="369" y="51" width="6" height="9">
<path d="M369.228 55.4509V59.9877H371.496V55.74C371.496 55.0506 371.585 54.5391 371.763 54.2055C372.074 53.605 372.675 53.3159 373.586 53.3159C373.653 53.3159 373.742 53.3159 373.853 53.3159C373.965 53.3159 374.098 53.3381 374.231 53.3381V51.003H374.031H373.92C368.938 51.003 369.25 55.4731 369.228 55.4509Z" fill="white"/>
</mask>
<g mask="url(#mask3_2601_788)">
<path d="M377.547 47.6675H365.893V63.324H377.547V47.6675Z" fill="#1D1B1B"/>
</g>
<mask id="mask4_2601_788" style="mask-type:luminance" maskUnits="userSpaceOnUse" x="359" y="50" width="10" height="11">
<path d="M362.529 53.4046C362.885 53.0488 363.396 52.8709 363.886 52.8931C364.375 52.8709 364.864 53.0488 365.242 53.3602C365.62 53.716 365.843 54.2275 365.843 54.7612H361.906C361.973 54.2497 362.195 53.7827 362.529 53.4046ZM360.772 52.2259C359.971 53.0488 359.571 54.2053 359.571 55.7398C359.571 57.3633 360.016 58.5419 360.906 59.2536C361.773 59.9653 362.863 60.3433 363.975 60.3433C365.376 60.3433 366.488 59.9208 367.266 59.0534C367.644 58.6754 367.911 58.2306 368.067 57.7191H365.62C365.531 57.8525 365.42 57.9637 365.309 58.0749C364.975 58.3418 364.531 58.4307 364.019 58.4307C363.597 58.453 363.174 58.364 362.796 58.1416C362.218 57.7858 361.906 57.1853 361.862 56.2958H368.222C368.245 55.7175 368.222 55.1393 368.156 54.5388C368.067 53.8939 367.822 53.2712 367.466 52.7152C367.088 52.137 366.577 51.6922 365.954 51.4031C365.309 51.114 364.62 50.9805 363.908 50.9805C362.618 51.0028 361.573 51.4031 360.772 52.2259Z" fill="white"/>
</mask>
<g mask="url(#mask4_2601_788)">
<path d="M371.558 47.667H356.235V63.6572H371.558V47.667Z" fill="#1D1B1B"/>
</g>
<mask id="mask5_2601_788" style="mask-type:luminance" maskUnits="userSpaceOnUse" x="346" y="50" width="13" height="11">
<path d="M352.425 52.2039C351.803 51.4256 350.869 50.9808 349.868 51.003C347.666 51.003 346.243 52.6487 346.243 54.806V60.01H348.311V54.7615C348.311 53.8052 348.956 53.138 349.868 53.138C351.224 53.138 351.358 54.2722 351.358 54.7615V60.01H353.426V54.7615C353.426 53.8052 354.093 53.138 354.983 53.138C356.339 53.138 356.495 54.2722 356.495 54.7615V60.01H358.563V54.7837C358.563 52.5598 357.229 50.9808 354.983 50.9808C353.982 50.9808 353.026 51.4256 352.425 52.2039Z" fill="white"/>
</mask>
<g mask="url(#mask5_2601_788)">
<path d="M361.903 47.6669H342.911V63.3234H361.903V47.6669Z" fill="#1D1B1B"/>
</g>
<mask id="mask6_2601_788" style="mask-type:luminance" maskUnits="userSpaceOnUse" x="392" y="48" width="9" height="13">
<path d="M394.994 57.7193C394.661 57.1188 394.483 56.4072 394.527 55.7177C394.505 55.0506 394.661 54.4056 394.994 53.8496C395.283 53.3381 395.839 53.049 396.44 53.0935C396.862 53.0935 397.263 53.2269 397.574 53.516C398.108 53.9831 398.375 54.8059 398.375 55.8734C398.397 56.5406 398.219 57.1856 397.885 57.7415C397.574 58.2086 397.018 58.4977 396.44 58.4532C395.839 58.4754 395.283 58.2086 394.994 57.7193ZM398.286 49.9355V52.4041C398.041 52.0038 397.707 51.6702 397.307 51.4478C396.885 51.2031 396.418 51.0919 395.928 51.0919C394.883 51.0697 393.882 51.5367 393.237 52.3818C392.57 53.2492 392.237 54.4723 392.237 55.9624C392.237 57.2523 392.57 58.3198 393.26 59.1426C393.949 59.9655 395.283 60.3213 396.462 60.3213C400.599 60.3213 400.554 56.6963 400.554 56.6963V48.3343C400.554 48.3343 400.443 48.312 400.287 48.312C399.687 48.3343 398.286 48.4899 398.286 49.9355Z" fill="white"/>
</mask>
<g mask="url(#mask6_2601_788)">
<path d="M403.867 44.9987H388.877V63.6576H403.867V44.9987Z" fill="#1D1B1B"/>
</g>
<mask id="mask7_2601_788" style="mask-type:luminance" maskUnits="userSpaceOnUse" x="368" y="64" width="9" height="10">
<path d="M371.198 66.9713C371.576 66.6377 372.065 66.4598 372.554 66.482C373.044 66.4598 373.533 66.6377 373.911 66.9491C374.289 67.2826 374.512 67.7719 374.512 68.2834H370.575C370.642 67.7942 370.842 67.3271 371.198 66.9713ZM369.419 65.8371C368.618 66.6155 368.218 67.7497 368.218 69.2175C368.218 70.7742 368.663 71.9085 369.552 72.6201C370.419 73.3095 371.509 73.6876 372.621 73.6654C374.022 73.6654 375.112 73.2428 375.913 72.42C376.291 72.0641 376.558 71.6193 376.713 71.1301H374.267C374.178 71.2635 374.067 71.3747 373.956 71.4859C373.577 71.7528 373.11 71.864 372.643 71.8417C372.221 71.864 371.798 71.775 371.42 71.5526C370.842 71.219 370.553 70.6186 370.508 69.7735H376.869C376.891 69.2175 376.869 68.6392 376.78 68.0833C376.691 67.4606 376.446 66.8601 376.091 66.3263C375.712 65.7704 375.201 65.3478 374.578 65.0809C373.933 64.8141 373.222 64.6806 372.532 64.6806C371.265 64.6584 370.219 65.0587 369.419 65.8371Z" fill="white"/>
</mask>
<g mask="url(#mask7_2601_788)">
<path d="M380.207 61.3225H364.884V76.9791H380.207V61.3225Z" fill="#1D1B1B"/>
</g>
<mask id="mask8_2601_788" style="mask-type:luminance" maskUnits="userSpaceOnUse" x="353" y="61" width="10" height="13">
<path d="M356.592 71.0624C356.237 70.5064 356.059 69.8614 356.103 69.1942C356.103 68.1267 356.37 67.3706 356.904 66.9036C357.215 66.6367 357.615 66.481 358.038 66.481C358.616 66.4366 359.172 66.7257 359.483 67.2372C359.817 67.8154 359.973 68.4603 359.95 69.1275C359.973 69.7947 359.817 70.4841 359.483 71.0624C359.172 71.5516 358.638 71.8185 358.06 71.774C357.482 71.8185 356.926 71.5294 356.592 71.0624ZM353.901 63.323V70.0171C353.901 70.0171 353.857 73.6421 357.993 73.6421C359.172 73.6421 360.529 73.2863 361.196 72.4634C361.885 71.6406 362.219 70.5731 362.219 69.2832C362.219 67.7932 361.885 66.6145 361.218 65.7694C360.573 64.9243 359.572 64.4572 358.527 64.4795C358.038 64.4795 357.571 64.5907 357.148 64.8353C356.748 65.0799 356.414 65.4135 356.17 65.8138V61.6773C356.103 61.6773 356.014 61.6773 355.947 61.6773C355.369 61.6773 353.901 61.8107 353.901 63.323Z" fill="white"/>
</mask>
<g mask="url(#mask8_2601_788)">
<path d="M365.553 58.3192H350.564V76.9781H365.553V58.3192Z" fill="#1D1B1B"/>
</g>
<mask id="mask9_2601_788" style="mask-type:luminance" maskUnits="userSpaceOnUse" x="362" y="64" width="6" height="10">
<path d="M362.903 68.8163V73.3087H365.171V69.0832C365.171 68.3716 365.26 67.86 365.438 67.5265C365.749 66.926 366.35 66.6369 367.262 66.6369C367.328 66.6369 367.417 66.6369 367.529 66.6369C367.64 66.6369 367.773 66.6591 367.907 66.6591V64.3462L367.707 64.324H367.595C362.614 64.324 362.903 68.8386 362.903 68.8163Z" fill="white"/>
</mask>
<g mask="url(#mask9_2601_788)">
<path d="M371.221 60.988H359.568V76.6446H371.221V60.988Z" fill="#1D1B1B"/>
</g>
<mask id="mask10_2601_788" style="mask-type:luminance" maskUnits="userSpaceOnUse" x="346" y="61" width="3" height="13">
<path d="M346.243 63.3014V73.3314H348.244V61.678H348.2C347.888 61.6557 346.243 61.7224 346.243 63.3014Z" fill="white"/>
</mask>
<g mask="url(#mask10_2601_788)">
<path d="M351.562 58.3197H342.911V76.645H351.562V58.3197Z" fill="#1D1B1B"/>
</g>
<path d="M352.233 61.6556H349.898V63.9907H352.233V61.6556Z" fill="#1D1B1B"/>
<path d="M352.233 64.6577H349.898V73.3311H352.233V64.6577Z" fill="#1D1B1B"/>
<mask id="mask11_2601_788" style="mask-type:luminance" maskUnits="userSpaceOnUse" x="299" y="47" width="42" height="28">
<path d="M319.916 47C308.774 47.0222 299.767 53.0047 299.812 60.2992V61.0776C299.834 68.8169 307.729 75.0662 320.005 74.9995C332.348 74.9772 340.132 68.6612 340.132 60.9441C340.11 60.6773 340.132 60.5216 340.132 60.1658C340.087 52.9157 331.103 47 320.005 47H319.916V47Z" fill="white"/>
</mask>
<g mask="url(#mask11_2601_788)">
<path d="M343.446 43.6858H296.454V78.3571H343.446V43.6858Z" fill="#1D1B1B"/>
</g>
<mask id="mask12_2601_788" style="mask-type:luminance" maskUnits="userSpaceOnUse" x="300" y="47" width="40" height="26">
<path d="M319.92 47.7115C309.312 47.7337 300.727 53.3825 300.75 60.3213C300.772 67.26 309.378 72.8643 319.987 72.8198C330.595 72.7753 339.179 67.1488 339.157 60.2101C339.135 53.2713 330.573 47.7115 320.009 47.7115H319.92Z" fill="white"/>
</mask>
<g mask="url(#mask12_2601_788)">
<path d="M342.492 44.3758H297.412V76.156H342.492V44.3758Z" fill="white"/>
</g>
<mask id="mask13_2601_788" style="mask-type:luminance" maskUnits="userSpaceOnUse" x="300" y="51" width="40" height="18">
<path d="M310.775 61.7001C310.019 61.7223 309.44 62.3673 309.463 63.1234C309.485 63.8351 310.063 64.3911 310.775 64.4355C311.131 64.4355 311.464 64.2799 311.709 64.0352C311.731 64.0352 311.731 64.0575 311.709 64.0797C311.642 64.4133 311.553 65.6365 312.821 66.1257C313.266 66.3036 313.777 66.2147 314.133 65.9033C314.244 65.8144 314.266 65.8589 314.244 65.9701C314.2 66.2814 314.266 66.9708 315.2 67.3267C315.69 67.5491 316.268 67.4379 316.624 67.0598C316.757 66.9486 316.779 66.9708 316.802 67.1487C316.824 68.0828 317.602 68.8167 318.536 68.7945C319.47 68.7722 320.204 67.9938 320.182 67.0598C320.16 66.1257 319.404 65.3696 318.47 65.3696C318.092 65.3696 317.669 65.592 317.602 65.5697C317.602 65.4808 317.625 65.3918 317.669 65.3029C317.713 65.2139 318.203 63.6794 316.98 63.1679C316.023 62.7676 315.445 63.2346 315.267 63.4125C315.2 63.4792 315.178 63.457 315.178 63.3903C315.156 62.8121 314.778 62.3005 314.222 62.1226C313.421 61.878 312.576 62.1893 312.109 62.8788C312.042 62.2116 311.464 61.7001 310.797 61.7001H310.775V61.7001ZM300.7 58.7645C301.056 58.8757 301.612 59.0313 301.857 59.0758C307.372 60.299 309.107 61.5444 309.396 61.8113C309.73 61.411 310.241 61.1886 310.753 61.1886C311.353 61.1886 311.909 61.4777 312.243 61.967C312.621 61.6556 313.088 61.4999 313.555 61.4999C313.822 61.4999 314.088 61.5444 314.355 61.6334C314.867 61.7668 315.267 62.1449 315.467 62.6341C315.712 62.5229 315.979 62.4785 316.246 62.4785C316.557 62.4785 316.868 62.5452 317.157 62.6786C318.18 63.1012 318.336 64.1242 318.247 64.8803C318.314 64.8803 318.381 64.8803 318.447 64.8803C319.648 64.8803 320.627 65.8589 320.627 67.0598C320.627 67.4156 320.538 67.7714 320.36 68.105C320.694 68.283 321.516 68.7055 322.25 68.6166C322.829 68.5498 323.073 68.3274 323.14 68.2162C323.207 68.105 323.251 68.0383 323.207 67.9938L321.65 66.2592C321.65 66.2592 321.405 66.0145 321.472 65.9256C321.561 65.8366 321.717 65.9701 321.828 66.059C322.606 66.7262 323.585 67.727 323.585 67.727C323.585 67.727 323.674 67.8826 324.029 67.9271C324.452 67.9938 324.897 67.9049 325.275 67.638C325.364 67.5491 325.475 67.4601 325.542 67.3711L325.52 67.3934C325.92 66.8819 325.475 66.3704 325.475 66.3704L323.651 64.3243C323.651 64.3243 323.407 64.0797 323.473 63.9907C323.562 63.9018 323.718 64.0352 323.829 64.1242C324.408 64.5912 325.23 65.4141 325.987 66.1702C326.142 66.2814 326.832 66.704 327.721 66.1035C328.255 65.7477 328.388 65.3029 328.366 64.947C328.322 64.6579 328.188 64.3911 327.988 64.1909L325.497 61.7001C325.497 61.7001 325.253 61.4777 325.319 61.3665C325.408 61.2553 325.564 61.411 325.675 61.4999C326.454 62.1671 328.611 64.1242 328.611 64.1242C329.122 64.4578 329.789 64.4355 330.301 64.0797C330.612 63.9018 330.835 63.5682 330.857 63.1901C330.879 62.812 330.724 62.434 330.434 62.1671C330.368 62.1004 324.141 56.674 322.74 55.6065C321.917 55.006 321.472 54.8503 320.983 54.7836C320.694 54.7614 320.427 54.7836 320.138 54.8503C319.493 55.0282 318.625 55.6065 317.869 56.2069C317.069 56.8519 316.357 57.4301 315.667 57.5858C314.778 57.7859 313.71 57.5413 313.221 57.2077C313.043 57.0965 312.91 56.9408 312.821 56.7629C312.643 56.3404 312.976 56.0068 313.021 55.9401L314.733 54.072C314.934 53.8718 315.134 53.6716 315.334 53.4715C314.8 53.5604 314.289 53.6716 313.777 53.8273C313.199 54.0275 312.576 54.1387 311.953 54.1609C311.331 54.0942 310.708 54.0052 310.085 53.8718C308.373 53.427 306.727 52.8488 305.126 52.1149C302.769 53.9608 301.145 56.2514 300.7 58.7645ZM320.694 51.8035C317.78 51.8925 316.513 53.1379 315.2 54.4945L313.51 56.3404C313.51 56.3626 313.31 56.5628 313.421 56.7184C313.71 57.1188 314.667 57.3411 315.623 57.1188C316.179 56.9853 316.913 56.4071 317.625 55.8289C318.403 55.2062 319.137 54.6057 319.915 54.3611C320.449 54.1609 321.049 54.1387 321.583 54.3166C322.139 54.5167 322.651 54.8281 323.095 55.2062C324.43 56.2069 329.767 60.8772 330.701 61.6556C333.437 60.4547 336.306 59.5206 339.219 58.8757C338.819 56.4738 337.351 54.2943 335.149 52.5152C332.08 53.8273 328.322 54.5167 324.652 52.7153C324.63 52.7153 322.74 51.8258 320.827 51.8258L320.694 51.8035Z" fill="white"/>
</mask>
<g mask="url(#mask13_2601_788)">
<path d="M342.555 48.4675H297.365V72.108H342.555V48.4675Z" fill="white"/>
</g>
<mask id="mask14_2601_788" style="mask-type:luminance" maskUnits="userSpaceOnUse" x="300" y="51" width="40" height="19">
<path d="M309.574 63.1231C309.551 62.4559 310.085 61.8777 310.752 61.8777C311.397 61.8554 311.931 62.3447 311.998 62.9674L312.042 63.301L312.22 63.0341C312.554 62.5449 313.087 62.2558 313.666 62.2335C313.844 62.2335 314.021 62.2557 314.199 62.3002C314.711 62.4559 315.044 62.9229 315.067 63.4567C315.089 63.6346 315.2 63.6346 315.222 63.6346C315.267 63.6346 315.334 63.6124 315.378 63.5679C315.6 63.3232 315.934 63.1898 316.268 63.1676C316.49 63.1676 316.735 63.2343 316.935 63.3232C318.091 63.8125 317.58 65.3026 317.58 65.3248C317.469 65.5694 317.469 65.6806 317.557 65.7473L317.602 65.7696H317.646C317.713 65.7473 317.802 65.7251 317.869 65.7029C318.069 65.6139 318.291 65.5694 318.492 65.5694C319.359 65.5694 320.048 66.2589 320.048 67.1262C320.048 67.9935 319.359 68.683 318.492 68.683C317.646 68.683 316.935 68.0158 316.89 67.1707C316.89 67.104 316.89 66.9038 316.712 66.9038C316.646 66.9038 316.579 66.9483 316.534 67.015C316.334 67.2374 316.067 67.3708 315.756 67.3708C315.578 67.3708 315.4 67.3263 315.245 67.2596C314.333 66.8816 314.333 66.2811 314.377 66.0365C314.399 65.9697 314.399 65.903 314.355 65.8585L314.288 65.8141H314.244C314.199 65.8141 314.133 65.8363 314.11 65.8808C313.888 66.0587 313.621 66.1699 313.332 66.1699C313.199 66.1699 313.043 66.1477 312.909 66.0809C311.731 65.6139 311.82 64.5019 311.886 64.1461C311.886 64.0794 311.886 64.0127 311.842 63.9904L311.753 63.9237L311.664 64.0127C311.442 64.2351 311.13 64.3685 310.819 64.3463C310.13 64.324 309.596 63.7903 309.574 63.1231ZM320.871 51.1583H320.693C318.269 51.225 316.913 52.0923 316.001 52.8262C315.2 52.8707 314.422 53.0264 313.666 53.2488C313.132 53.4267 312.576 53.5379 312.02 53.5601C311.909 53.5601 311.753 53.5601 311.62 53.5601H311.375C310.797 53.5379 307.817 52.8262 305.459 51.9366C305.215 52.1146 304.97 52.2925 304.748 52.4704C307.216 53.4712 310.241 54.2495 311.175 54.294L311.998 54.3385C312.643 54.294 313.265 54.1828 313.866 53.9827C314.244 53.8715 314.644 53.7603 315.044 53.6936C314.933 53.8048 314.822 53.916 314.711 54.0272L312.998 55.873C312.865 56.0065 312.554 56.3845 312.754 56.8293C312.865 57.0295 312.998 57.2074 313.199 57.3186C313.755 57.6299 314.377 57.7856 315.022 57.7856C315.267 57.7856 315.511 57.7634 315.756 57.7189C316.468 57.5632 317.224 56.9405 318.025 56.3178C318.647 55.8063 319.559 55.1614 320.248 54.9612C320.449 54.9167 320.671 54.8723 320.871 54.8723C320.938 54.8723 320.982 54.8723 321.049 54.8945C321.516 54.9612 321.961 55.1169 322.739 55.6951C324.14 56.7626 330.39 62.189 330.434 62.2335C330.679 62.4781 330.812 62.8117 330.812 63.1453C330.79 63.4789 330.612 63.768 330.323 63.946C330.078 64.1016 329.789 64.1906 329.5 64.2128C329.255 64.2128 328.989 64.1461 328.788 64.0127C328.766 63.9904 326.631 62.0334 325.831 61.3884C325.719 61.2995 325.608 61.2327 325.475 61.1883C325.408 61.1883 325.341 61.2105 325.297 61.2772C325.163 61.4329 325.319 61.633 325.475 61.7887L327.966 64.2795C328.143 64.4575 328.277 64.7021 328.321 64.9467C328.344 65.3693 328.143 65.7029 327.721 65.992C327.454 66.1921 327.143 66.2811 326.831 66.2811C326.587 66.2811 326.32 66.1921 326.12 66.0587L325.764 65.7029C325.097 65.0579 324.429 64.3907 323.94 63.9682C323.829 63.857 323.696 63.7903 323.562 63.7903C323.495 63.7903 323.451 63.8125 323.406 63.857C323.34 63.9237 323.295 64.0349 323.451 64.2128C323.495 64.2573 323.54 64.324 323.584 64.3685L325.408 66.4145C325.63 66.6592 325.653 67.015 325.453 67.2819L325.386 67.3708L325.23 67.5487C324.963 67.7489 324.652 67.8379 324.341 67.8379C324.252 67.8379 324.163 67.8379 324.096 67.8156C323.962 67.7934 323.851 67.7489 323.74 67.6822L323.718 67.6599C323.607 67.5487 322.695 66.6147 321.939 65.992C321.85 65.903 321.716 65.8363 321.583 65.8141C321.516 65.8141 321.449 65.8363 321.405 65.8808C321.249 66.0587 321.472 66.3033 321.583 66.3923L323.14 68.1047C323.14 68.127 323.117 68.1492 323.073 68.2159C323.028 68.2826 322.828 68.4606 322.272 68.5718C322.206 68.5718 322.117 68.594 322.05 68.594C321.516 68.5718 321.005 68.4161 320.538 68.1492C320.693 67.8379 320.76 67.5043 320.76 67.1484C320.76 65.8808 319.759 64.8578 318.492 64.8355H318.469H318.38C318.425 64.2573 318.336 63.1453 317.202 62.6561C316.89 62.5226 316.557 62.4559 316.223 62.4337C315.978 62.4337 315.734 62.4781 315.511 62.5671C315.289 62.1001 314.867 61.7665 314.377 61.6108C314.11 61.5219 313.844 61.4774 313.554 61.4774C313.087 61.4774 312.643 61.633 312.265 61.8999C311.886 61.4329 311.33 61.166 310.752 61.166C310.241 61.166 309.729 61.3884 309.373 61.7442C308.884 61.3662 306.972 60.1652 301.834 59.0088C301.59 58.9421 301.011 58.7864 300.678 58.6974C300.611 58.9643 300.589 59.2534 300.544 59.5425C300.544 59.5425 301.501 59.7649 301.679 59.8094C306.927 60.9659 308.639 62.1668 308.929 62.3892C308.84 62.6338 308.773 62.8785 308.773 63.1453C308.795 64.2573 309.707 65.1246 310.819 65.1024C310.908 65.1024 310.997 65.1024 311.086 65.0802C311.241 65.8808 311.82 66.5257 312.576 66.7926C312.798 66.8816 313.043 66.926 313.265 66.926C313.421 66.926 313.554 66.9038 313.71 66.8816C313.932 67.4153 314.377 67.8379 314.911 68.0158C315.156 68.127 315.423 68.1714 315.689 68.1714C315.89 68.1714 316.112 68.127 316.29 68.0603C316.646 68.9276 317.491 69.4836 318.425 69.4836C319.048 69.4836 319.648 69.2167 320.071 68.7719C320.671 69.1055 321.338 69.3057 322.028 69.3501C322.117 69.3501 322.228 69.3501 322.317 69.3279C323.117 69.2389 323.473 68.9053 323.629 68.683C323.651 68.6385 323.696 68.594 323.718 68.5495C323.918 68.6162 324.14 68.6607 324.341 68.6385C324.808 68.6162 325.23 68.4606 325.586 68.1714C325.964 67.9268 326.231 67.5265 326.32 67.0817V67.0595C326.453 67.0817 326.587 67.1039 326.742 67.1039C327.209 67.1039 327.654 66.9483 328.032 66.6814C328.855 66.1477 328.989 65.4582 328.966 65.0134C329.1 65.0357 329.255 65.0579 329.389 65.0579C329.811 65.0357 330.234 64.9245 330.612 64.6799C331.101 64.3685 331.413 63.857 331.457 63.301C331.479 62.9229 331.39 62.5226 331.19 62.189C333.815 61.1215 336.506 60.2542 339.241 59.6315C339.219 59.3646 339.174 59.0533 339.13 58.7864C336.239 59.4313 333.414 60.3432 330.723 61.5441C328.811 59.8761 324.363 56.0287 323.162 55.1391C322.695 54.7388 322.183 54.4497 321.605 54.2273C321.36 54.1384 321.116 54.1161 320.849 54.1161C320.515 54.1161 320.204 54.1828 319.893 54.2718C319.114 54.5164 318.336 55.1391 317.602 55.7396L317.557 55.7618C316.868 56.3178 316.134 56.896 315.6 57.0072C315.356 57.0517 315.111 57.0962 314.867 57.0962C314.266 57.0962 313.71 56.9183 313.488 56.6736C313.443 56.6292 313.465 56.5625 313.554 56.4513L313.577 56.429L315.267 54.6054C316.579 53.2933 317.824 52.0256 320.693 51.9589H320.849C322.628 51.9589 324.429 52.7595 324.63 52.8262C326.231 53.6268 327.988 54.0494 329.767 54.0494C331.568 54.0494 333.436 53.5824 335.416 52.6705C335.193 52.4926 334.971 52.2925 334.726 52.1368C333.17 52.8485 331.479 53.2488 329.767 53.271C328.099 53.2488 326.453 52.8707 324.941 52.1368C324.852 52.0923 322.895 51.1805 320.849 51.1805L320.871 51.1583Z" fill="white"/>
</mask>
<g mask="url(#mask14_2601_788)">
<path d="M342.671 47.8223H297.236V72.775H342.671V47.8223Z" fill="#1D1B1B"/>
</g>
</g>
<g opacity="0.8">
<path d="M488.786 51.0038L488.159 45.8431C487.465 45.9238 486.518 46.1252 485.83 46.3391L487.359 51.3055C487.819 51.1662 488.299 51.065 488.786 51.0038Z" fill="#1D1B1B"/>
<path d="M477.179 54.1317C476.901 54.7741 476.602 55.6951 476.444 56.397L481.509 57.5559C481.619 57.0811 481.771 56.6144 481.959 56.169L477.179 54.1317Z" fill="#1D1B1B"/>
<path d="M480.461 69.5552L483.999 65.7459C483.64 65.4105 483.312 65.0476 483.022 64.6642L478.867 67.785C479.283 68.3458 479.931 69.0645 480.461 69.5552Z" fill="#1D1B1B"/>
<path d="M490.908 67.9891L491.535 73.1498C492.23 73.069 493.176 72.8676 493.864 72.6538L492.335 67.6874C491.875 67.8276 491.395 67.9287 490.908 67.9891Z" fill="#1D1B1B"/>
<path d="M502.515 64.8621C502.793 64.2197 503.092 63.2987 503.251 62.5968L498.185 61.4379C498.074 61.9135 497.923 62.3794 497.735 62.8248L502.515 64.8621Z" fill="#1D1B1B"/>
<path d="M499.233 49.4395L495.696 53.2488C496.054 53.5833 496.382 53.9471 496.673 54.3304L500.828 51.2097C500.41 50.6471 499.761 49.9275 499.233 49.4395Z" fill="#1D1B1B"/>
<path d="M483.021 54.3331C483.317 53.9418 483.645 53.5771 483.995 53.2488L482.57 51.7163L479.825 48.7997C479.213 49.3729 478.648 50.0011 478.145 50.6657L479.116 51.404L483.021 54.3331Z" fill="#1D1B1B"/>
<path d="M476.345 65.2161L477.494 64.7343L481.959 62.8283C481.773 62.3873 481.623 61.9206 481.511 61.4406L479.469 61.9091L475.568 62.8283C475.757 63.6411 476.018 64.4442 476.345 65.2161Z" fill="#1D1B1B"/>
<path d="M487.362 67.6909L486.73 69.7469L485.592 73.5295C486.391 73.7718 487.217 73.9457 488.049 74.0469L488.211 72.7806L488.79 67.9917C488.3 67.9305 487.82 67.8293 487.362 67.6909Z" fill="#1D1B1B"/>
<path d="M496.674 64.6607C496.378 65.0511 496.051 65.4158 495.7 65.745L497.152 67.3076L499.87 70.195C500.481 69.6218 501.047 68.9944 501.55 68.3289L500.555 67.5729L496.674 64.6607Z" fill="#1D1B1B"/>
<path d="M503.349 53.7776L502.202 54.2585L497.735 56.1654C497.921 56.6073 498.072 57.0731 498.183 57.5532L500.288 57.0705L504.127 56.1654C503.938 55.3517 503.677 54.5487 503.349 53.7776Z" fill="#1D1B1B"/>
<path d="M492.332 51.3028L492.955 49.2771L494.102 45.4642C493.303 45.2229 492.477 45.0481 491.645 44.9469L491.491 46.1546L490.906 51.0029C491.394 51.0624 491.874 51.1635 492.332 51.3028Z" fill="#1D1B1B"/>
<path d="M483.021 54.3331C483.317 53.9418 483.645 53.5771 483.995 53.2488L482.57 51.7163L479.825 48.7997C479.213 49.3729 478.648 50.0011 478.145 50.6657L479.116 51.404L483.021 54.3331Z" fill="#1D1B1B"/>
<path d="M476.345 65.2161L477.494 64.7343L481.959 62.8283C481.773 62.3873 481.623 61.9206 481.511 61.4406L479.469 61.9091L475.568 62.8283C475.757 63.6411 476.018 64.4442 476.345 65.2161Z" fill="#1D1B1B"/>
<path d="M487.362 67.6909L486.73 69.7469L485.592 73.5295C486.391 73.7718 487.217 73.9457 488.049 74.0469L488.211 72.7806L488.79 67.9917C488.3 67.9305 487.82 67.8293 487.362 67.6909Z" fill="#1D1B1B"/>
<path d="M496.674 64.6607C496.378 65.0511 496.051 65.4158 495.7 65.745L497.152 67.3076L499.87 70.195C500.481 69.6218 501.047 68.9944 501.55 68.3289L500.555 67.5729L496.674 64.6607Z" fill="#1D1B1B"/>
<path d="M503.349 53.7776L502.202 54.2585L497.735 56.1654C497.921 56.6073 498.072 57.0731 498.183 57.5532L500.288 57.0705L504.127 56.1654C503.938 55.3517 503.677 54.5487 503.349 53.7776Z" fill="#1D1B1B"/>
<path d="M492.332 51.3028L492.955 49.2771L494.102 45.4642C493.303 45.2229 492.477 45.0481 491.645 44.9469L491.491 46.1546L490.906 51.0029C491.394 51.0624 491.874 51.1635 492.332 51.3028Z" fill="#1D1B1B"/>
<path d="M484.612 44.3151C483.733 44.6177 482.875 44.9993 482.062 45.45L484.802 50.3703C485.322 50.0819 485.868 49.8361 486.437 49.6391L484.612 44.3151Z" fill="#1D1B1B"/>
<path d="M474.08 56.4396C473.905 57.3482 473.808 58.2817 473.793 59.216L479.443 59.303C479.454 58.6969 479.515 58.1033 479.625 57.5257L474.08 56.4396Z" fill="#1D1B1B"/>
<path d="M479.32 71.6191C480.024 72.2305 480.783 72.7824 481.576 73.2607L484.48 68.4061C483.968 68.0973 483.486 67.7459 483.037 67.3564L479.32 71.6191Z" fill="#1D1B1B"/>
<path d="M495.083 74.6786C495.962 74.3761 496.819 73.9945 497.633 73.5438L494.879 68.5995C494.361 68.8862 493.816 69.1302 493.249 69.3272L495.083 74.6786Z" fill="#1D1B1B"/>
<path d="M505.615 62.5541C505.791 61.6455 505.887 60.7121 505.903 59.7777L500.251 59.6907C500.24 60.2968 500.176 60.8904 500.064 61.4672L505.615 62.5541Z" fill="#1D1B1B"/>
<path d="M500.375 47.3746C499.67 46.7632 498.912 46.2113 498.119 45.733L495.229 50.5654C495.741 50.876 496.224 51.2292 496.674 51.6205L500.375 47.3746Z" fill="#1D1B1B"/>
<path d="M481.569 45.7348C480.773 46.2148 480.014 46.7668 479.313 47.3773L483.019 51.6222C483.467 51.2309 483.951 50.8769 484.463 50.5663L481.569 45.7348Z" fill="#1D1B1B"/>
<path d="M473.794 59.7848C473.803 60.256 473.832 60.7236 473.879 61.1753C473.927 61.6287 473.997 62.0936 474.087 62.5595L479.633 61.4699C479.521 60.8931 479.457 60.3004 479.445 59.6934L473.794 59.7848Z" fill="#1D1B1B"/>
<path d="M482.069 73.5446C482.881 73.9954 483.738 74.3778 484.618 74.6813L486.45 69.328C485.883 69.1319 485.337 68.8879 484.819 68.6013L482.069 73.5446Z" fill="#1D1B1B"/>
<path d="M498.126 73.258C498.922 72.778 499.681 72.2252 500.382 71.6156L496.662 67.3528C496.213 67.7424 495.73 68.0938 495.218 68.4034L498.126 73.258Z" fill="#1D1B1B"/>
<path d="M505.901 59.2089C505.892 58.7378 505.864 58.2702 505.816 57.8185C505.768 57.3651 505.699 56.9001 505.608 56.4343L500.068 57.523C500.178 58.0998 500.24 58.6934 500.25 59.3003L505.901 59.2089Z" fill="#1D1B1B"/>
<path d="M494.933 50.2904L497.626 45.4491C496.813 44.9983 495.956 44.6159 495.076 44.3124L493.255 49.6382C493.823 49.8352 494.369 50.0801 494.888 50.3685L494.933 50.2904Z" fill="#1D1B1B"/>
<path d="M476.69 50.2939C476.156 51.0553 475.687 51.8681 475.293 52.7093L480.411 55.0838C480.664 54.5398 480.963 54.0216 481.303 53.5345L476.69 50.2939Z" fill="#1D1B1B"/>
<path d="M475.294 66.2916C475.686 67.1301 476.156 67.9429 476.692 68.7069L481.32 65.4522C480.98 64.9659 480.68 64.4495 480.425 63.9073L475.294 66.2916Z" fill="#1D1B1B"/>
<path d="M503.004 68.6998C503.537 67.9385 504.007 67.1257 504.401 66.2836L499.27 63.9038C499.015 64.446 498.715 64.9624 498.376 65.4487L503.004 68.6998Z" fill="#1D1B1B"/>
<path d="M504.399 52.7022C504.008 51.8628 503.538 51.0509 503.002 50.2869L498.388 53.5309C498.727 54.019 499.026 54.5363 499.28 55.0802L504.399 52.7022Z" fill="#1D1B1B"/>
<path d="M490.741 49.1049L491.239 43.4987C490.786 43.4597 490.325 43.4402 489.869 43.4402C489.398 43.4402 488.921 43.4615 488.449 43.5023L488.95 49.1049C489.245 49.0801 489.544 49.0659 489.847 49.0659C490.149 49.0667 490.447 49.0801 490.741 49.1049Z" fill="#1D1B1B"/>
<path d="M488.957 69.8578L488.457 75.4932C488.929 75.534 489.399 75.5544 489.856 75.5544C490.31 75.5544 490.779 75.534 491.248 75.4932L490.742 69.8569C490.448 69.8817 490.15 69.8959 489.848 69.8959C489.548 69.8959 489.251 69.8826 488.957 69.8578Z" fill="#1D1B1B"/>
<path d="M523.405 59.0638C524.74 59.4569 525.899 60.5554 525.899 62.3806C525.899 64.5013 524.387 66.386 520.971 66.386H515.062V52.6448H520.991C523.464 52.6448 525.171 54.3139 525.171 56.2181C525.171 57.7488 524.151 58.7106 523.404 58.9857V59.0638H523.405ZM520.363 58.0815C521.265 58.0815 521.854 57.5314 521.854 56.7274C521.854 55.9617 521.285 55.3725 520.343 55.3725H518.36V58.0815H520.363ZM520.677 63.6566C521.815 63.6566 522.424 63.0089 522.424 62.086C522.424 61.1046 521.756 60.5155 520.677 60.5155H518.36V63.6566H520.677Z" fill="#1D1B1B"/>
<path d="M534.219 66.383H530.921V60.9659L525.797 52.6427H529.606L531.725 56.3721C532.216 57.2364 532.629 57.9818 532.648 58.0013H532.707C532.727 57.9818 533.139 57.216 533.63 56.3721L535.828 52.6427H539.341L534.218 60.9659L534.219 66.383Z" fill="#1D1B1B"/>
<path d="M551.214 63.0272C551.214 59.7689 551.253 58.1593 551.253 58.1397H551.214C551.195 58.1593 550.526 59.3962 549.859 60.5728L548.524 62.9872H546.679L545.345 60.6127C544.658 59.3953 544.009 58.1584 543.991 58.1388H543.931C543.931 58.1584 543.97 59.768 543.97 63.0263V66.3821H540.673V52.6436H544.166L547.622 58.7875H547.68L551.154 52.6436H554.511V66.383H551.214V63.0272Z" fill="#1D1B1B"/>
<path d="M560.162 64.107L559.337 66.383H555.862L561.163 52.6427H564.911L570.232 66.383H566.699L565.873 64.107H560.162ZM563.812 58.3749C563.381 57.2364 563.066 56.373 563.046 56.3526H562.987C562.967 56.373 562.653 57.2169 562.221 58.3553L561.24 61.1034H564.792L563.812 58.3749Z" fill="#1D1B1B"/>
<path d="M517.152 70.2793C517.331 70.4195 517.422 70.6138 517.422 70.8614C517.422 71.0486 517.37 71.2056 517.266 71.3325C517.162 71.4594 517.016 71.5428 516.829 71.5819C517.062 71.612 517.243 71.6981 517.372 71.8401C517.502 71.9821 517.567 72.1613 517.567 72.3787C517.567 72.6502 517.465 72.8614 517.263 73.0122C517.061 73.1631 516.78 73.2385 516.421 73.2385H515.081V70.0699H516.408C516.725 70.0681 516.973 70.1382 517.152 70.2793ZM516.914 71.3201C517.038 71.2225 517.1 71.0823 517.1 70.9013C517.1 70.7265 517.038 70.5907 516.914 70.494C516.79 70.3973 516.617 70.3511 516.394 70.3538H515.394V71.4674H516.394C516.617 71.4674 516.791 71.4177 516.914 71.3201ZM517.025 72.7957C517.174 72.6884 517.25 72.5384 517.25 72.345C517.25 72.1551 517.174 72.0069 517.024 71.9013C516.873 71.7957 516.663 71.7434 516.394 71.7434H515.394V72.9563H516.394C516.666 72.9563 516.876 72.9031 517.025 72.7957Z" fill="#1D1B1B"/>
<path d="M519.848 71.0078C520.029 71.1089 520.171 71.25 520.274 71.431C520.377 71.612 520.428 71.817 520.428 72.0468C520.428 72.2793 520.376 72.4869 520.274 72.6688C520.171 72.8516 520.03 72.9936 519.848 73.0948C519.667 73.1959 519.462 73.2465 519.233 73.2465C519.004 73.2465 518.798 73.1959 518.617 73.0948C518.436 72.9936 518.294 72.8516 518.191 72.6688C518.088 72.486 518.037 72.2793 518.037 72.0468C518.037 71.8179 518.089 71.612 518.191 71.431C518.294 71.25 518.435 71.1089 518.617 71.0078C518.798 70.9066 519.003 70.856 519.233 70.856C519.462 70.856 519.667 70.9066 519.848 71.0078ZM518.771 71.2367C518.635 71.3148 518.53 71.4257 518.454 71.5668C518.379 71.7087 518.341 71.8702 518.341 72.0513C518.341 72.2358 518.379 72.3982 518.454 72.5402C518.53 72.6821 518.635 72.7922 518.771 72.8703C518.907 72.9483 519.061 72.9883 519.233 72.9883C519.405 72.9883 519.558 72.9492 519.694 72.8703C519.83 72.7922 519.935 72.6813 520.011 72.5402C520.086 72.3982 520.124 72.2358 520.124 72.0513C520.124 71.8702 520.086 71.7087 520.011 71.5668C519.935 71.4248 519.83 71.3148 519.694 71.2367C519.558 71.1586 519.405 71.1187 519.233 71.1187C519.061 71.1187 518.907 71.1577 518.771 71.2367Z" fill="#1D1B1B"/>
<path d="M521.092 69.8782H521.396V73.2367H521.092V69.8782Z" fill="#1D1B1B"/>
<path d="M523.23 71.1524C523.118 71.1205 523.008 71.1045 522.9 71.1045C522.749 71.1045 522.628 71.1338 522.535 71.1924C522.443 71.2509 522.397 71.3397 522.397 71.4577C522.397 71.5393 522.422 71.6059 522.472 71.6564C522.521 71.7079 522.583 71.7496 522.657 71.7807C522.731 71.8126 522.834 71.8481 522.967 71.8871C523.13 71.9351 523.262 71.983 523.365 72.03C523.468 72.077 523.555 72.1445 523.628 72.2341C523.7 72.3228 523.736 72.4399 523.736 72.5846C523.736 72.7984 523.654 72.9626 523.492 73.0762C523.329 73.1897 523.125 73.2456 522.881 73.2456C522.708 73.2456 522.542 73.2172 522.383 73.1596C522.223 73.1028 522.088 73.0211 521.98 72.9156L522.102 72.6982C522.205 72.7922 522.327 72.8659 522.467 72.92C522.607 72.9741 522.75 73.0016 522.895 73.0016C523.054 73.0016 523.185 72.9688 523.286 72.9022C523.387 72.8357 523.438 72.739 523.438 72.613C523.438 72.5251 523.412 72.4541 523.361 72.3982C523.309 72.3423 523.245 72.2989 523.168 72.2669C523.091 72.235 522.984 72.1986 522.849 72.156C522.689 72.1081 522.559 72.0611 522.459 72.0158C522.36 71.9705 522.275 71.9049 522.205 71.8188C522.136 71.7327 522.101 71.6201 522.101 71.4816C522.101 71.2731 522.179 71.1169 522.335 71.0105C522.49 70.9049 522.684 70.8516 522.916 70.8516C523.052 70.8516 523.183 70.8694 523.31 70.9058C523.437 70.9421 523.55 70.9918 523.65 71.0548L523.532 71.2855C523.443 71.2287 523.342 71.1844 523.23 71.1524Z" fill="#1D1B1B"/>
<path d="M525.827 73.2367L525.823 72.8383C525.729 72.9767 525.607 73.0805 525.457 73.148C525.306 73.2154 525.132 73.25 524.936 73.25C524.776 73.25 524.635 73.219 524.512 73.1568C524.39 73.0947 524.296 73.0095 524.229 72.9013C524.163 72.793 524.13 72.6706 524.13 72.5348C524.13 72.3298 524.209 72.1684 524.368 72.0503C524.526 71.9323 524.744 71.8738 525.022 71.8738H525.819V71.6927C525.819 71.5055 525.763 71.3609 525.651 71.258C525.539 71.155 525.377 71.1044 525.162 71.1044C524.908 71.1044 524.654 71.1994 524.397 71.3893L524.261 71.1808C524.421 71.0689 524.574 70.9873 524.718 70.9341C524.863 70.8817 525.029 70.8551 525.216 70.8551C525.503 70.8551 525.725 70.927 525.882 71.0698C526.039 71.2136 526.119 71.4115 526.121 71.6652L526.126 73.2358L525.827 73.2367ZM525.527 72.8498C525.673 72.7522 525.772 72.6138 525.823 72.4354V72.1098H525.058C524.85 72.1098 524.692 72.1444 524.583 72.2136C524.474 72.2828 524.419 72.3875 524.419 72.5259C524.419 72.6679 524.472 72.7815 524.575 72.8676C524.679 72.9536 524.818 72.9962 524.99 72.9962C525.202 72.9971 525.38 72.9483 525.527 72.8498Z" fill="#1D1B1B"/>
<path d="M527.86 71.1524C527.748 71.1205 527.638 71.1045 527.53 71.1045C527.379 71.1045 527.257 71.1338 527.165 71.1924C527.073 71.2509 527.027 71.3397 527.027 71.4577C527.027 71.5393 527.052 71.6059 527.101 71.6564C527.151 71.7079 527.213 71.7496 527.287 71.7807C527.36 71.8126 527.464 71.8481 527.596 71.8871C527.76 71.9351 527.892 71.983 527.995 72.03C528.098 72.077 528.185 72.1445 528.258 72.2341C528.33 72.3228 528.366 72.4399 528.366 72.5846C528.366 72.7984 528.284 72.9626 528.122 73.0762C527.958 73.1897 527.755 73.2456 527.51 73.2456C527.338 73.2456 527.172 73.2172 527.013 73.1596C526.853 73.1028 526.718 73.0211 526.61 72.9156L526.732 72.6982C526.835 72.7922 526.957 72.8659 527.097 72.92C527.237 72.9741 527.38 73.0016 527.525 73.0016C527.684 73.0016 527.815 72.9688 527.916 72.9022C528.017 72.8357 528.068 72.739 528.068 72.613C528.068 72.5251 528.042 72.4541 527.99 72.3982C527.939 72.3423 527.875 72.2989 527.798 72.2669C527.721 72.235 527.614 72.1986 527.478 72.156C527.319 72.1081 527.189 72.0611 527.089 72.0158C526.99 71.9705 526.905 71.9049 526.835 71.8188C526.766 71.7327 526.731 71.6201 526.731 71.4816C526.731 71.2731 526.809 71.1169 526.965 71.0105C527.12 70.9049 527.314 70.8516 527.546 70.8516C527.682 70.8516 527.813 70.8694 527.94 70.9058C528.067 70.9421 528.179 70.9918 528.28 71.0548L528.162 71.2855C528.073 71.2287 527.972 71.1844 527.86 71.1524Z" fill="#1D1B1B"/>
<path d="M530.633 73.9883C530.514 74.0814 530.377 74.1285 530.223 74.1285C530.038 74.1285 529.876 74.0743 529.734 73.9652L529.87 73.7301C529.975 73.8028 530.089 73.8392 530.21 73.8392C530.306 73.8392 530.393 73.8073 530.472 73.7443C530.55 73.6813 530.615 73.589 530.667 73.4683L530.766 73.2234L529.784 70.8649H530.105L530.92 72.9022L531.703 70.8649H532.015L530.92 73.5765C530.848 73.7576 530.752 73.8951 530.633 73.9883Z" fill="#1D1B1B"/>
<path d="M533.75 70.0681H534.139L535.38 72.4443L536.606 70.0681H536.995V73.2367H536.706L536.701 70.5028L535.46 72.8977H535.288L534.043 70.5028V73.2367H533.749L533.75 70.0681Z" fill="#1D1B1B"/>
<path d="M539.702 71.2065C539.896 71.4408 539.985 71.7549 539.969 72.1506H537.992C538.013 72.4044 538.106 72.6085 538.272 72.7638C538.438 72.9191 538.643 72.9971 538.888 72.9971C539.039 72.9971 539.179 72.9696 539.308 72.9155C539.438 72.8614 539.55 72.7842 539.643 72.6848L539.815 72.8569C539.701 72.9803 539.562 73.0761 539.401 73.1444C539.239 73.2128 539.062 73.2465 538.869 73.2465C538.64 73.2465 538.436 73.1959 538.258 73.0948C538.079 72.9936 537.94 72.8525 537.839 72.6715C537.738 72.4905 537.687 72.2837 537.687 72.0513C537.687 71.8223 537.738 71.6156 537.839 71.4337C537.94 71.2509 538.079 71.1089 538.258 71.0078C538.436 70.9066 538.637 70.856 538.86 70.856C539.229 70.856 539.51 70.9731 539.702 71.2065ZM539.698 71.9155C539.683 71.6679 539.6 71.4709 539.451 71.3245C539.302 71.1781 539.106 71.1054 538.865 71.1054C538.626 71.1054 538.427 71.179 538.268 71.3272C538.108 71.4754 538.016 71.6715 537.992 71.9155H539.698Z" fill="#1D1B1B"/>
<path d="M541.243 71.0033C541.389 70.9084 541.565 70.8596 541.77 70.856V71.1409C541.52 71.1382 541.318 71.211 541.166 71.36C541.013 71.5091 540.926 71.7123 540.906 71.9687V73.2358H540.602V70.864H540.906V71.4159C540.984 71.2367 541.097 71.0983 541.243 71.0033Z" fill="#1D1B1B"/>
<path d="M543.202 71.1231C543.033 71.1231 542.881 71.1621 542.745 71.2411C542.61 71.3192 542.504 71.4292 542.429 71.5694C542.353 71.7096 542.315 71.8702 542.315 72.0513C542.315 72.2323 542.353 72.3938 542.429 72.5357C542.504 72.6777 542.61 72.7877 542.745 72.8658C542.881 72.9439 543.034 72.9838 543.202 72.9838C543.356 72.9838 543.497 72.9563 543.626 72.9022C543.754 72.8481 543.862 72.7691 543.949 72.6671L544.122 72.8481C544.016 72.975 543.883 73.0726 543.723 73.1427C543.563 73.2119 543.385 73.2465 543.189 73.2465C542.963 73.2465 542.76 73.1959 542.582 73.0948C542.404 72.9936 542.264 72.8516 542.163 72.6688C542.062 72.486 542.011 72.2802 542.011 72.0513C542.011 71.8223 542.062 71.6156 542.163 71.4337C542.264 71.2509 542.404 71.1089 542.582 71.0078C542.76 70.9066 542.963 70.856 543.189 70.856C543.373 70.856 543.541 70.8862 543.694 70.9465C543.846 71.0069 543.977 71.0912 544.085 71.2003L543.913 71.4044C543.72 71.2172 543.483 71.1231 543.202 71.1231Z" fill="#1D1B1B"/>
<path d="M546.149 73.2367L546.144 72.8383C546.05 72.9767 545.929 73.0805 545.778 73.148C545.627 73.2154 545.453 73.25 545.257 73.25C545.097 73.25 544.956 73.219 544.834 73.1568C544.711 73.0947 544.617 73.0095 544.551 72.9013C544.484 72.793 544.451 72.6706 544.451 72.5348C544.451 72.3298 544.53 72.1684 544.689 72.0503C544.847 71.9323 545.065 71.8738 545.343 71.8738H546.14V71.6927C546.14 71.5055 546.084 71.3609 545.972 71.258C545.86 71.155 545.698 71.1044 545.483 71.1044C545.229 71.1044 544.975 71.1994 544.718 71.3893L544.582 71.1808C544.742 71.0689 544.895 70.9873 545.039 70.9341C545.184 70.8817 545.35 70.8551 545.537 70.8551C545.824 70.8551 546.046 70.927 546.203 71.0698C546.36 71.2136 546.44 71.4115 546.442 71.6652L546.447 73.2358L546.149 73.2367ZM545.848 72.8498C545.994 72.7522 546.093 72.6138 546.144 72.4354V72.1098H545.379C545.171 72.1098 545.013 72.1444 544.904 72.2136C544.795 72.2828 544.74 72.3875 544.74 72.5259C544.74 72.6679 544.793 72.7815 544.897 72.8676C545 72.9536 545.139 72.9962 545.311 72.9962C545.522 72.9971 545.701 72.9483 545.848 72.8498Z" fill="#1D1B1B"/>
<path d="M549.416 69.8782V73.2367H549.113V72.6937C549.022 72.872 548.895 73.0096 548.732 73.1081C548.569 73.2065 548.379 73.2554 548.161 73.2554C547.938 73.2554 547.739 73.2039 547.564 73.1018C547.389 72.9989 547.254 72.8561 547.157 72.6715C547.06 72.4878 547.012 72.2793 547.012 72.0468C547.012 71.8143 547.061 71.6076 547.16 71.4266C547.257 71.2455 547.394 71.1036 547.567 71.0015C547.74 70.8986 547.937 70.8471 548.158 70.8471C548.375 70.8471 548.566 70.8968 548.73 70.9962C548.894 71.0956 549.022 71.2349 549.113 71.4124V69.8782H549.416ZM548.679 72.8729C548.815 72.7931 548.921 72.6821 548.998 72.5402C549.075 72.3982 549.114 72.2367 549.114 72.0557C549.114 71.8747 549.075 71.7123 548.998 71.5694C548.921 71.4266 548.815 71.3139 548.679 71.2322C548.543 71.1506 548.389 71.1098 548.217 71.1098C548.045 71.1098 547.892 71.1506 547.756 71.2322C547.62 71.3139 547.513 71.4266 547.435 71.5694C547.357 71.7132 547.317 71.8747 547.317 72.0557C547.317 72.2367 547.355 72.3982 547.432 72.5402C547.509 72.6821 547.616 72.7931 547.753 72.8729C547.891 72.9528 548.045 72.9927 548.217 72.9927C548.389 72.9927 548.543 72.9528 548.679 72.8729Z" fill="#1D1B1B"/>
<path d="M551.893 71.0078C552.074 71.1089 552.216 71.25 552.319 71.431C552.421 71.612 552.473 71.817 552.473 72.0468C552.473 72.2793 552.421 72.4869 552.319 72.6688C552.216 72.8516 552.074 72.9936 551.893 73.0948C551.712 73.1959 551.507 73.2465 551.278 73.2465C551.048 73.2465 550.843 73.1959 550.662 73.0948C550.481 72.9936 550.339 72.8516 550.237 72.6688C550.134 72.486 550.083 72.2793 550.083 72.0468C550.083 71.8179 550.135 71.612 550.237 71.431C550.34 71.25 550.481 71.1089 550.662 71.0078C550.843 70.9066 551.048 70.856 551.278 70.856C551.507 70.856 551.712 70.9066 551.893 71.0078ZM550.816 71.2367C550.68 71.3148 550.575 71.4257 550.499 71.5668C550.424 71.7087 550.386 71.8702 550.386 72.0513C550.386 72.2358 550.424 72.3982 550.499 72.5402C550.575 72.6821 550.68 72.7922 550.816 72.8703C550.952 72.9483 551.106 72.9883 551.278 72.9883C551.45 72.9883 551.603 72.9492 551.739 72.8703C551.875 72.7922 551.98 72.6813 552.056 72.5402C552.131 72.3982 552.169 72.2358 552.169 72.0513C552.169 71.8702 552.131 71.7087 552.056 71.5668C551.98 71.4248 551.875 71.3148 551.739 71.2367C551.603 71.1586 551.45 71.1187 551.278 71.1187C551.106 71.1187 550.952 71.1577 550.816 71.2367Z" fill="#1D1B1B"/>
<path d="M554.039 71.1524C553.927 71.1205 553.817 71.1045 553.709 71.1045C553.558 71.1045 553.436 71.1338 553.344 71.1923C553.252 71.2518 553.206 71.3405 553.206 71.4585C553.206 71.5402 553.231 71.6067 553.28 71.6573C553.33 71.7087 553.392 71.7505 553.466 71.7815C553.539 71.8135 553.643 71.8489 553.775 71.888C553.939 71.9359 554.071 71.9838 554.174 72.0309C554.277 72.0779 554.364 72.1453 554.436 72.2349C554.509 72.3237 554.545 72.4408 554.545 72.5854C554.545 72.7993 554.463 72.9634 554.301 73.077C554.137 73.1906 553.934 73.2465 553.689 73.2465C553.517 73.2465 553.351 73.2181 553.191 73.1604C553.032 73.1036 552.897 73.022 552.789 72.9164L552.911 72.699C553.014 72.7931 553.136 72.8667 553.276 72.9208C553.416 72.975 553.559 73.0025 553.703 73.0025C553.863 73.0025 553.994 72.9696 554.095 72.9031C554.196 72.8365 554.247 72.7398 554.247 72.6138C554.247 72.526 554.221 72.455 554.169 72.3991C554.118 72.3432 554.054 72.2997 553.977 72.2678C553.9 72.2358 553.793 72.1994 553.657 72.1569C553.498 72.1089 553.368 72.0619 553.268 72.0167C553.168 71.9714 553.084 71.9057 553.014 71.8197C552.945 71.7336 552.91 71.6209 552.91 71.4825C552.91 71.274 552.987 71.1178 553.144 71.0113C553.299 70.9057 553.493 70.8525 553.725 70.8525C553.861 70.8525 553.992 70.8702 554.119 70.9066C554.246 70.943 554.358 70.9927 554.459 71.0557L554.341 71.2864C554.252 71.2287 554.151 71.1843 554.039 71.1524Z" fill="#1D1B1B"/>
<path d="M517.444 78.432L517.068 77.59H515.312L514.941 78.432H514.606L516.032 75.2678H516.358L517.784 78.432H517.444ZM515.434 77.3087H516.946L516.186 75.5979L515.434 77.3087Z" fill="#1D1B1B"/>
<path d="M518.89 76.1978C519.037 76.1028 519.212 76.054 519.417 76.0505V76.3353C519.167 76.3326 518.966 76.4054 518.813 76.5545C518.66 76.7036 518.574 76.9068 518.553 77.1632V78.4303H518.25V76.0585H518.553V76.6104C518.632 76.4311 518.744 76.2927 518.89 76.1978Z" fill="#1D1B1B"/>
<path d="M521.957 76.0594V78.1827C521.957 78.4117 521.909 78.6131 521.813 78.7852C521.716 78.9574 521.577 79.0896 521.398 79.181C521.219 79.2733 521.011 79.3194 520.775 79.3194C520.425 79.3194 520.101 79.1987 519.802 78.9574L519.947 78.74C520.067 78.8456 520.194 78.9254 520.327 78.9796C520.46 79.0337 520.605 79.0612 520.762 79.0612C521.033 79.0612 521.25 78.9822 521.411 78.8234C521.573 78.6646 521.654 78.4525 521.654 78.1872V77.8021C521.569 77.968 521.449 78.0975 521.292 78.1916C521.135 78.2857 520.954 78.3318 520.749 78.3318C520.537 78.3318 520.349 78.283 520.185 78.1845C520.021 78.0869 519.892 77.9503 519.8 77.7772C519.708 77.6042 519.662 77.4072 519.662 77.1863C519.662 76.9662 519.708 76.7701 519.8 76.598C519.892 76.4258 520.021 76.2918 520.187 76.1951C520.353 76.0984 520.542 76.0505 520.753 76.0505C520.958 76.0505 521.138 76.0966 521.292 76.1889C521.445 76.2812 521.566 76.4116 521.654 76.5802V76.0594H521.957ZM521.242 77.9724C521.372 77.8952 521.473 77.7888 521.545 77.653C521.618 77.5172 521.654 77.3646 521.654 77.196C521.654 77.0239 521.617 76.8704 521.545 76.7346C521.473 76.5988 521.372 76.4924 521.242 76.4152C521.112 76.338 520.966 76.2998 520.803 76.2998C520.64 76.2998 520.493 76.338 520.364 76.4152C520.234 76.4924 520.132 76.5988 520.058 76.7346C519.985 76.8704 519.947 77.0239 519.947 77.196C519.947 77.3682 519.985 77.5217 520.058 77.6557C520.132 77.7896 520.233 77.8952 520.362 77.9724C520.49 78.0496 520.637 78.0878 520.803 78.0878C520.966 78.0878 521.112 78.0487 521.242 77.9724Z" fill="#1D1B1B"/>
<path d="M524.547 76.401C524.74 76.6352 524.829 76.9493 524.814 77.3451H522.836C522.857 77.5989 522.95 77.803 523.116 77.9582C523.282 78.1135 523.487 78.1916 523.732 78.1916C523.883 78.1916 524.023 78.1641 524.154 78.11C524.283 78.0558 524.395 77.9786 524.488 77.8793L524.66 78.0514C524.546 78.1747 524.407 78.2706 524.246 78.3389C524.084 78.4072 523.907 78.4409 523.714 78.4409C523.485 78.4409 523.281 78.3904 523.103 78.2892C522.925 78.1881 522.785 78.047 522.684 77.866C522.583 77.6849 522.532 77.4782 522.532 77.2457C522.532 77.0168 522.583 76.81 522.684 76.6281C522.785 76.4453 522.925 76.3034 523.103 76.2022C523.281 76.1011 523.482 76.0505 523.706 76.0505C524.073 76.0505 524.353 76.1676 524.547 76.401ZM524.541 77.1099C524.526 76.8624 524.444 76.6654 524.295 76.519C524.146 76.3726 523.95 76.2998 523.708 76.2998C523.469 76.2998 523.271 76.3735 523.111 76.5217C522.951 76.6698 522.859 76.8659 522.835 77.1099H524.541Z" fill="#1D1B1B"/>
<path d="M527.356 76.2972C527.517 76.4613 527.598 76.6876 527.598 76.9742V78.4321H527.29V77.0461C527.29 76.8225 527.228 76.6477 527.105 76.5208C526.981 76.3939 526.809 76.3309 526.588 76.3309C526.344 76.3335 526.148 76.409 526.002 76.5571C525.855 76.7053 525.772 76.9041 525.751 77.1543V78.4312H525.447V76.0594H525.751V76.6113C525.832 76.4276 525.952 76.2883 526.111 76.1951C526.269 76.1019 526.462 76.0531 526.688 76.0505C526.972 76.0505 527.194 76.133 527.356 76.2972Z" fill="#1D1B1B"/>
<path d="M529.604 78.2688C529.441 78.3806 529.266 78.4392 529.079 78.4454C528.898 78.4454 528.754 78.3895 528.648 78.2777C528.543 78.1659 528.49 77.9982 528.49 77.7754V76.3628H528.15L528.146 76.1277H528.49V75.5163H528.794V76.1277L529.563 76.1232V76.3628H528.794V77.7257C528.794 78.0186 528.902 78.165 529.119 78.165C529.24 78.165 529.371 78.1224 529.513 78.0381L529.604 78.2688Z" fill="#1D1B1B"/>
<path d="M530.455 75.2244C530.494 75.2652 530.513 75.3158 530.513 75.3761C530.513 75.4364 530.493 75.4879 530.452 75.5296C530.411 75.5722 530.362 75.5926 530.305 75.5926C530.244 75.5926 530.194 75.5713 530.153 75.5296C530.112 75.4879 530.092 75.4364 530.092 75.3761C530.092 75.3158 530.112 75.2652 530.153 75.2244C530.194 75.1836 530.244 75.1631 530.305 75.1631C530.366 75.1631 530.416 75.1836 530.455 75.2244ZM530.151 76.0594H530.455V78.4312H530.151V76.0594Z" fill="#1D1B1B"/>
<path d="M533.244 76.2972C533.406 76.4613 533.487 76.6876 533.487 76.9742V78.4321H533.179V77.0461C533.179 76.8225 533.117 76.6477 532.993 76.5208C532.869 76.3939 532.698 76.3309 532.477 76.3309C532.233 76.3335 532.037 76.409 531.89 76.5571C531.744 76.7053 531.66 76.9041 531.639 77.1543V78.4312H531.336V76.0594H531.639V76.6113C531.721 76.4276 531.841 76.2883 531.999 76.1951C532.157 76.1019 532.35 76.0531 532.576 76.0505C532.86 76.0505 533.083 76.133 533.244 76.2972Z" fill="#1D1B1B"/>
<path d="M535.864 76.2022C536.045 76.3034 536.187 76.4445 536.289 76.6255C536.392 76.8065 536.443 77.0115 536.443 77.2413C536.443 77.4738 536.391 77.6814 536.289 77.8633C536.186 78.0461 536.045 78.1881 535.864 78.2892C535.683 78.3904 535.478 78.4409 535.248 78.4409C535.019 78.4409 534.813 78.3904 534.632 78.2892C534.451 78.1881 534.309 78.0461 534.207 77.8633C534.105 77.6805 534.053 77.4738 534.053 77.2413C534.053 77.0123 534.105 76.8065 534.207 76.6255C534.31 76.4445 534.451 76.3034 534.632 76.2022C534.813 76.1011 535.018 76.0505 535.248 76.0505C535.478 76.0505 535.683 76.1011 535.864 76.2022ZM534.787 76.4311C534.651 76.5092 534.546 76.6201 534.47 76.7612C534.395 76.9032 534.357 77.0647 534.357 77.2457C534.357 77.4303 534.395 77.5927 534.47 77.7346C534.546 77.8766 534.651 77.9866 534.787 78.0647C534.923 78.1428 535.076 78.1827 535.248 78.1827C535.42 78.1827 535.574 78.1437 535.71 78.0647C535.845 77.9866 535.951 77.8757 536.026 77.7346C536.102 77.5927 536.14 77.4303 536.14 77.2457C536.14 77.0647 536.102 76.9032 536.026 76.7612C535.951 76.6193 535.845 76.5092 535.71 76.4311C535.574 76.3531 535.42 76.3131 535.248 76.3131C535.076 76.3131 534.923 76.3522 534.787 76.4311Z" fill="#1D1B1B"/>
<path d="M538.01 76.3468C537.898 76.3149 537.788 76.2989 537.68 76.2989C537.529 76.2989 537.407 76.3282 537.315 76.3868C537.223 76.4453 537.177 76.5341 537.177 76.6521C537.177 76.7337 537.202 76.8002 537.251 76.8508C537.301 76.9023 537.363 76.944 537.437 76.9751C537.51 77.007 537.614 77.0425 537.746 77.0815C537.91 77.1295 538.042 77.1774 538.145 77.2244C538.248 77.2714 538.335 77.3389 538.407 77.4285C538.48 77.5181 538.516 77.6343 538.516 77.779C538.516 77.9928 538.434 78.157 538.272 78.2706C538.108 78.3841 537.905 78.44 537.66 78.44C537.488 78.44 537.322 78.4116 537.162 78.354C537.003 78.2972 536.868 78.2155 536.76 78.11L536.882 77.8926C536.985 77.9866 537.107 78.0603 537.247 78.1144C537.387 78.1685 537.53 78.196 537.674 78.196C537.834 78.196 537.965 78.1632 538.066 78.0966C538.167 78.0301 538.218 77.9334 538.218 77.8074C538.218 77.7195 538.192 77.6485 538.14 77.5926C538.089 77.5367 538.025 77.4933 537.948 77.4613C537.871 77.4294 537.764 77.393 537.628 77.3504C537.469 77.3025 537.339 77.2555 537.239 77.2102C537.139 77.1649 537.055 77.0993 536.985 77.0132C536.916 76.9271 536.881 76.8144 536.881 76.676C536.881 76.4675 536.958 76.3113 537.115 76.2049C537.27 76.0993 537.464 76.046 537.696 76.046C537.832 76.046 537.963 76.0638 538.09 76.1001C538.217 76.1365 538.329 76.1862 538.43 76.2492L538.312 76.4799C538.222 76.4231 538.121 76.3788 538.01 76.3468Z" fill="#1D1B1B"/>
</g>
<g clip-path="url(#clip1_2601_788)">
<path d="M642.185 68.7218C642.551 68.3381 642.877 67.8583 643.146 67.3115L645.078 62.6106L642.378 56.0484H642.089C641.628 56.0484 641.225 56.1347 640.888 56.2978C640.533 56.4705 640.216 56.6816 639.947 56.9406C639.678 57.1997 639.437 57.497 639.245 57.8136C639.043 58.1398 638.89 58.4565 638.765 58.7442C638.563 59.2335 638.342 59.7708 638.083 60.3944C637.842 60.9796 637.583 61.6129 637.304 62.2748C637.026 62.9463 636.747 63.6084 636.478 64.2319C636.199 64.8843 635.93 65.5175 635.681 66.1122C635.152 67.369 634.614 68.645 634.066 69.921H639.101C639.812 69.921 640.418 69.8155 640.908 69.6044C641.398 69.403 641.82 69.1055 642.185 68.7218Z" fill="#1D1B1B"/>
<path fill-rule="evenodd" clip-rule="evenodd" d="M650.92 63.455L648.729 62.6011C648.624 62.7355 648.499 62.8409 648.345 62.8986C648.114 62.9945 647.855 63.0136 647.605 62.9178C647.105 62.7259 646.856 62.1598 647.048 61.6609C647.24 61.1621 647.807 60.9126 648.307 61.1141C648.72 61.2772 648.96 61.6897 648.922 62.1022L650.641 62.7738L649.162 59.109L647.711 58.4087C647.432 58.7252 646.961 58.8308 646.567 58.6389C646.087 58.4087 645.885 57.8234 646.116 57.3438C646.347 56.864 646.933 56.6626 647.413 56.8928C647.653 57.008 647.826 57.2094 647.903 57.4492C647.961 57.6028 647.97 57.7659 647.942 57.929L648.864 58.3798L647.845 55.8663C647.682 55.8855 647.519 55.8567 647.365 55.7895C647.134 55.6936 646.942 55.5017 646.846 55.2619C646.644 54.763 646.894 54.197 647.394 54.0051C647.893 53.8036 648.46 54.0531 648.653 54.5519C648.816 54.9645 648.672 55.4154 648.345 55.6744L650.151 60.1451L650.68 59.3105C650.565 59.1857 650.497 59.0418 650.459 58.8787C650.401 58.6389 650.44 58.3702 650.584 58.1496C650.872 57.6987 651.468 57.5644 651.919 57.8426C652.371 58.1304 652.506 58.7252 652.227 59.1762C651.996 59.5503 651.545 59.7038 651.131 59.5887L650.401 60.7495L651.804 64.2225L652.688 62.8314C652.573 62.7067 652.506 62.5627 652.467 62.3997C652.409 62.1598 652.448 61.8912 652.592 61.6706C652.88 61.2196 653.476 61.0854 653.928 61.3635C654.379 61.6514 654.514 62.2462 654.235 62.6971C654.004 63.0712 653.553 63.2247 653.14 63.1096L652.054 64.8269L653.38 68.1175H658.501C658.131 67.245 657.766 66.3835 657.406 65.5314L657.405 65.5301C657.092 64.79 656.782 64.057 656.474 63.3303C656.402 63.1606 656.33 62.9891 656.258 62.8156L656.257 62.8146L656.257 62.8134C656.046 62.3109 655.828 61.7923 655.599 61.258C655.292 60.5386 654.984 59.8188 654.687 59.109C654.389 58.3991 654.1 57.7083 653.831 57.0463C653.562 56.3844 653.313 55.78 653.082 55.2235C652.947 54.8877 652.755 54.5232 652.525 54.1394C652.294 53.7557 652.015 53.4103 651.679 53.0937C651.352 52.7771 650.968 52.5181 650.526 52.307C650.084 52.0959 649.584 52 649.018 52H639.957V52.1823C640.216 52.1823 640.485 52.2878 640.764 52.4893C641.043 52.7003 641.312 52.9498 641.571 53.2568C641.83 53.5638 642.071 53.8996 642.301 54.2545C642.349 54.3332 642.396 54.41 642.441 54.485C642.607 54.758 642.759 55.0074 642.887 55.2331L646.904 64.9804C647.23 65.6328 647.605 66.1892 648.047 66.6497C648.489 67.1102 648.998 67.4652 649.594 67.7242C650.19 67.9737 650.901 68.108 651.746 68.108H652.803L650.92 63.455ZM651.843 58.5623C651.862 58.6679 651.852 58.783 651.785 58.8885C651.651 59.0996 651.382 59.1571 651.18 59.0324C650.978 58.8981 650.92 58.6295 651.045 58.428C651.18 58.2265 651.449 58.169 651.651 58.2937C651.756 58.3513 651.814 58.4568 651.843 58.5623ZM653.833 62.0833C653.853 62.1889 653.843 62.304 653.776 62.4096C653.651 62.6111 653.382 62.6782 653.17 62.5535C652.968 62.4192 652.911 62.1505 653.036 61.949C653.17 61.7476 653.439 61.69 653.641 61.8148C653.747 61.8723 653.804 61.9779 653.833 62.0833ZM646.609 57.5748C646.715 57.3638 646.974 57.2678 647.195 57.3734C647.407 57.4789 647.503 57.7475 647.397 57.9586C647.291 58.1697 647.032 58.2656 646.811 58.1601C646.705 58.1121 646.628 58.0162 646.59 57.9106C646.551 57.8052 646.561 57.6804 646.609 57.5748ZM648.125 61.613C648.009 61.565 647.894 61.5745 647.788 61.6226C647.683 61.6705 647.596 61.7473 647.558 61.8624C647.471 62.083 647.587 62.3421 647.808 62.4284C648.029 62.5148 648.288 62.3997 648.375 62.179C648.461 61.9584 648.346 61.7089 648.125 61.613ZM647.607 54.4947C647.723 54.4563 647.838 54.4563 647.944 54.5043C648.04 54.5427 648.126 54.629 648.174 54.7442C648.261 54.9648 648.146 55.2239 647.925 55.3102C647.704 55.3966 647.444 55.2814 647.358 55.0608C647.271 54.8401 647.386 54.5811 647.607 54.4947Z" fill="#1D1B1B"/>
<path d="M675.151 65.8363L675.18 65.8171C675.208 65.7979 675.228 65.7787 675.237 65.7404C675.257 65.6828 675.266 65.6252 675.266 65.5677V55.8972C675.266 55.83 675.257 55.782 675.237 55.7341C675.218 55.6957 675.199 55.6669 675.151 55.6285L675.122 55.6093C675.103 55.5901 675.074 55.571 675.045 55.571C674.959 55.5518 674.911 55.5518 674.882 55.5518H673.604C673.479 55.5518 673.421 55.5614 673.402 55.5614C673.392 55.5614 673.383 55.571 673.383 55.571C673.383 55.571 673.354 55.5997 673.325 55.6765C673.287 55.7628 673.248 55.878 673.191 56.0123L672.768 57.3458L672.432 56.8661C672.288 56.6646 672.124 56.4632 671.932 56.2905C671.74 56.1178 671.528 55.9643 671.298 55.8396C671.067 55.7149 670.798 55.6093 670.519 55.5422C670.241 55.4654 669.924 55.4271 669.597 55.4271C668.857 55.4271 668.156 55.5614 667.512 55.8396C666.868 56.1082 666.301 56.4919 665.821 56.9716C665.34 57.4514 664.966 58.0174 664.687 58.6698C664.409 59.3125 664.274 60.0225 664.274 60.7804C664.274 61.2793 664.341 61.7686 664.466 62.2194C664.591 62.68 664.774 63.1117 665.004 63.505C665.235 63.8983 665.513 64.263 665.831 64.5891C666.148 64.9153 666.513 65.1935 666.907 65.4238C667.301 65.654 667.723 65.8363 668.175 65.961C668.627 66.0858 669.107 66.1529 669.597 66.1529C669.866 66.1529 670.126 66.1241 670.375 66.057C670.625 65.9898 670.865 65.9035 671.086 65.7979C671.307 65.6924 671.509 65.5677 671.692 65.4238C671.874 65.2798 672.047 65.136 672.191 64.9921L672.537 64.6467L672.778 65.4909C672.806 65.5869 672.845 65.6637 672.874 65.75C672.893 65.8075 672.922 65.8459 672.941 65.8843C672.96 65.9035 672.979 65.9227 673.008 65.9323C673.027 65.9418 673.085 65.961 673.191 65.961H674.891C674.92 65.961 674.978 65.961 675.055 65.9418C675.084 65.9323 675.112 65.9227 675.132 65.9035L675.151 65.8363ZM672.345 61.9316C672.191 62.2962 671.98 62.6128 671.711 62.8814C671.442 63.15 671.125 63.3612 670.76 63.5147C670.395 63.6682 670.001 63.7449 669.578 63.7449C669.165 63.7449 668.78 63.6682 668.434 63.505C668.098 63.3516 667.8 63.1309 667.55 62.8622C667.31 62.5936 667.118 62.277 666.993 61.9125C666.868 61.5574 666.801 61.1641 666.801 60.7516C666.801 60.3583 666.868 59.9649 666.993 59.61C667.118 59.2453 667.31 58.9192 667.55 58.6409C667.791 58.3628 668.089 58.1325 668.434 57.9694C668.78 57.8063 669.165 57.7199 669.578 57.7199C670.001 57.7199 670.404 57.8063 670.769 57.9598C671.134 58.1229 671.452 58.3436 671.721 58.6218C671.99 58.9 672.201 59.2262 672.355 59.5907C672.508 59.9554 672.585 60.3487 672.585 60.7516C672.576 61.1833 672.499 61.5767 672.345 61.9316Z" fill="#1D1B1B"/>
<path d="M686.571 66.9105C686.85 66.2486 686.984 65.481 686.984 64.6367V55.8968C686.984 55.8393 686.975 55.7913 686.955 55.7529C686.936 55.7145 686.907 55.6762 686.878 55.657C686.84 55.6282 686.792 55.5994 686.744 55.5802C686.696 55.5611 686.648 55.5515 686.6 55.5515H685.322C685.216 55.5515 685.168 55.5611 685.149 55.5706C685.11 55.5898 685.091 55.5994 685.082 55.609C685.062 55.6378 685.034 55.6762 685.024 55.7241C684.995 55.8009 684.966 55.8872 684.928 55.9832L684.524 57.2495L684.188 56.837C684.025 56.6356 683.842 56.4437 683.66 56.2614C683.477 56.0887 683.266 55.9352 683.045 55.8105C682.824 55.6858 682.574 55.5802 682.305 55.5035C682.036 55.4267 681.738 55.3979 681.411 55.3979C680.681 55.3979 679.999 55.5323 679.374 55.8105C678.75 56.0791 678.212 56.4629 677.76 56.9426C677.308 57.4222 676.943 57.9883 676.693 58.6311C676.434 59.2738 676.309 59.9838 676.309 60.7321C676.309 61.4804 676.434 62.1711 676.693 62.7947C676.943 63.4088 677.308 63.9556 677.75 64.3969C678.202 64.8383 678.75 65.1932 679.365 65.4426C679.989 65.6921 680.671 65.8168 681.411 65.8168C681.728 65.8168 682.007 65.7784 682.247 65.7016C682.487 65.6249 682.699 65.529 682.891 65.4043C683.083 65.2795 683.256 65.1356 683.419 64.9821C683.583 64.8191 683.756 64.6367 683.919 64.4641L684.419 63.9365V64.7807C684.419 64.7902 684.419 64.7902 684.419 64.7998C684.428 64.8286 684.428 64.867 684.428 64.9054V65.0205C684.428 65.174 684.419 65.3275 684.409 65.4714C684.399 65.6249 684.361 65.7784 684.323 65.9128C684.236 66.2101 684.092 66.4692 683.871 66.6994C683.669 66.9105 683.429 67.1023 683.16 67.2463C682.891 67.3902 682.603 67.5053 682.305 67.5821C682.007 67.6589 681.709 67.6971 681.43 67.6971C681.267 67.6971 681.084 67.6876 680.892 67.678C680.681 67.6589 680.47 67.63 680.258 67.5725C680.047 67.5245 679.835 67.4477 679.634 67.3614C679.422 67.2655 679.24 67.1407 679.076 66.9872C678.884 66.8529 678.807 66.8434 678.788 66.8434C678.759 66.8434 678.74 66.8529 678.721 66.8625C678.692 66.8817 678.634 66.9201 678.567 66.9969L677.76 68.1097C677.693 68.2153 677.654 68.3112 677.654 68.3975C677.654 68.4551 677.664 68.5126 677.702 68.5607C677.741 68.6277 677.789 68.6758 677.846 68.7237L677.866 68.7429C678.096 68.9443 678.375 69.1362 678.682 69.2897C678.999 69.4528 679.326 69.5872 679.662 69.6831C679.999 69.7886 680.345 69.8654 680.681 69.9229C681.017 69.9709 681.344 69.9997 681.632 69.9997C682.391 69.9997 683.112 69.8749 683.765 69.6351C684.419 69.3953 684.995 69.0499 685.466 68.5989C685.908 68.1289 686.292 67.5725 686.571 66.9105ZM684.592 60.8951C684.572 61.2886 684.476 61.6627 684.323 62.0081C684.159 62.3439 683.948 62.6508 683.679 62.9003C683.41 63.1497 683.093 63.3512 682.737 63.4951C682.382 63.639 681.997 63.7061 681.594 63.7061C681.181 63.7061 680.796 63.6294 680.46 63.4759C680.114 63.3224 679.826 63.1114 679.576 62.8427C679.336 62.5741 679.144 62.2575 679.019 61.8929C678.894 61.538 678.826 61.1446 678.826 60.7321C678.826 60.3387 678.894 59.9454 679.019 59.5904C679.144 59.2259 679.336 58.8997 679.576 58.6311C679.816 58.3529 680.114 58.1322 680.45 57.9691C680.796 57.806 681.181 57.7196 681.594 57.7196C681.997 57.7196 682.382 57.7964 682.747 57.9499C683.102 58.1034 683.419 58.3144 683.679 58.5735C683.938 58.8325 684.159 59.1395 684.323 59.4849C684.486 59.8303 684.572 60.1949 684.592 60.5882V60.5978V60.8951Z" fill="#1D1B1B"/>
<path d="M696.963 56.7327C696.963 56.6463 696.886 56.56 696.732 56.4736L696.703 56.4544C696.454 56.2721 696.223 56.1186 696.021 55.9843C695.82 55.8596 695.618 55.7541 695.416 55.6677C695.214 55.591 695.003 55.5238 694.782 55.4854C694.561 55.4471 694.292 55.4183 694.004 55.4183C693.744 55.4183 693.513 55.4567 693.312 55.5334C693.1 55.6102 692.678 55.8404 692.505 55.9747C691.851 56.4927 691.419 57.1835 691.419 57.1835C691.419 57.1835 690.977 55.9939 690.919 55.8788C690.871 55.7828 690.823 55.6965 690.756 55.6389C690.746 55.6293 690.708 55.591 690.612 55.591H689.315C689.267 55.591 689.209 55.6006 689.151 55.6197C689.103 55.6389 689.055 55.6581 689.017 55.6869C688.988 55.7157 688.959 55.7445 688.94 55.7828C688.921 55.8212 688.911 55.8788 688.911 55.9363V65.5397C688.911 65.8179 689.007 65.9139 689.295 65.9139H691.227C691.38 65.9139 691.496 65.8851 691.544 65.8372C691.611 65.77 691.621 65.6356 691.621 65.5397V59.2462L691.659 59.179C691.784 58.9776 691.909 58.7953 692.034 58.6226C692.168 58.4499 692.312 58.2868 692.466 58.1621C692.63 58.0278 692.812 57.9222 693.014 57.8455C693.216 57.7687 693.446 57.7303 693.706 57.7303C694.071 57.7303 694.407 57.7976 694.695 57.9318C694.964 58.0566 695.233 58.2388 695.493 58.4883C695.579 58.5267 695.656 58.5363 695.723 58.5363C695.81 58.5363 695.925 58.5171 696.06 58.3348L696.838 57.0108C696.953 56.8669 696.963 56.771 696.963 56.7327Z" fill="#1D1B1B"/>
<path d="M706.218 64.5706C706.535 64.2541 706.824 63.8894 707.054 63.4961C707.285 63.1028 707.467 62.671 707.592 62.2105C707.717 61.75 707.784 61.2703 707.784 60.7715C707.784 60.0232 707.64 59.3132 707.361 58.6704C707.083 58.0277 706.698 57.452 706.218 56.9723C705.738 56.4926 705.171 56.1185 704.517 55.8403C703.874 55.5716 703.172 55.4277 702.432 55.4277C701.933 55.4277 701.452 55.4949 700.991 55.6196C700.53 55.7443 700.097 55.9266 699.703 56.1473C699.31 56.3775 698.944 56.6557 698.627 56.9723C698.301 57.2986 698.022 57.6535 697.791 58.0469C697.561 58.4402 697.378 58.8719 697.253 59.3324C697.128 59.7929 697.061 60.2726 697.061 60.7715C697.061 61.2703 697.128 61.75 697.253 62.2105C697.378 62.671 697.561 63.1028 697.791 63.4961C698.022 63.8894 698.301 64.2541 698.627 64.5706C698.944 64.8968 699.31 65.175 699.703 65.4053C700.097 65.6355 700.53 65.8178 700.991 65.9425C701.452 66.0672 701.933 66.1344 702.432 66.1344C702.922 66.1344 703.403 66.0672 703.854 65.9425C704.306 65.8178 704.738 65.6355 705.132 65.4053C705.536 65.1654 705.901 64.8872 706.218 64.5706ZM704.94 61.9132C704.815 62.2777 704.632 62.5943 704.402 62.8629C704.171 63.1315 703.874 63.3523 703.537 63.5057C703.201 63.6592 702.816 63.7456 702.403 63.7456C701.981 63.7456 701.587 63.6688 701.251 63.5057C700.905 63.3523 700.616 63.1315 700.376 62.8629C700.136 62.5943 699.953 62.2777 699.819 61.9132C699.694 61.5581 699.627 61.1648 699.627 60.7523C699.627 60.359 699.694 59.9656 699.819 59.6107C699.944 59.246 700.136 58.9199 700.367 58.6416C700.607 58.3635 700.905 58.1331 701.241 57.9701C701.587 57.807 701.971 57.7206 702.403 57.7206C702.816 57.7206 703.201 57.807 703.537 57.9701C703.874 58.1331 704.162 58.3635 704.402 58.6416C704.632 58.9199 704.815 59.246 704.931 59.6107C705.055 59.9752 705.113 60.3494 705.113 60.7523C705.123 61.1744 705.065 61.5581 704.94 61.9132Z" fill="#1D1B1B"/>
<path d="M714.165 57.9317C714.223 57.8741 714.252 57.7686 714.252 57.6055V55.9457C714.252 55.8114 714.223 55.7155 714.165 55.6675C714.127 55.6292 714.06 55.5812 713.916 55.5812H712.445L712.454 52.9333C712.454 52.7894 712.435 52.6743 712.387 52.5975C712.378 52.5783 712.32 52.5591 712.214 52.5591H712.137H712.128L710.197 53.2307C710.014 53.2979 709.87 53.3746 709.774 53.4418C709.755 53.4514 709.716 53.4897 709.716 53.6145L709.707 55.5908H708.535C708.256 55.5908 708.16 55.6771 708.16 55.9553V57.6151C708.16 57.9605 708.294 58.018 708.535 58.018H709.707L709.716 65.5491C709.716 65.8273 709.803 65.9233 710.091 65.9233H712.032C712.186 65.9233 712.291 65.8945 712.368 65.8273C712.387 65.8082 712.464 65.741 712.464 65.5491L712.454 58.018H713.925C714.06 58.0084 714.127 57.9605 714.165 57.9317Z" fill="#1D1B1B"/>
<path d="M724.586 64.5706C724.902 64.2541 725.191 63.8894 725.421 63.4961C725.652 63.1028 725.835 62.671 725.959 62.2105C726.084 61.75 726.152 61.2703 726.152 60.7715C726.152 60.0232 726.008 59.3132 725.729 58.6704C725.45 58.0277 725.066 57.452 724.586 56.9723C724.105 56.4926 723.538 56.1185 722.885 55.8403C722.241 55.5716 721.54 55.4277 720.8 55.4277C720.3 55.4277 719.82 55.4949 719.358 55.6196C718.897 55.7443 718.465 55.9266 718.071 56.1473C717.677 56.3775 717.312 56.6557 716.995 56.9723C716.668 57.2986 716.39 57.6535 716.158 58.0469C715.928 58.4402 715.746 58.8719 715.621 59.3324C715.496 59.7929 715.429 60.2726 715.429 60.7715C715.429 61.2703 715.496 61.75 715.621 62.2105C715.746 62.671 715.928 63.1028 716.158 63.4961C716.39 63.8894 716.668 64.2541 716.995 64.5706C717.321 64.8968 717.677 65.175 718.071 65.4053C718.465 65.6355 718.897 65.8178 719.358 65.9425C719.82 66.0672 720.3 66.1344 720.8 66.1344C721.29 66.1344 721.77 66.0672 722.222 65.9425C722.673 65.8178 723.106 65.6355 723.5 65.4053C723.903 65.1654 724.258 64.8872 724.586 64.5706ZM723.308 61.9132C723.183 62.2777 723 62.5943 722.769 62.8629C722.539 63.1315 722.241 63.3523 721.905 63.5057C721.568 63.6592 721.185 63.7456 720.771 63.7456C720.348 63.7456 719.954 63.6688 719.618 63.5057C719.272 63.3523 718.984 63.1315 718.744 62.8629C718.503 62.5943 718.321 62.2777 718.186 61.9132C718.062 61.5581 717.994 61.1648 717.994 60.7523C717.994 60.359 718.062 59.9656 718.186 59.6107C718.311 59.246 718.503 58.9199 718.735 58.6416C718.974 58.3635 719.272 58.1331 719.608 57.9701C719.954 57.807 720.339 57.7206 720.771 57.7206C721.185 57.7206 721.568 57.807 721.905 57.9701C722.241 58.1331 722.529 58.3635 722.769 58.6416C723 58.9199 723.183 59.246 723.298 59.6107C723.423 59.9752 723.481 60.359 723.481 60.7523C723.49 61.1744 723.433 61.5581 723.308 61.9132Z" fill="#1D1B1B"/>
<path d="M734.632 65.5969C734.747 65.76 734.823 65.8368 734.871 65.8848C734.92 65.9232 734.948 65.9232 734.958 65.9232H737.86C737.984 65.9232 737.994 65.8176 737.975 65.7697C737.956 65.7312 737.927 65.6833 737.879 65.6354L733.277 59.716L736.976 55.8113C737.033 55.7441 737.053 55.7154 737.053 55.7058C737.053 55.7058 737.053 55.6962 737.053 55.677C737.053 55.6386 737.043 55.629 737.043 55.629C737.043 55.629 737.005 55.6002 736.871 55.6002H734.228C734.103 55.6002 734.007 55.6482 733.91 55.7537L730.307 59.7448V52.6454C730.307 52.607 730.298 52.5686 730.288 52.5206C730.278 52.4918 730.269 52.4727 730.25 52.4439C730.231 52.4247 730.211 52.4055 730.173 52.3863C730.154 52.3767 730.115 52.3671 730.039 52.3671H727.982C727.81 52.3671 727.723 52.3863 727.684 52.3959C727.637 52.4151 727.617 52.4343 727.617 52.4343C727.607 52.4439 727.607 52.4535 727.598 52.4918C727.589 52.5686 727.589 52.6454 727.589 52.7413V65.6354C727.589 65.6449 727.598 65.6641 727.607 65.6833C727.617 65.7217 727.646 65.7697 727.675 65.8176C727.694 65.856 727.733 65.8944 727.781 65.9232C727.8 65.9327 727.819 65.952 727.877 65.952H730.039C730.096 65.952 730.144 65.9423 730.163 65.9232C730.202 65.8944 730.231 65.8656 730.26 65.8272C730.288 65.7888 730.298 65.7409 730.307 65.7025C730.317 65.6257 730.327 65.5873 730.327 65.5778V62.69L731.604 61.3661L734.632 65.5969Z" fill="#1D1B1B"/>
<path d="M747.693 61.0013C747.703 60.819 747.703 60.5792 747.703 60.2817C747.703 59.85 747.645 59.4279 747.521 59.025C747.395 58.6221 747.223 58.2287 747.002 57.8737C746.781 57.5187 746.511 57.183 746.205 56.876C745.897 56.569 745.55 56.31 745.186 56.0989C744.811 55.8878 744.417 55.7151 743.994 55.5904C743.572 55.4753 743.139 55.4081 742.688 55.4081C742.197 55.4081 741.727 55.4753 741.285 55.6C740.843 55.7247 740.429 55.9166 740.046 56.1469C739.671 56.3771 739.325 56.665 739.017 56.9911C738.709 57.3173 738.45 57.6818 738.229 58.0752C738.018 58.4686 737.845 58.8907 737.73 59.332C737.614 59.7733 737.556 60.2435 737.556 60.7231C737.556 61.481 737.701 62.2005 737.999 62.8433C738.287 63.4956 738.69 64.0617 739.19 64.5414C739.689 65.0211 740.276 65.4048 740.938 65.6735C741.602 65.9421 742.313 66.086 743.053 66.086C743.716 66.086 744.349 65.9613 744.945 65.7215C745.541 65.472 746.089 65.1267 746.56 64.6853L746.588 64.6661C746.655 64.6182 746.704 64.5702 746.752 64.503C746.771 64.4839 746.79 64.4455 746.79 64.3783C746.79 64.3399 746.79 64.3112 746.771 64.2728C746.771 64.2728 746.761 64.244 746.704 64.1769L745.801 63.1599C745.724 63.0832 745.647 63.016 745.589 62.9777C745.56 62.9585 745.541 62.9489 745.522 62.9489C745.493 62.9489 745.474 62.9585 745.455 62.968C745.416 62.9873 745.359 63.0256 745.272 63.1023C745.157 63.2175 744.994 63.3326 744.811 63.4381C744.629 63.5437 744.426 63.63 744.205 63.7068C743.994 63.7835 743.764 63.841 743.534 63.8891C743.303 63.937 743.062 63.9562 742.841 63.9562C742.592 63.9562 742.323 63.9178 742.044 63.8507C741.755 63.7835 741.477 63.6588 741.228 63.4956C740.967 63.3326 740.737 63.1023 740.545 62.8337C740.343 62.5556 740.209 62.2005 740.151 61.7976L740.103 61.4619H746.627C746.963 61.4619 747.223 61.4426 747.386 61.4043C747.463 61.3851 747.569 61.3467 747.616 61.2891C747.665 61.2316 747.693 61.1356 747.693 61.0013ZM740.084 59.6102L740.276 59.1977C740.372 58.9866 740.506 58.7755 740.67 58.5645C740.833 58.363 741.006 58.1712 741.208 58.0081C741.41 57.8449 741.631 57.7106 741.861 57.6147C742.101 57.5092 742.361 57.4612 742.621 57.4612C742.956 57.4612 743.264 57.5092 743.524 57.5955C743.783 57.6818 744.023 57.8162 744.225 57.9793C744.426 58.1328 744.6 58.3247 744.763 58.5357C744.907 58.7372 745.051 58.9578 745.176 59.1881L745.406 59.6102H740.084Z" fill="#1D1B1B"/>
<path d="M756.438 65.8738C756.438 65.8738 756.506 65.9219 756.745 65.9219H758.735C758.812 65.9219 758.917 65.9123 758.965 65.8547C759.013 65.7971 759.042 65.6916 759.042 65.5477V59.9258C759.042 59.3021 758.956 58.7074 758.773 58.1605C758.6 57.6137 758.341 57.134 758.004 56.731C757.678 56.3281 757.264 56.0115 756.794 55.7812C756.323 55.551 755.775 55.4359 755.17 55.4359C754.737 55.4359 754.344 55.4838 753.997 55.5798C753.652 55.6757 753.334 55.7812 753.075 55.9347C752.037 56.5775 751.711 57.5945 751.711 57.5945L751.345 56.069C751.316 55.9923 751.288 55.9155 751.268 55.8484C751.249 55.8004 751.221 55.7525 751.191 55.7141C751.163 55.6853 751.134 55.6565 751.095 55.6373C751.067 55.6181 751.019 55.6085 750.961 55.6085H749.664C749.607 55.6085 749.549 55.6181 749.481 55.6277C749.453 55.6373 749.414 55.6469 749.386 55.6757L749.395 55.6853C749.357 55.7141 749.328 55.7429 749.299 55.7908C749.27 55.8388 749.261 55.8964 749.261 55.9539V65.5573C749.261 65.682 749.29 65.7779 749.347 65.8451C749.395 65.9026 749.511 65.9314 749.664 65.9314H751.605C751.663 65.9314 751.72 65.9219 751.759 65.9123C751.797 65.9026 751.836 65.8835 751.884 65.8547C751.893 65.8451 751.922 65.8259 751.941 65.7684C751.97 65.7012 751.98 65.6437 751.98 65.5765V59.9737C751.999 59.6763 752.085 59.3885 752.229 59.139C752.364 58.8896 752.537 58.6786 752.739 58.4867C752.941 58.3044 753.171 58.1605 753.411 58.0549C753.95 57.8247 754.478 57.8535 754.978 58.0645C755.237 58.1701 755.477 58.3236 755.689 58.5155C755.9 58.7074 756.064 58.928 756.198 59.1774C756.333 59.4365 756.4 59.7147 756.4 60.0025V65.5957C756.4 65.8163 756.438 65.8738 756.438 65.8738Z" fill="#1D1B1B"/>
</g>
<g clip-path="url(#clip2_2601_788)">
<path d="M852.039 53.3535C855.611 53.3535 857.983 55.4186 857.983 58.3488C857.983 61.2232 855.611 63.3721 852.039 63.3721H849.75V68.3116H846.764V53.9116C846.764 53.6046 847.016 53.3535 847.322 53.3535H852.039ZM851.76 60.8883C853.657 60.9162 854.913 60.0232 854.913 58.3767C854.913 56.786 853.657 55.8651 851.76 55.8651H849.722V60.8604L851.76 60.8883Z" fill="#1D1B1B"/>
<path d="M866.745 57.1767V60.1628C866.522 60.079 865.963 60.0232 865.656 60.0232C864.987 60.0232 863.815 60.1628 862.81 60.9721V68.3116H860.047V57.4279H862.81V59.2976C863.591 58.2093 864.931 57.1488 866.382 57.1488C866.522 57.1488 866.661 57.1488 866.745 57.1767Z" fill="#1D1B1B"/>
<path d="M868.447 54.0232C868.447 53.0744 869.228 52.3767 870.149 52.3767C871.126 52.3767 871.879 53.0744 871.879 54.0232C871.879 54.9721 871.098 55.6697 870.149 55.6697C869.228 55.6697 868.447 54.9721 868.447 54.0232ZM868.782 68.3116V57.4279H871.544V68.3116H868.782Z" fill="#1D1B1B"/>
<path d="M891.025 61.4465V68.3116H888.262V61.7256C888.262 60.4139 887.536 59.5209 886.448 59.5209C885.583 59.5209 884.773 60.107 884.159 60.9721C884.187 61.1116 884.187 61.279 884.187 61.4465V68.3116H881.425V61.7256C881.425 60.4139 880.699 59.5209 879.611 59.5209C878.745 59.5209 877.936 60.079 877.35 60.9442V68.2837H874.587V57.4H877.35V58.7116C878.104 57.7628 879.164 57.1209 880.336 57.1209C881.843 57.1209 883.071 57.8186 883.713 59.1302C884.494 57.9302 885.918 57.1209 887.173 57.1209C889.434 57.1488 891.025 58.7395 891.025 61.4465Z" fill="#1D1B1B"/>
<path d="M902.019 57.4279H904.782V68.3116H902.019V67.2232C901.182 68.0325 899.87 68.5627 898.503 68.5627C895.6 68.5627 893.172 66.3581 893.172 62.8697C893.172 59.3813 895.6 57.1767 898.503 57.1767C899.898 57.1767 901.182 57.7069 902.019 58.5162V57.4279ZM902.019 65.0465V60.693C901.237 59.9395 900.121 59.4651 899.089 59.4651C897.386 59.4651 895.907 60.7488 895.879 62.8697C895.907 64.9906 897.386 66.2744 899.089 66.2744C900.121 66.2465 901.237 65.7999 902.019 65.0465Z" fill="#1D1B1B"/>
<path d="M914.439 57.2604V60.2185C914.216 60.1348 913.658 60.079 913.351 60.079C912.681 60.079 911.509 60.2185 910.504 61.0278V68.3674H907.741V57.4837H910.504V59.3534C911.286 58.2651 912.625 57.2046 914.076 57.2046C914.216 57.2325 914.355 57.2325 914.439 57.2604Z" fill="#1D1B1B"/>
<path d="M925.573 57.4836H928.392V57.679L924.01 68.786C923.201 70.8232 921.387 72.8046 918.289 72.8046C917.703 72.8046 916.95 72.7209 916.392 72.5813V70.3488C916.978 70.4883 917.536 70.572 917.982 70.572C919.378 70.572 920.382 69.679 920.996 68.8139L916.169 57.7069V57.5115H919.043L922.503 65.7441L925.573 57.4836Z" fill="#1D1B1B"/>
<path d="M840.065 58.5721L838.195 55.4186C838.028 55.1116 837.721 54.9163 837.386 54.8325C837.051 54.7488 836.716 54.8046 836.409 54.9721C836.102 55.1395 835.907 55.4465 835.823 55.7814C835.739 56.1163 835.795 56.4511 835.963 56.7581L837.86 59.8837C837.972 60.0511 838 60.2186 838 60.4139C837.972 60.6372 837.86 60.8604 837.693 61.0279C837.525 61.1674 837.274 61.2511 837.051 61.2232C836.828 61.1953 836.549 61.1116 836.381 60.8325C836.242 60.6093 833.702 54.7488 832.363 51.679C832 50.7302 830.8 49.1674 828.623 49.1674C826.39 49.1674 824.576 50.9535 824.576 53.186C824.549 54.2186 824.939 54.9721 825.107 55.2232L829.739 64.0418C829.795 64.1256 829.823 64.2372 829.879 64.293C829.99 64.5163 830.074 64.6558 830.102 64.9628C830.102 65.5209 829.628 65.9953 829.07 65.9953C828.567 65.9953 828.176 65.493 828.065 65.186C827.786 64.6 825.693 59.2977 825.693 59.2418C825.33 58.3209 824.744 56.8139 822.595 56.8139C820.893 56.8139 819.553 58.1814 819.553 59.8279V71.5488C819.553 72.2465 820.139 72.8325 820.837 72.8325C821.535 72.8325 822.121 72.2465 822.121 71.5488V59.8279C822.121 59.5767 822.316 59.3814 822.567 59.3814H822.623C822.958 59.3814 823.125 59.8837 823.181 60.0511C823.181 60.0791 823.209 60.107 823.209 60.107C823.237 60.1628 823.656 61.1953 824.074 62.2837C824.66 63.7628 825.33 65.4372 825.525 65.9116C826.279 67.7814 827.311 68.5628 829.014 68.5628C831.023 68.5628 832.642 66.9442 832.642 64.9349C832.642 64.2651 832.251 63.3721 832.028 62.8977L827.395 54.0511L827.311 53.8837C827.283 53.8279 827.144 53.5767 827.144 53.186C827.144 52.3767 827.786 51.7349 828.595 51.7349C829.516 51.7349 829.879 52.4884 829.935 52.6279L834.065 62.0325L834.093 62.0884C834.651 63.0651 835.683 63.707 836.8 63.8186C837.721 63.9023 838.614 63.5953 839.311 63.0093C840.009 62.4232 840.456 61.586 840.511 60.6372C840.623 59.9116 840.456 59.186 840.065 58.5721Z" fill="#1D1B1B"/>
</g>
<path d="M1038.1 70.3619H1036.65V52.6014C1036.65 52.0415 1037.06 51.6371 1037.62 51.6371H1038.1V70.3619Z" fill="#1D1B1B"/>
<path d="M1052.09 57.0026H1052.57C1053.13 57.0026 1053.54 57.4069 1053.54 57.9668V70.3774H1052.09V67.4847C1051.05 69.5687 1048.96 70.9217 1046.41 70.9217C1042.42 70.9217 1039.52 67.8735 1039.52 63.7211C1039.52 59.5687 1042.4 56.5204 1046.41 56.5204C1048.98 56.5204 1051.05 57.8735 1052.09 59.9575V57.0026ZM1052.09 63.7211C1052.09 60.3618 1049.69 57.8735 1046.49 57.8735C1043.21 57.8735 1040.89 60.3618 1040.89 63.7211C1040.89 67.0803 1043.21 69.5687 1046.49 69.5687C1049.69 69.5687 1052.09 67.0803 1052.09 63.7211Z" fill="#1D1B1B"/>
<path d="M1057.46 51.6371V59.8798C1058.5 57.7958 1060.59 56.5205 1063.14 56.5205C1067.13 56.5205 1070.03 59.5687 1070.03 63.7211C1070.03 67.8735 1067.07 70.9217 1063.14 70.9217C1060.57 70.9217 1058.5 69.5687 1057.46 67.5625V70.3619H1056.01V52.6014C1056.01 52.0415 1056.42 51.6371 1056.98 51.6371H1057.46ZM1062.98 57.8735C1059.7 57.8735 1057.38 60.3619 1057.38 63.6278C1057.38 66.9871 1059.7 69.3821 1062.98 69.3821C1066.19 69.3821 1068.58 66.9871 1068.58 63.6278C1068.58 60.3619 1066.19 57.8735 1062.98 57.8735Z" fill="#1D1B1B"/>
<path d="M1070.66 66.0389H1072.11C1072.11 68.1229 1073.94 69.5536 1076.43 69.5536C1078.75 69.5536 1080.35 68.3561 1080.35 66.832C1080.35 63.0684 1070.99 65.479 1070.99 60.5023C1070.99 58.1851 1073.15 56.5054 1075.95 56.5054C1079.15 56.5054 1081.39 58.4183 1081.39 60.9844H1079.94C1079.94 59.1493 1078.26 57.8585 1075.95 57.8585C1073.94 57.8585 1072.34 58.9782 1072.34 60.4246C1072.34 64.0327 1081.7 61.7776 1081.7 66.661C1081.7 69.056 1079.46 70.8289 1076.34 70.8289C1073.05 70.9222 1070.66 68.8383 1070.66 66.0389Z" fill="#1D1B1B"/>
<path d="M992.793 70.3619H988.392V54.2032C988.392 52.7569 989.512 51.6371 990.958 51.6371H992.793V70.3619Z" fill="#1D1B1B"/>
<path d="M1025.05 67.1581L1029.22 53.5501C1029.54 52.5081 1030.57 51.7149 1031.71 51.7149H1034.43L1028.41 70.3619H1021.69L1015.69 51.6371H1018.41C1019.53 51.6371 1020.49 52.3525 1020.8 53.3945L1025.05 67.1581Z" fill="#1D1B1B"/>
<path d="M1005.44 51C999.282 51 995.114 55.0746 995.114 61C995.114 66.9253 999.282 71 1005.44 71C1011.52 71 1015.77 66.9253 1015.77 61C1015.77 55.1524 1011.52 51 1005.44 51ZM1005.44 67.2364C1001.93 67.2364 999.516 64.6703 999.516 61C999.516 59.8802 999.749 58.8383 1000.23 57.9518C1000.23 57.9518 1000.23 57.9518 1000.23 57.874C1000.23 57.874 1000.23 57.874 1000.23 57.7963C1000.23 57.7963 1000.31 57.7185 1000.31 57.6407C1000.31 57.6407 1000.31 57.563 1000.39 57.563C1000.39 57.4852 1000.46 57.4852 1000.46 57.4075C1000.95 56.6921 1002.07 55.3235 1004.07 55.0124H1004.15H1004.23C1004.87 54.9347 1006.79 54.9347 1007.66 56.3655C1007.66 56.3655 1007.66 56.3655 1007.66 56.4432C1007.74 56.521 1007.74 56.5988 1007.74 56.6765C1007.74 56.6765 1007.74 56.7543 1007.82 56.7543C1008.86 58.9938 1007.74 62.2753 1006.37 63.5505C1006.37 63.5505 1010.54 61.1555 1010.37 57.4697C1010.93 58.4339 1011.26 59.6314 1011.26 60.9067C1011.37 64.6858 1008.96 67.2364 1005.44 67.2364Z" fill="#1D1B1B"/>
<g style="mix-blend-mode:luminosity" clip-path="url(#clip3_2601_788)">
<path d="M1207.16 61.075C1207.16 62.65 1207.58 67.7875 1212.79 67.7875C1214.93 67.7875 1217.53 66.8 1217.83 64L1217.85 63.7625H1215.46L1215.43 63.9375C1215.39 64.1875 1215.29 64.725 1214.85 65.1875C1214.4 65.65 1213.75 65.8875 1212.91 65.8875C1210.64 65.8875 1209.49 64.2625 1209.49 61.05C1209.49 59.1375 1209.94 55.9375 1212.94 55.9375C1215.19 55.9375 1215.43 57.4625 1215.51 57.9625L1215.54 58.15L1215.73 58.175H1217.88L1217.85 57.95C1217.58 54.375 1214.09 54.0875 1213.03 54.0875C1207.59 54.0875 1207.16 59.4375 1207.16 61.075Z" fill="#1D1B1B"/>
<path d="M1224.98 53.9375C1223.7 53.9375 1221.89 54.25 1220.51 55.7375C1219.39 56.95 1218.79 58.775 1218.79 61.025C1218.79 65.4625 1220.94 67.9 1224.83 67.9C1228.71 67.9 1231 65.3125 1231 60.8125C1231 56.3125 1228.8 53.9375 1224.98 53.9375ZM1227.58 64.85C1226.96 65.575 1226.05 65.95 1224.89 65.95C1223.71 65.95 1222.79 65.575 1222.2 64.85C1221.48 63.95 1221.1 62.625 1221.1 60.9125C1221.1 57.5625 1222.41 55.8625 1225 55.8625C1227.59 55.8625 1228.7 57.475 1228.7 60.7875C1228.69 61.8 1228.54 63.675 1227.58 64.85Z" fill="#1D1B1B"/>
<path d="M1242.95 54.275C1242.95 54.275 1239.74 63.425 1239.38 64.4625C1239.01 63.425 1235.88 54.275 1235.88 54.275H1232.35V67.6H1234.51V57.1C1235.19 59 1238.23 67.6 1238.23 67.6H1240.23C1240.23 67.6 1243.41 58.8375 1244.1 56.9875V67.6H1246.28V54.275H1242.95Z" fill="#1D1B1B"/>
<path d="M1254.75 54.275H1252.55L1246.94 67.6H1249.25C1249.25 67.6 1250.54 64.4875 1250.64 64.2375H1256.34C1256.44 64.4875 1257.74 67.6 1257.74 67.6H1260.15L1254.75 54.275ZM1251.38 62.3625C1251.56 61.875 1253.23 57.675 1253.56 56.85C1253.88 57.6875 1255.45 61.875 1255.64 62.3625H1251.38Z" fill="#1D1B1B"/>
<path d="M1260.94 54.275V67.6H1263.19V61.7375H1268.71V59.8125H1263.19V56.2125H1269.05V54.275H1260.94Z" fill="#1D1B1B"/>
<path d="M1272.96 54.275H1270.75V67.6H1272.96V54.275Z" fill="#1D1B1B"/>
<path d="M1149.11 60.825C1149.86 60.475 1150.9 59.7125 1150.9 57.9375C1150.9 56.9375 1150.58 56.1125 1149.93 55.475C1149.05 54.625 1148.1 54.4625 1146.53 54.4625H1141.7V67.7875H1146.61C1147.64 67.7875 1148.7 67.7875 1149.64 67.1625C1150.14 66.825 1151.29 65.8625 1151.29 64.05C1151.29 61.925 1150.01 61.1625 1149.11 60.825ZM1143.86 56.3625H1146.23C1147.49 56.3625 1148.63 56.5 1148.63 58.1C1148.63 59.325 1147.81 59.925 1146.16 59.925H1143.86V56.3625ZM1146.7 65.925H1143.86V61.8875H1146.78C1148.16 61.8875 1149.03 62.6625 1149.03 63.9125C1149.03 65.4 1147.83 65.925 1146.7 65.925Z" fill="#1D1B1B"/>
<path d="M1159.24 54.475H1157.04L1151.44 67.8H1153.75C1153.75 67.8 1155.04 64.6875 1155.15 64.4375H1160.83C1160.93 64.6875 1162.21 67.8 1162.21 67.8H1164.63L1159.24 54.475ZM1155.88 62.5625C1156.06 62.075 1157.73 57.875 1158.06 57.05C1158.38 57.8875 1159.95 62.075 1160.14 62.5625H1155.88Z" fill="#1D1B1B"/>
<path d="M1174.09 54.475V64.575C1173.39 63.4 1168.09 54.475 1168.09 54.475H1165.26V67.8H1167.31V57.4125C1168.01 58.5875 1173.54 67.8 1173.54 67.8H1176.16V54.475H1174.09Z" fill="#1D1B1B"/>
<path d="M1177.36 61.275C1177.36 62.85 1177.78 67.9875 1182.99 67.9875C1185.13 67.9875 1187.73 67 1188.03 64.2L1188.05 63.9625H1185.66L1185.63 64.1375C1185.59 64.3875 1185.49 64.925 1185.05 65.3875C1184.6 65.85 1183.95 66.0875 1183.11 66.0875C1181.55 66.0875 1179.69 65.25 1179.69 61.25C1179.69 59.3375 1180.14 56.1375 1183.14 56.1375C1185.39 56.1375 1185.63 57.6625 1185.71 58.1625L1185.74 58.35L1185.93 58.375H1188.08L1188.05 58.15C1187.76 54.5625 1184.28 54.2875 1183.21 54.2875C1177.79 54.3 1177.38 59.6375 1177.36 61.275Z" fill="#1D1B1B"/>
<path d="M1195.18 54.1375C1193.9 54.1375 1192.09 54.45 1190.71 55.9375C1189.59 57.15 1188.99 58.975 1188.99 61.225C1188.99 65.6625 1191.14 68.1 1195.03 68.1C1198.91 68.1 1201.2 65.5125 1201.2 61.0125C1201.2 56.5125 1199.01 54.1375 1195.18 54.1375ZM1197.78 65.05C1197.16 65.775 1196.25 66.15 1195.09 66.15C1193.91 66.15 1192.98 65.775 1192.4 65.05C1191.68 64.15 1191.3 62.825 1191.3 61.1125C1191.3 57.7625 1192.61 56.0625 1195.2 56.0625C1197.79 56.0625 1198.9 57.675 1198.9 60.9875C1198.89 62 1198.75 63.875 1197.78 65.05Z" fill="#1D1B1B"/>
<path d="M1289.65 71.1375C1295.33 71.1375 1299.94 66.5316 1299.94 60.85C1299.94 55.1684 1295.33 50.5625 1289.65 50.5625C1283.97 50.5625 1279.36 55.1684 1279.36 60.85C1279.36 66.5316 1283.97 71.1375 1289.65 71.1375Z" fill="url(#paint0_radial_2601_788)"/>
<path opacity="0.65" d="M1289.33 72.8875H1289.54C1295.86 72.8875 1301.03 67.7875 1301.33 61.275H1289.33V72.8875Z" fill="url(#paint1_radial_2601_788)"/>
<path opacity="0.65" d="M1301.33 60.5375C1301.2 54.15 1295.98 49 1289.54 49H1289.33V60.5375H1301.33Z" fill="url(#paint2_radial_2601_788)"/>
</g>
</g>
<defs>
<radialGradient id="paint0_radial_2601_788" cx="0" cy="0" r="1" gradientUnits="userSpaceOnUse" gradientTransform="translate(1285.81 56.4838) scale(17.2951 17.2951)">
<stop stop-color="#ADC46A"/>
<stop offset="0.61" stop-color="#657733"/>
<stop offset="1" stop-color="#384125"/>
</radialGradient>
<radialGradient id="paint1_radial_2601_788" cx="0" cy="0" r="1" gradientUnits="userSpaceOnUse" gradientTransform="translate(1288.94 60.52) scale(13.6331 14.1896)">
<stop stop-color="white"/>
<stop offset="0.14" stop-color="#DFE4D7"/>
<stop offset="0.45" stop-color="#A1AE8B"/>
<stop offset="0.71" stop-color="#728551"/>
<stop offset="0.9" stop-color="#556C31"/>
<stop offset="1" stop-color="#4A642E"/>
</radialGradient>
<radialGradient id="paint2_radial_2601_788" cx="0" cy="0" r="1" gradientUnits="userSpaceOnUse" gradientTransform="translate(1289.06 60.4384) scale(13.676)">
<stop stop-color="white"/>
<stop offset="0.14" stop-color="#DFE4D7"/>
<stop offset="0.45" stop-color="#A1AE8B"/>
<stop offset="0.71" stop-color="#728551"/>
<stop offset="0.9" stop-color="#556C31"/>
<stop offset="1" stop-color="#4A642E"/>
</radialGradient>
<clipPath id="clip0_2601_788">
<rect width="1200" height="42" fill="white" transform="translate(120 40)"/>
</clipPath>
<clipPath id="clip1_2601_788">
<rect width="126" height="18" fill="white" transform="translate(633.555 52)"/>
</clipPath>
<clipPath id="clip2_2601_788">
<rect width="108.837" height="24" fill="white" transform="translate(819.555 49)"/>
</clipPath>
<clipPath id="clip3_2601_788">
<rect width="159.625" height="24" fill="white" transform="translate(1141.7 49)"/>
</clipPath>
</defs>
</svg>
