<svg width="810" height="186" viewBox="0 0 810 186" fill="none" xmlns="http://www.w3.org/2000/svg">
<g opacity="0.5">
<path d="M153.214 50.9224L158.886 53.1552L153.214 55.2673V58.2845L162.93 54.3621V51.9483L153.214 48.0259V50.9224Z" fill="#1D1B1B"/>
<path d="M101.137 62.1465C98.4219 62.1465 96.4306 63.3534 96.2495 65.8879H99.2668V65.8276C99.3271 64.9828 100.112 64.3793 100.956 64.4396C102.103 64.4396 102.646 65.1034 102.646 66.25V66.7931H101.258C98.3012 66.7931 95.8875 67.6983 95.8875 70.5345V70.6552C95.8875 72.9483 97.5771 73.9741 99.6288 73.9741C100.896 74.0345 102.043 73.431 102.767 72.4655V73.7931H105.844V66.1896C105.784 63.2931 103.793 62.1465 101.137 62.1465ZM100.474 71.7414C99.3875 71.7414 98.9047 71.1983 98.9047 70.4138V70.2931C98.9047 69.2672 99.6892 68.8448 101.258 68.8448H102.525V69.931C102.586 71.1379 101.56 71.7414 100.474 71.7414Z" fill="#1D1B1B"/>
<path d="M113.085 71.6207C111.576 71.6207 110.792 70.5948 110.792 68.3017V67.9396C110.792 65.7069 111.697 64.6207 113.085 64.6207C114.171 64.6207 114.775 65.3448 114.956 66.431H117.973C117.731 63.4741 115.559 62.1465 113.025 62.1465C110.007 62.1465 107.594 64.1983 107.594 68.0603V68.181C107.594 72.0431 109.887 73.9741 113.025 73.9741C116.102 73.9741 117.852 72.1034 118.094 69.569H115.197C114.956 70.8362 114.171 71.6207 113.085 71.6207Z" fill="#1D1B1B"/>
<path d="M124.852 71.6207C123.344 71.6207 122.559 70.5948 122.559 68.3017V67.9396C122.559 65.7069 123.464 64.6207 124.852 64.6207C125.939 64.6207 126.542 65.3448 126.723 66.431H129.74C129.499 63.4741 127.326 62.1465 124.792 62.1465C121.775 62.1465 119.361 64.1983 119.361 68.0603V68.181C119.361 72.0431 121.654 73.9741 124.792 73.9741C127.87 73.9741 129.62 72.1034 129.801 69.569H126.964C126.783 70.8362 125.939 71.6207 124.852 71.6207Z" fill="#1D1B1B"/>
<path d="M136.74 71.681C135.353 71.681 134.508 70.8965 134.387 68.8448H141.749V67.5172C141.749 63.7759 139.396 62.1465 136.559 62.1465C133.482 62.1465 131.128 64.2586 131.128 68.0603V68.3017C131.128 72.1034 133.361 74.0345 136.62 74.0345C139.577 74.0345 141.387 72.4052 141.689 70.2328H138.732C138.611 71.1379 137.706 71.8017 136.74 71.681ZM136.559 64.319C137.827 64.319 138.611 65.0431 138.672 66.7328H134.447C134.689 64.9224 135.594 64.3793 136.559 64.319Z" fill="#1D1B1B"/>
<path d="M150.318 62.1466C148.87 62.0862 147.542 62.8104 146.879 64.0776V62.3879H143.741V73.7328H146.879V66.7931C146.879 66.6724 146.879 66.6121 146.879 66.4914C146.939 65.4655 147.844 64.6207 148.87 64.681C150.017 64.681 150.56 65.2845 150.56 66.6121V73.7328H153.758V66.1293C153.758 63.3535 152.37 62.1466 150.318 62.1466Z" fill="#1D1B1B"/>
<path d="M159.671 70.112V64.7413H161.843V62.3879H159.671V58.9482L156.533 60.2758V62.3879H155.145V64.7413H156.473V70.4741C156.473 72.7672 157.619 73.9138 160.093 73.9138C160.697 73.9138 161.3 73.8534 161.904 73.6724V71.1982C161.542 71.3189 161.18 71.3793 160.818 71.3793C160.093 71.3793 159.671 70.9569 159.671 70.112Z" fill="#1D1B1B"/>
<path d="M170.594 69.4483C170.594 69.569 170.594 69.6293 170.594 69.75C170.534 70.7759 169.628 71.6207 168.602 71.5604C167.456 71.5604 166.973 70.9569 166.973 69.6293V62.3879H163.775V70.0517C163.775 72.7069 165.284 73.9741 167.335 73.9741C168.723 74.0345 169.99 73.3104 170.654 72.0431V73.7328H173.852V62.3879H170.654L170.594 69.4483Z" fill="#1D1B1B"/>
<path d="M179.284 64.4396V62.3276H176.146V73.6724H179.284V67.819C179.284 65.9483 180.551 65.2845 182.723 65.2845V62.1465C181.154 62.1465 179.766 63.0517 179.284 64.4396Z" fill="#1D1B1B"/>
<path d="M194.31 67.4569C194.31 63.7155 191.956 62.1465 189.12 62.1465C186.042 62.1465 183.689 64.2586 183.689 68.0603V68.3017C183.689 72.1034 185.922 74.0345 189.18 74.0345C192.137 74.0345 193.887 72.4052 194.249 70.2328H191.292C191.051 71.1983 190.146 71.8017 189.18 71.7414C187.792 71.7414 186.948 70.9569 186.827 68.9052H194.189V67.4569H194.31ZM186.948 66.7328C187.189 64.8621 188.094 64.319 189.12 64.319C190.387 64.319 191.172 65.0431 191.232 66.7328H186.948Z" fill="#1D1B1B"/>
<g opacity="0.8">
<mask id="mask0_2601_1176" style="mask-type:luminance" maskUnits="userSpaceOnUse" x="356" y="51" width="10" height="10">
<path d="M359.716 57.6967C359.36 57.2297 359.16 56.5403 359.16 55.6729C359.16 54.8056 359.338 54.1162 359.716 53.6491C360.45 52.7818 361.74 52.6928 362.607 53.4267C362.696 53.4935 362.763 53.5824 362.83 53.6491C363.186 54.1162 363.364 54.8056 363.364 55.6729C363.364 56.5403 363.186 57.2297 362.83 57.6967C362.096 58.5641 360.806 58.653 359.939 57.9191C359.85 57.8524 359.783 57.7857 359.716 57.6967ZM357.893 52.3815C356.403 54.3163 356.403 57.0073 357.893 58.9644C358.627 59.8762 359.761 60.3432 361.273 60.3432C362.785 60.3432 363.92 59.8984 364.653 58.9644C366.144 57.0295 366.144 54.3386 364.653 52.3815C363.92 51.4474 362.785 50.9804 361.273 51.0027C359.761 51.0249 358.627 51.4697 357.893 52.3815Z" fill="white"/>
</mask>
<g mask="url(#mask0_2601_1176)">
<path d="M369.101 47.6666H353.444V63.6567H369.101V47.6666Z" fill="#1D1B1B"/>
</g>
<mask id="mask1_2601_1176" style="mask-type:luminance" maskUnits="userSpaceOnUse" x="339" y="51" width="9" height="10">
<path d="M342.031 58.3636C341.786 58.1412 341.675 57.8299 341.697 57.5185C341.675 57.1182 341.875 56.7401 342.231 56.54C342.565 56.3843 342.921 56.2731 343.276 56.2286L343.788 56.1397C343.988 56.0952 344.188 56.0507 344.388 55.984C344.544 55.9173 344.7 55.8505 344.833 55.7616V56.6289C344.811 57.4073 344.611 57.9411 344.188 58.2302C343.788 58.5193 343.321 58.675 342.832 58.675C342.543 58.6527 342.276 58.5638 342.031 58.3636ZM340.363 52.1588C339.963 52.7148 339.74 53.382 339.718 54.0714H341.898C341.942 53.7823 342.053 53.4932 342.231 53.2708C342.454 53.0039 342.832 52.8705 343.388 52.8705C343.766 52.8482 344.144 52.9149 344.5 53.0706C344.767 53.2263 344.9 53.5154 344.878 53.8268C344.878 54.1381 344.678 54.405 344.388 54.4939C344.099 54.6051 343.788 54.6719 343.477 54.6941L342.698 54.783C342.009 54.8498 341.319 55.0277 340.697 55.3613C339.874 55.8505 339.451 56.6289 339.451 57.7187C339.451 58.5638 339.696 59.2087 340.23 59.6535C340.763 60.0983 341.386 60.2984 342.187 60.3429C347.124 60.5653 347.079 57.6964 347.124 57.096V53.76C347.124 52.6925 346.746 51.9809 346.012 51.5806C345.234 51.1803 344.344 50.9801 343.477 51.0023C342.009 51.0023 340.964 51.3804 340.363 52.1588Z" fill="white"/>
</mask>
<g mask="url(#mask1_2601_1176)">
<path d="M350.438 47.6666H336.116V63.6568H350.438V47.6666Z" fill="#1D1B1B"/>
</g>
<mask id="mask2_2601_1176" style="mask-type:luminance" maskUnits="userSpaceOnUse" x="330" y="51" width="9" height="10">
<path d="M331.577 52.248C330.821 53.0931 330.443 54.2718 330.443 55.7841C330.443 57.1185 330.776 58.2082 331.466 59.0533C332.155 59.8984 333.223 60.3209 334.668 60.3209C336.114 60.3209 337.226 59.8094 337.96 58.8087C338.405 58.2304 338.671 57.541 338.738 56.8071H336.336C336.314 57.2074 336.158 57.6077 335.914 57.9413C335.691 58.2304 335.291 58.3861 334.735 58.3861C334.023 58.4306 333.356 57.9636 333.134 57.2964C332.956 56.8071 332.889 56.2734 332.911 55.7396C332.889 55.1836 332.978 54.6277 333.134 54.1161C333.423 53.3378 333.979 52.9597 334.78 52.9597C335.247 52.9152 335.714 53.1154 336.025 53.4934C336.203 53.7603 336.314 54.0717 336.359 54.383H338.783C338.649 53.1154 338.227 52.248 337.493 51.7588C336.759 51.2695 335.847 51.0249 334.713 51.0249C333.378 51.0026 332.333 51.4029 331.577 52.248Z" fill="white"/>
</mask>
<g mask="url(#mask2_2601_1176)">
<path d="M342.099 47.6667H327.109V63.6569H342.099V47.6667Z" fill="#1D1B1B"/>
</g>
<mask id="mask3_2601_1176" style="mask-type:luminance" maskUnits="userSpaceOnUse" x="325" y="51" width="6" height="9">
<path d="M325.113 55.4509V59.9877H327.382V55.74C327.382 55.0506 327.471 54.5391 327.649 54.2055C327.96 53.605 328.561 53.3159 329.472 53.3159C329.539 53.3159 329.628 53.3159 329.739 53.3159C329.85 53.3159 329.984 53.3381 330.117 53.3381V51.003H329.917H329.806C324.824 51.003 325.136 55.4731 325.113 55.4509Z" fill="white"/>
</mask>
<g mask="url(#mask3_2601_1176)">
<path d="M333.433 47.6675H321.779V63.324H333.433V47.6675Z" fill="#1D1B1B"/>
</g>
<mask id="mask4_2601_1176" style="mask-type:luminance" maskUnits="userSpaceOnUse" x="315" y="50" width="10" height="11">
<path d="M318.415 53.4046C318.771 53.0488 319.282 52.8709 319.771 52.8931C320.261 52.8709 320.75 53.0488 321.128 53.3602C321.506 53.716 321.729 54.2275 321.729 54.7612H317.792C317.859 54.2497 318.081 53.7827 318.415 53.4046ZM316.658 52.2259C315.857 53.0488 315.457 54.2053 315.457 55.7398C315.457 57.3633 315.902 58.5419 316.791 59.2536C317.659 59.9653 318.748 60.3433 319.86 60.3433C321.262 60.3433 322.374 59.9208 323.152 59.0534C323.53 58.6754 323.797 58.2306 323.953 57.7191H321.506C321.417 57.8525 321.306 57.9637 321.195 58.0749C320.861 58.3418 320.416 58.4307 319.905 58.4307C319.482 58.453 319.06 58.364 318.682 58.1416C318.104 57.7858 317.792 57.1853 317.748 56.2958H324.108C324.13 55.7175 324.108 55.1393 324.041 54.5388C323.953 53.8939 323.708 53.2712 323.352 52.7152C322.974 52.137 322.462 51.6922 321.84 51.4031C321.195 51.114 320.505 50.9805 319.794 50.9805C318.504 51.0028 317.459 51.4031 316.658 52.2259Z" fill="white"/>
</mask>
<g mask="url(#mask4_2601_1176)">
<path d="M327.444 47.667H312.121V63.6572H327.444V47.667Z" fill="#1D1B1B"/>
</g>
<mask id="mask5_2601_1176" style="mask-type:luminance" maskUnits="userSpaceOnUse" x="302" y="50" width="13" height="11">
<path d="M308.311 52.2039C307.689 51.4256 306.754 50.9808 305.754 51.003C303.552 51.003 302.129 52.6487 302.129 54.806V60.01H304.197V54.7615C304.197 53.8052 304.842 53.138 305.754 53.138C307.11 53.138 307.244 54.2722 307.244 54.7615V60.01H309.312V54.7615C309.312 53.8052 309.979 53.138 310.869 53.138C312.225 53.138 312.381 54.2722 312.381 54.7615V60.01H314.449V54.7837C314.449 52.5598 313.115 50.9808 310.869 50.9808C309.868 50.9808 308.912 51.4256 308.311 52.2039Z" fill="white"/>
</mask>
<g mask="url(#mask5_2601_1176)">
<path d="M317.789 47.6669H298.797V63.3234H317.789V47.6669Z" fill="#1D1B1B"/>
</g>
<mask id="mask6_2601_1176" style="mask-type:luminance" maskUnits="userSpaceOnUse" x="348" y="48" width="9" height="13">
<path d="M350.88 57.7193C350.547 57.1188 350.369 56.4072 350.413 55.7177C350.391 55.0506 350.547 54.4056 350.88 53.8496C351.169 53.3381 351.725 53.049 352.326 53.0935C352.748 53.0935 353.149 53.2269 353.46 53.516C353.994 53.9831 354.261 54.8059 354.261 55.8734C354.283 56.5406 354.105 57.1856 353.771 57.7415C353.46 58.2086 352.904 58.4977 352.326 58.4532C351.725 58.4754 351.169 58.2086 350.88 57.7193ZM354.172 49.9355V52.4041C353.927 52.0038 353.593 51.6702 353.193 51.4478C352.771 51.2031 352.304 51.0919 351.814 51.0919C350.769 51.0697 349.768 51.5367 349.123 52.3818C348.456 53.2492 348.123 54.4723 348.123 55.9624C348.123 57.2523 348.456 58.3198 349.146 59.1426C349.835 59.9655 351.169 60.3213 352.348 60.3213C356.485 60.3213 356.44 56.6963 356.44 56.6963V48.3343C356.44 48.3343 356.329 48.312 356.173 48.312C355.573 48.3343 354.172 48.4899 354.172 49.9355Z" fill="white"/>
</mask>
<g mask="url(#mask6_2601_1176)">
<path d="M359.753 44.9987H344.763V63.6576H359.753V44.9987Z" fill="#1D1B1B"/>
</g>
<mask id="mask7_2601_1176" style="mask-type:luminance" maskUnits="userSpaceOnUse" x="324" y="64" width="9" height="10">
<path d="M327.084 66.9713C327.462 66.6377 327.951 66.4598 328.44 66.482C328.93 66.4598 329.419 66.6377 329.797 66.9491C330.175 67.2826 330.397 67.7719 330.397 68.2834H326.461C326.528 67.7942 326.728 67.3271 327.084 66.9713ZM325.305 65.8371C324.504 66.6155 324.104 67.7497 324.104 69.2175C324.104 70.7742 324.548 71.9085 325.438 72.6201C326.305 73.3095 327.395 73.6876 328.507 73.6654C329.908 73.6654 330.998 73.2428 331.798 72.42C332.177 72.0641 332.443 71.6193 332.599 71.1301H330.153C330.064 71.2635 329.953 71.3747 329.841 71.4859C329.463 71.7528 328.996 71.864 328.529 71.8417C328.107 71.864 327.684 71.775 327.306 71.5526C326.728 71.219 326.439 70.6186 326.394 69.7735H332.755C332.777 69.2175 332.755 68.6392 332.666 68.0833C332.577 67.4606 332.332 66.8601 331.976 66.3263C331.598 65.7704 331.087 65.3478 330.464 65.0809C329.819 64.8141 329.108 64.6806 328.418 64.6806C327.15 64.6584 326.105 65.0587 325.305 65.8371Z" fill="white"/>
</mask>
<g mask="url(#mask7_2601_1176)">
<path d="M336.093 61.3225H320.77V76.9791H336.093V61.3225Z" fill="#1D1B1B"/>
</g>
<mask id="mask8_2601_1176" style="mask-type:luminance" maskUnits="userSpaceOnUse" x="309" y="61" width="10" height="13">
<path d="M312.478 71.0624C312.122 70.5064 311.944 69.8614 311.989 69.1942C311.989 68.1267 312.256 67.3706 312.79 66.9036C313.101 66.6367 313.501 66.481 313.924 66.481C314.502 66.4366 315.058 66.7257 315.369 67.2372C315.703 67.8154 315.859 68.4603 315.836 69.1275C315.859 69.7947 315.703 70.4841 315.369 71.0624C315.058 71.5516 314.524 71.8185 313.946 71.774C313.368 71.8185 312.812 71.5294 312.478 71.0624ZM309.787 63.323V70.0171C309.787 70.0171 309.743 73.6421 313.879 73.6421C315.058 73.6421 316.415 73.2863 317.082 72.4634C317.771 71.6406 318.105 70.5731 318.105 69.2832C318.105 67.7932 317.771 66.6145 317.104 65.7694C316.459 64.9243 315.458 64.4572 314.413 64.4795C313.924 64.4795 313.457 64.5907 313.034 64.8353C312.634 65.0799 312.3 65.4135 312.056 65.8138V61.6773C311.989 61.6773 311.9 61.6773 311.833 61.6773C311.255 61.6773 309.787 61.8107 309.787 63.323Z" fill="white"/>
</mask>
<g mask="url(#mask8_2601_1176)">
<path d="M321.439 58.3192H306.45V76.9781H321.439V58.3192Z" fill="#1D1B1B"/>
</g>
<mask id="mask9_2601_1176" style="mask-type:luminance" maskUnits="userSpaceOnUse" x="318" y="64" width="6" height="10">
<path d="M318.789 68.8163V73.3087H321.057V69.0832C321.057 68.3716 321.146 67.86 321.324 67.5265C321.635 66.926 322.236 66.6369 323.148 66.6369C323.214 66.6369 323.303 66.6369 323.415 66.6369C323.526 66.6369 323.659 66.6591 323.793 66.6591V64.3462L323.592 64.324H323.481C318.5 64.324 318.789 68.8386 318.789 68.8163Z" fill="white"/>
</mask>
<g mask="url(#mask9_2601_1176)">
<path d="M327.107 60.988H315.453V76.6446H327.107V60.988Z" fill="#1D1B1B"/>
</g>
<mask id="mask10_2601_1176" style="mask-type:luminance" maskUnits="userSpaceOnUse" x="302" y="61" width="3" height="13">
<path d="M302.129 63.3014V73.3314H304.13V61.678H304.086C303.774 61.6557 302.129 61.7224 302.129 63.3014Z" fill="white"/>
</mask>
<g mask="url(#mask10_2601_1176)">
<path d="M307.448 58.3197H298.797V76.645H307.448V58.3197Z" fill="#1D1B1B"/>
</g>
<path d="M308.119 61.6556H305.784V63.9907H308.119V61.6556Z" fill="#1D1B1B"/>
<path d="M308.119 64.6577H305.784V73.3311H308.119V64.6577Z" fill="#1D1B1B"/>
<mask id="mask11_2601_1176" style="mask-type:luminance" maskUnits="userSpaceOnUse" x="255" y="47" width="42" height="28">
<path d="M275.802 47C264.66 47.0222 255.653 53.0047 255.698 60.2992V61.0776C255.72 68.8169 263.615 75.0662 275.891 74.9995C288.234 74.9772 296.018 68.6612 296.018 60.9441C295.995 60.6773 296.018 60.5216 296.018 60.1658C295.973 52.9157 286.988 47 275.891 47H275.802V47Z" fill="white"/>
</mask>
<g mask="url(#mask11_2601_1176)">
<path d="M299.332 43.6858H252.34V78.3571H299.332V43.6858Z" fill="#1D1B1B"/>
</g>
<mask id="mask12_2601_1176" style="mask-type:luminance" maskUnits="userSpaceOnUse" x="256" y="47" width="40" height="26">
<path d="M275.806 47.7115C265.198 47.7337 256.613 53.3825 256.635 60.3213C256.658 67.26 265.264 72.8643 275.873 72.8198C286.481 72.7753 295.065 67.1488 295.043 60.2101C295.021 53.2713 286.459 47.7115 275.895 47.7115H275.806Z" fill="white"/>
</mask>
<g mask="url(#mask12_2601_1176)">
<path d="M298.377 44.3758H253.298V76.156H298.377V44.3758Z" fill="white"/>
</g>
<mask id="mask13_2601_1176" style="mask-type:luminance" maskUnits="userSpaceOnUse" x="256" y="51" width="40" height="18">
<path d="M266.661 61.7001C265.905 61.7223 265.326 62.3673 265.349 63.1234C265.371 63.8351 265.949 64.3911 266.661 64.4355C267.016 64.4355 267.35 64.2799 267.595 64.0352C267.617 64.0352 267.617 64.0575 267.595 64.0797C267.528 64.4133 267.439 65.6365 268.707 66.1257C269.151 66.3036 269.663 66.2147 270.019 65.9033C270.13 65.8144 270.152 65.8589 270.13 65.9701C270.086 66.2814 270.152 66.9708 271.086 67.3267C271.576 67.5491 272.154 67.4379 272.51 67.0598C272.643 66.9486 272.665 66.9708 272.688 67.1487C272.71 68.0828 273.488 68.8167 274.422 68.7945C275.356 68.7722 276.09 67.9938 276.068 67.0598C276.046 66.1257 275.29 65.3696 274.356 65.3696C273.977 65.3696 273.555 65.592 273.488 65.5697C273.488 65.4808 273.51 65.3918 273.555 65.3029C273.599 65.2139 274.089 63.6794 272.865 63.1679C271.909 62.7676 271.331 63.2346 271.153 63.4125C271.086 63.4792 271.064 63.457 271.064 63.3903C271.042 62.8121 270.664 62.3005 270.108 62.1226C269.307 61.878 268.462 62.1893 267.995 62.8788C267.928 62.2116 267.35 61.7001 266.683 61.7001H266.661V61.7001ZM256.586 58.7645C256.942 58.8757 257.498 59.0313 257.743 59.0758C263.258 60.299 264.993 61.5444 265.282 61.8113C265.615 61.411 266.127 61.1886 266.638 61.1886C267.239 61.1886 267.795 61.4777 268.128 61.967C268.507 61.6556 268.974 61.4999 269.441 61.4999C269.707 61.4999 269.974 61.5444 270.241 61.6334C270.753 61.7668 271.153 62.1449 271.353 62.6341C271.598 62.5229 271.865 62.4785 272.132 62.4785C272.443 62.4785 272.754 62.5452 273.043 62.6786C274.066 63.1012 274.222 64.1242 274.133 64.8803C274.2 64.8803 274.267 64.8803 274.333 64.8803C275.534 64.8803 276.513 65.8589 276.513 67.0598C276.513 67.4156 276.424 67.7714 276.246 68.105C276.579 68.283 277.402 68.7055 278.136 68.6166C278.714 68.5498 278.959 68.3274 279.026 68.2162C279.093 68.105 279.137 68.0383 279.093 67.9938L277.536 66.2592C277.536 66.2592 277.291 66.0145 277.358 65.9256C277.447 65.8366 277.602 65.9701 277.714 66.059C278.492 66.7262 279.471 67.727 279.471 67.727C279.471 67.727 279.56 67.8826 279.915 67.9271C280.338 67.9938 280.783 67.9049 281.161 67.638C281.25 67.5491 281.361 67.4601 281.428 67.3711L281.405 67.3934C281.806 66.8819 281.361 66.3704 281.361 66.3704L279.537 64.3243C279.537 64.3243 279.293 64.0797 279.359 63.9907C279.448 63.9018 279.604 64.0352 279.715 64.1242C280.293 64.5912 281.116 65.4141 281.872 66.1702C282.028 66.2814 282.718 66.704 283.607 66.1035C284.141 65.7477 284.274 65.3029 284.252 64.947C284.208 64.6579 284.074 64.3911 283.874 64.1909L281.383 61.7001C281.383 61.7001 281.139 61.4777 281.205 61.3665C281.294 61.2553 281.45 61.411 281.561 61.4999C282.339 62.1671 284.497 64.1242 284.497 64.1242C285.008 64.4578 285.675 64.4355 286.187 64.0797C286.498 63.9018 286.721 63.5682 286.743 63.1901C286.765 62.812 286.609 62.434 286.32 62.1671C286.254 62.1004 280.027 56.674 278.625 55.6065C277.803 55.006 277.358 54.8503 276.869 54.7836C276.579 54.7614 276.313 54.7836 276.023 54.8503C275.379 55.0282 274.511 55.6065 273.755 56.2069C272.954 56.8519 272.243 57.4301 271.553 57.5858C270.664 57.7859 269.596 57.5413 269.107 57.2077C268.929 57.0965 268.796 56.9408 268.707 56.7629C268.529 56.3404 268.862 56.0068 268.907 55.9401L270.619 54.072C270.819 53.8718 271.02 53.6716 271.22 53.4715C270.686 53.5604 270.174 53.6716 269.663 53.8273C269.085 54.0275 268.462 54.1387 267.839 54.1609C267.217 54.0942 266.594 54.0052 265.971 53.8718C264.259 53.427 262.613 52.8488 261.012 52.1149C258.654 53.9608 257.031 56.2514 256.586 58.7645ZM276.579 51.8035C273.666 51.8925 272.398 53.1379 271.086 54.4945L269.396 56.3404C269.396 56.3626 269.196 56.5628 269.307 56.7184C269.596 57.1188 270.553 57.3411 271.509 57.1188C272.065 56.9853 272.799 56.4071 273.51 55.8289C274.289 55.2062 275.023 54.6057 275.801 54.3611C276.335 54.1609 276.935 54.1387 277.469 54.3166C278.025 54.5167 278.537 54.8281 278.981 55.2062C280.316 56.2069 285.653 60.8772 286.587 61.6556C289.323 60.4547 292.192 59.5206 295.105 58.8757C294.705 56.4738 293.237 54.2943 291.035 52.5152C287.966 53.8273 284.208 54.5167 280.538 52.7153C280.516 52.7153 278.625 51.8258 276.713 51.8258L276.579 51.8035Z" fill="white"/>
</mask>
<g mask="url(#mask13_2601_1176)">
<path d="M298.441 48.4675H253.251V72.108H298.441V48.4675Z" fill="white"/>
</g>
<mask id="mask14_2601_1176" style="mask-type:luminance" maskUnits="userSpaceOnUse" x="256" y="51" width="40" height="19">
<path d="M265.46 63.1231C265.437 62.4559 265.971 61.8777 266.638 61.8777C267.283 61.8554 267.817 62.3447 267.884 62.9674L267.928 63.301L268.106 63.0341C268.44 62.5449 268.973 62.2558 269.552 62.2335C269.729 62.2335 269.907 62.2557 270.085 62.3002C270.597 62.4559 270.93 62.9229 270.953 63.4567C270.975 63.6346 271.086 63.6346 271.108 63.6346C271.153 63.6346 271.22 63.6124 271.264 63.5679C271.486 63.3232 271.82 63.1898 272.154 63.1676C272.376 63.1676 272.621 63.2343 272.821 63.3232C273.977 63.8125 273.466 65.3026 273.466 65.3248C273.355 65.5694 273.355 65.6806 273.443 65.7473L273.488 65.7696H273.532C273.599 65.7473 273.688 65.7251 273.755 65.7029C273.955 65.6139 274.177 65.5694 274.378 65.5694C275.245 65.5694 275.934 66.2589 275.934 67.1262C275.934 67.9935 275.245 68.683 274.378 68.683C273.532 68.683 272.821 68.0158 272.776 67.1707C272.776 67.104 272.776 66.9038 272.598 66.9038C272.532 66.9038 272.465 66.9483 272.42 67.015C272.22 67.2374 271.953 67.3708 271.642 67.3708C271.464 67.3708 271.286 67.3263 271.131 67.2596C270.219 66.8816 270.219 66.2811 270.263 66.0365C270.285 65.9697 270.285 65.903 270.241 65.8585L270.174 65.8141H270.13C270.085 65.8141 270.019 65.8363 269.996 65.8808C269.774 66.0587 269.507 66.1699 269.218 66.1699C269.085 66.1699 268.929 66.1477 268.795 66.0809C267.617 65.6139 267.706 64.5019 267.772 64.1461C267.772 64.0794 267.772 64.0127 267.728 63.9904L267.639 63.9237L267.55 64.0127C267.328 64.2351 267.016 64.3685 266.705 64.3463C266.016 64.324 265.482 63.7903 265.46 63.1231ZM276.757 51.1583H276.579C274.155 51.225 272.799 52.0923 271.887 52.8262C271.086 52.8707 270.308 53.0264 269.552 53.2488C269.018 53.4267 268.462 53.5379 267.906 53.5601C267.795 53.5601 267.639 53.5601 267.506 53.5601H267.261C266.683 53.5379 263.703 52.8262 261.345 51.9366C261.101 52.1146 260.856 52.2925 260.634 52.4704C263.102 53.4712 266.127 54.2495 267.061 54.294L267.884 54.3385C268.529 54.294 269.151 54.1828 269.752 53.9827C270.13 53.8715 270.53 53.7603 270.93 53.6936C270.819 53.8048 270.708 53.916 270.597 54.0272L268.884 55.873C268.751 56.0065 268.44 56.3845 268.64 56.8293C268.751 57.0295 268.884 57.2074 269.085 57.3186C269.641 57.6299 270.263 57.7856 270.908 57.7856C271.153 57.7856 271.397 57.7634 271.642 57.7189C272.354 57.5632 273.11 56.9405 273.911 56.3178C274.533 55.8063 275.445 55.1614 276.134 54.9612C276.335 54.9167 276.557 54.8723 276.757 54.8723C276.824 54.8723 276.868 54.8723 276.935 54.8945C277.402 54.9612 277.847 55.1169 278.625 55.6951C280.026 56.7626 286.276 62.189 286.32 62.2335C286.565 62.4781 286.698 62.8117 286.698 63.1453C286.676 63.4789 286.498 63.768 286.209 63.946C285.964 64.1016 285.675 64.1906 285.386 64.2128C285.141 64.2128 284.875 64.1461 284.674 64.0127C284.652 63.9904 282.517 62.0334 281.717 61.3884C281.605 61.2995 281.494 61.2327 281.361 61.1883C281.294 61.1883 281.227 61.2105 281.183 61.2772C281.049 61.4329 281.205 61.633 281.361 61.7887L283.852 64.2795C284.029 64.4575 284.163 64.7021 284.207 64.9467C284.23 65.3693 284.029 65.7029 283.607 65.992C283.34 66.1921 283.029 66.2811 282.717 66.2811C282.473 66.2811 282.206 66.1921 282.006 66.0587L281.65 65.7029C280.983 65.0579 280.315 64.3907 279.826 63.9682C279.715 63.857 279.582 63.7903 279.448 63.7903C279.381 63.7903 279.337 63.8125 279.292 63.857C279.226 63.9237 279.181 64.0349 279.337 64.2128C279.381 64.2573 279.426 64.324 279.47 64.3685L281.294 66.4145C281.516 66.6592 281.539 67.015 281.338 67.2819L281.272 67.3708L281.116 67.5487C280.849 67.7489 280.538 67.8379 280.227 67.8379C280.138 67.8379 280.049 67.8379 279.982 67.8156C279.848 67.7934 279.737 67.7489 279.626 67.6822L279.604 67.6599C279.493 67.5487 278.581 66.6147 277.825 65.992C277.736 65.903 277.602 65.8363 277.469 65.8141C277.402 65.8141 277.335 65.8363 277.291 65.8808C277.135 66.0587 277.358 66.3033 277.469 66.3923L279.026 68.1047C279.026 68.127 279.003 68.1492 278.959 68.2159C278.914 68.2826 278.714 68.4606 278.158 68.5718C278.092 68.5718 278.003 68.594 277.936 68.594C277.402 68.5718 276.891 68.4161 276.424 68.1492C276.579 67.8379 276.646 67.5043 276.646 67.1484C276.646 65.8808 275.645 64.8578 274.378 64.8355H274.355H274.266C274.311 64.2573 274.222 63.1453 273.088 62.6561C272.776 62.5226 272.443 62.4559 272.109 62.4337C271.864 62.4337 271.62 62.4781 271.397 62.5671C271.175 62.1001 270.753 61.7665 270.263 61.6108C269.996 61.5219 269.729 61.4774 269.44 61.4774C268.973 61.4774 268.529 61.633 268.15 61.8999C267.772 61.4329 267.216 61.166 266.638 61.166C266.127 61.166 265.615 61.3884 265.259 61.7442C264.77 61.3662 262.857 60.1652 257.72 59.0088C257.476 58.9421 256.897 58.7864 256.564 58.6974C256.497 58.9643 256.475 59.2534 256.43 59.5425C256.43 59.5425 257.387 59.7649 257.565 59.8094C262.813 60.9659 264.525 62.1668 264.815 62.3892C264.726 62.6338 264.659 62.8785 264.659 63.1453C264.681 64.2573 265.593 65.1246 266.705 65.1024C266.794 65.1024 266.883 65.1024 266.972 65.0802C267.127 65.8808 267.706 66.5257 268.462 66.7926C268.684 66.8816 268.929 66.926 269.151 66.926C269.307 66.926 269.44 66.9038 269.596 66.8816C269.818 67.4153 270.263 67.8379 270.797 68.0158C271.042 68.127 271.308 68.1714 271.575 68.1714C271.776 68.1714 271.998 68.127 272.176 68.0603C272.532 68.9276 273.377 69.4836 274.311 69.4836C274.934 69.4836 275.534 69.2167 275.957 68.7719C276.557 69.1055 277.224 69.3057 277.914 69.3501C278.003 69.3501 278.114 69.3501 278.203 69.3279C279.003 69.2389 279.359 68.9053 279.515 68.683C279.537 68.6385 279.582 68.594 279.604 68.5495C279.804 68.6162 280.026 68.6607 280.227 68.6385C280.694 68.6162 281.116 68.4606 281.472 68.1714C281.85 67.9268 282.117 67.5265 282.206 67.0817V67.0595C282.339 67.0817 282.473 67.1039 282.628 67.1039C283.095 67.1039 283.54 66.9483 283.918 66.6814C284.741 66.1477 284.875 65.4582 284.852 65.0134C284.986 65.0357 285.141 65.0579 285.275 65.0579C285.697 65.0357 286.12 64.9245 286.498 64.6799C286.987 64.3685 287.299 63.857 287.343 63.301C287.365 62.9229 287.276 62.5226 287.076 62.189C289.701 61.1215 292.391 60.2542 295.127 59.6315C295.105 59.3646 295.06 59.0533 295.016 58.7864C292.125 59.4313 289.3 60.3432 286.609 61.5441C284.697 59.8761 280.249 56.0287 279.048 55.1391C278.581 54.7388 278.069 54.4497 277.491 54.2273C277.246 54.1384 277.002 54.1161 276.735 54.1161C276.401 54.1161 276.09 54.1828 275.779 54.2718C275 54.5164 274.222 55.1391 273.488 55.7396L273.443 55.7618C272.754 56.3178 272.02 56.896 271.486 57.0072C271.242 57.0517 270.997 57.0962 270.753 57.0962C270.152 57.0962 269.596 56.9183 269.374 56.6736C269.329 56.6292 269.351 56.5625 269.44 56.4513L269.463 56.429L271.153 54.6054C272.465 53.2933 273.71 52.0256 276.579 51.9589H276.735C278.514 51.9589 280.315 52.7595 280.516 52.8262C282.117 53.6268 283.874 54.0494 285.653 54.0494C287.454 54.0494 289.322 53.5824 291.302 52.6705C291.079 52.4926 290.857 52.2925 290.612 52.1368C289.056 52.8485 287.365 53.2488 285.653 53.271C283.985 53.2488 282.339 52.8707 280.827 52.1368C280.738 52.0923 278.781 51.1805 276.735 51.1805L276.757 51.1583Z" fill="white"/>
</mask>
<g mask="url(#mask14_2601_1176)">
<path d="M298.557 47.8223H253.122V72.775H298.557V47.8223Z" fill="#1D1B1B"/>
</g>
</g>
<g opacity="0.8">
<path d="M444.672 51.0038L444.045 45.8431C443.351 45.9238 442.404 46.1252 441.716 46.3391L443.245 51.3055C443.705 51.1662 444.186 51.065 444.672 51.0038Z" fill="#1D1B1B"/>
<path d="M433.065 54.1317C432.787 54.7741 432.488 55.6951 432.33 56.397L437.395 57.5559C437.505 57.0811 437.657 56.6144 437.845 56.169L433.065 54.1317Z" fill="#1D1B1B"/>
<path d="M436.347 69.5552L439.885 65.7459C439.526 65.4105 439.198 65.0476 438.908 64.6642L434.753 67.785C435.168 68.3458 435.817 69.0645 436.347 69.5552Z" fill="#1D1B1B"/>
<path d="M446.794 67.9891L447.421 73.1498C448.116 73.069 449.062 72.8676 449.75 72.6538L448.221 67.6874C447.761 67.8276 447.281 67.9287 446.794 67.9891Z" fill="#1D1B1B"/>
<path d="M458.401 64.8621C458.679 64.2197 458.978 63.2987 459.137 62.5968L454.071 61.4379C453.96 61.9135 453.809 62.3794 453.621 62.8248L458.401 64.8621Z" fill="#1D1B1B"/>
<path d="M455.119 49.4395L451.582 53.2488C451.94 53.5833 452.268 53.9471 452.56 54.3304L456.714 51.2097C456.296 50.6471 455.647 49.9275 455.119 49.4395Z" fill="#1D1B1B"/>
<path d="M438.907 54.3331C439.203 53.9418 439.531 53.5771 439.881 53.2488L438.456 51.7163L435.711 48.7997C435.099 49.3729 434.534 50.0011 434.031 50.6657L435.002 51.404L438.907 54.3331Z" fill="#1D1B1B"/>
<path d="M432.231 65.2161L433.379 64.7343L437.845 62.8283C437.659 62.3873 437.509 61.9206 437.397 61.4406L435.355 61.9091L431.454 62.8283C431.643 63.6411 431.904 64.4442 432.231 65.2161Z" fill="#1D1B1B"/>
<path d="M443.248 67.6909L442.616 69.7469L441.478 73.5295C442.277 73.7718 443.103 73.9457 443.935 74.0469L444.097 72.7806L444.675 67.9917C444.186 67.9305 443.706 67.8293 443.248 67.6909Z" fill="#1D1B1B"/>
<path d="M452.56 64.6607C452.265 65.0511 451.937 65.4158 451.586 65.745L453.038 67.3076L455.756 70.195C456.368 69.6218 456.933 68.9944 457.436 68.3289L456.441 67.5729L452.56 64.6607Z" fill="#1D1B1B"/>
<path d="M459.235 53.7776L458.088 54.2585L453.621 56.1654C453.807 56.6073 453.958 57.0731 454.069 57.5532L456.174 57.0705L460.013 56.1654C459.824 55.3517 459.563 54.5487 459.235 53.7776Z" fill="#1D1B1B"/>
<path d="M448.218 51.3028L448.841 49.2771L449.988 45.4642C449.189 45.2229 448.363 45.0481 447.531 44.9469L447.377 46.1546L446.792 51.0029C447.28 51.0624 447.76 51.1635 448.218 51.3028Z" fill="#1D1B1B"/>
<path d="M438.907 54.3331C439.203 53.9418 439.531 53.5771 439.881 53.2488L438.456 51.7163L435.711 48.7997C435.099 49.3729 434.534 50.0011 434.031 50.6657L435.002 51.404L438.907 54.3331Z" fill="#1D1B1B"/>
<path d="M432.231 65.2161L433.379 64.7343L437.845 62.8283C437.659 62.3873 437.509 61.9206 437.397 61.4406L435.355 61.9091L431.454 62.8283C431.643 63.6411 431.904 64.4442 432.231 65.2161Z" fill="#1D1B1B"/>
<path d="M443.248 67.6909L442.616 69.7469L441.478 73.5295C442.277 73.7718 443.103 73.9457 443.935 74.0469L444.097 72.7806L444.675 67.9917C444.186 67.9305 443.706 67.8293 443.248 67.6909Z" fill="#1D1B1B"/>
<path d="M452.56 64.6607C452.265 65.0511 451.937 65.4158 451.586 65.745L453.038 67.3076L455.756 70.195C456.368 69.6218 456.933 68.9944 457.436 68.3289L456.441 67.5729L452.56 64.6607Z" fill="#1D1B1B"/>
<path d="M459.235 53.7776L458.088 54.2585L453.621 56.1654C453.807 56.6073 453.958 57.0731 454.069 57.5532L456.174 57.0705L460.013 56.1654C459.824 55.3517 459.563 54.5487 459.235 53.7776Z" fill="#1D1B1B"/>
<path d="M448.218 51.3028L448.841 49.2771L449.988 45.4642C449.189 45.2229 448.363 45.0481 447.531 44.9469L447.377 46.1546L446.792 51.0029C447.28 51.0624 447.76 51.1635 448.218 51.3028Z" fill="#1D1B1B"/>
<path d="M440.498 44.3151C439.619 44.6177 438.761 44.9993 437.948 45.45L440.688 50.3703C441.208 50.0819 441.754 49.8361 442.323 49.6391L440.498 44.3151Z" fill="#1D1B1B"/>
<path d="M429.966 56.4396C429.791 57.3482 429.694 58.2817 429.679 59.216L435.329 59.303C435.34 58.6969 435.401 58.1033 435.511 57.5257L429.966 56.4396Z" fill="#1D1B1B"/>
<path d="M435.206 71.6191C435.91 72.2305 436.669 72.7824 437.462 73.2607L440.366 68.4061C439.854 68.0973 439.372 67.7459 438.923 67.3564L435.206 71.6191Z" fill="#1D1B1B"/>
<path d="M450.969 74.6786C451.848 74.3761 452.705 73.9945 453.519 73.5438L450.765 68.5995C450.247 68.8862 449.702 69.1302 449.135 69.3272L450.969 74.6786Z" fill="#1D1B1B"/>
<path d="M461.501 62.5541C461.677 61.6455 461.773 60.7121 461.788 59.7777L456.137 59.6907C456.126 60.2968 456.062 60.8904 455.95 61.4672L461.501 62.5541Z" fill="#1D1B1B"/>
<path d="M456.261 47.3746C455.556 46.7632 454.798 46.2113 454.005 45.733L451.115 50.5654C451.626 50.876 452.11 51.2292 452.56 51.6205L456.261 47.3746Z" fill="#1D1B1B"/>
<path d="M437.455 45.7348C436.659 46.2148 435.9 46.7668 435.199 47.3773L438.904 51.6222C439.353 51.2309 439.837 50.8769 440.349 50.5663L437.455 45.7348Z" fill="#1D1B1B"/>
<path d="M429.68 59.7848C429.689 60.256 429.718 60.7236 429.765 61.1753C429.813 61.6287 429.883 62.0936 429.973 62.5595L435.519 61.4699C435.407 60.8931 435.343 60.3004 435.331 59.6934L429.68 59.7848Z" fill="#1D1B1B"/>
<path d="M437.955 73.5446C438.767 73.9954 439.624 74.3778 440.504 74.6813L442.336 69.328C441.769 69.1319 441.223 68.8879 440.705 68.6013L437.955 73.5446Z" fill="#1D1B1B"/>
<path d="M454.012 73.258C454.808 72.778 455.567 72.2252 456.268 71.6156L452.548 67.3528C452.099 67.7424 451.616 68.0938 451.104 68.4034L454.012 73.258Z" fill="#1D1B1B"/>
<path d="M461.787 59.2089C461.778 58.7378 461.75 58.2702 461.702 57.8185C461.654 57.3651 461.585 56.9001 461.494 56.4343L455.954 57.523C456.064 58.0998 456.126 58.6934 456.136 59.3003L461.787 59.2089Z" fill="#1D1B1B"/>
<path d="M450.819 50.2904L453.512 45.4491C452.699 44.9983 451.842 44.6159 450.962 44.3124L449.141 49.6382C449.709 49.8352 450.255 50.0801 450.774 50.3685L450.819 50.2904Z" fill="#1D1B1B"/>
<path d="M432.576 50.2939C432.042 51.0553 431.573 51.8681 431.179 52.7093L436.297 55.0838C436.55 54.5398 436.849 54.0216 437.189 53.5345L432.576 50.2939Z" fill="#1D1B1B"/>
<path d="M431.18 66.2916C431.572 67.1301 432.042 67.9429 432.578 68.7069L437.206 65.4522C436.866 64.9659 436.566 64.4495 436.311 63.9073L431.18 66.2916Z" fill="#1D1B1B"/>
<path d="M458.89 68.6998C459.423 67.9385 459.893 67.1257 460.287 66.2836L455.156 63.9038C454.901 64.446 454.601 64.9624 454.262 65.4487L458.89 68.6998Z" fill="#1D1B1B"/>
<path d="M460.285 52.7022C459.894 51.8628 459.424 51.0509 458.888 50.2869L454.274 53.5309C454.613 54.019 454.912 54.5363 455.166 55.0802L460.285 52.7022Z" fill="#1D1B1B"/>
<path d="M446.627 49.1049L447.125 43.4987C446.672 43.4597 446.211 43.4402 445.755 43.4402C445.284 43.4402 444.807 43.4615 444.335 43.5023L444.836 49.1049C445.131 49.0801 445.43 49.0659 445.733 49.0659C446.035 49.0667 446.333 49.0801 446.627 49.1049Z" fill="#1D1B1B"/>
<path d="M444.843 69.8578L444.343 75.4932C444.815 75.534 445.285 75.5544 445.742 75.5544C446.196 75.5544 446.665 75.534 447.134 75.4932L446.628 69.8569C446.334 69.8817 446.036 69.8959 445.734 69.8959C445.434 69.8959 445.137 69.8826 444.843 69.8578Z" fill="#1D1B1B"/>
<path d="M479.291 59.0638C480.626 59.4569 481.785 60.5554 481.785 62.3806C481.785 64.5013 480.273 66.386 476.857 66.386H470.948V52.6448H476.877C479.35 52.6448 481.057 54.3139 481.057 56.2181C481.057 57.7488 480.037 58.7106 479.29 58.9857V59.0638H479.291ZM476.249 58.0815C477.151 58.0815 477.74 57.5314 477.74 56.7274C477.74 55.9617 477.171 55.3725 476.229 55.3725H474.246V58.0815H476.249ZM476.563 63.6566C477.701 63.6566 478.31 63.0089 478.31 62.086C478.31 61.1046 477.642 60.5155 476.563 60.5155H474.246V63.6566H476.563Z" fill="#1D1B1B"/>
<path d="M490.105 66.383H486.807V60.9659L481.683 52.6427H485.492L487.611 56.3721C488.102 57.2364 488.515 57.9818 488.534 58.0013H488.593C488.613 57.9818 489.025 57.216 489.516 56.3721L491.713 52.6427H495.227L490.104 60.9659L490.105 66.383Z" fill="#1D1B1B"/>
<path d="M507.1 63.0272C507.1 59.7689 507.139 58.1593 507.139 58.1397H507.1C507.081 58.1593 506.412 59.3962 505.745 60.5728L504.41 62.9872H502.565L501.231 60.6127C500.544 59.3953 499.895 58.1584 499.877 58.1388H499.817C499.817 58.1584 499.856 59.768 499.856 63.0263V66.3821H496.559V52.6436H500.052L503.508 58.7875H503.566L507.04 52.6436H510.397V66.383H507.1V63.0272Z" fill="#1D1B1B"/>
<path d="M516.048 64.107L515.223 66.383H511.749L517.049 52.6427H520.798L526.118 66.383H522.585L521.759 64.107H516.048ZM519.698 58.3749C519.267 57.2364 518.952 56.373 518.932 56.3526H518.873C518.853 56.373 518.539 57.2169 518.107 58.3553L517.126 61.1034H520.678L519.698 58.3749Z" fill="#1D1B1B"/>
<path d="M473.038 70.2793C473.217 70.4195 473.308 70.6138 473.308 70.8614C473.308 71.0486 473.256 71.2056 473.152 71.3325C473.048 71.4594 472.902 71.5428 472.715 71.5819C472.948 71.612 473.129 71.6981 473.258 71.8401C473.388 71.9821 473.453 72.1613 473.453 72.3787C473.453 72.6502 473.351 72.8614 473.149 73.0122C472.947 73.1631 472.666 73.2385 472.307 73.2385H470.967V70.0699H472.294C472.61 70.0681 472.859 70.1382 473.038 70.2793ZM472.8 71.3201C472.924 71.2225 472.986 71.0823 472.986 70.9013C472.986 70.7265 472.924 70.5907 472.8 70.494C472.676 70.3973 472.503 70.3511 472.28 70.3538H471.28V71.4674H472.28C472.503 71.4674 472.677 71.4177 472.8 71.3201ZM472.911 72.7957C473.06 72.6884 473.136 72.5384 473.136 72.345C473.136 72.1551 473.06 72.0069 472.91 71.9013C472.759 71.7957 472.549 71.7434 472.28 71.7434H471.28V72.9563H472.28C472.552 72.9563 472.762 72.9031 472.911 72.7957Z" fill="#1D1B1B"/>
<path d="M475.734 71.0078C475.915 71.1089 476.057 71.25 476.16 71.431C476.263 71.612 476.314 71.817 476.314 72.0468C476.314 72.2793 476.262 72.4869 476.16 72.6688C476.057 72.8516 475.916 72.9936 475.734 73.0948C475.552 73.1959 475.348 73.2465 475.119 73.2465C474.89 73.2465 474.684 73.1959 474.503 73.0948C474.322 72.9936 474.18 72.8516 474.077 72.6688C473.974 72.486 473.923 72.2793 473.923 72.0468C473.923 71.8179 473.975 71.612 474.077 71.431C474.18 71.25 474.321 71.1089 474.503 71.0078C474.684 70.9066 474.889 70.856 475.119 70.856C475.348 70.856 475.553 70.9066 475.734 71.0078ZM474.657 71.2367C474.521 71.3148 474.416 71.4257 474.34 71.5668C474.265 71.7087 474.227 71.8702 474.227 72.0513C474.227 72.2358 474.265 72.3982 474.34 72.5402C474.416 72.6821 474.521 72.7922 474.657 72.8703C474.793 72.9483 474.947 72.9883 475.119 72.9883C475.291 72.9883 475.444 72.9492 475.58 72.8703C475.716 72.7922 475.821 72.6813 475.897 72.5402C475.972 72.3982 476.01 72.2358 476.01 72.0513C476.01 71.8702 475.972 71.7087 475.897 71.5668C475.821 71.4248 475.716 71.3148 475.58 71.2367C475.444 71.1586 475.291 71.1187 475.119 71.1187C474.947 71.1187 474.793 71.1577 474.657 71.2367Z" fill="#1D1B1B"/>
<path d="M476.978 69.8782H477.282V73.2367H476.978V69.8782Z" fill="#1D1B1B"/>
<path d="M479.116 71.1524C479.004 71.1205 478.894 71.1045 478.786 71.1045C478.635 71.1045 478.514 71.1338 478.421 71.1924C478.329 71.2509 478.283 71.3397 478.283 71.4577C478.283 71.5393 478.308 71.6059 478.358 71.6564C478.407 71.7079 478.469 71.7496 478.543 71.7807C478.617 71.8126 478.72 71.8481 478.853 71.8871C479.016 71.9351 479.148 71.983 479.251 72.03C479.354 72.077 479.441 72.1445 479.514 72.2341C479.587 72.3228 479.622 72.4399 479.622 72.5846C479.622 72.7984 479.54 72.9626 479.378 73.0762C479.215 73.1897 479.012 73.2456 478.767 73.2456C478.594 73.2456 478.429 73.2172 478.269 73.1596C478.109 73.1028 477.974 73.0211 477.866 72.9156L477.988 72.6982C478.091 72.7922 478.213 72.8659 478.353 72.92C478.493 72.9741 478.636 73.0016 478.781 73.0016C478.941 73.0016 479.071 72.9688 479.172 72.9022C479.273 72.8357 479.324 72.739 479.324 72.613C479.324 72.5251 479.298 72.4541 479.247 72.3982C479.195 72.3423 479.131 72.2989 479.054 72.2669C478.977 72.235 478.87 72.1986 478.735 72.156C478.575 72.1081 478.445 72.0611 478.345 72.0158C478.246 71.9705 478.161 71.9049 478.091 71.8188C478.022 71.7327 477.988 71.6201 477.988 71.4816C477.988 71.2731 478.065 71.1169 478.221 71.0105C478.376 70.9049 478.571 70.8516 478.802 70.8516C478.938 70.8516 479.069 70.8694 479.196 70.9058C479.323 70.9421 479.436 70.9918 479.536 71.0548L479.418 71.2855C479.329 71.2287 479.228 71.1844 479.116 71.1524Z" fill="#1D1B1B"/>
<path d="M481.713 73.2367L481.709 72.8383C481.615 72.9767 481.493 73.0805 481.343 73.148C481.192 73.2154 481.018 73.25 480.822 73.25C480.662 73.25 480.521 73.219 480.398 73.1568C480.276 73.0947 480.182 73.0095 480.115 72.9013C480.049 72.793 480.016 72.6706 480.016 72.5348C480.016 72.3298 480.095 72.1684 480.254 72.0503C480.412 71.9323 480.63 71.8738 480.908 71.8738H481.705V71.6927C481.705 71.5055 481.649 71.3609 481.537 71.258C481.425 71.155 481.263 71.1044 481.048 71.1044C480.794 71.1044 480.54 71.1994 480.283 71.3893L480.147 71.1808C480.307 71.0689 480.46 70.9873 480.604 70.9341C480.749 70.8817 480.915 70.8551 481.102 70.8551C481.389 70.8551 481.611 70.927 481.768 71.0698C481.925 71.2136 482.004 71.4115 482.007 71.6652L482.012 73.2358L481.713 73.2367ZM481.413 72.8498C481.559 72.7522 481.658 72.6138 481.709 72.4354V72.1098H480.944C480.736 72.1098 480.578 72.1444 480.469 72.2136C480.36 72.2828 480.305 72.3875 480.305 72.5259C480.305 72.6679 480.358 72.7815 480.461 72.8676C480.565 72.9536 480.704 72.9962 480.876 72.9962C481.088 72.9971 481.266 72.9483 481.413 72.8498Z" fill="#1D1B1B"/>
<path d="M483.746 71.1524C483.634 71.1205 483.524 71.1045 483.416 71.1045C483.265 71.1045 483.143 71.1338 483.051 71.1924C482.959 71.2509 482.913 71.3397 482.913 71.4577C482.913 71.5393 482.938 71.6059 482.987 71.6564C483.037 71.7079 483.099 71.7496 483.173 71.7807C483.246 71.8126 483.35 71.8481 483.482 71.8871C483.646 71.9351 483.778 71.983 483.881 72.03C483.984 72.077 484.071 72.1445 484.144 72.2341C484.216 72.3228 484.252 72.4399 484.252 72.5846C484.252 72.7984 484.17 72.9626 484.008 73.0762C483.844 73.1897 483.641 73.2456 483.396 73.2456C483.224 73.2456 483.058 73.2172 482.899 73.1596C482.739 73.1028 482.604 73.0211 482.496 72.9156L482.618 72.6982C482.721 72.7922 482.843 72.8659 482.983 72.92C483.123 72.9741 483.266 73.0016 483.411 73.0016C483.57 73.0016 483.701 72.9688 483.802 72.9022C483.903 72.8357 483.954 72.739 483.954 72.613C483.954 72.5251 483.928 72.4541 483.876 72.3982C483.825 72.3423 483.761 72.2989 483.684 72.2669C483.607 72.235 483.5 72.1986 483.364 72.156C483.205 72.1081 483.075 72.0611 482.975 72.0158C482.876 71.9705 482.791 71.9049 482.721 71.8188C482.652 71.7327 482.617 71.6201 482.617 71.4816C482.617 71.2731 482.694 71.1169 482.851 71.0105C483.006 70.9049 483.2 70.8516 483.432 70.8516C483.568 70.8516 483.699 70.8694 483.826 70.9058C483.953 70.9421 484.065 70.9918 484.166 71.0548L484.048 71.2855C483.959 71.2287 483.858 71.1844 483.746 71.1524Z" fill="#1D1B1B"/>
<path d="M486.519 73.9883C486.4 74.0814 486.263 74.1285 486.109 74.1285C485.924 74.1285 485.762 74.0743 485.62 73.9652L485.756 73.7301C485.861 73.8028 485.975 73.8392 486.096 73.8392C486.192 73.8392 486.279 73.8073 486.358 73.7443C486.436 73.6813 486.501 73.589 486.553 73.4683L486.652 73.2234L485.67 70.8649H485.991L486.806 72.9022L487.589 70.8649H487.901L486.806 73.5765C486.734 73.7576 486.638 73.8951 486.519 73.9883Z" fill="#1D1B1B"/>
<path d="M489.636 70.0681H490.025L491.266 72.4443L492.492 70.0681H492.882V73.2367H492.592L492.587 70.5028L491.346 72.8977H491.174L489.929 70.5028V73.2367H489.635L489.636 70.0681Z" fill="#1D1B1B"/>
<path d="M495.588 71.2065C495.782 71.4408 495.871 71.7549 495.855 72.1506H493.878C493.899 72.4044 493.992 72.6085 494.158 72.7638C494.324 72.9191 494.529 72.9971 494.774 72.9971C494.925 72.9971 495.065 72.9696 495.194 72.9155C495.324 72.8614 495.436 72.7842 495.529 72.6848L495.701 72.8569C495.587 72.9803 495.448 73.0761 495.287 73.1444C495.125 73.2128 494.948 73.2465 494.755 73.2465C494.526 73.2465 494.322 73.1959 494.144 73.0948C493.965 72.9936 493.826 72.8525 493.725 72.6715C493.624 72.4905 493.573 72.2837 493.573 72.0513C493.573 71.8223 493.624 71.6156 493.725 71.4337C493.826 71.2509 493.965 71.1089 494.144 71.0078C494.322 70.9066 494.523 70.856 494.746 70.856C495.115 70.856 495.396 70.9731 495.588 71.2065ZM495.584 71.9155C495.569 71.6679 495.486 71.4709 495.337 71.3245C495.188 71.1781 494.992 71.1054 494.751 71.1054C494.512 71.1054 494.313 71.179 494.154 71.3272C493.994 71.4754 493.902 71.6715 493.878 71.9155H495.584Z" fill="#1D1B1B"/>
<path d="M497.129 71.0033C497.275 70.9084 497.451 70.8596 497.656 70.856V71.1409C497.406 71.1382 497.204 71.211 497.051 71.36C496.899 71.5091 496.812 71.7123 496.792 71.9687V73.2358H496.488V70.864H496.792V71.4159C496.87 71.2367 496.983 71.0983 497.129 71.0033Z" fill="#1D1B1B"/>
<path d="M499.088 71.1231C498.919 71.1231 498.767 71.1621 498.631 71.2411C498.496 71.3192 498.39 71.4292 498.315 71.5694C498.239 71.7096 498.201 71.8702 498.201 72.0513C498.201 72.2323 498.239 72.3938 498.315 72.5357C498.39 72.6777 498.496 72.7877 498.631 72.8658C498.767 72.9439 498.92 72.9838 499.088 72.9838C499.242 72.9838 499.383 72.9563 499.512 72.9022C499.64 72.8481 499.748 72.7691 499.835 72.6671L500.008 72.8481C499.902 72.975 499.769 73.0726 499.609 73.1427C499.449 73.2119 499.271 73.2465 499.075 73.2465C498.849 73.2465 498.646 73.1959 498.468 73.0948C498.29 72.9936 498.15 72.8516 498.049 72.6688C497.948 72.486 497.897 72.2802 497.897 72.0513C497.897 71.8223 497.948 71.6156 498.049 71.4337C498.15 71.2509 498.29 71.1089 498.468 71.0078C498.646 70.9066 498.849 70.856 499.075 70.856C499.259 70.856 499.427 70.8862 499.58 70.9465C499.732 71.0069 499.863 71.0912 499.971 71.2003L499.799 71.4044C499.606 71.2172 499.369 71.1231 499.088 71.1231Z" fill="#1D1B1B"/>
<path d="M502.035 73.2367L502.03 72.8383C501.936 72.9767 501.815 73.0805 501.664 73.148C501.513 73.2154 501.339 73.25 501.143 73.25C500.983 73.25 500.842 73.219 500.72 73.1568C500.597 73.0947 500.503 73.0095 500.437 72.9013C500.37 72.793 500.337 72.6706 500.337 72.5348C500.337 72.3298 500.416 72.1684 500.575 72.0503C500.733 71.9323 500.951 71.8738 501.229 71.8738H502.026V71.6927C502.026 71.5055 501.97 71.3609 501.858 71.258C501.746 71.155 501.584 71.1044 501.369 71.1044C501.115 71.1044 500.861 71.1994 500.604 71.3893L500.468 71.1808C500.628 71.0689 500.781 70.9873 500.925 70.9341C501.07 70.8817 501.236 70.8551 501.423 70.8551C501.71 70.8551 501.932 70.927 502.089 71.0698C502.246 71.2136 502.326 71.4115 502.328 71.6652L502.333 73.2358L502.035 73.2367ZM501.734 72.8498C501.88 72.7522 501.979 72.6138 502.03 72.4354V72.1098H501.265C501.057 72.1098 500.899 72.1444 500.79 72.2136C500.681 72.2828 500.626 72.3875 500.626 72.5259C500.626 72.6679 500.679 72.7815 500.783 72.8676C500.886 72.9536 501.025 72.9962 501.197 72.9962C501.408 72.9971 501.587 72.9483 501.734 72.8498Z" fill="#1D1B1B"/>
<path d="M505.302 69.8782V73.2367H504.999V72.6937C504.908 72.872 504.781 73.0096 504.618 73.1081C504.455 73.2065 504.265 73.2554 504.047 73.2554C503.824 73.2554 503.625 73.2039 503.45 73.1018C503.275 72.9989 503.14 72.8561 503.043 72.6715C502.946 72.4878 502.898 72.2793 502.898 72.0468C502.898 71.8143 502.947 71.6076 503.046 71.4266C503.143 71.2455 503.28 71.1036 503.453 71.0015C503.626 70.8986 503.823 70.8471 504.044 70.8471C504.261 70.8471 504.452 70.8968 504.616 70.9962C504.78 71.0956 504.908 71.2349 504.999 71.4124V69.8782H505.302ZM504.565 72.8729C504.7 72.7931 504.807 72.6821 504.884 72.5402C504.961 72.3982 505 72.2367 505 72.0557C505 71.8747 504.961 71.7123 504.884 71.5694C504.807 71.4266 504.7 71.3139 504.565 71.2322C504.429 71.1506 504.275 71.1098 504.103 71.1098C503.931 71.1098 503.778 71.1506 503.642 71.2322C503.506 71.3139 503.399 71.4266 503.321 71.5694C503.243 71.7132 503.203 71.8747 503.203 72.0557C503.203 72.2367 503.241 72.3982 503.318 72.5402C503.395 72.6821 503.502 72.7931 503.639 72.8729C503.777 72.9528 503.931 72.9927 504.103 72.9927C504.275 72.9927 504.429 72.9528 504.565 72.8729Z" fill="#1D1B1B"/>
<path d="M507.779 71.0078C507.96 71.1089 508.102 71.25 508.204 71.431C508.307 71.612 508.359 71.817 508.359 72.0468C508.359 72.2793 508.307 72.4869 508.204 72.6688C508.101 72.8516 507.96 72.9936 507.779 73.0948C507.598 73.1959 507.393 73.2465 507.164 73.2465C506.934 73.2465 506.729 73.1959 506.548 73.0948C506.367 72.9936 506.225 72.8516 506.123 72.6688C506.02 72.486 505.969 72.2793 505.969 72.0468C505.969 71.8179 506.021 71.612 506.123 71.431C506.226 71.25 506.367 71.1089 506.548 71.0078C506.729 70.9066 506.934 70.856 507.164 70.856C507.393 70.856 507.598 70.9066 507.779 71.0078ZM506.702 71.2367C506.566 71.3148 506.461 71.4257 506.385 71.5668C506.31 71.7087 506.272 71.8702 506.272 72.0513C506.272 72.2358 506.31 72.3982 506.385 72.5402C506.461 72.6821 506.566 72.7922 506.702 72.8703C506.838 72.9483 506.991 72.9883 507.164 72.9883C507.336 72.9883 507.489 72.9492 507.625 72.8703C507.761 72.7922 507.866 72.6813 507.942 72.5402C508.017 72.3982 508.055 72.2358 508.055 72.0513C508.055 71.8702 508.017 71.7087 507.942 71.5668C507.866 71.4248 507.761 71.3148 507.625 71.2367C507.489 71.1586 507.336 71.1187 507.164 71.1187C506.991 71.1187 506.838 71.1577 506.702 71.2367Z" fill="#1D1B1B"/>
<path d="M509.925 71.1524C509.813 71.1205 509.703 71.1045 509.595 71.1045C509.444 71.1045 509.322 71.1338 509.23 71.1923C509.138 71.2518 509.092 71.3405 509.092 71.4585C509.092 71.5402 509.116 71.6067 509.166 71.6573C509.216 71.7087 509.278 71.7505 509.352 71.7815C509.425 71.8135 509.529 71.8489 509.661 71.888C509.825 71.9359 509.957 71.9838 510.06 72.0309C510.163 72.0779 510.25 72.1453 510.322 72.2349C510.395 72.3237 510.431 72.4408 510.431 72.5854C510.431 72.7993 510.349 72.9634 510.187 73.077C510.023 73.1906 509.82 73.2465 509.575 73.2465C509.403 73.2465 509.237 73.2181 509.077 73.1604C508.918 73.1036 508.783 73.022 508.675 72.9164L508.797 72.699C508.9 72.7931 509.022 72.8667 509.162 72.9208C509.302 72.975 509.445 73.0025 509.589 73.0025C509.749 73.0025 509.88 72.9696 509.981 72.9031C510.082 72.8365 510.132 72.7398 510.132 72.6138C510.132 72.526 510.107 72.455 510.055 72.3991C510.004 72.3432 509.94 72.2997 509.863 72.2678C509.785 72.2358 509.679 72.1994 509.543 72.1569C509.384 72.1089 509.254 72.0619 509.154 72.0167C509.054 71.9714 508.97 71.9057 508.9 71.8197C508.831 71.7336 508.796 71.6209 508.796 71.4825C508.796 71.274 508.873 71.1178 509.029 71.0113C509.185 70.9057 509.379 70.8525 509.611 70.8525C509.746 70.8525 509.878 70.8702 510.005 70.9066C510.132 70.943 510.244 70.9927 510.345 71.0557L510.227 71.2864C510.138 71.2287 510.037 71.1843 509.925 71.1524Z" fill="#1D1B1B"/>
<path d="M473.33 78.432L472.954 77.59H471.198L470.827 78.432H470.492L471.918 75.2678H472.244L473.67 78.432H473.33ZM471.32 77.3087H472.832L472.072 75.5979L471.32 77.3087Z" fill="#1D1B1B"/>
<path d="M474.776 76.1978C474.923 76.1028 475.098 76.054 475.303 76.0505V76.3353C475.053 76.3326 474.852 76.4054 474.699 76.5545C474.546 76.7036 474.459 76.9068 474.439 77.1632V78.4303H474.136V76.0585H474.439V76.6104C474.518 76.4311 474.63 76.2927 474.776 76.1978Z" fill="#1D1B1B"/>
<path d="M477.843 76.0594V78.1827C477.843 78.4117 477.795 78.6131 477.698 78.7852C477.602 78.9574 477.463 79.0896 477.284 79.181C477.105 79.2733 476.897 79.3194 476.661 79.3194C476.311 79.3194 475.987 79.1987 475.688 78.9574L475.832 78.74C475.953 78.8456 476.08 78.9254 476.213 78.9796C476.346 79.0337 476.491 79.0612 476.648 79.0612C476.919 79.0612 477.136 78.9822 477.297 78.8234C477.459 78.6646 477.54 78.4525 477.54 78.1872V77.8021C477.455 77.968 477.335 78.0975 477.178 78.1916C477.021 78.2857 476.84 78.3318 476.635 78.3318C476.423 78.3318 476.235 78.283 476.071 78.1845C475.907 78.0869 475.778 77.9503 475.686 77.7772C475.594 77.6042 475.548 77.4072 475.548 77.1863C475.548 76.9662 475.594 76.7701 475.686 76.598C475.778 76.4258 475.907 76.2918 476.073 76.1951C476.239 76.0984 476.428 76.0505 476.639 76.0505C476.844 76.0505 477.024 76.0966 477.178 76.1889C477.331 76.2812 477.452 76.4116 477.54 76.5802V76.0594H477.843ZM477.128 77.9724C477.257 77.8952 477.359 77.7888 477.431 77.653C477.504 77.5172 477.54 77.3646 477.54 77.196C477.54 77.0239 477.503 76.8704 477.431 76.7346C477.359 76.5988 477.257 76.4924 477.128 76.4152C476.998 76.338 476.852 76.2998 476.689 76.2998C476.525 76.2998 476.379 76.338 476.249 76.4152C476.12 76.4924 476.018 76.5988 475.944 76.7346C475.871 76.8704 475.833 77.0239 475.833 77.196C475.833 77.3682 475.871 77.5217 475.944 77.6557C476.018 77.7896 476.119 77.8952 476.248 77.9724C476.376 78.0496 476.523 78.0878 476.689 78.0878C476.852 78.0878 476.998 78.0487 477.128 77.9724Z" fill="#1D1B1B"/>
<path d="M480.433 76.401C480.626 76.6352 480.715 76.9493 480.7 77.3451H478.722C478.743 77.5989 478.836 77.803 479.002 77.9582C479.168 78.1135 479.373 78.1916 479.618 78.1916C479.769 78.1916 479.909 78.1641 480.04 78.11C480.169 78.0558 480.281 77.9786 480.374 77.8793L480.546 78.0514C480.432 78.1747 480.293 78.2706 480.132 78.3389C479.97 78.4072 479.793 78.4409 479.6 78.4409C479.371 78.4409 479.167 78.3904 478.989 78.2892C478.811 78.1881 478.671 78.047 478.57 77.866C478.469 77.6849 478.418 77.4782 478.418 77.2457C478.418 77.0168 478.469 76.81 478.57 76.6281C478.671 76.4453 478.811 76.3034 478.989 76.2022C479.167 76.1011 479.368 76.0505 479.592 76.0505C479.959 76.0505 480.239 76.1676 480.433 76.401ZM480.427 77.1099C480.412 76.8624 480.33 76.6654 480.181 76.519C480.032 76.3726 479.836 76.2998 479.594 76.2998C479.355 76.2998 479.157 76.3735 478.997 76.5217C478.837 76.6698 478.745 76.8659 478.721 77.1099H480.427Z" fill="#1D1B1B"/>
<path d="M483.242 76.2972C483.403 76.4613 483.484 76.6876 483.484 76.9742V78.4321H483.176V77.0461C483.176 76.8225 483.114 76.6477 482.991 76.5208C482.867 76.3939 482.695 76.3309 482.474 76.3309C482.23 76.3335 482.034 76.409 481.888 76.5571C481.741 76.7053 481.658 76.9041 481.637 77.1543V78.4312H481.333V76.0594H481.637V76.6113C481.718 76.4276 481.838 76.2883 481.997 76.1951C482.155 76.1019 482.347 76.0531 482.574 76.0505C482.858 76.0505 483.08 76.133 483.242 76.2972Z" fill="#1D1B1B"/>
<path d="M485.49 78.2688C485.326 78.3806 485.152 78.4392 484.964 78.4454C484.783 78.4454 484.64 78.3895 484.534 78.2777C484.428 78.1659 484.376 77.9982 484.376 77.7754V76.3628H484.036L484.032 76.1277H484.376V75.5163H484.68V76.1277L485.449 76.1232V76.3628H484.68V77.7257C484.68 78.0186 484.788 78.165 485.005 78.165C485.126 78.165 485.257 78.1224 485.399 78.0381L485.49 78.2688Z" fill="#1D1B1B"/>
<path d="M486.341 75.2244C486.38 75.2652 486.399 75.3158 486.399 75.3761C486.399 75.4364 486.379 75.4879 486.338 75.5296C486.297 75.5722 486.248 75.5926 486.191 75.5926C486.13 75.5926 486.08 75.5713 486.039 75.5296C485.998 75.4879 485.978 75.4364 485.978 75.3761C485.978 75.3158 485.998 75.2652 486.039 75.2244C486.08 75.1836 486.13 75.1631 486.191 75.1631C486.252 75.1631 486.302 75.1836 486.341 75.2244ZM486.037 76.0594H486.341V78.4312H486.037V76.0594Z" fill="#1D1B1B"/>
<path d="M489.13 76.2972C489.292 76.4613 489.373 76.6876 489.373 76.9742V78.4321H489.065V77.0461C489.065 76.8225 489.003 76.6477 488.879 76.5208C488.755 76.3939 488.584 76.3309 488.363 76.3309C488.119 76.3335 487.923 76.409 487.776 76.5571C487.63 76.7053 487.546 76.9041 487.525 77.1543V78.4312H487.222V76.0594H487.525V76.6113C487.607 76.4276 487.727 76.2883 487.885 76.1951C488.043 76.1019 488.236 76.0531 488.462 76.0505C488.746 76.0505 488.969 76.133 489.13 76.2972Z" fill="#1D1B1B"/>
<path d="M491.75 76.2022C491.931 76.3034 492.073 76.4445 492.175 76.6255C492.278 76.8065 492.329 77.0115 492.329 77.2413C492.329 77.4738 492.277 77.6814 492.175 77.8633C492.072 78.0461 491.931 78.1881 491.75 78.2892C491.569 78.3904 491.364 78.4409 491.134 78.4409C490.905 78.4409 490.699 78.3904 490.518 78.2892C490.337 78.1881 490.195 78.0461 490.093 77.8633C489.99 77.6805 489.939 77.4738 489.939 77.2413C489.939 77.0123 489.99 76.8065 490.093 76.6255C490.196 76.4445 490.337 76.3034 490.518 76.2022C490.699 76.1011 490.904 76.0505 491.134 76.0505C491.364 76.0505 491.569 76.1011 491.75 76.2022ZM490.673 76.4311C490.537 76.5092 490.431 76.6201 490.356 76.7612C490.281 76.9032 490.242 77.0647 490.242 77.2457C490.242 77.4303 490.281 77.5927 490.356 77.7346C490.431 77.8766 490.537 77.9866 490.673 78.0647C490.809 78.1428 490.962 78.1827 491.134 78.1827C491.306 78.1827 491.46 78.1437 491.596 78.0647C491.731 77.9866 491.837 77.8757 491.912 77.7346C491.988 77.5927 492.026 77.4303 492.026 77.2457C492.026 77.0647 491.988 76.9032 491.912 76.7612C491.837 76.6193 491.731 76.5092 491.596 76.4311C491.46 76.3531 491.306 76.3131 491.134 76.3131C490.962 76.3131 490.809 76.3522 490.673 76.4311Z" fill="#1D1B1B"/>
<path d="M493.896 76.3468C493.784 76.3149 493.674 76.2989 493.566 76.2989C493.415 76.2989 493.293 76.3282 493.201 76.3868C493.109 76.4453 493.063 76.5341 493.063 76.6521C493.063 76.7337 493.088 76.8002 493.137 76.8508C493.187 76.9023 493.249 76.944 493.323 76.9751C493.396 77.007 493.5 77.0425 493.632 77.0815C493.796 77.1295 493.928 77.1774 494.031 77.2244C494.134 77.2714 494.221 77.3389 494.293 77.4285C494.366 77.5181 494.402 77.6343 494.402 77.779C494.402 77.9928 494.32 78.157 494.158 78.2706C493.994 78.3841 493.791 78.44 493.546 78.44C493.374 78.44 493.208 78.4116 493.048 78.354C492.889 78.2972 492.754 78.2155 492.646 78.11L492.768 77.8926C492.871 77.9866 492.993 78.0603 493.133 78.1144C493.273 78.1685 493.416 78.196 493.56 78.196C493.72 78.196 493.851 78.1632 493.952 78.0966C494.053 78.0301 494.104 77.9334 494.104 77.8074C494.104 77.7195 494.078 77.6485 494.026 77.5926C493.975 77.5367 493.911 77.4933 493.834 77.4613C493.757 77.4294 493.65 77.393 493.514 77.3504C493.355 77.3025 493.225 77.2555 493.125 77.2102C493.025 77.1649 492.941 77.0993 492.871 77.0132C492.802 76.9271 492.767 76.8144 492.767 76.676C492.767 76.4675 492.844 76.3113 493.001 76.2049C493.156 76.0993 493.35 76.046 493.582 76.046C493.718 76.046 493.849 76.0638 493.976 76.1001C494.103 76.1365 494.215 76.1862 494.316 76.2492L494.198 76.4799C494.108 76.4231 494.007 76.3788 493.896 76.3468Z" fill="#1D1B1B"/>
</g>
<g clip-path="url(#clip0_2601_1176)">
<path d="M598.071 68.7218C598.436 68.3381 598.763 67.8583 599.032 67.3115L600.963 62.6106L598.264 56.0484H597.975C597.514 56.0484 597.111 56.1347 596.774 56.2978C596.419 56.4705 596.102 56.6816 595.833 56.9406C595.564 57.1997 595.323 57.497 595.131 57.8136C594.929 58.1398 594.776 58.4565 594.651 58.7442C594.449 59.2335 594.228 59.7708 593.969 60.3944C593.728 60.9796 593.469 61.6129 593.19 62.2748C592.912 62.9463 592.633 63.6084 592.364 64.2319C592.085 64.8843 591.816 65.5175 591.566 66.1122C591.038 67.369 590.5 68.645 589.952 69.921H594.987C595.698 69.921 596.303 69.8155 596.793 69.6044C597.283 69.403 597.706 69.1055 598.071 68.7218Z" fill="#1D1B1B"/>
<path fill-rule="evenodd" clip-rule="evenodd" d="M606.806 63.455L604.615 62.6011C604.51 62.7355 604.385 62.8409 604.231 62.8986C604 62.9945 603.741 63.0136 603.491 62.9178C602.991 62.7259 602.742 62.1598 602.934 61.6609C603.126 61.1621 603.693 60.9126 604.193 61.1141C604.606 61.2772 604.846 61.6897 604.808 62.1022L606.527 62.7738L605.048 59.109L603.597 58.4087C603.318 58.7252 602.847 58.8308 602.453 58.6389C601.973 58.4087 601.771 57.8234 602.002 57.3438C602.232 56.864 602.819 56.6626 603.299 56.8928C603.539 57.008 603.712 57.2094 603.789 57.4492C603.847 57.6028 603.856 57.7659 603.827 57.929L604.75 58.3798L603.731 55.8663C603.568 55.8855 603.405 55.8567 603.251 55.7895C603.02 55.6936 602.828 55.5017 602.732 55.2619C602.53 54.763 602.78 54.197 603.28 54.0051C603.779 53.8036 604.346 54.0531 604.538 54.5519C604.702 54.9645 604.558 55.4154 604.231 55.6744L606.037 60.1451L606.566 59.3105C606.451 59.1857 606.383 59.0418 606.345 58.8787C606.287 58.6389 606.326 58.3702 606.47 58.1496C606.758 57.6987 607.354 57.5644 607.805 57.8426C608.257 58.1304 608.392 58.7252 608.113 59.1762C607.882 59.5503 607.431 59.7038 607.017 59.5887L606.287 60.7495L607.69 64.2225L608.574 62.8314C608.459 62.7067 608.392 62.5627 608.353 62.3997C608.295 62.1598 608.334 61.8912 608.478 61.6706C608.766 61.2196 609.362 61.0854 609.814 61.3635C610.265 61.6514 610.4 62.2462 610.121 62.6971C609.89 63.0712 609.439 63.2247 609.026 63.1096L607.94 64.8269L609.266 68.1175H614.387C614.017 67.245 613.652 66.3835 613.292 65.5314L613.291 65.5301C612.978 64.79 612.668 64.057 612.36 63.3303C612.288 63.1606 612.216 62.9891 612.143 62.8156L612.143 62.8146L612.143 62.8134C611.932 62.3109 611.714 61.7923 611.485 61.258C611.178 60.5386 610.87 59.8188 610.573 59.109C610.275 58.3991 609.986 57.7083 609.717 57.0463C609.448 56.3844 609.199 55.78 608.968 55.2235C608.833 54.8877 608.641 54.5232 608.411 54.1394C608.18 53.7557 607.901 53.4103 607.565 53.0937C607.238 52.7771 606.854 52.5181 606.412 52.307C605.97 52.0959 605.47 52 604.904 52H595.843V52.1823C596.102 52.1823 596.371 52.2878 596.65 52.4893C596.929 52.7003 597.198 52.9498 597.457 53.2568C597.716 53.5638 597.957 53.8996 598.187 54.2545C598.235 54.3332 598.282 54.41 598.327 54.485C598.493 54.758 598.645 55.0074 598.773 55.2331L602.79 64.9804C603.116 65.6328 603.491 66.1892 603.933 66.6497C604.375 67.1102 604.884 67.4652 605.48 67.7242C606.076 67.9737 606.787 68.108 607.632 68.108H608.689L606.806 63.455ZM607.729 58.5623C607.748 58.6679 607.738 58.783 607.671 58.8885C607.537 59.0996 607.268 59.1571 607.066 59.0324C606.864 58.8981 606.806 58.6295 606.931 58.428C607.066 58.2265 607.335 58.169 607.537 58.2937C607.642 58.3513 607.7 58.4568 607.729 58.5623ZM609.719 62.0833C609.738 62.1889 609.729 62.304 609.662 62.4096C609.537 62.6111 609.268 62.6782 609.056 62.5535C608.854 62.4192 608.797 62.1505 608.922 61.949C609.056 61.7476 609.325 61.69 609.527 61.8148C609.633 61.8723 609.69 61.9779 609.719 62.0833ZM602.495 57.5748C602.601 57.3638 602.86 57.2678 603.081 57.3734C603.293 57.4789 603.389 57.7475 603.283 57.9586C603.177 58.1697 602.918 58.2656 602.697 58.1601C602.591 58.1121 602.514 58.0162 602.476 57.9106C602.437 57.8052 602.447 57.6804 602.495 57.5748ZM604.011 61.613C603.895 61.565 603.78 61.5745 603.674 61.6226C603.569 61.6705 603.482 61.7473 603.444 61.8624C603.357 62.083 603.473 62.3421 603.694 62.4284C603.915 62.5148 604.174 62.3997 604.261 62.179C604.347 61.9584 604.232 61.7089 604.011 61.613ZM603.493 54.4947C603.609 54.4563 603.724 54.4563 603.83 54.5043C603.926 54.5427 604.012 54.629 604.06 54.7442C604.147 54.9648 604.032 55.2239 603.811 55.3102C603.59 55.3966 603.33 55.2814 603.244 55.0608C603.157 54.8401 603.272 54.5811 603.493 54.4947Z" fill="#1D1B1B"/>
<path d="M631.037 65.8363L631.066 65.8171C631.094 65.7979 631.114 65.7787 631.123 65.7404C631.142 65.6828 631.152 65.6252 631.152 65.5677V55.8972C631.152 55.83 631.142 55.782 631.123 55.7341C631.104 55.6957 631.085 55.6669 631.037 55.6285L631.008 55.6093C630.989 55.5901 630.96 55.571 630.931 55.571C630.845 55.5518 630.797 55.5518 630.768 55.5518H629.49C629.365 55.5518 629.307 55.5614 629.288 55.5614C629.278 55.5614 629.269 55.571 629.269 55.571C629.269 55.571 629.24 55.5997 629.211 55.6765C629.173 55.7628 629.134 55.878 629.077 56.0123L628.654 57.3458L628.318 56.8661C628.173 56.6646 628.01 56.4632 627.818 56.2905C627.626 56.1178 627.414 55.9643 627.184 55.8396C626.953 55.7149 626.684 55.6093 626.405 55.5422C626.127 55.4654 625.81 55.4271 625.483 55.4271C624.743 55.4271 624.042 55.5614 623.398 55.8396C622.754 56.1082 622.187 56.4919 621.707 56.9716C621.226 57.4514 620.852 58.0174 620.573 58.6698C620.294 59.3125 620.16 60.0225 620.16 60.7804C620.16 61.2793 620.227 61.7686 620.352 62.2194C620.477 62.68 620.66 63.1117 620.89 63.505C621.121 63.8983 621.399 64.263 621.716 64.5891C622.034 64.9153 622.399 65.1935 622.793 65.4238C623.187 65.654 623.609 65.8363 624.061 65.961C624.513 66.0858 624.993 66.1529 625.483 66.1529C625.752 66.1529 626.012 66.1241 626.261 66.057C626.511 65.9898 626.751 65.9035 626.972 65.7979C627.193 65.6924 627.395 65.5677 627.578 65.4238C627.76 65.2798 627.933 65.136 628.077 64.9921L628.423 64.6467L628.663 65.4909C628.692 65.5869 628.731 65.6637 628.76 65.75C628.779 65.8075 628.808 65.8459 628.827 65.8843C628.846 65.9035 628.865 65.9227 628.894 65.9323C628.913 65.9418 628.971 65.961 629.077 65.961H630.777C630.806 65.961 630.864 65.961 630.941 65.9418C630.969 65.9323 630.998 65.9227 631.018 65.9035L631.037 65.8363ZM628.231 61.9316C628.077 62.2962 627.866 62.6128 627.597 62.8814C627.328 63.15 627.011 63.3612 626.646 63.5147C626.281 63.6682 625.887 63.7449 625.464 63.7449C625.051 63.7449 624.666 63.6682 624.32 63.505C623.984 63.3516 623.686 63.1309 623.436 62.8622C623.196 62.5936 623.004 62.277 622.879 61.9125C622.754 61.5574 622.687 61.1641 622.687 60.7516C622.687 60.3583 622.754 59.9649 622.879 59.61C623.004 59.2453 623.196 58.9192 623.436 58.6409C623.677 58.3628 623.974 58.1325 624.32 57.9694C624.666 57.8063 625.051 57.7199 625.464 57.7199C625.887 57.7199 626.29 57.8063 626.655 57.9598C627.02 58.1229 627.337 58.3436 627.607 58.6218C627.876 58.9 628.087 59.2262 628.241 59.5907C628.394 59.9554 628.471 60.3487 628.471 60.7516C628.462 61.1833 628.385 61.5767 628.231 61.9316Z" fill="#1D1B1B"/>
<path d="M642.457 66.9105C642.735 66.2486 642.87 65.481 642.87 64.6367V55.8968C642.87 55.8393 642.86 55.7913 642.841 55.7529C642.822 55.7145 642.793 55.6762 642.764 55.657C642.726 55.6282 642.678 55.5994 642.63 55.5802C642.582 55.5611 642.534 55.5515 642.486 55.5515H641.208C641.102 55.5515 641.054 55.5611 641.035 55.5706C640.996 55.5898 640.977 55.5994 640.967 55.609C640.948 55.6378 640.919 55.6762 640.91 55.7241C640.881 55.8009 640.852 55.8872 640.814 55.9832L640.41 57.2495L640.074 56.837C639.911 56.6356 639.728 56.4437 639.545 56.2614C639.363 56.0887 639.151 55.9352 638.93 55.8105C638.709 55.6858 638.46 55.5802 638.191 55.5035C637.922 55.4267 637.624 55.3979 637.297 55.3979C636.567 55.3979 635.885 55.5323 635.26 55.8105C634.635 56.0791 634.097 56.4629 633.646 56.9426C633.194 57.4222 632.829 57.9883 632.579 58.6311C632.32 59.2738 632.195 59.9838 632.195 60.7321C632.195 61.4804 632.32 62.1711 632.579 62.7947C632.829 63.4088 633.194 63.9556 633.636 64.3969C634.088 64.8383 634.635 65.1932 635.25 65.4426C635.875 65.6921 636.557 65.8168 637.297 65.8168C637.614 65.8168 637.893 65.7784 638.133 65.7016C638.373 65.6249 638.585 65.529 638.777 65.4043C638.969 65.2795 639.142 65.1356 639.305 64.9821C639.469 64.8191 639.641 64.6367 639.805 64.4641L640.304 63.9365V64.7807C640.304 64.7902 640.304 64.7902 640.304 64.7998C640.314 64.8286 640.314 64.867 640.314 64.9054V65.0205C640.314 65.174 640.304 65.3275 640.295 65.4714C640.285 65.6249 640.247 65.7784 640.208 65.9128C640.122 66.2101 639.978 66.4692 639.757 66.6994C639.555 66.9105 639.315 67.1023 639.046 67.2463C638.777 67.3902 638.488 67.5053 638.191 67.5821C637.893 67.6589 637.595 67.6971 637.316 67.6971C637.153 67.6971 636.97 67.6876 636.778 67.678C636.567 67.6589 636.355 67.63 636.144 67.5725C635.933 67.5245 635.721 67.4477 635.519 67.3614C635.308 67.2655 635.126 67.1407 634.962 66.9872C634.77 66.8529 634.693 66.8434 634.674 66.8434C634.645 66.8434 634.626 66.8529 634.607 66.8625C634.578 66.8817 634.52 66.9201 634.453 66.9969L633.646 68.1097C633.578 68.2153 633.54 68.3112 633.54 68.3975C633.54 68.4551 633.55 68.5126 633.588 68.5607C633.627 68.6277 633.675 68.6758 633.732 68.7237L633.751 68.7429C633.982 68.9443 634.261 69.1362 634.568 69.2897C634.885 69.4528 635.212 69.5872 635.548 69.6831C635.885 69.7886 636.23 69.8654 636.567 69.9229C636.903 69.9709 637.23 69.9997 637.518 69.9997C638.277 69.9997 638.998 69.8749 639.651 69.6351C640.304 69.3953 640.881 69.0499 641.352 68.5989C641.794 68.1289 642.178 67.5725 642.457 66.9105ZM640.477 60.8951C640.458 61.2886 640.362 61.6627 640.208 62.0081C640.045 62.3439 639.834 62.6508 639.565 62.9003C639.296 63.1497 638.979 63.3512 638.623 63.4951C638.267 63.639 637.883 63.7061 637.48 63.7061C637.066 63.7061 636.682 63.6294 636.346 63.4759C636 63.3224 635.712 63.1114 635.462 62.8427C635.222 62.5741 635.029 62.2575 634.904 61.8929C634.78 61.538 634.712 61.1446 634.712 60.7321C634.712 60.3387 634.78 59.9454 634.904 59.5904C635.029 59.2259 635.222 58.8997 635.462 58.6311C635.702 58.3529 636 58.1322 636.336 57.9691C636.682 57.806 637.066 57.7196 637.48 57.7196C637.883 57.7196 638.267 57.7964 638.633 57.9499C638.988 58.1034 639.305 58.3144 639.565 58.5735C639.824 58.8325 640.045 59.1395 640.208 59.4849C640.372 59.8303 640.458 60.1949 640.477 60.5882V60.5978V60.8951Z" fill="#1D1B1B"/>
<path d="M652.849 56.7327C652.849 56.6463 652.772 56.56 652.618 56.4736L652.589 56.4544C652.34 56.2721 652.109 56.1186 651.907 55.9843C651.705 55.8596 651.504 55.7541 651.302 55.6677C651.1 55.591 650.889 55.5238 650.668 55.4854C650.447 55.4471 650.178 55.4183 649.889 55.4183C649.63 55.4183 649.399 55.4567 649.198 55.5334C648.986 55.6102 648.563 55.8404 648.39 55.9747C647.737 56.4927 647.305 57.1835 647.305 57.1835C647.305 57.1835 646.863 55.9939 646.805 55.8788C646.757 55.7828 646.709 55.6965 646.642 55.6389C646.632 55.6293 646.594 55.591 646.498 55.591H645.2C645.152 55.591 645.095 55.6006 645.037 55.6197C644.989 55.6389 644.941 55.6581 644.903 55.6869C644.874 55.7157 644.845 55.7445 644.826 55.7828C644.806 55.8212 644.797 55.8788 644.797 55.9363V65.5397C644.797 65.8179 644.893 65.9139 645.181 65.9139H647.113C647.266 65.9139 647.382 65.8851 647.43 65.8372C647.497 65.77 647.506 65.6356 647.506 65.5397V59.2462L647.545 59.179C647.67 58.9776 647.795 58.7953 647.92 58.6226C648.054 58.4499 648.198 58.2868 648.352 58.1621C648.515 58.0278 648.698 57.9222 648.9 57.8455C649.102 57.7687 649.332 57.7303 649.592 57.7303C649.957 57.7303 650.293 57.7976 650.581 57.9318C650.85 58.0566 651.119 58.2388 651.379 58.4883C651.465 58.5267 651.542 58.5363 651.609 58.5363C651.696 58.5363 651.811 58.5171 651.946 58.3348L652.724 57.0108C652.839 56.8669 652.849 56.771 652.849 56.7327Z" fill="#1D1B1B"/>
<path d="M662.104 64.5706C662.421 64.2541 662.709 63.8894 662.94 63.4961C663.17 63.1028 663.353 62.671 663.478 62.2105C663.602 61.75 663.67 61.2703 663.67 60.7715C663.67 60.0232 663.526 59.3132 663.247 58.6704C662.969 58.0277 662.584 57.452 662.104 56.9723C661.624 56.4926 661.057 56.1185 660.403 55.8403C659.759 55.5716 659.058 55.4277 658.318 55.4277C657.819 55.4277 657.338 55.4949 656.877 55.6196C656.416 55.7443 655.983 55.9266 655.589 56.1473C655.195 56.3775 654.83 56.6557 654.513 56.9723C654.187 57.2986 653.908 57.6535 653.677 58.0469C653.447 58.4402 653.264 58.8719 653.139 59.3324C653.014 59.7929 652.947 60.2726 652.947 60.7715C652.947 61.2703 653.014 61.75 653.139 62.2105C653.264 62.671 653.447 63.1028 653.677 63.4961C653.908 63.8894 654.187 64.2541 654.513 64.5706C654.83 64.8968 655.195 65.175 655.589 65.4053C655.983 65.6355 656.416 65.8178 656.877 65.9425C657.338 66.0672 657.819 66.1344 658.318 66.1344C658.808 66.1344 659.289 66.0672 659.74 65.9425C660.192 65.8178 660.624 65.6355 661.018 65.4053C661.422 65.1654 661.787 64.8872 662.104 64.5706ZM660.826 61.9132C660.701 62.2777 660.518 62.5943 660.288 62.8629C660.057 63.1315 659.759 63.3523 659.423 63.5057C659.087 63.6592 658.702 63.7456 658.289 63.7456C657.867 63.7456 657.473 63.6688 657.136 63.5057C656.79 63.3523 656.502 63.1315 656.262 62.8629C656.022 62.5943 655.839 62.2777 655.705 61.9132C655.58 61.5581 655.513 61.1648 655.513 60.7523C655.513 60.359 655.58 59.9656 655.705 59.6107C655.83 59.246 656.022 58.9199 656.252 58.6416C656.493 58.3635 656.79 58.1331 657.127 57.9701C657.473 57.807 657.857 57.7206 658.289 57.7206C658.702 57.7206 659.087 57.807 659.423 57.9701C659.759 58.1331 660.047 58.3635 660.288 58.6416C660.518 58.9199 660.701 59.246 660.817 59.6107C660.941 59.9752 660.999 60.3494 660.999 60.7523C661.008 61.1744 660.951 61.5581 660.826 61.9132Z" fill="#1D1B1B"/>
<path d="M670.051 57.9317C670.108 57.8741 670.138 57.7686 670.138 57.6055V55.9457C670.138 55.8114 670.108 55.7155 670.051 55.6675C670.013 55.6292 669.946 55.5812 669.802 55.5812H668.331L668.34 52.9333C668.34 52.7894 668.321 52.6743 668.273 52.5975C668.263 52.5783 668.206 52.5591 668.1 52.5591H668.023H668.014L666.083 53.2307C665.9 53.2979 665.756 53.3746 665.66 53.4418C665.641 53.4514 665.602 53.4897 665.602 53.6145L665.593 55.5908H664.42C664.142 55.5908 664.046 55.6771 664.046 55.9553V57.6151C664.046 57.9605 664.18 58.018 664.42 58.018H665.593L665.602 65.5491C665.602 65.8273 665.689 65.9233 665.977 65.9233H667.918C668.072 65.9233 668.177 65.8945 668.254 65.8273C668.273 65.8082 668.35 65.741 668.35 65.5491L668.34 58.018H669.811C669.946 58.0084 670.013 57.9605 670.051 57.9317Z" fill="#1D1B1B"/>
<path d="M680.472 64.5706C680.788 64.2541 681.077 63.8894 681.307 63.4961C681.538 63.1028 681.721 62.671 681.845 62.2105C681.97 61.75 682.038 61.2703 682.038 60.7715C682.038 60.0232 681.894 59.3132 681.615 58.6704C681.336 58.0277 680.952 57.452 680.472 56.9723C679.991 56.4926 679.424 56.1185 678.771 55.8403C678.127 55.5716 677.426 55.4277 676.686 55.4277C676.186 55.4277 675.706 55.4949 675.244 55.6196C674.783 55.7443 674.35 55.9266 673.957 56.1473C673.563 56.3775 673.198 56.6557 672.881 56.9723C672.554 57.2986 672.276 57.6535 672.044 58.0469C671.814 58.4402 671.632 58.8719 671.506 59.3324C671.382 59.7929 671.315 60.2726 671.315 60.7715C671.315 61.2703 671.382 61.75 671.506 62.2105C671.632 62.671 671.814 63.1028 672.044 63.4961C672.276 63.8894 672.554 64.2541 672.881 64.5706C673.207 64.8968 673.563 65.175 673.957 65.4053C674.35 65.6355 674.783 65.8178 675.244 65.9425C675.706 66.0672 676.186 66.1344 676.686 66.1344C677.176 66.1344 677.656 66.0672 678.108 65.9425C678.559 65.8178 678.992 65.6355 679.386 65.4053C679.789 65.1654 680.144 64.8872 680.472 64.5706ZM679.194 61.9132C679.069 62.2777 678.886 62.5943 678.655 62.8629C678.425 63.1315 678.127 63.3523 677.791 63.5057C677.454 63.6592 677.071 63.7456 676.657 63.7456C676.234 63.7456 675.84 63.6688 675.504 63.5057C675.158 63.3523 674.87 63.1315 674.629 62.8629C674.389 62.5943 674.206 62.2777 674.072 61.9132C673.948 61.5581 673.88 61.1648 673.88 60.7523C673.88 60.359 673.948 59.9656 674.072 59.6107C674.197 59.246 674.389 58.9199 674.62 58.6416C674.86 58.3635 675.158 58.1331 675.494 57.9701C675.84 57.807 676.225 57.7206 676.657 57.7206C677.071 57.7206 677.454 57.807 677.791 57.9701C678.127 58.1331 678.415 58.3635 678.655 58.6416C678.886 58.9199 679.069 59.246 679.184 59.6107C679.309 59.9752 679.367 60.359 679.367 60.7523C679.376 61.1744 679.318 61.5581 679.194 61.9132Z" fill="#1D1B1B"/>
<path d="M690.517 65.5969C690.632 65.76 690.709 65.8368 690.757 65.8848C690.805 65.9232 690.834 65.9232 690.844 65.9232H693.746C693.87 65.9232 693.88 65.8176 693.861 65.7697C693.842 65.7312 693.813 65.6833 693.765 65.6354L689.163 59.716L692.862 55.8113C692.919 55.7441 692.938 55.7154 692.938 55.7058C692.938 55.7058 692.938 55.6962 692.938 55.677C692.938 55.6386 692.929 55.629 692.929 55.629C692.929 55.629 692.891 55.6002 692.756 55.6002H690.114C689.989 55.6002 689.893 55.6482 689.796 55.7537L686.193 59.7448V52.6454C686.193 52.607 686.184 52.5686 686.174 52.5206C686.164 52.4918 686.155 52.4727 686.136 52.4439C686.116 52.4247 686.097 52.4055 686.059 52.3863C686.04 52.3767 686.001 52.3671 685.925 52.3671H683.868C683.695 52.3671 683.609 52.3863 683.57 52.3959C683.522 52.4151 683.503 52.4343 683.503 52.4343C683.493 52.4439 683.493 52.4535 683.484 52.4918C683.475 52.5686 683.475 52.6454 683.475 52.7413V65.6354C683.475 65.6449 683.484 65.6641 683.493 65.6833C683.503 65.7217 683.532 65.7697 683.56 65.8176C683.58 65.856 683.619 65.8944 683.666 65.9232C683.686 65.9327 683.704 65.952 683.763 65.952H685.925C685.982 65.952 686.03 65.9423 686.049 65.9232C686.087 65.8944 686.116 65.8656 686.146 65.8272C686.174 65.7888 686.184 65.7409 686.193 65.7025C686.203 65.6257 686.213 65.5873 686.213 65.5778V62.69L687.49 61.3661L690.517 65.5969Z" fill="#1D1B1B"/>
<path d="M703.579 61.0013C703.589 60.819 703.589 60.5792 703.589 60.2817C703.589 59.85 703.531 59.4279 703.407 59.025C703.281 58.6221 703.109 58.2287 702.888 57.8737C702.667 57.5187 702.397 57.183 702.091 56.876C701.783 56.569 701.436 56.31 701.072 56.0989C700.697 55.8878 700.303 55.7151 699.88 55.5904C699.458 55.4753 699.025 55.4081 698.574 55.4081C698.083 55.4081 697.613 55.4753 697.171 55.6C696.729 55.7247 696.315 55.9166 695.932 56.1469C695.557 56.3771 695.211 56.665 694.903 56.9911C694.595 57.3173 694.336 57.6818 694.115 58.0752C693.904 58.4686 693.731 58.8907 693.616 59.332C693.5 59.7733 693.442 60.2435 693.442 60.7231C693.442 61.481 693.587 62.2005 693.885 62.8433C694.173 63.4956 694.576 64.0617 695.076 64.5414C695.575 65.0211 696.162 65.4048 696.824 65.6735C697.488 65.9421 698.199 66.086 698.939 66.086C699.602 66.086 700.235 65.9613 700.831 65.7215C701.427 65.472 701.975 65.1267 702.446 64.6853L702.474 64.6661C702.541 64.6182 702.59 64.5702 702.638 64.503C702.657 64.4839 702.676 64.4455 702.676 64.3783C702.676 64.3399 702.676 64.3112 702.657 64.2728C702.657 64.2728 702.647 64.244 702.59 64.1769L701.687 63.1599C701.61 63.0832 701.533 63.016 701.475 62.9777C701.446 62.9585 701.427 62.9489 701.408 62.9489C701.379 62.9489 701.36 62.9585 701.341 62.968C701.302 62.9873 701.245 63.0256 701.158 63.1023C701.043 63.2175 700.88 63.3326 700.697 63.4381C700.515 63.5437 700.312 63.63 700.091 63.7068C699.88 63.7835 699.65 63.841 699.42 63.8891C699.189 63.937 698.948 63.9562 698.727 63.9562C698.478 63.9562 698.209 63.9178 697.93 63.8507C697.641 63.7835 697.363 63.6588 697.114 63.4956C696.853 63.3326 696.623 63.1023 696.431 62.8337C696.229 62.5556 696.095 62.2005 696.037 61.7976L695.989 61.4619H702.513C702.849 61.4619 703.109 61.4426 703.272 61.4043C703.349 61.3851 703.455 61.3467 703.502 61.2891C703.551 61.2316 703.579 61.1356 703.579 61.0013ZM695.97 59.6102L696.162 59.1977C696.258 58.9866 696.392 58.7755 696.556 58.5645C696.719 58.363 696.892 58.1712 697.094 58.0081C697.296 57.8449 697.517 57.7106 697.747 57.6147C697.987 57.5092 698.247 57.4612 698.507 57.4612C698.842 57.4612 699.15 57.5092 699.41 57.5955C699.669 57.6818 699.909 57.8162 700.111 57.9793C700.312 58.1328 700.486 58.3247 700.649 58.5357C700.793 58.7372 700.937 58.9578 701.062 59.1881L701.292 59.6102H695.97Z" fill="#1D1B1B"/>
<path d="M712.324 65.8738C712.324 65.8738 712.391 65.9219 712.631 65.9219H714.621C714.698 65.9219 714.803 65.9123 714.851 65.8547C714.899 65.7971 714.927 65.6916 714.927 65.5477V59.9258C714.927 59.3021 714.842 58.7074 714.659 58.1605C714.486 57.6137 714.227 57.134 713.89 56.731C713.564 56.3281 713.15 56.0115 712.679 55.7812C712.209 55.551 711.66 55.4359 711.056 55.4359C710.623 55.4359 710.229 55.4838 709.883 55.5798C709.538 55.6757 709.22 55.7812 708.961 55.9347C707.923 56.5775 707.597 57.5945 707.597 57.5945L707.231 56.069C707.202 55.9923 707.174 55.9155 707.154 55.8484C707.135 55.8004 707.106 55.7525 707.077 55.7141C707.049 55.6853 707.02 55.6565 706.981 55.6373C706.953 55.6181 706.905 55.6085 706.847 55.6085H705.55C705.493 55.6085 705.434 55.6181 705.367 55.6277C705.339 55.6373 705.3 55.6469 705.272 55.6757L705.281 55.6853C705.243 55.7141 705.214 55.7429 705.185 55.7908C705.156 55.8388 705.146 55.8964 705.146 55.9539V65.5573C705.146 65.682 705.176 65.7779 705.233 65.8451C705.281 65.9026 705.396 65.9314 705.55 65.9314H707.491C707.549 65.9314 707.606 65.9219 707.645 65.9123C707.683 65.9026 707.722 65.8835 707.77 65.8547C707.779 65.8451 707.808 65.8259 707.827 65.7684C707.856 65.7012 707.866 65.6437 707.866 65.5765V59.9737C707.885 59.6763 707.971 59.3885 708.115 59.139C708.249 58.8896 708.423 58.6786 708.625 58.4867C708.827 58.3044 709.057 58.1605 709.297 58.0549C709.835 57.8247 710.364 57.8535 710.864 58.0645C711.123 58.1701 711.363 58.3236 711.575 58.5155C711.786 58.7074 711.95 58.928 712.084 59.1774C712.218 59.4365 712.286 59.7147 712.286 60.0025V65.5957C712.286 65.8163 712.324 65.8738 712.324 65.8738Z" fill="#1D1B1B"/>
</g>
<g clip-path="url(#clip1_2601_1176)">
<path d="M196.598 126.353C200.17 126.353 202.542 128.419 202.542 131.349C202.542 134.223 200.17 136.372 196.598 136.372H194.31V141.312H191.324V126.912C191.324 126.605 191.575 126.353 191.882 126.353H196.598ZM196.319 133.888C198.217 133.916 199.473 133.023 199.473 131.377C199.473 129.786 198.217 128.865 196.319 128.865H194.282V133.86L196.319 133.888Z" fill="#1D1B1B"/>
<path d="M211.304 130.177V133.163C211.081 133.079 210.523 133.023 210.216 133.023C209.546 133.023 208.374 133.163 207.369 133.972V141.312H204.607V130.428H207.369V132.298C208.151 131.209 209.49 130.149 210.941 130.149C211.081 130.149 211.221 130.149 211.304 130.177Z" fill="#1D1B1B"/>
<path d="M213.006 127.023C213.006 126.074 213.788 125.377 214.709 125.377C215.685 125.377 216.439 126.074 216.439 127.023C216.439 127.972 215.657 128.67 214.709 128.67C213.788 128.67 213.006 127.972 213.006 127.023ZM213.341 141.312V130.428H216.104V141.312H213.341Z" fill="#1D1B1B"/>
<path d="M235.584 134.446V141.312H232.821V134.726C232.821 133.414 232.096 132.521 231.007 132.521C230.142 132.521 229.333 133.107 228.719 133.972C228.747 134.112 228.747 134.279 228.747 134.446V141.312H225.984V134.726C225.984 133.414 225.258 132.521 224.17 132.521C223.305 132.521 222.496 133.079 221.91 133.944V141.284H219.147V130.4H221.91V131.712C222.663 130.763 223.723 130.121 224.896 130.121C226.403 130.121 227.63 130.819 228.272 132.13C229.054 130.93 230.477 130.121 231.733 130.121C233.993 130.149 235.584 131.74 235.584 134.446Z" fill="#1D1B1B"/>
<path d="M246.578 130.428H249.341V141.312H246.578V140.223C245.741 141.033 244.429 141.563 243.062 141.563C240.16 141.563 237.732 139.358 237.732 135.87C237.732 132.381 240.16 130.177 243.062 130.177C244.457 130.177 245.741 130.707 246.578 131.516V130.428ZM246.578 138.046V133.693C245.797 132.939 244.681 132.465 243.648 132.465C241.946 132.465 240.467 133.749 240.439 135.87C240.467 137.991 241.946 139.274 243.648 139.274C244.681 139.246 245.797 138.8 246.578 138.046Z" fill="#1D1B1B"/>
<path d="M258.998 130.26V133.219C258.775 133.135 258.217 133.079 257.91 133.079C257.24 133.079 256.068 133.219 255.064 134.028V141.367H252.301V130.484H255.064V132.353C255.845 131.265 257.185 130.205 258.636 130.205C258.775 130.232 258.915 130.232 258.998 130.26Z" fill="#1D1B1B"/>
<path d="M270.133 130.484H272.951V130.679L268.57 141.786C267.76 143.823 265.947 145.805 262.849 145.805C262.263 145.805 261.509 145.721 260.951 145.581V143.349C261.537 143.488 262.095 143.572 262.542 143.572C263.937 143.572 264.942 142.679 265.556 141.814L260.728 130.707V130.512H263.602L267.063 138.744L270.133 130.484Z" fill="#1D1B1B"/>
<path d="M184.624 131.572L182.755 128.419C182.587 128.112 182.28 127.916 181.945 127.833C181.61 127.749 181.275 127.805 180.968 127.972C180.662 128.14 180.466 128.446 180.382 128.781C180.299 129.116 180.355 129.451 180.522 129.758L182.42 132.884C182.531 133.051 182.559 133.219 182.559 133.414C182.531 133.637 182.42 133.86 182.252 134.028C182.085 134.167 181.834 134.251 181.61 134.223C181.387 134.195 181.108 134.112 180.941 133.833C180.801 133.609 178.262 127.749 176.922 124.679C176.559 123.73 175.359 122.167 173.182 122.167C170.95 122.167 169.136 123.953 169.136 126.186C169.108 127.219 169.499 127.972 169.666 128.223L174.299 137.042C174.355 137.126 174.382 137.237 174.438 137.293C174.55 137.516 174.634 137.656 174.662 137.963C174.662 138.521 174.187 138.995 173.629 138.995C173.127 138.995 172.736 138.493 172.624 138.186C172.345 137.6 170.252 132.298 170.252 132.242C169.889 131.321 169.303 129.814 167.155 129.814C165.452 129.814 164.113 131.181 164.113 132.828V144.549C164.113 145.246 164.699 145.833 165.396 145.833C166.094 145.833 166.68 145.246 166.68 144.549V132.828C166.68 132.577 166.875 132.381 167.127 132.381H167.182C167.517 132.381 167.685 132.884 167.741 133.051C167.741 133.079 167.768 133.107 167.768 133.107C167.796 133.163 168.215 134.195 168.634 135.284C169.22 136.763 169.889 138.437 170.085 138.912C170.838 140.781 171.871 141.563 173.573 141.563C175.582 141.563 177.201 139.944 177.201 137.935C177.201 137.265 176.81 136.372 176.587 135.898L171.955 127.051L171.871 126.884C171.843 126.828 171.703 126.577 171.703 126.186C171.703 125.377 172.345 124.735 173.155 124.735C174.075 124.735 174.438 125.488 174.494 125.628L178.624 135.033L178.652 135.088C179.21 136.065 180.243 136.707 181.359 136.819C182.28 136.902 183.173 136.595 183.871 136.009C184.568 135.423 185.015 134.586 185.071 133.637C185.182 132.912 185.015 132.186 184.624 131.572Z" fill="#1D1B1B"/>
</g>
<path d="M382.657 143.362H381.211V125.601C381.211 125.041 381.615 124.637 382.175 124.637H382.657V143.362Z" fill="#1D1B1B"/>
<path d="M396.649 130.003H397.132C397.691 130.003 398.096 130.407 398.096 130.967V143.377H396.649V140.485C395.607 142.569 393.523 143.922 390.973 143.922C386.976 143.922 384.083 140.873 384.083 136.721C384.083 132.569 386.961 129.52 390.973 129.52C393.539 129.52 395.607 130.873 396.649 132.957V130.003ZM396.649 136.721C396.649 133.362 394.254 130.873 391.051 130.873C387.769 130.873 385.452 133.362 385.452 136.721C385.452 140.08 387.769 142.569 391.051 142.569C394.254 142.569 396.649 140.08 396.649 136.721Z" fill="#1D1B1B"/>
<path d="M402.02 124.637V132.88C403.062 130.796 405.146 129.521 407.697 129.521C411.693 129.521 414.586 132.569 414.586 136.721C414.586 140.874 411.631 143.922 407.697 143.922C405.13 143.922 403.062 142.569 402.02 140.562V143.362H400.574V125.601C400.574 125.041 400.978 124.637 401.538 124.637H402.02ZM407.541 130.874C404.26 130.874 401.942 133.362 401.942 136.628C401.942 139.987 404.26 142.382 407.541 142.382C410.745 142.382 413.14 139.987 413.14 136.628C413.14 133.362 410.745 130.874 407.541 130.874Z" fill="#1D1B1B"/>
<path d="M415.219 139.039H416.665C416.665 141.123 418.5 142.554 420.989 142.554C423.306 142.554 424.908 141.356 424.908 139.832C424.908 136.068 415.546 138.479 415.546 133.502C415.546 131.185 417.707 129.505 420.507 129.505C423.71 129.505 425.95 131.418 425.95 133.984H424.504C424.504 132.149 422.824 130.858 420.507 130.858C418.5 130.858 416.899 131.978 416.899 133.425C416.899 137.033 426.261 134.778 426.261 139.661C426.261 142.056 424.021 143.829 420.896 143.829C417.614 143.922 415.219 141.838 415.219 139.039Z" fill="#1D1B1B"/>
<path d="M337.353 143.362H332.951V127.203C332.951 125.757 334.071 124.637 335.517 124.637H337.353V143.362Z" fill="#1D1B1B"/>
<path d="M369.61 140.158L373.778 126.55C374.104 125.508 375.131 124.715 376.266 124.715H378.988L372.969 143.362H366.251L360.248 124.637H362.969C364.089 124.637 365.053 125.353 365.364 126.395L369.61 140.158Z" fill="#1D1B1B"/>
<path d="M350 124C343.842 124 339.674 128.075 339.674 134C339.674 139.925 343.842 144 350 144C356.081 144 360.327 139.925 360.327 134C360.327 128.152 356.081 124 350 124ZM350 140.236C346.486 140.236 344.075 137.67 344.075 134C344.075 132.88 344.308 131.838 344.79 130.952C344.79 130.952 344.79 130.952 344.79 130.874C344.79 130.874 344.79 130.874 344.79 130.796C344.79 130.796 344.868 130.719 344.868 130.641C344.868 130.641 344.868 130.563 344.946 130.563C344.946 130.485 345.024 130.485 345.024 130.407C345.506 129.692 346.626 128.323 348.632 128.012H348.71H348.787C349.425 127.935 351.353 127.935 352.224 129.365C352.224 129.365 352.224 129.365 352.224 129.443C352.302 129.521 352.302 129.599 352.302 129.677C352.302 129.677 352.302 129.754 352.38 129.754C353.422 131.994 352.302 135.275 350.934 136.551C350.934 136.551 355.102 134.156 354.93 130.47C355.49 131.434 355.817 132.631 355.817 133.907C355.926 137.686 353.515 140.236 350 140.236Z" fill="#1D1B1B"/>
<g style="mix-blend-mode:luminosity" clip-path="url(#clip2_2601_1176)">
<path d="M551.723 134.075C551.723 135.65 552.136 140.788 557.348 140.788C559.486 140.788 562.086 139.8 562.386 137L562.411 136.763H560.023L559.986 136.938C559.948 137.188 559.848 137.725 559.411 138.188C558.961 138.65 558.311 138.888 557.473 138.888C555.198 138.888 554.048 137.263 554.048 134.05C554.048 132.138 554.498 128.938 557.498 128.938C559.748 128.938 559.986 130.463 560.073 130.963L560.098 131.15L560.286 131.175H562.436L562.411 130.95C562.136 127.375 558.648 127.088 557.586 127.088C552.148 127.088 551.723 132.438 551.723 134.075Z" fill="#1D1B1B"/>
<path d="M569.536 126.938C568.261 126.938 566.448 127.25 565.073 128.738C563.948 129.95 563.348 131.775 563.348 134.025C563.348 138.463 565.498 140.9 569.386 140.9C573.273 140.9 575.561 138.313 575.561 133.813C575.561 129.313 573.361 126.938 569.536 126.938ZM572.136 137.85C571.523 138.575 570.611 138.95 569.448 138.95C568.273 138.95 567.348 138.575 566.761 137.85C566.036 136.95 565.661 135.625 565.661 133.913C565.661 130.563 566.973 128.863 569.561 128.863C572.148 128.863 573.261 130.475 573.261 133.788C573.248 134.8 573.098 136.675 572.136 137.85Z" fill="#1D1B1B"/>
<path d="M587.511 127.275C587.511 127.275 584.298 136.425 583.936 137.463C583.573 136.425 580.436 127.275 580.436 127.275H576.911V140.6H579.073V130.1C579.748 132 582.786 140.6 582.786 140.6H584.786C584.786 140.6 587.973 131.838 588.661 129.988V140.6H590.836V127.275H587.511Z" fill="#1D1B1B"/>
<path d="M599.311 127.275H597.111L591.498 140.6H593.811C593.811 140.6 595.098 137.488 595.198 137.238H600.898C600.998 137.488 602.298 140.6 602.298 140.6H604.711L599.311 127.275ZM595.936 135.363C596.123 134.875 597.786 130.675 598.123 129.85C598.436 130.688 600.011 134.875 600.198 135.363H595.936Z" fill="#1D1B1B"/>
<path d="M605.498 127.275V140.6H607.748V134.738H613.273V132.813H607.748V129.213H613.611V127.275H605.498Z" fill="#1D1B1B"/>
<path d="M617.523 127.275H615.311V140.6H617.523V127.275Z" fill="#1D1B1B"/>
<path d="M493.673 133.825C494.423 133.475 495.461 132.713 495.461 130.938C495.461 129.938 495.136 129.113 494.486 128.475C493.611 127.625 492.661 127.463 491.086 127.463H486.261V140.788H491.173C492.198 140.788 493.261 140.788 494.198 140.163C494.698 139.825 495.848 138.863 495.848 137.05C495.848 134.925 494.573 134.163 493.673 133.825ZM488.423 129.363H490.786C492.048 129.363 493.186 129.5 493.186 131.1C493.186 132.325 492.373 132.925 490.723 132.925H488.423V129.363ZM491.261 138.925H488.423V134.888H491.336C492.723 134.888 493.586 135.663 493.586 136.913C493.586 138.4 492.386 138.925 491.261 138.925Z" fill="#1D1B1B"/>
<path d="M503.799 127.475H501.599L495.999 140.8H498.311C498.311 140.8 499.599 137.688 499.711 137.438H505.386C505.486 137.688 506.774 140.8 506.774 140.8H509.186L503.799 127.475ZM500.436 135.563C500.624 135.075 502.286 130.875 502.624 130.05C502.936 130.888 504.511 135.075 504.699 135.563H500.436Z" fill="#1D1B1B"/>
<path d="M518.648 127.475V137.575C517.948 136.4 512.648 127.475 512.648 127.475H509.823V140.8H511.873V130.413C512.573 131.588 518.098 140.8 518.098 140.8H520.723V127.475H518.648Z" fill="#1D1B1B"/>
<path d="M521.924 134.275C521.924 135.85 522.336 140.988 527.549 140.988C529.686 140.988 532.286 140 532.586 137.2L532.611 136.963H530.224L530.186 137.138C530.149 137.388 530.049 137.925 529.611 138.388C529.161 138.85 528.511 139.088 527.674 139.088C526.111 139.088 524.249 138.25 524.249 134.25C524.249 132.338 524.699 129.138 527.699 129.138C529.949 129.138 530.186 130.663 530.274 131.163L530.299 131.35L530.486 131.375H532.636L532.611 131.15C532.324 127.563 528.836 127.288 527.774 127.288C522.349 127.3 521.936 132.638 521.924 134.275Z" fill="#1D1B1B"/>
<path d="M539.736 127.138C538.461 127.138 536.649 127.45 535.274 128.938C534.149 130.15 533.549 131.975 533.549 134.225C533.549 138.663 535.699 141.1 539.586 141.1C543.474 141.1 545.761 138.513 545.761 134.013C545.761 129.513 543.574 127.138 539.736 127.138ZM542.336 138.05C541.724 138.775 540.811 139.15 539.649 139.15C538.474 139.15 537.536 138.775 536.961 138.05C536.236 137.15 535.861 135.825 535.861 134.113C535.861 130.763 537.174 129.063 539.761 129.063C542.349 129.063 543.461 130.675 543.461 133.988C543.449 135 543.311 136.875 542.336 138.05Z" fill="#1D1B1B"/>
<path d="M634.211 144.138C639.892 144.138 644.498 139.532 644.498 133.85C644.498 128.168 639.892 123.562 634.211 123.562C628.529 123.562 623.923 128.168 623.923 133.85C623.923 139.532 628.529 144.138 634.211 144.138Z" fill="url(#paint0_radial_2601_1176)"/>
<path opacity="0.65" d="M633.886 145.888H634.098C640.423 145.888 645.586 140.788 645.886 134.275H633.886V145.888Z" fill="url(#paint1_radial_2601_1176)"/>
<path opacity="0.65" d="M645.886 133.537C645.761 127.15 640.536 122 634.098 122H633.886V133.537H645.886Z" fill="url(#paint2_radial_2601_1176)"/>
</g>
</g>
<defs>
<radialGradient id="paint0_radial_2601_1176" cx="0" cy="0" r="1" gradientUnits="userSpaceOnUse" gradientTransform="translate(630.367 129.484) scale(17.2951 17.2951)">
<stop stop-color="#ADC46A"/>
<stop offset="0.61" stop-color="#657733"/>
<stop offset="1" stop-color="#384125"/>
</radialGradient>
<radialGradient id="paint1_radial_2601_1176" cx="0" cy="0" r="1" gradientUnits="userSpaceOnUse" gradientTransform="translate(633.496 133.52) scale(13.6331 14.1896)">
<stop stop-color="white"/>
<stop offset="0.14" stop-color="#DFE4D7"/>
<stop offset="0.45" stop-color="#A1AE8B"/>
<stop offset="0.71" stop-color="#728551"/>
<stop offset="0.9" stop-color="#556C31"/>
<stop offset="1" stop-color="#4A642E"/>
</radialGradient>
<radialGradient id="paint2_radial_2601_1176" cx="0" cy="0" r="1" gradientUnits="userSpaceOnUse" gradientTransform="translate(633.618 133.438) scale(13.676)">
<stop stop-color="white"/>
<stop offset="0.14" stop-color="#DFE4D7"/>
<stop offset="0.45" stop-color="#A1AE8B"/>
<stop offset="0.71" stop-color="#728551"/>
<stop offset="0.9" stop-color="#556C31"/>
<stop offset="1" stop-color="#4A642E"/>
</radialGradient>
<clipPath id="clip0_2601_1176">
<rect width="126" height="18" fill="white" transform="translate(589.44 52)"/>
</clipPath>
<clipPath id="clip1_2601_1176">
<rect width="108.837" height="24" fill="white" transform="translate(164.114 122)"/>
</clipPath>
<clipPath id="clip2_2601_1176">
<rect width="159.625" height="24" fill="white" transform="translate(486.261 122)"/>
</clipPath>
</defs>
</svg>
