<svg width="390" height="318" viewBox="0 0 390 318" fill="none" xmlns="http://www.w3.org/2000/svg">
<g opacity="0.5">
<path d="M118.049 43.9224L123.721 46.1552L118.049 48.2673V51.2845L127.764 47.3621V44.9483L118.049 41.0259V43.9224Z" fill="#1D1B1B"/>
<path d="M65.9722 55.1465C63.2567 55.1465 61.2653 56.3534 61.0842 58.8879H64.1015V58.8276C64.1618 57.9828 64.9463 57.3793 65.7911 57.4396C66.9377 57.4396 67.4808 58.1034 67.4808 59.25V59.7931H66.0929C63.136 59.7931 60.7222 60.6983 60.7222 63.5345V63.6552C60.7222 65.9483 62.4118 66.9741 64.4635 66.9741C65.7308 67.0345 66.8773 66.431 67.6015 65.4655V66.7931H70.6791V59.1896C70.6187 56.2931 68.6273 55.1465 65.9722 55.1465ZM65.3084 64.7414C64.2222 64.7414 63.7394 64.1983 63.7394 63.4138V63.2931C63.7394 62.2672 64.5239 61.8448 66.0929 61.8448H67.3601V62.931C67.4204 64.1379 66.3946 64.7414 65.3084 64.7414Z" fill="#1D1B1B"/>
<path d="M77.9196 64.6207C76.411 64.6207 75.6265 63.5948 75.6265 61.3017V60.9396C75.6265 58.7069 76.5317 57.6207 77.9196 57.6207C79.0058 57.6207 79.6093 58.3448 79.7903 59.431H82.8075C82.5662 56.4741 80.3937 55.1465 77.8593 55.1465C74.842 55.1465 72.4282 57.1983 72.4282 61.0603V61.181C72.4282 65.0431 74.7213 66.9741 77.8593 66.9741C80.9368 66.9741 82.6868 65.1034 82.9282 62.569H80.0317C79.7903 63.8362 79.0058 64.6207 77.9196 64.6207Z" fill="#1D1B1B"/>
<path d="M89.6872 64.6207C88.1786 64.6207 87.3941 63.5948 87.3941 61.3017V60.9396C87.3941 58.7069 88.2992 57.6207 89.6872 57.6207C90.7734 57.6207 91.3768 58.3448 91.5579 59.431H94.5751C94.3337 56.4741 92.1613 55.1465 89.6268 55.1465C86.6096 55.1465 84.1958 57.1983 84.1958 61.0603V61.181C84.1958 65.0431 86.4889 66.9741 89.6268 66.9741C92.7044 66.9741 94.4544 65.1034 94.6355 62.569H91.7992C91.6182 63.8362 90.7734 64.6207 89.6872 64.6207Z" fill="#1D1B1B"/>
<path d="M101.575 64.681C100.188 64.681 99.3427 63.8965 99.222 61.8448H106.584V60.5172C106.584 56.7759 104.231 55.1465 101.394 55.1465C98.3168 55.1465 95.9634 57.2586 95.9634 61.0603V61.3017C95.9634 65.1034 98.1961 67.0345 101.455 67.0345C104.412 67.0345 106.222 65.4052 106.524 63.2328H103.567C103.446 64.1379 102.541 64.8017 101.575 64.681ZM101.394 57.319C102.662 57.319 103.446 58.0431 103.506 59.7328H99.2823C99.5237 57.9224 100.429 57.3793 101.394 57.319Z" fill="#1D1B1B"/>
<path d="M115.153 55.1466C113.705 55.0862 112.377 55.8104 111.713 57.0776V55.3879H108.575V66.7328H111.713V59.7931C111.713 59.6724 111.713 59.6121 111.713 59.4914C111.774 58.4655 112.679 57.6207 113.705 57.681C114.851 57.681 115.394 58.2845 115.394 59.6121V66.7328H118.593V59.1293C118.593 56.3535 117.205 55.1466 115.153 55.1466Z" fill="#1D1B1B"/>
<path d="M124.506 63.112V57.7413H126.678V55.3879H124.506V51.9482L121.368 53.2758V55.3879H119.98V57.7413H121.308V63.4741C121.308 65.7672 122.454 66.9138 124.928 66.9138C125.532 66.9138 126.135 66.8534 126.739 66.6724V64.1982C126.377 64.3189 126.014 64.3793 125.652 64.3793C124.928 64.3793 124.506 63.9569 124.506 63.112Z" fill="#1D1B1B"/>
<path d="M135.429 62.4483C135.429 62.569 135.429 62.6293 135.429 62.75C135.368 63.7759 134.463 64.6207 133.437 64.5604C132.291 64.5604 131.808 63.9569 131.808 62.6293V55.3879H128.61V63.0517C128.61 65.7069 130.118 66.9741 132.17 66.9741C133.558 67.0345 134.825 66.3104 135.489 65.0431V66.7328H138.687V55.3879H135.489L135.429 62.4483Z" fill="#1D1B1B"/>
<path d="M144.118 57.4396V55.3276H140.98V66.6724H144.118V60.819C144.118 58.9483 145.386 58.2845 147.558 58.2845V55.1465C145.989 55.1465 144.601 56.0517 144.118 57.4396Z" fill="#1D1B1B"/>
<path d="M159.145 60.4569C159.145 56.7155 156.791 55.1465 153.955 55.1465C150.877 55.1465 148.524 57.2586 148.524 61.0603V61.3017C148.524 65.1034 150.757 67.0345 154.015 67.0345C156.972 67.0345 158.722 65.4052 159.084 63.2328H156.127C155.886 64.1983 154.981 64.8017 154.015 64.7414C152.627 64.7414 151.783 63.9569 151.662 61.9052H159.024V60.4569H159.145ZM151.783 59.7328C152.024 57.8621 152.929 57.319 153.955 57.319C155.222 57.319 156.007 58.0431 156.067 59.7328H151.783Z" fill="#1D1B1B"/>
<g opacity="0.8">
<mask id="mask0_2601_1564" style="mask-type:luminance" maskUnits="userSpaceOnUse" x="321" y="44" width="10" height="10">
<path d="M324.551 50.6967C324.195 50.2297 323.995 49.5403 323.995 48.6729C323.995 47.8056 324.173 47.1162 324.551 46.6491C325.285 45.7818 326.575 45.6928 327.442 46.4267C327.531 46.4935 327.598 46.5824 327.665 46.6491C328.021 47.1162 328.199 47.8056 328.199 48.6729C328.199 49.5403 328.021 50.2297 327.665 50.6967C326.931 51.5641 325.641 51.653 324.774 50.9191C324.685 50.8524 324.618 50.7857 324.551 50.6967ZM322.728 45.3815C321.238 47.3163 321.238 50.0073 322.728 51.9644C323.462 52.8762 324.596 53.3432 326.108 53.3432C327.62 53.3432 328.755 52.8984 329.488 51.9644C330.978 50.0295 330.978 47.3386 329.488 45.3815C328.755 44.4474 327.62 43.9804 326.108 44.0027C324.596 44.0249 323.462 44.4697 322.728 45.3815Z" fill="white"/>
</mask>
<g mask="url(#mask0_2601_1564)">
<path d="M333.936 40.6666H318.28V56.6567H333.936V40.6666Z" fill="#1D1B1B"/>
</g>
<mask id="mask1_2601_1564" style="mask-type:luminance" maskUnits="userSpaceOnUse" x="304" y="44" width="8" height="10">
<path d="M306.866 51.3636C306.621 51.1412 306.51 50.8299 306.532 50.5185C306.51 50.1182 306.71 49.7401 307.066 49.54C307.4 49.3843 307.755 49.2731 308.111 49.2286L308.623 49.1397C308.823 49.0952 309.023 49.0507 309.223 48.984C309.379 48.9173 309.535 48.8505 309.668 48.7616V49.6289C309.646 50.4073 309.446 50.9411 309.023 51.2302C308.623 51.5193 308.156 51.675 307.667 51.675C307.377 51.6527 307.111 51.5638 306.866 51.3636ZM305.198 45.1588C304.798 45.7148 304.575 46.382 304.553 47.0714H306.732C306.777 46.7823 306.888 46.4932 307.066 46.2708C307.288 46.0039 307.667 45.8705 308.223 45.8705C308.601 45.8482 308.979 45.9149 309.334 46.0706C309.601 46.2263 309.735 46.5154 309.713 46.8268C309.713 47.1381 309.512 47.405 309.223 47.4939C308.934 47.6051 308.623 47.6719 308.311 47.6941L307.533 47.783C306.844 47.8498 306.154 48.0277 305.532 48.3613C304.709 48.8505 304.286 49.6289 304.286 50.7187C304.286 51.5638 304.531 52.2087 305.065 52.6535C305.598 53.0983 306.221 53.2984 307.022 53.3429C311.959 53.5653 311.914 50.6964 311.959 50.096V46.76C311.959 45.6925 311.581 44.9809 310.847 44.5806C310.068 44.1803 309.179 43.9801 308.311 44.0023C306.844 44.0023 305.798 44.3804 305.198 45.1588Z" fill="white"/>
</mask>
<g mask="url(#mask1_2601_1564)">
<path d="M315.273 40.6666H300.95V56.6568H315.273V40.6666Z" fill="#1D1B1B"/>
</g>
<mask id="mask2_2601_1564" style="mask-type:luminance" maskUnits="userSpaceOnUse" x="295" y="44" width="9" height="10">
<path d="M296.412 45.248C295.656 46.0931 295.278 47.2718 295.278 48.7841C295.278 50.1185 295.611 51.2082 296.301 52.0533C296.99 52.8984 298.058 53.3209 299.503 53.3209C300.949 53.3209 302.061 52.8094 302.795 51.8087C303.24 51.2304 303.506 50.541 303.573 49.8071H301.171C301.149 50.2074 300.993 50.6077 300.749 50.9413C300.526 51.2304 300.126 51.3861 299.57 51.3861C298.858 51.4306 298.191 50.9636 297.969 50.2964C297.791 49.8071 297.724 49.2734 297.746 48.7396C297.724 48.1836 297.813 47.6277 297.969 47.1161C298.258 46.3378 298.814 45.9597 299.615 45.9597C300.082 45.9152 300.549 46.1154 300.86 46.4934C301.038 46.7603 301.149 47.0717 301.194 47.383H303.618C303.484 46.1154 303.062 45.248 302.328 44.7588C301.594 44.2695 300.682 44.0249 299.548 44.0249C298.213 44.0026 297.168 44.4029 296.412 45.248Z" fill="white"/>
</mask>
<g mask="url(#mask2_2601_1564)">
<path d="M306.933 40.6667H291.944V56.6569H306.933V40.6667Z" fill="#1D1B1B"/>
</g>
<mask id="mask3_2601_1564" style="mask-type:luminance" maskUnits="userSpaceOnUse" x="289" y="44" width="6" height="9">
<path d="M289.948 48.4509V52.9877H292.217V48.74C292.217 48.0506 292.306 47.5391 292.484 47.2055C292.795 46.605 293.395 46.3159 294.307 46.3159C294.374 46.3159 294.463 46.3159 294.574 46.3159C294.685 46.3159 294.819 46.3381 294.952 46.3381V44.003H294.752H294.641C289.659 44.003 289.97 48.4731 289.948 48.4509Z" fill="white"/>
</mask>
<g mask="url(#mask3_2601_1564)">
<path d="M298.268 40.6675H286.614V56.324H298.268V40.6675Z" fill="#1D1B1B"/>
</g>
<mask id="mask4_2601_1564" style="mask-type:luminance" maskUnits="userSpaceOnUse" x="280" y="43" width="9" height="11">
<path d="M283.25 46.4046C283.606 46.0488 284.117 45.8709 284.606 45.8931C285.096 45.8709 285.585 46.0488 285.963 46.3602C286.341 46.716 286.564 47.2275 286.564 47.7612H282.627C282.694 47.2497 282.916 46.7827 283.25 46.4046ZM281.493 45.2259C280.692 46.0488 280.292 47.2053 280.292 48.7398C280.292 50.3633 280.737 51.5419 281.626 52.2536C282.494 52.9653 283.583 53.3433 284.695 53.3433C286.096 53.3433 287.208 52.9208 287.987 52.0534C288.365 51.6754 288.632 51.2306 288.787 50.7191H286.341C286.252 50.8525 286.141 50.9637 286.03 51.0749C285.696 51.3418 285.251 51.4307 284.74 51.4307C284.317 51.453 283.895 51.364 283.517 51.1416C282.938 50.7858 282.627 50.1853 282.583 49.2958H288.943C288.965 48.7175 288.943 48.1393 288.876 47.5388C288.787 46.8939 288.543 46.2712 288.187 45.7152C287.809 45.137 287.297 44.6922 286.675 44.4031C286.03 44.114 285.34 43.9805 284.629 43.9805C283.339 44.0028 282.294 44.4031 281.493 45.2259Z" fill="white"/>
</mask>
<g mask="url(#mask4_2601_1564)">
<path d="M292.279 40.667H276.956V56.6572H292.279V40.667Z" fill="#1D1B1B"/>
</g>
<mask id="mask5_2601_1564" style="mask-type:luminance" maskUnits="userSpaceOnUse" x="266" y="43" width="14" height="11">
<path d="M273.146 45.2039C272.523 44.4256 271.589 43.9808 270.588 44.003C268.387 44.003 266.963 45.6487 266.963 47.806V53.01H269.032V47.7615C269.032 46.8052 269.677 46.138 270.588 46.138C271.945 46.138 272.078 47.2722 272.078 47.7615V53.01H274.147V47.7615C274.147 46.8052 274.814 46.138 275.703 46.138C277.06 46.138 277.216 47.2722 277.216 47.7615V53.01H279.284V47.7837C279.284 45.5598 277.95 43.9808 275.703 43.9808C274.703 43.9808 273.746 44.4256 273.146 45.2039Z" fill="white"/>
</mask>
<g mask="url(#mask5_2601_1564)">
<path d="M282.624 40.6669H263.631V56.3234H282.624V40.6669Z" fill="#1D1B1B"/>
</g>
<mask id="mask6_2601_1564" style="mask-type:luminance" maskUnits="userSpaceOnUse" x="312" y="41" width="10" height="13">
<path d="M315.715 50.7193C315.381 50.1188 315.203 49.4072 315.248 48.7177C315.226 48.0506 315.381 47.4056 315.715 46.8496C316.004 46.3381 316.56 46.049 317.161 46.0935C317.583 46.0935 317.983 46.2269 318.295 46.516C318.828 46.9831 319.095 47.8059 319.095 48.8734C319.118 49.5406 318.94 50.1856 318.606 50.7415C318.295 51.2086 317.739 51.4977 317.161 51.4532C316.56 51.4754 316.004 51.2086 315.715 50.7193ZM319.006 42.9355V45.4041C318.762 45.0038 318.428 44.6702 318.028 44.4478C317.605 44.2031 317.138 44.0919 316.649 44.0919C315.604 44.0697 314.603 44.5367 313.958 45.3818C313.291 46.2492 312.957 47.4723 312.957 48.9624C312.957 50.2523 313.291 51.3198 313.98 52.1426C314.67 52.9655 316.004 53.3213 317.183 53.3213C321.319 53.3213 321.275 49.6963 321.275 49.6963V41.3343C321.275 41.3343 321.164 41.312 321.008 41.312C320.407 41.3343 319.006 41.4899 319.006 42.9355Z" fill="white"/>
</mask>
<g mask="url(#mask6_2601_1564)">
<path d="M324.587 37.9987H309.598V56.6576H324.587V37.9987Z" fill="#1D1B1B"/>
</g>
<mask id="mask7_2601_1564" style="mask-type:luminance" maskUnits="userSpaceOnUse" x="288" y="57" width="10" height="10">
<path d="M291.919 59.9713C292.297 59.6377 292.786 59.4598 293.275 59.482C293.764 59.4598 294.254 59.6377 294.632 59.9491C295.01 60.2826 295.232 60.7719 295.232 61.2834H291.296C291.363 60.7942 291.563 60.3271 291.919 59.9713ZM290.139 58.8371C289.339 59.6155 288.938 60.7497 288.938 62.2175C288.938 63.7742 289.383 64.9085 290.273 65.6201C291.14 66.3095 292.23 66.6876 293.342 66.6654C294.743 66.6654 295.833 66.2428 296.633 65.42C297.011 65.0641 297.278 64.6193 297.434 64.1301H294.988C294.899 64.2635 294.787 64.3747 294.676 64.4859C294.298 64.7528 293.831 64.864 293.364 64.8417C292.942 64.864 292.519 64.775 292.141 64.5526C291.563 64.219 291.274 63.6186 291.229 62.7735H297.59C297.612 62.2175 297.59 61.6392 297.501 61.0833C297.412 60.4606 297.167 59.8601 296.811 59.3263C296.433 58.7704 295.922 58.3478 295.299 58.0809C294.654 57.8141 293.942 57.6806 293.253 57.6806C291.985 57.6584 290.94 58.0587 290.139 58.8371Z" fill="white"/>
</mask>
<g mask="url(#mask7_2601_1564)">
<path d="M300.927 54.3225H285.604V69.9791H300.927V54.3225Z" fill="#1D1B1B"/>
</g>
<mask id="mask8_2601_1564" style="mask-type:luminance" maskUnits="userSpaceOnUse" x="274" y="54" width="9" height="13">
<path d="M277.313 64.0624C276.957 63.5064 276.779 62.8614 276.824 62.1942C276.824 61.1267 277.091 60.3706 277.624 59.9036C277.936 59.6367 278.336 59.481 278.759 59.481C279.337 59.4366 279.893 59.7257 280.204 60.2372C280.538 60.8154 280.693 61.4603 280.671 62.1275C280.693 62.7947 280.538 63.4841 280.204 64.0624C279.893 64.5516 279.359 64.8185 278.781 64.774C278.203 64.8185 277.647 64.5294 277.313 64.0624ZM274.622 56.323V63.0171C274.622 63.0171 274.578 66.6421 278.714 66.6421C279.893 66.6421 281.249 66.2863 281.917 65.4634C282.606 64.6406 282.94 63.5731 282.94 62.2832C282.94 60.7932 282.606 59.6145 281.939 58.7694C281.294 57.9243 280.293 57.4572 279.248 57.4795C278.759 57.4795 278.292 57.5907 277.869 57.8353C277.469 58.0799 277.135 58.4135 276.891 58.8138V54.6773C276.824 54.6773 276.735 54.6773 276.668 54.6773C276.09 54.6773 274.622 54.8107 274.622 56.323Z" fill="white"/>
</mask>
<g mask="url(#mask8_2601_1564)">
<path d="M286.274 51.3192H271.285V69.9781H286.274V51.3192Z" fill="#1D1B1B"/>
</g>
<mask id="mask9_2601_1564" style="mask-type:luminance" maskUnits="userSpaceOnUse" x="283" y="57" width="6" height="10">
<path d="M283.623 61.8163V66.3087H285.892V62.0832C285.892 61.3716 285.981 60.86 286.159 60.5265C286.47 59.926 287.071 59.6369 287.982 59.6369C288.049 59.6369 288.138 59.6369 288.249 59.6369C288.36 59.6369 288.494 59.6591 288.627 59.6591V57.3462L288.427 57.324H288.316C283.334 57.324 283.623 61.8386 283.623 61.8163Z" fill="white"/>
</mask>
<g mask="url(#mask9_2601_1564)">
<path d="M291.942 53.988H280.288V69.6446H291.942V53.988Z" fill="#1D1B1B"/>
</g>
<mask id="mask10_2601_1564" style="mask-type:luminance" maskUnits="userSpaceOnUse" x="266" y="54" width="3" height="13">
<path d="M266.963 56.3014V66.3314H268.965V54.678H268.92C268.609 54.6557 266.963 54.7224 266.963 56.3014Z" fill="white"/>
</mask>
<g mask="url(#mask10_2601_1564)">
<path d="M272.282 51.3197H263.631V69.645H272.282V51.3197Z" fill="#1D1B1B"/>
</g>
<path d="M272.954 54.6556H270.619V56.9907H272.954V54.6556Z" fill="#1D1B1B"/>
<path d="M272.954 57.6577H270.619V66.3311H272.954V57.6577Z" fill="#1D1B1B"/>
<mask id="mask11_2601_1564" style="mask-type:luminance" maskUnits="userSpaceOnUse" x="220" y="40" width="41" height="28">
<path d="M240.637 40C229.495 40.0222 220.488 46.0047 220.532 53.2992V54.0776C220.555 61.8169 228.45 68.0662 240.726 67.9995C253.069 67.9772 260.853 61.6612 260.853 53.9441C260.83 53.6773 260.853 53.5216 260.853 53.1658C260.808 45.9157 251.823 40 240.726 40H240.637V40Z" fill="white"/>
</mask>
<g mask="url(#mask11_2601_1564)">
<path d="M264.167 36.6858H217.175V71.3571H264.167V36.6858Z" fill="#1D1B1B"/>
</g>
<mask id="mask12_2601_1564" style="mask-type:luminance" maskUnits="userSpaceOnUse" x="221" y="40" width="39" height="26">
<path d="M240.641 40.7115C230.032 40.7337 221.448 46.3825 221.47 53.3213C221.492 60.26 230.099 65.8643 240.707 65.8198C251.316 65.7753 259.9 60.1488 259.878 53.2101C259.856 46.2713 251.293 40.7115 240.73 40.7115H240.641Z" fill="white"/>
</mask>
<g mask="url(#mask12_2601_1564)">
<path d="M263.212 37.3758H218.133V69.156H263.212V37.3758Z" fill="white"/>
</g>
<mask id="mask13_2601_1564" style="mask-type:luminance" maskUnits="userSpaceOnUse" x="221" y="44" width="39" height="18">
<path d="M231.496 54.7001C230.739 54.7223 230.161 55.3673 230.183 56.1234C230.206 56.8351 230.784 57.3911 231.496 57.4355C231.851 57.4355 232.185 57.2799 232.43 57.0352C232.452 57.0352 232.452 57.0575 232.43 57.0797C232.363 57.4133 232.274 58.6365 233.542 59.1257C233.986 59.3036 234.498 59.2147 234.854 58.9033C234.965 58.8144 234.987 58.8589 234.965 58.9701C234.92 59.2814 234.987 59.9708 235.921 60.3267C236.411 60.5491 236.989 60.4379 237.345 60.0598C237.478 59.9486 237.5 59.9708 237.523 60.1487C237.545 61.0828 238.323 61.8167 239.257 61.7945C240.191 61.7722 240.925 60.9938 240.903 60.0598C240.881 59.1257 240.125 58.3696 239.19 58.3696C238.812 58.3696 238.39 58.592 238.323 58.5697C238.323 58.4808 238.345 58.3918 238.39 58.3029C238.434 58.2139 238.924 56.6794 237.7 56.1679C236.744 55.7676 236.166 56.2346 235.988 56.4125C235.921 56.4792 235.899 56.457 235.899 56.3903C235.877 55.8121 235.499 55.3005 234.943 55.1226C234.142 54.878 233.297 55.1893 232.83 55.8788C232.763 55.2116 232.185 54.7001 231.518 54.7001H231.496V54.7001ZM221.421 51.7645C221.777 51.8757 222.333 52.0313 222.578 52.0758C228.093 53.299 229.828 54.5444 230.117 54.8113C230.45 54.411 230.962 54.1886 231.473 54.1886C232.074 54.1886 232.63 54.4777 232.963 54.967C233.341 54.6556 233.809 54.4999 234.276 54.4999C234.542 54.4999 234.809 54.5444 235.076 54.6334C235.588 54.7668 235.988 55.1449 236.188 55.6341C236.433 55.5229 236.7 55.4785 236.967 55.4785C237.278 55.4785 237.589 55.5452 237.878 55.6786C238.901 56.1012 239.057 57.1242 238.968 57.8803C239.035 57.8803 239.102 57.8803 239.168 57.8803C240.369 57.8803 241.348 58.8589 241.348 60.0598C241.348 60.4156 241.259 60.7714 241.081 61.105C241.414 61.283 242.237 61.7055 242.971 61.6166C243.549 61.5498 243.794 61.3274 243.861 61.2162C243.927 61.105 243.972 61.0383 243.927 60.9938L242.371 59.2592C242.371 59.2592 242.126 59.0145 242.193 58.9256C242.282 58.8366 242.437 58.9701 242.549 59.059C243.327 59.7262 244.306 60.727 244.306 60.727C244.306 60.727 244.394 60.8826 244.75 60.9271C245.173 60.9938 245.618 60.9049 245.996 60.638C246.085 60.5491 246.196 60.4601 246.263 60.3711L246.24 60.3934C246.641 59.8819 246.196 59.3704 246.196 59.3704L244.372 57.3243C244.372 57.3243 244.128 57.0797 244.194 56.9907C244.283 56.9018 244.439 57.0352 244.55 57.1242C245.128 57.5912 245.951 58.4141 246.707 59.1702C246.863 59.2814 247.553 59.704 248.442 59.1035C248.976 58.7477 249.109 58.3029 249.087 57.947C249.043 57.6579 248.909 57.3911 248.709 57.1909L246.218 54.7001C246.218 54.7001 245.974 54.4777 246.04 54.3665C246.129 54.2553 246.285 54.411 246.396 54.4999C247.174 55.1671 249.332 57.1242 249.332 57.1242C249.843 57.4578 250.51 57.4355 251.022 57.0797C251.333 56.9018 251.556 56.5682 251.578 56.1901C251.6 55.812 251.444 55.434 251.155 55.1671C251.089 55.1004 244.862 49.674 243.46 48.6065C242.638 48.006 242.193 47.8503 241.704 47.7836C241.414 47.7614 241.148 47.7836 240.858 47.8503C240.213 48.0282 239.346 48.6065 238.59 49.2069C237.789 49.8519 237.078 50.4301 236.388 50.5858C235.499 50.7859 234.431 50.5413 233.942 50.2077C233.764 50.0965 233.631 49.9408 233.542 49.7629C233.364 49.3404 233.697 49.0068 233.742 48.9401L235.454 47.072C235.654 46.8718 235.855 46.6716 236.055 46.4715C235.521 46.5604 235.009 46.6716 234.498 46.8273C233.92 47.0275 233.297 47.1387 232.674 47.1609C232.052 47.0942 231.429 47.0052 230.806 46.8718C229.094 46.427 227.448 45.8488 225.847 45.1149C223.489 46.9608 221.866 49.2514 221.421 51.7645ZM241.414 44.8035C238.501 44.8925 237.233 46.1379 235.921 47.4945L234.231 49.3404C234.231 49.3626 234.031 49.5628 234.142 49.7184C234.431 50.1188 235.388 50.3411 236.344 50.1188C236.9 49.9853 237.634 49.4071 238.345 48.8289C239.124 48.2062 239.858 47.6057 240.636 47.3611C241.17 47.1609 241.77 47.1387 242.304 47.3166C242.86 47.5167 243.371 47.8281 243.816 48.2062C245.151 49.2069 250.488 53.8772 251.422 54.6556C254.158 53.4547 257.027 52.5206 259.94 51.8757C259.54 49.4738 258.072 47.2943 255.87 45.5152C252.801 46.8273 249.043 47.5167 245.373 45.7153C245.351 45.7153 243.46 44.8258 241.548 44.8258L241.414 44.8035Z" fill="white"/>
</mask>
<g mask="url(#mask13_2601_1564)">
<path d="M263.276 41.4675H218.086V65.108H263.276V41.4675Z" fill="white"/>
</g>
<mask id="mask14_2601_1564" style="mask-type:luminance" maskUnits="userSpaceOnUse" x="221" y="44" width="39" height="19">
<path d="M230.294 56.1231C230.272 55.4559 230.806 54.8777 231.473 54.8777C232.118 54.8554 232.652 55.3447 232.718 55.9674L232.763 56.301L232.941 56.0341C233.274 55.5449 233.808 55.2558 234.386 55.2335C234.564 55.2335 234.742 55.2557 234.92 55.3002C235.432 55.4559 235.765 55.9229 235.788 56.4567C235.81 56.6346 235.921 56.6346 235.943 56.6346C235.988 56.6346 236.054 56.6124 236.099 56.5679C236.321 56.3232 236.655 56.1898 236.988 56.1676C237.211 56.1676 237.455 56.2343 237.656 56.3232C238.812 56.8125 238.301 58.3026 238.301 58.3248C238.189 58.5694 238.189 58.6806 238.278 58.7473L238.323 58.7696H238.367C238.434 58.7473 238.523 58.7251 238.59 58.7029C238.79 58.6139 239.012 58.5694 239.212 58.5694C240.08 58.5694 240.769 59.2589 240.769 60.1262C240.769 60.9935 240.08 61.683 239.212 61.683C238.367 61.683 237.656 61.0158 237.611 60.1707C237.611 60.104 237.611 59.9038 237.433 59.9038C237.367 59.9038 237.3 59.9483 237.255 60.015C237.055 60.2374 236.788 60.3708 236.477 60.3708C236.299 60.3708 236.121 60.3263 235.965 60.2596C235.054 59.8816 235.054 59.2811 235.098 59.0365C235.12 58.9697 235.12 58.903 235.076 58.8585L235.009 58.8141H234.965C234.92 58.8141 234.853 58.8363 234.831 58.8808C234.609 59.0587 234.342 59.1699 234.053 59.1699C233.919 59.1699 233.764 59.1477 233.63 59.0809C232.452 58.6139 232.541 57.5019 232.607 57.1461C232.607 57.0794 232.607 57.0127 232.563 56.9904L232.474 56.9237L232.385 57.0127C232.162 57.2351 231.851 57.3685 231.54 57.3463C230.85 57.324 230.317 56.7903 230.294 56.1231ZM241.592 44.1583H241.414C238.99 44.225 237.633 45.0923 236.722 45.8262C235.921 45.8707 235.143 46.0264 234.386 46.2488C233.853 46.4267 233.297 46.5379 232.741 46.5601C232.629 46.5601 232.474 46.5601 232.34 46.5601H232.096C231.518 46.5379 228.537 45.8262 226.18 44.9366C225.935 45.1146 225.691 45.2925 225.468 45.4704C227.937 46.4712 230.962 47.2495 231.896 47.294L232.718 47.3385C233.363 47.294 233.986 47.1828 234.587 46.9827C234.965 46.8715 235.365 46.7603 235.765 46.6936C235.654 46.8048 235.543 46.916 235.432 47.0272L233.719 48.873C233.586 49.0065 233.274 49.3845 233.475 49.8293C233.586 50.0295 233.719 50.2074 233.919 50.3186C234.475 50.6299 235.098 50.7856 235.743 50.7856C235.988 50.7856 236.232 50.7634 236.477 50.7189C237.189 50.5632 237.945 49.9405 238.745 49.3178C239.368 48.8063 240.28 48.1614 240.969 47.9612C241.169 47.9167 241.392 47.8723 241.592 47.8723C241.659 47.8723 241.703 47.8723 241.77 47.8945C242.237 47.9612 242.682 48.1169 243.46 48.6951C244.861 49.7626 251.11 55.189 251.155 55.2335C251.4 55.4781 251.533 55.8117 251.533 56.1453C251.511 56.4789 251.333 56.768 251.044 56.946C250.799 57.1016 250.51 57.1906 250.221 57.2128C249.976 57.2128 249.709 57.1461 249.509 57.0127C249.487 56.9904 247.352 55.0334 246.551 54.3884C246.44 54.2995 246.329 54.2327 246.196 54.1883C246.129 54.1883 246.062 54.2105 246.018 54.2772C245.884 54.4329 246.04 54.633 246.196 54.7887L248.686 57.2795C248.864 57.4575 248.998 57.7021 249.042 57.9467C249.064 58.3693 248.864 58.7029 248.442 58.992C248.175 59.1921 247.864 59.2811 247.552 59.2811C247.308 59.2811 247.041 59.1921 246.841 59.0587L246.485 58.7029C245.817 58.0579 245.15 57.3907 244.661 56.9682C244.55 56.857 244.416 56.7903 244.283 56.7903C244.216 56.7903 244.172 56.8125 244.127 56.857C244.061 56.9237 244.016 57.0349 244.172 57.2128C244.216 57.2573 244.261 57.324 244.305 57.3685L246.129 59.4145C246.351 59.6592 246.373 60.015 246.173 60.2819L246.107 60.3708L245.951 60.5487C245.684 60.7489 245.373 60.8379 245.061 60.8379C244.972 60.8379 244.883 60.8379 244.817 60.8156C244.683 60.7934 244.572 60.7489 244.461 60.6822L244.439 60.6599C244.327 60.5487 243.416 59.6147 242.659 58.992C242.571 58.903 242.437 58.8363 242.304 58.8141C242.237 58.8141 242.17 58.8363 242.126 58.8808C241.97 59.0587 242.192 59.3033 242.304 59.3923L243.86 61.1047C243.86 61.127 243.838 61.1492 243.794 61.2159C243.749 61.2826 243.549 61.4606 242.993 61.5718C242.926 61.5718 242.837 61.594 242.771 61.594C242.237 61.5718 241.725 61.4161 241.258 61.1492C241.414 60.8379 241.481 60.5043 241.481 60.1484C241.481 58.8808 240.48 57.8578 239.212 57.8355H239.19H239.101C239.146 57.2573 239.057 56.1453 237.922 55.6561C237.611 55.5226 237.278 55.4559 236.944 55.4337C236.699 55.4337 236.455 55.4781 236.232 55.5671C236.01 55.1001 235.587 54.7665 235.098 54.6108C234.831 54.5219 234.564 54.4774 234.275 54.4774C233.808 54.4774 233.363 54.633 232.985 54.8999C232.607 54.4329 232.051 54.166 231.473 54.166C230.962 54.166 230.45 54.3884 230.094 54.7442C229.605 54.3662 227.692 53.1652 222.555 52.0088C222.31 51.9421 221.732 51.7864 221.399 51.6974C221.332 51.9643 221.31 52.2534 221.265 52.5425C221.265 52.5425 222.221 52.7649 222.399 52.8094C227.648 53.9659 229.36 55.1668 229.649 55.3892C229.56 55.6338 229.494 55.8785 229.494 56.1453C229.516 57.2573 230.428 58.1246 231.54 58.1024C231.629 58.1024 231.718 58.1024 231.807 58.0802C231.962 58.8808 232.541 59.5257 233.297 59.7926C233.519 59.8816 233.764 59.926 233.986 59.926C234.142 59.926 234.275 59.9038 234.431 59.8816C234.653 60.4153 235.098 60.8379 235.632 61.0158C235.876 61.127 236.143 61.1714 236.41 61.1714C236.61 61.1714 236.833 61.127 237.011 61.0603C237.367 61.9276 238.212 62.4836 239.146 62.4836C239.768 62.4836 240.369 62.2167 240.791 61.7719C241.392 62.1055 242.059 62.3057 242.748 62.3501C242.837 62.3501 242.949 62.3501 243.038 62.3279C243.838 62.2389 244.194 61.9053 244.35 61.683C244.372 61.6385 244.416 61.594 244.439 61.5495C244.639 61.6162 244.861 61.6607 245.061 61.6385C245.528 61.6162 245.951 61.4606 246.307 61.1714C246.685 60.9268 246.952 60.5265 247.041 60.0817V60.0595C247.174 60.0817 247.308 60.1039 247.463 60.1039C247.93 60.1039 248.375 59.9483 248.753 59.6814C249.576 59.1477 249.709 58.4582 249.687 58.0134C249.821 58.0357 249.976 58.0579 250.11 58.0579C250.532 58.0357 250.955 57.9245 251.333 57.6799C251.822 57.3685 252.134 56.857 252.178 56.301C252.2 55.9229 252.111 55.5226 251.911 55.189C254.535 54.1215 257.226 53.2542 259.962 52.6315C259.94 52.3646 259.895 52.0533 259.851 51.7864C256.959 52.4313 254.135 53.3432 251.444 54.5441C249.531 52.8761 245.084 49.0287 243.883 48.1391C243.416 47.7388 242.904 47.4497 242.326 47.2273C242.081 47.1384 241.837 47.1161 241.57 47.1161C241.236 47.1161 240.925 47.1828 240.613 47.2718C239.835 47.5164 239.057 48.1391 238.323 48.7396L238.278 48.7618C237.589 49.3178 236.855 49.896 236.321 50.0072C236.077 50.0517 235.832 50.0962 235.587 50.0962C234.987 50.0962 234.431 49.9183 234.209 49.6736C234.164 49.6292 234.186 49.5625 234.275 49.4513L234.297 49.429L235.988 47.6054C237.3 46.2933 238.545 45.0256 241.414 44.9589H241.57C243.349 44.9589 245.15 45.7595 245.35 45.8262C246.952 46.6268 248.709 47.0494 250.488 47.0494C252.289 47.0494 254.157 46.5824 256.137 45.6705C255.914 45.4926 255.692 45.2925 255.447 45.1368C253.89 45.8485 252.2 46.2488 250.488 46.271C248.82 46.2488 247.174 45.8707 245.662 45.1368C245.573 45.0923 243.616 44.1805 241.57 44.1805L241.592 44.1583Z" fill="white"/>
</mask>
<g mask="url(#mask14_2601_1564)">
<path d="M263.392 40.8223H217.957V65.775H263.392V40.8223Z" fill="#1D1B1B"/>
</g>
</g>
<g opacity="0.8">
<path d="M69.0658 119.004L68.4393 113.843C67.7446 113.924 66.7978 114.125 66.1101 114.339L67.639 119.305C68.0995 119.166 68.5795 119.065 69.0658 119.004Z" fill="#1D1B1B"/>
<path d="M57.4592 122.132C57.1815 122.774 56.8825 123.695 56.7236 124.397L61.7894 125.556C61.8994 125.081 62.0512 124.614 62.2393 124.169L57.4592 122.132Z" fill="#1D1B1B"/>
<path d="M60.7411 137.555L64.2789 133.746C63.9204 133.41 63.5921 133.048 63.3019 132.664L59.1475 135.785C59.5627 136.346 60.2114 137.065 60.7411 137.555Z" fill="#1D1B1B"/>
<path d="M71.1885 135.989L71.8149 141.15C72.5097 141.069 73.4565 140.868 74.1442 140.654L72.6153 135.687C72.1548 135.828 71.6756 135.929 71.1885 135.989Z" fill="#1D1B1B"/>
<path d="M82.7952 132.862C83.0729 132.22 83.3719 131.299 83.5308 130.597L78.465 129.438C78.3541 129.914 78.2033 130.379 78.0151 130.825L82.7952 132.862Z" fill="#1D1B1B"/>
<path d="M79.5136 117.439L75.9758 121.249C76.3343 121.583 76.6626 121.947 76.9537 122.33L81.1082 119.21C80.6902 118.647 80.0416 117.927 79.5136 117.439Z" fill="#1D1B1B"/>
<path d="M63.3012 122.333C63.5975 121.942 63.925 121.577 64.2755 121.249L62.8504 119.716L60.105 116.8C59.4928 117.373 58.9284 118.001 58.4253 118.666L59.396 119.404L63.3012 122.333Z" fill="#1D1B1B"/>
<path d="M56.6254 133.216L57.7737 132.734L62.2396 130.828C62.0532 130.387 61.9033 129.921 61.7915 129.441L59.7488 129.909L55.8481 130.828C56.0371 131.641 56.298 132.444 56.6254 133.216Z" fill="#1D1B1B"/>
<path d="M67.6419 135.691L67.0101 137.747L65.8726 141.53C66.6712 141.772 67.4973 141.946 68.3296 142.047L68.4911 140.781L69.0696 135.992C68.5798 135.93 68.0998 135.829 67.6419 135.691Z" fill="#1D1B1B"/>
<path d="M76.954 132.661C76.6585 133.051 76.3311 133.416 75.9797 133.745L77.4323 135.308L80.1502 138.195C80.7616 137.622 81.3268 136.994 81.8299 136.329L80.8352 135.573L76.954 132.661Z" fill="#1D1B1B"/>
<path d="M83.6293 121.778L82.482 122.259L78.0151 124.165C78.2015 124.607 78.3523 125.073 78.4632 125.553L80.568 125.07L84.4075 124.165C84.2185 123.352 83.9567 122.549 83.6293 121.778Z" fill="#1D1B1B"/>
<path d="M72.6126 119.303L73.2355 117.277L74.382 113.464C73.5834 113.223 72.7573 113.048 71.9249 112.947L71.7714 114.155L71.1858 119.003C71.6738 119.062 72.1539 119.164 72.6126 119.303Z" fill="#1D1B1B"/>
<path d="M63.3012 122.333C63.5975 121.942 63.925 121.577 64.2755 121.249L62.8504 119.716L60.105 116.8C59.4928 117.373 58.9284 118.001 58.4253 118.666L59.396 119.404L63.3012 122.333Z" fill="#1D1B1B"/>
<path d="M56.6254 133.216L57.7737 132.734L62.2396 130.828C62.0532 130.387 61.9033 129.921 61.7915 129.441L59.7488 129.909L55.8481 130.828C56.0371 131.641 56.298 132.444 56.6254 133.216Z" fill="#1D1B1B"/>
<path d="M67.6419 135.691L67.0101 137.747L65.8726 141.53C66.6712 141.772 67.4973 141.946 68.3296 142.047L68.4911 140.781L69.0696 135.992C68.5798 135.93 68.0998 135.829 67.6419 135.691Z" fill="#1D1B1B"/>
<path d="M76.954 132.661C76.6585 133.051 76.3311 133.416 75.9797 133.745L77.4323 135.308L80.1502 138.195C80.7616 137.622 81.3268 136.994 81.8299 136.329L80.8352 135.573L76.954 132.661Z" fill="#1D1B1B"/>
<path d="M83.6293 121.778L82.482 122.259L78.0151 124.165C78.2015 124.607 78.3523 125.073 78.4632 125.553L80.568 125.07L84.4075 124.165C84.2185 123.352 83.9567 122.549 83.6293 121.778Z" fill="#1D1B1B"/>
<path d="M72.6126 119.303L73.2355 117.277L74.382 113.464C73.5834 113.223 72.7573 113.048 71.9249 112.947L71.7714 114.155L71.1858 119.003C71.6738 119.062 72.1539 119.164 72.6126 119.303Z" fill="#1D1B1B"/>
<path d="M64.8918 112.315C64.0134 112.618 63.1553 112.999 62.3425 113.45L65.0826 118.37C65.6017 118.082 66.1483 117.836 66.7171 117.639L64.8918 112.315Z" fill="#1D1B1B"/>
<path d="M54.3607 124.44C54.185 125.348 54.0883 126.282 54.0732 127.216L59.7238 127.303C59.7344 126.697 59.7956 126.103 59.9057 125.526L54.3607 124.44Z" fill="#1D1B1B"/>
<path d="M59.5999 139.619C60.3044 140.23 61.0631 140.782 61.8563 141.261L64.7606 136.406C64.2486 136.097 63.7659 135.746 63.3169 135.356L59.5999 139.619Z" fill="#1D1B1B"/>
<path d="M75.3634 142.679C76.2419 142.376 77.099 141.995 77.9127 141.544L75.1593 136.6C74.6411 136.886 74.0963 137.13 73.5293 137.327L75.3634 142.679Z" fill="#1D1B1B"/>
<path d="M85.8951 130.554C86.0708 129.646 86.1675 128.712 86.1826 127.778L80.5312 127.691C80.5197 128.297 80.4558 128.89 80.344 129.467L85.8951 130.554Z" fill="#1D1B1B"/>
<path d="M80.6553 115.375C79.9508 114.763 79.1921 114.211 78.3988 113.733L75.5088 118.565C76.0208 118.876 76.5044 119.229 76.9542 119.62L80.6553 115.375Z" fill="#1D1B1B"/>
<path d="M61.8497 113.735C61.0529 114.215 60.2943 114.767 59.5933 115.377L63.2988 119.622C63.7477 119.231 64.2313 118.877 64.7433 118.566L61.8497 113.735Z" fill="#1D1B1B"/>
<path d="M54.0745 127.785C54.0833 128.256 54.1117 128.724 54.1596 129.175C54.2076 129.629 54.2768 130.094 54.3673 130.559L59.9131 129.47C59.8013 128.893 59.7374 128.3 59.725 127.693L54.0745 127.785Z" fill="#1D1B1B"/>
<path d="M62.3491 141.545C63.161 141.995 64.0182 142.378 64.8984 142.681L66.7299 137.328C66.1629 137.132 65.6172 136.888 65.099 136.601L62.3491 141.545Z" fill="#1D1B1B"/>
<path d="M78.4058 141.258C79.2027 140.778 79.9613 140.225 80.6623 139.616L76.9417 135.353C76.4927 135.742 76.01 136.094 75.498 136.403L78.4058 141.258Z" fill="#1D1B1B"/>
<path d="M86.1815 127.209C86.1726 126.738 86.1442 126.27 86.0963 125.818C86.0484 125.365 85.9791 124.9 85.8886 124.434L80.3481 125.523C80.4582 126.1 80.5203 126.693 80.53 127.3L86.1815 127.209Z" fill="#1D1B1B"/>
<path d="M75.2126 118.29L77.9057 113.449C77.0929 112.998 76.2357 112.616 75.3564 112.312L73.5347 117.638C74.1034 117.835 74.6492 118.08 75.1682 118.368L75.2126 118.29Z" fill="#1D1B1B"/>
<path d="M56.9699 118.294C56.4366 119.055 55.9672 119.868 55.5732 120.709L60.6914 123.084C60.9443 122.54 61.2433 122.022 61.5831 121.534L56.9699 118.294Z" fill="#1D1B1B"/>
<path d="M55.5745 134.292C55.9658 135.13 56.4361 135.943 56.972 136.707L61.6003 133.452C61.2596 132.966 60.9597 132.45 60.705 131.907L55.5745 134.292Z" fill="#1D1B1B"/>
<path d="M83.2841 136.7C83.8174 135.939 84.2868 135.126 84.6807 134.284L79.5502 131.904C79.2955 132.446 78.9956 132.962 78.6558 133.449L83.2841 136.7Z" fill="#1D1B1B"/>
<path d="M84.6794 120.702C84.2881 119.863 83.8178 119.051 83.2818 118.287L78.6677 121.531C79.0076 122.019 79.3066 122.536 79.5604 123.08L84.6794 120.702Z" fill="#1D1B1B"/>
<path d="M71.0207 117.105L71.5194 111.499C71.066 111.46 70.6055 111.44 70.1494 111.44C69.6782 111.44 69.2008 111.461 68.7288 111.502L69.2301 117.105C69.5256 117.08 69.8246 117.066 70.1272 117.066C70.4289 117.067 70.727 117.08 71.0207 117.105Z" fill="#1D1B1B"/>
<path d="M69.2373 137.858L68.7368 143.493C69.2089 143.534 69.6792 143.554 70.1361 143.554C70.5904 143.554 71.059 143.534 71.5284 143.493L71.0226 137.857C70.728 137.882 70.4298 137.896 70.1281 137.896C69.8282 137.896 69.531 137.883 69.2373 137.858Z" fill="#1D1B1B"/>
<path d="M103.685 127.064C105.02 127.457 106.179 128.555 106.179 130.381C106.179 132.501 104.667 134.386 101.252 134.386H95.3428V120.645H101.271C103.744 120.645 105.451 122.314 105.451 124.218C105.451 125.749 104.431 126.711 103.685 126.986V127.064H103.685ZM100.643 126.082C101.545 126.082 102.134 125.531 102.134 124.727C102.134 123.962 101.566 123.372 100.623 123.372H98.6401V126.082H100.643ZM100.957 131.657C102.095 131.657 102.704 131.009 102.704 130.086C102.704 129.105 102.036 128.515 100.957 128.515H98.6401V131.657H100.957Z" fill="#1D1B1B"/>
<path d="M114.499 134.383H111.201V128.966L106.077 120.643H109.886L112.006 124.372C112.496 125.236 112.909 125.982 112.928 126.001H112.987C113.007 125.982 113.419 125.216 113.91 124.372L116.108 120.643H119.622L114.498 128.966L114.499 134.383Z" fill="#1D1B1B"/>
<path d="M131.494 131.027C131.494 127.769 131.533 126.159 131.533 126.14H131.494C131.475 126.159 130.806 127.396 130.14 128.573L128.804 130.987H126.96L125.625 128.613C124.938 127.395 124.29 126.158 124.271 126.139H124.212C124.212 126.158 124.251 127.768 124.251 131.026V134.382H120.953V120.644H124.447L127.902 126.787H127.961L131.435 120.644H134.791V134.383H131.494V131.027Z" fill="#1D1B1B"/>
<path d="M140.442 132.107L139.618 134.383H136.143L141.444 120.643H145.192L150.512 134.383H146.979L146.154 132.107H140.442ZM144.092 126.375C143.661 125.236 143.346 124.373 143.327 124.353H143.267C143.248 124.373 142.934 125.217 142.501 126.355L141.52 129.103H145.072L144.092 126.375Z" fill="#1D1B1B"/>
<path d="M97.4324 138.279C97.6116 138.419 97.7021 138.614 97.7021 138.861C97.7021 139.049 97.6498 139.206 97.5459 139.333C97.4421 139.459 97.2966 139.543 97.1094 139.582C97.3418 139.612 97.5229 139.698 97.6524 139.84C97.782 139.982 97.8467 140.161 97.8467 140.379C97.8467 140.65 97.7456 140.861 97.5433 141.012C97.341 141.163 97.0606 141.239 96.7012 141.239H95.3613V138.07H96.6879C97.0047 138.068 97.2531 138.138 97.4324 138.279ZM97.1946 139.32C97.3179 139.222 97.38 139.082 97.38 138.901C97.38 138.726 97.3179 138.591 97.1946 138.494C97.0703 138.397 96.8973 138.351 96.6737 138.354H95.6737V139.467H96.6737C96.8973 139.467 97.0712 139.418 97.1946 139.32ZM97.3055 140.796C97.4545 140.688 97.53 140.538 97.53 140.345C97.53 140.155 97.4545 140.007 97.3037 139.901C97.1528 139.796 96.9434 139.743 96.6746 139.743H95.6746V140.956H96.6746C96.9461 140.956 97.1564 140.903 97.3055 140.796Z" fill="#1D1B1B"/>
<path d="M100.129 139.008C100.31 139.109 100.452 139.25 100.555 139.431C100.658 139.612 100.708 139.817 100.708 140.047C100.708 140.279 100.657 140.487 100.555 140.669C100.452 140.852 100.311 140.994 100.129 141.095C99.9468 141.196 99.7427 141.246 99.5129 141.246C99.2839 141.246 99.0781 141.196 98.8971 141.095C98.716 140.994 98.5741 140.852 98.4711 140.669C98.3682 140.486 98.3176 140.279 98.3176 140.047C98.3176 139.818 98.3691 139.612 98.4711 139.431C98.5741 139.25 98.7152 139.109 98.8971 139.008C99.0781 138.907 99.283 138.856 99.5129 138.856C99.7427 138.856 99.9477 138.907 100.129 139.008ZM99.0514 139.237C98.9157 139.315 98.8101 139.426 98.7347 139.567C98.6593 139.709 98.6211 139.87 98.6211 140.051C98.6211 140.236 98.6593 140.398 98.7347 140.54C98.8101 140.682 98.9157 140.792 99.0514 140.87C99.1872 140.948 99.3416 140.988 99.5129 140.988C99.685 140.988 99.8385 140.949 99.9743 140.87C100.11 140.792 100.216 140.681 100.291 140.54C100.366 140.398 100.405 140.236 100.405 140.051C100.405 139.87 100.366 139.709 100.291 139.567C100.216 139.425 100.11 139.315 99.9743 139.237C99.8385 139.159 99.685 139.119 99.5129 139.119C99.3416 139.119 99.1872 139.158 99.0514 139.237Z" fill="#1D1B1B"/>
<path d="M101.373 137.878H101.676V141.237H101.373V137.878Z" fill="#1D1B1B"/>
<path d="M103.51 139.152C103.398 139.12 103.288 139.105 103.18 139.105C103.029 139.105 102.908 139.134 102.815 139.192C102.723 139.251 102.677 139.34 102.677 139.458C102.677 139.539 102.702 139.606 102.752 139.656C102.801 139.708 102.863 139.75 102.937 139.781C103.011 139.813 103.115 139.848 103.247 139.887C103.41 139.935 103.542 139.983 103.645 140.03C103.748 140.077 103.835 140.144 103.908 140.234C103.981 140.323 104.016 140.44 104.016 140.585C104.016 140.798 103.934 140.963 103.772 141.076C103.609 141.19 103.406 141.246 103.161 141.246C102.989 141.246 102.823 141.217 102.663 141.16C102.503 141.103 102.368 141.021 102.26 140.916L102.382 140.698C102.485 140.792 102.607 140.866 102.747 140.92C102.887 140.974 103.03 141.002 103.175 141.002C103.335 141.002 103.465 140.969 103.566 140.902C103.667 140.836 103.718 140.739 103.718 140.613C103.718 140.525 103.692 140.454 103.641 140.398C103.589 140.342 103.525 140.299 103.448 140.267C103.371 140.235 103.264 140.199 103.129 140.156C102.969 140.108 102.839 140.061 102.739 140.016C102.64 139.971 102.555 139.905 102.485 139.819C102.416 139.733 102.382 139.62 102.382 139.482C102.382 139.273 102.459 139.117 102.615 139.01C102.77 138.905 102.965 138.852 103.196 138.852C103.332 138.852 103.463 138.869 103.59 138.906C103.717 138.942 103.83 138.992 103.93 139.055L103.812 139.286C103.723 139.229 103.622 139.184 103.51 139.152Z" fill="#1D1B1B"/>
<path d="M106.108 141.237L106.103 140.838C106.009 140.977 105.888 141.081 105.737 141.148C105.586 141.215 105.412 141.25 105.216 141.25C105.056 141.25 104.915 141.219 104.793 141.157C104.67 141.095 104.576 141.01 104.51 140.901C104.443 140.793 104.41 140.671 104.41 140.535C104.41 140.33 104.489 140.168 104.648 140.05C104.806 139.932 105.024 139.874 105.302 139.874H106.099V139.693C106.099 139.506 106.043 139.361 105.931 139.258C105.819 139.155 105.657 139.104 105.442 139.104C105.188 139.104 104.934 139.199 104.677 139.389L104.541 139.181C104.701 139.069 104.854 138.987 104.998 138.934C105.143 138.882 105.309 138.855 105.496 138.855C105.783 138.855 106.005 138.927 106.162 139.07C106.319 139.214 106.399 139.411 106.401 139.665L106.406 141.236L106.108 141.237ZM105.807 140.85C105.953 140.752 106.052 140.614 106.103 140.435V140.11H105.338C105.13 140.11 104.972 140.144 104.863 140.214C104.754 140.283 104.699 140.388 104.699 140.526C104.699 140.668 104.752 140.781 104.856 140.868C104.959 140.954 105.098 140.996 105.27 140.996C105.482 140.997 105.66 140.948 105.807 140.85Z" fill="#1D1B1B"/>
<path d="M108.14 139.152C108.028 139.12 107.918 139.105 107.81 139.105C107.659 139.105 107.538 139.134 107.445 139.192C107.353 139.251 107.307 139.34 107.307 139.458C107.307 139.539 107.332 139.606 107.381 139.656C107.431 139.708 107.493 139.75 107.567 139.781C107.641 139.813 107.744 139.848 107.877 139.887C108.04 139.935 108.172 139.983 108.275 140.03C108.378 140.077 108.465 140.144 108.538 140.234C108.61 140.323 108.646 140.44 108.646 140.585C108.646 140.798 108.564 140.963 108.402 141.076C108.239 141.19 108.035 141.246 107.791 141.246C107.618 141.246 107.452 141.217 107.293 141.16C107.133 141.103 106.998 141.021 106.89 140.916L107.012 140.698C107.115 140.792 107.237 140.866 107.377 140.92C107.517 140.974 107.66 141.002 107.805 141.002C107.964 141.002 108.095 140.969 108.196 140.902C108.297 140.836 108.348 140.739 108.348 140.613C108.348 140.525 108.322 140.454 108.271 140.398C108.219 140.342 108.155 140.299 108.078 140.267C108.001 140.235 107.894 140.199 107.759 140.156C107.599 140.108 107.469 140.061 107.369 140.016C107.27 139.971 107.185 139.905 107.115 139.819C107.046 139.733 107.011 139.62 107.011 139.482C107.011 139.273 107.089 139.117 107.245 139.01C107.4 138.905 107.594 138.852 107.826 138.852C107.962 138.852 108.093 138.869 108.22 138.906C108.347 138.942 108.46 138.992 108.56 139.055L108.442 139.286C108.353 139.229 108.252 139.184 108.14 139.152Z" fill="#1D1B1B"/>
<path d="M110.913 141.988C110.794 142.081 110.658 142.128 110.503 142.128C110.319 142.128 110.156 142.074 110.014 141.965L110.15 141.73C110.256 141.803 110.369 141.839 110.49 141.839C110.587 141.839 110.674 141.807 110.753 141.744C110.831 141.681 110.896 141.589 110.947 141.468L111.046 141.223L110.064 138.865H110.385L111.2 140.902L111.983 138.865H112.296L111.201 141.577C111.128 141.758 111.032 141.895 110.913 141.988Z" fill="#1D1B1B"/>
<path d="M114.03 138.068H114.419L115.66 140.444L116.886 138.068H117.276V141.237H116.986L116.981 138.503L115.74 140.898H115.568L114.323 138.503V141.237H114.029L114.03 138.068Z" fill="#1D1B1B"/>
<path d="M119.982 139.207C120.176 139.441 120.265 139.755 120.249 140.151H118.272C118.293 140.404 118.386 140.608 118.552 140.764C118.718 140.919 118.923 140.997 119.168 140.997C119.319 140.997 119.459 140.97 119.588 140.916C119.718 140.861 119.83 140.784 119.923 140.685L120.095 140.857C119.981 140.98 119.842 141.076 119.681 141.144C119.519 141.213 119.342 141.246 119.149 141.246C118.92 141.246 118.716 141.196 118.538 141.095C118.359 140.994 118.22 140.853 118.119 140.671C118.018 140.49 117.967 140.284 117.967 140.051C117.967 139.822 118.018 139.616 118.119 139.434C118.22 139.251 118.359 139.109 118.538 139.008C118.716 138.907 118.917 138.856 119.14 138.856C119.509 138.856 119.79 138.973 119.982 139.207ZM119.978 139.915C119.963 139.668 119.88 139.471 119.731 139.325C119.582 139.178 119.386 139.105 119.145 139.105C118.906 139.105 118.707 139.179 118.548 139.327C118.388 139.475 118.296 139.671 118.272 139.915H119.978Z" fill="#1D1B1B"/>
<path d="M121.523 139.003C121.669 138.908 121.845 138.86 122.05 138.856V139.141C121.8 139.138 121.598 139.211 121.446 139.36C121.293 139.509 121.206 139.712 121.186 139.969V141.236H120.882V138.864H121.186V139.416C121.265 139.237 121.377 139.098 121.523 139.003Z" fill="#1D1B1B"/>
<path d="M123.482 139.123C123.313 139.123 123.161 139.162 123.025 139.241C122.89 139.319 122.784 139.429 122.709 139.569C122.633 139.71 122.595 139.87 122.595 140.051C122.595 140.232 122.633 140.394 122.709 140.536C122.784 140.678 122.89 140.788 123.025 140.866C123.161 140.944 123.314 140.984 123.482 140.984C123.636 140.984 123.777 140.956 123.906 140.902C124.034 140.848 124.142 140.769 124.229 140.667L124.402 140.848C124.296 140.975 124.163 141.073 124.003 141.143C123.843 141.212 123.665 141.246 123.469 141.246C123.243 141.246 123.04 141.196 122.862 141.095C122.684 140.994 122.544 140.852 122.443 140.669C122.342 140.486 122.292 140.28 122.292 140.051C122.292 139.822 122.342 139.616 122.443 139.434C122.544 139.251 122.684 139.109 122.862 139.008C123.04 138.907 123.243 138.856 123.469 138.856C123.653 138.856 123.821 138.886 123.974 138.947C124.127 139.007 124.257 139.091 124.365 139.2L124.193 139.404C124 139.217 123.763 139.123 123.482 139.123Z" fill="#1D1B1B"/>
<path d="M126.429 141.237L126.424 140.838C126.33 140.977 126.209 141.081 126.058 141.148C125.907 141.215 125.733 141.25 125.537 141.25C125.377 141.25 125.236 141.219 125.114 141.157C124.991 141.095 124.897 141.01 124.831 140.901C124.764 140.793 124.731 140.671 124.731 140.535C124.731 140.33 124.81 140.168 124.969 140.05C125.127 139.932 125.345 139.874 125.623 139.874H126.42V139.693C126.42 139.506 126.364 139.361 126.252 139.258C126.14 139.155 125.978 139.104 125.763 139.104C125.509 139.104 125.255 139.199 124.998 139.389L124.863 139.181C125.022 139.069 125.175 138.987 125.32 138.934C125.464 138.882 125.63 138.855 125.817 138.855C126.104 138.855 126.326 138.927 126.483 139.07C126.64 139.214 126.72 139.411 126.722 139.665L126.727 141.236L126.429 141.237ZM126.128 140.85C126.274 140.752 126.373 140.614 126.424 140.435V140.11H125.659C125.451 140.11 125.293 140.144 125.184 140.214C125.075 140.283 125.02 140.388 125.02 140.526C125.02 140.668 125.073 140.781 125.177 140.868C125.28 140.954 125.419 140.996 125.591 140.996C125.802 140.997 125.981 140.948 126.128 140.85Z" fill="#1D1B1B"/>
<path d="M129.696 137.878V141.237H129.393V140.694C129.302 140.872 129.175 141.01 129.012 141.108C128.849 141.207 128.659 141.255 128.442 141.255C128.218 141.255 128.019 141.204 127.844 141.102C127.67 140.999 127.534 140.856 127.437 140.671C127.34 140.488 127.292 140.279 127.292 140.047C127.292 139.814 127.341 139.608 127.44 139.427C127.537 139.246 127.674 139.104 127.847 139.002C128.02 138.899 128.217 138.847 128.438 138.847C128.655 138.847 128.846 138.897 129.01 138.996C129.175 139.096 129.302 139.235 129.393 139.412V137.878H129.696ZM128.959 140.873C129.095 140.793 129.201 140.682 129.278 140.54C129.356 140.398 129.394 140.237 129.394 140.056C129.394 139.875 129.356 139.712 129.278 139.569C129.201 139.427 129.095 139.314 128.959 139.232C128.823 139.151 128.67 139.11 128.497 139.11C128.325 139.11 128.172 139.151 128.036 139.232C127.9 139.314 127.793 139.427 127.715 139.569C127.637 139.713 127.597 139.875 127.597 140.056C127.597 140.237 127.635 140.398 127.712 140.54C127.789 140.682 127.896 140.793 128.033 140.873C128.171 140.953 128.325 140.993 128.497 140.993C128.669 140.993 128.823 140.953 128.959 140.873Z" fill="#1D1B1B"/>
<path d="M132.174 139.008C132.355 139.109 132.497 139.25 132.599 139.431C132.702 139.612 132.753 139.817 132.753 140.047C132.753 140.279 132.702 140.487 132.599 140.669C132.496 140.852 132.355 140.994 132.174 141.095C131.993 141.196 131.788 141.246 131.558 141.246C131.328 141.246 131.123 141.196 130.942 141.095C130.761 140.994 130.619 140.852 130.517 140.669C130.414 140.486 130.364 140.279 130.364 140.047C130.364 139.818 130.415 139.612 130.517 139.431C130.62 139.25 130.761 139.109 130.942 139.008C131.123 138.907 131.328 138.856 131.558 138.856C131.788 138.856 131.993 138.907 132.174 139.008ZM131.096 139.237C130.961 139.315 130.855 139.426 130.78 139.567C130.704 139.709 130.666 139.87 130.666 140.051C130.666 140.236 130.704 140.398 130.78 140.54C130.855 140.682 130.961 140.792 131.096 140.87C131.232 140.948 131.386 140.988 131.558 140.988C131.73 140.988 131.884 140.949 132.019 140.87C132.155 140.792 132.261 140.681 132.336 140.54C132.411 140.398 132.45 140.236 132.45 140.051C132.45 139.87 132.411 139.709 132.336 139.567C132.261 139.425 132.155 139.315 132.019 139.237C131.884 139.159 131.73 139.119 131.558 139.119C131.386 139.119 131.232 139.158 131.096 139.237Z" fill="#1D1B1B"/>
<path d="M134.319 139.152C134.207 139.12 134.097 139.104 133.989 139.104C133.838 139.104 133.717 139.134 133.624 139.192C133.532 139.252 133.486 139.341 133.486 139.459C133.486 139.54 133.511 139.607 133.56 139.657C133.61 139.709 133.672 139.75 133.746 139.782C133.82 139.813 133.923 139.849 134.056 139.888C134.219 139.936 134.351 139.984 134.454 140.031C134.557 140.078 134.644 140.145 134.717 140.235C134.789 140.324 134.825 140.441 134.825 140.585C134.825 140.799 134.743 140.963 134.581 141.077C134.418 141.191 134.214 141.246 133.969 141.246C133.797 141.246 133.631 141.218 133.472 141.16C133.312 141.104 133.177 141.022 133.069 140.916L133.191 140.699C133.294 140.793 133.416 140.867 133.556 140.921C133.696 140.975 133.839 141.002 133.984 141.002C134.143 141.002 134.274 140.97 134.375 140.903C134.476 140.837 134.527 140.74 134.527 140.614C134.527 140.526 134.501 140.455 134.45 140.399C134.398 140.343 134.334 140.3 134.257 140.268C134.18 140.236 134.073 140.199 133.938 140.157C133.778 140.109 133.648 140.062 133.548 140.017C133.449 139.971 133.364 139.906 133.294 139.82C133.225 139.734 133.19 139.621 133.19 139.482C133.19 139.274 133.268 139.118 133.424 139.011C133.579 138.906 133.773 138.852 134.005 138.852C134.141 138.852 134.272 138.87 134.399 138.907C134.526 138.943 134.639 138.993 134.739 139.056L134.621 139.286C134.532 139.229 134.431 139.184 134.319 139.152Z" fill="#1D1B1B"/>
<path d="M97.7239 146.432L97.3486 145.59H95.5925L95.2216 146.432H94.8862L96.3122 143.268H96.6378L98.0638 146.432H97.7239ZM95.7141 145.309H97.2261L96.4657 143.598L95.7141 145.309Z" fill="#1D1B1B"/>
<path d="M99.1704 144.198C99.3168 144.103 99.4925 144.054 99.6975 144.05V144.335C99.4473 144.333 99.2459 144.405 99.0932 144.554C98.9406 144.704 98.8537 144.907 98.8333 145.163V146.43H98.5298V144.058H98.8333V144.61C98.9122 144.431 99.024 144.293 99.1704 144.198Z" fill="#1D1B1B"/>
<path d="M102.237 144.059V146.183C102.237 146.412 102.19 146.613 102.093 146.785C101.996 146.957 101.858 147.09 101.678 147.181C101.499 147.273 101.292 147.319 101.055 147.319C100.705 147.319 100.381 147.199 100.082 146.957L100.227 146.74C100.347 146.846 100.474 146.925 100.607 146.98C100.74 147.034 100.885 147.061 101.042 147.061C101.314 147.061 101.53 146.982 101.692 146.823C101.853 146.665 101.934 146.452 101.934 146.187V145.802C101.85 145.968 101.729 146.098 101.572 146.192C101.415 146.286 101.234 146.332 101.029 146.332C100.818 146.332 100.63 146.283 100.465 146.185C100.301 146.087 100.173 145.95 100.08 145.777C99.988 145.604 99.9419 145.407 99.9419 145.186C99.9419 144.966 99.988 144.77 100.08 144.598C100.173 144.426 100.301 144.292 100.467 144.195C100.633 144.098 100.822 144.05 101.033 144.05C101.238 144.05 101.418 144.097 101.572 144.189C101.725 144.281 101.846 144.412 101.934 144.58V144.059H102.237ZM101.522 145.972C101.652 145.895 101.753 145.789 101.826 145.653C101.898 145.517 101.934 145.365 101.934 145.196C101.934 145.024 101.898 144.87 101.826 144.735C101.753 144.599 101.652 144.492 101.522 144.415C101.393 144.338 101.246 144.3 101.083 144.3C100.92 144.3 100.773 144.338 100.644 144.415C100.514 144.492 100.412 144.599 100.339 144.735C100.265 144.87 100.228 145.024 100.228 145.196C100.228 145.368 100.265 145.522 100.339 145.656C100.412 145.79 100.513 145.895 100.642 145.972C100.771 146.05 100.917 146.088 101.083 146.088C101.246 146.088 101.393 146.049 101.522 145.972Z" fill="#1D1B1B"/>
<path d="M104.827 144.401C105.02 144.635 105.109 144.949 105.094 145.345H103.116C103.137 145.599 103.23 145.803 103.396 145.958C103.562 146.114 103.767 146.192 104.012 146.192C104.163 146.192 104.303 146.164 104.434 146.11C104.563 146.056 104.675 145.979 104.768 145.879L104.94 146.051C104.826 146.175 104.687 146.271 104.526 146.339C104.364 146.407 104.187 146.441 103.994 146.441C103.765 146.441 103.561 146.39 103.383 146.289C103.205 146.188 103.065 146.047 102.964 145.866C102.863 145.685 102.812 145.478 102.812 145.246C102.812 145.017 102.863 144.81 102.964 144.628C103.065 144.445 103.205 144.303 103.383 144.202C103.561 144.101 103.762 144.05 103.986 144.05C104.353 144.05 104.633 144.168 104.827 144.401ZM104.821 145.11C104.806 144.862 104.724 144.665 104.575 144.519C104.426 144.373 104.23 144.3 103.988 144.3C103.75 144.3 103.551 144.373 103.391 144.522C103.231 144.67 103.139 144.866 103.115 145.11H104.821Z" fill="#1D1B1B"/>
<path d="M107.636 144.297C107.798 144.461 107.878 144.688 107.878 144.974V146.432H107.571V145.046C107.571 144.822 107.508 144.648 107.385 144.521C107.261 144.394 107.09 144.331 106.869 144.331C106.625 144.334 106.429 144.409 106.282 144.557C106.136 144.705 106.052 144.904 106.031 145.154V146.431H105.728V144.059H106.031V144.611C106.113 144.428 106.232 144.288 106.391 144.195C106.549 144.102 106.742 144.053 106.968 144.05C107.252 144.05 107.475 144.133 107.636 144.297Z" fill="#1D1B1B"/>
<path d="M109.884 146.269C109.721 146.381 109.546 146.439 109.359 146.445C109.178 146.445 109.034 146.389 108.928 146.278C108.823 146.166 108.77 145.998 108.77 145.775V144.363H108.43L108.426 144.128H108.77V143.516H109.074V144.128L109.843 144.123V144.363H109.074V145.726C109.074 146.019 109.182 146.165 109.399 146.165C109.52 146.165 109.651 146.122 109.793 146.038L109.884 146.269Z" fill="#1D1B1B"/>
<path d="M110.735 143.224C110.774 143.265 110.794 143.316 110.794 143.376C110.794 143.436 110.773 143.488 110.732 143.53C110.692 143.572 110.643 143.593 110.585 143.593C110.525 143.593 110.474 143.571 110.433 143.53C110.392 143.488 110.372 143.436 110.372 143.376C110.372 143.316 110.392 143.265 110.433 143.224C110.474 143.184 110.525 143.163 110.585 143.163C110.646 143.163 110.696 143.184 110.735 143.224ZM110.432 144.059H110.735V146.431H110.432V144.059Z" fill="#1D1B1B"/>
<path d="M113.525 144.297C113.686 144.461 113.767 144.688 113.767 144.974V146.432H113.459V145.046C113.459 144.822 113.397 144.648 113.274 144.521C113.149 144.394 112.978 144.331 112.757 144.331C112.513 144.334 112.317 144.409 112.171 144.557C112.024 144.705 111.941 144.904 111.919 145.154V146.431H111.616V144.059H111.919V144.611C112.001 144.428 112.121 144.288 112.28 144.195C112.438 144.102 112.63 144.053 112.856 144.05C113.14 144.05 113.363 144.133 113.525 144.297Z" fill="#1D1B1B"/>
<path d="M116.144 144.202C116.325 144.303 116.467 144.444 116.569 144.625C116.672 144.806 116.723 145.011 116.723 145.241C116.723 145.474 116.671 145.681 116.569 145.863C116.466 146.046 116.325 146.188 116.144 146.289C115.963 146.39 115.758 146.441 115.528 146.441C115.3 146.441 115.094 146.39 114.913 146.289C114.732 146.188 114.59 146.046 114.488 145.863C114.385 145.681 114.333 145.474 114.333 145.241C114.333 145.012 114.385 144.806 114.488 144.625C114.591 144.444 114.732 144.303 114.913 144.202C115.094 144.101 115.299 144.05 115.528 144.05C115.758 144.05 115.963 144.101 116.144 144.202ZM115.067 144.431C114.931 144.509 114.826 144.62 114.75 144.761C114.675 144.903 114.637 145.065 114.637 145.246C114.637 145.43 114.675 145.593 114.75 145.735C114.826 145.877 114.931 145.987 115.067 146.065C115.203 146.143 115.356 146.183 115.528 146.183C115.701 146.183 115.854 146.144 115.99 146.065C116.126 145.987 116.231 145.876 116.307 145.735C116.382 145.593 116.42 145.43 116.42 145.246C116.42 145.065 116.382 144.903 116.307 144.761C116.231 144.619 116.126 144.509 115.99 144.431C115.854 144.353 115.701 144.313 115.528 144.313C115.356 144.313 115.203 144.352 115.067 144.431Z" fill="#1D1B1B"/>
<path d="M118.29 144.347C118.178 144.315 118.068 144.299 117.96 144.299C117.809 144.299 117.688 144.328 117.595 144.387C117.503 144.445 117.457 144.534 117.457 144.652C117.457 144.734 117.482 144.8 117.531 144.851C117.581 144.902 117.643 144.944 117.717 144.975C117.79 145.007 117.894 145.042 118.027 145.082C118.19 145.129 118.322 145.177 118.425 145.224C118.528 145.271 118.615 145.339 118.688 145.428C118.76 145.518 118.796 145.634 118.796 145.779C118.796 145.993 118.714 146.157 118.552 146.271C118.389 146.384 118.185 146.44 117.94 146.44C117.768 146.44 117.602 146.412 117.443 146.354C117.283 146.297 117.148 146.216 117.04 146.11L117.162 145.893C117.265 145.987 117.387 146.06 117.527 146.114C117.667 146.169 117.81 146.196 117.955 146.196C118.114 146.196 118.245 146.163 118.346 146.097C118.447 146.03 118.498 145.933 118.498 145.807C118.498 145.72 118.472 145.649 118.42 145.593C118.369 145.537 118.305 145.493 118.228 145.461C118.151 145.429 118.044 145.393 117.908 145.35C117.749 145.302 117.619 145.255 117.519 145.21C117.42 145.165 117.335 145.099 117.265 145.013C117.196 144.927 117.161 144.814 117.161 144.676C117.161 144.468 117.239 144.311 117.395 144.205C117.55 144.099 117.744 144.046 117.976 144.046C118.112 144.046 118.243 144.064 118.37 144.1C118.497 144.137 118.609 144.186 118.71 144.249L118.592 144.48C118.502 144.423 118.401 144.379 118.29 144.347Z" fill="#1D1B1B"/>
</g>
<g clip-path="url(#clip0_2601_1564)">
<path d="M222.466 136.722C222.831 136.338 223.157 135.858 223.427 135.312L225.358 130.611L222.658 124.048H222.37C221.908 124.048 221.505 124.135 221.169 124.298C220.813 124.47 220.496 124.682 220.227 124.941C219.958 125.2 219.718 125.497 219.525 125.814C219.324 126.14 219.17 126.456 219.045 126.744C218.843 127.234 218.622 127.771 218.363 128.394C218.123 128.98 217.863 129.613 217.585 130.275C217.306 130.946 217.027 131.608 216.758 132.232C216.48 132.884 216.21 133.517 215.961 134.112C215.432 135.369 214.894 136.645 214.346 137.921H219.381C220.092 137.921 220.698 137.816 221.188 137.604C221.678 137.403 222.1 137.105 222.466 136.722Z" fill="#1D1B1B"/>
<path fill-rule="evenodd" clip-rule="evenodd" d="M231.2 131.455L229.01 130.601C228.904 130.735 228.779 130.841 228.625 130.899C228.395 130.995 228.135 131.014 227.885 130.918C227.386 130.726 227.136 130.16 227.328 129.661C227.52 129.162 228.087 128.913 228.587 129.114C229 129.277 229.24 129.69 229.202 130.102L230.922 130.774L229.442 127.109L227.991 126.409C227.712 126.725 227.242 126.831 226.848 126.639C226.367 126.409 226.166 125.823 226.396 125.344C226.627 124.864 227.213 124.663 227.693 124.893C227.934 125.008 228.106 125.209 228.183 125.449C228.241 125.603 228.251 125.766 228.222 125.929L229.144 126.38L228.126 123.866C227.962 123.885 227.799 123.857 227.645 123.79C227.415 123.694 227.222 123.502 227.126 123.262C226.925 122.763 227.174 122.197 227.674 122.005C228.174 121.804 228.741 122.053 228.933 122.552C229.096 122.964 228.952 123.415 228.625 123.674L230.432 128.145L230.96 127.31C230.845 127.186 230.778 127.042 230.739 126.879C230.681 126.639 230.72 126.37 230.864 126.15C231.152 125.699 231.748 125.564 232.2 125.843C232.651 126.13 232.786 126.725 232.507 127.176C232.277 127.55 231.825 127.704 231.412 127.589L230.681 128.75L232.084 132.222L232.968 130.831C232.853 130.707 232.786 130.563 232.747 130.4C232.69 130.16 232.728 129.891 232.872 129.671C233.16 129.22 233.756 129.085 234.208 129.364C234.659 129.651 234.794 130.246 234.515 130.697C234.285 131.071 233.833 131.225 233.42 131.11L232.334 132.827L233.66 136.118H238.781C238.411 135.245 238.047 134.383 237.686 133.531L237.686 133.53C237.372 132.79 237.062 132.057 236.754 131.33C236.683 131.161 236.611 130.989 236.538 130.816L236.537 130.815L236.537 130.813C236.326 130.311 236.108 129.792 235.88 129.258C235.572 128.539 235.265 127.819 234.967 127.109C234.669 126.399 234.381 125.708 234.112 125.046C233.843 124.384 233.593 123.78 233.362 123.224C233.228 122.888 233.036 122.523 232.805 122.139C232.574 121.756 232.296 121.41 231.959 121.094C231.633 120.777 231.248 120.518 230.806 120.307C230.364 120.096 229.865 120 229.298 120H220.237V120.182C220.496 120.182 220.766 120.288 221.044 120.489C221.323 120.7 221.592 120.95 221.851 121.257C222.111 121.564 222.351 121.9 222.581 122.255C222.629 122.333 222.676 122.41 222.722 122.485C222.888 122.758 223.04 123.007 223.168 123.233L227.184 132.98C227.511 133.633 227.885 134.189 228.327 134.65C228.769 135.11 229.279 135.465 229.874 135.724C230.47 135.974 231.181 136.108 232.027 136.108H233.084L231.2 131.455ZM232.123 126.562C232.142 126.668 232.133 126.783 232.065 126.889C231.931 127.1 231.662 127.157 231.46 127.032C231.258 126.898 231.201 126.629 231.326 126.428C231.46 126.227 231.729 126.169 231.931 126.294C232.037 126.351 232.094 126.457 232.123 126.562ZM234.114 130.083C234.133 130.189 234.123 130.304 234.056 130.41C233.931 130.611 233.662 130.678 233.451 130.553C233.249 130.419 233.191 130.151 233.316 129.949C233.451 129.748 233.72 129.69 233.921 129.815C234.027 129.872 234.085 129.978 234.114 130.083ZM226.889 125.575C226.995 125.364 227.254 125.268 227.476 125.373C227.687 125.479 227.783 125.748 227.677 125.959C227.572 126.17 227.312 126.266 227.091 126.16C226.986 126.112 226.909 126.016 226.87 125.911C226.832 125.805 226.841 125.68 226.889 125.575ZM228.405 129.613C228.29 129.565 228.174 129.575 228.069 129.623C227.963 129.67 227.876 129.747 227.838 129.862C227.752 130.083 227.867 130.342 228.088 130.428C228.309 130.515 228.568 130.4 228.655 130.179C228.741 129.958 228.626 129.709 228.405 129.613ZM227.888 122.495C228.003 122.456 228.118 122.456 228.224 122.504C228.32 122.543 228.407 122.629 228.455 122.744C228.541 122.965 228.426 123.224 228.205 123.31C227.984 123.397 227.724 123.281 227.638 123.061C227.551 122.84 227.667 122.581 227.888 122.495Z" fill="#1D1B1B"/>
<path d="M255.431 133.836L255.46 133.817C255.489 133.798 255.508 133.779 255.518 133.74C255.537 133.683 255.546 133.625 255.546 133.568V123.897C255.546 123.83 255.537 123.782 255.518 123.734C255.498 123.696 255.479 123.667 255.431 123.629L255.402 123.609C255.383 123.59 255.354 123.571 255.325 123.571C255.239 123.552 255.191 123.552 255.162 123.552H253.884C253.759 123.552 253.702 123.561 253.682 123.561C253.673 123.561 253.663 123.571 253.663 123.571C253.663 123.571 253.634 123.6 253.605 123.677C253.567 123.763 253.529 123.878 253.471 124.012L253.048 125.346L252.712 124.866C252.568 124.665 252.404 124.463 252.212 124.291C252.02 124.118 251.809 123.964 251.578 123.84C251.347 123.715 251.078 123.609 250.8 123.542C250.521 123.465 250.204 123.427 249.877 123.427C249.137 123.427 248.436 123.561 247.792 123.84C247.148 124.108 246.582 124.492 246.101 124.972C245.621 125.451 245.246 126.017 244.967 126.67C244.689 127.313 244.554 128.023 244.554 128.78C244.554 129.279 244.621 129.769 244.746 130.219C244.871 130.68 245.054 131.112 245.284 131.505C245.515 131.898 245.794 132.263 246.111 132.589C246.428 132.915 246.793 133.194 247.187 133.424C247.581 133.654 248.004 133.836 248.455 133.961C248.907 134.086 249.387 134.153 249.877 134.153C250.146 134.153 250.406 134.124 250.656 134.057C250.905 133.99 251.146 133.903 251.367 133.798C251.588 133.692 251.789 133.568 251.972 133.424C252.154 133.28 252.327 133.136 252.472 132.992L252.818 132.647L253.058 133.491C253.087 133.587 253.125 133.664 253.154 133.75C253.173 133.808 253.202 133.846 253.221 133.884C253.24 133.903 253.26 133.923 253.288 133.932C253.308 133.942 253.365 133.961 253.471 133.961H255.172C255.2 133.961 255.258 133.961 255.335 133.942C255.364 133.932 255.393 133.923 255.412 133.903L255.431 133.836ZM252.625 129.932C252.472 130.296 252.26 130.613 251.991 130.881C251.722 131.15 251.405 131.361 251.04 131.515C250.675 131.668 250.281 131.745 249.858 131.745C249.445 131.745 249.061 131.668 248.715 131.505C248.378 131.352 248.081 131.131 247.831 130.862C247.59 130.594 247.398 130.277 247.273 129.912C247.148 129.557 247.081 129.164 247.081 128.752C247.081 128.358 247.148 127.965 247.273 127.61C247.398 127.245 247.59 126.919 247.831 126.641C248.071 126.363 248.369 126.132 248.715 125.969C249.061 125.806 249.445 125.72 249.858 125.72C250.281 125.72 250.684 125.806 251.05 125.96C251.415 126.123 251.732 126.344 252.001 126.622C252.27 126.9 252.481 127.226 252.635 127.591C252.789 127.955 252.866 128.349 252.866 128.752C252.856 129.183 252.779 129.577 252.625 129.932Z" fill="#1D1B1B"/>
<path d="M266.851 134.911C267.13 134.249 267.264 133.481 267.264 132.637V123.897C267.264 123.839 267.255 123.791 267.235 123.753C267.216 123.715 267.187 123.676 267.159 123.657C267.12 123.628 267.072 123.599 267.024 123.58C266.976 123.561 266.928 123.551 266.88 123.551H265.602C265.496 123.551 265.448 123.561 265.429 123.571C265.391 123.59 265.371 123.599 265.362 123.609C265.343 123.638 265.314 123.676 265.304 123.724C265.275 123.801 265.246 123.887 265.208 123.983L264.804 125.25L264.468 124.837C264.305 124.636 264.122 124.444 263.94 124.261C263.757 124.089 263.546 123.935 263.325 123.81C263.104 123.686 262.854 123.58 262.585 123.503C262.316 123.427 262.018 123.398 261.691 123.398C260.961 123.398 260.279 123.532 259.654 123.81C259.03 124.079 258.492 124.463 258.04 124.943C257.588 125.422 257.223 125.988 256.973 126.631C256.714 127.274 256.589 127.984 256.589 128.732C256.589 129.48 256.714 130.171 256.973 130.795C257.223 131.409 257.588 131.956 258.03 132.397C258.482 132.838 259.03 133.193 259.645 133.443C260.269 133.692 260.951 133.817 261.691 133.817C262.008 133.817 262.287 133.778 262.527 133.702C262.767 133.625 262.979 133.529 263.171 133.404C263.363 133.28 263.536 133.136 263.7 132.982C263.863 132.819 264.036 132.637 264.199 132.464L264.699 131.936V132.781C264.699 132.79 264.699 132.79 264.699 132.8C264.708 132.829 264.708 132.867 264.708 132.905V133.021C264.708 133.174 264.699 133.328 264.689 133.471C264.679 133.625 264.641 133.778 264.603 133.913C264.516 134.21 264.372 134.469 264.151 134.699C263.949 134.911 263.709 135.102 263.44 135.246C263.171 135.39 262.883 135.505 262.585 135.582C262.287 135.659 261.989 135.697 261.71 135.697C261.547 135.697 261.365 135.688 261.172 135.678C260.961 135.659 260.75 135.63 260.538 135.572C260.327 135.524 260.115 135.448 259.914 135.361C259.702 135.265 259.52 135.141 259.356 134.987C259.164 134.853 259.087 134.843 259.068 134.843C259.039 134.843 259.02 134.853 259.001 134.862C258.972 134.882 258.914 134.92 258.847 134.997L258.04 136.11C257.973 136.215 257.934 136.311 257.934 136.398C257.934 136.455 257.944 136.513 257.982 136.561C258.021 136.628 258.069 136.676 258.127 136.724L258.146 136.743C258.376 136.944 258.655 137.136 258.962 137.29C259.28 137.453 259.606 137.587 259.943 137.683C260.279 137.789 260.625 137.865 260.961 137.923C261.297 137.971 261.624 138 261.912 138C262.671 138 263.392 137.875 264.045 137.635C264.699 137.395 265.275 137.05 265.746 136.599C266.188 136.129 266.572 135.572 266.851 134.911ZM264.872 128.895C264.852 129.289 264.756 129.663 264.603 130.008C264.439 130.344 264.228 130.651 263.959 130.9C263.69 131.15 263.373 131.351 263.017 131.495C262.662 131.639 262.277 131.706 261.874 131.706C261.461 131.706 261.076 131.629 260.74 131.476C260.394 131.322 260.106 131.111 259.856 130.843C259.616 130.574 259.424 130.258 259.299 129.893C259.174 129.538 259.107 129.145 259.107 128.732C259.107 128.339 259.174 127.945 259.299 127.59C259.424 127.226 259.616 126.9 259.856 126.631C260.096 126.353 260.394 126.132 260.73 125.969C261.076 125.806 261.461 125.72 261.874 125.72C262.277 125.72 262.662 125.796 263.027 125.95C263.382 126.103 263.7 126.314 263.959 126.573C264.218 126.833 264.439 127.14 264.603 127.485C264.766 127.83 264.852 128.195 264.872 128.588V128.598V128.895Z" fill="#1D1B1B"/>
<path d="M277.243 124.733C277.243 124.646 277.166 124.56 277.013 124.474L276.984 124.454C276.734 124.272 276.503 124.119 276.301 123.984C276.1 123.86 275.898 123.754 275.696 123.668C275.494 123.591 275.283 123.524 275.062 123.485C274.841 123.447 274.572 123.418 274.284 123.418C274.024 123.418 273.794 123.457 273.592 123.533C273.38 123.61 272.958 123.84 272.785 123.975C272.131 124.493 271.699 125.184 271.699 125.184C271.699 125.184 271.257 123.994 271.199 123.879C271.151 123.783 271.103 123.696 271.036 123.639C271.026 123.629 270.988 123.591 270.892 123.591H269.595C269.547 123.591 269.489 123.601 269.431 123.62C269.383 123.639 269.335 123.658 269.297 123.687C269.268 123.716 269.239 123.744 269.22 123.783C269.201 123.821 269.191 123.879 269.191 123.936V133.54C269.191 133.818 269.287 133.914 269.576 133.914H271.507C271.661 133.914 271.776 133.885 271.824 133.837C271.891 133.77 271.901 133.636 271.901 133.54V127.246L271.939 127.179C272.064 126.978 272.189 126.795 272.314 126.623C272.448 126.45 272.593 126.287 272.746 126.162C272.91 126.028 273.092 125.922 273.294 125.845C273.496 125.769 273.726 125.73 273.986 125.73C274.351 125.73 274.687 125.798 274.975 125.932C275.244 126.057 275.514 126.239 275.773 126.488C275.859 126.527 275.936 126.536 276.004 126.536C276.09 126.536 276.205 126.517 276.34 126.335L277.118 125.011C277.233 124.867 277.243 124.771 277.243 124.733Z" fill="#1D1B1B"/>
<path d="M286.498 132.571C286.815 132.254 287.104 131.889 287.334 131.496C287.565 131.103 287.748 130.671 287.872 130.211C287.997 129.75 288.065 129.27 288.065 128.771C288.065 128.023 287.921 127.313 287.642 126.67C287.363 126.028 286.978 125.452 286.498 124.972C286.018 124.493 285.451 124.118 284.798 123.84C284.154 123.572 283.452 123.428 282.712 123.428C282.213 123.428 281.732 123.495 281.271 123.62C280.81 123.744 280.378 123.927 279.984 124.147C279.59 124.378 279.225 124.656 278.908 124.972C278.581 125.299 278.302 125.653 278.072 126.047C277.841 126.44 277.658 126.872 277.533 127.332C277.409 127.793 277.341 128.273 277.341 128.771C277.341 129.27 277.409 129.75 277.533 130.211C277.658 130.671 277.841 131.103 278.072 131.496C278.302 131.889 278.581 132.254 278.908 132.571C279.225 132.897 279.59 133.175 279.984 133.405C280.378 133.635 280.81 133.818 281.271 133.942C281.732 134.067 282.213 134.134 282.712 134.134C283.203 134.134 283.683 134.067 284.134 133.942C284.586 133.818 285.018 133.635 285.412 133.405C285.816 133.165 286.182 132.887 286.498 132.571ZM285.221 129.913C285.095 130.278 284.913 130.594 284.682 130.863C284.451 131.132 284.154 131.352 283.817 131.506C283.481 131.659 283.097 131.746 282.684 131.746C282.261 131.746 281.867 131.669 281.531 131.506C281.185 131.352 280.896 131.132 280.656 130.863C280.416 130.594 280.233 130.278 280.099 129.913C279.974 129.558 279.907 129.165 279.907 128.752C279.907 128.359 279.974 127.966 280.099 127.611C280.224 127.246 280.416 126.92 280.647 126.642C280.887 126.363 281.185 126.133 281.521 125.97C281.867 125.807 282.251 125.721 282.684 125.721C283.097 125.721 283.481 125.807 283.817 125.97C284.154 126.133 284.442 126.363 284.682 126.642C284.913 126.92 285.095 127.246 285.211 127.611C285.336 127.975 285.393 128.349 285.393 128.752C285.403 129.174 285.345 129.558 285.221 129.913Z" fill="#1D1B1B"/>
<path d="M294.445 125.932C294.503 125.874 294.532 125.769 294.532 125.605V123.946C294.532 123.811 294.503 123.716 294.445 123.668C294.407 123.629 294.34 123.581 294.196 123.581H292.725L292.735 120.933C292.735 120.789 292.715 120.674 292.667 120.598C292.658 120.578 292.6 120.559 292.494 120.559H292.417H292.408L290.478 121.231C290.294 121.298 290.15 121.375 290.054 121.442C290.035 121.451 289.996 121.49 289.996 121.614L289.987 123.591H288.815C288.536 123.591 288.44 123.677 288.44 123.955V125.615C288.44 125.96 288.574 126.018 288.815 126.018H289.987L289.996 133.549C289.996 133.827 290.083 133.923 290.371 133.923H292.312C292.466 133.923 292.571 133.894 292.648 133.827C292.667 133.808 292.744 133.741 292.744 133.549L292.735 126.018H294.205C294.34 126.008 294.407 125.96 294.445 125.932Z" fill="#1D1B1B"/>
<path d="M304.866 132.571C305.183 132.254 305.471 131.889 305.701 131.496C305.932 131.103 306.115 130.671 306.24 130.211C306.364 129.75 306.432 129.27 306.432 128.771C306.432 128.023 306.288 127.313 306.009 126.67C305.73 126.028 305.346 125.452 304.866 124.972C304.385 124.493 303.819 124.118 303.165 123.84C302.521 123.572 301.82 123.428 301.08 123.428C300.58 123.428 300.1 123.495 299.639 123.62C299.177 123.744 298.745 123.927 298.351 124.147C297.958 124.378 297.592 124.656 297.275 124.972C296.948 125.299 296.67 125.653 296.439 126.047C296.208 126.44 296.026 126.872 295.901 127.332C295.776 127.793 295.709 128.273 295.709 128.771C295.709 129.27 295.776 129.75 295.901 130.211C296.026 130.671 296.208 131.103 296.439 131.496C296.67 131.889 296.948 132.254 297.275 132.571C297.601 132.897 297.958 133.175 298.351 133.405C298.745 133.635 299.177 133.818 299.639 133.942C300.1 134.067 300.58 134.134 301.08 134.134C301.57 134.134 302.051 134.067 302.503 133.942C302.953 133.818 303.386 133.635 303.78 133.405C304.184 133.165 304.539 132.887 304.866 132.571ZM303.588 129.913C303.463 130.278 303.28 130.594 303.05 130.863C302.819 131.132 302.521 131.352 302.185 131.506C301.848 131.659 301.465 131.746 301.051 131.746C300.629 131.746 300.235 131.669 299.898 131.506C299.552 131.352 299.264 131.132 299.024 130.863C298.784 130.594 298.601 130.278 298.466 129.913C298.342 129.558 298.274 129.165 298.274 128.752C298.274 128.359 298.342 127.966 298.466 127.611C298.591 127.246 298.784 126.92 299.015 126.642C299.254 126.363 299.552 126.133 299.888 125.97C300.235 125.807 300.619 125.721 301.051 125.721C301.465 125.721 301.848 125.807 302.185 125.97C302.521 126.133 302.809 126.363 303.05 126.642C303.28 126.92 303.463 127.246 303.578 127.611C303.703 127.975 303.761 128.359 303.761 128.752C303.77 129.174 303.713 129.558 303.588 129.913Z" fill="#1D1B1B"/>
<path d="M314.912 133.597C315.027 133.76 315.104 133.837 315.151 133.885C315.2 133.923 315.228 133.923 315.238 133.923H318.14C318.265 133.923 318.274 133.818 318.256 133.77C318.236 133.731 318.207 133.683 318.159 133.635L313.557 127.716L317.256 123.811C317.313 123.744 317.333 123.715 317.333 123.706C317.333 123.706 317.333 123.696 317.333 123.677C317.333 123.639 317.323 123.629 317.323 123.629C317.323 123.629 317.285 123.6 317.151 123.6H314.508C314.384 123.6 314.287 123.648 314.19 123.754L310.588 127.745V120.645C310.588 120.607 310.578 120.569 310.568 120.521C310.559 120.492 310.549 120.473 310.53 120.444C310.511 120.425 310.491 120.405 310.453 120.386C310.434 120.377 310.395 120.367 310.319 120.367H308.262C308.09 120.367 308.003 120.386 307.964 120.396C307.917 120.415 307.897 120.434 307.897 120.434C307.888 120.444 307.888 120.453 307.878 120.492C307.869 120.569 307.869 120.645 307.869 120.741V133.635C307.869 133.645 307.878 133.664 307.888 133.683C307.897 133.722 307.926 133.77 307.955 133.818C307.974 133.856 308.013 133.894 308.061 133.923C308.08 133.933 308.099 133.952 308.157 133.952H310.319C310.376 133.952 310.424 133.942 310.444 133.923C310.482 133.894 310.511 133.866 310.54 133.827C310.568 133.789 310.578 133.741 310.588 133.703C310.597 133.626 310.607 133.587 310.607 133.578V130.69L311.884 129.366L314.912 133.597Z" fill="#1D1B1B"/>
<path d="M327.973 129.001C327.983 128.819 327.983 128.579 327.983 128.282C327.983 127.85 327.926 127.428 327.801 127.025C327.676 126.622 327.503 126.229 327.283 125.874C327.061 125.519 326.792 125.183 326.485 124.876C326.178 124.569 325.831 124.31 325.466 124.099C325.091 123.888 324.697 123.715 324.274 123.59C323.852 123.475 323.419 123.408 322.968 123.408C322.477 123.408 322.007 123.475 321.565 123.6C321.123 123.725 320.71 123.917 320.326 124.147C319.951 124.377 319.605 124.665 319.297 124.991C318.989 125.317 318.73 125.682 318.51 126.075C318.298 126.469 318.125 126.891 318.01 127.332C317.894 127.773 317.837 128.243 317.837 128.723C317.837 129.481 317.981 130.201 318.279 130.843C318.567 131.496 318.971 132.062 319.471 132.541C319.97 133.021 320.556 133.405 321.219 133.674C321.883 133.942 322.594 134.086 323.333 134.086C323.996 134.086 324.63 133.961 325.226 133.721C325.821 133.472 326.369 133.127 326.84 132.685L326.869 132.666C326.936 132.618 326.984 132.57 327.032 132.503C327.051 132.484 327.071 132.445 327.071 132.378C327.071 132.34 327.071 132.311 327.051 132.273C327.051 132.273 327.042 132.244 326.984 132.177L326.081 131.16C326.005 131.083 325.927 131.016 325.87 130.978C325.84 130.958 325.821 130.949 325.802 130.949C325.773 130.949 325.754 130.958 325.735 130.968C325.696 130.987 325.639 131.026 325.552 131.102C325.438 131.217 325.274 131.333 325.091 131.438C324.909 131.544 324.706 131.63 324.486 131.707C324.274 131.784 324.044 131.841 323.814 131.889C323.583 131.937 323.343 131.956 323.122 131.956C322.872 131.956 322.603 131.918 322.324 131.851C322.036 131.784 321.757 131.659 321.508 131.496C321.248 131.333 321.017 131.102 320.825 130.834C320.623 130.556 320.489 130.201 320.431 129.798L320.384 129.462H326.907C327.244 129.462 327.503 129.443 327.667 129.404C327.744 129.385 327.849 129.347 327.897 129.289C327.945 129.232 327.973 129.136 327.973 129.001ZM320.364 127.61L320.556 127.198C320.652 126.987 320.787 126.776 320.95 126.565C321.113 126.363 321.286 126.171 321.489 126.008C321.69 125.845 321.911 125.711 322.141 125.615C322.382 125.509 322.641 125.461 322.901 125.461C323.237 125.461 323.544 125.509 323.804 125.595C324.063 125.682 324.304 125.816 324.505 125.979C324.706 126.133 324.88 126.325 325.044 126.536C325.188 126.737 325.332 126.958 325.456 127.188L325.687 127.61H320.364Z" fill="#1D1B1B"/>
<path d="M336.719 133.874C336.719 133.874 336.786 133.922 337.025 133.922H339.015C339.092 133.922 339.197 133.912 339.245 133.855C339.293 133.797 339.322 133.692 339.322 133.548V127.926C339.322 127.302 339.236 126.707 339.053 126.16C338.88 125.614 338.621 125.134 338.284 124.731C337.958 124.328 337.545 124.011 337.074 123.781C336.603 123.551 336.055 123.436 335.45 123.436C335.017 123.436 334.624 123.484 334.278 123.58C333.932 123.676 333.614 123.781 333.355 123.935C332.318 124.577 331.991 125.594 331.991 125.594L331.625 124.069C331.596 123.992 331.568 123.916 331.548 123.848C331.529 123.8 331.501 123.752 331.472 123.714C331.443 123.685 331.414 123.657 331.375 123.637C331.347 123.618 331.299 123.609 331.241 123.609H329.944C329.887 123.609 329.829 123.618 329.762 123.628C329.733 123.637 329.694 123.647 329.666 123.676L329.675 123.685C329.637 123.714 329.608 123.743 329.58 123.791C329.55 123.839 329.541 123.896 329.541 123.954V133.557C329.541 133.682 329.57 133.778 329.627 133.845C329.675 133.903 329.791 133.931 329.944 133.931H331.886C331.943 133.931 332.001 133.922 332.039 133.912C332.077 133.903 332.116 133.883 332.164 133.855C332.174 133.845 332.202 133.826 332.221 133.768C332.25 133.701 332.26 133.644 332.26 133.577V127.974C332.279 127.676 332.365 127.388 332.509 127.139C332.644 126.89 332.817 126.679 333.019 126.487C333.221 126.304 333.452 126.16 333.691 126.055C334.23 125.825 334.758 125.853 335.258 126.065C335.517 126.17 335.757 126.324 335.969 126.515C336.18 126.707 336.344 126.928 336.478 127.177C336.613 127.436 336.68 127.715 336.68 128.002V133.596C336.68 133.816 336.719 133.874 336.719 133.874Z" fill="#1D1B1B"/>
</g>
<g clip-path="url(#clip1_2601_1564)">
<path d="M96.4109 194.353C99.983 194.353 102.355 196.419 102.355 199.349C102.355 202.223 99.983 204.372 96.4109 204.372H94.1225V209.312H91.1365V194.912C91.1365 194.605 91.3876 194.353 91.6946 194.353H96.4109ZM96.1318 201.888C98.0295 201.916 99.2853 201.023 99.2853 199.377C99.2853 197.786 98.0295 196.865 96.1318 196.865H94.0946V201.86L96.1318 201.888Z" fill="#1D1B1B"/>
<path d="M111.117 198.177V201.163C110.894 201.079 110.335 201.023 110.028 201.023C109.359 201.023 108.187 201.163 107.182 201.972V209.312H104.419V198.428H107.182V200.298C107.963 199.209 109.303 198.149 110.754 198.149C110.894 198.149 111.033 198.149 111.117 198.177Z" fill="#1D1B1B"/>
<path d="M112.819 195.023C112.819 194.074 113.6 193.377 114.521 193.377C115.498 193.377 116.251 194.074 116.251 195.023C116.251 195.972 115.47 196.67 114.521 196.67C113.6 196.67 112.819 195.972 112.819 195.023ZM113.154 209.312V198.428H115.917V209.312H113.154Z" fill="#1D1B1B"/>
<path d="M135.397 202.446V209.312H132.634V202.726C132.634 201.414 131.908 200.521 130.82 200.521C129.955 200.521 129.146 201.107 128.532 201.972C128.559 202.112 128.559 202.279 128.559 202.446V209.312H125.797V202.726C125.797 201.414 125.071 200.521 123.983 200.521C123.118 200.521 122.308 201.079 121.722 201.944V209.284H118.959V198.4H121.722V199.712C122.476 198.763 123.536 198.121 124.708 198.121C126.215 198.121 127.443 198.819 128.085 200.13C128.866 198.93 130.29 198.121 131.546 198.121C133.806 198.149 135.397 199.74 135.397 202.446Z" fill="#1D1B1B"/>
<path d="M146.391 198.428H149.154V209.312H146.391V208.223C145.554 209.033 144.242 209.563 142.875 209.563C139.972 209.563 137.544 207.358 137.544 203.87C137.544 200.381 139.972 198.177 142.875 198.177C144.27 198.177 145.554 198.707 146.391 199.516V198.428ZM146.391 206.046V201.693C145.61 200.939 144.493 200.465 143.461 200.465C141.758 200.465 140.279 201.749 140.251 203.87C140.279 205.991 141.758 207.274 143.461 207.274C144.493 207.246 145.61 206.8 146.391 206.046Z" fill="#1D1B1B"/>
<path d="M158.811 198.26V201.219C158.588 201.135 158.03 201.079 157.723 201.079C157.053 201.079 155.881 201.219 154.876 202.028V209.367H152.114V198.484H154.876V200.353C155.658 199.265 156.997 198.205 158.448 198.205C158.588 198.232 158.727 198.232 158.811 198.26Z" fill="#1D1B1B"/>
<path d="M169.945 198.484H172.764V198.679L168.383 209.786C167.573 211.823 165.759 213.805 162.662 213.805C162.076 213.805 161.322 213.721 160.764 213.581V211.349C161.35 211.488 161.908 211.572 162.355 211.572C163.75 211.572 164.755 210.679 165.369 209.814L160.541 198.707V198.512H163.415L166.876 206.744L169.945 198.484Z" fill="#1D1B1B"/>
<path d="M84.4369 199.572L82.5672 196.419C82.3997 196.112 82.0927 195.916 81.7579 195.833C81.423 195.749 81.0881 195.805 80.7811 195.972C80.4741 196.14 80.2788 196.446 80.1951 196.781C80.1113 197.116 80.1672 197.451 80.3346 197.758L82.2323 200.884C82.3439 201.051 82.3718 201.219 82.3718 201.414C82.3439 201.637 82.2323 201.86 82.0648 202.028C81.8974 202.167 81.6462 202.251 81.423 202.223C81.1997 202.195 80.9206 202.112 80.7532 201.833C80.6137 201.609 78.0741 195.749 76.7346 192.679C76.3718 191.73 75.1718 190.167 72.9951 190.167C70.7625 190.167 68.9486 191.953 68.9486 194.186C68.9206 195.219 69.3113 195.972 69.4788 196.223L74.1113 205.042C74.1672 205.126 74.1951 205.237 74.2509 205.293C74.3625 205.516 74.4462 205.656 74.4741 205.963C74.4741 206.521 73.9997 206.995 73.4416 206.995C72.9392 206.995 72.5486 206.493 72.4369 206.186C72.1579 205.6 70.0648 200.298 70.0648 200.242C69.702 199.321 69.116 197.814 66.9672 197.814C65.2648 197.814 63.9253 199.181 63.9253 200.828V212.549C63.9253 213.246 64.5113 213.833 65.209 213.833C65.9067 213.833 66.4927 213.246 66.4927 212.549V200.828C66.4927 200.577 66.6881 200.381 66.9392 200.381H66.9951C67.3299 200.381 67.4974 200.884 67.5532 201.051C67.5532 201.079 67.5811 201.107 67.5811 201.107C67.609 201.163 68.0276 202.195 68.4462 203.284C69.0323 204.763 69.702 206.437 69.8974 206.912C70.6509 208.781 71.6834 209.563 73.3858 209.563C75.3951 209.563 77.0137 207.944 77.0137 205.935C77.0137 205.265 76.623 204.372 76.3997 203.898L71.7672 195.051L71.6834 194.884C71.6555 194.828 71.516 194.577 71.516 194.186C71.516 193.377 72.1579 192.735 72.9672 192.735C73.8881 192.735 74.2509 193.488 74.3067 193.628L78.4369 203.033L78.4648 203.088C79.023 204.065 80.0555 204.707 81.1718 204.819C82.0927 204.902 82.9858 204.595 83.6834 204.009C84.3811 203.423 84.8276 202.586 84.8834 201.637C84.9951 200.912 84.8276 200.186 84.4369 199.572Z" fill="#1D1B1B"/>
</g>
<path d="M282.47 211.362H281.023V193.601C281.023 193.041 281.428 192.637 281.988 192.637H282.47V211.362Z" fill="#1D1B1B"/>
<path d="M296.462 198.003H296.944C297.504 198.003 297.908 198.407 297.908 198.967V211.377H296.462V208.485C295.42 210.569 293.336 211.922 290.785 211.922C286.788 211.922 283.896 208.873 283.896 204.721C283.896 200.569 286.773 197.52 290.785 197.52C293.351 197.52 295.42 198.873 296.462 200.957V198.003ZM296.462 204.721C296.462 201.362 294.067 198.873 290.863 198.873C287.582 198.873 285.264 201.362 285.264 204.721C285.264 208.08 287.582 210.569 290.863 210.569C294.067 210.569 296.462 208.08 296.462 204.721Z" fill="#1D1B1B"/>
<path d="M301.832 192.637V200.88C302.874 198.796 304.958 197.521 307.509 197.521C311.506 197.521 314.398 200.569 314.398 204.721C314.398 208.874 311.444 211.922 307.509 211.922C304.943 211.922 302.874 210.569 301.832 208.562V211.362H300.386V193.601C300.386 193.041 300.79 192.637 301.35 192.637H301.832ZM307.353 198.874C304.072 198.874 301.755 201.362 301.755 204.628C301.755 207.987 304.072 210.382 307.353 210.382C310.557 210.382 312.952 207.987 312.952 204.628C312.952 201.362 310.557 198.874 307.353 198.874Z" fill="#1D1B1B"/>
<path d="M315.031 207.039H316.478C316.478 209.123 318.313 210.554 320.801 210.554C323.119 210.554 324.72 209.356 324.72 207.832C324.72 204.068 315.358 206.479 315.358 201.502C315.358 199.185 317.52 197.505 320.319 197.505C323.523 197.505 325.762 199.418 325.762 201.984H324.316C324.316 200.149 322.636 198.858 320.319 198.858C318.313 198.858 316.711 199.978 316.711 201.425C316.711 205.033 326.073 202.778 326.073 207.661C326.073 210.056 323.834 211.829 320.708 211.829C317.427 211.922 315.031 209.838 315.031 207.039Z" fill="#1D1B1B"/>
<path d="M237.165 211.362H232.764V195.203C232.764 193.757 233.883 192.637 235.33 192.637H237.165V211.362Z" fill="#1D1B1B"/>
<path d="M269.422 208.158L273.59 194.55C273.917 193.508 274.943 192.715 276.079 192.715H278.8L272.782 211.362H266.063L260.06 192.637H262.782C263.901 192.637 264.866 193.353 265.177 194.395L269.422 208.158Z" fill="#1D1B1B"/>
<path d="M249.813 192C243.654 192 239.486 196.075 239.486 202C239.486 207.925 243.654 212 249.813 212C255.894 212 260.139 207.925 260.139 202C260.139 196.152 255.894 192 249.813 192ZM249.813 208.236C246.298 208.236 243.887 205.67 243.887 202C243.887 200.88 244.121 199.838 244.603 198.952C244.603 198.952 244.603 198.952 244.603 198.874C244.603 198.874 244.603 198.874 244.603 198.796C244.603 198.796 244.68 198.719 244.68 198.641C244.68 198.641 244.68 198.563 244.758 198.563C244.758 198.485 244.836 198.485 244.836 198.407C245.318 197.692 246.438 196.323 248.444 196.012H248.522H248.6C249.237 195.935 251.166 195.935 252.037 197.365C252.037 197.365 252.037 197.365 252.037 197.443C252.114 197.521 252.114 197.599 252.114 197.677C252.114 197.677 252.114 197.754 252.192 197.754C253.234 199.994 252.114 203.275 250.746 204.551C250.746 204.551 254.914 202.156 254.743 198.47C255.303 199.434 255.629 200.631 255.629 201.907C255.738 205.686 253.327 208.236 249.813 208.236Z" fill="#1D1B1B"/>
<g style="mix-blend-mode:luminosity" clip-path="url(#clip2_2601_1564)">
<path d="M180.65 266.075C180.65 267.65 181.062 272.788 186.275 272.788C188.412 272.788 191.012 271.8 191.312 269L191.337 268.763H188.95L188.912 268.938C188.875 269.188 188.775 269.725 188.337 270.188C187.887 270.65 187.237 270.888 186.4 270.888C184.125 270.888 182.975 269.263 182.975 266.05C182.975 264.138 183.425 260.938 186.425 260.938C188.675 260.938 188.912 262.463 189 262.963L189.025 263.15L189.212 263.175H191.362L191.337 262.95C191.062 259.375 187.575 259.088 186.512 259.088C181.075 259.088 180.65 264.438 180.65 266.075Z" fill="#1D1B1B"/>
<path d="M198.462 258.938C197.187 258.938 195.375 259.25 194 260.738C192.875 261.95 192.275 263.775 192.275 266.025C192.275 270.463 194.425 272.9 198.312 272.9C202.2 272.9 204.487 270.313 204.487 265.813C204.487 261.313 202.287 258.938 198.462 258.938ZM201.062 269.85C200.45 270.575 199.537 270.95 198.375 270.95C197.2 270.95 196.275 270.575 195.687 269.85C194.962 268.95 194.587 267.625 194.587 265.913C194.587 262.563 195.9 260.863 198.487 260.863C201.075 260.863 202.187 262.475 202.187 265.788C202.175 266.8 202.025 268.675 201.062 269.85Z" fill="#1D1B1B"/>
<path d="M216.437 259.275C216.437 259.275 213.225 268.425 212.862 269.463C212.5 268.425 209.362 259.275 209.362 259.275H205.837V272.6H208V262.1C208.675 264 211.712 272.6 211.712 272.6H213.712C213.712 272.6 216.9 263.838 217.587 261.988V272.6H219.762V259.275H216.437Z" fill="#1D1B1B"/>
<path d="M228.237 259.275H226.037L220.425 272.6H222.737C222.737 272.6 224.025 269.488 224.125 269.238H229.825C229.925 269.488 231.225 272.6 231.225 272.6H233.637L228.237 259.275ZM224.862 267.363C225.05 266.875 226.712 262.675 227.05 261.85C227.362 262.688 228.937 266.875 229.125 267.363H224.862Z" fill="#1D1B1B"/>
<path d="M234.425 259.275V272.6H236.675V266.738H242.2V264.813H236.675V261.213H242.537V259.275H234.425Z" fill="#1D1B1B"/>
<path d="M246.45 259.275H244.237V272.6H246.45V259.275Z" fill="#1D1B1B"/>
<path d="M122.6 265.825C123.35 265.475 124.387 264.713 124.387 262.938C124.387 261.938 124.062 261.113 123.412 260.475C122.537 259.625 121.587 259.463 120.012 259.463H115.188V272.788H120.1C121.125 272.788 122.187 272.788 123.125 272.163C123.625 271.825 124.775 270.863 124.775 269.05C124.775 266.925 123.5 266.163 122.6 265.825ZM117.35 261.363H119.712C120.975 261.363 122.112 261.5 122.112 263.1C122.112 264.325 121.3 264.925 119.65 264.925H117.35V261.363ZM120.187 270.925H117.35V266.888H120.262C121.65 266.888 122.512 267.663 122.512 268.913C122.512 270.4 121.312 270.925 120.187 270.925Z" fill="#1D1B1B"/>
<path d="M132.725 259.475H130.525L124.925 272.8H127.238C127.238 272.8 128.525 269.688 128.638 269.438H134.313C134.413 269.688 135.7 272.8 135.7 272.8H138.113L132.725 259.475ZM129.363 267.563C129.55 267.075 131.213 262.875 131.55 262.05C131.863 262.888 133.438 267.075 133.625 267.563H129.363Z" fill="#1D1B1B"/>
<path d="M147.575 259.475V269.575C146.875 268.4 141.575 259.475 141.575 259.475H138.75V272.8H140.8V262.413C141.5 263.588 147.025 272.8 147.025 272.8H149.65V259.475H147.575Z" fill="#1D1B1B"/>
<path d="M150.85 266.275C150.85 267.85 151.263 272.988 156.475 272.988C158.613 272.988 161.213 272 161.513 269.2L161.538 268.963H159.15L159.113 269.138C159.075 269.388 158.975 269.925 158.538 270.388C158.088 270.85 157.438 271.088 156.6 271.088C155.038 271.088 153.175 270.25 153.175 266.25C153.175 264.338 153.625 261.138 156.625 261.138C158.875 261.138 159.113 262.663 159.2 263.163L159.225 263.35L159.413 263.375H161.563L161.538 263.15C161.25 259.563 157.763 259.288 156.7 259.288C151.275 259.3 150.863 264.638 150.85 266.275Z" fill="#1D1B1B"/>
<path d="M168.663 259.138C167.388 259.138 165.575 259.45 164.2 260.938C163.075 262.15 162.475 263.975 162.475 266.225C162.475 270.663 164.625 273.1 168.513 273.1C172.4 273.1 174.688 270.513 174.688 266.013C174.688 261.513 172.5 259.138 168.663 259.138ZM171.263 270.05C170.65 270.775 169.738 271.15 168.575 271.15C167.4 271.15 166.463 270.775 165.888 270.05C165.163 269.15 164.788 267.825 164.788 266.113C164.788 262.763 166.1 261.063 168.688 261.063C171.275 261.063 172.388 262.675 172.388 265.988C172.375 267 172.238 268.875 171.263 270.05Z" fill="#1D1B1B"/>
<path d="M263.138 276.138C268.819 276.138 273.425 271.532 273.425 265.85C273.425 260.168 268.819 255.562 263.138 255.562C257.456 255.562 252.85 260.168 252.85 265.85C252.85 271.532 257.456 276.138 263.138 276.138Z" fill="url(#paint0_radial_2601_1564)"/>
<path opacity="0.65" d="M262.812 277.888H263.025C269.35 277.888 274.512 272.788 274.812 266.275H262.812V277.888Z" fill="url(#paint1_radial_2601_1564)"/>
<path opacity="0.65" d="M274.812 265.537C274.687 259.15 269.462 254 263.025 254H262.812V265.537H274.812Z" fill="url(#paint2_radial_2601_1564)"/>
</g>
</g>
<defs>
<radialGradient id="paint0_radial_2601_1564" cx="0" cy="0" r="1" gradientUnits="userSpaceOnUse" gradientTransform="translate(259.294 261.484) scale(17.2951 17.2951)">
<stop stop-color="#ADC46A"/>
<stop offset="0.61" stop-color="#657733"/>
<stop offset="1" stop-color="#384125"/>
</radialGradient>
<radialGradient id="paint1_radial_2601_1564" cx="0" cy="0" r="1" gradientUnits="userSpaceOnUse" gradientTransform="translate(262.422 265.52) scale(13.6331 14.1896)">
<stop stop-color="white"/>
<stop offset="0.14" stop-color="#DFE4D7"/>
<stop offset="0.45" stop-color="#A1AE8B"/>
<stop offset="0.71" stop-color="#728551"/>
<stop offset="0.9" stop-color="#556C31"/>
<stop offset="1" stop-color="#4A642E"/>
</radialGradient>
<radialGradient id="paint2_radial_2601_1564" cx="0" cy="0" r="1" gradientUnits="userSpaceOnUse" gradientTransform="translate(262.545 265.438) scale(13.676)">
<stop stop-color="white"/>
<stop offset="0.14" stop-color="#DFE4D7"/>
<stop offset="0.45" stop-color="#A1AE8B"/>
<stop offset="0.71" stop-color="#728551"/>
<stop offset="0.9" stop-color="#556C31"/>
<stop offset="1" stop-color="#4A642E"/>
</radialGradient>
<clipPath id="clip0_2601_1564">
<rect width="126" height="18" fill="white" transform="translate(213.835 120)"/>
</clipPath>
<clipPath id="clip1_2601_1564">
<rect width="108.837" height="24" fill="white" transform="translate(63.9265 190)"/>
</clipPath>
<clipPath id="clip2_2601_1564">
<rect width="159.625" height="24" fill="white" transform="translate(115.188 254)"/>
</clipPath>
</defs>
</svg>
