<svg width="60" height="60" viewBox="0 0 60 60" fill="none" xmlns="http://www.w3.org/2000/svg">
<path opacity="0.4" d="M40.475 5H19.525C10.425 5 5 10.425 5 19.525V40.45C5 49.575 10.425 55 19.525 55H40.45C49.55 55 54.975 49.575 54.975 40.475V19.525C55 10.425 49.575 5 40.475 5Z" fill="#4B1FFC"/>
<path d="M17.225 39.3751C16.525 39.3751 15.875 39.0001 15.55 38.3501C15.075 37.4251 15.45 36.3001 16.4 35.8251C18.575 34.7501 20.425 33.1001 21.75 31.1001C22.2 30.4251 22.2 29.5751 21.75 28.9001C20.4 26.9001 18.55 25.2501 16.4 24.1751C15.45 23.7251 15.075 22.6001 15.55 21.6501C16 20.7251 17.125 20.3501 18.05 20.8251C20.8 22.2001 23.15 24.2751 24.85 26.8251C26.125 28.7501 26.125 31.2501 24.85 33.1751C23.15 35.7251 20.8 37.8001 18.05 39.1751C17.8 39.3001 17.5 39.3751 17.225 39.3751Z" fill="#4B1FFC"/>
<path d="M42.5 39.375H32.5C31.475 39.375 30.625 38.525 30.625 37.5C30.625 36.475 31.475 35.625 32.5 35.625H42.5C43.525 35.625 44.375 36.475 44.375 37.5C44.375 38.525 43.525 39.375 42.5 39.375Z" fill="#4B1FFC"/>
</svg>
