<svg width="746" height="26" viewBox="0 0 746 26" fill="none" xmlns="http://www.w3.org/2000/svg">
<path d="M319.708 9.10513H321.823V5.6767H324.539V9.10513H326.654V11.3759H324.539V17.8331H326.654V20.1038H323.991C322.794 20.1038 321.824 19.1337 321.824 17.9371L321.823 11.3759H319.708V9.10513Z" fill="#4B1FFC"/>
<path d="M333.156 20.3915C332.073 20.3915 331.109 20.1467 330.264 19.6572C329.433 19.1528 328.78 18.4704 328.305 17.61C327.831 16.7348 327.593 15.7334 327.593 14.606C327.593 13.4638 327.823 12.455 328.283 11.5798C328.743 10.7046 329.388 10.0222 330.219 9.53264C331.05 9.02826 331.999 8.77608 333.067 8.77608C334.18 8.77608 335.137 9.01343 335.938 9.48813C336.739 9.948 337.354 10.5933 337.785 11.424C338.23 12.2548 338.452 13.2487 338.452 14.4058V15.2291L329.017 15.2513L329.062 13.5157H335.76C335.76 12.7591 335.515 12.1509 335.025 11.6911C334.551 11.2312 333.905 11.0012 333.09 11.0012C332.452 11.0012 331.91 11.1348 331.465 11.4018C331.035 11.6688 330.709 12.0693 330.486 12.6034C330.264 13.1374 330.152 13.7901 330.152 14.5615C330.152 15.7483 330.404 16.6458 330.909 17.254C331.428 17.8622 332.192 18.1663 333.201 18.1663C333.943 18.1663 334.551 18.0254 335.025 17.7435C335.515 17.4617 335.834 17.0611 335.982 16.5419H338.497C338.259 17.7435 337.666 18.6855 336.717 19.3679C335.782 20.0503 334.595 20.3915 333.156 20.3915Z" fill="#4B1FFC"/>
<path d="M343.342 20.3915C342.185 20.3915 341.265 20.0799 340.583 19.4569C339.915 18.819 339.582 17.9883 339.582 16.9647C339.582 15.956 339.93 15.1549 340.627 14.5615C341.34 13.9533 342.348 13.5973 343.654 13.4934L346.947 13.2264V12.9816C346.947 12.4773 346.851 12.0767 346.658 11.7801C346.48 11.4685 346.22 11.246 345.879 11.1125C345.538 10.9642 345.137 10.89 344.677 10.89C343.876 10.89 343.261 11.0532 342.83 11.3795C342.4 11.691 342.185 12.1361 342.185 12.7146H339.871C339.871 11.9136 340.071 11.2238 340.472 10.6452C340.887 10.0518 341.466 9.59197 342.207 9.26562C342.964 8.93926 343.832 8.77608 344.811 8.77608C345.805 8.77608 346.658 8.95409 347.37 9.31012C348.082 9.65131 348.631 10.1705 349.016 10.8677C349.402 11.5501 349.595 12.4031 349.595 13.4267V20.1022H347.214L347.014 18.4778C346.776 19.0415 346.316 19.5014 345.634 19.8574C344.967 20.2134 344.203 20.3915 343.342 20.3915ZM344.21 18.3443C345.056 18.3443 345.723 18.107 346.213 17.6323C346.717 17.1575 346.969 16.4974 346.969 15.6519V15.0733L344.677 15.2513C343.832 15.3255 343.231 15.5035 342.875 15.7854C342.519 16.0524 342.341 16.4084 342.341 16.8534C342.341 17.343 342.504 17.7138 342.83 17.966C343.157 18.2182 343.617 18.3443 344.21 18.3443Z" fill="#4B1FFC"/>
<path d="M354.531 20.1022H351.817V9.10985H354.309L354.643 11.068L354.331 10.801C354.554 10.2669 354.962 9.79966 355.555 9.39913C356.148 8.98376 356.89 8.77608 357.78 8.77608C358.744 8.77608 359.531 9.02826 360.139 9.53264C360.762 10.037 361.192 10.7046 361.429 11.5353H360.984C361.148 10.7046 361.563 10.037 362.231 9.53264C362.913 9.02826 363.736 8.77608 364.7 8.77608C366.036 8.77608 367.059 9.15436 367.771 9.91091C368.483 10.6526 368.839 11.654 368.839 12.9149V20.1022H366.147V13.6269C366.147 12.8407 365.947 12.2473 365.546 11.8468C365.16 11.4314 364.641 11.2238 363.988 11.2238C363.573 11.2238 363.187 11.3202 362.831 11.513C362.49 11.7059 362.216 11.9952 362.008 12.3809C361.8 12.7665 361.697 13.2635 361.697 13.8717V20.1022H358.982V13.6047C358.982 12.8333 358.789 12.2473 358.403 11.8468C358.018 11.4463 357.506 11.246 356.868 11.246C356.438 11.246 356.045 11.3424 355.689 11.5353C355.333 11.7133 355.051 12.0026 354.843 12.4031C354.635 12.7888 354.531 13.2783 354.531 13.8717V20.1022Z" fill="#4B1FFC"/>
<path d="M373.574 20.1022H371.059V3.54693H373.774V10.712C374.13 10.0889 374.649 9.61423 375.332 9.28787C376.014 8.94668 376.778 8.77608 377.623 8.77608C378.677 8.77608 379.574 9.02826 380.316 9.53264C381.073 10.0222 381.651 10.712 382.052 11.602C382.467 12.4921 382.675 13.5231 382.675 14.695C382.675 15.8076 382.46 16.7941 382.029 17.6545C381.599 18.5149 380.991 19.1899 380.205 19.6794C379.418 20.1541 378.499 20.3915 377.445 20.3915C376.63 20.3915 375.888 20.2134 375.22 19.8574C374.568 19.5014 374.078 19.0119 373.752 18.3888L373.574 20.1022ZM373.796 14.5615C373.796 15.2142 373.922 15.8002 374.174 16.3194C374.427 16.8238 374.783 17.2169 375.243 17.4987C375.717 17.7658 376.266 17.8993 376.889 17.8993C377.527 17.8993 378.076 17.7583 378.536 17.4765C378.996 17.1946 379.344 16.8015 379.582 16.2971C379.819 15.7928 379.938 15.2142 379.938 14.5615C379.938 13.9088 379.819 13.3303 379.582 12.8259C379.344 12.3215 378.996 11.9284 378.536 11.6465C378.076 11.3499 377.527 11.2015 376.889 11.2015C376.266 11.2015 375.717 11.3499 375.243 11.6465C374.783 11.9284 374.427 12.3215 374.174 12.8259C373.922 13.3154 373.796 13.894 373.796 14.5615Z" fill="#1D1B1B"/>
<path d="M383.746 14.5838C383.746 13.4415 383.998 12.4402 384.502 11.5798C385.007 10.7046 385.704 10.0222 386.594 9.53264C387.484 9.0431 388.493 8.79833 389.62 8.79833C390.763 8.79833 391.771 9.0431 392.647 9.53264C393.537 10.0222 394.234 10.7046 394.738 11.5798C395.243 12.4402 395.495 13.4415 395.495 14.5838C395.495 15.726 395.243 16.7348 394.738 17.61C394.234 18.4704 393.537 19.1454 392.647 19.6349C391.771 20.1244 390.763 20.3692 389.62 20.3692C388.493 20.3692 387.484 20.1244 386.594 19.6349C385.704 19.1454 385.007 18.4704 384.502 17.61C383.998 16.7348 383.746 15.726 383.746 14.5838ZM386.461 14.5838C386.461 15.2513 386.594 15.8373 386.861 16.3417C387.143 16.846 387.514 17.2391 387.974 17.521C388.448 17.8028 388.997 17.9438 389.62 17.9438C390.243 17.9438 390.792 17.8028 391.267 17.521C391.742 17.2391 392.112 16.846 392.379 16.3417C392.647 15.8373 392.78 15.2513 392.78 14.5838C392.78 13.9014 392.647 13.3154 392.379 12.8259C392.112 12.3215 391.742 11.9284 391.267 11.6465C390.792 11.3647 390.243 11.2238 389.62 11.2238C388.997 11.2238 388.448 11.3647 387.974 11.6465C387.514 11.9284 387.143 12.3215 386.861 12.8259C386.594 13.3154 386.461 13.9014 386.461 14.5838Z" fill="#1D1B1B"/>
<path d="M400.473 20.3915C399.315 20.3915 398.396 20.0799 397.713 19.4569C397.046 18.819 396.712 17.9883 396.712 16.9647C396.712 15.956 397.061 15.1549 397.758 14.5615C398.47 13.9533 399.479 13.5973 400.784 13.4934L404.077 13.2264V12.9816C404.077 12.4773 403.981 12.0767 403.788 11.7801C403.61 11.4685 403.35 11.246 403.009 11.1125C402.668 10.9642 402.267 10.89 401.808 10.89C401.007 10.89 400.391 11.0532 399.961 11.3795C399.531 11.691 399.315 12.1361 399.315 12.7146H397.001C397.001 11.9136 397.202 11.2238 397.602 10.6452C398.017 10.0518 398.596 9.59197 399.338 9.26562C400.094 8.93926 400.962 8.77608 401.941 8.77608C402.935 8.77608 403.788 8.95409 404.5 9.31012C405.212 9.65131 405.761 10.1705 406.147 10.8677C406.532 11.5501 406.725 12.4031 406.725 13.4267V20.1022H404.344L404.144 18.4778C403.907 19.0415 403.447 19.5014 402.764 19.8574C402.097 20.2134 401.333 20.3915 400.473 20.3915ZM401.34 18.3443C402.186 18.3443 402.853 18.107 403.343 17.6323C403.847 17.1575 404.1 16.4974 404.1 15.6519V15.0733L401.808 15.2513C400.962 15.3255 400.361 15.5035 400.005 15.7854C399.649 16.0524 399.471 16.4084 399.471 16.8534C399.471 17.343 399.634 17.7138 399.961 17.966C400.287 18.2182 400.747 18.3443 401.34 18.3443Z" fill="#1D1B1B"/>
<path d="M415.845 9.06535V11.5798H414.844C413.85 11.5798 413.071 11.8468 412.507 12.3809C411.944 12.9001 411.662 13.6937 411.662 14.7618V20.1022H408.947V9.13211H411.506L411.729 11.4018H411.462C411.61 10.6749 411.958 10.0815 412.507 9.62164C413.056 9.16177 413.768 8.93184 414.644 8.93184C414.836 8.93184 415.029 8.93926 415.222 8.95409C415.415 8.96893 415.623 9.00601 415.845 9.06535Z" fill="#1D1B1B"/>
<path d="M421.385 20.3915C420.317 20.3915 419.397 20.1541 418.626 19.6794C417.869 19.1899 417.276 18.5149 416.846 17.6545C416.431 16.7941 416.223 15.7928 416.223 14.6505C416.223 13.5083 416.431 12.4995 416.846 11.6243C417.276 10.7342 417.892 10.037 418.693 9.53264C419.494 9.02826 420.443 8.77608 421.541 8.77608C422.312 8.77608 423.017 8.93184 423.655 9.24336C424.293 9.54005 424.782 9.96283 425.124 10.5117V3.54693H427.816V20.1022H425.324L425.146 18.3888C424.819 19.0119 424.315 19.5014 423.633 19.8574C422.965 20.2134 422.216 20.3915 421.385 20.3915ZM421.986 17.8993C422.624 17.8993 423.173 17.7658 423.633 17.4987C424.093 17.2169 424.449 16.8238 424.701 16.3194C424.968 15.8002 425.101 15.2142 425.101 14.5615C425.101 13.894 424.968 13.3154 424.701 12.8259C424.449 12.3215 424.093 11.9284 423.633 11.6465C423.173 11.3499 422.624 11.2015 421.986 11.2015C421.363 11.2015 420.822 11.3499 420.362 11.6465C419.902 11.9284 419.546 12.3215 419.294 12.8259C419.056 13.3303 418.938 13.9088 418.938 14.5615C418.938 15.2142 419.056 15.7928 419.294 16.2971C419.546 16.8015 419.902 17.1946 420.362 17.4765C420.822 17.7583 421.363 17.8993 421.986 17.8993Z" fill="#1D1B1B"/>
<path d="M430.2 20.1022V9.10985H432.915V20.1022H430.2ZM431.535 6.90694C431.075 6.90694 430.682 6.75117 430.356 6.43965C430.044 6.11329 429.889 5.72018 429.889 5.26031C429.889 4.80044 430.044 4.41475 430.356 4.10322C430.682 3.7917 431.075 3.63594 431.535 3.63594C431.995 3.63594 432.381 3.7917 432.692 4.10322C433.019 4.41475 433.182 4.80044 433.182 5.26031C433.182 5.72018 433.019 6.11329 432.692 6.43965C432.381 6.75117 431.995 6.90694 431.535 6.90694Z" fill="#1D1B1B"/>
<path d="M437.989 20.1022H435.274V9.10985H437.789L438.011 10.534C438.353 9.98509 438.835 9.55489 439.458 9.24336C440.096 8.93184 440.785 8.77608 441.527 8.77608C442.907 8.77608 443.945 9.18403 444.642 9.99992C445.355 10.8158 445.711 11.9284 445.711 13.3377V20.1022H442.996V13.983C442.996 13.0632 442.788 12.3809 442.373 11.9358C441.957 11.4759 441.394 11.246 440.682 11.246C439.836 11.246 439.176 11.513 438.701 12.0471C438.227 12.5811 437.989 13.2932 437.989 14.1832V20.1022Z" fill="#1D1B1B"/>
<path d="M447.31 14.3613C447.31 13.2932 447.525 12.3438 447.955 11.513C448.4 10.6675 449.016 9.99992 449.802 9.51038C450.588 9.02085 451.5 8.77608 452.539 8.77608C453.473 8.77608 454.274 8.98376 454.942 9.39913C455.61 9.79966 456.077 10.3634 456.344 11.0903L456.055 11.335L456.277 9.10985H458.792V19.5459C458.792 20.7623 458.554 21.8156 458.08 22.7056C457.62 23.6105 456.96 24.3003 456.099 24.775C455.254 25.2646 454.23 25.5093 453.028 25.5093C451.456 25.5093 450.165 25.0866 449.157 24.241C448.148 23.3954 447.554 22.2383 447.376 20.7697H450.091C450.18 21.4818 450.477 22.0381 450.981 22.4386C451.5 22.8391 452.183 23.0394 453.028 23.0394C453.963 23.0394 454.705 22.765 455.254 22.2161C455.817 21.6821 456.099 20.9552 456.099 20.0354V17.2985L456.411 17.5877C456.144 18.285 455.654 18.8413 454.942 19.2566C454.23 19.672 453.407 19.8797 452.472 19.8797C451.434 19.8797 450.529 19.6423 449.757 19.1676C448.986 18.6929 448.385 18.0402 447.955 17.2095C447.525 16.3787 447.31 15.4293 447.31 14.3613ZM450.047 14.2945C450.047 14.9175 450.165 15.4738 450.403 15.9634C450.655 16.4381 451.003 16.8164 451.448 17.0982C451.894 17.3801 452.413 17.521 453.006 17.521C453.629 17.521 454.163 17.3875 454.608 17.1205C455.068 16.8386 455.417 16.4603 455.654 15.9856C455.906 15.4961 456.032 14.9324 456.032 14.2945C456.032 13.6566 455.914 13.1077 455.676 12.6479C455.439 12.1732 455.09 11.8023 454.63 11.5353C454.185 11.2683 453.644 11.1348 453.006 11.1348C452.398 11.1348 451.871 11.2757 451.426 11.5575C450.981 11.8246 450.64 12.1954 450.403 12.6701C450.165 13.1448 450.047 13.6863 450.047 14.2945Z" fill="#1D1B1B"/>
<path d="M303.458 8.125V3.25C303.458 1.45507 302.003 7.84586e-08 300.208 0C298.413 -7.84586e-08 296.958 1.45507 296.958 3.25V4.0625C296.958 6.30615 298.777 8.125 301.021 8.125H303.458Z" fill="#4B1FFC"/>
<path d="M296.958 17.875V22.75C296.958 24.5449 298.413 26 300.208 26C302.003 26 303.458 24.5449 303.458 22.75V21.9375C303.458 19.6938 301.64 17.875 299.396 17.875H296.958Z" fill="#4B1FFC"/>
<path d="M300.208 9.75H309.958C311.753 9.75 313.208 11.2051 313.208 13C313.208 14.7949 311.753 16.25 309.958 16.25H306.708C303.119 16.25 300.208 13.3398 300.208 9.75Z" fill="#4B1FFC"/>
<path d="M300.208 16.25H290.458C288.663 16.25 287.208 14.7949 287.208 13C287.208 11.2051 288.663 9.75001 290.458 9.75001H293.708C297.298 9.75001 300.208 12.6602 300.208 16.25Z" fill="#4B1FFC"/>
</svg>
