<svg width="177" height="24" viewBox="0 0 177 24" fill="none" xmlns="http://www.w3.org/2000/svg">
<path d="M52.4315 20.087C51.3365 20.087 50.3615 19.8395 49.5065 19.3445C48.6666 18.8346 48.0066 18.1446 47.5266 17.2746C47.0466 16.3896 46.8066 15.3771 46.8066 14.2372C46.8066 13.0822 47.0391 12.0622 47.5041 11.1773C47.9691 10.2923 48.6216 9.60229 49.4615 9.10731C50.3015 8.59732 51.2615 8.34233 52.3415 8.34233C53.4664 8.34233 54.4339 8.58232 55.2439 9.06231C56.0539 9.5273 56.6763 10.1798 57.1113 11.0198C57.5613 11.8597 57.7863 12.8647 57.7863 14.0347V14.8672L48.2466 14.8897L48.2916 13.1347H55.0639C55.0639 12.3697 54.8164 11.7547 54.3214 11.2898C53.8414 10.8248 53.1889 10.5923 52.364 10.5923C51.719 10.5923 51.1715 10.7273 50.7215 10.9973C50.2865 11.2673 49.9565 11.6722 49.7315 12.2122C49.5065 12.7522 49.394 13.4122 49.394 14.1922C49.394 15.3921 49.649 16.2996 50.159 16.9146C50.684 17.5296 51.4565 17.8371 52.4765 17.8371C53.2264 17.8371 53.8414 17.6946 54.3214 17.4096C54.8164 17.1246 55.1389 16.7196 55.2889 16.1946H57.8313C57.5913 17.4096 56.9913 18.3621 56.0314 19.052C55.0864 19.742 53.8864 20.087 52.4315 20.087Z" fill="#FF552E"/>
<path d="M62.7307 20.087C61.5608 20.087 60.6308 19.772 59.9408 19.142C59.2658 18.4971 58.9283 17.6571 58.9283 16.6221C58.9283 15.6021 59.2808 14.7922 59.9858 14.1922C60.7058 13.5772 61.7258 13.2172 63.0457 13.1122L66.3756 12.8422V12.5947C66.3756 12.0847 66.2781 11.6797 66.0832 11.3797C65.9032 11.0648 65.6407 10.8398 65.2957 10.7048C64.9507 10.5548 64.5457 10.4798 64.0807 10.4798C63.2707 10.4798 62.6482 10.6448 62.2132 10.9748C61.7783 11.2897 61.5608 11.7397 61.5608 12.3247H59.2208C59.2208 11.5147 59.4233 10.8173 59.8283 10.2323C60.2483 9.63229 60.8333 9.1673 61.5833 8.83731C62.3483 8.50732 63.2257 8.34233 64.2157 8.34233C65.2207 8.34233 66.0831 8.52232 66.8031 8.88231C67.5231 9.2273 68.0781 9.75229 68.4681 10.4573C68.8581 11.1473 69.0531 12.0097 69.0531 13.0447V19.7945H66.6456L66.4431 18.1521C66.2032 18.7221 65.7382 19.187 65.0482 19.547C64.3732 19.907 63.6007 20.087 62.7307 20.087ZM63.6082 18.0171C64.4632 18.0171 65.1382 17.7771 65.6332 17.2971C66.1432 16.8171 66.3981 16.1496 66.3981 15.2946V14.7097L64.0807 14.8897C63.2257 14.9647 62.6182 15.1446 62.2583 15.4296C61.8983 15.6996 61.7183 16.0596 61.7183 16.5096C61.7183 17.0046 61.8833 17.3796 62.2132 17.6346C62.5432 17.8896 63.0082 18.0171 63.6082 18.0171Z" fill="#FF552E"/>
<path d="M74.0446 19.7945H71.2997V8.67982H73.8196L74.1571 10.6598L73.8421 10.3898C74.0671 9.84979 74.4796 9.3773 75.0796 8.97231C75.6796 8.55232 76.4295 8.34233 77.3295 8.34233C78.3045 8.34233 79.0995 8.59732 79.7145 9.10731C80.3444 9.61729 80.7794 10.2923 81.0194 11.1323H80.5694C80.7344 10.2923 81.1544 9.61729 81.8294 9.10731C82.5194 8.59732 83.3519 8.34233 84.3268 8.34233C85.6768 8.34233 86.7118 8.72482 87.4318 9.4898C88.1517 10.2398 88.5117 11.2523 88.5117 12.5272V19.7945H85.7893V13.2472C85.7893 12.4522 85.5868 11.8522 85.1818 11.4472C84.7918 11.0273 84.2668 10.8173 83.6069 10.8173C83.1869 10.8173 82.7969 10.9148 82.4369 11.1098C82.0919 11.3048 81.8144 11.5972 81.6044 11.9872C81.3944 12.3772 81.2894 12.8797 81.2894 13.4947V19.7945H78.5445V13.2247C78.5445 12.4447 78.3495 11.8522 77.9595 11.4472C77.5695 11.0423 77.052 10.8398 76.407 10.8398C75.9721 10.8398 75.5746 10.9373 75.2146 11.1323C74.8546 11.3122 74.5696 11.6047 74.3596 12.0097C74.1496 12.3997 74.0446 12.8947 74.0446 13.4947V19.7945Z" fill="#FF552E"/>
<path d="M90.1039 14.2147C90.1039 13.0747 90.3364 12.0622 90.8014 11.1773C91.2814 10.2923 91.9339 9.60229 92.7588 9.10731C93.5988 8.59732 94.5663 8.34233 95.6613 8.34233C97.1762 8.34233 98.4137 8.73982 99.3737 9.5348C100.349 10.3148 100.911 11.3722 101.061 12.7072H98.3162C98.1512 12.0772 97.8437 11.6047 97.3937 11.2898C96.9587 10.9598 96.4112 10.7948 95.7513 10.7948C95.1813 10.7948 94.6713 10.9373 94.2213 11.2223C93.7863 11.4922 93.4488 11.8822 93.2088 12.3922C92.9688 12.9022 92.8488 13.5097 92.8488 14.2147C92.8488 14.9197 92.9613 15.5271 93.1863 16.0371C93.4113 16.5471 93.7338 16.9446 94.1538 17.2296C94.5888 17.4996 95.0988 17.6346 95.6838 17.6346C96.3738 17.6346 96.9437 17.4696 97.3937 17.1396C97.8587 16.8096 98.1662 16.3371 98.3162 15.7221H101.084C100.964 16.5921 100.656 17.3571 100.161 18.0171C99.6812 18.6621 99.0587 19.172 98.2937 19.547C97.5287 19.907 96.6587 20.087 95.6838 20.087C94.5588 20.087 93.5763 19.847 92.7363 19.367C91.8964 18.8721 91.2439 18.1896 90.7789 17.3196C90.3289 16.4346 90.1039 15.3996 90.1039 14.2147Z" fill="#551872"/>
<path d="M110.214 8.67982H112.959V19.7945H110.416L110.214 18.3096C109.884 18.8346 109.389 19.262 108.729 19.592C108.069 19.922 107.364 20.087 106.614 20.087C105.339 20.087 104.342 19.682 103.622 18.8721C102.902 18.0621 102.542 16.9821 102.542 15.6321V8.67982H105.287V14.6647C105.287 15.7146 105.489 16.4721 105.894 16.9371C106.299 17.4021 106.884 17.6346 107.649 17.6346C108.519 17.6346 109.164 17.3796 109.584 16.8696C110.004 16.3446 110.214 15.5571 110.214 14.5072V8.67982Z" fill="#551872"/>
<path d="M117.886 19.7945H115.344V3.05496H118.089V10.2998C118.449 9.66979 118.974 9.1898 119.664 8.85981C120.354 8.51482 121.126 8.34233 121.981 8.34233C123.046 8.34233 123.954 8.59732 124.704 9.10731C125.469 9.60229 126.054 10.2998 126.459 11.1998C126.879 12.0997 127.089 13.1422 127.089 14.3272C127.089 15.4521 126.871 16.4496 126.436 17.3196C126.001 18.1896 125.386 18.8721 124.591 19.367C123.796 19.847 122.866 20.087 121.801 20.087C120.976 20.087 120.226 19.907 119.551 19.547C118.891 19.187 118.396 18.6921 118.066 18.0621L117.886 19.7945ZM118.111 14.1922C118.111 14.8522 118.239 15.4446 118.494 15.9696C118.749 16.4796 119.109 16.8771 119.574 17.1621C120.054 17.4321 120.609 17.5671 121.239 17.5671C121.884 17.5671 122.439 17.4246 122.904 17.1396C123.369 16.8546 123.721 16.4571 123.961 15.9471C124.201 15.4371 124.321 14.8522 124.321 14.1922C124.321 13.5322 124.201 12.9472 123.961 12.4372C123.721 11.9272 123.369 11.5297 122.904 11.2448C122.439 10.9448 121.884 10.7948 121.239 10.7948C120.609 10.7948 120.054 10.9448 119.574 11.2448C119.109 11.5297 118.749 11.9272 118.494 12.4372C118.239 12.9322 118.111 13.5172 118.111 14.1922Z" fill="#551872"/>
<path d="M132.132 20.087C130.962 20.087 130.032 19.772 129.342 19.142C128.667 18.4971 128.329 17.6571 128.329 16.6221C128.329 15.6021 128.682 14.7922 129.387 14.1922C130.107 13.5772 131.127 13.2172 132.447 13.1122L135.777 12.8422V12.5947C135.777 12.0847 135.679 11.6797 135.484 11.3797C135.304 11.0648 135.042 10.8398 134.697 10.7048C134.352 10.5548 133.947 10.4798 133.482 10.4798C132.672 10.4798 132.049 10.6448 131.614 10.9748C131.179 11.2897 130.962 11.7397 130.962 12.3247H128.622C128.622 11.5147 128.824 10.8173 129.229 10.2323C129.649 9.63229 130.234 9.1673 130.984 8.83731C131.749 8.50732 132.627 8.34233 133.617 8.34233C134.622 8.34233 135.484 8.52232 136.204 8.88231C136.924 9.2273 137.479 9.75229 137.869 10.4573C138.259 11.1473 138.454 12.0097 138.454 13.0447V19.7945H136.047L135.844 18.1521C135.604 18.7221 135.139 19.187 134.449 19.547C133.774 19.907 133.002 20.087 132.132 20.087ZM133.009 18.0171C133.864 18.0171 134.539 17.7771 135.034 17.2971C135.544 16.8171 135.799 16.1496 135.799 15.2946V14.7097L133.482 14.8897C132.627 14.9647 132.019 15.1446 131.659 15.4296C131.299 15.6996 131.119 16.0596 131.119 16.5096C131.119 17.0046 131.284 17.3796 131.614 17.6346C131.944 17.8896 132.409 18.0171 133.009 18.0171Z" fill="#551872"/>
<path d="M139.444 8.67982H146.464V10.9748H139.444V8.67982ZM144.327 19.7945H141.582V5.21491H144.327V19.7945Z" fill="#551872"/>
<path d="M147.743 19.7945V8.67982H150.488V19.7945H147.743ZM149.093 6.45238C148.628 6.45238 148.231 6.29488 147.901 5.97989C147.586 5.6499 147.428 5.25241 147.428 4.78742C147.428 4.32243 147.586 3.93244 147.901 3.61745C148.231 3.30246 148.628 3.14496 149.093 3.14496C149.558 3.14496 149.948 3.30246 150.263 3.61745C150.593 3.93244 150.758 4.32243 150.758 4.78742C150.758 5.25241 150.593 5.6499 150.263 5.97989C149.948 6.29488 149.558 6.45238 149.093 6.45238Z" fill="#551872"/>
<path d="M152.222 14.2147C152.222 13.0597 152.477 12.0472 152.987 11.1773C153.497 10.2923 154.202 9.60229 155.102 9.10731C156.002 8.61232 157.022 8.36483 158.161 8.36483C159.316 8.36483 160.336 8.61232 161.221 9.10731C162.121 9.60229 162.826 10.2923 163.336 11.1773C163.846 12.0472 164.101 13.0597 164.101 14.2147C164.101 15.3696 163.846 16.3896 163.336 17.2746C162.826 18.1446 162.121 18.8271 161.221 19.322C160.336 19.817 159.316 20.0645 158.161 20.0645C157.022 20.0645 156.002 19.817 155.102 19.322C154.202 18.8271 153.497 18.1446 152.987 17.2746C152.477 16.3896 152.222 15.3696 152.222 14.2147ZM154.967 14.2147C154.967 14.8897 155.102 15.4821 155.372 15.9921C155.657 16.5021 156.032 16.8996 156.497 17.1846C156.977 17.4696 157.532 17.6121 158.161 17.6121C158.791 17.6121 159.346 17.4696 159.826 17.1846C160.306 16.8996 160.681 16.5021 160.951 15.9921C161.221 15.4821 161.356 14.8897 161.356 14.2147C161.356 13.5247 161.221 12.9322 160.951 12.4372C160.681 11.9272 160.306 11.5297 159.826 11.2448C159.346 10.9598 158.791 10.8173 158.161 10.8173C157.532 10.8173 156.977 10.9598 156.497 11.2448C156.032 11.5297 155.657 11.9272 155.372 12.4372C155.102 12.9322 154.967 13.5247 154.967 14.2147Z" fill="#551872"/>
<path d="M168.572 19.7945H165.827V8.67982H168.37L168.595 10.1198C168.94 9.56479 169.427 9.12981 170.057 8.81481C170.702 8.49982 171.399 8.34233 172.149 8.34233C173.544 8.34233 174.594 8.75482 175.299 9.57979C176.019 10.4048 176.379 11.5297 176.379 12.9547V19.7945H173.634V13.6072C173.634 12.6772 173.424 11.9872 173.004 11.5372C172.584 11.0723 172.014 10.8398 171.294 10.8398C170.439 10.8398 169.772 11.1098 169.292 11.6497C168.812 12.1897 168.572 12.9097 168.572 13.8097V19.7945Z" fill="#551872"/>
<path d="M38.8338 8.67493H40.9723V5.20834H43.7186V8.67493H45.8571V10.971H43.7186V17.5001H45.8571V19.796H43.1639C41.9539 19.796 40.9731 18.8152 40.9731 17.6052L40.9723 10.971H38.8338V8.67493Z" fill="#FF552E"/>
<path d="M8.35488 13.7428L13.0022 18.3901C14.2856 19.6735 14.2856 21.7542 13.0022 23.0375C11.7189 24.3208 9.63821 24.3208 8.35488 23.0375L7.19304 21.8757C5.26803 19.9507 5.26803 16.8296 7.19304 14.9046L8.35488 13.7428Z" fill="#FF552E"/>
<path d="M2.54567 17.2283L9.51672 10.2572C10.8001 8.9739 10.8001 6.8932 9.51672 5.60987C8.23339 4.32653 6.15269 4.32653 4.86935 5.60987L2.54567 7.93355C-0.0210015 10.5002 -0.0210009 14.6616 2.54567 17.2283Z" fill="#FF552E"/>
<path d="M24.6207 11.4191L18.8115 5.60987C17.5281 4.32653 17.5281 2.24584 18.8115 0.962501C20.0948 -0.320834 22.1755 -0.320834 23.4588 0.962502L25.2016 2.70526C27.4474 4.9511 27.4474 8.59232 25.2016 10.8382L24.6207 11.4191Z" fill="#FF552E"/>
<path d="M30.4299 7.93355L19.9733 18.3901C18.69 19.6735 18.69 21.7542 19.9733 23.0375C21.2566 24.3208 23.3373 24.3208 24.6207 23.0375L30.4299 17.2283C32.9965 14.6616 32.9965 10.5002 30.4299 7.93355Z" fill="#FF552E"/>
</svg>
