<svg width="346" height="26" viewBox="0 0 346 26" fill="none" xmlns="http://www.w3.org/2000/svg">
<path d="M32.5 9.10513H34.615V5.6767H37.331V9.10513H39.4459V11.3759H37.331V17.8331H39.4459V20.1038H36.7824C35.5857 20.1038 34.6157 19.1337 34.6157 17.9371L34.615 11.3759H32.5V9.10513Z" fill="#4B1FFC"/>
<path d="M45.9479 20.3915C44.865 20.3915 43.9008 20.1467 43.0552 19.6572C42.2245 19.1528 41.5717 18.4704 41.097 17.61C40.6223 16.7348 40.385 15.7334 40.385 14.606C40.385 13.4638 40.6149 12.455 41.0748 11.5798C41.5347 10.7046 42.18 10.0222 43.0107 9.53264C43.8414 9.02826 44.7908 8.77608 45.8589 8.77608C46.9715 8.77608 47.9283 9.01343 48.7294 9.48813C49.5304 9.948 50.1461 10.5933 50.5763 11.424C51.0213 12.2548 51.2438 13.2487 51.2438 14.4058V15.2291L41.8091 15.2513L41.8536 13.5157H48.5514C48.5514 12.7591 48.3066 12.1509 47.8171 11.6911C47.3424 11.2312 46.6971 11.0012 45.8812 11.0012C45.2433 11.0012 44.7018 11.1348 44.2568 11.4018C43.8266 11.6688 43.5002 12.0693 43.2777 12.6034C43.0552 13.1374 42.9439 13.7901 42.9439 14.5615C42.9439 15.7483 43.1961 16.6458 43.7005 17.254C44.2197 17.8622 44.9837 18.1663 45.9924 18.1663C46.7341 18.1663 47.3424 18.0254 47.8171 17.7435C48.3066 17.4617 48.6255 17.0611 48.7739 16.5419H51.2883C51.051 17.7435 50.4576 18.6855 49.5082 19.3679C48.5736 20.0503 47.3869 20.3915 45.9479 20.3915Z" fill="#4B1FFC"/>
<path d="M56.1338 20.3915C54.9767 20.3915 54.057 20.0799 53.3746 19.4569C52.707 18.819 52.3733 17.9883 52.3733 16.9647C52.3733 15.956 52.7219 15.1549 53.4191 14.5615C54.1311 13.9533 55.1399 13.5973 56.4453 13.4934L59.7386 13.2264V12.9816C59.7386 12.4773 59.6421 12.0767 59.4493 11.7801C59.2713 11.4685 59.0117 11.246 58.6705 11.1125C58.3293 10.9642 57.9288 10.89 57.4689 10.89C56.6678 10.89 56.0522 11.0532 55.622 11.3795C55.1918 11.691 54.9767 12.1361 54.9767 12.7146H52.6625C52.6625 11.9136 52.8628 11.2238 53.2633 10.6452C53.6787 10.0518 54.2572 9.59197 54.999 9.26562C55.7555 8.93926 56.6233 8.77608 57.6024 8.77608C58.5963 8.77608 59.4493 8.95409 60.1614 9.31012C60.8734 9.65131 61.4223 10.1705 61.808 10.8677C62.1937 11.5501 62.3865 12.4031 62.3865 13.4267V20.1022H60.0056L59.8053 18.4778C59.568 19.0415 59.1081 19.5014 58.4257 19.8574C57.7582 20.2134 56.9942 20.3915 56.1338 20.3915ZM57.0016 18.3443C57.8472 18.3443 58.5147 18.107 59.0043 17.6323C59.5086 17.1575 59.7608 16.4974 59.7608 15.6519V15.0733L57.4689 15.2513C56.6233 15.3255 56.0225 15.5035 55.6665 15.7854C55.3105 16.0524 55.1325 16.4084 55.1325 16.8534C55.1325 17.343 55.2956 17.7138 55.622 17.966C55.9484 18.2182 56.4082 18.3443 57.0016 18.3443Z" fill="#4B1FFC"/>
<path d="M67.3231 20.1022H64.6084V9.10985H67.1006L67.4344 11.068L67.1228 10.801C67.3453 10.2669 67.7533 9.79966 68.3467 9.39913C68.9401 8.98376 69.6818 8.77608 70.5718 8.77608C71.5361 8.77608 72.3223 9.02826 72.9305 9.53264C73.5536 10.037 73.9838 10.7046 74.2211 11.5353H73.7761C73.9393 10.7046 74.3546 10.037 75.0222 9.53264C75.7046 9.02826 76.5279 8.77608 77.4921 8.77608C78.8272 8.77608 79.8508 9.15436 80.5628 9.91091C81.2749 10.6526 81.6309 11.654 81.6309 12.9149V20.1022H78.9385V13.6269C78.9385 12.8407 78.7382 12.2473 78.3377 11.8468C77.952 11.4314 77.4328 11.2238 76.7801 11.2238C76.3647 11.2238 75.979 11.3202 75.623 11.513C75.2818 11.7059 75.0073 11.9952 74.7997 12.3809C74.592 12.7665 74.4881 13.2635 74.4881 13.8717V20.1022H71.7734V13.6047C71.7734 12.8333 71.5806 12.2473 71.1949 11.8468C70.8092 11.4463 70.2974 11.246 69.6595 11.246C69.2293 11.246 68.8362 11.3424 68.4802 11.5353C68.1242 11.7133 67.8423 12.0026 67.6346 12.4031C67.4269 12.7888 67.3231 13.2783 67.3231 13.8717V20.1022Z" fill="#4B1FFC"/>
<path d="M86.3653 20.1022H83.8509V3.54693H86.5656V10.712C86.9216 10.0889 87.4408 9.61423 88.1232 9.28787C88.8056 8.94668 89.5696 8.77608 90.4151 8.77608C91.4684 8.77608 92.3659 9.02826 93.1076 9.53264C93.8641 10.0222 94.4427 10.712 94.8432 11.602C95.2586 12.4921 95.4663 13.5231 95.4663 14.695C95.4663 15.8076 95.2512 16.7941 94.821 17.6545C94.3908 18.5149 93.7825 19.1899 92.9963 19.6794C92.2101 20.1541 91.2904 20.3915 90.2371 20.3915C89.4212 20.3915 88.6795 20.2134 88.0119 19.8574C87.3592 19.5014 86.8697 19.0119 86.5433 18.3888L86.3653 20.1022ZM86.5878 14.5615C86.5878 15.2142 86.7139 15.8002 86.9661 16.3194C87.2183 16.8238 87.5743 17.2169 88.0342 17.4987C88.5089 17.7658 89.0578 17.8993 89.6808 17.8993C90.3187 17.8993 90.8676 17.7583 91.3274 17.4765C91.7873 17.1946 92.1359 16.8015 92.3733 16.2971C92.6106 15.7928 92.7293 15.2142 92.7293 14.5615C92.7293 13.9088 92.6106 13.3303 92.3733 12.8259C92.1359 12.3215 91.7873 11.9284 91.3274 11.6465C90.8676 11.3499 90.3187 11.2015 89.6808 11.2015C89.0578 11.2015 88.5089 11.3499 88.0342 11.6465C87.5743 11.9284 87.2183 12.3215 86.9661 12.8259C86.7139 13.3154 86.5878 13.894 86.5878 14.5615Z" fill="#1D1B1B"/>
<path d="M96.5375 14.5838C96.5375 13.4415 96.7897 12.4402 97.294 11.5798C97.7984 10.7046 98.4956 10.0222 99.3857 9.53264C100.276 9.0431 101.284 8.79833 102.412 8.79833C103.554 8.79833 104.563 9.0431 105.438 9.53264C106.328 10.0222 107.025 10.7046 107.53 11.5798C108.034 12.4402 108.286 13.4415 108.286 14.5838C108.286 15.726 108.034 16.7348 107.53 17.61C107.025 18.4704 106.328 19.1454 105.438 19.6349C104.563 20.1244 103.554 20.3692 102.412 20.3692C101.284 20.3692 100.276 20.1244 99.3857 19.6349C98.4956 19.1454 97.7984 18.4704 97.294 17.61C96.7897 16.7348 96.5375 15.726 96.5375 14.5838ZM99.2522 14.5838C99.2522 15.2513 99.3857 15.8373 99.6527 16.3417C99.9346 16.846 100.305 17.2391 100.765 17.521C101.24 17.8028 101.789 17.9438 102.412 17.9438C103.035 17.9438 103.584 17.8028 104.059 17.521C104.533 17.2391 104.904 16.846 105.171 16.3417C105.438 15.8373 105.572 15.2513 105.572 14.5838C105.572 13.9014 105.438 13.3154 105.171 12.8259C104.904 12.3215 104.533 11.9284 104.059 11.6465C103.584 11.3647 103.035 11.2238 102.412 11.2238C101.789 11.2238 101.24 11.3647 100.765 11.6465C100.305 11.9284 99.9346 12.3215 99.6527 12.8259C99.3857 13.3154 99.2522 13.9014 99.2522 14.5838Z" fill="#1D1B1B"/>
<path d="M113.264 20.3915C112.107 20.3915 111.187 20.0799 110.505 19.4569C109.837 18.819 109.504 17.9883 109.504 16.9647C109.504 15.956 109.852 15.1549 110.549 14.5615C111.261 13.9533 112.27 13.5973 113.576 13.4934L116.869 13.2264V12.9816C116.869 12.4773 116.772 12.0767 116.58 11.7801C116.402 11.4685 116.142 11.246 115.801 11.1125C115.46 10.9642 115.059 10.89 114.599 10.89C113.798 10.89 113.183 11.0532 112.752 11.3795C112.322 11.691 112.107 12.1361 112.107 12.7146H109.793C109.793 11.9136 109.993 11.2238 110.394 10.6452C110.809 10.0518 111.388 9.59197 112.129 9.26562C112.886 8.93926 113.754 8.77608 114.733 8.77608C115.727 8.77608 116.58 8.95409 117.292 9.31012C118.004 9.65131 118.553 10.1705 118.938 10.8677C119.324 11.5501 119.517 12.4031 119.517 13.4267V20.1022H117.136L116.936 18.4778C116.698 19.0415 116.238 19.5014 115.556 19.8574C114.888 20.2134 114.125 20.3915 113.264 20.3915ZM114.132 18.3443C114.978 18.3443 115.645 18.107 116.135 17.6323C116.639 17.1575 116.891 16.4974 116.891 15.6519V15.0733L114.599 15.2513C113.754 15.3255 113.153 15.5035 112.797 15.7854C112.441 16.0524 112.263 16.4084 112.263 16.8534C112.263 17.343 112.426 17.7138 112.752 17.966C113.079 18.2182 113.539 18.3443 114.132 18.3443Z" fill="#1D1B1B"/>
<path d="M128.637 9.06535V11.5798H127.635C126.642 11.5798 125.863 11.8468 125.299 12.3809C124.735 12.9001 124.453 13.6937 124.453 14.7618V20.1022H121.739V9.13211H124.298L124.52 11.4018H124.253C124.402 10.6749 124.75 10.0815 125.299 9.62164C125.848 9.16177 126.56 8.93184 127.435 8.93184C127.628 8.93184 127.821 8.93926 128.014 8.95409C128.207 8.96893 128.414 9.00601 128.637 9.06535Z" fill="#1D1B1B"/>
<path d="M134.177 20.3915C133.109 20.3915 132.189 20.1541 131.418 19.6794C130.661 19.1899 130.068 18.5149 129.638 17.6545C129.222 16.7941 129.014 15.7928 129.014 14.6505C129.014 13.5083 129.222 12.4995 129.638 11.6243C130.068 10.7342 130.683 10.037 131.484 9.53264C132.285 9.02826 133.235 8.77608 134.333 8.77608C135.104 8.77608 135.809 8.93184 136.447 9.24336C137.084 9.54005 137.574 9.96283 137.915 10.5117V3.54693H140.608V20.1022H138.115L137.937 18.3888C137.611 19.0119 137.107 19.5014 136.424 19.8574C135.757 20.2134 135.008 20.3915 134.177 20.3915ZM134.778 17.8993C135.416 17.8993 135.964 17.7658 136.424 17.4987C136.884 17.2169 137.24 16.8238 137.492 16.3194C137.759 15.8002 137.893 15.2142 137.893 14.5615C137.893 13.894 137.759 13.3154 137.492 12.8259C137.24 12.3215 136.884 11.9284 136.424 11.6465C135.964 11.3499 135.416 11.2015 134.778 11.2015C134.155 11.2015 133.613 11.3499 133.153 11.6465C132.693 11.9284 132.337 12.3215 132.085 12.8259C131.848 13.3303 131.729 13.9088 131.729 14.5615C131.729 15.2142 131.848 15.7928 132.085 16.2971C132.337 16.8015 132.693 17.1946 133.153 17.4765C133.613 17.7583 134.155 17.8993 134.778 17.8993Z" fill="#1D1B1B"/>
<path d="M142.992 20.1022V9.10985H145.706V20.1022H142.992ZM144.327 6.90694C143.867 6.90694 143.474 6.75117 143.147 6.43965C142.836 6.11329 142.68 5.72018 142.68 5.26031C142.68 4.80044 142.836 4.41475 143.147 4.10322C143.474 3.7917 143.867 3.63594 144.327 3.63594C144.787 3.63594 145.172 3.7917 145.484 4.10322C145.81 4.41475 145.973 4.80044 145.973 5.26031C145.973 5.72018 145.81 6.11329 145.484 6.43965C145.172 6.75117 144.787 6.90694 144.327 6.90694Z" fill="#1D1B1B"/>
<path d="M150.781 20.1022H148.066V9.10985H150.581L150.803 10.534C151.144 9.98509 151.626 9.55489 152.249 9.24336C152.887 8.93184 153.577 8.77608 154.319 8.77608C155.698 8.77608 156.737 9.18403 157.434 9.99992C158.146 10.8158 158.502 11.9284 158.502 13.3377V20.1022H155.787V13.983C155.787 13.0632 155.58 12.3809 155.164 11.9358C154.749 11.4759 154.185 11.246 153.473 11.246C152.628 11.246 151.968 11.513 151.493 12.0471C151.018 12.5811 150.781 13.2932 150.781 14.1832V20.1022Z" fill="#1D1B1B"/>
<path d="M160.101 14.3613C160.101 13.2932 160.316 12.3438 160.747 11.513C161.192 10.6675 161.807 9.99992 162.594 9.51038C163.38 9.02085 164.292 8.77608 165.33 8.77608C166.265 8.77608 167.066 8.98376 167.734 9.39913C168.401 9.79966 168.868 10.3634 169.136 11.0903L168.846 11.335L169.069 9.10985H171.583V19.5459C171.583 20.7623 171.346 21.8156 170.871 22.7056C170.411 23.6105 169.751 24.3003 168.891 24.775C168.045 25.2646 167.022 25.5093 165.82 25.5093C164.248 25.5093 162.957 25.0866 161.948 24.241C160.939 23.3954 160.346 22.2383 160.168 20.7697H162.883C162.972 21.4818 163.268 22.0381 163.773 22.4386C164.292 22.8391 164.974 23.0394 165.82 23.0394C166.755 23.0394 167.496 22.765 168.045 22.2161C168.609 21.6821 168.891 20.9552 168.891 20.0354V17.2985L169.202 17.5877C168.935 18.285 168.446 18.8413 167.734 19.2566C167.022 19.672 166.198 19.8797 165.264 19.8797C164.225 19.8797 163.32 19.6423 162.549 19.1676C161.778 18.6929 161.177 18.0402 160.747 17.2095C160.316 16.3787 160.101 15.4293 160.101 14.3613ZM162.838 14.2945C162.838 14.9175 162.957 15.4738 163.194 15.9634C163.446 16.4381 163.795 16.8164 164.24 17.0982C164.685 17.3801 165.204 17.521 165.798 17.521C166.421 17.521 166.955 17.3875 167.4 17.1205C167.86 16.8386 168.208 16.4603 168.446 15.9856C168.698 15.4961 168.824 14.9324 168.824 14.2945C168.824 13.6566 168.705 13.1077 168.468 12.6479C168.231 12.1732 167.882 11.8023 167.422 11.5353C166.977 11.2683 166.436 11.1348 165.798 11.1348C165.19 11.1348 164.663 11.2757 164.218 11.5575C163.773 11.8246 163.432 12.1954 163.194 12.6701C162.957 13.1448 162.838 13.6863 162.838 14.2945Z" fill="#1D1B1B"/>
<path d="M16.25 8.125V3.25C16.25 1.45507 14.7949 7.84586e-08 13 0C11.2051 -7.84586e-08 9.75 1.45507 9.75 3.25V4.0625C9.75 6.30615 11.5688 8.125 13.8125 8.125H16.25Z" fill="#4B1FFC"/>
<path d="M9.74999 17.875V22.75C9.74999 24.5449 11.2051 26 13 26C14.7949 26 16.25 24.5449 16.25 22.75V21.9375C16.25 19.6938 14.4311 17.875 12.1875 17.875H9.74999Z" fill="#4B1FFC"/>
<path d="M13 9.75H22.75C24.5449 9.75 26 11.2051 26 13C26 14.7949 24.5449 16.25 22.75 16.25H19.5C15.9101 16.25 13 13.3398 13 9.75Z" fill="#4B1FFC"/>
<path d="M13 16.25H3.25C1.45508 16.25 0 14.7949 0 13C0 11.2051 1.45507 9.75001 3.25 9.75001H6.49999C10.0898 9.75001 13 12.6602 13 16.25Z" fill="#4B1FFC"/>
</svg>
