<svg width="342" height="26" viewBox="0 0 342 26" fill="none" xmlns="http://www.w3.org/2000/svg">
<path d="M117.709 9.10513H119.823V5.6767H122.539V9.10513H124.654V11.3759H122.539V17.8331H124.654V20.1038H121.991C120.794 20.1038 119.824 19.1337 119.824 17.9371L119.823 11.3759H117.709V9.10513Z" fill="#4B1FFC"/>
<path d="M131.156 20.3915C130.073 20.3915 129.109 20.1467 128.264 19.6572C127.433 19.1528 126.78 18.4704 126.306 17.61C125.831 16.7348 125.593 15.7334 125.593 14.606C125.593 13.4638 125.823 12.455 126.283 11.5798C126.743 10.7046 127.388 10.0222 128.219 9.53264C129.05 9.02826 129.999 8.77608 131.067 8.77608C132.18 8.77608 133.137 9.01343 133.938 9.48813C134.739 9.948 135.355 10.5933 135.785 11.424C136.23 12.2548 136.452 13.2487 136.452 14.4058V15.2291L127.018 15.2513L127.062 13.5157H133.76C133.76 12.7591 133.515 12.1509 133.026 11.6911C132.551 11.2312 131.906 11.0012 131.09 11.0012C130.452 11.0012 129.91 11.1348 129.465 11.4018C129.035 11.6688 128.709 12.0693 128.486 12.6034C128.264 13.1374 128.152 13.7901 128.152 14.5615C128.152 15.7483 128.405 16.6458 128.909 17.254C129.428 17.8622 130.192 18.1663 131.201 18.1663C131.943 18.1663 132.551 18.0254 133.026 17.7435C133.515 17.4617 133.834 17.0611 133.982 16.5419H136.497C136.259 17.7435 135.666 18.6855 134.717 19.3679C133.782 20.0503 132.595 20.3915 131.156 20.3915Z" fill="#4B1FFC"/>
<path d="M141.342 20.3915C140.185 20.3915 139.265 20.0799 138.583 19.4569C137.916 18.819 137.582 17.9883 137.582 16.9647C137.582 15.956 137.93 15.1549 138.628 14.5615C139.34 13.9533 140.348 13.5973 141.654 13.4934L144.947 13.2264V12.9816C144.947 12.4773 144.851 12.0767 144.658 11.7801C144.48 11.4685 144.22 11.246 143.879 11.1125C143.538 10.9642 143.137 10.89 142.677 10.89C141.876 10.89 141.261 11.0532 140.831 11.3795C140.4 11.691 140.185 12.1361 140.185 12.7146H137.871C137.871 11.9136 138.071 11.2238 138.472 10.6452C138.887 10.0518 139.466 9.59197 140.207 9.26562C140.964 8.93926 141.832 8.77608 142.811 8.77608C143.805 8.77608 144.658 8.95409 145.37 9.31012C146.082 9.65131 146.631 10.1705 147.016 10.8677C147.402 11.5501 147.595 12.4031 147.595 13.4267V20.1022H145.214L145.014 18.4778C144.776 19.0415 144.317 19.5014 143.634 19.8574C142.967 20.2134 142.203 20.3915 141.342 20.3915ZM142.21 18.3443C143.056 18.3443 143.723 18.107 144.213 17.6323C144.717 17.1575 144.969 16.4974 144.969 15.6519V15.0733L142.677 15.2513C141.832 15.3255 141.231 15.5035 140.875 15.7854C140.519 16.0524 140.341 16.4084 140.341 16.8534C140.341 17.343 140.504 17.7138 140.831 17.966C141.157 18.2182 141.617 18.3443 142.21 18.3443Z" fill="#4B1FFC"/>
<path d="M152.532 20.1022H149.817V9.10985H152.309L152.643 11.068L152.331 10.801C152.554 10.2669 152.962 9.79966 153.555 9.39913C154.149 8.98376 154.89 8.77608 155.78 8.77608C156.745 8.77608 157.531 9.02826 158.139 9.53264C158.762 10.037 159.192 10.7046 159.43 11.5353H158.985C159.148 10.7046 159.563 10.037 160.231 9.53264C160.913 9.02826 161.736 8.77608 162.701 8.77608C164.036 8.77608 165.059 9.15436 165.771 9.91091C166.483 10.6526 166.839 11.654 166.839 12.9149V20.1022H164.147V13.6269C164.147 12.8407 163.947 12.2473 163.546 11.8468C163.16 11.4314 162.641 11.2238 161.989 11.2238C161.573 11.2238 161.187 11.3202 160.831 11.513C160.49 11.7059 160.216 11.9952 160.008 12.3809C159.8 12.7665 159.697 13.2635 159.697 13.8717V20.1022H156.982V13.6047C156.982 12.8333 156.789 12.2473 156.403 11.8468C156.018 11.4463 155.506 11.246 154.868 11.246C154.438 11.246 154.045 11.3424 153.689 11.5353C153.333 11.7133 153.051 12.0026 152.843 12.4031C152.635 12.7888 152.532 13.2783 152.532 13.8717V20.1022Z" fill="#4B1FFC"/>
<path d="M171.574 20.1022H169.059V3.54693H171.774V10.712C172.13 10.0889 172.649 9.61423 173.332 9.28787C174.014 8.94668 174.778 8.77608 175.624 8.77608C176.677 8.77608 177.574 9.02826 178.316 9.53264C179.073 10.0222 179.651 10.712 180.052 11.602C180.467 12.4921 180.675 13.5231 180.675 14.695C180.675 15.8076 180.46 16.7941 180.029 17.6545C179.599 18.5149 178.991 19.1899 178.205 19.6794C177.419 20.1541 176.499 20.3915 175.446 20.3915C174.63 20.3915 173.888 20.2134 173.22 19.8574C172.568 19.5014 172.078 19.0119 171.752 18.3888L171.574 20.1022ZM171.796 14.5615C171.796 15.2142 171.922 15.8002 172.175 16.3194C172.427 16.8238 172.783 17.2169 173.243 17.4987C173.717 17.7658 174.266 17.8993 174.889 17.8993C175.527 17.8993 176.076 17.7583 176.536 17.4765C176.996 17.1946 177.344 16.8015 177.582 16.2971C177.819 15.7928 177.938 15.2142 177.938 14.5615C177.938 13.9088 177.819 13.3303 177.582 12.8259C177.344 12.3215 176.996 11.9284 176.536 11.6465C176.076 11.3499 175.527 11.2015 174.889 11.2015C174.266 11.2015 173.717 11.3499 173.243 11.6465C172.783 11.9284 172.427 12.3215 172.175 12.8259C171.922 13.3154 171.796 13.894 171.796 14.5615Z" fill="#1D1B1B"/>
<path d="M181.746 14.5838C181.746 13.4415 181.998 12.4402 182.503 11.5798C183.007 10.7046 183.704 10.0222 184.594 9.53264C185.484 9.0431 186.493 8.79833 187.62 8.79833C188.763 8.79833 189.771 9.0431 190.647 9.53264C191.537 10.0222 192.234 10.7046 192.738 11.5798C193.243 12.4402 193.495 13.4415 193.495 14.5838C193.495 15.726 193.243 16.7348 192.738 17.61C192.234 18.4704 191.537 19.1454 190.647 19.6349C189.771 20.1244 188.763 20.3692 187.62 20.3692C186.493 20.3692 185.484 20.1244 184.594 19.6349C183.704 19.1454 183.007 18.4704 182.503 17.61C181.998 16.7348 181.746 15.726 181.746 14.5838ZM184.461 14.5838C184.461 15.2513 184.594 15.8373 184.861 16.3417C185.143 16.846 185.514 17.2391 185.974 17.521C186.448 17.8028 186.997 17.9438 187.62 17.9438C188.243 17.9438 188.792 17.8028 189.267 17.521C189.742 17.2391 190.113 16.846 190.38 16.3417C190.647 15.8373 190.78 15.2513 190.78 14.5838C190.78 13.9014 190.647 13.3154 190.38 12.8259C190.113 12.3215 189.742 11.9284 189.267 11.6465C188.792 11.3647 188.243 11.2238 187.62 11.2238C186.997 11.2238 186.448 11.3647 185.974 11.6465C185.514 11.9284 185.143 12.3215 184.861 12.8259C184.594 13.3154 184.461 13.9014 184.461 14.5838Z" fill="#1D1B1B"/>
<path d="M198.473 20.3915C197.316 20.3915 196.396 20.0799 195.713 19.4569C195.046 18.819 194.712 17.9883 194.712 16.9647C194.712 15.956 195.061 15.1549 195.758 14.5615C196.47 13.9533 197.479 13.5973 198.784 13.4934L202.077 13.2264V12.9816C202.077 12.4773 201.981 12.0767 201.788 11.7801C201.61 11.4685 201.351 11.246 201.009 11.1125C200.668 10.9642 200.268 10.89 199.808 10.89C199.007 10.89 198.391 11.0532 197.961 11.3795C197.531 11.691 197.316 12.1361 197.316 12.7146H195.001C195.001 11.9136 195.202 11.2238 195.602 10.6452C196.018 10.0518 196.596 9.59197 197.338 9.26562C198.094 8.93926 198.962 8.77608 199.941 8.77608C200.935 8.77608 201.788 8.95409 202.5 9.31012C203.212 9.65131 203.761 10.1705 204.147 10.8677C204.532 11.5501 204.725 12.4031 204.725 13.4267V20.1022H202.344L202.144 18.4778C201.907 19.0415 201.447 19.5014 200.765 19.8574C200.097 20.2134 199.333 20.3915 198.473 20.3915ZM199.34 18.3443C200.186 18.3443 200.854 18.107 201.343 17.6323C201.847 17.1575 202.1 16.4974 202.1 15.6519V15.0733L199.808 15.2513C198.962 15.3255 198.361 15.5035 198.005 15.7854C197.649 16.0524 197.471 16.4084 197.471 16.8534C197.471 17.343 197.634 17.7138 197.961 17.966C198.287 18.2182 198.747 18.3443 199.34 18.3443Z" fill="#1D1B1B"/>
<path d="M213.845 9.06535V11.5798H212.844C211.85 11.5798 211.071 11.8468 210.507 12.3809C209.944 12.9001 209.662 13.6937 209.662 14.7618V20.1022H206.947V9.13211H209.506L209.729 11.4018H209.462C209.61 10.6749 209.959 10.0815 210.507 9.62164C211.056 9.16177 211.768 8.93184 212.644 8.93184C212.836 8.93184 213.029 8.93926 213.222 8.95409C213.415 8.96893 213.623 9.00601 213.845 9.06535Z" fill="#1D1B1B"/>
<path d="M219.385 20.3915C218.317 20.3915 217.398 20.1541 216.626 19.6794C215.87 19.1899 215.276 18.5149 214.846 17.6545C214.431 16.7941 214.223 15.7928 214.223 14.6505C214.223 13.5083 214.431 12.4995 214.846 11.6243C215.276 10.7342 215.892 10.037 216.693 9.53264C217.494 9.02826 218.443 8.77608 219.541 8.77608C220.313 8.77608 221.017 8.93184 221.655 9.24336C222.293 9.54005 222.782 9.96283 223.124 10.5117V3.54693H225.816V20.1022H223.324L223.146 18.3888C222.82 19.0119 222.315 19.5014 221.633 19.8574C220.965 20.2134 220.216 20.3915 219.385 20.3915ZM219.986 17.8993C220.624 17.8993 221.173 17.7658 221.633 17.4987C222.093 17.2169 222.449 16.8238 222.701 16.3194C222.968 15.8002 223.101 15.2142 223.101 14.5615C223.101 13.894 222.968 13.3154 222.701 12.8259C222.449 12.3215 222.093 11.9284 221.633 11.6465C221.173 11.3499 220.624 11.2015 219.986 11.2015C219.363 11.2015 218.822 11.3499 218.362 11.6465C217.902 11.9284 217.546 12.3215 217.294 12.8259C217.056 13.3303 216.938 13.9088 216.938 14.5615C216.938 15.2142 217.056 15.7928 217.294 16.2971C217.546 16.8015 217.902 17.1946 218.362 17.4765C218.822 17.7583 219.363 17.8993 219.986 17.8993Z" fill="#1D1B1B"/>
<path d="M228.2 20.1022V9.10985H230.915V20.1022H228.2ZM229.535 6.90694C229.075 6.90694 228.682 6.75117 228.356 6.43965C228.044 6.11329 227.889 5.72018 227.889 5.26031C227.889 4.80044 228.044 4.41475 228.356 4.10322C228.682 3.7917 229.075 3.63594 229.535 3.63594C229.995 3.63594 230.381 3.7917 230.692 4.10322C231.019 4.41475 231.182 4.80044 231.182 5.26031C231.182 5.72018 231.019 6.11329 230.692 6.43965C230.381 6.75117 229.995 6.90694 229.535 6.90694Z" fill="#1D1B1B"/>
<path d="M235.989 20.1022H233.275V9.10985H235.789L236.012 10.534C236.353 9.98509 236.835 9.55489 237.458 9.24336C238.096 8.93184 238.786 8.77608 239.527 8.77608C240.907 8.77608 241.945 9.18403 242.643 9.99992C243.355 10.8158 243.711 11.9284 243.711 13.3377V20.1022H240.996V13.983C240.996 13.0632 240.788 12.3809 240.373 11.9358C239.958 11.4759 239.394 11.246 238.682 11.246C237.836 11.246 237.176 11.513 236.701 12.0471C236.227 12.5811 235.989 13.2932 235.989 14.1832V20.1022Z" fill="#1D1B1B"/>
<path d="M245.31 14.3613C245.31 13.2932 245.525 12.3438 245.955 11.513C246.4 10.6675 247.016 9.99992 247.802 9.51038C248.588 9.02085 249.501 8.77608 250.539 8.77608C251.474 8.77608 252.275 8.98376 252.942 9.39913C253.61 9.79966 254.077 10.3634 254.344 11.0903L254.055 11.335L254.277 9.10985H256.792V19.5459C256.792 20.7623 256.554 21.8156 256.08 22.7056C255.62 23.6105 254.96 24.3003 254.099 24.775C253.254 25.2646 252.23 25.5093 251.029 25.5093C249.456 25.5093 248.165 25.0866 247.157 24.241C246.148 23.3954 245.555 22.2383 245.377 20.7697H248.091C248.18 21.4818 248.477 22.0381 248.981 22.4386C249.501 22.8391 250.183 23.0394 251.029 23.0394C251.963 23.0394 252.705 22.765 253.254 22.2161C253.817 21.6821 254.099 20.9552 254.099 20.0354V17.2985L254.411 17.5877C254.144 18.285 253.654 18.8413 252.942 19.2566C252.23 19.672 251.407 19.8797 250.472 19.8797C249.434 19.8797 248.529 19.6423 247.757 19.1676C246.986 18.6929 246.385 18.0402 245.955 17.2095C245.525 16.3787 245.31 15.4293 245.31 14.3613ZM248.047 14.2945C248.047 14.9175 248.165 15.4738 248.403 15.9634C248.655 16.4381 249.004 16.8164 249.449 17.0982C249.894 17.3801 250.413 17.521 251.006 17.521C251.629 17.521 252.163 17.3875 252.608 17.1205C253.068 16.8386 253.417 16.4603 253.654 15.9856C253.906 15.4961 254.032 14.9324 254.032 14.2945C254.032 13.6566 253.914 13.1077 253.676 12.6479C253.439 12.1732 253.09 11.8023 252.631 11.5353C252.186 11.2683 251.644 11.1348 251.006 11.1348C250.398 11.1348 249.871 11.2757 249.426 11.5575C248.981 11.8246 248.64 12.1954 248.403 12.6701C248.165 13.1448 248.047 13.6863 248.047 14.2945Z" fill="#1D1B1B"/>
<path d="M101.458 8.125V3.25C101.458 1.45507 100.003 7.84586e-08 98.2085 0C96.4136 -7.84586e-08 94.9585 1.45507 94.9585 3.25V4.0625C94.9585 6.30615 96.7773 8.125 99.021 8.125H101.458Z" fill="#4B1FFC"/>
<path d="M94.9585 17.875V22.75C94.9585 24.5449 96.4136 26 98.2085 26C100.003 26 101.458 24.5449 101.458 22.75V21.9375C101.458 19.6938 99.6396 17.875 97.396 17.875H94.9585Z" fill="#4B1FFC"/>
<path d="M98.2085 9.75H107.958C109.753 9.75 111.208 11.2051 111.208 13C111.208 14.7949 109.753 16.25 107.958 16.25H104.708C101.119 16.25 98.2085 13.3398 98.2085 9.75Z" fill="#4B1FFC"/>
<path d="M98.2085 16.25H88.4585C86.6636 16.25 85.2085 14.7949 85.2085 13C85.2085 11.2051 86.6636 9.75001 88.4585 9.75001H91.7085C95.2983 9.75001 98.2085 12.6602 98.2085 16.25Z" fill="#4B1FFC"/>
</svg>
