<svg width="40" height="40" viewBox="0 0 40 40" fill="none" xmlns="http://www.w3.org/2000/svg">
<path d="M25 12.5V4.99999C25 2.23857 22.7614 1.20706e-07 20 0C17.2386 -1.20706e-07 15 2.23857 15 5V6.25C15 9.70178 17.7982 12.5 21.25 12.5H25Z" fill="#4B1FFC"/>
<path d="M15 27.5V35C15 37.7614 17.2386 40 20 40C22.7614 40 25 37.7614 25 35V33.75C25 30.2982 22.2018 27.5 18.75 27.5H15Z" fill="#4B1FFC"/>
<path d="M20 15H35C37.7614 15 40 17.2386 40 20C40 22.7614 37.7614 25 35 25H30C24.4771 25 20 20.5228 20 15Z" fill="#4B1FFC"/>
<path d="M20 25H5C2.23858 25 0 22.7614 0 20C0 17.2386 2.23858 15 5 15H9.99999C15.5228 15 20 19.4772 20 25Z" fill="#4B1FFC"/>
</svg>
