<svg width="60" height="60" viewBox="0 0 60 60" fill="none" xmlns="http://www.w3.org/2000/svg">
<path d="M48.425 12.2248L33.775 5.6998C31.625 4.7498 28.3749 4.7498 26.2249 5.6998L11.575 12.2248C7.87495 13.8748 7.32495 16.1248 7.32495 17.3248C7.32495 18.5248 7.87495 20.7748 11.575 22.4248L26.2249 28.9498C27.2999 29.4248 28.65 29.6748 30 29.6748C31.35 29.6748 32.7 29.4248 33.775 28.9498L48.425 22.4248C52.125 20.7748 52.6749 18.5248 52.6749 17.3248C52.6749 16.1248 52.15 13.8748 48.425 12.2248Z" fill="white"/>
<path opacity="0.4" d="M30 42.6C29.05 42.6 28.1001 42.4 27.2251 42.025L10.375 34.525C7.80005 33.375 5.80005 30.3 5.80005 27.475C5.80005 26.45 6.62505 25.625 7.65005 25.625C8.67505 25.625 9.50005 26.45 9.50005 27.475C9.50005 28.825 10.625 30.575 11.875 31.125L28.725 38.625C29.525 38.975 30.45 38.975 31.25 38.625L48.1 31.125C49.35 30.575 50.4751 28.85 50.4751 27.475C50.4751 26.45 51.3001 25.625 52.3251 25.625C53.3501 25.625 54.175 26.45 54.175 27.475C54.175 30.275 52.175 33.375 49.6 34.525L32.7501 42.025C31.9001 42.4 30.95 42.6 30 42.6Z" fill="white"/>
<path opacity="0.4" d="M30 54.9999C29.05 54.9999 28.1001 54.7999 27.2251 54.4249L10.375 46.9249C7.60005 45.6999 5.80005 42.9249 5.80005 39.8749C5.80005 38.8499 6.62505 38.0249 7.65005 38.0249C8.67505 38.0249 9.50005 38.8499 9.50005 39.8749C9.50005 41.4499 10.425 42.8749 11.875 43.5249L28.725 51.0249C29.525 51.3749 30.45 51.3749 31.25 51.0249L48.1 43.5249C49.525 42.8999 50.4751 41.4499 50.4751 39.8749C50.4751 38.8499 51.3001 38.0249 52.3251 38.0249C53.3501 38.0249 54.175 38.8499 54.175 39.8749C54.175 42.9249 52.3751 45.6749 49.6 46.9249L32.7501 54.4249C31.9001 54.7999 30.95 54.9999 30 54.9999Z" fill="white"/>
</svg>
