<svg width="60" height="60" viewBox="0 0 60 60" fill="none" xmlns="http://www.w3.org/2000/svg">
<path d="M48.425 12.225L33.775 5.70005C31.625 4.75005 28.375 4.75005 26.225 5.70005L11.575 12.225C7.87501 13.875 7.32501 16.125 7.32501 17.325C7.32501 18.525 7.87501 20.775 11.575 22.425L26.225 28.95C27.3 29.425 28.65 29.675 30 29.675C31.35 29.675 32.7 29.425 33.775 28.95L48.425 22.425C52.125 20.775 52.675 18.525 52.675 17.325C52.675 16.125 52.15 13.875 48.425 12.225Z" fill="white"/>
<path opacity="0.4" d="M30 42.6C29.05 42.6 28.1 42.4 27.225 42.025L10.375 34.525C7.79999 33.375 5.79999 30.3 5.79999 27.475C5.79999 26.45 6.62499 25.625 7.64999 25.625C8.67499 25.625 9.49999 26.45 9.49999 27.475C9.49999 28.825 10.625 30.575 11.875 31.125L28.725 38.625C29.525 38.975 30.45 38.975 31.25 38.625L48.1 31.125C49.35 30.575 50.475 28.85 50.475 27.475C50.475 26.45 51.3 25.625 52.325 25.625C53.35 25.625 54.175 26.45 54.175 27.475C54.175 30.275 52.175 33.375 49.6 34.525L32.75 42.025C31.9 42.4 30.95 42.6 30 42.6Z" fill="white"/>
<path opacity="0.4" d="M30 54.9999C29.05 54.9999 28.1 54.7999 27.225 54.4249L10.375 46.9249C7.59999 45.6999 5.79999 42.9249 5.79999 39.8749C5.79999 38.8499 6.62499 38.0249 7.64999 38.0249C8.67499 38.0249 9.49999 38.8499 9.49999 39.8749C9.49999 41.4499 10.425 42.8749 11.875 43.5249L28.725 51.0249C29.525 51.3749 30.45 51.3749 31.25 51.0249L48.1 43.5249C49.525 42.8999 50.475 41.4499 50.475 39.8749C50.475 38.8499 51.3 38.0249 52.325 38.0249C53.35 38.0249 54.175 38.8499 54.175 39.8749C54.175 42.9249 52.375 45.6749 49.6 46.9249L32.75 54.4249C31.9 54.7999 30.95 54.9999 30 54.9999Z" fill="white"/>
</svg>
