<svg width="60" height="60" viewBox="0 0 60 60" fill="none" xmlns="http://www.w3.org/2000/svg">
<path opacity="0.4" d="M48.2499 19.7997V32.6748C48.2499 40.3748 43.8499 43.6747 37.2499 43.6747H15.2749C14.1499 43.6747 13.0749 43.5748 12.0749 43.3498C11.4499 43.2498 10.8499 43.0748 10.2999 42.8748C6.54991 41.4748 4.2749 38.2248 4.2749 32.6748V19.7997C4.2749 12.0997 8.67489 8.7998 15.2749 8.7998H37.2499C42.8499 8.7998 46.8749 11.1748 47.9499 16.5998C48.1249 17.5998 48.2499 18.6247 48.2499 19.7997Z" fill="white"/>
<path d="M55.75 27.3V40.1751C55.75 47.8751 51.35 51.175 44.75 51.175H22.7749C20.9249 51.175 19.25 50.9251 17.8 50.3751C14.825 49.2751 12.8 47.0001 12.075 43.3501C13.075 43.5751 14.1499 43.675 15.2749 43.675H37.25C43.85 43.675 48.25 40.3751 48.25 32.6751V19.8C48.25 18.625 48.15 17.5751 47.95 16.6001C52.7 17.6001 55.75 20.95 55.75 27.3Z" fill="white"/>
<path d="M26.2499 32.85C29.895 32.85 32.85 29.895 32.85 26.2499C32.85 22.6049 29.895 19.6499 26.2499 19.6499C22.6049 19.6499 19.6499 22.6049 19.6499 26.2499C19.6499 29.895 22.6049 32.85 26.2499 32.85Z" fill="white"/>
<path d="M11.95 20.625C10.925 20.625 10.075 21.475 10.075 22.5V30C10.075 31.025 10.925 31.875 11.95 31.875C12.975 31.875 13.825 31.025 13.825 30V22.5C13.825 21.475 13 20.625 11.95 20.625Z" fill="white"/>
<path d="M40.5249 20.625C39.4999 20.625 38.6499 21.475 38.6499 22.5V30C38.6499 31.025 39.4999 31.875 40.5249 31.875C41.5499 31.875 42.3999 31.025 42.3999 30V22.5C42.3999 21.475 41.5749 20.625 40.5249 20.625Z" fill="white"/>
</svg>
