<svg width="61" height="60" viewBox="0 0 61 60" fill="none" xmlns="http://www.w3.org/2000/svg">
<path opacity="0.4" d="M48.5833 19.8V32.675C48.5833 40.375 44.1833 43.6749 37.5833 43.6749H15.6083C14.4833 43.6749 13.4083 43.5751 12.4083 43.3501C11.7833 43.2501 11.1833 43.0751 10.6333 42.8751C6.88329 41.4751 4.60828 38.225 4.60828 32.675V19.8C4.60828 12.1 9.00826 8.80005 15.6083 8.80005H37.5833C43.1833 8.80005 47.2083 11.175 48.2833 16.6C48.4583 17.6 48.5833 18.625 48.5833 19.8Z" fill="white"/>
<path d="M56.0833 27.3V40.1751C56.0833 47.8751 51.6833 51.175 45.0833 51.175H23.1083C21.2583 51.175 19.5833 50.9251 18.1333 50.3751C15.1583 49.2751 13.1333 47.0001 12.4083 43.3501C13.4083 43.5751 14.4833 43.675 15.6083 43.675H37.5833C44.1833 43.675 48.5833 40.3751 48.5833 32.6751V19.8C48.5833 18.625 48.4833 17.5751 48.2833 16.6001C53.0333 17.6001 56.0833 20.95 56.0833 27.3Z" fill="white"/>
<path d="M26.5833 32.85C30.2284 32.85 33.1833 29.895 33.1833 26.2499C33.1833 22.6049 30.2284 19.6499 26.5833 19.6499C22.9382 19.6499 19.9833 22.6049 19.9833 26.2499C19.9833 29.895 22.9382 32.85 26.5833 32.85Z" fill="white"/>
<path d="M12.2833 20.625C11.2583 20.625 10.4083 21.475 10.4083 22.5V30C10.4083 31.025 11.2583 31.875 12.2833 31.875C13.3083 31.875 14.1583 31.025 14.1583 30V22.5C14.1583 21.475 13.3333 20.625 12.2833 20.625Z" fill="white"/>
<path d="M40.8583 20.625C39.8333 20.625 38.9833 21.475 38.9833 22.5V30C38.9833 31.025 39.8333 31.875 40.8583 31.875C41.8833 31.875 42.7333 31.025 42.7333 30V22.5C42.7333 21.475 41.9083 20.625 40.8583 20.625Z" fill="white"/>
</svg>
