<svg width="60" height="60" viewBox="0 0 60 60" fill="none" xmlns="http://www.w3.org/2000/svg">
<path d="M33.25 20.275L36.55 26.875C37 27.775 38.2 28.675 39.2 28.825L45.1751 29.825C49.0001 30.475 49.9 33.225 47.15 35.975L42.5 40.625C41.725 41.4 41.275 42.925 41.525 44.025L42.8501 49.8C43.9001 54.35 41.4751 56.125 37.4501 53.75L31.85 50.425C30.825 49.825 29.1751 49.825 28.1501 50.425L22.55 53.75C18.525 56.125 16.1 54.35 17.15 49.8L18.4751 44.025C18.7251 42.95 18.275 41.425 17.5 40.625L12.8501 35.975C10.1001 33.225 11 30.45 14.825 29.825L20.8001 28.825C21.8001 28.65 23 27.775 23.45 26.875L26.7501 20.275C28.5251 16.7 31.475 16.7 33.25 20.275Z" fill="#4B1FFC"/>
<path opacity="0.4" d="M15 24.375C13.975 24.375 13.125 23.525 13.125 22.5V5C13.125 3.975 13.975 3.125 15 3.125C16.025 3.125 16.875 3.975 16.875 5V22.5C16.875 23.525 16.025 24.375 15 24.375Z" fill="#4B1FFC"/>
<path opacity="0.4" d="M45 24.375C43.975 24.375 43.125 23.525 43.125 22.5V5C43.125 3.975 43.975 3.125 45 3.125C46.025 3.125 46.875 3.975 46.875 5V22.5C46.875 23.525 46.025 24.375 45 24.375Z" fill="#4B1FFC"/>
<path opacity="0.4" d="M30 11.875C28.975 11.875 28.125 11.025 28.125 10V5C28.125 3.975 28.975 3.125 30 3.125C31.025 3.125 31.875 3.975 31.875 5V10C31.875 11.025 31.025 11.875 30 11.875Z" fill="#4B1FFC"/>
</svg>
