<svg width="60" height="60" viewBox="0 0 60 60" fill="none" xmlns="http://www.w3.org/2000/svg">
<path d="M33.2499 20.275L36.5499 26.875C36.9999 27.775 38.1999 28.675 39.1999 28.825L45.1749 29.825C48.9999 30.475 49.8999 33.225 47.1499 35.975L42.4999 40.625C41.7249 41.4 41.2749 42.925 41.5249 44.025L42.85 49.8C43.9 54.35 41.4749 56.125 37.4499 53.75L31.8499 50.425C30.8249 49.825 29.1749 49.825 28.1499 50.425L22.5499 53.75C18.5249 56.125 16.0999 54.35 17.1499 49.8L18.475 44.025C18.725 42.95 18.2749 41.425 17.4999 40.625L12.85 35.975C10.1 33.225 10.9999 30.45 14.8249 29.825L20.7999 28.825C21.7999 28.65 22.9999 27.775 23.4499 26.875L26.7499 20.275C28.5249 16.7 31.4749 16.7 33.2499 20.275Z" fill="#4B1FFC"/>
<path opacity="0.4" d="M15 24.375C13.975 24.375 13.125 23.525 13.125 22.5V5C13.125 3.975 13.975 3.125 15 3.125C16.025 3.125 16.875 3.975 16.875 5V22.5C16.875 23.525 16.025 24.375 15 24.375Z" fill="#4B1FFC"/>
<path opacity="0.4" d="M45 24.375C43.975 24.375 43.125 23.525 43.125 22.5V5C43.125 3.975 43.975 3.125 45 3.125C46.025 3.125 46.875 3.975 46.875 5V22.5C46.875 23.525 46.025 24.375 45 24.375Z" fill="#4B1FFC"/>
<path opacity="0.4" d="M30 11.875C28.975 11.875 28.125 11.025 28.125 10V5C28.125 3.975 28.975 3.125 30 3.125C31.025 3.125 31.875 3.975 31.875 5V10C31.875 11.025 31.025 11.875 30 11.875Z" fill="#4B1FFC"/>
</svg>
