<svg width="61" height="60" viewBox="0 0 61 60" fill="none" xmlns="http://www.w3.org/2000/svg">
<path opacity="0.4" d="M46.6168 32.1001V44.4251C46.6168 47.6001 44.1418 51.0001 41.1668 52.0001L33.1918 54.6501C31.7918 55.1251 29.5168 55.1251 28.1418 54.6501L20.1668 52.0001C17.1668 51.0001 14.7168 47.6001 14.7168 44.4251L14.7418 32.1001L25.7918 39.3001C28.4918 41.0751 32.9418 41.0751 35.6418 39.3001L46.6168 32.1001Z" fill="white"/>
<path d="M50.6168 16.1499L35.6418 6.3249C32.9418 4.5499 28.4918 4.5499 25.7918 6.3249L10.7418 16.1499C5.9168 19.2749 5.9168 26.3499 10.7418 29.4999L14.7418 32.0999L25.7918 39.2999C28.4918 41.0749 32.9418 41.0749 35.6418 39.2999L46.6168 32.0999L50.0418 29.8499V37.4999C50.0418 38.5249 50.8918 39.3749 51.9168 39.3749C52.9418 39.3749 53.7918 38.5249 53.7918 37.4999V25.1999C54.7918 21.9749 53.7668 18.2249 50.6168 16.1499Z" fill="white"/>
</svg>
