<svg width="60" height="60" viewBox="0 0 60 60" fill="none" xmlns="http://www.w3.org/2000/svg">
<path opacity="0.4" d="M45.95 32.1001V44.4251C45.95 47.6001 43.4751 51.0001 40.5001 52.0001L32.525 54.6501C31.125 55.1251 28.85 55.1251 27.475 54.6501L19.5 52.0001C16.5 51.0001 14.05 47.6001 14.05 44.4251L14.075 32.1001L25.125 39.3001C27.825 41.0751 32.275 41.0751 34.975 39.3001L45.95 32.1001Z" fill="white"/>
<path d="M49.95 16.1499L34.975 6.3249C32.275 4.5499 27.825 4.5499 25.125 6.3249L10.075 16.1499C5.25005 19.2749 5.25005 26.3499 10.075 29.4999L14.075 32.0999L25.125 39.2999C27.825 41.0749 32.275 41.0749 34.975 39.2999L45.95 32.0999L49.375 29.8499V37.4999C49.375 38.5249 50.225 39.3749 51.25 39.3749C52.275 39.3749 53.125 38.5249 53.125 37.4999V25.1999C54.125 21.9749 53.1 18.2249 49.95 16.1499Z" fill="white"/>
</svg>
