<svg width="60" height="60" viewBox="0 0 60 60" fill="none" xmlns="http://www.w3.org/2000/svg">
<path opacity="0.4" d="M45 47.1498H43.1C41.1 47.1498 39.2 47.9248 37.8 49.3248L33.5249 53.5498C31.5749 55.4748 28.4 55.4748 26.45 53.5498L22.175 49.3248C20.775 47.9248 18.85 47.1498 16.875 47.1498H15C10.85 47.1498 7.5 43.8249 7.5 39.7249V12.4498C7.5 8.34983 10.85 5.0249 15 5.0249H45C49.15 5.0249 52.5 8.34983 52.5 12.4498V39.7249C52.5 43.7999 49.15 47.1498 45 47.1498Z" fill="#4B1FFC"/>
<path d="M29.9998 26.0249C33.2169 26.0249 35.8249 23.4171 35.8249 20.2C35.8249 16.983 33.2169 14.375 29.9998 14.375C26.7828 14.375 24.1748 16.983 24.1748 20.2C24.1748 23.4171 26.7828 26.0249 29.9998 26.0249Z" fill="#4B1FFC"/>
<path d="M36.6999 37.65C38.7249 37.65 39.9 35.4 38.775 33.725C37.075 31.2 33.7749 29.5 29.9999 29.5C26.2249 29.5 22.9249 31.2 21.2249 33.725C20.0999 35.4 21.275 37.65 23.3 37.65H36.6999Z" fill="#4B1FFC"/>
</svg>
