<svg width="127" height="19" viewBox="0 0 127 19" fill="none" xmlns="http://www.w3.org/2000/svg">
<g clip-path="url(#clip0_3674_24874)">
<path d="M9.07132 17.2929C9.43645 16.9092 9.76315 16.4294 10.0322 15.8826L11.9634 11.1817L9.26351 4.61951H8.97523C8.51402 4.61951 8.11054 4.70584 7.77422 4.86895C7.41865 5.04159 7.1016 5.2527 6.83255 5.51174C6.56352 5.77078 6.32331 6.06815 6.13113 6.38473C5.92936 6.71092 5.77562 7.02757 5.65071 7.31535C5.44893 7.80463 5.22794 8.34193 4.96851 8.9655C4.7283 9.5507 4.46886 10.184 4.19022 10.8459C3.91157 11.5174 3.63292 12.1795 3.36388 12.803C3.08524 13.4554 2.8162 14.0886 2.56638 14.6833C2.03791 15.9401 1.49983 17.2161 0.952148 18.4921H5.98701C6.69804 18.4921 7.30338 18.3866 7.79339 18.1755C8.28341 17.9741 8.7062 17.6766 9.07132 17.2929Z" fill="#1D1B1B"/>
<path fill-rule="evenodd" clip-rule="evenodd" d="M17.8061 12.0262L15.6153 11.1723C15.5097 11.3066 15.3847 11.4121 15.231 11.4697C15.0004 11.5657 14.741 11.5848 14.4912 11.4889C13.9915 11.297 13.7417 10.731 13.9339 10.2321C14.126 9.73323 14.6929 9.4838 15.1926 9.68526C15.6057 9.84836 15.8459 10.2608 15.8075 10.6734L17.5274 11.345L16.0477 7.68013L14.5969 6.97982C14.3182 7.29641 13.8474 7.40196 13.4535 7.21006C12.9729 6.97982 12.7713 6.3946 13.0019 5.91493C13.2325 5.43518 13.8186 5.23375 14.299 5.46399C14.5392 5.57915 14.7122 5.78057 14.789 6.02041C14.8467 6.17397 14.8563 6.33706 14.8275 6.50015L15.7499 6.95102L14.7314 4.43746C14.568 4.45665 14.4047 4.42786 14.2509 4.36071C14.0203 4.26477 13.8282 4.07289 13.7321 3.83305C13.5303 3.33417 13.7801 2.76814 14.2797 2.57627C14.7794 2.3748 15.3463 2.62424 15.5385 3.12312C15.7018 3.53564 15.5577 3.98656 15.231 4.24558L17.0374 8.7163L17.5659 7.88166C17.4506 7.7569 17.3833 7.61297 17.3449 7.44989C17.2872 7.21006 17.3256 6.94141 17.4698 6.72078C17.758 6.26985 18.3538 6.13556 18.8054 6.41381C19.2569 6.70158 19.3915 7.29641 19.1128 7.74735C18.8823 8.12147 18.4306 8.27496 18.0174 8.1599L17.2872 9.32069L18.69 12.7936L19.574 11.4026C19.4588 11.2778 19.3915 11.1339 19.353 10.9709C19.2954 10.731 19.3339 10.4624 19.4779 10.2417C19.7662 9.79076 20.3619 9.65653 20.8135 9.9347C21.2652 10.2226 21.3996 10.8174 21.1211 11.2682C20.8905 11.6424 20.4389 11.7959 20.0256 11.6808L18.9399 13.3981L20.2659 16.6887H25.3872C25.0171 15.8162 24.6525 14.9546 24.2919 14.1026L24.2913 14.1013C23.9781 13.3611 23.6679 12.6282 23.3598 11.9015C23.2884 11.7318 23.2163 11.5602 23.1435 11.3867L23.1431 11.3858L23.1426 11.3846C22.9315 10.882 22.7137 10.3634 22.4855 9.82912C22.1781 9.10974 21.8704 8.38995 21.5726 7.68013C21.2747 6.97022 20.9865 6.27945 20.7174 5.61748C20.4485 4.95552 20.1986 4.35112 19.968 3.79468C19.8334 3.45889 19.6413 3.09433 19.4107 2.71058C19.1801 2.32683 18.9015 1.98145 18.5651 1.66485C18.2384 1.34826 17.8541 1.08923 17.4122 0.878168C16.9701 0.667101 16.4705 0.571167 15.9036 0.571167H6.84277V0.753448C7.1022 0.753448 7.37127 0.858978 7.64986 1.06045C7.92851 1.27151 8.19761 1.52095 8.45702 1.82795C8.71643 2.13496 8.95659 2.47073 9.1872 2.8257C9.2349 2.90432 9.28163 2.98114 9.32732 3.05619C9.49347 3.32915 9.64523 3.57852 9.7733 3.80427L13.7898 13.5516C14.1164 14.2039 14.4912 14.7604 14.9331 15.2209C15.3751 15.6814 15.8844 16.0363 16.4801 16.2954C17.0758 16.5448 17.7868 16.6792 18.6324 16.6792H19.6894L17.8061 12.0262ZM18.7289 7.13349C18.7481 7.23904 18.7385 7.35413 18.6712 7.45969C18.5367 7.67078 18.2676 7.72831 18.0658 7.60356C17.864 7.46929 17.8064 7.20063 17.9313 6.9992C18.0658 6.79769 18.3349 6.74015 18.5367 6.86484C18.6424 6.92245 18.7001 7.02794 18.7289 7.13349ZM20.7192 10.6545C20.7385 10.7601 20.7289 10.8752 20.6616 10.9808C20.5367 11.1822 20.2677 11.2493 20.0562 11.1246C19.8544 10.9903 19.7968 10.7217 19.9217 10.5202C20.0562 10.3187 20.3252 10.2612 20.5271 10.3859C20.6328 10.4435 20.6904 10.549 20.7192 10.6545ZM13.4951 6.146C13.6008 5.93496 13.8602 5.83901 14.0813 5.94457C14.2926 6.05005 14.3888 6.3187 14.2831 6.52981C14.1774 6.74085 13.9179 6.8368 13.6969 6.73124C13.5912 6.68331 13.5143 6.58735 13.4759 6.4818C13.4374 6.37632 13.447 6.25156 13.4951 6.146ZM15.0106 10.1841C14.8953 10.1362 14.78 10.1457 14.6743 10.1938C14.5686 10.2417 14.4822 10.3184 14.4437 10.4336C14.3573 10.6542 14.4725 10.9133 14.6936 10.9996C14.9146 11.086 15.174 10.9709 15.2605 10.7502C15.3469 10.5295 15.2316 10.2801 15.0106 10.1841ZM14.4934 3.06588C14.6087 3.02749 14.7241 3.02749 14.8297 3.07547C14.9258 3.11385 15.0123 3.20019 15.0603 3.31532C15.1469 3.53599 15.0315 3.79503 14.8105 3.88137C14.5896 3.96772 14.3301 3.85259 14.2436 3.63193C14.1571 3.41126 14.2724 3.15222 14.4934 3.06588Z" fill="#1D1B1B"/>
<path d="M42.0368 14.4074L42.0656 14.3883C42.0944 14.369 42.1136 14.3498 42.1232 14.3115C42.1425 14.2539 42.152 14.1963 42.152 14.1388V4.46826C42.152 4.4011 42.1425 4.35314 42.1232 4.30517C42.104 4.26678 42.0848 4.23801 42.0368 4.19963L42.008 4.18045C41.9886 4.16126 41.9598 4.14207 41.931 4.14207C41.8446 4.12289 41.7965 4.12289 41.7677 4.12289H40.4897C40.3648 4.12289 40.3072 4.13248 40.2881 4.13248C40.2784 4.13248 40.2687 4.14207 40.2687 4.14207C40.2687 4.14207 40.2399 4.17085 40.2111 4.24761C40.1727 4.33395 40.1342 4.44907 40.0766 4.58338L39.6538 5.91692L39.3175 5.43725C39.1734 5.23575 39.0101 5.03432 38.8179 4.86161C38.6257 4.68892 38.4143 4.53541 38.1837 4.41069C37.9531 4.28598 37.6841 4.18045 37.4054 4.11329C37.1268 4.03654 36.8097 3.99817 36.483 3.99817C35.7432 3.99817 35.0417 4.13248 34.398 4.41069C33.7542 4.67932 33.1873 5.06306 32.7069 5.54273C32.2264 6.02248 31.8517 6.58849 31.573 7.24086C31.2944 7.88361 31.1599 8.59364 31.1599 9.35151C31.1599 9.85038 31.2271 10.3397 31.352 10.7905C31.477 11.2511 31.6595 11.6828 31.8902 12.0762C32.1208 12.4695 32.3994 12.8341 32.7164 13.1602C33.0336 13.4865 33.3987 13.7646 33.7927 13.9949C34.1865 14.2251 34.6093 14.4074 35.061 14.5321C35.5126 14.6569 35.993 14.724 36.483 14.724C36.7521 14.724 37.0115 14.6952 37.2613 14.6281C37.5111 14.5609 37.7513 14.4746 37.9723 14.369C38.1933 14.2635 38.3951 14.1388 38.5777 13.9949C38.7602 13.851 38.9332 13.7071 39.0773 13.5632L39.4232 13.2178L39.6635 14.062C39.6923 14.158 39.7307 14.2348 39.7595 14.3211C39.7787 14.3786 39.8075 14.4171 39.8268 14.4554C39.846 14.4746 39.8653 14.4938 39.8941 14.5034C39.9132 14.5129 39.9709 14.5321 40.0766 14.5321H41.7773C41.8061 14.5321 41.8637 14.5321 41.9407 14.5129C41.9695 14.5034 41.9983 14.4938 42.0176 14.4746L42.0368 14.4074ZM39.231 10.5027C39.0773 10.8673 38.8659 11.1839 38.5969 11.4525C38.3279 11.7211 38.0108 11.9323 37.6456 12.0858C37.2805 12.2393 36.8866 12.316 36.4638 12.316C36.0506 12.316 35.6663 12.2393 35.3204 12.0762C34.9841 11.9227 34.6862 11.702 34.4364 11.4333C34.1962 11.1647 34.004 10.8481 33.8792 10.4836C33.7542 10.1286 33.687 9.73525 33.687 9.32271C33.687 8.92941 33.7542 8.53597 33.8792 8.18109C34.004 7.81645 34.1962 7.4903 34.4364 7.21205C34.6766 6.93388 34.9745 6.70358 35.3204 6.54048C35.6663 6.37739 36.0506 6.29104 36.4638 6.29104C36.8866 6.29104 37.2901 6.37739 37.6553 6.53096C38.0204 6.69404 38.3375 6.91467 38.6065 7.19293C38.8755 7.4711 39.0869 7.79728 39.2407 8.16185C39.3944 8.52648 39.4713 8.91978 39.4713 9.32271C39.4616 9.75443 39.3848 10.1478 39.231 10.5027Z" fill="#1D1B1B"/>
<path d="M53.4568 15.4817C53.7355 14.8197 53.8699 14.0522 53.8699 13.2079V4.46799C53.8699 4.41043 53.8604 4.36246 53.8411 4.3241C53.8219 4.28572 53.7931 4.24734 53.7643 4.22815C53.7258 4.19938 53.6778 4.17059 53.6298 4.15141C53.5817 4.13222 53.5337 4.12262 53.4856 4.12262H52.2076C52.1019 4.12262 52.0539 4.13222 52.0348 4.14181C51.9963 4.161 51.977 4.17059 51.9675 4.18019C51.9482 4.20897 51.9194 4.24734 51.9098 4.29531C51.8809 4.37206 51.8521 4.45841 51.8137 4.55434L51.4102 5.82071L51.0738 5.40818C50.9105 5.20675 50.728 5.01485 50.5454 4.83256C50.3628 4.65987 50.1514 4.50637 49.9304 4.38166C49.7094 4.25694 49.4596 4.1514 49.1906 4.07466C48.9215 3.9979 48.6237 3.96912 48.297 3.96912C47.5667 3.96912 46.8845 4.10343 46.2599 4.38166C45.6355 4.65028 45.0974 5.03406 44.6458 5.51373C44.1942 5.9934 43.829 6.55943 43.5792 7.20226C43.3198 7.845 43.1948 8.55496 43.1948 9.30328C43.1948 10.0516 43.3198 10.7423 43.5792 11.3659C43.829 11.9799 44.1942 12.5267 44.6361 12.9681C45.0877 13.4094 45.6355 13.7644 46.2504 14.0138C46.875 14.2632 47.5572 14.388 48.297 14.388C48.6141 14.388 48.8927 14.3496 49.1329 14.2728C49.3731 14.1961 49.5845 14.1001 49.7767 13.9755C49.9689 13.8507 50.1419 13.7068 50.3052 13.5533C50.4686 13.3902 50.6415 13.2079 50.8048 13.0352L51.3044 12.5076V13.3518C51.3044 13.3614 51.3044 13.3614 51.3044 13.371C51.3141 13.3998 51.3141 13.4382 51.3141 13.4766V13.5917C51.3141 13.7452 51.3044 13.8987 51.2948 14.0426C51.2852 14.1961 51.2468 14.3496 51.2084 14.484C51.1219 14.7813 50.9777 15.0404 50.7568 15.2706C50.555 15.4817 50.3148 15.6735 50.0457 15.8175C49.7767 15.9613 49.4884 16.0765 49.1906 16.1532C48.8927 16.23 48.5949 16.2683 48.3162 16.2683C48.1529 16.2683 47.9703 16.2588 47.7781 16.2492C47.5668 16.23 47.3554 16.2012 47.144 16.1436C46.9326 16.0956 46.7212 16.0189 46.5194 15.9325C46.3081 15.8367 46.1255 15.7119 45.9622 15.5584C45.7699 15.424 45.6931 15.4146 45.6738 15.4146C45.645 15.4146 45.6259 15.424 45.6065 15.4337C45.5777 15.4528 45.5201 15.4913 45.4529 15.568L44.6458 16.6809C44.5785 16.7864 44.54 16.8824 44.54 16.9687C44.54 17.0262 44.5497 17.0838 44.5882 17.1318C44.6265 17.1989 44.6746 17.247 44.7322 17.2949L44.7515 17.3141C44.9821 17.5155 45.2607 17.7074 45.5682 17.8609C45.8853 18.024 46.212 18.1584 46.5483 18.2543C46.8845 18.3598 47.2305 18.4365 47.5667 18.4941C47.9031 18.5421 48.2297 18.5709 48.518 18.5709C49.2771 18.5709 49.9977 18.4461 50.6511 18.2063C51.3044 17.9665 51.8809 17.6211 52.3518 17.1701C52.7937 16.7 53.1782 16.1436 53.4568 15.4817ZM51.4775 9.46632C51.4582 9.85975 51.3621 10.2339 51.2084 10.5793C51.045 10.915 50.8336 11.222 50.5646 11.4714C50.2956 11.7209 49.9785 11.9224 49.623 12.0663C49.2674 12.2101 48.8831 12.2773 48.4796 12.2773C48.0664 12.2773 47.6821 12.2006 47.3458 12.0471C46.9999 11.8936 46.7116 11.6825 46.4618 11.4139C46.2216 11.1453 46.0293 10.8287 45.9044 10.4641C45.7796 10.1091 45.7123 9.71575 45.7123 9.30328C45.7123 8.90991 45.7796 8.51661 45.9044 8.16159C46.0293 7.79702 46.2216 7.47083 46.4618 7.20226C46.702 6.92402 46.9999 6.70339 47.3361 6.54022C47.6821 6.37713 48.0664 6.29078 48.4796 6.29078C48.8831 6.29078 49.2675 6.3676 49.6326 6.52109C49.9881 6.67458 50.3052 6.88561 50.5646 7.14465C50.8241 7.40369 51.045 7.71069 51.2084 8.05608C51.3717 8.40148 51.4582 8.76605 51.4775 9.15935V9.16897V9.46632Z" fill="#1D1B1B"/>
<path d="M63.8488 5.30377C63.8488 5.21742 63.7719 5.13107 63.6182 5.04473L63.5894 5.02552C63.3395 4.84323 63.109 4.68973 62.9072 4.55542C62.7054 4.4307 62.5036 4.32516 62.3018 4.23882C62.1 4.16208 61.8886 4.09492 61.6677 4.05654C61.4467 4.01817 61.1776 3.98938 60.8894 3.98938C60.6299 3.98938 60.3993 4.02776 60.1976 4.10451C59.9862 4.18126 59.5634 4.41151 59.3904 4.54582C58.737 5.06386 58.3047 5.75463 58.3047 5.75463C58.3047 5.75463 57.8627 4.56501 57.8051 4.44988C57.7569 4.35394 57.709 4.2676 57.6417 4.21004C57.632 4.20044 57.5936 4.16208 57.4975 4.16208H56.2004C56.1524 4.16208 56.0947 4.17166 56.037 4.19085C55.9891 4.21004 55.9409 4.22922 55.9025 4.25801C55.8737 4.2868 55.8449 4.31557 55.8257 4.35394C55.8064 4.39232 55.7969 4.44988 55.7969 4.50745V14.1108C55.7969 14.389 55.893 14.485 56.1812 14.485H58.1125C58.2663 14.485 58.3815 14.4562 58.4296 14.4083C58.4969 14.3411 58.5065 14.2067 58.5065 14.1108V7.81729L58.5449 7.75013C58.6697 7.54867 58.7947 7.36642 58.9197 7.19373C59.0542 7.02103 59.1983 6.85794 59.352 6.73318C59.5154 6.5989 59.6979 6.49335 59.8997 6.4166C60.1015 6.33985 60.3321 6.30145 60.5915 6.30145C60.9566 6.30145 61.2929 6.36866 61.5812 6.50295C61.8502 6.6277 62.1192 6.80992 62.3787 7.05936C62.4652 7.09777 62.542 7.10737 62.6093 7.10737C62.6957 7.10737 62.8111 7.08817 62.9456 6.90588L63.7239 5.58194C63.8392 5.43805 63.8488 5.3421 63.8488 5.30377Z" fill="#1D1B1B"/>
<path d="M73.1036 13.1417C73.4207 12.8252 73.7094 12.4606 73.9399 12.0673C74.1705 11.674 74.3532 11.2422 74.4778 10.7817C74.6025 10.3212 74.6703 9.84151 74.6703 9.34264C74.6703 8.59432 74.5263 7.88436 74.2473 7.24159C73.969 6.59883 73.5841 6.02321 73.1036 5.54347C72.6238 5.0638 72.0568 4.68965 71.4033 4.41143C70.7595 4.1428 70.0582 3.9989 69.3181 3.9989C68.8186 3.9989 68.3381 4.06606 67.877 4.19078C67.4158 4.3155 66.9833 4.49778 66.5893 4.71843C66.1954 4.94869 65.8303 5.22688 65.5132 5.54347C65.1865 5.86972 64.9079 6.22464 64.6773 6.61804C64.4467 7.01136 64.2641 7.4431 64.1392 7.90354C64.0143 8.36406 63.947 8.84376 63.947 9.34264C63.947 9.84151 64.0143 10.3212 64.1392 10.7817C64.2641 11.2422 64.4467 11.674 64.6773 12.0673C64.9079 12.4606 65.1865 12.8252 65.5132 13.1417C65.8303 13.468 66.1954 13.7462 66.5893 13.9765C66.9833 14.2067 67.4158 14.3889 67.877 14.5136C68.3381 14.6384 68.8186 14.7055 69.3181 14.7055C69.8082 14.7055 70.2887 14.6384 70.7401 14.5136C71.1922 14.3889 71.6242 14.2067 72.0181 13.9765C72.4217 13.7366 72.7872 13.4583 73.1036 13.1417ZM71.8263 10.4843C71.701 10.8489 71.5182 11.1655 71.2877 11.4341C71.0572 11.7027 70.7595 11.9234 70.423 12.0769C70.0865 12.2304 69.7023 12.3167 69.2894 12.3167C68.8666 12.3167 68.4726 12.2399 68.1364 12.0769C67.7904 11.9234 67.5022 11.7027 67.2619 11.4341C67.0218 11.1655 66.8392 10.8489 66.7046 10.4843C66.5797 10.1293 66.5125 9.73601 66.5125 9.32346C66.5125 8.93016 66.5797 8.53672 66.7046 8.18184C66.8297 7.81721 67.0218 7.49104 67.2524 7.21279C67.4925 6.93462 67.7904 6.70431 68.1268 6.54122C68.4726 6.37813 68.8569 6.29178 69.2894 6.29178C69.7023 6.29178 70.0865 6.37813 70.423 6.54122C70.7595 6.70431 71.0475 6.93462 71.2877 7.21279C71.5182 7.49104 71.701 7.81721 71.8166 8.18184C71.9412 8.54634 71.9987 8.92054 71.9987 9.32346C72.0084 9.74556 71.9509 10.1293 71.8263 10.4843Z" fill="#1D1B1B"/>
<path d="M81.051 6.50277C81.1084 6.44523 81.1375 6.33969 81.1375 6.17659V4.51685C81.1375 4.38255 81.1084 4.28661 81.051 4.23864C81.0129 4.20026 80.9457 4.15229 80.8017 4.15229H79.3306L79.3403 1.50441C79.3403 1.3605 79.3209 1.24537 79.2731 1.16863C79.2634 1.14944 79.206 1.13025 79.1001 1.13025H79.0232H79.0142L77.0834 1.80181C76.8999 1.86897 76.7559 1.94572 76.6597 2.01288C76.641 2.02248 76.6022 2.06084 76.6022 2.18556L76.5925 4.16189H75.4204C75.1421 4.16189 75.0459 4.24823 75.0459 4.52645V6.18619C75.0459 6.53158 75.1802 6.58912 75.4204 6.58912H76.5925L76.6022 14.1202C76.6022 14.3985 76.6887 14.4944 76.9767 14.4944H78.918C79.0717 14.4944 79.1769 14.4656 79.2537 14.3984C79.2731 14.3793 79.35 14.3121 79.35 14.1202L79.3403 6.58912H80.8107C80.9457 6.57952 81.0129 6.53158 81.051 6.50277Z" fill="#1D1B1B"/>
<path d="M91.4719 13.1417C91.7882 12.8252 92.0769 12.4606 92.3068 12.0673C92.538 11.674 92.7208 11.2422 92.8454 10.7817C92.97 10.3212 93.0379 9.84151 93.0379 9.34264C93.0379 8.59432 92.8939 7.88436 92.6149 7.24159C92.3359 6.59883 91.9516 6.02321 91.4719 5.54347C90.9907 5.0638 90.4244 4.68965 89.7709 4.41143C89.127 4.1428 88.4257 3.9989 87.6856 3.9989C87.1858 3.9989 86.706 4.06606 86.2442 4.19078C85.7832 4.3155 85.3505 4.49778 84.9565 4.71843C84.5633 4.94869 84.1978 5.22688 83.8807 5.54347C83.5539 5.86972 83.2756 6.22464 83.0444 6.61804C82.8139 7.01136 82.6318 7.4431 82.5065 7.90354C82.3819 8.36406 82.3147 8.84376 82.3147 9.34264C82.3147 9.84151 82.3819 10.3212 82.5065 10.7817C82.6318 11.2422 82.8139 11.674 83.0444 12.0673C83.2756 12.4606 83.5539 12.8252 83.8807 13.1417C84.2068 13.468 84.5633 13.7462 84.9565 13.9765C85.3505 14.2067 85.7832 14.3889 86.2442 14.5136C86.706 14.6384 87.1858 14.7055 87.6856 14.7055C88.1758 14.7055 88.6562 14.6384 89.1083 14.5136C89.559 14.3889 89.9917 14.2067 90.3856 13.9765C90.7892 13.7366 91.1444 13.4583 91.4719 13.1417ZM90.1939 10.4843C90.0685 10.8489 89.8858 11.1655 89.6552 11.4341C89.4247 11.7027 89.127 11.9234 88.7905 12.0769C88.4541 12.2304 88.0705 12.3167 87.6565 12.3167C87.2342 12.3167 86.8403 12.2399 86.5039 12.0769C86.1577 11.9234 85.8697 11.7027 85.6295 11.4341C85.3892 11.1655 85.2065 10.8489 85.0722 10.4843C84.9475 10.1293 84.8797 9.73601 84.8797 9.32346C84.8797 8.93016 84.9475 8.53672 85.0722 8.18184C85.1968 7.81721 85.3892 7.49104 85.6205 7.21279C85.86 6.93462 86.1577 6.70431 86.4942 6.54122C86.8403 6.37813 87.2245 6.29178 87.6565 6.29178C88.0705 6.29178 88.4541 6.37813 88.7905 6.54122C89.127 6.70431 89.415 6.93462 89.6552 7.21279C89.8858 7.49104 90.0685 7.81721 90.1842 8.18184C90.3088 8.54634 90.3669 8.93016 90.3669 9.32346C90.3759 9.74556 90.3185 10.1293 90.1939 10.4843Z" fill="#1D1B1B"/>
<path d="M101.517 14.168C101.632 14.3312 101.709 14.4079 101.757 14.4559C101.805 14.4943 101.834 14.4943 101.844 14.4943H104.746C104.87 14.4943 104.88 14.3887 104.861 14.3408C104.842 14.3024 104.813 14.2544 104.765 14.2065L100.163 8.2871L103.862 4.3824C103.919 4.31524 103.938 4.28647 103.938 4.27687C103.938 4.27687 103.938 4.26727 103.938 4.24808C103.938 4.20971 103.929 4.20011 103.929 4.20011C103.929 4.20011 103.891 4.17134 103.756 4.17134H101.114C100.989 4.17134 100.893 4.2193 100.796 4.32483L97.1933 8.3159V1.21646C97.1933 1.17808 97.1836 1.1397 97.1739 1.09174C97.1642 1.06295 97.1545 1.04376 97.1358 1.01498C97.1165 0.995795 97.0971 0.976605 97.059 0.957422C97.0396 0.947828 97.0008 0.938232 96.9247 0.938232H94.8678C94.6955 0.938232 94.6089 0.957422 94.5701 0.967017C94.5224 0.9862 94.503 1.00539 94.503 1.00539C94.4933 1.01498 94.4933 1.02458 94.4836 1.06295C94.4746 1.1397 94.4746 1.21646 94.4746 1.31239V14.2065C94.4746 14.216 94.4836 14.2352 94.4933 14.2544C94.503 14.2928 94.5321 14.3408 94.5605 14.3887C94.5798 14.4271 94.6186 14.4655 94.6664 14.4943C94.6858 14.5038 94.7045 14.5231 94.7626 14.5231H96.9247C96.9821 14.5231 97.0299 14.5134 97.0493 14.4943C97.0874 14.4655 97.1165 14.4367 97.1455 14.3983C97.1739 14.36 97.1836 14.312 97.1933 14.2736C97.203 14.1968 97.2127 14.1584 97.2127 14.1489V11.2611L98.49 9.93721L101.517 14.168Z" fill="#1D1B1B"/>
<path d="M114.579 9.57237C114.589 9.39015 114.589 9.15034 114.589 8.85285C114.589 8.42113 114.531 7.99903 114.407 7.59611C114.281 7.19316 114.109 6.79983 113.888 6.44484C113.667 6.08985 113.397 5.75407 113.091 5.44709C112.783 5.14011 112.436 4.88107 112.072 4.67C111.697 4.45894 111.303 4.28625 110.88 4.16153C110.458 4.04641 110.025 3.97925 109.574 3.97925C109.083 3.97925 108.613 4.04641 108.171 4.17113C107.729 4.29585 107.315 4.48772 106.932 4.71797C106.557 4.94822 106.211 5.23606 105.903 5.56224C105.595 5.88843 105.336 6.25295 105.115 6.64634C104.904 7.03967 104.731 7.46181 104.616 7.90315C104.5 8.34442 104.442 8.81457 104.442 9.2942C104.442 10.0521 104.587 10.7717 104.885 11.4144C105.173 12.0668 105.576 12.6329 106.076 13.1126C106.575 13.5923 107.162 13.9759 107.824 14.2446C108.488 14.5132 109.199 14.6571 109.939 14.6571C110.602 14.6571 111.235 14.5324 111.831 14.2926C112.427 14.0432 112.975 13.6978 113.446 13.2564L113.474 13.2372C113.541 13.1893 113.59 13.1413 113.638 13.0741C113.657 13.055 113.676 13.0166 113.676 12.9494C113.676 12.911 113.676 12.8823 113.657 12.8439C113.657 12.8439 113.647 12.8151 113.59 12.748L112.687 11.731C112.61 11.6543 112.533 11.5871 112.475 11.5488C112.446 11.5296 112.427 11.52 112.408 11.52C112.379 11.52 112.36 11.5296 112.341 11.5391C112.302 11.5584 112.245 11.5967 112.158 11.6735C112.043 11.7886 111.88 11.9037 111.697 12.0092C111.515 12.1148 111.312 12.2011 111.091 12.2779C110.88 12.3546 110.65 12.4121 110.42 12.4602C110.189 12.5081 109.948 12.5273 109.727 12.5273C109.478 12.5273 109.209 12.4889 108.93 12.4218C108.641 12.3546 108.363 12.2299 108.114 12.0668C107.853 11.9037 107.623 11.6735 107.431 11.4048C107.229 11.1267 107.095 10.7717 107.037 10.3687L106.989 10.033H113.513C113.849 10.033 114.109 10.0137 114.272 9.97543C114.349 9.95618 114.455 9.91776 114.502 9.86023C114.551 9.8027 114.579 9.70674 114.579 9.57237ZM106.97 8.18131L107.162 7.76877C107.258 7.55775 107.392 7.34665 107.556 7.13562C107.719 6.93412 107.892 6.7423 108.094 6.5792C108.296 6.41603 108.517 6.28175 108.747 6.18581C108.987 6.08033 109.247 6.03231 109.507 6.03231C109.842 6.03231 110.15 6.08033 110.41 6.1666C110.669 6.25295 110.909 6.3873 111.111 6.5504C111.312 6.70389 111.486 6.89578 111.649 7.10681C111.793 7.30831 111.937 7.52895 112.062 7.75921L112.292 8.18131H106.97Z" fill="#1D1B1B"/>
<path d="M123.324 14.445C123.324 14.445 123.391 14.493 123.631 14.493H125.621C125.698 14.493 125.803 14.4834 125.851 14.4258C125.899 14.3682 125.927 14.2627 125.927 14.1188V8.49686C125.927 7.87323 125.842 7.27846 125.659 6.73158C125.486 6.18476 125.227 5.70509 124.89 5.30209C124.564 4.89918 124.15 4.58258 123.679 4.35234C123.209 4.12208 122.66 4.00696 122.056 4.00696C121.623 4.00696 121.229 4.05493 120.883 4.15087C120.538 4.2468 120.22 4.35234 119.961 4.50583C118.923 5.1486 118.597 6.16556 118.597 6.16556L118.231 4.64015C118.202 4.5634 118.174 4.48664 118.154 4.4195C118.135 4.37152 118.106 4.32356 118.077 4.28518C118.049 4.2564 118.02 4.22762 117.981 4.20843C117.953 4.18924 117.905 4.17965 117.847 4.17965H116.55C116.493 4.17965 116.434 4.18924 116.367 4.19883C116.339 4.20843 116.3 4.21802 116.272 4.2468L116.281 4.2564C116.243 4.28518 116.214 4.31396 116.185 4.36192C116.156 4.4099 116.146 4.46746 116.146 4.52503V14.1284C116.146 14.2531 116.176 14.349 116.233 14.4162C116.281 14.4738 116.396 14.5026 116.55 14.5026H118.491C118.549 14.5026 118.606 14.493 118.645 14.4834C118.683 14.4738 118.722 14.4546 118.77 14.4258C118.779 14.4162 118.808 14.397 118.827 14.3395C118.856 14.2723 118.866 14.2148 118.866 14.1476V8.54476C118.885 8.24742 118.971 7.95956 119.115 7.71012C119.249 7.46069 119.423 7.24966 119.625 7.05776C119.827 6.87546 120.057 6.73158 120.297 6.62603C120.835 6.39579 121.364 6.4246 121.864 6.63563C122.123 6.74118 122.363 6.89467 122.575 7.08657C122.786 7.27846 122.95 7.4991 123.084 7.74854C123.218 8.0076 123.286 8.28577 123.286 8.57356V14.1668C123.286 14.3874 123.324 14.445 123.324 14.445Z" fill="#1D1B1B"/>
</g>
<defs>
<clipPath id="clip0_3674_24874">
<rect width="126" height="18" fill="white" transform="translate(0.44043 0.571167)"/>
</clipPath>
</defs>
</svg>
