<svg width="127" height="19" viewBox="0 0 127 19" fill="none" xmlns="http://www.w3.org/2000/svg">
<g clip-path="url(#clip0_3674_28067)">
<path d="M9.46561 17.0367C9.83073 16.6529 10.1574 16.1732 10.4265 15.6264L12.3577 10.9255L9.6578 4.36328H9.36952C8.9083 4.36328 8.50483 4.44962 8.1685 4.61272C7.81293 4.78537 7.49588 4.99647 7.22684 5.25551C6.95781 5.51455 6.71759 5.81193 6.52542 6.12851C6.32365 6.45469 6.16991 6.77135 6.04499 7.05912C5.84322 7.54841 5.62222 8.08571 5.36279 8.70927C5.12258 9.29448 4.86315 9.92773 4.58451 10.5896C4.30586 11.2612 4.02721 11.9232 3.75817 12.5468C3.47952 13.1992 3.21049 13.8323 2.96067 14.4271C2.4322 15.6839 1.89412 16.9599 1.34644 18.2358H6.3813C7.09233 18.2358 7.69767 18.1304 8.18768 17.9192C8.6777 17.7179 9.10049 17.4204 9.46561 17.0367Z" fill="#1D1B1B"/>
<path fill-rule="evenodd" clip-rule="evenodd" d="M18.2002 11.7699L16.0095 10.916C15.9039 11.0504 15.7789 11.1559 15.6251 11.2135C15.3945 11.3095 15.1351 11.3286 14.8853 11.2327C14.3856 11.0408 14.1358 10.4748 14.328 9.97589C14.5201 9.47701 15.0871 9.22757 15.5868 9.42903C15.9999 9.59214 16.24 10.0046 16.2017 10.4172L17.9216 11.0888L16.4419 7.4239L14.9911 6.7236C14.7123 7.04018 14.2416 7.14573 13.8476 6.95383C13.3671 6.7236 13.1654 6.13838 13.396 5.6587C13.6267 5.17896 14.2128 4.97753 14.6932 5.20776C14.9334 5.32292 15.1063 5.52435 15.1832 5.76418C15.2408 5.91774 15.2505 6.08084 15.2217 6.24393L16.144 6.69479L15.1256 4.18123C14.9622 4.20042 14.7989 4.17163 14.6451 4.10449C14.4145 4.00855 14.2223 3.81667 14.1262 3.57682C13.9244 3.07795 14.1743 2.51192 14.6739 2.32004C15.1735 2.11858 15.7405 2.36801 15.9327 2.86689C16.096 3.27942 15.9518 3.73033 15.6251 3.98936L17.4316 8.46008L17.9601 7.62543C17.8447 7.50068 17.7775 7.35675 17.7391 7.19367C17.6814 6.95383 17.7198 6.68519 17.864 6.46456C18.1522 6.01362 18.7479 5.87934 19.1995 6.15758C19.6511 6.44535 19.7857 7.04018 19.507 7.49112C19.2764 7.86525 18.8248 8.01873 18.4116 7.90367L17.6814 9.06446L19.0842 12.5374L19.9682 11.1464C19.8529 11.0216 19.7857 10.8777 19.7472 10.7146C19.6896 10.4748 19.728 10.2061 19.8721 9.98551C20.1604 9.53454 20.7561 9.4003 21.2077 9.67847C21.6594 9.96633 21.7938 10.5612 21.5152 11.012C21.2846 11.3862 20.833 11.5397 20.4198 11.4245L19.3341 13.1419L20.66 16.4325H25.7814C25.4113 15.56 25.0466 14.6984 24.6861 13.8464L24.6855 13.8451C24.3722 13.1049 24.0621 12.372 23.7539 11.6452C23.6826 11.4756 23.6105 11.304 23.5377 11.1305L23.5372 11.1295L23.5368 11.1284C23.3257 10.6258 23.1079 10.1072 22.8796 9.57289C22.5722 8.85352 22.2646 8.13372 21.9668 7.4239C21.6689 6.714 21.3806 6.02322 21.1116 5.36125C20.8426 4.6993 20.5928 4.09489 20.3622 3.53845C20.2276 3.20267 20.0355 2.8381 19.8049 2.45435C19.5743 2.07061 19.2956 1.72523 18.9593 1.40863C18.6326 1.09204 18.2483 0.833008 17.8063 0.621942C17.3643 0.410876 16.8646 0.314941 16.2978 0.314941H7.23694V0.497223C7.49637 0.497223 7.76544 0.602752 8.04402 0.804224C8.32268 1.01529 8.59178 1.26472 8.85119 1.57173C9.11059 1.87873 9.35075 2.21451 9.58136 2.56948C9.62906 2.64809 9.67579 2.72492 9.72149 2.79997C9.88764 3.07293 10.0394 3.3223 10.1675 3.54805L14.184 13.2954C14.5105 13.9477 14.8853 14.5041 15.3273 14.9647C15.7693 15.4252 16.2785 15.7801 16.8743 16.0392C17.47 16.2886 18.181 16.4229 19.0266 16.4229H20.0835L18.2002 11.7699ZM19.123 6.87727C19.1423 6.98282 19.1326 7.09791 19.0654 7.20346C18.9308 7.41456 18.6618 7.47209 18.46 7.34733C18.2582 7.21307 18.2006 6.94441 18.3255 6.74298C18.46 6.54147 18.7291 6.48393 18.9308 6.60861C19.0366 6.66623 19.0942 6.77171 19.123 6.87727ZM21.1134 10.3983C21.1327 10.5038 21.123 10.619 21.0557 10.7245C20.9308 10.926 20.6618 10.9931 20.4504 10.8684C20.2486 10.7341 20.191 10.4655 20.3159 10.264C20.4504 10.0625 20.7194 10.005 20.9212 10.1297C21.0269 10.1872 21.0845 10.2928 21.1134 10.3983ZM13.8892 5.88978C13.995 5.67873 14.2544 5.58279 14.4754 5.68834C14.6868 5.79382 14.7829 6.06247 14.6772 6.27358C14.5715 6.48462 14.3121 6.58057 14.0911 6.47502C13.9854 6.42708 13.9085 6.33113 13.8701 6.22557C13.8316 6.12009 13.8412 5.99533 13.8892 5.88978ZM15.4048 9.92791C15.2894 9.87993 15.1742 9.88949 15.0685 9.93753C14.9628 9.98544 14.8763 10.0622 14.8378 10.1773C14.7514 10.398 14.8667 10.657 15.0878 10.7434C15.3088 10.8298 15.5682 10.7146 15.6547 10.4939C15.7411 10.2733 15.6258 10.0239 15.4048 9.92791ZM14.8876 2.80965C15.0029 2.77127 15.1182 2.77127 15.2239 2.81925C15.32 2.85762 15.4065 2.94397 15.4545 3.0591C15.541 3.27976 15.4257 3.5388 15.2047 3.62515C14.9837 3.71149 14.7242 3.59637 14.6378 3.3757C14.5513 3.15504 14.6666 2.896 14.8876 2.80965Z" fill="#1D1B1B"/>
<path d="M42.431 14.1512L42.4598 14.132C42.4886 14.1128 42.5079 14.0936 42.5175 14.0553C42.5368 13.9977 42.5463 13.9401 42.5463 13.8826V4.21203C42.5463 4.14487 42.5368 4.09691 42.5175 4.04894C42.4983 4.01056 42.4791 3.98179 42.431 3.9434L42.4022 3.92422C42.3829 3.90503 42.3541 3.88584 42.3253 3.88584C42.2389 3.86666 42.1908 3.86666 42.162 3.86666H40.884C40.7591 3.86666 40.7015 3.87625 40.6823 3.87625C40.6726 3.87625 40.663 3.88584 40.663 3.88584C40.663 3.88584 40.6342 3.91463 40.6054 3.99138C40.567 4.07772 40.5285 4.19284 40.4709 4.32716L40.0481 5.66069L39.7118 5.18102C39.5677 4.97953 39.4043 4.7781 39.2122 4.60538C39.02 4.43269 38.8086 4.27919 38.578 4.15447C38.3474 4.02975 38.0784 3.92422 37.7997 3.85707C37.5211 3.78031 37.204 3.74194 36.8773 3.74194C36.1375 3.74194 35.436 3.87626 34.7923 4.15447C34.1485 4.4231 33.5816 4.80683 33.1012 5.2865C32.6207 5.76625 32.246 6.33227 31.9673 6.98464C31.6887 7.62738 31.5542 8.33741 31.5542 9.09528C31.5542 9.59416 31.6214 10.0835 31.7463 10.5343C31.8713 10.9948 32.0538 11.4266 32.2844 11.8199C32.5151 12.2132 32.7937 12.5779 33.1107 12.904C33.4279 13.2302 33.793 13.5084 34.187 13.7387C34.5808 13.9689 35.0036 14.1512 35.4553 14.2759C35.9069 14.4006 36.3873 14.4678 36.8773 14.4678C37.1464 14.4678 37.4058 14.439 37.6556 14.3718C37.9054 14.3047 38.1456 14.2184 38.3666 14.1128C38.5876 14.0073 38.7894 13.8826 38.972 13.7387C39.1545 13.5947 39.3275 13.4509 39.4716 13.3069L39.8175 12.9615L40.0577 13.8058C40.0865 13.9018 40.125 13.9785 40.1538 14.0649C40.173 14.1224 40.2018 14.1608 40.2211 14.1992C40.2403 14.2184 40.2595 14.2375 40.2883 14.2472C40.3075 14.2567 40.3652 14.2759 40.4709 14.2759H42.1716C42.2004 14.2759 42.258 14.2759 42.3349 14.2567C42.3637 14.2472 42.3926 14.2375 42.4119 14.2184L42.431 14.1512ZM39.6253 10.2465C39.4716 10.6111 39.2602 10.9277 38.9912 11.1963C38.7221 11.4649 38.4051 11.6761 38.0399 11.8295C37.6748 11.983 37.2809 12.0597 36.8581 12.0597C36.4449 12.0597 36.0606 11.983 35.7147 11.8199C35.3784 11.6664 35.0805 11.4457 34.8307 11.1771C34.5904 10.9085 34.3983 10.5919 34.2734 10.2273C34.1485 9.87233 34.0813 9.47903 34.0813 9.06648C34.0813 8.67318 34.1485 8.27974 34.2734 7.92487C34.3983 7.56023 34.5904 7.23407 34.8307 6.95583C35.0709 6.67765 35.3687 6.44735 35.7147 6.28426C36.0606 6.12116 36.4449 6.03482 36.8581 6.03482C37.2809 6.03482 37.6844 6.12116 38.0496 6.27473C38.4147 6.43782 38.7318 6.65845 39.0008 6.9367C39.2698 7.21487 39.4812 7.54105 39.6349 7.90562C39.7887 8.27026 39.8656 8.66356 39.8656 9.06648C39.8559 9.4982 39.7791 9.89157 39.6253 10.2465Z" fill="#1D1B1B"/>
<path d="M53.8512 15.2255C54.1299 14.5635 54.2643 13.7959 54.2643 12.9517V4.21177C54.2643 4.15421 54.2548 4.10624 54.2355 4.06787C54.2163 4.02949 54.1875 3.99112 54.1587 3.97192C54.1202 3.94315 54.0722 3.91437 54.0242 3.89518C53.9761 3.87599 53.9281 3.8664 53.88 3.8664H52.602C52.4963 3.8664 52.4484 3.87599 52.4292 3.88559C52.3907 3.90477 52.3714 3.91437 52.3619 3.92396C52.3426 3.95275 52.3138 3.99112 52.3042 4.03909C52.2753 4.11583 52.2465 4.20219 52.2081 4.29812L51.8046 5.56449L51.4683 5.15196C51.3049 4.95053 51.1224 4.75863 50.9398 4.57634C50.7573 4.40365 50.5458 4.25015 50.3248 4.12543C50.1038 4.00071 49.854 3.89518 49.585 3.81843C49.3159 3.74168 49.0181 3.71289 48.6914 3.71289C47.9612 3.71289 47.279 3.84721 46.6544 4.12543C46.0299 4.39405 45.4918 4.77783 45.0402 5.25751C44.5886 5.73718 44.2235 6.3032 43.9736 6.94604C43.7142 7.58878 43.5892 8.29874 43.5892 9.04705C43.5892 9.79537 43.7142 10.4861 43.9736 11.1096C44.2235 11.7237 44.5886 12.2705 45.0305 12.7119C45.4821 13.1532 46.0299 13.5081 46.6448 13.7576C47.2694 14.007 47.9516 14.1318 48.6914 14.1318C49.0085 14.1318 49.2871 14.0934 49.5273 14.0166C49.7675 13.9399 49.979 13.8439 50.1711 13.7192C50.3633 13.5945 50.5363 13.4505 50.6997 13.2971C50.863 13.134 51.0359 12.9517 51.1992 12.779L51.6989 12.2514V13.0956C51.6989 13.1052 51.6989 13.1052 51.6989 13.1148C51.7085 13.1436 51.7085 13.1819 51.7085 13.2204V13.3355C51.7085 13.489 51.6989 13.6425 51.6892 13.7864C51.6796 13.9399 51.6413 14.0934 51.6028 14.2277C51.5163 14.5251 51.3722 14.7841 51.1512 15.0143C50.9494 15.2255 50.7092 15.4173 50.4401 15.5613C50.1711 15.7051 49.8828 15.8202 49.585 15.897C49.2871 15.9738 48.9893 16.0121 48.7106 16.0121C48.5473 16.0121 48.3647 16.0025 48.1725 15.993C47.9612 15.9738 47.7498 15.9449 47.5384 15.8874C47.327 15.8394 47.1156 15.7626 46.9138 15.6763C46.7025 15.5804 46.5199 15.4557 46.3566 15.3022C46.1643 15.1678 46.0875 15.1583 46.0682 15.1583C46.0394 15.1583 46.0203 15.1678 46.001 15.1774C45.9722 15.1966 45.9146 15.235 45.8473 15.3118L45.0402 16.4246C44.9729 16.5302 44.9345 16.6262 44.9345 16.7125C44.9345 16.77 44.9441 16.8275 44.9826 16.8756C45.0209 16.9427 45.069 16.9907 45.1266 17.0386L45.1459 17.0579C45.3765 17.2593 45.6552 17.4512 45.9626 17.6047C46.2797 17.7678 46.6064 17.9022 46.9427 17.998C47.279 18.1035 47.6249 18.1803 47.9612 18.2379C48.2975 18.2858 48.6241 18.3146 48.9124 18.3146C49.6715 18.3146 50.3921 18.1899 51.0455 17.9501C51.6989 17.7102 52.2753 17.3649 52.7462 16.9139C53.1882 16.4438 53.5726 15.8874 53.8512 15.2255ZM51.8719 9.21009C51.8526 9.60353 51.7565 9.97765 51.6028 10.323C51.4394 10.6588 51.228 10.9658 50.9591 11.2152C50.69 11.4647 50.3729 11.6662 50.0174 11.8101C49.6618 11.9539 49.2775 12.0211 48.874 12.0211C48.4608 12.0211 48.0765 11.9444 47.7402 11.7909C47.3943 11.6374 47.106 11.4263 46.8562 11.1577C46.616 10.8891 46.4237 10.5725 46.2989 10.2078C46.174 9.8529 46.1067 9.45953 46.1067 9.04705C46.1067 8.65368 46.174 8.26038 46.2989 7.90537C46.4237 7.5408 46.616 7.2146 46.8562 6.94604C47.0964 6.66779 47.3943 6.44716 47.7305 6.284C48.0765 6.1209 48.4608 6.03456 48.874 6.03456C49.2775 6.03456 49.6619 6.11138 50.027 6.26486C50.3825 6.41835 50.6996 6.62938 50.9591 6.88842C51.2185 7.14746 51.4394 7.45447 51.6028 7.79986C51.7661 8.14525 51.8526 8.50982 51.8719 8.90312V8.91274V9.21009Z" fill="#1D1B1B"/>
<path d="M64.2431 5.04754C64.2431 4.9612 64.1662 4.87485 64.0125 4.7885L63.9836 4.7693C63.7338 4.58701 63.5032 4.43351 63.3014 4.29919C63.0997 4.17447 62.8979 4.06894 62.6961 3.98259C62.4943 3.90585 62.2829 3.83869 62.062 3.80032C61.8409 3.76194 61.5719 3.73315 61.2837 3.73315C61.0242 3.73315 60.7936 3.77154 60.5919 3.84828C60.3805 3.92503 59.9577 4.15529 59.7847 4.2896C59.1313 4.80763 58.699 5.49841 58.699 5.49841C58.699 5.49841 58.2569 4.30878 58.1993 4.19366C58.1512 4.09772 58.1032 4.01138 58.036 3.95381C58.0263 3.94422 57.9879 3.90585 57.8918 3.90585H56.5947C56.5467 3.90585 56.489 3.91544 56.4313 3.93462C56.3833 3.95381 56.3352 3.973 56.2968 4.00178C56.268 4.03057 56.2392 4.05934 56.22 4.09772C56.2007 4.1361 56.1912 4.19366 56.1912 4.25122V13.8546C56.1912 14.1328 56.2873 14.2287 56.5755 14.2287H58.5068C58.6606 14.2287 58.7758 14.1999 58.8239 14.152C58.8912 14.0849 58.9008 13.9505 58.9008 13.8546V7.56106L58.9391 7.49391C59.064 7.29245 59.189 7.11019 59.314 6.9375C59.4485 6.7648 59.5925 6.60171 59.7463 6.47696C59.9097 6.34267 60.0922 6.23712 60.294 6.16038C60.4958 6.08363 60.7264 6.04522 60.9858 6.04522C61.3509 6.04522 61.6872 6.11244 61.9755 6.24672C62.2445 6.37148 62.5135 6.5537 62.773 6.80314C62.8595 6.84155 62.9363 6.85115 63.0036 6.85115C63.09 6.85115 63.2053 6.83194 63.3399 6.64965L64.1182 5.32571C64.2335 5.18183 64.2431 5.08588 64.2431 5.04754Z" fill="#1D1B1B"/>
<path d="M73.4979 12.8855C73.815 12.569 74.1037 12.2044 74.3342 11.8111C74.5648 11.4178 74.7475 10.986 74.8721 10.5254C74.9968 10.065 75.0646 9.58529 75.0646 9.08641C75.0646 8.3381 74.9206 7.62813 74.6416 6.98537C74.3633 6.34261 73.9784 5.76698 73.4979 5.28724C73.0181 4.80757 72.4511 4.43343 71.7976 4.15521C71.1538 3.88658 70.4524 3.74268 69.7124 3.74268C69.2129 3.74268 68.7324 3.80984 68.2713 3.93456C67.81 4.05928 67.3776 4.24155 66.9836 4.4622C66.5897 4.69246 66.2246 4.97066 65.9075 5.28724C65.5808 5.6135 65.3022 5.96841 65.0716 6.36181C64.841 6.75513 64.6584 7.18687 64.5335 7.64731C64.4086 8.10783 64.3413 8.58753 64.3413 9.08641C64.3413 9.58529 64.4086 10.065 64.5335 10.5254C64.6584 10.986 64.841 11.4178 65.0716 11.8111C65.3022 12.2044 65.5808 12.569 65.9075 12.8855C66.2246 13.2117 66.5897 13.49 66.9836 13.7202C67.3776 13.9504 67.81 14.1327 68.2713 14.2574C68.7324 14.3821 69.2129 14.4493 69.7124 14.4493C70.2025 14.4493 70.683 14.3821 71.1344 14.2574C71.5864 14.1327 72.0184 13.9504 72.4124 13.7202C72.816 13.4803 73.1815 13.2021 73.4979 12.8855ZM72.2206 10.2281C72.0953 10.5927 71.9125 10.9093 71.682 11.1779C71.4514 11.4465 71.1538 11.6672 70.8173 11.8207C70.4808 11.9742 70.0966 12.0605 69.6836 12.0605C69.2608 12.0605 68.8669 11.9837 68.5307 11.8207C68.1847 11.6672 67.8964 11.4465 67.6562 11.1779C67.4161 10.9093 67.2335 10.5927 67.0989 10.2281C66.974 9.87308 66.9068 9.47978 66.9068 9.06723C66.9068 8.67393 66.974 8.2805 67.0989 7.92562C67.2239 7.56098 67.4161 7.23481 67.6467 6.95657C67.8868 6.67839 68.1847 6.44808 68.521 6.285C68.8669 6.1219 69.2512 6.03556 69.6836 6.03556C70.0966 6.03556 70.4808 6.1219 70.8173 6.285C71.1538 6.44808 71.4418 6.67839 71.682 6.95657C71.9125 7.23481 72.0953 7.56098 72.2109 7.92562C72.3355 8.29012 72.393 8.66431 72.393 9.06723C72.4027 9.48933 72.3452 9.87308 72.2206 10.2281Z" fill="#1D1B1B"/>
<path d="M81.4453 6.24655C81.5027 6.18901 81.5318 6.08346 81.5318 5.92037V4.26063C81.5318 4.12632 81.5027 4.03038 81.4453 3.98241C81.4072 3.94404 81.34 3.89607 81.196 3.89607H79.7249L79.7346 1.24818C79.7346 1.10427 79.7152 0.989148 79.6674 0.912404C79.6577 0.893213 79.6003 0.874023 79.4943 0.874023H79.4175H79.4085L77.4776 1.54558C77.2942 1.61275 77.1502 1.68949 77.054 1.75666C77.0353 1.76625 76.9965 1.80462 76.9965 1.92934L76.9868 3.90566H75.8147C75.5364 3.90566 75.4402 3.99201 75.4402 4.27022V5.92997C75.4402 6.27535 75.5745 6.3329 75.8147 6.3329H76.9868L76.9965 13.864C76.9965 14.1422 77.083 14.2382 77.371 14.2382H79.3123C79.466 14.2382 79.5712 14.2094 79.648 14.1422C79.6674 14.123 79.7443 14.0559 79.7443 13.864L79.7346 6.3329H81.205C81.34 6.3233 81.4072 6.27535 81.4453 6.24655Z" fill="#1D1B1B"/>
<path d="M91.8661 12.8855C92.1825 12.569 92.4712 12.2044 92.7011 11.8111C92.9323 11.4178 93.1151 10.986 93.2397 10.5254C93.3643 10.065 93.4321 9.58529 93.4321 9.08641C93.4321 8.3381 93.2881 7.62813 93.0091 6.98537C92.7301 6.34261 92.3459 5.76698 91.8661 5.28724C91.385 4.80757 90.8187 4.43343 90.1651 4.15521C89.5213 3.88658 88.82 3.74268 88.0799 3.74268C87.5801 3.74268 87.1003 3.80984 86.6385 3.93456C86.1774 4.05928 85.7448 4.24155 85.3508 4.4622C84.9576 4.69246 84.5921 4.97066 84.275 5.28724C83.9482 5.6135 83.6699 5.96841 83.4387 6.36181C83.2081 6.75513 83.0261 7.18687 82.9008 7.64731C82.7761 8.10783 82.709 8.58753 82.709 9.08641C82.709 9.58529 82.7761 10.065 82.9008 10.5254C83.0261 10.986 83.2081 11.4178 83.4387 11.8111C83.6699 12.2044 83.9482 12.569 84.275 12.8855C84.6011 13.2117 84.9576 13.49 85.3508 13.7202C85.7448 13.9504 86.1774 14.1327 86.6385 14.2574C87.1003 14.3821 87.5801 14.4493 88.0799 14.4493C88.5701 14.4493 89.0505 14.3821 89.5026 14.2574C89.9533 14.1327 90.386 13.9504 90.7799 13.7202C91.1835 13.4803 91.5387 13.2021 91.8661 12.8855ZM90.5881 10.2281C90.4628 10.5927 90.2801 10.9093 90.0495 11.1779C89.819 11.4465 89.5213 11.6672 89.1848 11.8207C88.8484 11.9742 88.4648 12.0605 88.0508 12.0605C87.6285 12.0605 87.2346 11.9837 86.8981 11.8207C86.552 11.6672 86.264 11.4465 86.0238 11.1779C85.7835 10.9093 85.6008 10.5927 85.4664 10.2281C85.3418 9.87308 85.274 9.47978 85.274 9.06723C85.274 8.67393 85.3418 8.2805 85.4664 7.92562C85.5911 7.56098 85.7835 7.23481 86.0148 6.95657C86.2543 6.67839 86.552 6.44808 86.8884 6.285C87.2346 6.1219 87.6188 6.03556 88.0508 6.03556C88.4648 6.03556 88.8484 6.1219 89.1848 6.285C89.5213 6.44808 89.8093 6.67839 90.0495 6.95657C90.2801 7.23481 90.4628 7.56098 90.5784 7.92562C90.7031 8.29012 90.7612 8.67393 90.7612 9.06723C90.7702 9.48933 90.7128 9.87308 90.5881 10.2281Z" fill="#1D1B1B"/>
<path d="M101.912 13.9118C102.027 14.0749 102.104 14.1516 102.151 14.1997C102.2 14.238 102.228 14.238 102.238 14.238H105.14C105.265 14.238 105.274 14.1325 105.256 14.0845C105.236 14.0461 105.207 13.9981 105.159 13.9502L100.557 8.03087L104.256 4.12617C104.313 4.05902 104.333 4.03024 104.333 4.02064C104.333 4.02064 104.333 4.01105 104.333 3.99186C104.333 3.95348 104.323 3.94389 104.323 3.94389C104.323 3.94389 104.285 3.91512 104.151 3.91512H101.508C101.384 3.91512 101.287 3.96308 101.19 4.06861L97.5876 8.05967V0.960231C97.5876 0.921851 97.5779 0.883479 97.5682 0.835512C97.5585 0.806726 97.5488 0.787537 97.5301 0.758759C97.5107 0.739569 97.4914 0.720379 97.4533 0.701197C97.4339 0.691602 97.3951 0.682007 97.319 0.682007H95.2621C95.0897 0.682007 95.0032 0.701197 94.9644 0.710792C94.9167 0.729974 94.8973 0.749164 94.8973 0.749164C94.8876 0.758759 94.8876 0.768354 94.8779 0.806727C94.8689 0.883479 94.8689 0.960231 94.8689 1.05616V13.9502C94.8689 13.9598 94.8779 13.979 94.8876 13.9981C94.8973 14.0366 94.9264 14.0845 94.9547 14.1325C94.9741 14.1709 95.0129 14.2092 95.0607 14.238C95.0801 14.2476 95.0987 14.2668 95.1569 14.2668H97.319C97.3764 14.2668 97.4242 14.2572 97.4436 14.238C97.4817 14.2092 97.5107 14.1805 97.5398 14.1421C97.5682 14.1037 97.5779 14.0557 97.5876 14.0174C97.5973 13.9406 97.607 13.9022 97.607 13.8926V11.0049L98.8843 9.68099L101.912 13.9118Z" fill="#1D1B1B"/>
<path d="M114.973 9.31614C114.983 9.13393 114.983 8.89411 114.983 8.59663C114.983 8.1649 114.926 7.7428 114.801 7.33988C114.676 6.93694 114.503 6.54361 114.282 6.18861C114.061 5.83363 113.792 5.49784 113.485 5.19086C113.177 4.88388 112.831 4.62484 112.466 4.41378C112.091 4.20272 111.697 4.03003 111.274 3.90531C110.852 3.79018 110.419 3.72302 109.968 3.72302C109.477 3.72302 109.007 3.79018 108.565 3.9149C108.123 4.03962 107.71 4.23149 107.326 4.46174C106.951 4.692 106.605 4.97983 106.297 5.30602C105.989 5.6322 105.73 5.99672 105.509 6.39012C105.298 6.78345 105.125 7.20558 105.01 7.64692C104.894 8.0882 104.837 8.55834 104.837 9.03797C104.837 9.79591 104.981 10.5154 105.279 11.1582C105.567 11.8105 105.971 12.3766 106.47 12.8563C106.97 13.336 107.556 13.7197 108.218 13.9884C108.882 14.257 109.593 14.4009 110.333 14.4009C110.996 14.4009 111.629 14.2762 112.226 14.0364C112.821 13.7869 113.369 13.4415 113.84 13.0002L113.868 12.981C113.936 12.933 113.984 12.8851 114.032 12.8179C114.051 12.7988 114.071 12.7604 114.071 12.6932C114.071 12.6548 114.071 12.6261 114.051 12.5876C114.051 12.5876 114.041 12.5588 113.984 12.4918L113.081 11.4748C113.004 11.3981 112.927 11.3309 112.869 11.2925C112.84 11.2734 112.821 11.2637 112.802 11.2637C112.773 11.2637 112.754 11.2734 112.735 11.2829C112.696 11.3022 112.639 11.3405 112.552 11.4172C112.437 11.5324 112.274 11.6475 112.091 11.753C111.909 11.8586 111.706 11.9449 111.485 12.0217C111.274 12.0984 111.044 12.1559 110.814 12.204C110.583 12.2519 110.342 12.2711 110.122 12.2711C109.872 12.2711 109.603 12.2327 109.324 12.1655C109.035 12.0984 108.757 11.9736 108.508 11.8105C108.248 11.6475 108.017 11.4172 107.825 11.1486C107.623 10.8704 107.489 10.5154 107.431 10.1125L107.384 9.77673H113.907C114.244 9.77673 114.503 9.75749 114.667 9.7192C114.743 9.69996 114.849 9.66153 114.896 9.604C114.945 9.54647 114.973 9.45052 114.973 9.31614ZM107.364 7.92509L107.556 7.51254C107.652 7.30153 107.786 7.09042 107.95 6.87939C108.113 6.6779 108.286 6.48607 108.488 6.32298C108.69 6.15981 108.911 6.02553 109.141 5.92958C109.382 5.8241 109.641 5.77609 109.901 5.77609C110.237 5.77609 110.544 5.8241 110.804 5.91038C111.063 5.99672 111.303 6.13108 111.505 6.29417C111.706 6.44766 111.88 6.63956 112.043 6.85059C112.187 7.05209 112.331 7.27273 112.456 7.50299L112.687 7.92509H107.364Z" fill="#1D1B1B"/>
<path d="M123.719 14.1887C123.719 14.1887 123.786 14.2368 124.025 14.2368H126.015C126.092 14.2368 126.197 14.2272 126.245 14.1696C126.293 14.112 126.322 14.0064 126.322 13.8626V8.24063C126.322 7.617 126.236 7.02224 126.053 6.47535C125.88 5.92854 125.621 5.44887 125.284 5.04587C124.958 4.64296 124.545 4.32636 124.074 4.09611C123.603 3.86586 123.055 3.75073 122.45 3.75073C122.017 3.75073 121.624 3.7987 121.278 3.89464C120.932 3.99058 120.614 4.09611 120.355 4.24961C119.318 4.89237 118.991 5.90933 118.991 5.90933L118.625 4.38392C118.596 4.30717 118.568 4.23042 118.548 4.16327C118.529 4.11529 118.501 4.06733 118.472 4.02896C118.443 4.00017 118.414 3.97139 118.375 3.9522C118.347 3.93302 118.299 3.92342 118.241 3.92342H116.944C116.887 3.92342 116.829 3.93302 116.762 3.94261C116.733 3.9522 116.694 3.9618 116.666 3.99058L116.675 4.00017C116.637 4.02896 116.608 4.05774 116.58 4.1057C116.55 4.15368 116.541 4.21123 116.541 4.2688V13.8721C116.541 13.9969 116.57 14.0928 116.627 14.16C116.675 14.2175 116.791 14.2463 116.944 14.2463H118.886C118.943 14.2463 119.001 14.2368 119.039 14.2272C119.077 14.2175 119.116 14.1984 119.164 14.1696C119.174 14.16 119.202 14.1408 119.221 14.0833C119.25 14.0161 119.26 13.9585 119.26 13.8914V8.28854C119.279 7.99119 119.365 7.70333 119.509 7.45389C119.644 7.20446 119.817 6.99343 120.019 6.80154C120.221 6.61924 120.452 6.47535 120.691 6.3698C121.23 6.13957 121.758 6.16837 122.258 6.3794C122.517 6.48495 122.757 6.63844 122.969 6.83034C123.18 7.02224 123.344 7.24288 123.478 7.49232C123.613 7.75138 123.68 8.02955 123.68 8.31734V13.9106C123.68 14.1312 123.719 14.1887 123.719 14.1887Z" fill="#1D1B1B"/>
</g>
<defs>
<clipPath id="clip0_3674_28067">
<rect width="126" height="18" fill="white" transform="translate(0.834717 0.314941)"/>
</clipPath>
</defs>
</svg>
