<svg width="127" height="19" viewBox="0 0 127 19" fill="none" xmlns="http://www.w3.org/2000/svg">
<g clip-path="url(#clip0_3496_30804)">
<path d="M9.18558 17.2557C9.5507 16.872 9.87741 16.3922 10.1465 15.8454L12.0777 11.1445L9.37777 4.58234H9.08949C8.62827 4.58234 8.2248 4.66867 7.88847 4.83177C7.5329 5.00442 7.21586 5.21553 6.94681 5.47457C6.67778 5.73361 6.43756 6.03098 6.24539 6.34756C6.04362 6.67375 5.88988 6.9904 5.76497 7.27817C5.56319 7.76746 5.34219 8.30476 5.08277 8.92832C4.84256 9.51353 4.58312 10.1468 4.30448 10.8087C4.02583 11.4802 3.74718 12.1423 3.47814 12.7659C3.1995 13.4182 2.93046 14.0514 2.68064 14.6462C2.15217 15.903 1.61409 17.179 1.06641 18.4549H6.10127C6.8123 18.4549 7.41764 18.3495 7.90765 18.1383C8.39767 17.9369 8.82046 17.6394 9.18558 17.2557Z" fill="#1D1B1B"/>
<path fill-rule="evenodd" clip-rule="evenodd" d="M17.9203 11.9889L15.7296 11.135C15.624 11.2694 15.499 11.3748 15.3452 11.4325C15.1146 11.5285 14.8552 11.5476 14.6054 11.4517C14.1057 11.2598 13.8559 10.6938 14.0481 10.1949C14.2402 9.696 14.8072 9.44656 15.3069 9.64803C15.72 9.81113 15.9601 10.2236 15.9218 10.6362L17.6417 11.3078L16.1619 7.6429L14.7111 6.94259C14.4324 7.25918 13.9617 7.36473 13.5677 7.17283C13.0872 6.94259 12.8855 6.35737 13.1161 5.8777C13.3467 5.39795 13.9329 5.19652 14.4132 5.42676C14.6535 5.54191 14.8264 5.74334 14.9033 5.98318C14.9609 6.13674 14.9706 6.29983 14.9418 6.46292L15.8641 6.91378L14.8457 4.40022C14.6823 4.41941 14.519 4.39063 14.3652 4.32348C14.1346 4.22754 13.9424 4.03566 13.8463 3.79582C13.6445 3.29694 13.8944 2.73091 14.394 2.53904C14.8936 2.33757 15.4606 2.58701 15.6528 3.08589C15.8161 3.49841 15.6719 3.94932 15.3452 4.20835L17.1517 8.67907L17.6802 7.84443C17.5648 7.71967 17.4975 7.57574 17.4592 7.41266C17.4015 7.17283 17.4399 6.90418 17.5841 6.68355C17.8723 6.23262 18.468 6.09833 18.9196 6.37657C19.3712 6.66435 19.5058 7.25918 19.2271 7.71012C18.9965 8.08424 18.5449 8.23773 18.1317 8.12266L17.4015 9.28346L18.8043 12.7564L19.6883 11.3654C19.573 11.2406 19.5058 11.0967 19.4673 10.9336C19.4097 10.6938 19.4481 10.4251 19.5922 10.2045C19.8805 9.75353 20.4762 9.6193 20.9278 9.89746C21.3795 10.1853 21.5139 10.7802 21.2353 11.231C21.0047 11.6052 20.5531 11.7587 20.1399 11.6435L19.0542 13.3609L20.3801 16.6515H25.5015C25.1313 15.779 24.7667 14.9174 24.4062 14.0654L24.4056 14.064C24.0923 13.3239 23.7822 12.591 23.474 11.8642C23.4027 11.6946 23.3306 11.523 23.2578 11.3495L23.2573 11.3485L23.2569 11.3474C23.0458 10.8448 22.828 10.3262 22.5997 9.79189C22.2923 9.07251 21.9847 8.35272 21.6869 7.6429C21.389 6.93299 21.1007 6.24222 20.8317 5.58025C20.5627 4.91829 20.3129 4.31389 20.0823 3.75744C19.9477 3.42166 19.7556 3.0571 19.525 2.67335C19.2944 2.2896 19.0157 1.94422 18.6794 1.62762C18.3527 1.31103 17.9684 1.052 17.5264 0.840937C17.0844 0.62987 16.5847 0.533936 16.0179 0.533936H6.95703V0.716217C7.21646 0.716217 7.48553 0.821746 7.76412 1.02322C8.04277 1.23428 8.31187 1.48372 8.57128 1.79072C8.83069 2.09773 9.07085 2.4335 9.30145 2.78847C9.34915 2.86709 9.39589 2.94391 9.44158 3.01896C9.60773 3.29192 9.75949 3.54129 9.88756 3.76704L13.9041 13.5144C14.2306 14.1667 14.6054 14.7231 15.0474 15.1836C15.4894 15.6442 15.9986 15.9991 16.5944 16.2582C17.1901 16.5076 17.9011 16.6419 18.7467 16.6419H19.8036L17.9203 11.9889ZM18.8431 7.09626C18.8624 7.20181 18.8527 7.3169 18.7854 7.42246C18.6509 7.63355 18.3819 7.69108 18.1801 7.56633C17.9783 7.43206 17.9207 7.1634 18.0456 6.96197C18.1801 6.76046 18.4492 6.70292 18.6509 6.82761C18.7566 6.88522 18.8143 6.99071 18.8431 7.09626ZM20.8335 10.6173C20.8527 10.7228 20.8431 10.838 20.7758 10.9435C20.6509 11.145 20.3819 11.2121 20.1705 11.0874C19.9687 10.9531 19.9111 10.6845 20.036 10.4829C20.1705 10.2815 20.4395 10.224 20.6413 10.3487C20.747 10.4062 20.8046 10.5118 20.8335 10.6173ZM13.6093 6.10877C13.7151 5.89773 13.9745 5.80178 14.1955 5.90734C14.4069 6.01282 14.503 6.28147 14.3973 6.49258C14.2916 6.70361 14.0322 6.79957 13.8111 6.69401C13.7055 6.64608 13.6286 6.55012 13.5902 6.44457C13.5517 6.33909 13.5613 6.21433 13.6093 6.10877ZM15.1249 10.1469C15.0095 10.0989 14.8943 10.1085 14.7885 10.1565C14.6829 10.2044 14.5964 10.2812 14.5579 10.3963C14.4715 10.617 14.5868 10.876 14.8079 10.9624C15.0288 11.0488 15.2883 10.9336 15.3748 10.7129C15.4612 10.4923 15.3459 10.2429 15.1249 10.1469ZM14.6076 3.02865C14.723 2.99026 14.8383 2.99026 14.944 3.03824C15.0401 3.07662 15.1266 3.16296 15.1746 3.27809C15.2611 3.49876 15.1458 3.7578 14.9248 3.84414C14.7038 3.93049 14.4443 3.81536 14.3579 3.5947C14.2714 3.37403 14.3867 3.11499 14.6076 3.02865Z" fill="#1D1B1B"/>
<path d="M42.151 14.3703L42.1798 14.3511C42.2086 14.3318 42.2279 14.3127 42.2375 14.2743C42.2567 14.2168 42.2663 14.1592 42.2663 14.1016V4.43109C42.2663 4.36393 42.2567 4.31597 42.2375 4.268C42.2182 4.22961 42.1991 4.20084 42.151 4.16246L42.1222 4.14328C42.1029 4.12409 42.0741 4.10489 42.0453 4.10489C41.9588 4.08572 41.9108 4.08572 41.882 4.08572H40.604C40.4791 4.08572 40.4215 4.09531 40.4023 4.09531C40.3926 4.09531 40.383 4.10489 40.383 4.10489C40.383 4.10489 40.3542 4.13368 40.3254 4.21044C40.287 4.29677 40.2485 4.4119 40.1909 4.54621L39.7681 5.87975L39.4318 5.40008C39.2877 5.19858 39.1243 4.99715 38.9322 4.82444C38.7399 4.65175 38.5286 4.49824 38.298 4.37352C38.0674 4.2488 37.7983 4.14328 37.5197 4.07612C37.241 3.99937 36.924 3.961 36.5973 3.961C35.8575 3.961 35.156 4.09531 34.5122 4.37352C33.8685 4.64215 33.3015 5.02589 32.8211 5.50556C32.3407 5.98531 31.966 6.55132 31.6873 7.20369C31.4087 7.84644 31.2742 8.55647 31.2742 9.31434C31.2742 9.81321 31.3414 10.3025 31.4663 10.7534C31.5912 11.2139 31.7738 11.6456 32.0044 12.039C32.235 12.4323 32.5137 12.7969 32.8307 13.1231C33.1478 13.4493 33.513 13.7275 33.9069 13.9577C34.3008 14.188 34.7236 14.3703 35.1753 14.4949C35.6268 14.6197 36.1072 14.6869 36.5973 14.6869C36.8664 14.6869 37.1258 14.6581 37.3755 14.5909C37.6254 14.5237 37.8656 14.4374 38.0865 14.3318C38.3076 14.2263 38.5094 14.1016 38.692 13.9577C38.8745 13.8138 39.0475 13.6699 39.1916 13.526L39.5375 13.1806L39.7777 14.0249C39.8065 14.1208 39.845 14.1976 39.8738 14.2839C39.893 14.3415 39.9218 14.3799 39.9411 14.4182C39.9603 14.4374 39.9795 14.4566 40.0083 14.4662C40.0275 14.4758 40.0852 14.4949 40.1909 14.4949H41.8916C41.9204 14.4949 41.978 14.4949 42.0549 14.4758C42.0837 14.4662 42.1126 14.4566 42.1318 14.4374L42.151 14.3703ZM39.3453 10.4656C39.1916 10.8301 38.9802 11.1467 38.7111 11.4154C38.4421 11.684 38.125 11.8951 37.7598 12.0486C37.3948 12.2021 37.0009 12.2788 36.5781 12.2788C36.1649 12.2788 35.7805 12.2021 35.4347 12.039C35.0983 11.8855 34.8005 11.6648 34.5507 11.3962C34.3104 11.1276 34.1183 10.811 33.9934 10.4464C33.8685 10.0914 33.8012 9.69808 33.8012 9.28554C33.8012 8.89224 33.8685 8.4988 33.9934 8.14392C34.1183 7.77928 34.3104 7.45313 34.5507 7.17488C34.7909 6.89671 35.0887 6.6664 35.4347 6.50331C35.7805 6.34022 36.1649 6.25387 36.5781 6.25387C37.0009 6.25387 37.4043 6.34022 37.7695 6.49379C38.1347 6.65687 38.4517 6.8775 38.7208 7.15576C38.9898 7.43392 39.2012 7.76011 39.3549 8.12467C39.5087 8.48931 39.5855 8.88261 39.5855 9.28554C39.5759 9.71726 39.4991 10.1106 39.3453 10.4656Z" fill="#1D1B1B"/>
<path d="M53.571 15.4445C53.8497 14.7825 53.9842 14.0149 53.9842 13.1707V4.43076C53.9842 4.3732 53.9746 4.32523 53.9553 4.28687C53.9361 4.24848 53.9073 4.21011 53.8785 4.19092C53.8401 4.16215 53.792 4.13336 53.744 4.11418C53.6959 4.09499 53.6479 4.08539 53.5998 4.08539H52.3219C52.2162 4.08539 52.1682 4.09499 52.149 4.10458C52.1105 4.12376 52.0913 4.13336 52.0817 4.14296C52.0625 4.17174 52.0337 4.21011 52.0241 4.25808C51.9952 4.33483 51.9664 4.42118 51.928 4.51711L51.5244 5.78348L51.1881 5.37095C51.0248 5.16952 50.8422 4.97762 50.6597 4.79533C50.4771 4.62264 50.2657 4.46914 50.0447 4.34442C49.8237 4.2197 49.5738 4.11417 49.3049 4.03743C49.0358 3.96067 48.738 3.93188 48.4113 3.93188C47.681 3.93188 46.9988 4.0662 46.3742 4.34442C45.7497 4.61305 45.2116 4.99683 44.76 5.4765C44.3084 5.95617 43.9433 6.5222 43.6935 7.16503C43.434 7.80777 43.3091 8.51773 43.3091 9.26605C43.3091 10.0144 43.434 10.7051 43.6935 11.3286C43.9433 11.9427 44.3084 12.4895 44.7504 12.9308C45.202 13.3722 45.7497 13.7271 46.3647 13.9766C46.9893 14.226 47.6715 14.3508 48.4113 14.3508C48.7283 14.3508 49.007 14.3123 49.2471 14.2356C49.4874 14.1589 49.6988 14.0629 49.891 13.9382C50.0832 13.8135 50.2561 13.6695 50.4195 13.5161C50.5828 13.353 50.7558 13.1707 50.9191 12.998L51.4187 12.4704V13.3146C51.4187 13.3241 51.4187 13.3241 51.4187 13.3338C51.4283 13.3626 51.4283 13.4009 51.4283 13.4393V13.5545C51.4283 13.708 51.4187 13.8614 51.4091 14.0054C51.3995 14.1589 51.3611 14.3123 51.3226 14.4467C51.2361 14.7441 51.092 15.0031 50.8711 15.2333C50.6693 15.4445 50.4291 15.6362 50.16 15.7802C49.891 15.9241 49.6026 16.0392 49.3049 16.116C49.007 16.1928 48.7092 16.2311 48.4304 16.2311C48.2671 16.2311 48.0846 16.2215 47.8924 16.212C47.681 16.1928 47.4696 16.1639 47.2582 16.1064C47.0469 16.0584 46.8354 15.9816 46.6336 15.8953C46.4223 15.7994 46.2398 15.6747 46.0764 15.5212C45.8842 15.3868 45.8073 15.3773 45.7881 15.3773C45.7593 15.3773 45.7401 15.3868 45.7208 15.3964C45.692 15.4156 45.6344 15.454 45.5671 15.5308L44.76 16.6436C44.6927 16.7492 44.6543 16.8452 44.6543 16.9315C44.6543 16.989 44.6639 17.0465 44.7024 17.0946C44.7408 17.1617 44.7888 17.2097 44.8465 17.2576L44.8657 17.2769C45.0963 17.4783 45.375 17.6702 45.6825 17.8237C45.9995 17.9868 46.3262 18.1211 46.6626 18.217C46.9988 18.3225 47.3448 18.3993 47.681 18.4568C48.0173 18.5048 48.344 18.5336 48.6322 18.5336C49.3914 18.5336 50.112 18.4089 50.7654 18.1691C51.4187 17.9292 51.9952 17.5838 52.466 17.1329C52.908 16.6628 53.2924 16.1064 53.571 15.4445ZM51.5917 9.42908C51.5725 9.82252 51.4764 10.1966 51.3226 10.542C51.1593 10.8778 50.9479 11.1848 50.6789 11.4342C50.4099 11.6837 50.0928 11.8852 49.7372 12.029C49.3817 12.1729 48.9974 12.2401 48.5938 12.2401C48.1806 12.2401 47.7963 12.1634 47.46 12.0099C47.1141 11.8564 46.8259 11.6453 46.576 11.3767C46.3359 11.1081 46.1436 10.7915 46.0187 10.4268C45.8938 10.0719 45.8265 9.67852 45.8265 9.26605C45.8265 8.87268 45.8938 8.47938 46.0187 8.12436C46.1436 7.75979 46.3359 7.4336 46.576 7.16503C46.8162 6.88679 47.1141 6.66615 47.4504 6.50299C47.7963 6.3399 48.1806 6.25355 48.5938 6.25355C48.9974 6.25355 49.3817 6.33037 49.7469 6.48386C50.1024 6.63735 50.4195 6.84838 50.6789 7.10742C50.9383 7.36646 51.1593 7.67346 51.3226 8.01885C51.486 8.36425 51.5725 8.72882 51.5917 9.12212V9.13174V9.42908Z" fill="#1D1B1B"/>
<path d="M63.9631 5.2666C63.9631 5.18025 63.8862 5.0939 63.7325 5.00756L63.7036 4.98835C63.4538 4.80606 63.2232 4.65256 63.0214 4.51825C62.8197 4.39353 62.6179 4.28799 62.4161 4.20165C62.2143 4.12491 62.0029 4.05774 61.782 4.01937C61.5609 3.981 61.2919 3.95221 61.0037 3.95221C60.7441 3.95221 60.5135 3.99059 60.3119 4.06734C60.1004 4.14409 59.6776 4.37434 59.5047 4.50865C58.8513 5.02668 58.419 5.71746 58.419 5.71746C58.419 5.71746 57.9769 4.52784 57.9193 4.41271C57.8712 4.31677 57.8232 4.23043 57.7559 4.17287C57.7463 4.16327 57.7079 4.12491 57.6118 4.12491H56.3147C56.2666 4.12491 56.209 4.13449 56.1513 4.15368C56.1033 4.17287 56.0552 4.19205 56.0168 4.22084C55.988 4.24962 55.9592 4.2784 55.9399 4.31677C55.9207 4.35515 55.9111 4.41271 55.9111 4.47028V14.0736C55.9111 14.3518 56.0072 14.4478 56.2955 14.4478H58.2268C58.3805 14.4478 58.4958 14.419 58.5438 14.3711C58.6111 14.3039 58.6208 14.1696 58.6208 14.0736V7.78012L58.6591 7.71296C58.784 7.5115 58.909 7.32924 59.0339 7.15656C59.1684 6.98386 59.3125 6.82077 59.4663 6.69601C59.6297 6.56172 59.8121 6.45618 60.014 6.37943C60.2158 6.30268 60.4464 6.26427 60.7058 6.26427C61.0708 6.26427 61.4072 6.33149 61.6954 6.46578C61.9645 6.59053 62.2335 6.77275 62.493 7.02219C62.5794 7.0606 62.6563 7.0702 62.7236 7.0702C62.81 7.0702 62.9253 7.051 63.0599 6.86871L63.8382 5.54477C63.9535 5.40088 63.9631 5.30493 63.9631 5.2666Z" fill="#1D1B1B"/>
<path d="M73.2179 13.1045C73.535 12.788 73.8236 12.4234 74.0542 12.0301C74.2847 11.6368 74.4675 11.205 74.5921 10.7444C74.7167 10.284 74.7846 9.80428 74.7846 9.30541C74.7846 8.55709 74.6406 7.84713 74.3616 7.20436C74.0833 6.5616 73.6983 5.98598 73.2179 5.50624C72.7381 5.02656 72.1711 4.65242 71.5176 4.3742C70.8737 4.10557 70.1724 3.96167 69.4324 3.96167C68.9328 3.96167 68.4524 4.02883 67.9912 4.15355C67.53 4.27827 67.0976 4.46055 66.7036 4.6812C66.3097 4.91145 65.9446 5.18965 65.6275 5.50624C65.3008 5.83249 65.0222 6.1874 64.7916 6.58081C64.561 6.97413 64.3784 7.40587 64.2535 7.86631C64.1286 8.32683 64.0613 8.80653 64.0613 9.30541C64.0613 9.80428 64.1286 10.284 64.2535 10.7444C64.3784 11.205 64.561 11.6368 64.7916 12.0301C65.0222 12.4234 65.3008 12.788 65.6275 13.1045C65.9446 13.4307 66.3097 13.709 66.7036 13.9392C67.0976 14.1694 67.53 14.3517 67.9912 14.4764C68.4524 14.6011 68.9328 14.6683 69.4324 14.6683C69.9225 14.6683 70.403 14.6011 70.8543 14.4764C71.3064 14.3517 71.7384 14.1694 72.1323 13.9392C72.536 13.6993 72.9015 13.4211 73.2179 13.1045ZM71.9406 10.4471C71.8153 10.8117 71.6325 11.1283 71.402 11.3969C71.1714 11.6655 70.8737 11.8862 70.5373 12.0397C70.2008 12.1932 69.8166 12.2795 69.4036 12.2795C68.9808 12.2795 68.5869 12.2027 68.2506 12.0397C67.9047 11.8862 67.6164 11.6655 67.3762 11.3969C67.136 11.1283 66.9535 10.8117 66.8189 10.4471C66.694 10.0921 66.6268 9.69877 66.6268 9.28623C66.6268 8.89293 66.694 8.49949 66.8189 8.14461C66.9439 7.77997 67.136 7.45381 67.3666 7.17556C67.6068 6.89739 67.9047 6.66708 68.241 6.50399C68.5869 6.3409 68.9712 6.25455 69.4036 6.25455C69.8166 6.25455 70.2008 6.3409 70.5373 6.50399C70.8737 6.66708 71.1617 6.89739 71.402 7.17556C71.6325 7.45381 71.8153 7.77997 71.9309 8.14461C72.0555 8.50911 72.113 8.88331 72.113 9.28623C72.1226 9.70833 72.0652 10.0921 71.9406 10.4471Z" fill="#1D1B1B"/>
<path d="M81.1652 6.4656C81.2227 6.40806 81.2518 6.30252 81.2518 6.13942V4.47968C81.2518 4.34538 81.2227 4.24944 81.1652 4.20147C81.1272 4.16309 81.06 4.11512 80.916 4.11512H79.4449L79.4545 1.46724C79.4545 1.32333 79.4352 1.2082 79.3874 1.13146C79.3777 1.11227 79.3202 1.09308 79.2143 1.09308H79.1375H79.1285L77.1976 1.76464C77.0142 1.8318 76.8702 1.90855 76.7739 1.97571C76.7552 1.98531 76.7165 2.02367 76.7165 2.14839L76.7068 4.12472H75.5347C75.2564 4.12472 75.1602 4.21106 75.1602 4.48928V6.14902C75.1602 6.49441 75.2945 6.55195 75.5347 6.55195H76.7068L76.7165 14.083C76.7165 14.3613 76.803 14.4572 77.091 14.4572H79.0322C79.1859 14.4572 79.2912 14.4284 79.368 14.3613C79.3874 14.3421 79.4642 14.2749 79.4642 14.083L79.4545 6.55195H80.925C81.06 6.54235 81.1272 6.49441 81.1652 6.4656Z" fill="#1D1B1B"/>
<path d="M91.5861 13.1045C91.9025 12.788 92.1912 12.4234 92.421 12.0301C92.6523 11.6368 92.835 11.205 92.9597 10.7444C93.0843 10.284 93.1521 9.80428 93.1521 9.30541C93.1521 8.55709 93.0081 7.84713 92.7291 7.20436C92.4501 6.5616 92.0659 5.98598 91.5861 5.50624C91.105 5.02656 90.5386 4.65242 89.8851 4.3742C89.2413 4.10557 88.54 3.96167 87.7999 3.96167C87.3 3.96167 86.8203 4.02883 86.3585 4.15355C85.8974 4.27827 85.4647 4.46055 85.0708 4.6812C84.6776 4.91145 84.312 5.18965 83.995 5.50624C83.6682 5.83249 83.3899 6.1874 83.1586 6.58081C82.9281 6.97413 82.746 7.40587 82.6207 7.86631C82.4961 8.32683 82.429 8.80653 82.429 9.30541C82.429 9.80428 82.4961 10.284 82.6207 10.7444C82.746 11.205 82.9281 11.6368 83.1586 12.0301C83.3899 12.4234 83.6682 12.788 83.995 13.1045C84.321 13.4307 84.6776 13.709 85.0708 13.9392C85.4647 14.1694 85.8974 14.3517 86.3585 14.4764C86.8203 14.6011 87.3 14.6683 87.7999 14.6683C88.29 14.6683 88.7705 14.6011 89.2226 14.4764C89.6733 14.3517 90.106 14.1694 90.4999 13.9392C90.9035 13.6993 91.2586 13.4211 91.5861 13.1045ZM90.3081 10.4471C90.1828 10.8117 90 11.1283 89.7695 11.3969C89.539 11.6655 89.2413 11.8862 88.9048 12.0397C88.5683 12.1932 88.1848 12.2795 87.7708 12.2795C87.3485 12.2795 86.9546 12.2027 86.6181 12.0397C86.272 11.8862 85.984 11.6655 85.7437 11.3969C85.5035 11.1283 85.3207 10.8117 85.1864 10.4471C85.0618 10.0921 84.994 9.69877 84.994 9.28623C84.994 8.89293 85.0618 8.49949 85.1864 8.14461C85.311 7.77997 85.5035 7.45381 85.7347 7.17556C85.9743 6.89739 86.272 6.66708 86.6084 6.50399C86.9546 6.3409 87.3388 6.25455 87.7708 6.25455C88.1848 6.25455 88.5683 6.3409 88.9048 6.50399C89.2413 6.66708 89.5293 6.89739 89.7695 7.17556C90 7.45381 90.1828 7.77997 90.2984 8.14461C90.423 8.50911 90.4812 8.89293 90.4812 9.28623C90.4902 9.70833 90.4327 10.0921 90.3081 10.4471Z" fill="#1D1B1B"/>
<path d="M101.632 14.1309C101.747 14.294 101.823 14.3707 101.871 14.4187C101.92 14.4571 101.948 14.4571 101.958 14.4571H104.86C104.985 14.4571 104.994 14.3515 104.976 14.3036C104.956 14.2652 104.927 14.2172 104.879 14.1693L100.277 8.24993L103.976 4.34523C104.033 4.27807 104.053 4.24929 104.053 4.2397C104.053 4.2397 104.053 4.2301 104.053 4.21091C104.053 4.17254 104.043 4.16294 104.043 4.16294C104.043 4.16294 104.005 4.13417 103.871 4.13417H101.228C101.103 4.13417 101.007 4.18213 100.91 4.28766L97.3076 8.27873V1.17929C97.3076 1.14091 97.2979 1.10253 97.2882 1.05457C97.2785 1.02578 97.2688 1.00659 97.2501 0.977814C97.2307 0.958625 97.2113 0.939435 97.1733 0.920252C97.1539 0.910657 97.1151 0.901062 97.0389 0.901062H94.9821C94.8097 0.901062 94.7232 0.920252 94.6844 0.929847C94.6366 0.949029 94.6173 0.968219 94.6173 0.968219C94.6076 0.977814 94.6076 0.987409 94.5979 1.02578C94.5889 1.10253 94.5889 1.17929 94.5889 1.27522V14.1693C94.5889 14.1788 94.5979 14.198 94.6076 14.2172C94.6173 14.2556 94.6463 14.3036 94.6747 14.3515C94.6941 14.3899 94.7329 14.4283 94.7806 14.4571C94.8 14.4666 94.8187 14.4859 94.8769 14.4859H97.0389C97.0964 14.4859 97.1442 14.4763 97.1636 14.4571C97.2016 14.4283 97.2307 14.3996 97.2598 14.3611C97.2882 14.3228 97.2979 14.2748 97.3076 14.2364C97.3173 14.1597 97.3269 14.1212 97.3269 14.1117V11.2239L98.6043 9.90004L101.632 14.1309Z" fill="#1D1B1B"/>
<path d="M114.693 9.5352C114.703 9.35298 114.703 9.11317 114.703 8.81568C114.703 8.38396 114.646 7.96186 114.521 7.55894C114.396 7.15599 114.223 6.76266 114.002 6.40767C113.781 6.05268 113.512 5.7169 113.205 5.40992C112.898 5.10294 112.551 4.8439 112.186 4.63283C111.811 4.42177 111.417 4.24908 110.994 4.12436C110.572 4.00924 110.139 3.94208 109.688 3.94208C109.197 3.94208 108.727 4.00924 108.285 4.13396C107.843 4.25868 107.43 4.45055 107.046 4.6808C106.671 4.91105 106.325 5.19889 106.017 5.52507C105.709 5.85125 105.45 6.21578 105.23 6.60917C105.018 7.0025 104.845 7.42464 104.73 7.86597C104.614 8.30725 104.557 8.7774 104.557 9.25703C104.557 10.015 104.701 10.7345 104.999 11.3772C105.287 12.0296 105.691 12.5957 106.19 13.0754C106.69 13.5551 107.276 13.9388 107.939 14.2074C108.602 14.4761 109.313 14.6199 110.053 14.6199C110.716 14.6199 111.35 14.4952 111.946 14.2554C112.541 14.006 113.089 13.6606 113.56 13.2192L113.588 13.2001C113.656 13.1521 113.704 13.1041 113.752 13.037C113.771 13.0179 113.791 12.9794 113.791 12.9123C113.791 12.8739 113.791 12.8451 113.771 12.8067C113.771 12.8067 113.762 12.7779 113.704 12.7108L112.801 11.6938C112.724 11.6171 112.647 11.55 112.589 11.5116C112.56 11.4924 112.541 11.4828 112.522 11.4828C112.493 11.4828 112.474 11.4924 112.455 11.502C112.416 11.5212 112.359 11.5595 112.272 11.6363C112.157 11.7514 111.994 11.8665 111.811 11.9721C111.629 12.0776 111.426 12.164 111.206 12.2407C110.994 12.3174 110.764 12.375 110.534 12.423C110.303 12.4709 110.063 12.4902 109.842 12.4902C109.592 12.4902 109.323 12.4518 109.044 12.3846C108.755 12.3174 108.477 12.1927 108.228 12.0296C107.968 11.8665 107.737 11.6363 107.545 11.3677C107.343 11.0895 107.209 10.7345 107.151 10.3316L107.104 9.99579H113.627C113.964 9.99579 114.223 9.97654 114.387 9.93826C114.464 9.91901 114.569 9.88059 114.617 9.82306C114.665 9.76553 114.693 9.66957 114.693 9.5352ZM107.084 8.14414L107.276 7.7316C107.372 7.52058 107.507 7.30948 107.67 7.09845C107.833 6.89695 108.006 6.70513 108.209 6.54203C108.41 6.37886 108.631 6.24458 108.861 6.14864C109.102 6.04316 109.361 5.99514 109.621 5.99514C109.957 5.99514 110.264 6.04316 110.524 6.12943C110.783 6.21578 111.023 6.35013 111.225 6.51323C111.426 6.66672 111.6 6.85861 111.764 7.06964C111.908 7.27114 112.052 7.49178 112.176 7.72204L112.407 8.14414H107.084Z" fill="#1D1B1B"/>
<path d="M123.439 14.4078C123.439 14.4078 123.506 14.4558 123.745 14.4558H125.735C125.812 14.4558 125.917 14.4462 125.965 14.3887C126.013 14.3311 126.042 14.2255 126.042 14.0816V8.45969C126.042 7.83606 125.956 7.24129 125.773 6.69441C125.6 6.14759 125.341 5.66792 125.004 5.26492C124.678 4.86201 124.265 4.54541 123.794 4.31517C123.323 4.08491 122.775 3.96979 122.17 3.96979C121.737 3.96979 121.344 4.01776 120.998 4.1137C120.652 4.20963 120.334 4.31517 120.075 4.46866C119.038 5.11143 118.711 6.12839 118.711 6.12839L118.345 4.60298C118.316 4.52623 118.288 4.44947 118.268 4.38233C118.249 4.33435 118.221 4.28639 118.192 4.24801C118.163 4.21923 118.134 4.19045 118.095 4.17126C118.067 4.15207 118.019 4.14248 117.961 4.14248H116.664C116.607 4.14248 116.549 4.15207 116.482 4.16166C116.453 4.17126 116.414 4.18085 116.386 4.20963L116.395 4.21923C116.357 4.24801 116.328 4.27679 116.3 4.32475C116.27 4.37273 116.261 4.43029 116.261 4.48785V14.0912C116.261 14.2159 116.29 14.3118 116.347 14.3791C116.395 14.4366 116.511 14.4654 116.664 14.4654H118.606C118.663 14.4654 118.721 14.4558 118.759 14.4462C118.797 14.4366 118.836 14.4174 118.884 14.3887C118.894 14.3791 118.922 14.3599 118.941 14.3023C118.97 14.2351 118.98 14.1776 118.98 14.1104V8.50759C118.999 8.21025 119.085 7.92239 119.229 7.67295C119.364 7.42352 119.537 7.21249 119.739 7.02059C119.941 6.83829 120.172 6.6944 120.411 6.58886C120.95 6.35862 121.478 6.38743 121.978 6.59846C122.237 6.70401 122.477 6.8575 122.689 7.0494C122.9 7.24129 123.064 7.46193 123.198 7.71137C123.333 7.97043 123.4 8.2486 123.4 8.53639V14.1296C123.4 14.3503 123.439 14.4078 123.439 14.4078Z" fill="#1D1B1B"/>
</g>
<defs>
<clipPath id="clip0_3496_30804">
<rect width="126" height="18" fill="white" transform="translate(0.554688 0.533936)"/>
</clipPath>
</defs>
</svg>
