<svg width="127" height="19" viewBox="0 0 127 19" fill="none" xmlns="http://www.w3.org/2000/svg">
<g clip-path="url(#clip0_3496_30804)">
<path d="M9.18546 17.2557C9.55058 16.872 9.87728 16.3922 10.1464 15.8454L12.0776 11.1445L9.37764 4.58234H9.08937C8.62815 4.58234 8.22468 4.66867 7.88835 4.83177C7.53278 5.00442 7.21573 5.21553 6.94669 5.47457C6.67766 5.73361 6.43744 6.03098 6.24527 6.34756C6.0435 6.67375 5.88976 6.9904 5.76484 7.27817C5.56307 7.76746 5.34207 8.30476 5.08264 8.92832C4.84243 9.51353 4.583 10.1468 4.30436 10.8087C4.0257 11.4802 3.74706 12.1423 3.47802 12.7659C3.19937 13.4182 2.93034 14.0514 2.68052 14.6462C2.15205 15.903 1.61397 17.179 1.06628 18.4549H6.10115C6.81218 18.4549 7.41751 18.3495 7.90753 18.1383C8.39754 17.9369 8.82034 17.6394 9.18546 17.2557Z" fill="#1D1B1B"/>
<path fill-rule="evenodd" clip-rule="evenodd" d="M17.9201 11.9889L15.7294 11.135C15.6237 11.2694 15.4987 11.3748 15.345 11.4325C15.1144 11.5285 14.855 11.5476 14.6052 11.4517C14.1055 11.2598 13.8557 10.6938 14.0479 10.1949C14.24 9.696 14.8069 9.44656 15.3066 9.64803C15.7197 9.81113 15.9599 10.2236 15.9215 10.6362L17.6414 11.3078L16.1617 7.6429L14.7109 6.94259C14.4322 7.25918 13.9614 7.36473 13.5675 7.17283C13.087 6.94259 12.8853 6.35737 13.1159 5.8777C13.3465 5.39795 13.9326 5.19652 14.413 5.42676C14.6532 5.54191 14.8262 5.74334 14.903 5.98318C14.9607 6.13674 14.9703 6.29983 14.9415 6.46292L15.8639 6.91378L14.8454 4.40022C14.682 4.41941 14.5187 4.39063 14.365 4.32348C14.1343 4.22754 13.9422 4.03566 13.8461 3.79582C13.6443 3.29694 13.8941 2.73091 14.3938 2.53904C14.8934 2.33757 15.4603 2.58701 15.6525 3.08589C15.8158 3.49841 15.6717 3.94932 15.345 4.20835L17.1514 8.67907L17.6799 7.84443C17.5646 7.71967 17.4973 7.57574 17.4589 7.41266C17.4012 7.17283 17.4396 6.90418 17.5838 6.68355C17.872 6.23262 18.4678 6.09833 18.9194 6.37657C19.371 6.66435 19.5055 7.25918 19.2268 7.71012C18.9963 8.08424 18.5446 8.23773 18.1315 8.12266L17.4012 9.28346L18.804 12.7564L19.688 11.3654C19.5728 11.2406 19.5055 11.0967 19.4671 10.9336C19.4095 10.6938 19.4479 10.4251 19.5919 10.2045C19.8802 9.75353 20.476 9.6193 20.9275 9.89746C21.3792 10.1853 21.5137 10.7802 21.2351 11.231C21.0045 11.6052 20.5529 11.7587 20.1396 11.6435L19.054 13.3609L20.3799 16.6515H25.5012C25.1311 15.779 24.7665 14.9174 24.4059 14.0654L24.4054 14.064C24.0921 13.3239 23.7819 12.591 23.4738 11.8642C23.4024 11.6946 23.3303 11.523 23.2575 11.3495L23.2571 11.3485L23.2566 11.3474C23.0455 10.8448 22.8277 10.3262 22.5995 9.79189C22.2921 9.07251 21.9844 8.35272 21.6867 7.6429C21.3888 6.93299 21.1005 6.24222 20.8315 5.58025C20.5625 4.91829 20.3126 4.31389 20.082 3.75744C19.9474 3.42166 19.7553 3.0571 19.5247 2.67335C19.2941 2.2896 19.0155 1.94422 18.6791 1.62762C18.3524 1.31103 17.9681 1.052 17.5262 0.840937C17.0841 0.62987 16.5845 0.533936 16.0176 0.533936H6.95679V0.716217C7.21622 0.716217 7.48529 0.821746 7.76387 1.02322C8.04253 1.23428 8.31163 1.48372 8.57103 1.79072C8.83044 2.09773 9.0706 2.4335 9.30121 2.78847C9.34891 2.86709 9.39564 2.94391 9.44133 3.01896C9.60749 3.29192 9.75924 3.54129 9.88732 3.76704L13.9038 13.5144C14.2304 14.1667 14.6052 14.7231 15.0472 15.1836C15.4891 15.6442 15.9984 15.9991 16.5941 16.2582C17.1898 16.5076 17.9008 16.6419 18.7464 16.6419H19.8034L17.9201 11.9889ZM18.8429 7.09626C18.8621 7.20181 18.8525 7.3169 18.7852 7.42246C18.6507 7.63355 18.3817 7.69108 18.1798 7.56633C17.978 7.43206 17.9204 7.1634 18.0453 6.96197C18.1798 6.76046 18.4489 6.70292 18.6507 6.82761C18.7564 6.88522 18.8141 6.99071 18.8429 7.09626ZM20.8333 10.6173C20.8525 10.7228 20.8429 10.838 20.7756 10.9435C20.6507 11.145 20.3817 11.2121 20.1702 11.0874C19.9684 10.9531 19.9108 10.6845 20.0357 10.4829C20.1702 10.2815 20.4393 10.224 20.6411 10.3487C20.7468 10.4062 20.8044 10.5118 20.8333 10.6173ZM13.6091 6.10877C13.7148 5.89773 13.9742 5.80178 14.1953 5.90734C14.4066 6.01282 14.5028 6.28147 14.3971 6.49258C14.2914 6.70361 14.032 6.79957 13.8109 6.69401C13.7053 6.64608 13.6283 6.55012 13.5899 6.44457C13.5514 6.33909 13.561 6.21433 13.6091 6.10877ZM15.1246 10.1469C15.0093 10.0989 14.894 10.1085 14.7883 10.1565C14.6827 10.2044 14.5962 10.2812 14.5577 10.3963C14.4713 10.617 14.5866 10.876 14.8076 10.9624C15.0286 11.0488 15.288 10.9336 15.3745 10.7129C15.4609 10.4923 15.3456 10.2429 15.1246 10.1469ZM14.6074 3.02865C14.7227 2.99026 14.8381 2.99026 14.9437 3.03824C15.0398 3.07662 15.1264 3.16296 15.1743 3.27809C15.2609 3.49876 15.1455 3.7578 14.9245 3.84414C14.7036 3.93049 14.4441 3.81536 14.3576 3.5947C14.2711 3.37403 14.3864 3.11499 14.6074 3.02865Z" fill="#1D1B1B"/>
<path d="M42.1508 14.3703L42.1796 14.3511C42.2084 14.3318 42.2277 14.3127 42.2373 14.2743C42.2565 14.2168 42.2661 14.1592 42.2661 14.1016V4.43109C42.2661 4.36393 42.2565 4.31597 42.2373 4.268C42.2181 4.22961 42.1989 4.20084 42.1508 4.16246L42.122 4.14328C42.1027 4.12409 42.0739 4.10489 42.0451 4.10489C41.9586 4.08572 41.9106 4.08572 41.8818 4.08572H40.6038C40.4789 4.08572 40.4213 4.09531 40.4021 4.09531C40.3924 4.09531 40.3828 4.10489 40.3828 4.10489C40.3828 4.10489 40.354 4.13368 40.3252 4.21044C40.2868 4.29677 40.2483 4.4119 40.1907 4.54621L39.7679 5.87975L39.4316 5.40008C39.2875 5.19858 39.1241 4.99715 38.932 4.82444C38.7398 4.65175 38.5284 4.49824 38.2978 4.37352C38.0672 4.2488 37.7982 4.14328 37.5195 4.07612C37.2408 3.99937 36.9238 3.961 36.5971 3.961C35.8573 3.961 35.1558 4.09531 34.512 4.37352C33.8683 4.64215 33.3013 5.02589 32.8209 5.50556C32.3405 5.98531 31.9658 6.55132 31.6871 7.20369C31.4085 7.84644 31.274 8.55647 31.274 9.31434C31.274 9.81321 31.3412 10.3025 31.4661 10.7534C31.5911 11.2139 31.7736 11.6456 32.0042 12.039C32.2348 12.4323 32.5135 12.7969 32.8305 13.1231C33.1476 13.4493 33.5128 13.7275 33.9068 13.9577C34.3006 14.188 34.7234 14.3703 35.1751 14.4949C35.6267 14.6197 36.1071 14.6869 36.5971 14.6869C36.8662 14.6869 37.1256 14.6581 37.3754 14.5909C37.6252 14.5237 37.8654 14.4374 38.0864 14.3318C38.3074 14.2263 38.5092 14.1016 38.6918 13.9577C38.8743 13.8138 39.0473 13.6699 39.1914 13.526L39.5373 13.1806L39.7775 14.0249C39.8063 14.1208 39.8448 14.1976 39.8736 14.2839C39.8928 14.3415 39.9216 14.3799 39.9409 14.4182C39.9601 14.4374 39.9793 14.4566 40.0081 14.4662C40.0273 14.4758 40.085 14.4949 40.1907 14.4949H41.8914C41.9202 14.4949 41.9778 14.4949 42.0547 14.4758C42.0835 14.4662 42.1124 14.4566 42.1317 14.4374L42.1508 14.3703ZM39.3451 10.4656C39.1914 10.8301 38.98 11.1467 38.711 11.4154C38.4419 11.684 38.1249 11.8951 37.7597 12.0486C37.3946 12.2021 37.0007 12.2788 36.5779 12.2788C36.1647 12.2788 35.7804 12.2021 35.4345 12.039C35.0982 11.8855 34.8003 11.6648 34.5505 11.3962C34.3102 11.1276 34.1181 10.811 33.9932 10.4464C33.8683 10.0914 33.801 9.69808 33.801 9.28554C33.801 8.89224 33.8683 8.4988 33.9932 8.14392C34.1181 7.77928 34.3102 7.45313 34.5505 7.17488C34.7907 6.89671 35.0885 6.6664 35.4345 6.50331C35.7804 6.34022 36.1647 6.25387 36.5779 6.25387C37.0007 6.25387 37.4042 6.34022 37.7694 6.49379C38.1345 6.65687 38.4516 6.8775 38.7206 7.15576C38.9896 7.43392 39.201 7.76011 39.3547 8.12467C39.5085 8.48931 39.5853 8.88261 39.5853 9.28554C39.5757 9.71726 39.4989 10.1106 39.3451 10.4656Z" fill="#1D1B1B"/>
<path d="M53.571 15.4445C53.8497 14.7825 53.9841 14.0149 53.9841 13.1707V4.43076C53.9841 4.3732 53.9746 4.32523 53.9553 4.28687C53.9361 4.24848 53.9073 4.21011 53.8785 4.19092C53.84 4.16215 53.7919 4.13336 53.744 4.11418C53.6959 4.09499 53.6479 4.08539 53.5998 4.08539H52.3218C52.2161 4.08539 52.1681 4.09499 52.149 4.10458C52.1105 4.12376 52.0912 4.13336 52.0817 4.14296C52.0624 4.17174 52.0336 4.21011 52.024 4.25808C51.9951 4.33483 51.9663 4.42118 51.9279 4.51711L51.5244 5.78348L51.188 5.37095C51.0247 5.16952 50.8422 4.97762 50.6596 4.79533C50.477 4.62264 50.2656 4.46914 50.0446 4.34442C49.8236 4.2197 49.5738 4.11417 49.3048 4.03743C49.0357 3.96067 48.7379 3.93188 48.4112 3.93188C47.6809 3.93188 46.9987 4.0662 46.3741 4.34442C45.7497 4.61305 45.2116 4.99683 44.76 5.4765C44.3084 5.95617 43.9432 6.5222 43.6934 7.16503C43.434 7.80777 43.309 8.51773 43.309 9.26605C43.309 10.0144 43.434 10.7051 43.6934 11.3286C43.9432 11.9427 44.3084 12.4895 44.7503 12.9308C45.2019 13.3722 45.7497 13.7271 46.3646 13.9766C46.9892 14.226 47.6714 14.3508 48.4112 14.3508C48.7283 14.3508 49.0069 14.3123 49.2471 14.2356C49.4873 14.1589 49.6987 14.0629 49.8909 13.9382C50.0831 13.8135 50.2561 13.6695 50.4194 13.5161C50.5828 13.353 50.7557 13.1707 50.919 12.998L51.4186 12.4704V13.3146C51.4186 13.3241 51.4186 13.3241 51.4186 13.3338C51.4283 13.3626 51.4283 13.4009 51.4283 13.4393V13.5545C51.4283 13.708 51.4186 13.8614 51.409 14.0054C51.3994 14.1589 51.361 14.3123 51.3226 14.4467C51.2361 14.7441 51.0919 15.0031 50.871 15.2333C50.6692 15.4445 50.429 15.6362 50.1599 15.7802C49.8909 15.9241 49.6026 16.0392 49.3048 16.116C49.0069 16.1928 48.7091 16.2311 48.4304 16.2311C48.2671 16.2311 48.0845 16.2215 47.8923 16.212C47.6809 16.1928 47.4696 16.1639 47.2582 16.1064C47.0468 16.0584 46.8354 15.9816 46.6335 15.8953C46.4223 15.7994 46.2397 15.6747 46.0764 15.5212C45.8841 15.3868 45.8073 15.3773 45.788 15.3773C45.7592 15.3773 45.7401 15.3868 45.7207 15.3964C45.6919 15.4156 45.6343 15.454 45.5671 15.5308L44.76 16.6436C44.6927 16.7492 44.6542 16.8452 44.6542 16.9315C44.6542 16.989 44.6639 17.0465 44.7024 17.0946C44.7407 17.1617 44.7888 17.2097 44.8464 17.2576L44.8657 17.2769C45.0963 17.4783 45.3749 17.6702 45.6824 17.8237C45.9995 17.9868 46.3262 18.1211 46.6625 18.217C46.9987 18.3225 47.3447 18.3993 47.6809 18.4568C48.0173 18.5048 48.3439 18.5336 48.6322 18.5336C49.3913 18.5336 50.1119 18.4089 50.7653 18.1691C51.4186 17.9292 51.9951 17.5838 52.466 17.1329C52.9079 16.6628 53.2924 16.1064 53.571 15.4445ZM51.5917 9.42908C51.5724 9.82252 51.4763 10.1966 51.3226 10.542C51.1592 10.8778 50.9478 11.1848 50.6788 11.4342C50.4098 11.6837 50.0927 11.8852 49.7372 12.029C49.3816 12.1729 48.9973 12.2401 48.5938 12.2401C48.1806 12.2401 47.7963 12.1634 47.46 12.0099C47.1141 11.8564 46.8258 11.6453 46.576 11.3767C46.3358 11.1081 46.1435 10.7915 46.0186 10.4268C45.8938 10.0719 45.8265 9.67852 45.8265 9.26605C45.8265 8.87268 45.8938 8.47938 46.0186 8.12436C46.1435 7.75979 46.3358 7.4336 46.576 7.16503C46.8162 6.88679 47.1141 6.66615 47.4503 6.50299C47.7963 6.3399 48.1806 6.25355 48.5938 6.25355C48.9973 6.25355 49.3817 6.33037 49.7468 6.48386C50.1023 6.63735 50.4194 6.84838 50.6788 7.10742C50.9383 7.36646 51.1592 7.67346 51.3226 8.01885C51.4859 8.36425 51.5724 8.72882 51.5917 9.12212V9.13174V9.42908Z" fill="#1D1B1B"/>
<path d="M63.963 5.2666C63.963 5.18025 63.886 5.0939 63.7324 5.00756L63.7035 4.98835C63.4536 4.80606 63.2231 4.65256 63.0213 4.51825C62.8195 4.39353 62.6177 4.28799 62.4159 4.20165C62.2141 4.12491 62.0028 4.05774 61.7819 4.01937C61.5608 3.981 61.2918 3.95221 61.0036 3.95221C60.744 3.95221 60.5134 3.99059 60.3117 4.06734C60.1003 4.14409 59.6775 4.37434 59.5046 4.50865C58.8512 5.02668 58.4188 5.71746 58.4188 5.71746C58.4188 5.71746 57.9768 4.52784 57.9192 4.41271C57.8711 4.31677 57.8231 4.23043 57.7558 4.17287C57.7462 4.16327 57.7078 4.12491 57.6117 4.12491H56.3146C56.2665 4.12491 56.2088 4.13449 56.1512 4.15368C56.1032 4.17287 56.0551 4.19205 56.0167 4.22084C55.9879 4.24962 55.9591 4.2784 55.9398 4.31677C55.9206 4.35515 55.911 4.41271 55.911 4.47028V14.0736C55.911 14.3518 56.0071 14.4478 56.2954 14.4478H58.2266C58.3804 14.4478 58.4957 14.419 58.5437 14.3711C58.611 14.3039 58.6206 14.1696 58.6206 14.0736V7.78012L58.659 7.71296C58.7839 7.5115 58.9088 7.32924 59.0338 7.15656C59.1683 6.98386 59.3124 6.82077 59.4661 6.69601C59.6295 6.56172 59.812 6.45618 60.0138 6.37943C60.2156 6.30268 60.4463 6.26427 60.7057 6.26427C61.0707 6.26427 61.407 6.33149 61.6953 6.46578C61.9643 6.59053 62.2334 6.77275 62.4929 7.02219C62.5793 7.0606 62.6562 7.0702 62.7235 7.0702C62.8099 7.0702 62.9252 7.051 63.0598 6.86871L63.8381 5.54477C63.9533 5.40088 63.963 5.30493 63.963 5.2666Z" fill="#1D1B1B"/>
<path d="M73.2178 13.1045C73.5348 12.788 73.8235 12.4234 74.0541 12.0301C74.2846 11.6368 74.4674 11.205 74.592 10.7444C74.7166 10.284 74.7844 9.80428 74.7844 9.30541C74.7844 8.55709 74.6404 7.84713 74.3614 7.20436C74.0831 6.5616 73.6982 5.98598 73.2178 5.50624C72.738 5.02656 72.171 4.65242 71.5174 4.3742C70.8736 4.10557 70.1723 3.96167 69.4323 3.96167C68.9327 3.96167 68.4523 4.02883 67.9911 4.15355C67.5299 4.27827 67.0975 4.46055 66.7035 4.6812C66.3096 4.91145 65.9444 5.18965 65.6274 5.50624C65.3007 5.83249 65.0221 6.1874 64.7915 6.58081C64.5609 6.97413 64.3782 7.40587 64.2533 7.86631C64.1284 8.32683 64.0612 8.80653 64.0612 9.30541C64.0612 9.80428 64.1284 10.284 64.2533 10.7444C64.3782 11.205 64.5609 11.6368 64.7915 12.0301C65.0221 12.4234 65.3007 12.788 65.6274 13.1045C65.9444 13.4307 66.3096 13.709 66.7035 13.9392C67.0975 14.1694 67.5299 14.3517 67.9911 14.4764C68.4523 14.6011 68.9327 14.6683 69.4323 14.6683C69.9224 14.6683 70.4028 14.6011 70.8542 14.4764C71.3063 14.3517 71.7383 14.1694 72.1322 13.9392C72.5358 13.6993 72.9014 13.4211 73.2178 13.1045ZM71.9404 10.4471C71.8151 10.8117 71.6324 11.1283 71.4018 11.3969C71.1713 11.6655 70.8736 11.8862 70.5371 12.0397C70.2007 12.1932 69.8164 12.2795 69.4035 12.2795C68.9807 12.2795 68.5868 12.2027 68.2505 12.0397C67.9046 11.8862 67.6163 11.6655 67.3761 11.3969C67.1359 11.1283 66.9533 10.8117 66.8188 10.4471C66.6939 10.0921 66.6266 9.69877 66.6266 9.28623C66.6266 8.89293 66.6939 8.49949 66.8188 8.14461C66.9438 7.77997 67.1359 7.45381 67.3665 7.17556C67.6067 6.89739 67.9046 6.66708 68.2409 6.50399C68.5868 6.3409 68.9711 6.25455 69.4035 6.25455C69.8164 6.25455 70.2007 6.3409 70.5371 6.50399C70.8736 6.66708 71.1616 6.89739 71.4018 7.17556C71.6324 7.45381 71.8151 7.77997 71.9308 8.14461C72.0554 8.50911 72.1128 8.88331 72.1128 9.28623C72.1225 9.70833 72.0651 10.0921 71.9404 10.4471Z" fill="#1D1B1B"/>
<path d="M81.1651 6.4656C81.2225 6.40806 81.2516 6.30252 81.2516 6.13942V4.47968C81.2516 4.34538 81.2225 4.24944 81.1651 4.20147C81.127 4.16309 81.0598 4.11512 80.9158 4.11512H79.4447L79.4544 1.46724C79.4544 1.32333 79.435 1.2082 79.3872 1.13146C79.3775 1.11227 79.3201 1.09308 79.2141 1.09308H79.1373H79.1283L77.1974 1.76464C77.014 1.8318 76.87 1.90855 76.7737 1.97571C76.7551 1.98531 76.7163 2.02367 76.7163 2.14839L76.7066 4.12472H75.5345C75.2562 4.12472 75.16 4.21106 75.16 4.48928V6.14902C75.16 6.49441 75.2943 6.55195 75.5345 6.55195H76.7066L76.7163 14.083C76.7163 14.3613 76.8028 14.4572 77.0908 14.4572H79.0321C79.1857 14.4572 79.291 14.4284 79.3678 14.3613C79.3872 14.3421 79.4641 14.2749 79.4641 14.083L79.4544 6.55195H80.9248C81.0598 6.54235 81.127 6.49441 81.1651 6.4656Z" fill="#1D1B1B"/>
<path d="M91.5859 13.1045C91.9023 12.788 92.191 12.4234 92.4209 12.0301C92.6521 11.6368 92.8349 11.205 92.9595 10.7444C93.0841 10.284 93.1519 9.80428 93.1519 9.30541C93.1519 8.55709 93.0079 7.84713 92.7289 7.20436C92.4499 6.5616 92.0657 5.98598 91.5859 5.50624C91.1048 5.02656 90.5385 4.65242 89.8849 4.3742C89.2411 4.10557 88.5398 3.96167 87.7997 3.96167C87.2999 3.96167 86.8201 4.02883 86.3583 4.15355C85.8972 4.27827 85.4645 4.46055 85.0706 4.6812C84.6774 4.91145 84.3119 5.18965 83.9948 5.50624C83.668 5.83249 83.3897 6.1874 83.1585 6.58081C82.9279 6.97413 82.7458 7.40587 82.6205 7.86631C82.4959 8.32683 82.4288 8.80653 82.4288 9.30541C82.4288 9.80428 82.4959 10.284 82.6205 10.7444C82.7458 11.205 82.9279 11.6368 83.1585 12.0301C83.3897 12.4234 83.668 12.788 83.9948 13.1045C84.3209 13.4307 84.6774 13.709 85.0706 13.9392C85.4645 14.1694 85.8972 14.3517 86.3583 14.4764C86.8201 14.6011 87.2999 14.6683 87.7997 14.6683C88.2899 14.6683 88.7703 14.6011 89.2224 14.4764C89.6731 14.3517 90.1058 14.1694 90.4997 13.9392C90.9033 13.6993 91.2585 13.4211 91.5859 13.1045ZM90.3079 10.4471C90.1826 10.8117 89.9999 11.1283 89.7693 11.3969C89.5388 11.6655 89.2411 11.8862 88.9046 12.0397C88.5682 12.1932 88.1846 12.2795 87.7706 12.2795C87.3483 12.2795 86.9544 12.2027 86.6179 12.0397C86.2718 11.8862 85.9838 11.6655 85.7435 11.3969C85.5033 11.1283 85.3205 10.8117 85.1862 10.4471C85.0616 10.0921 84.9938 9.69877 84.9938 9.28623C84.9938 8.89293 85.0616 8.49949 85.1862 8.14461C85.3109 7.77997 85.5033 7.45381 85.7345 7.17556C85.9741 6.89739 86.2718 6.66708 86.6082 6.50399C86.9544 6.3409 87.3386 6.25455 87.7706 6.25455C88.1846 6.25455 88.5682 6.3409 88.9046 6.50399C89.2411 6.66708 89.5291 6.89739 89.7693 7.17556C89.9999 7.45381 90.1826 7.77997 90.2982 8.14461C90.4228 8.50911 90.481 8.89293 90.481 9.28623C90.49 9.70833 90.4325 10.0921 90.3079 10.4471Z" fill="#1D1B1B"/>
<path d="M101.632 14.1309C101.747 14.294 101.823 14.3707 101.871 14.4187C101.92 14.4571 101.948 14.4571 101.958 14.4571H104.86C104.984 14.4571 104.994 14.3515 104.975 14.3036C104.956 14.2652 104.927 14.2172 104.879 14.1693L100.277 8.24993L103.976 4.34523C104.033 4.27807 104.053 4.24929 104.053 4.2397C104.053 4.2397 104.053 4.2301 104.053 4.21091C104.053 4.17254 104.043 4.16294 104.043 4.16294C104.043 4.16294 104.005 4.13417 103.871 4.13417H101.228C101.103 4.13417 101.007 4.18213 100.91 4.28766L97.3074 8.27873V1.17929C97.3074 1.14091 97.2977 1.10253 97.2881 1.05457C97.2784 1.02578 97.2687 1.00659 97.25 0.977814C97.2306 0.958625 97.2112 0.939435 97.1731 0.920252C97.1537 0.910657 97.115 0.901062 97.0388 0.901062H94.982C94.8096 0.901062 94.7231 0.920252 94.6843 0.929847C94.6365 0.949029 94.6171 0.968219 94.6171 0.968219C94.6074 0.977814 94.6074 0.987409 94.5977 1.02578C94.5887 1.10253 94.5887 1.17929 94.5887 1.27522V14.1693C94.5887 14.1788 94.5978 14.198 94.6074 14.2172C94.6171 14.2556 94.6462 14.3036 94.6746 14.3515C94.694 14.3899 94.7328 14.4283 94.7805 14.4571C94.7999 14.4666 94.8186 14.4859 94.8767 14.4859H97.0388C97.0963 14.4859 97.1441 14.4763 97.1634 14.4571C97.2015 14.4283 97.2306 14.3996 97.2597 14.3611C97.2881 14.3228 97.2977 14.2748 97.3074 14.2364C97.3171 14.1597 97.3268 14.1212 97.3268 14.1117V11.2239L98.6041 9.90004L101.632 14.1309Z" fill="#1D1B1B"/>
<path d="M114.693 9.5352C114.703 9.35298 114.703 9.11317 114.703 8.81568C114.703 8.38396 114.645 7.96186 114.521 7.55894C114.395 7.15599 114.223 6.76266 114.002 6.40767C113.781 6.05268 113.511 5.7169 113.205 5.40992C112.897 5.10294 112.55 4.8439 112.186 4.63283C111.811 4.42177 111.417 4.24908 110.994 4.12436C110.572 4.00924 110.139 3.94208 109.688 3.94208C109.197 3.94208 108.727 4.00924 108.285 4.13396C107.843 4.25868 107.429 4.45055 107.046 4.6808C106.671 4.91105 106.325 5.19889 106.017 5.52507C105.709 5.85125 105.45 6.21578 105.229 6.60917C105.018 7.0025 104.845 7.42464 104.73 7.86597C104.614 8.30725 104.556 8.7774 104.556 9.25703C104.556 10.015 104.701 10.7345 104.999 11.3772C105.287 12.0296 105.69 12.5957 106.19 13.0754C106.689 13.5551 107.276 13.9388 107.938 14.2074C108.602 14.4761 109.313 14.6199 110.053 14.6199C110.716 14.6199 111.349 14.4952 111.945 14.2554C112.541 14.006 113.089 13.6606 113.56 13.2192L113.588 13.2001C113.655 13.1521 113.704 13.1041 113.752 13.037C113.771 13.0179 113.79 12.9794 113.79 12.9123C113.79 12.8739 113.79 12.8451 113.771 12.8067C113.771 12.8067 113.761 12.7779 113.704 12.7108L112.801 11.6938C112.724 11.6171 112.647 11.55 112.589 11.5116C112.56 11.4924 112.541 11.4828 112.522 11.4828C112.493 11.4828 112.474 11.4924 112.455 11.502C112.416 11.5212 112.359 11.5595 112.272 11.6363C112.157 11.7514 111.994 11.8665 111.811 11.9721C111.629 12.0776 111.426 12.164 111.205 12.2407C110.994 12.3174 110.764 12.375 110.534 12.423C110.303 12.4709 110.062 12.4902 109.841 12.4902C109.592 12.4902 109.323 12.4518 109.044 12.3846C108.755 12.3174 108.477 12.1927 108.228 12.0296C107.967 11.8665 107.737 11.6363 107.545 11.3677C107.343 11.0895 107.209 10.7345 107.151 10.3316L107.103 9.99579H113.627C113.963 9.99579 114.223 9.97654 114.386 9.93826C114.463 9.91901 114.569 9.88059 114.616 9.82306C114.665 9.76553 114.693 9.66957 114.693 9.5352ZM107.084 8.14414L107.276 7.7316C107.372 7.52058 107.506 7.30948 107.67 7.09845C107.833 6.89695 108.006 6.70513 108.208 6.54203C108.41 6.37886 108.631 6.24458 108.861 6.14864C109.101 6.04316 109.361 5.99514 109.621 5.99514C109.956 5.99514 110.264 6.04316 110.524 6.12943C110.783 6.21578 111.023 6.35013 111.225 6.51323C111.426 6.66672 111.6 6.85861 111.763 7.06964C111.907 7.27114 112.051 7.49178 112.176 7.72204L112.406 8.14414H107.084Z" fill="#1D1B1B"/>
<path d="M123.438 14.4078C123.438 14.4078 123.506 14.4558 123.745 14.4558H125.735C125.812 14.4558 125.917 14.4462 125.965 14.3887C126.013 14.3311 126.042 14.2255 126.042 14.0816V8.45969C126.042 7.83606 125.956 7.24129 125.773 6.69441C125.6 6.14759 125.341 5.66792 125.004 5.26492C124.678 4.86201 124.264 4.54541 123.794 4.31517C123.323 4.08491 122.775 3.96979 122.17 3.96979C121.737 3.96979 121.344 4.01776 120.997 4.1137C120.652 4.20963 120.334 4.31517 120.075 4.46866C119.037 5.11143 118.711 6.12839 118.711 6.12839L118.345 4.60298C118.316 4.52623 118.288 4.44947 118.268 4.38233C118.249 4.33435 118.221 4.28639 118.191 4.24801C118.163 4.21923 118.134 4.19045 118.095 4.17126C118.067 4.15207 118.019 4.14248 117.961 4.14248H116.664C116.607 4.14248 116.549 4.15207 116.481 4.16166C116.453 4.17126 116.414 4.18085 116.386 4.20963L116.395 4.21923C116.357 4.24801 116.328 4.27679 116.299 4.32475C116.27 4.37273 116.261 4.43029 116.261 4.48785V14.0912C116.261 14.2159 116.29 14.3118 116.347 14.3791C116.395 14.4366 116.511 14.4654 116.664 14.4654H118.605C118.663 14.4654 118.72 14.4558 118.759 14.4462C118.797 14.4366 118.836 14.4174 118.884 14.3887C118.893 14.3791 118.922 14.3599 118.941 14.3023C118.97 14.2351 118.98 14.1776 118.98 14.1104V8.50759C118.999 8.21025 119.085 7.92239 119.229 7.67295C119.364 7.42352 119.537 7.21249 119.739 7.02059C119.941 6.83829 120.171 6.6944 120.411 6.58886C120.95 6.35862 121.478 6.38743 121.978 6.59846C122.237 6.70401 122.477 6.8575 122.689 7.0494C122.9 7.24129 123.064 7.46193 123.198 7.71137C123.333 7.97043 123.4 8.2486 123.4 8.53639V14.1296C123.4 14.3503 123.438 14.4078 123.438 14.4078Z" fill="#1D1B1B"/>
</g>
<defs>
<clipPath id="clip0_3496_30804">
<rect width="126" height="18" fill="white" transform="translate(0.554565 0.533936)"/>
</clipPath>
</defs>
</svg>
