<svg width="102" height="29" viewBox="0 0 102 29" fill="none" xmlns="http://www.w3.org/2000/svg">
<path d="M59.0487 4.23737L64.7211 6.47013L59.0487 8.5822V11.5994L68.7642 7.67703V5.26323L59.0487 1.34082V4.23737Z" fill="#1D1B1B"/>
<path d="M6.97217 15.4615C4.25665 15.4615 2.26527 16.6684 2.08424 19.2029H5.10148V19.1426C5.16182 18.2978 5.94631 17.6943 6.79113 17.7547C7.93769 17.7547 8.48079 18.4184 8.48079 19.565V20.1081H7.09286C4.13596 20.1081 1.72217 21.0133 1.72217 23.8495V23.9702C1.72217 26.2633 3.41182 27.2891 5.46355 27.2891C6.73079 27.3495 7.87734 26.746 8.60148 25.7805V27.1081H11.6791V19.5046C11.6187 16.6081 9.62734 15.4615 6.97217 15.4615ZM6.30837 25.0564C5.22217 25.0564 4.73941 24.5133 4.73941 23.7288V23.6081C4.73941 22.5822 5.52389 22.1598 7.09286 22.1598H8.3601V23.246C8.42044 24.4529 7.39458 25.0564 6.30837 25.0564Z" fill="#1D1B1B"/>
<path d="M18.9196 24.9357C17.411 24.9357 16.6265 23.9098 16.6265 21.6167V21.2547C16.6265 19.0219 17.5317 17.9357 18.9196 17.9357C20.0058 17.9357 20.6093 18.6598 20.7903 19.746H23.8075C23.5662 16.7891 21.3937 15.4615 18.8593 15.4615C15.842 15.4615 13.4282 17.5133 13.4282 21.3753V21.496C13.4282 25.3581 15.7213 27.2891 18.8593 27.2891C21.9368 27.2891 23.6868 25.4184 23.9282 22.884H21.0317C20.7903 24.1512 20.0058 24.9357 18.9196 24.9357Z" fill="#1D1B1B"/>
<path d="M30.6871 24.9357C29.1784 24.9357 28.394 23.9098 28.394 21.6167V21.2547C28.394 19.0219 29.2991 17.9357 30.6871 17.9357C31.7733 17.9357 32.3767 18.6598 32.5577 19.746H35.575C35.3336 16.7891 33.1612 15.4615 30.6267 15.4615C27.6095 15.4615 25.1957 17.5133 25.1957 21.3753V21.496C25.1957 25.3581 27.4888 27.2891 30.6267 27.2891C33.7043 27.2891 35.4543 25.4184 35.6353 22.884H32.7991C32.6181 24.1512 31.7733 24.9357 30.6871 24.9357Z" fill="#1D1B1B"/>
<path d="M42.5752 24.996C41.1873 24.996 40.3424 24.2115 40.2218 22.1598H47.5838V20.8322C47.5838 17.0909 45.2304 15.4615 42.3942 15.4615C39.3166 15.4615 36.9631 17.5736 36.9631 21.3753V21.6167C36.9631 25.4184 39.1959 27.3495 42.4545 27.3495C45.4114 27.3495 47.2218 25.7202 47.5235 23.5478H44.5666C44.4459 24.4529 43.5407 25.1167 42.5752 24.996ZM42.3942 17.634C43.6614 17.634 44.4459 18.3581 44.5062 20.0478H40.2821C40.5235 18.2374 41.4287 17.6943 42.3942 17.634Z" fill="#1D1B1B"/>
<path d="M56.153 15.4615C54.7047 15.4012 53.3772 16.1253 52.7134 17.3925V15.7029H49.5754V27.0477H52.7134V20.1081C52.7134 19.9874 52.7134 19.927 52.7134 19.8063C52.7737 18.7805 53.6789 17.9356 54.7047 17.996C55.8513 17.996 56.3944 18.5994 56.3944 19.927V27.0477H59.5927V19.4443C59.5927 16.6684 58.2047 15.4615 56.153 15.4615Z" fill="#1D1B1B"/>
<path d="M65.5057 23.427V18.0563H67.6781V15.7028H65.5057V12.2632L62.3678 13.5908V15.7028H60.9799V18.0563H62.3074V23.789C62.3074 26.0821 63.454 27.2287 65.9281 27.2287C66.5316 27.2287 67.135 27.1684 67.7385 26.9873V24.5132C67.3764 24.6339 67.0143 24.6942 66.6523 24.6942C65.9281 24.6942 65.5057 24.2718 65.5057 23.427Z" fill="#1D1B1B"/>
<path d="M76.4286 22.7632C76.4286 22.8839 76.4286 22.9443 76.4286 23.065C76.3682 24.0908 75.4631 24.9356 74.4372 24.8753C73.2907 24.8753 72.8079 24.2718 72.8079 22.9443V15.7029H69.6096V23.3667C69.6096 26.0218 71.1182 27.2891 73.17 27.2891C74.5579 27.3494 75.8251 26.6253 76.4889 25.3581V27.0477H79.6872V15.7029H76.4889L76.4286 22.7632Z" fill="#1D1B1B"/>
<path d="M85.1183 17.7546V15.6426H81.9803V26.9874H85.1183V21.134C85.1183 19.2633 86.3855 18.5995 88.5579 18.5995V15.4615C86.989 15.4615 85.601 16.3667 85.1183 17.7546Z" fill="#1D1B1B"/>
<path d="M100.144 20.7719C100.144 17.0305 97.7909 15.4615 94.9547 15.4615C91.8771 15.4615 89.5237 17.5736 89.5237 21.3753V21.6167C89.5237 25.4184 91.7564 27.3495 95.0151 27.3495C97.972 27.3495 99.722 25.7202 100.084 23.5478H97.1271C96.8858 24.5133 95.9806 25.1167 95.0151 25.0564C93.6271 25.0564 92.7823 24.2719 92.6616 22.2202H100.024V20.7719H100.144ZM92.7823 20.0478C93.0237 18.1771 93.9289 17.634 94.9547 17.634C96.222 17.634 97.0064 18.3581 97.0668 20.0478H92.7823Z" fill="#1D1B1B"/>
</svg>
