<svg width="102" height="29" viewBox="0 0 102 29" fill="none" xmlns="http://www.w3.org/2000/svg">
<path d="M59.3281 4.45637L65.0005 6.68912L59.3281 8.80119V11.8184L69.0436 7.89602V5.48223L59.3281 1.55981V4.45637Z" fill="#1D1B1B"/>
<path d="M7.25159 15.6805C4.53607 15.6805 2.54469 16.8874 2.36366 19.4219H5.3809V19.3615C5.44124 18.5167 6.22572 17.9132 7.07055 17.9736C8.2171 17.9736 8.76021 18.6374 8.76021 19.7839V20.327H7.37228C4.41538 20.327 2.00159 21.2322 2.00159 24.0684V24.1891C2.00159 26.4822 3.69124 27.5081 5.74297 27.5081C7.01021 27.5684 8.15676 26.965 8.8809 25.9994V27.327H11.9585V19.7236C11.8981 16.827 9.90676 15.6805 7.25159 15.6805ZM6.58779 25.2753C5.50159 25.2753 5.01883 24.7322 5.01883 23.9477V23.827C5.01883 22.8012 5.80331 22.3788 7.37228 22.3788H8.63952V23.465C8.69986 24.6719 7.674 25.2753 6.58779 25.2753Z" fill="#1D1B1B"/>
<path d="M19.199 25.1546C17.6904 25.1546 16.9059 24.1288 16.9059 21.8357V21.4736C16.9059 19.2408 17.8111 18.1546 19.199 18.1546C20.2852 18.1546 20.8887 18.8788 21.0697 19.965H24.0869C23.8456 17.0081 21.6732 15.6805 19.1387 15.6805C16.1214 15.6805 13.7076 17.7322 13.7076 21.5943V21.715C13.7076 25.577 16.0007 27.5081 19.1387 27.5081C22.2163 27.5081 23.9663 25.6374 24.2076 23.1029H21.3111C21.0697 24.3701 20.2852 25.1546 19.199 25.1546Z" fill="#1D1B1B"/>
<path d="M30.9665 25.1546C29.4579 25.1546 28.6734 24.1288 28.6734 21.8357V21.4736C28.6734 19.2408 29.5785 18.1546 30.9665 18.1546C32.0527 18.1546 32.6561 18.8788 32.8372 19.965H35.8544C35.613 17.0081 33.4406 15.6805 30.9061 15.6805C27.8889 15.6805 25.4751 17.7322 25.4751 21.5943V21.715C25.4751 25.577 27.7682 27.5081 30.9061 27.5081C33.9837 27.5081 35.7337 25.6374 35.9148 23.1029H33.0785C32.8975 24.3701 32.0527 25.1546 30.9665 25.1546Z" fill="#1D1B1B"/>
<path d="M42.8546 25.215C41.4667 25.215 40.6219 24.4305 40.5012 22.3788H47.8632V21.0512C47.8632 17.3098 45.5098 15.6805 42.6736 15.6805C39.596 15.6805 37.2426 17.7926 37.2426 21.5943V21.8357C37.2426 25.6374 39.4753 27.5684 42.7339 27.5684C45.6908 27.5684 47.5012 25.9391 47.8029 23.7667H44.846C44.7253 24.6719 43.8201 25.3357 42.8546 25.215ZM42.6736 17.8529C43.9408 17.8529 44.7253 18.577 44.7857 20.2667H40.5615C40.8029 18.4563 41.7081 17.9132 42.6736 17.8529Z" fill="#1D1B1B"/>
<path d="M56.4324 15.6805C54.9842 15.6202 53.6566 16.3443 52.9928 17.6115V15.9219H49.8549V27.2667H52.9928V20.327C52.9928 20.2064 52.9928 20.146 52.9928 20.0253C53.0531 18.9995 53.9583 18.1546 54.9842 18.215C56.1307 18.215 56.6738 18.8184 56.6738 20.146V27.2667H59.8721V19.6633C59.8721 16.8874 58.4842 15.6805 56.4324 15.6805Z" fill="#1D1B1B"/>
<path d="M65.7851 23.646V18.2753H67.9576V15.9218H65.7851V12.4822L62.6472 13.8098V15.9218H61.2593V18.2753H62.5869V24.008C62.5869 26.3011 63.7334 27.4477 66.2076 27.4477C66.811 27.4477 67.4144 27.3873 68.0179 27.2063V24.7322C67.6558 24.8529 67.2938 24.9132 66.9317 24.9132C66.2076 24.9132 65.7851 24.4908 65.7851 23.646Z" fill="#1D1B1B"/>
<path d="M76.708 22.9822C76.708 23.1029 76.708 23.1633 76.708 23.2839C76.6477 24.3098 75.7425 25.1546 74.7166 25.0943C73.5701 25.0943 73.0873 24.4908 73.0873 23.1633V15.9219H69.889V23.5857C69.889 26.2408 71.3977 27.5081 73.4494 27.5081C74.8373 27.5684 76.1046 26.8443 76.7684 25.577V27.2667H79.9666V15.9219H76.7684L76.708 22.9822Z" fill="#1D1B1B"/>
<path d="M85.3977 17.9736V15.8615H82.2598V27.2063H85.3977V21.3529C85.3977 19.4822 86.6649 18.8184 88.8374 18.8184V15.6805C87.2684 15.6805 85.8805 16.5857 85.3977 17.9736Z" fill="#1D1B1B"/>
<path d="M100.424 20.9908C100.424 17.2494 98.0703 15.6805 95.2341 15.6805C92.1565 15.6805 89.8031 17.7926 89.8031 21.5943V21.8357C89.8031 25.6374 92.0359 27.5684 95.2945 27.5684C98.2514 27.5684 100.001 25.9391 100.363 23.7667H97.4066C97.1652 24.7322 96.26 25.3357 95.2945 25.2753C93.9066 25.2753 93.0617 24.4908 92.941 22.4391H100.303V20.9908H100.424ZM93.0617 20.2667C93.3031 18.396 94.2083 17.8529 95.2341 17.8529C96.5014 17.8529 97.2859 18.577 97.3462 20.2667H93.0617Z" fill="#1D1B1B"/>
</svg>
