<svg width="102" height="29" viewBox="0 0 102 29" fill="none" xmlns="http://www.w3.org/2000/svg">
<path d="M59.3276 4.45637L65.0001 6.68912L59.3276 8.80119V11.8184L69.0432 7.89602V5.48223L59.3276 1.55981V4.45637Z" fill="#1D1B1B"/>
<path d="M7.25146 15.6805C4.53595 15.6805 2.54457 16.8874 2.36353 19.4219H5.38077V19.3615C5.44112 18.5167 6.2256 17.9132 7.07043 17.9736C8.21698 17.9736 8.76008 18.6374 8.76008 19.7839V20.327H7.37215C4.41526 20.327 2.00146 21.2322 2.00146 24.0684V24.1891C2.00146 26.4822 3.69112 27.5081 5.74284 27.5081C7.01008 27.5684 8.15664 26.965 8.88077 25.9994V27.327H11.9584V19.7236C11.898 16.827 9.90664 15.6805 7.25146 15.6805ZM6.58767 25.2753C5.50146 25.2753 5.01871 24.7322 5.01871 23.9477V23.827C5.01871 22.8012 5.80319 22.3788 7.37215 22.3788H8.6394V23.465C8.69974 24.6719 7.67388 25.2753 6.58767 25.2753Z" fill="#1D1B1B"/>
<path d="M19.1989 25.1546C17.6903 25.1546 16.9058 24.1288 16.9058 21.8357V21.4736C16.9058 19.2408 17.811 18.1546 19.1989 18.1546C20.2851 18.1546 20.8886 18.8788 21.0696 19.965H24.0868C23.8454 17.0081 21.673 15.6805 19.1386 15.6805C16.1213 15.6805 13.7075 17.7322 13.7075 21.5943V21.715C13.7075 25.577 16.0006 27.5081 19.1386 27.5081C22.2161 27.5081 23.9661 25.6374 24.2075 23.1029H21.311C21.0696 24.3701 20.2851 25.1546 19.1989 25.1546Z" fill="#1D1B1B"/>
<path d="M30.966 25.1546C29.4574 25.1546 28.6729 24.1288 28.6729 21.8357V21.4736C28.6729 19.2408 29.5781 18.1546 30.966 18.1546C32.0522 18.1546 32.6556 18.8788 32.8367 19.965H35.8539C35.6125 17.0081 33.4401 15.6805 30.9056 15.6805C27.8884 15.6805 25.4746 17.7322 25.4746 21.5943V21.715C25.4746 25.577 27.7677 27.5081 30.9056 27.5081C33.9832 27.5081 35.7332 25.6374 35.9143 23.1029H33.0781C32.897 24.3701 32.0522 25.1546 30.966 25.1546Z" fill="#1D1B1B"/>
<path d="M42.8543 25.215C41.4663 25.215 40.6215 24.4305 40.5008 22.3788H47.8629V21.0512C47.8629 17.3098 45.5094 15.6805 42.6732 15.6805C39.5956 15.6805 37.2422 17.7926 37.2422 21.5943V21.8357C37.2422 25.6374 39.4749 27.5684 42.7336 27.5684C45.6905 27.5684 47.5008 25.9391 47.8025 23.7667H44.8456C44.7249 24.6719 43.8198 25.3357 42.8543 25.215ZM42.6732 17.8529C43.9405 17.8529 44.7249 18.577 44.7853 20.2667H40.5612C40.8025 18.4563 41.7077 17.9132 42.6732 17.8529Z" fill="#1D1B1B"/>
<path d="M56.4321 15.6805C54.9838 15.6202 53.6562 16.3443 52.9924 17.6115V15.9219H49.8545V27.2667H52.9924V20.327C52.9924 20.2064 52.9924 20.146 52.9924 20.0253C53.0528 18.9995 53.9579 18.1546 54.9838 18.215C56.1304 18.215 56.6735 18.8184 56.6735 20.146V27.2667H59.8717V19.6633C59.8717 16.8874 58.4838 15.6805 56.4321 15.6805Z" fill="#1D1B1B"/>
<path d="M65.7851 23.646V18.2753H67.9576V15.9218H65.7851V12.4822L62.6472 13.8098V15.9218H61.2593V18.2753H62.5869V24.008C62.5869 26.3011 63.7334 27.4477 66.2076 27.4477C66.811 27.4477 67.4144 27.3873 68.0179 27.2063V24.7322C67.6558 24.8529 67.2938 24.9132 66.9317 24.9132C66.2076 24.9132 65.7851 24.4908 65.7851 23.646Z" fill="#1D1B1B"/>
<path d="M76.7076 22.9822C76.7076 23.1029 76.7076 23.1633 76.7076 23.2839C76.6473 24.3098 75.7421 25.1546 74.7163 25.0943C73.5697 25.0943 73.0869 24.4908 73.0869 23.1633V15.9219H69.8887V23.5857C69.8887 26.2408 71.3973 27.5081 73.449 27.5081C74.8369 27.5684 76.1042 26.8443 76.768 25.577V27.2667H79.9663V15.9219H76.768L76.7076 22.9822Z" fill="#1D1B1B"/>
<path d="M85.3972 17.9736V15.8615H82.2593V27.2063H85.3972V21.3529C85.3972 19.4822 86.6645 18.8184 88.8369 18.8184V15.6805C87.2679 15.6805 85.88 16.5857 85.3972 17.9736Z" fill="#1D1B1B"/>
<path d="M100.423 20.9908C100.423 17.2494 98.07 15.6805 95.2338 15.6805C92.1562 15.6805 89.8027 17.7926 89.8027 21.5943V21.8357C89.8027 25.6374 92.0355 27.5684 95.2941 27.5684C98.251 27.5684 100.001 25.9391 100.363 23.7667H97.4062C97.1648 24.7322 96.2596 25.3357 95.2941 25.2753C93.9062 25.2753 93.0614 24.4908 92.9407 22.4391H100.303V20.9908H100.423ZM93.0614 20.2667C93.3027 18.396 94.2079 17.8529 95.2338 17.8529C96.501 17.8529 97.2855 18.577 97.3458 20.2667H93.0614Z" fill="#1D1B1B"/>
</svg>
