<svg width="60" height="29" viewBox="0 0 60 29" fill="none" xmlns="http://www.w3.org/2000/svg">
<path d="M17.3281 4.45637L23.0005 6.68912L17.3281 8.80119V11.8184L27.0436 7.89602V5.48223L17.3281 1.55981V4.45637Z" fill="#1D1B1B"/>
<path d="M0.854623 25.215C-0.533308 25.215 -1.37814 24.4305 -1.49883 22.3788H5.86324V21.0512C5.86324 17.3098 3.50979 15.6805 0.673587 15.6805C-2.404 15.6805 -4.75745 17.7926 -4.75745 21.5943V21.8357C-4.75745 25.6374 -2.52469 27.5684 0.733931 27.5684C3.69083 27.5684 5.50117 25.9391 5.8029 23.7667H2.846C2.72531 24.6719 1.82014 25.3357 0.854623 25.215ZM0.673587 17.8529C1.94083 17.8529 2.72531 18.577 2.78566 20.2667H-1.43848C-1.1971 18.4563 -0.29193 17.9132 0.673587 17.8529Z" fill="#1D1B1B"/>
<path d="M14.4324 15.6805C12.9842 15.6202 11.6566 16.3443 10.9928 17.6115V15.9219H7.85486V27.2667H10.9928V20.327C10.9928 20.2064 10.9928 20.146 10.9928 20.0253C11.0531 18.9995 11.9583 18.1546 12.9842 18.215C14.1307 18.215 14.6738 18.8184 14.6738 20.146V27.2667H17.8721V19.6633C17.8721 16.8874 16.4842 15.6805 14.4324 15.6805Z" fill="#1D1B1B"/>
<path d="M23.7851 23.646V18.2753H25.9576V15.9218H23.7851V12.4822L20.6472 13.8098V15.9218H19.2593V18.2753H20.5869V24.008C20.5869 26.3011 21.7334 27.4477 24.2076 27.4477C24.811 27.4477 25.4144 27.3873 26.0179 27.2063V24.7322C25.6558 24.8529 25.2938 24.9132 24.9317 24.9132C24.2076 24.9132 23.7851 24.4908 23.7851 23.646Z" fill="#1D1B1B"/>
<path d="M34.708 22.9822C34.708 23.1029 34.708 23.1633 34.708 23.2839C34.6477 24.3098 33.7425 25.1546 32.7166 25.0943C31.5701 25.0943 31.0873 24.4908 31.0873 23.1633V15.9219H27.889V23.5857C27.889 26.2408 29.3977 27.5081 31.4494 27.5081C32.8373 27.5684 34.1046 26.8443 34.7684 25.577V27.2667H37.9666V15.9219H34.7684L34.708 22.9822Z" fill="#1D1B1B"/>
<path d="M43.3977 17.9736V15.8615H40.2598V27.2063H43.3977V21.3529C43.3977 19.4822 44.6649 18.8184 46.8374 18.8184V15.6805C45.2684 15.6805 43.8805 16.5857 43.3977 17.9736Z" fill="#1D1B1B"/>
<path d="M58.4238 20.9908C58.4238 17.2494 56.0703 15.6805 53.2341 15.6805C50.1565 15.6805 47.8031 17.7926 47.8031 21.5943V21.8357C47.8031 25.6374 50.0359 27.5684 53.2945 27.5684C56.2514 27.5684 58.0014 25.9391 58.3634 23.7667H55.4066C55.1652 24.7322 54.26 25.3357 53.2945 25.2753C51.9066 25.2753 51.0617 24.4908 50.941 22.4391H58.3031V20.9908H58.4238ZM51.0617 20.2667C51.3031 18.396 52.2083 17.8529 53.2341 17.8529C54.5014 17.8529 55.2859 18.577 55.3462 20.2667H51.0617Z" fill="#1D1B1B"/>
</svg>
