<svg width="102" height="29" viewBox="0 0 102 29" fill="none" xmlns="http://www.w3.org/2000/svg">
<path d="M59.2141 4.4936L64.8865 6.72636L59.2141 8.83842V11.8557L68.9296 7.93325V5.51946L59.2141 1.59705V4.4936Z" fill="#1D1B1B"/>
<path d="M7.13745 15.7178C4.42193 15.7178 2.43055 16.9247 2.24952 19.4592H5.26676V19.3988C5.32711 18.554 6.11159 17.9505 6.95642 18.0109C8.10297 18.0109 8.64607 18.6747 8.64607 19.8212V20.3643H7.25814C4.30124 20.3643 1.88745 21.2695 1.88745 24.1057V24.2264C1.88745 26.5195 3.57711 27.5454 5.62883 27.5454C6.89607 27.6057 8.04262 27.0023 8.76676 26.0367V27.3643H11.8443V19.7609C11.784 16.8643 9.79262 15.7178 7.13745 15.7178ZM6.47366 25.3126C5.38745 25.3126 4.90469 24.7695 4.90469 23.985V23.8643C4.90469 22.8385 5.68918 22.416 7.25814 22.416H8.52538V23.5023C8.58573 24.7092 7.55986 25.3126 6.47366 25.3126Z" fill="#1D1B1B"/>
<path d="M19.0849 25.1919C17.5763 25.1919 16.7918 24.166 16.7918 21.8729V21.5109C16.7918 19.2781 17.697 18.1919 19.0849 18.1919C20.1711 18.1919 20.7745 18.916 20.9556 20.0023H23.9728C23.7314 17.0454 21.559 15.7178 19.0245 15.7178C16.0073 15.7178 13.5935 17.7695 13.5935 21.6316V21.7523C13.5935 25.6143 15.8866 27.5454 19.0245 27.5454C22.1021 27.5454 23.8521 25.6747 24.0935 23.1402H21.197C20.9556 24.4074 20.1711 25.1919 19.0849 25.1919Z" fill="#1D1B1B"/>
<path d="M30.8525 25.1919C29.3438 25.1919 28.5594 24.166 28.5594 21.8729V21.5109C28.5594 19.2781 29.4645 18.1919 30.8525 18.1919C31.9387 18.1919 32.5421 18.916 32.7232 20.0023H35.7404C35.499 17.0454 33.3266 15.7178 30.7921 15.7178C27.7749 15.7178 25.3611 17.7695 25.3611 21.6316V21.7523C25.3611 25.6143 27.6542 27.5454 30.7921 27.5454C33.8697 27.5454 35.6197 25.6747 35.8007 23.1402H32.9645C32.7835 24.4074 31.9387 25.1919 30.8525 25.1919Z" fill="#1D1B1B"/>
<path d="M42.7407 25.2523C41.3528 25.2523 40.508 24.4678 40.3873 22.416H47.7493V21.0885C47.7493 17.3471 45.3959 15.7178 42.5597 15.7178C39.4821 15.7178 37.1287 17.8298 37.1287 21.6316V21.8729C37.1287 25.6747 39.3614 27.6057 42.62 27.6057C45.5769 27.6057 47.3873 25.9764 47.689 23.804H44.7321C44.6114 24.7092 43.7062 25.3729 42.7407 25.2523ZM42.5597 17.8902C43.8269 17.8902 44.6114 18.6143 44.6718 20.304H40.4476C40.689 18.4936 41.5942 17.9505 42.5597 17.8902Z" fill="#1D1B1B"/>
<path d="M56.3183 15.7177C54.87 15.6574 53.5424 16.3815 52.8787 17.6488V15.9591H49.7407V27.3039H52.8787V20.3643C52.8787 20.2436 52.8787 20.1832 52.8787 20.0626C52.939 19.0367 53.8442 18.1919 54.87 18.2522C56.0166 18.2522 56.5597 18.8557 56.5597 20.1832V27.3039H59.758V19.7005C59.758 16.9246 58.37 15.7177 56.3183 15.7177Z" fill="#1D1B1B"/>
<path d="M65.6711 23.6832V18.3125H67.8435V15.9591H65.6711V12.5194L62.5332 13.847V15.9591H61.1453V18.3125H62.4728V24.0453C62.4728 26.3384 63.6194 27.4849 66.0935 27.4849C66.697 27.4849 67.3004 27.4246 67.9039 27.2435V24.7694C67.5418 24.8901 67.1797 24.9504 66.8177 24.9504C66.0935 24.9504 65.6711 24.528 65.6711 23.6832Z" fill="#1D1B1B"/>
<path d="M76.5941 23.0195C76.5941 23.1401 76.5941 23.2005 76.5941 23.3212C76.5338 24.347 75.6286 25.1919 74.6027 25.1315C73.4562 25.1315 72.9734 24.5281 72.9734 23.2005V15.9591H69.7751V23.6229C69.7751 26.2781 71.2838 27.5453 73.3355 27.5453C74.7234 27.6057 75.9907 26.8815 76.6545 25.6143V27.3039H79.8527V15.9591H76.6545L76.5941 23.0195Z" fill="#1D1B1B"/>
<path d="M85.2837 18.0109V15.8988H82.1458V27.2436H85.2837V21.3902C85.2837 19.5195 86.5509 18.8557 88.7233 18.8557V15.7178C87.1544 15.7178 85.7664 16.6229 85.2837 18.0109Z" fill="#1D1B1B"/>
<path d="M100.31 21.0281C100.31 17.2867 97.9565 15.7178 95.1202 15.7178C92.0427 15.7178 89.6892 17.8298 89.6892 21.6316V21.8729C89.6892 25.6747 91.922 27.6057 95.1806 27.6057C98.1375 27.6057 99.8875 25.9764 100.25 23.804H97.2927C97.0513 24.7695 96.1461 25.3729 95.1806 25.3126C93.7927 25.3126 92.9478 24.5281 92.8271 22.4764H100.189V21.0281H100.31ZM92.9478 20.304C93.1892 18.4333 94.0944 17.8902 95.1202 17.8902C96.3875 17.8902 97.172 18.6143 97.2323 20.304H92.9478Z" fill="#1D1B1B"/>
</svg>
