<svg width="14" height="14" viewBox="0 0 14 14" fill="none" xmlns="http://www.w3.org/2000/svg">
<path d="M8.65173 7.59068C6.89973 7.59068 5.47217 6.16313 5.47217 4.41113C5.47217 2.65913 6.89973 1.23157 8.65173 1.23157C10.4037 1.23157 11.8313 2.65913 11.8313 4.41113C11.8313 6.16313 10.4037 7.59068 8.65173 7.59068ZM8.65173 2.04268C7.34854 2.04268 6.28328 3.10253 6.28328 4.41113C6.28328 5.71972 7.34313 6.77957 8.65173 6.77957C9.96032 6.77957 11.0202 5.71972 11.0202 4.41113C11.0202 3.10253 9.95491 2.04268 8.65173 2.04268Z" fill="#5F5E5E"/>
<path d="M3.66087 11.4733C2.51991 11.4733 1.58984 10.5432 1.58984 9.40222C1.58984 8.26125 2.51991 7.33118 3.66087 7.33118C4.80184 7.33118 5.73192 8.26125 5.73192 9.40222C5.73192 10.5432 4.80184 11.4733 3.66087 11.4733ZM3.66087 8.14229C2.96873 8.14229 2.40096 8.70466 2.40096 9.40222C2.40096 10.0944 2.96332 10.6621 3.66087 10.6621C4.35302 10.6621 4.92081 10.0998 4.92081 9.40222C4.92081 8.71007 4.35302 8.14229 3.66087 8.14229Z" fill="#5F5E5E"/>
<path d="M9.2088 12.452C8.44402 12.452 7.8245 11.8286 7.8245 11.0677C7.8245 11.0668 7.8245 11.0659 7.8245 11.065C7.82597 11.8285 8.44497 12.4466 9.2088 12.4466C9.97262 12.4466 10.5916 11.8285 10.5931 11.065C10.5931 11.0659 10.5931 11.0668 10.5931 11.0677C10.5931 11.8279 9.96896 12.452 9.2088 12.452Z" fill="#292D32" stroke="#5F5E5E" stroke-width="0.811112"/>
</svg>
