<svg width="9" height="9" viewBox="0 0 9 9" fill="none" xmlns="http://www.w3.org/2000/svg">
<path d="M5.74663 5.15622C4.63703 5.15622 3.73291 4.2521 3.73291 3.1425C3.73291 2.0329 4.63703 1.12878 5.74663 1.12878C6.85623 1.12878 7.76035 2.0329 7.76035 3.1425C7.76035 4.2521 6.85623 5.15622 5.74663 5.15622ZM5.74663 1.64249C4.92128 1.64249 4.24661 2.31373 4.24661 3.1425C4.24661 3.97128 4.91786 4.64252 5.74663 4.64252C6.57541 4.64252 7.24665 3.97128 7.24665 3.1425C7.24665 2.31373 6.57198 1.64249 5.74663 1.64249Z" fill="#5F5E5E"/>
<path d="M2.58558 7.61514C1.86297 7.61514 1.27393 7.02609 1.27393 6.30348C1.27393 5.58087 1.86297 4.99182 2.58558 4.99182C3.30819 4.99182 3.89724 5.58087 3.89724 6.30348C3.89724 7.02609 3.30819 7.61514 2.58558 7.61514ZM2.58558 5.50553C2.14722 5.50553 1.78763 5.86169 1.78763 6.30348C1.78763 6.74184 2.14379 7.10143 2.58558 7.10143C3.02394 7.10143 3.38354 6.74526 3.38354 6.30348C3.38354 5.86512 3.02394 5.50553 2.58558 5.50553Z" fill="#5F5E5E"/>
<path d="M5.22267 7.3566C5.22267 7.35602 5.22268 7.35545 5.22268 7.35488C5.22454 6.8721 5.61859 6.48158 6.09939 6.48158C6.57969 6.48158 6.97423 6.87499 6.97611 7.35488C6.97611 7.35602 6.97611 7.35716 6.97611 7.3583C6.97611 7.83974 6.58083 8.23502 6.09939 8.23502C5.61503 8.23502 5.22267 7.84025 5.22267 7.3583C5.22267 7.35774 5.22267 7.35717 5.22267 7.3566ZM5.22267 7.3566C5.22267 7.35603 5.22267 7.35545 5.22267 7.35488C5.22267 6.87055 5.61507 6.47816 6.09939 6.47816C6.58464 6.47816 6.97611 6.8749 6.97611 7.35488C6.97611 7.8392 6.58372 8.2316 6.09939 8.2316C5.61564 8.2316 5.2236 7.84013 5.22267 7.3566Z" fill="#292D32" stroke="#5F5E5E" stroke-width="0.513704"/>
</svg>
