<svg width="14" height="14" viewBox="0 0 14 14" fill="none" xmlns="http://www.w3.org/2000/svg">
<path d="M8.65185 7.59068C6.89985 7.59068 5.47229 6.16313 5.47229 4.41113C5.47229 2.65913 6.89985 1.23157 8.65185 1.23157C10.4039 1.23157 11.8314 2.65913 11.8314 4.41113C11.8314 6.16313 10.4039 7.59068 8.65185 7.59068ZM8.65185 2.04268C7.34866 2.04268 6.2834 3.10253 6.2834 4.41113C6.2834 5.71972 7.34326 6.77957 8.65185 6.77957C9.96044 6.77957 11.0203 5.71972 11.0203 4.41113C11.0203 3.10253 9.95504 2.04268 8.65185 2.04268Z" fill="#5F5E5E"/>
<path d="M3.66112 11.4733C2.52016 11.4733 1.59009 10.5432 1.59009 9.40222C1.59009 8.26125 2.52016 7.33118 3.66112 7.33118C4.80208 7.33118 5.73217 8.26125 5.73217 9.40222C5.73217 10.5432 4.80208 11.4733 3.66112 11.4733ZM3.66112 8.14229C2.96897 8.14229 2.4012 8.70466 2.4012 9.40222C2.4012 10.0944 2.96356 10.6621 3.66112 10.6621C4.35327 10.6621 4.92106 10.0998 4.92106 9.40222C4.92106 8.71007 4.35327 8.14229 3.66112 8.14229Z" fill="#5F5E5E"/>
<path d="M9.20904 12.452C8.44426 12.452 7.82475 11.8286 7.82475 11.0677C7.82475 11.0668 7.82475 11.0659 7.82475 11.065C7.82621 11.8285 8.44522 12.4466 9.20904 12.4466C9.97286 12.4466 10.5919 11.8285 10.5933 11.065C10.5933 11.0659 10.5933 11.0668 10.5933 11.0677C10.5933 11.8279 9.96921 12.452 9.20904 12.452Z" fill="#292D32" stroke="#5F5E5E" stroke-width="0.811112"/>
</svg>
