<svg width="5" height="4" viewBox="0 0 5 4" fill="none" xmlns="http://www.w3.org/2000/svg">
<path d="M3.06021 2.08856C2.54045 2.08856 2.11694 1.66506 2.11694 1.1453C2.11694 0.625535 2.54045 0.202026 3.06021 0.202026C3.57997 0.202026 4.00348 0.625535 4.00348 1.1453C4.00348 1.66506 3.57997 2.08856 3.06021 2.08856ZM3.06021 0.442656C2.6736 0.442656 2.35757 0.75708 2.35757 1.1453C2.35757 1.53351 2.672 1.84793 3.06021 1.84793C3.44843 1.84793 3.76285 1.53351 3.76285 1.1453C3.76285 0.75708 3.44682 0.442656 3.06021 0.442656Z" fill="#5F5E5E"/>
<path d="M1.57962 3.24041C1.24113 3.24041 0.96521 2.96449 0.96521 2.626C0.96521 2.28752 1.24113 2.0116 1.57962 2.0116C1.9181 2.0116 2.19403 2.28752 2.19403 2.626C2.19403 2.96449 1.9181 3.24041 1.57962 3.24041ZM1.57962 2.25223C1.37428 2.25223 1.20584 2.41906 1.20584 2.626C1.20584 2.83134 1.37267 2.99978 1.57962 2.99978C1.78495 2.99978 1.9534 2.83295 1.9534 2.626C1.9534 2.42067 1.78495 2.25223 1.57962 2.25223Z" fill="#5F5E5E"/>
<path d="M2.8149 3.11918C2.8149 3.11891 2.8149 3.11864 2.8149 3.11837C2.81577 2.89223 3.00035 2.7093 3.22557 2.7093C3.45055 2.7093 3.63536 2.89358 3.63624 3.11837C3.63624 3.11891 3.63624 3.11944 3.63624 3.11998C3.63624 3.34549 3.45109 3.53065 3.22557 3.53065C2.99869 3.53065 2.81489 3.34573 2.81489 3.11998C2.81489 3.11971 2.8149 3.11945 2.8149 3.11918ZM2.8149 3.11918C2.8149 3.11891 2.81489 3.11864 2.81489 3.11837C2.81489 2.8915 2.9987 2.7077 3.22557 2.7077C3.45287 2.7077 3.63624 2.89354 3.63624 3.11837C3.63624 3.34524 3.45244 3.52905 3.22557 3.52905C2.99897 3.52905 2.81533 3.34567 2.8149 3.11918Z" fill="#292D32" stroke="#5F5E5E" stroke-width="0.24063"/>
</svg>
