<svg width="105" height="43" viewBox="0 0 105 43" fill="none" xmlns="http://www.w3.org/2000/svg">
<g opacity="0.8">
<path d="M19.7858 11.5377L19.1593 6.37701C18.4645 6.45776 17.5178 6.65918 16.8301 6.87303L18.3589 11.8394C18.8195 11.7001 19.2995 11.5989 19.7858 11.5377Z" fill="#1D1B1B"/>
<path d="M8.17944 14.6656C7.90171 15.308 7.60268 16.2291 7.44385 16.9309L12.5096 18.0898C12.6196 17.6151 12.7714 17.1483 12.9595 16.7029L8.17944 14.6656Z" fill="#1D1B1B"/>
<path d="M11.4608 30.0891L14.9986 26.2798C14.6401 25.9444 14.3118 25.5815 14.0217 25.1982L9.86719 28.3189C10.2825 28.8797 10.9311 29.5985 11.4608 30.0891Z" fill="#1D1B1B"/>
<path d="M21.9082 28.523L22.5347 33.6837C23.2294 33.603 24.1762 33.4015 24.8639 33.1877L23.335 28.2213C22.8745 28.3615 22.3953 28.4627 21.9082 28.523Z" fill="#1D1B1B"/>
<path d="M33.5149 25.3961C33.7926 24.7536 34.0917 23.8326 34.2505 23.1307L29.1847 21.9719C29.0738 22.4475 28.923 22.9133 28.7349 23.3588L33.5149 25.3961Z" fill="#1D1B1B"/>
<path d="M30.2336 9.97339L26.6958 13.7827C27.0543 14.1172 27.3826 14.481 27.6736 14.8644L31.8281 11.7436C31.4102 11.181 30.7615 10.4614 30.2336 9.97339Z" fill="#1D1B1B"/>
<path d="M14.0214 14.867C14.3178 14.4757 14.6452 14.111 14.9957 13.7827L13.5706 12.2503L10.8252 9.33362C10.213 9.90683 9.64862 10.5351 9.14551 11.1997L10.1162 11.9379L14.0214 14.867Z" fill="#1D1B1B"/>
<path d="M7.34566 25.7501L8.49387 25.2683L12.9598 23.3623C12.7735 22.9213 12.6235 22.4545 12.5117 21.9745L10.4691 22.443L6.56836 23.3623C6.75736 24.1751 7.01824 24.9781 7.34566 25.7501Z" fill="#1D1B1B"/>
<path d="M18.3621 28.2249L17.7303 30.2808L16.5928 34.0635C17.3914 34.3057 18.2175 34.4796 19.0498 34.5808L19.2113 33.3146L19.7898 28.5257C19.3 28.4644 18.82 28.3633 18.3621 28.2249Z" fill="#1D1B1B"/>
<path d="M27.674 25.1946C27.3785 25.5851 27.0511 25.9498 26.6997 26.279L28.1523 27.8415L30.8702 30.7289C31.4815 30.1557 32.0468 29.5284 32.5499 28.8629L31.5552 28.1069L27.674 25.1946Z" fill="#1D1B1B"/>
<path d="M34.349 14.3115L33.2017 14.7925L28.7349 16.6993C28.9212 17.1412 29.072 17.6071 29.183 18.0871L31.2877 17.6044L35.1272 16.6993C34.9382 15.8856 34.6764 15.0826 34.349 14.3115Z" fill="#1D1B1B"/>
<path d="M23.3326 11.8368L23.9555 9.81101L25.1019 5.99815C24.3033 5.75679 23.4772 5.58199 22.6449 5.48083L22.4914 6.68849L21.9058 11.5369C22.3938 11.5963 22.8738 11.6975 23.3326 11.8368Z" fill="#1D1B1B"/>
<path d="M14.0214 14.867C14.3178 14.4757 14.6452 14.111 14.9957 13.7827L13.5706 12.2503L10.8252 9.33362C10.213 9.90683 9.64862 10.5351 9.14551 11.1997L10.1162 11.9379L14.0214 14.867Z" fill="#1D1B1B"/>
<path d="M7.34566 25.7501L8.49387 25.2683L12.9598 23.3623C12.7735 22.9213 12.6235 22.4545 12.5117 21.9745L10.4691 22.443L6.56836 23.3623C6.75736 24.1751 7.01824 24.9781 7.34566 25.7501Z" fill="#1D1B1B"/>
<path d="M18.3621 28.2249L17.7303 30.2808L16.5928 34.0635C17.3914 34.3057 18.2175 34.4796 19.0498 34.5808L19.2113 33.3146L19.7898 28.5257C19.3 28.4644 18.82 28.3633 18.3621 28.2249Z" fill="#1D1B1B"/>
<path d="M27.674 25.1946C27.3785 25.5851 27.0511 25.9498 26.6997 26.279L28.1523 27.8415L30.8702 30.7289C31.4815 30.1557 32.0468 29.5284 32.5499 28.8629L31.5552 28.1069L27.674 25.1946Z" fill="#1D1B1B"/>
<path d="M34.349 14.3115L33.2017 14.7925L28.7349 16.6993C28.9212 17.1412 29.072 17.6071 29.183 18.0871L31.2877 17.6044L35.1272 16.6993C34.9382 15.8856 34.6764 15.0826 34.349 14.3115Z" fill="#1D1B1B"/>
<path d="M23.3326 11.8368L23.9555 9.81101L25.1019 5.99815C24.3033 5.75679 23.4772 5.58199 22.6449 5.48083L22.4914 6.68849L21.9058 11.5369C22.3938 11.5963 22.8738 11.6975 23.3326 11.8368Z" fill="#1D1B1B"/>
<path d="M15.6118 4.84906C14.7333 5.15164 13.8753 5.53319 13.0625 5.98396L15.8026 10.9042C16.3217 10.6158 16.8683 10.37 17.437 10.173L15.6118 4.84906Z" fill="#1D1B1B"/>
<path d="M5.08046 16.9735C4.90477 17.8821 4.80805 18.8156 4.79297 19.75L10.4435 19.8369C10.4541 19.2309 10.5154 18.6373 10.6254 18.0596L5.08046 16.9735Z" fill="#1D1B1B"/>
<path d="M10.3198 32.1531C11.0244 32.7644 11.783 33.3163 12.5763 33.7946L15.4805 28.94C14.9685 28.6312 14.4858 28.2799 14.0368 27.8903L10.3198 32.1531Z" fill="#1D1B1B"/>
<path d="M26.0836 35.2126C26.9621 34.91 27.8192 34.5285 28.6329 34.0777L25.8795 29.1335C25.3613 29.4201 24.8165 29.6641 24.2495 29.8611L26.0836 35.2126Z" fill="#1D1B1B"/>
<path d="M36.6151 23.0881C36.7908 22.1795 36.8875 21.246 36.9026 20.3116L31.2512 20.2247C31.2397 20.8307 31.1758 21.4243 31.064 22.0011L36.6151 23.0881Z" fill="#1D1B1B"/>
<path d="M31.375 7.90853C30.6705 7.29716 29.9118 6.74524 29.1185 6.26697L26.2285 11.0994C26.7405 11.4099 27.2241 11.7631 27.674 12.1544L31.375 7.90853Z" fill="#1D1B1B"/>
<path d="M12.5695 6.26874C11.7726 6.74878 11.014 7.3007 10.313 7.91119L14.0185 12.1562C14.4675 11.7649 14.9511 11.4108 15.4631 11.1003L12.5695 6.26874Z" fill="#1D1B1B"/>
<path d="M4.79443 20.3188C4.80331 20.7899 4.8317 21.2575 4.87962 21.7092C4.92753 22.1626 4.99674 22.6276 5.08725 23.0934L10.6331 22.0038C10.5213 21.427 10.4574 20.8343 10.445 20.2274L4.79443 20.3188Z" fill="#1D1B1B"/>
<path d="M13.0693 34.0786C13.8812 34.5293 14.7384 34.9118 15.6186 35.2152L17.4501 29.862C16.8831 29.6659 16.3374 29.4219 15.8192 29.1353L13.0693 34.0786Z" fill="#1D1B1B"/>
<path d="M29.1256 33.792C29.9224 33.3119 30.681 32.7591 31.382 32.1495L27.6615 27.8868C27.2125 28.2763 26.7298 28.6277 26.2178 28.9374L29.1256 33.792Z" fill="#1D1B1B"/>
<path d="M36.9012 19.7429C36.8923 19.2717 36.8639 18.8041 36.816 18.3524C36.7681 17.899 36.6989 17.434 36.6084 16.9682L31.0679 18.057C31.1779 18.6337 31.24 19.2273 31.2498 19.8343L36.9012 19.7429Z" fill="#1D1B1B"/>
<path d="M25.9328 10.8243L28.6259 5.98304C27.8131 5.53228 26.9559 5.14984 26.0766 4.84637L24.2549 10.1721C24.8237 10.3691 25.3694 10.614 25.8885 10.9024L25.9328 10.8243Z" fill="#1D1B1B"/>
<path d="M7.69012 10.8279C7.15683 11.5892 6.68743 12.402 6.29346 13.2432L11.4116 15.6177C11.6645 15.0738 11.9635 14.5556 12.3033 14.0684L7.69012 10.8279Z" fill="#1D1B1B"/>
<path d="M6.29443 26.8255C6.68575 27.6641 7.15603 28.4769 7.69198 29.2409L12.3203 25.9861C11.9796 25.4999 11.6796 24.9834 11.425 24.4413L6.29443 26.8255Z" fill="#1D1B1B"/>
<path d="M34.0038 29.2338C34.5371 28.4724 35.0065 27.6596 35.4005 26.8176L30.2699 24.4377C30.0153 24.9799 29.7153 25.4963 29.3755 25.9826L34.0038 29.2338Z" fill="#1D1B1B"/>
<path d="M35.3994 13.2361C35.008 12.3967 34.5378 11.5848 34.0018 10.8208L29.3877 14.0649C29.7275 14.5529 30.0266 15.0702 30.2803 15.6142L35.3994 13.2361Z" fill="#1D1B1B"/>
<path d="M21.7407 9.63883L22.2394 4.03268C21.786 3.99364 21.3254 3.97412 20.8693 3.97412C20.3982 3.97412 19.9208 3.99542 19.4487 4.03623L19.9501 9.63883C20.2456 9.61399 20.5446 9.59979 20.8472 9.59979C21.1489 9.60068 21.447 9.61399 21.7407 9.63883Z" fill="#1D1B1B"/>
<path d="M19.957 30.3917L19.4565 36.0271C19.9286 36.0679 20.3989 36.0884 20.8559 36.0884C21.3102 36.0884 21.7787 36.0679 22.2481 36.0271L21.7423 30.3908C21.4477 30.4157 21.1496 30.4299 20.8479 30.4299C20.548 30.4299 20.2507 30.4165 19.957 30.3917Z" fill="#1D1B1B"/>
<path d="M54.4052 19.5977C55.7397 19.9908 56.8986 21.0893 56.8986 22.9146C56.8986 25.0353 55.3866 26.92 51.9712 26.92H46.0625V13.1788H51.9908C54.4637 13.1788 56.171 14.8478 56.171 16.752C56.171 18.2827 55.1505 19.2446 54.4043 19.5196V19.5977H54.4052ZM51.3625 18.6154C52.2649 18.6154 52.8541 18.0653 52.8541 17.2614C52.8541 16.4956 52.2853 15.9064 51.343 15.9064H49.3598V18.6154H51.3625ZM51.6766 24.1905C52.8151 24.1905 53.4238 23.5428 53.4238 22.62C53.4238 21.6386 52.7556 21.0494 51.6766 21.0494H49.3598V24.1905H51.6766Z" fill="#1D1B1B"/>
<path d="M65.219 26.9169H61.9208V21.4998L56.7974 13.1766H60.6058L62.7256 16.9061C63.2163 17.7703 63.6289 18.5157 63.6484 18.5352H63.707C63.7274 18.5157 64.1391 17.7499 64.6298 16.9061L66.8277 13.1766H70.3416L65.2181 21.4998L65.219 26.9169Z" fill="#1D1B1B"/>
<path d="M82.2134 23.5611C82.2134 20.3028 82.2525 18.6932 82.2525 18.6737H82.2134C82.1948 18.6932 81.5258 19.9301 80.8594 21.1067L79.5239 23.5212H77.6792L76.3446 21.1467C75.6579 19.9292 75.0092 18.6923 74.9906 18.6728H74.9311C74.9311 18.6923 74.9702 20.3019 74.9702 23.5602V26.9161H71.6729V13.1776H75.1663L78.6215 19.3214H78.6801L82.154 13.1776H85.5108V26.917H82.2134V23.5611Z" fill="#1D1B1B"/>
<path d="M91.1614 24.6409L90.3371 26.9169H86.8623L92.1632 13.1766H95.9113L101.232 26.9169H97.6984L96.8732 24.6409H91.1614ZM94.8119 18.9088C94.3807 17.7703 94.0657 16.907 94.0461 16.8866H93.9867C93.9672 16.907 93.653 17.7508 93.2209 18.8893L92.2395 21.6373H95.7915L94.8119 18.9088Z" fill="#1D1B1B"/>
<path d="M48.1526 30.8132C48.3318 30.9534 48.4223 31.1477 48.4223 31.3953C48.4223 31.5825 48.37 31.7396 48.2661 31.8665C48.1623 31.9934 48.0168 32.0768 47.8296 32.1158C48.0621 32.146 48.2431 32.232 48.3726 32.374C48.5022 32.516 48.567 32.6952 48.567 32.9126C48.567 33.1841 48.4658 33.3953 48.2635 33.5462C48.0612 33.697 47.7808 33.7724 47.4214 33.7724H46.0815V30.6038H47.4081C47.7249 30.602 47.9733 30.6721 48.1526 30.8132ZM47.9148 31.854C48.0381 31.7564 48.1002 31.6162 48.1002 31.4352C48.1002 31.2604 48.0381 31.1247 47.9148 31.0279C47.7905 30.9312 47.6175 30.8851 47.3939 30.8877H46.3939V32.0013H47.3939C47.6175 32.0013 47.7914 31.9516 47.9148 31.854ZM48.0257 33.3297C48.1748 33.2223 48.2502 33.0723 48.2502 32.8789C48.2502 32.689 48.1748 32.5408 48.0239 32.4352C47.8731 32.3296 47.6637 32.2773 47.3948 32.2773H46.3948V33.4903H47.3948C47.6663 33.4903 47.8766 33.437 48.0257 33.3297Z" fill="#1D1B1B"/>
<path d="M50.8486 31.5417C51.0297 31.6428 51.1716 31.7839 51.2746 31.9649C51.3775 32.146 51.4281 32.3509 51.4281 32.5808C51.4281 32.8132 51.3766 33.0209 51.2746 33.2028C51.1716 33.3856 51.0305 33.5275 50.8486 33.6287C50.6667 33.7298 50.4627 33.7804 50.2328 33.7804C50.0039 33.7804 49.798 33.7298 49.617 33.6287C49.436 33.5275 49.294 33.3856 49.1911 33.2028C49.0882 33.02 49.0376 32.8132 49.0376 32.5808C49.0376 32.3518 49.0891 32.146 49.1911 31.9649C49.294 31.7839 49.4351 31.6428 49.617 31.5417C49.798 31.4405 50.003 31.39 50.2328 31.39C50.4627 31.39 50.6676 31.4405 50.8486 31.5417ZM49.7714 31.7706C49.6357 31.8487 49.5301 31.9596 49.4546 32.1007C49.3792 32.2427 49.3411 32.4042 49.3411 32.5852C49.3411 32.7698 49.3792 32.9321 49.4546 33.0741C49.5301 33.2161 49.6357 33.3261 49.7714 33.4042C49.9072 33.4823 50.0616 33.5222 50.2328 33.5222C50.405 33.5222 50.5585 33.4832 50.6942 33.4042C50.83 33.3261 50.9356 33.2152 51.011 33.0741C51.0864 32.9321 51.1246 32.7698 51.1246 32.5852C51.1246 32.4042 51.0864 32.2427 51.011 32.1007C50.9356 31.9587 50.83 31.8487 50.6942 31.7706C50.5585 31.6925 50.405 31.6526 50.2328 31.6526C50.0616 31.6526 49.9072 31.6916 49.7714 31.7706Z" fill="#1D1B1B"/>
<path d="M52.0923 30.4121H52.3958V33.7707H52.0923V30.4121Z" fill="#1D1B1B"/>
<path d="M54.2302 31.6864C54.1184 31.6544 54.0084 31.6384 53.9001 31.6384C53.7493 31.6384 53.6277 31.6677 53.5354 31.7263C53.4432 31.7849 53.397 31.8736 53.397 31.9916C53.397 32.0732 53.4219 32.1398 53.4716 32.1904C53.5213 32.2418 53.5834 32.2835 53.657 32.3146C53.7307 32.3465 53.8345 32.382 53.9667 32.4211C54.13 32.469 54.2622 32.5169 54.3651 32.5639C54.468 32.611 54.555 32.6784 54.6278 32.768C54.7005 32.8568 54.736 32.9739 54.736 33.1185C54.736 33.3324 54.6544 33.4965 54.492 33.6101C54.3287 33.7237 54.1255 33.7796 53.8806 33.7796C53.7085 33.7796 53.5425 33.7512 53.3828 33.6935C53.2231 33.6367 53.0882 33.5551 52.98 33.4495L53.1024 33.2321C53.2054 33.3261 53.3269 33.3998 53.4671 33.4539C53.6073 33.5081 53.7502 33.5356 53.8948 33.5356C54.0545 33.5356 54.185 33.5027 54.2861 33.4362C54.3873 33.3696 54.4379 33.2729 54.4379 33.1469C54.4379 33.0591 54.4121 32.9881 54.3607 32.9322C54.3092 32.8763 54.2453 32.8328 54.1681 32.8008C54.0909 32.7689 53.9844 32.7325 53.8487 32.6899C53.689 32.642 53.5594 32.595 53.4591 32.5497C53.3598 32.5045 53.2755 32.4388 53.2054 32.3527C53.1362 32.2667 53.1015 32.154 53.1015 32.0156C53.1015 31.807 53.1787 31.6509 53.3349 31.5444C53.4902 31.4388 53.6845 31.3856 53.9161 31.3856C54.0519 31.3856 54.1832 31.4033 54.3101 31.4397C54.437 31.4761 54.5497 31.5258 54.6499 31.5888L54.5319 31.8195C54.4432 31.7627 54.342 31.7183 54.2302 31.6864Z" fill="#1D1B1B"/>
<path d="M56.8278 33.7706L56.8234 33.3722C56.7293 33.5106 56.6078 33.6145 56.4569 33.6819C56.3061 33.7493 56.1322 33.7839 55.9361 33.7839C55.7763 33.7839 55.6353 33.7529 55.5128 33.6908C55.3904 33.6287 55.2963 33.5435 55.2298 33.4352C55.1632 33.327 55.1304 33.2045 55.1304 33.0688C55.1304 32.8638 55.2093 32.7023 55.3682 32.5843C55.5261 32.4663 55.7444 32.4077 56.0221 32.4077H56.819V32.2267C56.819 32.0395 56.7631 31.8948 56.6513 31.7919C56.5395 31.689 56.3771 31.6384 56.1623 31.6384C55.9086 31.6384 55.6539 31.7333 55.3975 31.9232L55.2617 31.7147C55.4214 31.6029 55.574 31.5213 55.7187 31.468C55.8633 31.4157 56.0292 31.389 56.2165 31.389C56.5031 31.389 56.7249 31.4609 56.882 31.6038C57.039 31.7475 57.1189 31.9454 57.1215 32.1992L57.126 33.7697L56.8278 33.7706ZM56.527 33.3838C56.6734 33.2862 56.7719 33.1477 56.8234 32.9694V32.6437H56.0585C55.85 32.6437 55.6921 32.6783 55.5829 32.7475C55.4747 32.8168 55.4196 32.9215 55.4196 33.0599C55.4196 33.2019 55.472 33.3154 55.5758 33.4015C55.6796 33.4876 55.8181 33.5302 55.9902 33.5302C56.2023 33.5311 56.3806 33.4823 56.527 33.3838Z" fill="#1D1B1B"/>
<path d="M58.8601 31.6864C58.7483 31.6544 58.6383 31.6384 58.53 31.6384C58.3792 31.6384 58.2576 31.6677 58.1653 31.7263C58.073 31.7849 58.0269 31.8736 58.0269 31.9916C58.0269 32.0732 58.0518 32.1398 58.1014 32.1904C58.1511 32.2418 58.2132 32.2835 58.2869 32.3146C58.3605 32.3465 58.4644 32.382 58.5966 32.4211C58.7598 32.469 58.8921 32.5169 58.995 32.5639C59.0979 32.611 59.1849 32.6784 59.2576 32.768C59.3304 32.8568 59.3659 32.9739 59.3659 33.1185C59.3659 33.3324 59.2843 33.4965 59.1219 33.6101C58.9586 33.7237 58.7554 33.7796 58.5105 33.7796C58.3384 33.7796 58.1724 33.7512 58.0127 33.6935C57.853 33.6367 57.7181 33.5551 57.6099 33.4495L57.7323 33.2321C57.8352 33.3261 57.9568 33.3998 58.097 33.4539C58.2372 33.5081 58.3801 33.5356 58.5247 33.5356C58.6844 33.5356 58.8149 33.5027 58.916 33.4362C59.0172 33.3696 59.0677 33.2729 59.0677 33.1469C59.0677 33.0591 59.042 32.9881 58.9905 32.9322C58.9391 32.8763 58.8752 32.8328 58.798 32.8008C58.7208 32.7689 58.6143 32.7325 58.4786 32.6899C58.3188 32.642 58.1893 32.595 58.089 32.5497C57.9896 32.5045 57.9053 32.4388 57.8352 32.3527C57.766 32.2667 57.7314 32.154 57.7314 32.0156C57.7314 31.807 57.8086 31.6509 57.9648 31.5444C58.1201 31.4388 58.3144 31.3856 58.546 31.3856C58.6818 31.3856 58.8131 31.4033 58.94 31.4397C59.0669 31.4761 59.1795 31.5258 59.2798 31.5888L59.1618 31.8195C59.0731 31.7627 58.9719 31.7183 58.8601 31.6864Z" fill="#1D1B1B"/>
<path d="M61.6332 34.5222C61.5143 34.6154 61.3777 34.6624 61.2233 34.6624C61.0387 34.6624 60.8763 34.6083 60.7344 34.4991L60.8701 34.264C60.9757 34.3368 61.0893 34.3731 61.21 34.3731C61.3067 34.3731 61.3937 34.3412 61.4726 34.2782C61.5507 34.2152 61.6155 34.1229 61.667 34.0022L61.7663 33.7573L60.7841 31.3988H61.1053L61.9199 33.4361L62.7034 31.3988H63.0157L61.9207 34.1105C61.848 34.2915 61.7521 34.429 61.6332 34.5222Z" fill="#1D1B1B"/>
<path d="M64.7499 30.602H65.1395L66.3799 32.9783L67.6062 30.602H67.9958V33.7706H67.7065L67.7012 31.0368L66.4607 33.4317H66.2885L65.0436 31.0368V33.7706H64.749L64.7499 30.602Z" fill="#1D1B1B"/>
<path d="M70.7026 31.7404C70.8961 31.9747 70.9848 32.2888 70.9697 32.6846H68.9918C69.0131 32.9383 69.1063 33.1424 69.2722 33.2977C69.4382 33.453 69.6432 33.5311 69.8881 33.5311C70.0389 33.5311 70.1791 33.5036 70.3086 33.4494C70.4382 33.3953 70.55 33.3181 70.6432 33.2187L70.8153 33.3909C70.7008 33.5142 70.5624 33.6101 70.4009 33.6784C70.2394 33.7467 70.062 33.7804 69.8694 33.7804C69.6405 33.7804 69.4364 33.7298 69.2581 33.6287C69.0797 33.5275 68.9404 33.3864 68.8392 33.2054C68.7381 33.0244 68.6875 32.8177 68.6875 32.5852C68.6875 32.3563 68.7381 32.1495 68.8392 31.9676C68.9404 31.7848 69.0797 31.6428 69.2581 31.5417C69.4364 31.4405 69.6369 31.39 69.8605 31.39C70.2288 31.39 70.5101 31.5071 70.7026 31.7404ZM70.6982 32.4494C70.6831 32.2019 70.6006 32.0049 70.4515 31.8585C70.3024 31.7121 70.1063 31.6393 69.865 31.6393C69.6263 31.6393 69.4275 31.7129 69.2678 31.8611C69.1081 32.0093 69.0158 32.2054 68.9918 32.4494H70.6982Z" fill="#1D1B1B"/>
<path d="M72.2427 31.5373C72.3891 31.4423 72.5648 31.3935 72.7698 31.39V31.6748C72.5196 31.6721 72.3181 31.7449 72.1655 31.894C72.0129 32.043 71.9259 32.2462 71.9055 32.5027V33.7698H71.6021V31.3979H71.9055V31.9499C71.9845 31.7706 72.0972 31.6322 72.2427 31.5373Z" fill="#1D1B1B"/>
<path d="M74.2025 31.657C74.033 31.657 73.8813 31.6961 73.7455 31.7751C73.6098 31.8531 73.5042 31.9632 73.4288 32.1034C73.3533 32.2436 73.3152 32.4042 73.3152 32.5852C73.3152 32.7662 73.3533 32.9277 73.4288 33.0697C73.5042 33.2116 73.6098 33.3217 73.7455 33.3998C73.8813 33.4778 74.0339 33.5178 74.2025 33.5178C74.356 33.5178 74.4971 33.4903 74.6258 33.4361C74.7544 33.382 74.8618 33.303 74.9497 33.201L75.1218 33.382C75.0162 33.5089 74.8831 33.6065 74.7234 33.6766C74.5637 33.7458 74.3853 33.7804 74.1892 33.7804C73.9629 33.7804 73.7606 33.7298 73.5823 33.6287C73.4039 33.5275 73.2646 33.3856 73.1635 33.2028C73.0623 33.02 73.0117 32.8141 73.0117 32.5852C73.0117 32.3563 73.0623 32.1495 73.1635 31.9676C73.2646 31.7848 73.4039 31.6428 73.5823 31.5417C73.7606 31.4405 73.9629 31.39 74.1892 31.39C74.3729 31.39 74.5415 31.4201 74.6941 31.4805C74.8467 31.5408 74.9772 31.6251 75.0854 31.7342L74.9133 31.9383C74.7198 31.7511 74.4829 31.657 74.2025 31.657Z" fill="#1D1B1B"/>
<path d="M77.1486 33.7706L77.1442 33.3722C77.0501 33.5106 76.9286 33.6145 76.7777 33.6819C76.6269 33.7493 76.453 33.7839 76.2569 33.7839C76.0972 33.7839 75.9561 33.7529 75.8336 33.6908C75.7112 33.6287 75.6171 33.5435 75.5506 33.4352C75.484 33.327 75.4512 33.2045 75.4512 33.0688C75.4512 32.8638 75.5301 32.7023 75.689 32.5843C75.8469 32.4663 76.0652 32.4077 76.3429 32.4077H77.1398V32.2267C77.1398 32.0395 77.0839 31.8948 76.9721 31.7919C76.8603 31.689 76.6979 31.6384 76.4831 31.6384C76.2294 31.6384 75.9747 31.7333 75.7183 31.9232L75.5825 31.7147C75.7422 31.6029 75.8948 31.5213 76.0395 31.468C76.1841 31.4157 76.35 31.389 76.5373 31.389C76.8239 31.389 77.0457 31.4609 77.2028 31.6038C77.3598 31.7475 77.4397 31.9454 77.4423 32.1992L77.4468 33.7697L77.1486 33.7706ZM76.8478 33.3838C76.9942 33.2862 77.0927 33.1477 77.1442 32.9694V32.6437H76.3793C76.1708 32.6437 76.0129 32.6783 75.9037 32.7475C75.7955 32.8168 75.7404 32.9215 75.7404 33.0599C75.7404 33.2019 75.7928 33.3154 75.8966 33.4015C76.0004 33.4876 76.1389 33.5302 76.311 33.5302C76.5222 33.5311 76.7014 33.4823 76.8478 33.3838Z" fill="#1D1B1B"/>
<path d="M80.416 30.4121V33.7707H80.1125V33.2276C80.022 33.406 79.8951 33.5435 79.7319 33.642C79.5686 33.7405 79.3787 33.7893 79.1613 33.7893C78.9377 33.7893 78.7389 33.7378 78.5641 33.6358C78.3893 33.5328 78.2536 33.39 78.1568 33.2054C78.0601 33.0217 78.0122 32.8132 78.0122 32.5807C78.0122 32.3483 78.061 32.1415 78.1595 31.9605C78.2571 31.7795 78.3938 31.6375 78.5668 31.5355C78.7398 31.4325 78.9368 31.3811 79.1578 31.3811C79.3751 31.3811 79.5659 31.4308 79.7301 31.5301C79.8942 31.6295 80.022 31.7688 80.1125 31.9463V30.4121H80.416ZM79.6786 33.4068C79.8144 33.327 79.9209 33.2161 79.9981 33.0741C80.0752 32.9321 80.1134 32.7706 80.1134 32.5896C80.1134 32.4086 80.0752 32.2462 79.9981 32.1034C79.9209 31.9605 79.8144 31.8478 79.6786 31.7662C79.5429 31.6845 79.3893 31.6437 79.2172 31.6437C79.0451 31.6437 78.8916 31.6845 78.7558 31.7662C78.62 31.8478 78.5127 31.9605 78.4346 32.1034C78.3565 32.2471 78.3166 32.4086 78.3166 32.5896C78.3166 32.7706 78.3547 32.9321 78.4319 33.0741C78.5091 33.2161 78.6156 33.327 78.7531 33.4068C78.8907 33.4867 79.0451 33.5266 79.2172 33.5266C79.3885 33.5266 79.5429 33.4867 79.6786 33.4068Z" fill="#1D1B1B"/>
<path d="M82.8937 31.5417C83.0747 31.6428 83.2166 31.7839 83.3187 31.9649C83.4216 32.146 83.4731 32.3509 83.4731 32.5808C83.4731 32.8132 83.4216 33.0209 83.3187 33.2028C83.2158 33.3856 83.0747 33.5275 82.8937 33.6287C82.7126 33.7298 82.5077 33.7804 82.2778 33.7804C82.048 33.7804 81.8431 33.7298 81.662 33.6287C81.481 33.5275 81.3391 33.3856 81.237 33.2028C81.1341 33.02 81.0835 32.8132 81.0835 32.5808C81.0835 32.3518 81.135 32.146 81.237 31.9649C81.3399 31.7839 81.481 31.6428 81.662 31.5417C81.8431 31.4405 82.048 31.39 82.2778 31.39C82.5077 31.39 82.7126 31.4405 82.8937 31.5417ZM81.8164 31.7706C81.6807 31.8487 81.5751 31.9596 81.4997 32.1007C81.4242 32.2427 81.3861 32.4042 81.3861 32.5852C81.3861 32.7698 81.4242 32.9321 81.4997 33.0741C81.5751 33.2161 81.6807 33.3261 81.8164 33.4042C81.9522 33.4823 82.1057 33.5222 82.2778 33.5222C82.45 33.5222 82.6035 33.4832 82.7393 33.4042C82.875 33.3261 82.9806 33.2152 83.056 33.0741C83.1315 32.9321 83.1696 32.7698 83.1696 32.5852C83.1696 32.4042 83.1315 32.2427 83.056 32.1007C82.9806 31.9587 82.875 31.8487 82.7393 31.7706C82.6035 31.6925 82.45 31.6526 82.2778 31.6526C82.1057 31.6526 81.9522 31.6916 81.8164 31.7706Z" fill="#1D1B1B"/>
<path d="M85.0388 31.6863C84.927 31.6544 84.817 31.6384 84.7087 31.6384C84.5579 31.6384 84.4363 31.6677 84.344 31.7263C84.2518 31.7857 84.2056 31.8744 84.2056 31.9925C84.2056 32.0741 84.2305 32.1406 84.2802 32.1912C84.3298 32.2427 84.392 32.2844 84.4656 32.3154C84.5393 32.3474 84.6431 32.3829 84.7753 32.4219C84.9386 32.4698 85.0708 32.5178 85.1737 32.5648C85.2766 32.6118 85.3636 32.6793 85.4363 32.7689C85.5091 32.8576 85.5446 32.9747 85.5446 33.1194C85.5446 33.3332 85.463 33.4974 85.3006 33.611C85.1373 33.7245 84.9341 33.7804 84.6892 33.7804C84.5171 33.7804 84.3511 33.752 84.1914 33.6944C84.0317 33.6376 83.8968 33.5559 83.7886 33.4503L83.911 33.2329C84.014 33.327 84.1355 33.4007 84.2757 33.4548C84.4159 33.5089 84.5588 33.5364 84.7034 33.5364C84.8631 33.5364 84.9936 33.5036 85.0947 33.437C85.1959 33.3705 85.2465 33.2738 85.2465 33.1478C85.2465 33.0599 85.2207 32.9889 85.1693 32.933C85.1178 32.8771 85.0539 32.8337 84.9767 32.8017C84.8995 32.7698 84.793 32.7334 84.6573 32.6908C84.4975 32.6429 84.368 32.5958 84.2677 32.5506C84.1684 32.5053 84.0841 32.4397 84.014 32.3536C83.9447 32.2675 83.9101 32.1548 83.9101 32.0164C83.9101 31.8079 83.9873 31.6517 84.1435 31.5452C84.2988 31.4397 84.4931 31.3864 84.7247 31.3864C84.8605 31.3864 84.9918 31.4042 85.1187 31.4405C85.2456 31.4769 85.3583 31.5266 85.4585 31.5896L85.3405 31.8203C85.2518 31.7626 85.1506 31.7183 85.0388 31.6863Z" fill="#1D1B1B"/>
<path d="M48.4436 38.966L48.0683 38.1239H46.3123L45.9414 38.966H45.606L47.0319 35.8018H47.3575L48.7835 38.966H48.4436ZM46.4338 37.8426H47.9458L47.1854 36.1318L46.4338 37.8426Z" fill="#1D1B1B"/>
<path d="M49.8902 36.7317C50.0366 36.6368 50.2123 36.588 50.4172 36.5844V36.8692C50.167 36.8666 49.9656 36.9393 49.813 37.0884C49.6603 37.2375 49.5734 37.4407 49.553 37.6971V38.9642H49.2495V36.5924H49.553V37.1443C49.632 36.9651 49.7438 36.8267 49.8902 36.7317Z" fill="#1D1B1B"/>
<path d="M52.9571 36.5933V38.7167C52.9571 38.9456 52.9092 39.147 52.8125 39.3192C52.7158 39.4913 52.5774 39.6235 52.3981 39.7149C52.2189 39.8072 52.0113 39.8533 51.7752 39.8533C51.4247 39.8533 51.1009 39.7327 50.8018 39.4913L50.9465 39.2739C51.0671 39.3795 51.194 39.4594 51.3271 39.5135C51.4602 39.5676 51.6049 39.5951 51.7619 39.5951C52.0334 39.5951 52.2499 39.5162 52.4114 39.3573C52.5729 39.1985 52.6537 38.9864 52.6537 38.7211V38.336C52.5694 38.5019 52.4487 38.6315 52.2916 38.7255C52.1346 38.8196 51.9536 38.8657 51.7486 38.8657C51.5374 38.8657 51.3493 38.8169 51.1851 38.7184C51.021 38.6208 50.8923 38.4842 50.8 38.3112C50.7078 38.1381 50.6616 37.9411 50.6616 37.7202C50.6616 37.5001 50.7078 37.304 50.8 37.1319C50.8923 36.9598 51.021 36.8258 51.1869 36.729C51.3529 36.6323 51.5419 36.5844 51.753 36.5844C51.958 36.5844 52.1381 36.6306 52.2916 36.7228C52.4452 36.8151 52.5658 36.9456 52.6537 37.1141V36.5933H52.9571ZM52.242 38.5064C52.3715 38.4292 52.4727 38.3227 52.5454 38.1869C52.6182 38.0512 52.6537 37.8985 52.6537 37.73C52.6537 37.5578 52.6173 37.4043 52.5454 37.2685C52.4727 37.1328 52.3715 37.0263 52.242 36.9491C52.1124 36.8719 51.966 36.8338 51.8027 36.8338C51.6395 36.8338 51.493 36.8719 51.3635 36.9491C51.2339 37.0263 51.1319 37.1328 51.0583 37.2685C50.9846 37.4043 50.9473 37.5578 50.9473 37.73C50.9473 37.9021 50.9846 38.0556 51.0583 38.1896C51.1319 38.3236 51.2331 38.4292 51.3617 38.5064C51.4904 38.5836 51.6368 38.6217 51.8027 38.6217C51.966 38.6217 52.1124 38.5827 52.242 38.5064Z" fill="#1D1B1B"/>
<path d="M55.547 36.9349C55.7404 37.1692 55.8291 37.4833 55.814 37.879H53.8362C53.8575 38.1328 53.9506 38.3369 54.1166 38.4922C54.2825 38.6475 54.4875 38.7255 54.7324 38.7255C54.8832 38.7255 55.0234 38.698 55.1539 38.6439C55.2834 38.5898 55.3952 38.5126 55.4884 38.4132L55.6605 38.5853C55.5461 38.7087 55.4076 38.8045 55.2461 38.8728C55.0847 38.9412 54.9072 38.9749 54.7146 38.9749C54.4848 38.9749 54.2816 38.9243 54.1033 38.8231C53.9249 38.722 53.7856 38.5809 53.6844 38.3999C53.5833 38.2189 53.5327 38.0121 53.5327 37.7796C53.5327 37.5507 53.5833 37.344 53.6844 37.1621C53.7856 36.9793 53.9249 36.8373 54.1033 36.7361C54.2816 36.635 54.4822 36.5844 54.7058 36.5844C55.0731 36.5844 55.3535 36.7015 55.547 36.9349ZM55.5416 37.6439C55.5265 37.3963 55.444 37.1993 55.295 37.0529C55.1459 36.9065 54.9498 36.8338 54.7084 36.8338C54.4697 36.8338 54.271 36.9074 54.1113 37.0556C53.9515 37.2038 53.8593 37.3999 53.8353 37.6439H55.5416Z" fill="#1D1B1B"/>
<path d="M58.3559 36.8311C58.5174 36.9952 58.5982 37.2215 58.5982 37.5081V38.966H58.2903V37.58C58.2903 37.3564 58.2281 37.1816 58.1048 37.0547C57.9806 36.9278 57.8093 36.8648 57.5884 36.8648C57.3444 36.8675 57.1483 36.9429 57.0018 37.0911C56.8554 37.2393 56.772 37.438 56.7507 37.6883V38.9651H56.4473V36.5933H56.7507V37.1452C56.8324 36.9615 56.9522 36.8222 57.111 36.729C57.2689 36.6359 57.4615 36.5871 57.6878 36.5844C57.9717 36.5844 58.1944 36.6669 58.3559 36.8311Z" fill="#1D1B1B"/>
<path d="M60.6039 38.8027C60.4406 38.9145 60.2658 38.9731 60.0786 38.9793C59.8976 38.9793 59.7538 38.9234 59.6482 38.8116C59.5426 38.6998 59.4903 38.5321 59.4903 38.3094V36.8967H59.1504L59.146 36.6616H59.4903V36.0502H59.7938V36.6616L60.5631 36.6572V36.8967H59.7938V38.2597C59.7938 38.5525 59.902 38.6989 60.1194 38.6989C60.2401 38.6989 60.3714 38.6563 60.5134 38.572L60.6039 38.8027Z" fill="#1D1B1B"/>
<path d="M61.4547 35.7583C61.4938 35.7991 61.5133 35.8497 61.5133 35.91C61.5133 35.9704 61.4929 36.0218 61.4521 36.0636C61.4112 36.1061 61.3624 36.1266 61.3048 36.1266C61.2444 36.1266 61.1938 36.1053 61.153 36.0636C61.1122 36.0218 61.0918 35.9704 61.0918 35.91C61.0918 35.8497 61.1122 35.7991 61.153 35.7583C61.1938 35.7175 61.2444 35.6971 61.3048 35.6971C61.366 35.6971 61.4157 35.7175 61.4547 35.7583ZM61.1512 36.5933H61.4547V38.9651H61.1512V36.5933Z" fill="#1D1B1B"/>
<path d="M64.2446 36.8311C64.4061 36.9952 64.4868 37.2215 64.4868 37.5081V38.966H64.1789V37.58C64.1789 37.3564 64.1168 37.1816 63.9935 37.0547C63.8692 36.9278 63.698 36.8648 63.477 36.8648C63.233 36.8675 63.0369 36.9429 62.8905 37.0911C62.7441 37.2393 62.6607 37.438 62.6394 37.6883V38.9651H62.3359V36.5933H62.6394V37.1452C62.721 36.9615 62.8408 36.8222 62.9997 36.729C63.1576 36.6359 63.3502 36.5871 63.5764 36.5844C63.8604 36.5844 64.0831 36.6669 64.2446 36.8311Z" fill="#1D1B1B"/>
<path d="M66.8643 36.7361C67.0453 36.8373 67.1872 36.9784 67.2893 37.1594C67.3922 37.3404 67.4428 37.5454 67.4428 37.7752C67.4428 38.0077 67.3913 38.2153 67.2893 38.3972C67.1864 38.58 67.0453 38.722 66.8643 38.8231C66.6832 38.9243 66.4783 38.9749 66.2485 38.9749C66.0195 38.9749 65.8137 38.9243 65.6326 38.8231C65.4516 38.722 65.3097 38.58 65.2076 38.3972C65.1047 38.2144 65.0532 38.0077 65.0532 37.7752C65.0532 37.5463 65.1047 37.3404 65.2076 37.1594C65.3105 36.9784 65.4516 36.8373 65.6326 36.7361C65.8137 36.635 66.0186 36.5844 66.2485 36.5844C66.4783 36.5844 66.6832 36.635 66.8643 36.7361ZM65.787 36.9651C65.6513 37.0432 65.5457 37.1541 65.4703 37.2952C65.3948 37.4371 65.3567 37.5986 65.3567 37.7796C65.3567 37.9642 65.3948 38.1266 65.4703 38.2686C65.5457 38.4105 65.6513 38.5206 65.787 38.5987C65.9228 38.6767 66.0763 38.7167 66.2485 38.7167C66.4206 38.7167 66.5741 38.6776 66.7099 38.5987C66.8456 38.5206 66.9512 38.4097 67.0266 38.2686C67.1021 38.1266 67.1402 37.9642 67.1402 37.7796C67.1402 37.5986 67.1021 37.4371 67.0266 37.2952C66.9512 37.1532 66.8456 37.0432 66.7099 36.9651C66.5741 36.887 66.4206 36.8471 66.2485 36.8471C66.0763 36.8471 65.9228 36.8861 65.787 36.9651Z" fill="#1D1B1B"/>
<path d="M69.01 36.8808C68.8982 36.8488 68.7882 36.8328 68.6799 36.8328C68.5291 36.8328 68.4075 36.8621 68.3152 36.9207C68.223 36.9793 68.1768 37.068 68.1768 37.186C68.1768 37.2676 68.2017 37.3342 68.2513 37.3848C68.301 37.4362 68.3632 37.4779 68.4368 37.509C68.5104 37.5409 68.6143 37.5764 68.7465 37.6155C68.9097 37.6634 69.042 37.7113 69.1449 37.7583C69.2478 37.8054 69.3348 37.8728 69.4075 37.9624C69.4803 38.052 69.5158 38.1683 69.5158 38.3129C69.5158 38.5268 69.4342 38.6909 69.2718 38.8045C69.1085 38.9181 68.9053 38.974 68.6604 38.974C68.4883 38.974 68.3223 38.9456 68.1626 38.8879C68.0029 38.8311 67.868 38.7495 67.7598 38.6439L67.8822 38.4265C67.9851 38.5205 68.1067 38.5942 68.2469 38.6483C68.3871 38.7024 68.53 38.73 68.6746 38.73C68.8343 38.73 68.9648 38.6971 69.0659 38.6306C69.1671 38.564 69.2177 38.4673 69.2177 38.3413C69.2177 38.2535 69.1919 38.1825 69.1405 38.1266C69.089 38.0707 69.0251 38.0272 68.9479 37.9952C68.8707 37.9633 68.7642 37.9269 68.6285 37.8843C68.4687 37.8364 68.3392 37.7894 68.2389 37.7441C68.1395 37.6989 68.0553 37.6332 67.9852 37.5471C67.9159 37.4611 67.8813 37.3484 67.8813 37.21C67.8813 37.0014 67.9585 36.8453 68.1147 36.7388C68.27 36.6332 68.4643 36.58 68.6959 36.58C68.8317 36.58 68.963 36.5977 69.0899 36.6341C69.2168 36.6705 69.3295 36.7202 69.4297 36.7832L69.3117 37.0139C69.2221 36.9571 69.1209 36.9127 69.01 36.8808Z" fill="#1D1B1B"/>
</g>
</svg>
