<svg width="104" height="43" viewBox="0 0 104 43" fill="none" xmlns="http://www.w3.org/2000/svg">
<g opacity="0.8">
<path d="M19.0659 11.3187L18.4395 6.15796C17.7447 6.23871 16.7979 6.44013 16.1102 6.65398L17.6391 11.6204C18.0996 11.481 18.5797 11.3799 19.0659 11.3187Z" fill="#1D1B1B"/>
<path d="M7.45935 14.4465C7.18162 15.089 6.88259 16.01 6.72375 16.7119L11.7895 17.8707C11.8996 17.396 12.0513 16.9293 12.2394 16.4838L7.45935 14.4465Z" fill="#1D1B1B"/>
<path d="M10.741 29.8701L14.2788 26.0608C13.9203 25.7254 13.592 25.3625 13.3018 24.9791L9.14734 28.0999C9.56261 28.6607 10.2112 29.3794 10.741 29.8701Z" fill="#1D1B1B"/>
<path d="M21.1885 28.304L21.8149 33.4647C22.5097 33.384 23.4565 33.1826 24.1442 32.9687L22.6153 28.0023C22.1548 28.1425 21.6756 28.2437 21.1885 28.304Z" fill="#1D1B1B"/>
<path d="M32.7952 25.177C33.0729 24.5346 33.3719 23.6135 33.5308 22.9117L28.465 21.7528C28.3541 22.2284 28.2033 22.6943 28.0151 23.1397L32.7952 25.177Z" fill="#1D1B1B"/>
<path d="M29.5136 9.75439L25.9758 13.5637C26.3343 13.8982 26.6626 14.262 26.9537 14.6454L31.1082 11.5246C30.6902 10.9621 30.0416 10.2424 29.5136 9.75439Z" fill="#1D1B1B"/>
<path d="M13.3013 14.648C13.5977 14.2567 13.9251 13.892 14.2756 13.5637L12.8505 12.0313L10.1051 9.11462C9.49287 9.68784 8.92853 10.3161 8.42542 10.9807L9.39615 11.7189L13.3013 14.648Z" fill="#1D1B1B"/>
<path d="M6.62545 25.5311L7.77365 25.0493L12.2396 23.1433C12.0532 22.7023 11.9033 22.2355 11.7915 21.7555L9.74885 22.224L5.84814 23.1433C6.03715 23.9561 6.29802 24.7591 6.62545 25.5311Z" fill="#1D1B1B"/>
<path d="M17.6419 28.0059L17.0101 30.0618L15.8726 33.8445C16.6712 34.0867 17.4973 34.2606 18.3296 34.3618L18.4911 33.0956L19.0696 28.3067C18.5798 28.2454 18.0998 28.1443 17.6419 28.0059Z" fill="#1D1B1B"/>
<path d="M26.9541 24.9756C26.6587 25.366 26.3312 25.7307 25.9799 26.0599L27.4324 27.6225L30.1503 30.5099C30.7617 29.9366 31.3269 29.3093 31.83 28.6438L30.8353 27.8878L26.9541 24.9756Z" fill="#1D1B1B"/>
<path d="M33.6293 14.0925L32.482 14.5735L28.0151 16.4803C28.2015 16.9222 28.3523 17.3881 28.4632 17.8681L30.568 17.3854L34.4075 16.4803C34.2185 15.6667 33.9567 14.8636 33.6293 14.0925Z" fill="#1D1B1B"/>
<path d="M22.6126 11.6178L23.2355 9.59201L24.382 5.77915C23.5834 5.5378 22.7573 5.363 21.9249 5.26184L21.7714 6.4695L21.1858 11.3179C21.6738 11.3773 22.1539 11.4785 22.6126 11.6178Z" fill="#1D1B1B"/>
<path d="M13.3013 14.648C13.5977 14.2567 13.9251 13.892 14.2756 13.5637L12.8505 12.0313L10.1051 9.11462C9.49287 9.68784 8.92853 10.3161 8.42542 10.9807L9.39615 11.7189L13.3013 14.648Z" fill="#1D1B1B"/>
<path d="M6.62545 25.5311L7.77365 25.0493L12.2396 23.1433C12.0532 22.7023 11.9033 22.2355 11.7915 21.7555L9.74885 22.224L5.84814 23.1433C6.03715 23.9561 6.29802 24.7591 6.62545 25.5311Z" fill="#1D1B1B"/>
<path d="M17.6419 28.0059L17.0101 30.0618L15.8726 33.8445C16.6712 34.0867 17.4973 34.2606 18.3296 34.3618L18.4911 33.0956L19.0696 28.3067C18.5798 28.2454 18.0998 28.1443 17.6419 28.0059Z" fill="#1D1B1B"/>
<path d="M26.9541 24.9756C26.6587 25.366 26.3312 25.7307 25.9799 26.0599L27.4324 27.6225L30.1503 30.5099C30.7617 29.9366 31.3269 29.3093 31.83 28.6438L30.8353 27.8878L26.9541 24.9756Z" fill="#1D1B1B"/>
<path d="M33.6293 14.0925L32.482 14.5735L28.0151 16.4803C28.2015 16.9222 28.3523 17.3881 28.4632 17.8681L30.568 17.3854L34.4075 16.4803C34.2185 15.6667 33.9567 14.8636 33.6293 14.0925Z" fill="#1D1B1B"/>
<path d="M22.6126 11.6178L23.2355 9.59201L24.382 5.77915C23.5834 5.5378 22.7573 5.363 21.9249 5.26184L21.7714 6.4695L21.1858 11.3179C21.6738 11.3773 22.1539 11.4785 22.6126 11.6178Z" fill="#1D1B1B"/>
<path d="M14.8918 4.63C14.0134 4.93258 13.1553 5.31414 12.3425 5.7649L15.0826 10.6851C15.6017 10.3968 16.1483 10.151 16.7171 9.95399L14.8918 4.63Z" fill="#1D1B1B"/>
<path d="M4.36062 16.7545C4.18492 17.6631 4.0882 18.5966 4.07312 19.531L9.72364 19.6179C9.73428 19.0119 9.79551 18.4183 9.90554 17.8406L4.36062 16.7545Z" fill="#1D1B1B"/>
<path d="M9.59985 31.9341C10.3044 32.5455 11.0631 33.0974 11.8563 33.5757L14.7606 28.7211C14.2486 28.4123 13.7659 28.0609 13.3169 27.6714L9.59985 31.9341Z" fill="#1D1B1B"/>
<path d="M25.3635 34.9935C26.242 34.6909 27.0991 34.3094 27.9128 33.8586L25.1594 28.9144C24.6412 29.201 24.0964 29.4451 23.5294 29.642L25.3635 34.9935Z" fill="#1D1B1B"/>
<path d="M35.8951 22.8692C36.0708 21.9605 36.1675 21.0271 36.1826 20.0927L30.5312 20.0057C30.5197 20.6118 30.4558 21.2054 30.344 21.7822L35.8951 22.8692Z" fill="#1D1B1B"/>
<path d="M30.6552 7.68953C29.9506 7.07816 29.192 6.52624 28.3987 6.04797L25.5087 10.8804C26.0207 11.1909 26.5043 11.5441 26.9541 11.9354L30.6552 7.68953Z" fill="#1D1B1B"/>
<path d="M11.8496 6.0498C11.0528 6.52985 10.2941 7.08177 9.59314 7.69225L13.2986 11.9372C13.7476 11.5459 14.2312 11.1919 14.7432 10.8813L11.8496 6.0498Z" fill="#1D1B1B"/>
<path d="M4.07446 20.0997C4.08334 20.5709 4.11173 21.0385 4.15965 21.4901C4.20756 21.9436 4.27677 22.4085 4.36728 22.8744L9.91309 21.7847C9.80129 21.208 9.7374 20.6152 9.72498 20.0083L4.07446 20.0997Z" fill="#1D1B1B"/>
<path d="M12.3492 33.8596C13.1611 34.3103 14.0183 34.6928 14.8985 34.9962L16.73 29.643C16.163 29.4469 15.6173 29.2029 15.0991 28.9163L12.3492 33.8596Z" fill="#1D1B1B"/>
<path d="M28.4058 33.5729C29.2027 33.0929 29.9613 32.5401 30.6623 31.9305L26.9417 27.6677C26.4927 28.0573 26.01 28.4086 25.498 28.7183L28.4058 33.5729Z" fill="#1D1B1B"/>
<path d="M36.1813 19.5238C36.1725 19.0527 36.1441 18.585 36.0961 18.1334C36.0482 17.68 35.979 17.215 35.8885 16.7491L30.348 17.8379C30.4581 18.4147 30.5202 19.0083 30.5299 19.6152L36.1813 19.5238Z" fill="#1D1B1B"/>
<path d="M25.2127 10.6053L27.9058 5.76399C27.093 5.31323 26.2358 4.93079 25.3565 4.62732L23.5348 9.95307C24.1036 10.1501 24.6493 10.395 25.1684 10.6833L25.2127 10.6053Z" fill="#1D1B1B"/>
<path d="M6.9699 10.6089C6.43662 11.3702 5.96722 12.183 5.57324 13.0242L10.6914 15.3987C10.9443 14.8548 11.2433 14.3366 11.5831 13.8494L6.9699 10.6089Z" fill="#1D1B1B"/>
<path d="M5.57458 26.6065C5.9659 27.4451 6.43618 28.2579 6.97213 29.0219L11.6004 25.7671C11.2597 25.2809 10.9598 24.7644 10.7051 24.2223L5.57458 26.6065Z" fill="#1D1B1B"/>
<path d="M33.2841 29.0148C33.8174 28.2534 34.2868 27.4406 34.6807 26.5986L29.5502 24.2188C29.2955 24.7609 28.9956 25.2773 28.6558 25.7636L33.2841 29.0148Z" fill="#1D1B1B"/>
<path d="M34.6794 13.0171C34.2881 12.1777 33.8178 11.3658 33.2818 10.6018L28.6677 13.8459C29.0076 14.3339 29.3066 14.8512 29.5604 15.3952L34.6794 13.0171Z" fill="#1D1B1B"/>
<path d="M21.0207 9.41984L21.5194 3.81369C21.066 3.77465 20.6055 3.75513 20.1494 3.75513C19.6782 3.75513 19.2008 3.77642 18.7288 3.81724L19.2301 9.41984C19.5256 9.39499 19.8246 9.3808 20.1272 9.3808C20.4289 9.38169 20.727 9.39499 21.0207 9.41984Z" fill="#1D1B1B"/>
<path d="M19.2371 30.1728L18.7367 35.8082C19.2088 35.849 19.679 35.8694 20.136 35.8694C20.5903 35.8694 21.0588 35.849 21.5282 35.8082L21.0225 30.1719C20.7279 30.1967 20.4297 30.2109 20.128 30.2109C19.8281 30.2109 19.5309 30.1976 19.2371 30.1728Z" fill="#1D1B1B"/>
<path d="M53.6853 19.3787C55.0199 19.7717 56.1787 20.8703 56.1787 22.6955C56.1787 24.8162 54.6667 26.7009 51.2514 26.7009H45.3427V12.9597H51.2709C53.7439 12.9597 55.4511 14.6288 55.4511 16.533C55.4511 18.0636 54.4307 19.0255 53.6844 19.3006V19.3787H53.6853ZM50.6427 18.3964C51.5451 18.3964 52.1343 17.8462 52.1343 17.0423C52.1343 16.2766 51.5655 15.6874 50.6232 15.6874H48.64V18.3964H50.6427ZM50.9568 23.9715C52.0952 23.9715 52.7039 23.3237 52.7039 22.4009C52.7039 21.4195 52.0358 20.8303 50.9568 20.8303H48.64V23.9715H50.9568Z" fill="#1D1B1B"/>
<path d="M64.4989 26.698H61.2007V21.2808L56.0773 12.9576H59.8857L62.0055 16.6871C62.4962 17.5514 62.9088 18.2967 62.9283 18.3162H62.9869C63.0073 18.2967 63.419 17.5309 63.9097 16.6871L66.1077 12.9576H69.6215L64.498 21.2808L64.4989 26.698Z" fill="#1D1B1B"/>
<path d="M81.4937 23.342C81.4937 20.0838 81.5328 18.4741 81.5328 18.4546H81.4937C81.4751 18.4741 80.806 19.7111 80.1397 20.8877L78.8042 23.3021H76.9595L75.6249 20.9276C74.9381 19.7102 74.2895 18.4733 74.2709 18.4537H74.2114C74.2114 18.4733 74.2504 20.0829 74.2504 23.3411V26.697H70.9531V12.9585H74.4465L77.9018 19.1024H77.9604L81.4343 12.9585H84.791V26.6979H81.4937V23.342Z" fill="#1D1B1B"/>
<path d="M90.4417 24.4219L89.6174 26.698H86.1426L91.4435 12.9576H95.1916L100.512 26.698H96.9787L96.1534 24.4219H90.4417ZM94.0922 18.6898C93.6609 17.5514 93.3459 16.688 93.3264 16.6676H93.267C93.2474 16.688 92.9333 17.5318 92.5012 18.6703L91.5198 21.4183H95.0718L94.0922 18.6898Z" fill="#1D1B1B"/>
<path d="M47.4324 30.5942C47.6116 30.7344 47.7021 30.9287 47.7021 31.1763C47.7021 31.3635 47.6498 31.5206 47.5459 31.6475C47.4421 31.7744 47.2966 31.8578 47.1094 31.8968C47.3418 31.927 47.5229 32.013 47.6524 32.155C47.782 32.297 47.8467 32.4762 47.8467 32.6936C47.8467 32.9652 47.7456 33.1763 47.5433 33.3272C47.341 33.478 47.0606 33.5535 46.7012 33.5535H45.3613V30.3848H46.6879C47.0047 30.383 47.2531 30.4531 47.4324 30.5942ZM47.1946 31.635C47.3179 31.5374 47.38 31.3972 47.38 31.2162C47.38 31.0414 47.3179 30.9057 47.1946 30.8089C47.0703 30.7122 46.8973 30.6661 46.6737 30.6687H45.6737V31.7823H46.6737C46.8973 31.7823 47.0712 31.7327 47.1946 31.635ZM47.3055 33.1107C47.4545 33.0033 47.53 32.8534 47.53 32.6599C47.53 32.47 47.4545 32.3218 47.3037 32.2162C47.1528 32.1107 46.9434 32.0583 46.6746 32.0583H45.6746V33.2713H46.6746C46.9461 33.2713 47.1564 33.218 47.3055 33.1107Z" fill="#1D1B1B"/>
<path d="M50.1287 31.3228C50.3097 31.4239 50.4517 31.565 50.5546 31.746C50.6575 31.927 50.7081 32.132 50.7081 32.3618C50.7081 32.5943 50.6566 32.8019 50.5546 32.9838C50.4517 33.1666 50.3106 33.3086 50.1287 33.4098C49.9468 33.5109 49.7427 33.5615 49.5129 33.5615C49.2839 33.5615 49.0781 33.5109 48.8971 33.4098C48.716 33.3086 48.5741 33.1666 48.4711 32.9838C48.3682 32.801 48.3176 32.5943 48.3176 32.3618C48.3176 32.1329 48.3691 31.927 48.4711 31.746C48.5741 31.565 48.7152 31.4239 48.8971 31.3228C49.0781 31.2216 49.283 31.171 49.5129 31.171C49.7427 31.171 49.9477 31.2216 50.1287 31.3228ZM49.0514 31.5517C48.9157 31.6298 48.8101 31.7407 48.7347 31.8818C48.6593 32.0237 48.6211 32.1852 48.6211 32.3663C48.6211 32.5508 48.6593 32.7132 48.7347 32.8552C48.8101 32.9971 48.9157 33.1072 49.0514 33.1853C49.1872 33.2633 49.3416 33.3033 49.5129 33.3033C49.685 33.3033 49.8385 33.2642 49.9743 33.1853C50.11 33.1072 50.2156 32.9963 50.2911 32.8552C50.3665 32.7132 50.4046 32.5508 50.4046 32.3663C50.4046 32.1852 50.3665 32.0237 50.2911 31.8818C50.2156 31.7398 50.11 31.6298 49.9743 31.5517C49.8385 31.4736 49.685 31.4337 49.5129 31.4337C49.3416 31.4337 49.1872 31.4727 49.0514 31.5517Z" fill="#1D1B1B"/>
<path d="M51.3726 30.1931H51.676V33.5517H51.3726V30.1931Z" fill="#1D1B1B"/>
<path d="M53.5104 31.4673C53.3986 31.4354 53.2885 31.4194 53.1803 31.4194C53.0294 31.4194 52.9079 31.4487 52.8156 31.5072C52.7233 31.5658 52.6772 31.6545 52.6772 31.7725C52.6772 31.8542 52.702 31.9207 52.7517 31.9713C52.8014 32.0228 52.8635 32.0645 52.9372 32.0955C53.0108 32.1275 53.1146 32.163 53.2468 32.202C53.4101 32.2499 53.5423 32.2978 53.6453 32.3449C53.7482 32.3919 53.8351 32.4593 53.9079 32.549C53.9807 32.6377 54.0162 32.7548 54.0162 32.8995C54.0162 33.1133 53.9345 33.2775 53.7721 33.391C53.6089 33.5046 53.4057 33.5605 53.1608 33.5605C52.9886 33.5605 52.8227 33.5321 52.663 33.4744C52.5033 33.4177 52.3684 33.336 52.2601 33.2304L52.3826 33.013C52.4855 33.1071 52.6071 33.1807 52.7473 33.2349C52.8875 33.289 53.0303 33.3165 53.175 33.3165C53.3347 33.3165 53.4651 33.2837 53.5663 33.2171C53.6674 33.1506 53.718 33.0539 53.718 32.9279C53.718 32.84 53.6923 32.769 53.6408 32.7131C53.5894 32.6572 53.5255 32.6137 53.4483 32.5818C53.3711 32.5498 53.2646 32.5135 53.1288 32.4709C52.9691 32.423 52.8396 32.3759 52.7393 32.3307C52.6399 32.2854 52.5556 32.2198 52.4855 32.1337C52.4163 32.0476 52.3817 31.9349 52.3817 31.7965C52.3817 31.588 52.4589 31.4318 52.6151 31.3253C52.7703 31.2197 52.9647 31.1665 53.1963 31.1665C53.332 31.1665 53.4634 31.1843 53.5902 31.2206C53.7171 31.257 53.8298 31.3067 53.9301 31.3697L53.8121 31.6004C53.7233 31.5436 53.6222 31.4993 53.5104 31.4673Z" fill="#1D1B1B"/>
<path d="M56.1076 33.5516L56.1032 33.1532C56.0091 33.2917 55.8876 33.3955 55.7367 33.4629C55.5859 33.5303 55.412 33.5649 55.2159 33.5649C55.0561 33.5649 54.915 33.5339 54.7926 33.4718C54.6701 33.4097 54.5761 33.3245 54.5095 33.2162C54.443 33.108 54.4102 32.9855 54.4102 32.8498C54.4102 32.6448 54.4891 32.4833 54.648 32.3653C54.8059 32.2473 55.0242 32.1887 55.3019 32.1887H56.0987V32.0077C56.0987 31.8205 56.0428 31.6758 55.931 31.5729C55.8192 31.47 55.6569 31.4194 55.4421 31.4194C55.1883 31.4194 54.9337 31.5143 54.6772 31.7042L54.5415 31.4957C54.7012 31.3839 54.8538 31.3023 54.9985 31.249C55.1431 31.1967 55.309 31.17 55.4962 31.17C55.7829 31.17 56.0047 31.2419 56.1617 31.3848C56.3188 31.5285 56.3987 31.7264 56.4013 31.9802L56.4058 33.5508L56.1076 33.5516ZM55.8068 33.1648C55.9532 33.0672 56.0517 32.9287 56.1032 32.7504V32.4247H55.3383C55.1298 32.4247 54.9718 32.4593 54.8627 32.5285C54.7544 32.5978 54.6994 32.7025 54.6994 32.8409C54.6994 32.9829 54.7518 33.0964 54.8556 33.1825C54.9594 33.2686 55.0978 33.3112 55.27 33.3112C55.4821 33.3121 55.6604 33.2633 55.8068 33.1648Z" fill="#1D1B1B"/>
<path d="M58.1401 31.4673C58.0283 31.4354 57.9183 31.4194 57.81 31.4194C57.6592 31.4194 57.5376 31.4487 57.4454 31.5072C57.3531 31.5658 57.3069 31.6545 57.3069 31.7725C57.3069 31.8542 57.3318 31.9207 57.3815 31.9713C57.4312 32.0228 57.4933 32.0645 57.5669 32.0955C57.6406 32.1275 57.7444 32.163 57.8766 32.202C58.0399 32.2499 58.1721 32.2978 58.275 32.3449C58.3779 32.3919 58.4649 32.4593 58.5377 32.549C58.6104 32.6377 58.6459 32.7548 58.6459 32.8995C58.6459 33.1133 58.5643 33.2775 58.4019 33.391C58.2386 33.5046 58.0354 33.5605 57.7905 33.5605C57.6184 33.5605 57.4525 33.5321 57.2927 33.4744C57.133 33.4177 56.9981 33.336 56.8899 33.2304L57.0123 33.013C57.1153 33.1071 57.2368 33.1807 57.377 33.2349C57.5172 33.289 57.6601 33.3165 57.8047 33.3165C57.9644 33.3165 58.0949 33.2837 58.196 33.2171C58.2972 33.1506 58.3478 33.0539 58.3478 32.9279C58.3478 32.84 58.322 32.769 58.2706 32.7131C58.2191 32.6572 58.1552 32.6137 58.078 32.5818C58.0008 32.5498 57.8943 32.5135 57.7586 32.4709C57.5989 32.423 57.4693 32.3759 57.3691 32.3307C57.2697 32.2854 57.1854 32.2198 57.1153 32.1337C57.0461 32.0476 57.0115 31.9349 57.0115 31.7965C57.0115 31.588 57.0887 31.4318 57.2448 31.3253C57.4001 31.2197 57.5944 31.1665 57.826 31.1665C57.9618 31.1665 58.0931 31.1843 58.22 31.2206C58.3469 31.257 58.4596 31.3067 58.5598 31.3697L58.4418 31.6004C58.3531 31.5436 58.2519 31.4993 58.1401 31.4673Z" fill="#1D1B1B"/>
<path d="M60.9131 34.3032C60.7942 34.3964 60.6576 34.4434 60.5032 34.4434C60.3186 34.4434 60.1563 34.3893 60.0143 34.2801L60.15 34.045C60.2556 34.1178 60.3692 34.1541 60.4899 34.1541C60.5866 34.1541 60.6736 34.1222 60.7525 34.0592C60.8306 33.9962 60.8954 33.9039 60.9469 33.7832L61.0462 33.5383L60.064 31.1798H60.3852L61.1998 33.2171L61.9833 31.1798H62.2956L61.2006 33.8915C61.1279 34.0725 61.0321 34.21 60.9131 34.3032Z" fill="#1D1B1B"/>
<path d="M64.0298 30.3831H64.4194L65.6598 32.7593L66.8861 30.3831H67.2757V33.5517H66.9864L66.9811 30.8178L65.7406 33.2128H65.5684L64.3235 30.8178V33.5517H64.0289L64.0298 30.3831Z" fill="#1D1B1B"/>
<path d="M69.9825 31.5215C70.176 31.7558 70.2647 32.0699 70.2496 32.4656H68.2718C68.2931 32.7194 68.3862 32.9235 68.5522 33.0788C68.7181 33.2341 68.9231 33.3121 69.168 33.3121C69.3188 33.3121 69.459 33.2846 69.5886 33.2305C69.7181 33.1764 69.8299 33.0992 69.9231 32.9998L70.0952 33.172C69.9808 33.2953 69.8423 33.3911 69.6808 33.4594C69.5193 33.5278 69.3419 33.5615 69.1493 33.5615C68.9204 33.5615 68.7163 33.5109 68.538 33.4098C68.3596 33.3086 68.2203 33.1675 68.1191 32.9865C68.018 32.8055 67.9674 32.5987 67.9674 32.3663C67.9674 32.1373 68.018 31.9306 68.1191 31.7487C68.2203 31.5659 68.3596 31.4239 68.538 31.3228C68.7163 31.2216 68.9168 31.171 69.1405 31.171C69.5087 31.171 69.79 31.2881 69.9825 31.5215ZM69.9781 32.2305C69.963 31.9829 69.8805 31.7859 69.7314 31.6395C69.5823 31.4931 69.3862 31.4204 69.1449 31.4204C68.9062 31.4204 68.7074 31.494 68.5477 31.6422C68.388 31.7904 68.2957 31.9865 68.2718 32.2305H69.9781Z" fill="#1D1B1B"/>
<path d="M71.5229 31.3183C71.6693 31.2234 71.845 31.1746 72.0499 31.171V31.4559C71.7997 31.4532 71.5983 31.526 71.4457 31.675C71.293 31.8241 71.2061 32.0273 71.1857 32.2837V33.5508H70.8822V31.179H71.1857V31.7309C71.2646 31.5517 71.3773 31.4133 71.5229 31.3183Z" fill="#1D1B1B"/>
<path d="M73.4824 31.4381C73.3129 31.4381 73.1612 31.4772 73.0255 31.5561C72.8897 31.6342 72.7841 31.7442 72.7087 31.8844C72.6332 32.0246 72.5951 32.1852 72.5951 32.3663C72.5951 32.5473 72.6332 32.7088 72.7087 32.8507C72.7841 32.9927 72.8897 33.1027 73.0255 33.1808C73.1612 33.2589 73.3138 33.2988 73.4824 33.2988C73.6359 33.2988 73.777 33.2713 73.9057 33.2172C74.0343 33.1631 74.1417 33.0841 74.2296 32.9821L74.4017 33.1631C74.2961 33.29 74.163 33.3876 74.0033 33.4577C73.8436 33.5269 73.6652 33.5615 73.4691 33.5615C73.2428 33.5615 73.0405 33.5109 72.8622 33.4098C72.6838 33.3086 72.5445 33.1666 72.4434 32.9838C72.3422 32.801 72.2916 32.5952 72.2916 32.3663C72.2916 32.1373 72.3422 31.9306 72.4434 31.7487C72.5445 31.5659 72.6838 31.4239 72.8622 31.3228C73.0405 31.2216 73.2428 31.171 73.4691 31.171C73.6528 31.171 73.8214 31.2012 73.974 31.2615C74.1266 31.3219 74.2571 31.4062 74.3653 31.5153L74.1932 31.7194C73.9997 31.5322 73.7628 31.4381 73.4824 31.4381Z" fill="#1D1B1B"/>
<path d="M76.4288 33.5516L76.4244 33.1532C76.3303 33.2917 76.2087 33.3955 76.0579 33.4629C75.907 33.5303 75.7331 33.5649 75.537 33.5649C75.3773 33.5649 75.2362 33.5339 75.1138 33.4718C74.9913 33.4097 74.8973 33.3245 74.8307 33.2162C74.7642 33.108 74.7313 32.9855 74.7313 32.8498C74.7313 32.6448 74.8103 32.4833 74.9691 32.3653C75.1271 32.2473 75.3454 32.1887 75.6231 32.1887H76.4199V32.0077C76.4199 31.8205 76.364 31.6758 76.2522 31.5729C76.1404 31.47 75.978 31.4194 75.7633 31.4194C75.5095 31.4194 75.2549 31.5143 74.9984 31.7042L74.8627 31.4957C75.0224 31.3839 75.175 31.3023 75.3196 31.249C75.4643 31.1967 75.6302 31.17 75.8174 31.17C76.104 31.17 76.3259 31.2419 76.4829 31.3848C76.64 31.5285 76.7198 31.7264 76.7225 31.9802L76.7269 33.5508L76.4288 33.5516ZM76.128 33.1648C76.2744 33.0672 76.3729 32.9287 76.4244 32.7504V32.4247H75.6595C75.451 32.4247 75.293 32.4593 75.1839 32.5285C75.0756 32.5978 75.0206 32.7025 75.0206 32.8409C75.0206 32.9829 75.073 33.0964 75.1768 33.1825C75.2806 33.2686 75.419 33.3112 75.5911 33.3112C75.8023 33.3121 75.9816 33.2633 76.128 33.1648Z" fill="#1D1B1B"/>
<path d="M79.6963 30.1931V33.5517H79.3928V33.0086C79.3023 33.187 79.1754 33.3245 79.0121 33.423C78.8489 33.5215 78.659 33.5703 78.4416 33.5703C78.218 33.5703 78.0192 33.5188 77.8444 33.4168C77.6696 33.3139 77.5338 33.171 77.4371 32.9864C77.3404 32.8028 77.2925 32.5942 77.2925 32.3618C77.2925 32.1293 77.3413 31.9225 77.4398 31.7415C77.5374 31.5605 77.674 31.4185 77.8471 31.3165C78.0201 31.2135 78.2171 31.1621 78.438 31.1621C78.6554 31.1621 78.8462 31.2118 79.0104 31.3111C79.1745 31.4105 79.3023 31.5498 79.3928 31.7273V30.1931H79.6963ZM78.9589 33.1879C79.0947 33.108 79.2011 32.9971 79.2783 32.8551C79.3555 32.7131 79.3937 32.5516 79.3937 32.3706C79.3937 32.1896 79.3555 32.0272 79.2783 31.8844C79.2011 31.7415 79.0947 31.6288 78.9589 31.5472C78.8231 31.4655 78.6696 31.4247 78.4975 31.4247C78.3253 31.4247 78.1718 31.4655 78.0361 31.5472C77.9003 31.6288 77.7929 31.7415 77.7149 31.8844C77.6368 32.0281 77.5968 32.1896 77.5968 32.3706C77.5968 32.5516 77.635 32.7131 77.7122 32.8551C77.7894 32.9971 77.8959 33.108 78.0334 33.1879C78.1709 33.2677 78.3253 33.3076 78.4975 33.3076C78.6687 33.3076 78.8231 33.2677 78.9589 33.1879Z" fill="#1D1B1B"/>
<path d="M82.1736 31.3228C82.3546 31.4239 82.4965 31.565 82.5986 31.746C82.7015 31.927 82.753 32.132 82.753 32.3618C82.753 32.5943 82.7015 32.8019 82.5986 32.9838C82.4957 33.1666 82.3546 33.3086 82.1736 33.4098C81.9925 33.5109 81.7876 33.5615 81.5578 33.5615C81.3279 33.5615 81.123 33.5109 80.9419 33.4098C80.7609 33.3086 80.619 33.1666 80.5169 32.9838C80.414 32.801 80.3634 32.5943 80.3634 32.3618C80.3634 32.1329 80.4149 31.927 80.5169 31.746C80.6198 31.565 80.7609 31.4239 80.9419 31.3228C81.123 31.2216 81.3279 31.171 81.5578 31.171C81.7876 31.171 81.9925 31.2216 82.1736 31.3228ZM81.0963 31.5517C80.9606 31.6298 80.855 31.7407 80.7796 31.8818C80.7041 32.0237 80.666 32.1852 80.666 32.3663C80.666 32.5508 80.7041 32.7132 80.7796 32.8552C80.855 32.9971 80.9606 33.1072 81.0963 33.1853C81.2321 33.2633 81.3856 33.3033 81.5578 33.3033C81.7299 33.3033 81.8834 33.2642 82.0192 33.1853C82.1549 33.1072 82.2605 32.9963 82.3359 32.8552C82.4114 32.7132 82.4495 32.5508 82.4495 32.3663C82.4495 32.1852 82.4114 32.0237 82.3359 31.8818C82.2605 31.7398 82.1549 31.6298 82.0192 31.5517C81.8834 31.4736 81.7299 31.4337 81.5578 31.4337C81.3856 31.4337 81.2321 31.4727 81.0963 31.5517Z" fill="#1D1B1B"/>
<path d="M84.319 31.4674C84.2072 31.4355 84.0971 31.4195 83.9889 31.4195C83.838 31.4195 83.7165 31.4488 83.6242 31.5073C83.5319 31.5668 83.4858 31.6555 83.4858 31.7735C83.4858 31.8552 83.5106 31.9217 83.5603 31.9723C83.61 32.0238 83.6721 32.0655 83.7458 32.0965C83.8194 32.1285 83.9232 32.164 84.0554 32.203C84.2187 32.2509 84.3509 32.2988 84.4538 32.3459C84.5568 32.3929 84.6437 32.4603 84.7165 32.5499C84.7893 32.6387 84.8247 32.7558 84.8247 32.9004C84.8247 33.1143 84.7431 33.2784 84.5807 33.392C84.4175 33.5056 84.2143 33.5615 83.9694 33.5615C83.7972 33.5615 83.6313 33.5331 83.4716 33.4754C83.3119 33.4186 83.177 33.337 83.0687 33.2314L83.1912 33.014C83.2941 33.1081 83.4157 33.1817 83.5559 33.2358C83.6961 33.29 83.8389 33.3175 83.9836 33.3175C84.1433 33.3175 84.2737 33.2847 84.3749 33.2181C84.476 33.1516 84.5266 33.0548 84.5266 32.9288C84.5266 32.841 84.5009 32.77 84.4494 32.7141C84.3979 32.6582 84.3341 32.6147 84.2569 32.5828C84.1797 32.5508 84.0732 32.5144 83.9374 32.4719C83.7777 32.4239 83.6482 32.3769 83.5479 32.3317C83.4485 32.2864 83.3642 32.2207 83.2941 32.1347C83.2249 32.0486 83.1903 31.9359 83.1903 31.7975C83.1903 31.589 83.2675 31.4328 83.4237 31.3263C83.5789 31.2207 83.7733 31.1675 84.0049 31.1675C84.1406 31.1675 84.2719 31.1852 84.3988 31.2216C84.5257 31.258 84.6384 31.3077 84.7387 31.3707L84.6207 31.6014C84.5319 31.5437 84.4308 31.4993 84.319 31.4674Z" fill="#1D1B1B"/>
<path d="M47.7239 38.747L47.3486 37.9049H45.5925L45.2216 38.747H44.8862L46.3122 35.5828H46.6378L48.0638 38.747H47.7239ZM45.7141 37.6236H47.2261L46.4657 35.9129L45.7141 37.6236Z" fill="#1D1B1B"/>
<path d="M49.1704 36.5127C49.3168 36.4177 49.4925 36.3689 49.6975 36.3654V36.6502C49.4473 36.6475 49.2459 36.7203 49.0932 36.8694C48.9406 37.0184 48.8537 37.2216 48.8333 37.4781V38.7452H48.5298V36.3733H48.8333V36.9253C48.9122 36.746 49.024 36.6076 49.1704 36.5127Z" fill="#1D1B1B"/>
<path d="M52.2373 36.3742V38.4976C52.2373 38.7265 52.1894 38.928 52.0927 39.1001C51.9959 39.2723 51.8575 39.4045 51.6783 39.4959C51.499 39.5881 51.2914 39.6343 51.0554 39.6343C50.7049 39.6343 50.381 39.5136 50.082 39.2723L50.2266 39.0549C50.3473 39.1604 50.4742 39.2403 50.6073 39.2944C50.7404 39.3486 50.885 39.3761 51.0421 39.3761C51.3136 39.3761 51.5301 39.2971 51.6916 39.1383C51.8531 38.9794 51.9338 38.7674 51.9338 38.502V38.1169C51.8495 38.2829 51.7289 38.4124 51.5718 38.5065C51.4147 38.6005 51.2337 38.6467 51.0288 38.6467C50.8176 38.6467 50.6295 38.5979 50.4653 38.4994C50.3011 38.4018 50.1725 38.2651 50.0802 38.0921C49.9879 37.9191 49.9418 37.7221 49.9418 37.5011C49.9418 37.2811 49.9879 37.085 50.0802 36.9128C50.1725 36.7407 50.3011 36.6067 50.4671 36.51C50.633 36.4133 50.822 36.3654 51.0332 36.3654C51.2382 36.3654 51.4183 36.4115 51.5718 36.5038C51.7253 36.5961 51.846 36.7265 51.9338 36.8951V36.3742H52.2373ZM51.5221 38.2873C51.6517 38.2101 51.7528 38.1036 51.8256 37.9679C51.8983 37.8321 51.9338 37.6795 51.9338 37.5109C51.9338 37.3388 51.8974 37.1852 51.8256 37.0495C51.7528 36.9137 51.6517 36.8072 51.5221 36.7301C51.3926 36.6529 51.2461 36.6147 51.0829 36.6147C50.9196 36.6147 50.7732 36.6529 50.6437 36.7301C50.5141 36.8072 50.4121 36.9137 50.3384 37.0495C50.2648 37.1852 50.2275 37.3388 50.2275 37.5109C50.2275 37.683 50.2648 37.8366 50.3384 37.9705C50.4121 38.1045 50.5132 38.2101 50.6419 38.2873C50.7705 38.3645 50.9169 38.4027 51.0829 38.4027C51.2461 38.4027 51.3926 38.3636 51.5221 38.2873Z" fill="#1D1B1B"/>
<path d="M54.8269 36.7159C55.0203 36.9501 55.109 37.2642 55.0939 37.66H53.1161C53.1374 37.9138 53.2306 38.1178 53.3965 38.2731C53.5624 38.4284 53.7674 38.5065 54.0123 38.5065C54.1631 38.5065 54.3033 38.479 54.4338 38.4249C54.5633 38.3707 54.6751 38.2935 54.7683 38.1941L54.9404 38.3663C54.826 38.4896 54.6876 38.5855 54.5261 38.6538C54.3646 38.7221 54.1871 38.7558 53.9945 38.7558C53.7647 38.7558 53.5615 38.7052 53.3832 38.6041C53.2048 38.5029 53.0655 38.3618 52.9644 38.1808C52.8632 37.9998 52.8126 37.7931 52.8126 37.5606C52.8126 37.3317 52.8632 37.1249 52.9644 36.943C53.0655 36.7602 53.2048 36.6182 53.3832 36.5171C53.5615 36.4159 53.7621 36.3654 53.9857 36.3654C54.353 36.3654 54.6334 36.4825 54.8269 36.7159ZM54.8215 37.4248C54.8065 37.1773 54.7239 36.9803 54.5749 36.8339C54.4258 36.6875 54.2297 36.6147 53.9883 36.6147C53.7496 36.6147 53.5509 36.6883 53.3912 36.8365C53.2314 36.9847 53.1392 37.1808 53.1152 37.4248H54.8215Z" fill="#1D1B1B"/>
<path d="M57.6361 36.612C57.7976 36.7762 57.8783 37.0025 57.8783 37.2891V38.747H57.5704V37.3609C57.5704 37.1373 57.5083 36.9625 57.385 36.8356C57.2607 36.7088 57.0895 36.6458 56.8685 36.6458C56.6245 36.6484 56.4284 36.7238 56.282 36.872C56.1356 37.0202 56.0522 37.219 56.0309 37.4692V38.7461H55.7274V36.3742H56.0309V36.9261C56.1125 36.7425 56.2323 36.6032 56.3911 36.51C56.5491 36.4168 56.7416 36.368 56.9679 36.3654C57.2518 36.3654 57.4746 36.4479 57.6361 36.612Z" fill="#1D1B1B"/>
<path d="M59.8839 38.5837C59.7206 38.6955 59.5458 38.754 59.3586 38.7603C59.1776 38.7603 59.0338 38.7044 58.9283 38.5925C58.8227 38.4807 58.7703 38.313 58.7703 38.0903V36.6777H58.4305L58.426 36.4425H58.7703V35.8312H59.0738V36.4425L59.8431 36.4381V36.6777H59.0738V38.0406C59.0738 38.3334 59.182 38.4799 59.3994 38.4799C59.5201 38.4799 59.6514 38.4373 59.7934 38.353L59.8839 38.5837Z" fill="#1D1B1B"/>
<path d="M60.7349 35.5393C60.7739 35.5801 60.7934 35.6306 60.7934 35.691C60.7934 35.7513 60.773 35.8028 60.7322 35.8445C60.6914 35.8871 60.6426 35.9075 60.5849 35.9075C60.5246 35.9075 60.474 35.8862 60.4332 35.8445C60.3924 35.8028 60.3719 35.7513 60.3719 35.691C60.3719 35.6306 60.3924 35.5801 60.4332 35.5393C60.474 35.4984 60.5246 35.478 60.5849 35.478C60.6461 35.478 60.6958 35.4984 60.7349 35.5393ZM60.4314 36.3742H60.7349V38.7461H60.4314V36.3742Z" fill="#1D1B1B"/>
<path d="M63.5245 36.612C63.686 36.7762 63.7667 37.0025 63.7667 37.2891V38.747H63.4588V37.3609C63.4588 37.1373 63.3967 36.9625 63.2734 36.8356C63.1492 36.7088 62.9779 36.6458 62.757 36.6458C62.5129 36.6484 62.3168 36.7238 62.1704 36.872C62.024 37.0202 61.9406 37.219 61.9193 37.4692V38.7461H61.6158V36.3742H61.9193V36.9261C62.0009 36.7425 62.1207 36.6032 62.2796 36.51C62.4375 36.4168 62.6301 36.368 62.8563 36.3654C63.1403 36.3654 63.363 36.4479 63.5245 36.612Z" fill="#1D1B1B"/>
<path d="M66.1442 36.5171C66.3252 36.6182 66.4672 36.7593 66.5692 36.9403C66.6721 37.1214 66.7227 37.3263 66.7227 37.5562C66.7227 37.7886 66.6712 37.9963 66.5692 38.1782C66.4663 38.361 66.3252 38.5029 66.1442 38.6041C65.9632 38.7052 65.7582 38.7558 65.5284 38.7558C65.2994 38.7558 65.0936 38.7052 64.9126 38.6041C64.7315 38.5029 64.5896 38.361 64.4875 38.1782C64.3846 37.9954 64.3331 37.7886 64.3331 37.5562C64.3331 37.3272 64.3846 37.1214 64.4875 36.9403C64.5905 36.7593 64.7315 36.6182 64.9126 36.5171C65.0936 36.4159 65.2985 36.3654 65.5284 36.3654C65.7582 36.3654 65.9632 36.4159 66.1442 36.5171ZM65.0669 36.746C64.9312 36.8241 64.8256 36.935 64.7502 37.0761C64.6748 37.2181 64.6366 37.3796 64.6366 37.5606C64.6366 37.7452 64.6748 37.9075 64.7502 38.0495C64.8256 38.1915 64.9312 38.3015 65.0669 38.3796C65.2027 38.4577 65.3562 38.4976 65.5284 38.4976C65.7005 38.4976 65.854 38.4586 65.9898 38.3796C66.1255 38.3015 66.2311 38.1906 66.3066 38.0495C66.382 37.9075 66.4201 37.7452 66.4201 37.5606C66.4201 37.3796 66.382 37.2181 66.3066 37.0761C66.2311 36.9341 66.1255 36.8241 65.9898 36.746C65.854 36.6679 65.7005 36.628 65.5284 36.628C65.3562 36.628 65.2027 36.667 65.0669 36.746Z" fill="#1D1B1B"/>
<path d="M68.29 36.6618C68.1782 36.6298 68.0682 36.6139 67.96 36.6139C67.8091 36.6139 67.6875 36.6431 67.5953 36.7017C67.503 36.7603 67.4568 36.849 67.4568 36.967C67.4568 37.0486 67.4817 37.1152 67.5314 37.1658C67.5811 37.2172 67.6432 37.2589 67.7168 37.29C67.7905 37.3219 67.8943 37.3574 68.0265 37.3965C68.1898 37.4444 68.322 37.4923 68.4249 37.5393C68.5279 37.5864 68.6148 37.6538 68.6876 37.7434C68.7603 37.833 68.7958 37.9493 68.7958 38.0939C68.7958 38.3078 68.7142 38.4719 68.5518 38.5855C68.3885 38.6991 68.1853 38.755 67.9404 38.755C67.7683 38.755 67.6024 38.7266 67.4426 38.6689C67.2829 38.6121 67.148 38.5305 67.0398 38.4249L67.1622 38.2075C67.2652 38.3016 67.3867 38.3752 67.5269 38.4293C67.6671 38.4835 67.81 38.511 67.9546 38.511C68.1144 38.511 68.2448 38.4781 68.3459 38.4116C68.4471 38.345 68.4977 38.2483 68.4977 38.1223C68.4977 38.0345 68.4719 37.9635 68.4205 37.9076C68.369 37.8517 68.3051 37.8082 68.2279 37.7763C68.1507 37.7443 68.0443 37.7079 67.9085 37.6653C67.7488 37.6174 67.6192 37.5704 67.519 37.5251C67.4196 37.4799 67.3353 37.4142 67.2652 37.3282C67.196 37.2421 67.1614 37.1294 67.1614 36.991C67.1614 36.7824 67.2386 36.6263 67.3947 36.5198C67.55 36.4142 67.7443 36.361 67.9759 36.361C68.1117 36.361 68.243 36.3787 68.3699 36.4151C68.4968 36.4515 68.6095 36.5012 68.7098 36.5642L68.5917 36.7949C68.5021 36.7381 68.401 36.6937 68.29 36.6618Z" fill="#1D1B1B"/>
</g>
</svg>
