<svg width="105" height="43" viewBox="0 0 105 43" fill="none" xmlns="http://www.w3.org/2000/svg">
<g opacity="0.8">
<path d="M19.7858 11.5377L19.1593 6.37701C18.4645 6.45776 17.5178 6.65918 16.8301 6.87303L18.3589 11.8394C18.8195 11.7001 19.2995 11.5989 19.7858 11.5377Z" fill="#1D1B1B"/>
<path d="M8.1792 14.6656C7.90147 15.308 7.60244 16.2291 7.4436 16.9309L12.5094 18.0898C12.6194 17.6151 12.7711 17.1483 12.9592 16.7029L8.1792 14.6656Z" fill="#1D1B1B"/>
<path d="M11.4608 30.0891L14.9986 26.2798C14.6401 25.9444 14.3118 25.5815 14.0217 25.1982L9.86719 28.3189C10.2825 28.8797 10.9311 29.5985 11.4608 30.0891Z" fill="#1D1B1B"/>
<path d="M21.9083 28.523L22.5348 33.6837C23.2296 33.603 24.1763 33.4015 24.864 33.1877L23.3352 28.2213C22.8746 28.3615 22.3955 28.4627 21.9083 28.523Z" fill="#1D1B1B"/>
<path d="M33.515 25.3961C33.7928 24.7536 34.0918 23.8326 34.2506 23.1307L29.1849 21.9719C29.0739 22.4475 28.9231 22.9133 28.735 23.3588L33.515 25.3961Z" fill="#1D1B1B"/>
<path d="M30.2335 9.97339L26.6957 13.7827C27.0542 14.1172 27.3825 14.481 27.6735 14.8644L31.828 11.7436C31.4101 11.181 30.7614 10.4614 30.2335 9.97339Z" fill="#1D1B1B"/>
<path d="M14.0211 14.867C14.3175 14.4757 14.6449 14.111 14.9954 13.7827L13.5704 12.2503L10.825 9.33362C10.2127 9.90683 9.64838 10.5351 9.14526 11.1997L10.116 11.9379L14.0211 14.867Z" fill="#1D1B1B"/>
<path d="M7.34529 25.7501L8.4935 25.2683L12.9594 23.3623C12.7731 22.9213 12.6231 22.4545 12.5113 21.9745L10.4687 22.443L6.56799 23.3623C6.75699 24.1751 7.01787 24.9781 7.34529 25.7501Z" fill="#1D1B1B"/>
<path d="M18.3617 28.2249L17.73 30.2808L16.5924 34.0635C17.391 34.3057 18.2171 34.4796 19.0494 34.5808L19.2109 33.3146L19.7895 28.5257C19.2997 28.4644 18.8196 28.3633 18.3617 28.2249Z" fill="#1D1B1B"/>
<path d="M27.674 25.1946C27.3785 25.5851 27.0511 25.9498 26.6997 26.279L28.1523 27.8415L30.8702 30.7289C31.4815 30.1557 32.0468 29.5284 32.5499 28.8629L31.5552 28.1069L27.674 25.1946Z" fill="#1D1B1B"/>
<path d="M34.3491 14.3115L33.2018 14.7925L28.735 16.6993C28.9213 17.1412 29.0722 17.6071 29.1831 18.0871L31.2878 17.6044L35.1273 16.6993C34.9383 15.8856 34.6765 15.0826 34.3491 14.3115Z" fill="#1D1B1B"/>
<path d="M23.3325 11.8368L23.9554 9.81101L25.1018 5.99815C24.3032 5.75679 23.4771 5.58199 22.6448 5.48083L22.4913 6.68849L21.9056 11.5369C22.3937 11.5963 22.8737 11.6975 23.3325 11.8368Z" fill="#1D1B1B"/>
<path d="M14.0211 14.867C14.3175 14.4757 14.6449 14.111 14.9954 13.7827L13.5704 12.2503L10.825 9.33362C10.2127 9.90683 9.64838 10.5351 9.14526 11.1997L10.116 11.9379L14.0211 14.867Z" fill="#1D1B1B"/>
<path d="M7.34529 25.7501L8.4935 25.2683L12.9594 23.3623C12.7731 22.9213 12.6231 22.4545 12.5113 21.9745L10.4687 22.443L6.56799 23.3623C6.75699 24.1751 7.01787 24.9781 7.34529 25.7501Z" fill="#1D1B1B"/>
<path d="M18.3617 28.2249L17.73 30.2808L16.5924 34.0635C17.391 34.3057 18.2171 34.4796 19.0494 34.5808L19.2109 33.3146L19.7895 28.5257C19.2997 28.4644 18.8196 28.3633 18.3617 28.2249Z" fill="#1D1B1B"/>
<path d="M27.674 25.1946C27.3785 25.5851 27.0511 25.9498 26.6997 26.279L28.1523 27.8415L30.8702 30.7289C31.4815 30.1557 32.0468 29.5284 32.5499 28.8629L31.5552 28.1069L27.674 25.1946Z" fill="#1D1B1B"/>
<path d="M34.3491 14.3115L33.2018 14.7925L28.735 16.6993C28.9213 17.1412 29.0722 17.6071 29.1831 18.0871L31.2878 17.6044L35.1273 16.6993C34.9383 15.8856 34.6765 15.0826 34.3491 14.3115Z" fill="#1D1B1B"/>
<path d="M23.3325 11.8368L23.9554 9.81101L25.1018 5.99815C24.3032 5.75679 23.4771 5.58199 22.6448 5.48083L22.4913 6.68849L21.9056 11.5369C22.3937 11.5963 22.8737 11.6975 23.3325 11.8368Z" fill="#1D1B1B"/>
<path d="M15.6117 4.84906C14.7332 5.15164 13.8752 5.53319 13.0624 5.98396L15.8025 10.9042C16.3215 10.6158 16.8681 10.37 17.4369 10.173L15.6117 4.84906Z" fill="#1D1B1B"/>
<path d="M5.08046 16.9735C4.90477 17.8821 4.80805 18.8156 4.79297 19.75L10.4435 19.8369C10.4541 19.2309 10.5154 18.6373 10.6254 18.0596L5.08046 16.9735Z" fill="#1D1B1B"/>
<path d="M10.3197 32.1531C11.0242 32.7644 11.7829 33.3163 12.5762 33.7946L15.4804 28.94C14.9684 28.6312 14.4857 28.2799 14.0367 27.8903L10.3197 32.1531Z" fill="#1D1B1B"/>
<path d="M26.0834 35.2126C26.9618 34.91 27.819 34.5285 28.6327 34.0777L25.8793 29.1335C25.3611 29.4201 24.8163 29.6641 24.2493 29.8611L26.0834 35.2126Z" fill="#1D1B1B"/>
<path d="M36.615 23.0881C36.7907 22.1795 36.8874 21.246 36.9025 20.3116L31.2511 20.2247C31.2395 20.8307 31.1756 21.4243 31.0638 22.0011L36.615 23.0881Z" fill="#1D1B1B"/>
<path d="M31.375 7.90853C30.6705 7.29716 29.9118 6.74524 29.1185 6.26697L26.2285 11.0994C26.7405 11.4099 27.2241 11.7631 27.674 12.1544L31.375 7.90853Z" fill="#1D1B1B"/>
<path d="M12.5695 6.26874C11.7726 6.74878 11.014 7.3007 10.313 7.91119L14.0185 12.1562C14.4675 11.7649 14.9511 11.4108 15.4631 11.1003L12.5695 6.26874Z" fill="#1D1B1B"/>
<path d="M4.79431 20.3188C4.80318 20.7899 4.83158 21.2575 4.87949 21.7092C4.92741 22.1626 4.99662 22.6276 5.08713 23.0934L10.6329 22.0038C10.5211 21.427 10.4573 20.8343 10.4448 20.2274L4.79431 20.3188Z" fill="#1D1B1B"/>
<path d="M13.0691 34.0786C13.881 34.5293 14.7382 34.9118 15.6184 35.2152L17.4498 29.862C16.8828 29.6659 16.3371 29.4219 15.8189 29.1353L13.0691 34.0786Z" fill="#1D1B1B"/>
<path d="M29.1257 33.792C29.9225 33.3119 30.6812 32.7591 31.3822 32.1495L27.6616 27.8868C27.2126 28.2763 26.7299 28.6277 26.2179 28.9374L29.1257 33.792Z" fill="#1D1B1B"/>
<path d="M36.9012 19.7429C36.8923 19.2717 36.8639 18.8041 36.816 18.3524C36.7681 17.899 36.6989 17.434 36.6084 16.9682L31.0679 18.057C31.1779 18.6337 31.24 19.2273 31.2498 19.8343L36.9012 19.7429Z" fill="#1D1B1B"/>
<path d="M25.9326 10.8243L28.6256 5.98304C27.8128 5.53228 26.9557 5.14984 26.0763 4.84637L24.2546 10.1721C24.8234 10.3691 25.3691 10.614 25.8882 10.9024L25.9326 10.8243Z" fill="#1D1B1B"/>
<path d="M7.68975 10.8279C7.15646 11.5892 6.68707 12.402 6.29309 13.2432L11.4112 15.6177C11.6641 15.0738 11.9631 14.5556 12.303 14.0684L7.68975 10.8279Z" fill="#1D1B1B"/>
<path d="M6.29443 26.8255C6.68575 27.6641 7.15603 28.4769 7.69198 29.2409L12.3203 25.9861C11.9796 25.4999 11.6796 24.9834 11.425 24.4413L6.29443 26.8255Z" fill="#1D1B1B"/>
<path d="M34.0039 29.2338C34.5372 28.4724 35.0066 27.6596 35.4006 26.8176L30.27 24.4377C30.0154 24.9799 29.7155 25.4963 29.3756 25.9826L34.0039 29.2338Z" fill="#1D1B1B"/>
<path d="M35.3992 13.2361C35.0079 12.3967 34.5376 11.5848 34.0017 10.8208L29.3876 14.0649C29.7274 14.5529 30.0264 15.0702 30.2802 15.6142L35.3992 13.2361Z" fill="#1D1B1B"/>
<path d="M21.7406 9.63883L22.2393 4.03268C21.7858 3.99364 21.3253 3.97412 20.8692 3.97412C20.3981 3.97412 19.9207 3.99542 19.4486 4.03623L19.95 9.63883C20.2454 9.61399 20.5445 9.59979 20.847 9.59979C21.1487 9.60068 21.4469 9.61399 21.7406 9.63883Z" fill="#1D1B1B"/>
<path d="M19.957 30.3917L19.4565 36.0271C19.9286 36.0679 20.3989 36.0884 20.8559 36.0884C21.3102 36.0884 21.7787 36.0679 22.2481 36.0271L21.7423 30.3908C21.4477 30.4157 21.1496 30.4299 20.8479 30.4299C20.548 30.4299 20.2507 30.4165 19.957 30.3917Z" fill="#1D1B1B"/>
<path d="M54.4052 19.5977C55.7397 19.9908 56.8986 21.0893 56.8986 22.9146C56.8986 25.0353 55.3866 26.92 51.9712 26.92H46.0625V13.1788H51.9908C54.4637 13.1788 56.171 14.8478 56.171 16.752C56.171 18.2827 55.1505 19.2446 54.4043 19.5196V19.5977H54.4052ZM51.3625 18.6154C52.2649 18.6154 52.8541 18.0653 52.8541 17.2614C52.8541 16.4956 52.2853 15.9064 51.343 15.9064H49.3598V18.6154H51.3625ZM51.6766 24.1905C52.8151 24.1905 53.4238 23.5428 53.4238 22.62C53.4238 21.6386 52.7556 21.0494 51.6766 21.0494H49.3598V24.1905H51.6766Z" fill="#1D1B1B"/>
<path d="M65.2188 26.9169H61.9206V21.4998L56.7971 13.1766H60.6055L62.7254 16.9061C63.2161 17.7703 63.6287 18.5157 63.6482 18.5352H63.7068C63.7272 18.5157 64.1389 17.7499 64.6296 16.9061L66.8275 13.1766H70.3413L65.2179 21.4998L65.2188 26.9169Z" fill="#1D1B1B"/>
<path d="M82.2136 23.5611C82.2136 20.3028 82.2526 18.6932 82.2526 18.6737H82.2136C82.1949 18.6932 81.5259 19.9301 80.8595 21.1067L79.5241 23.5212H77.6793L76.3448 21.1467C75.658 19.9292 75.0093 18.6923 74.9907 18.6728H74.9312C74.9312 18.6923 74.9703 20.3019 74.9703 23.5602V26.9161H71.673V13.1776H75.1664L78.6217 19.3214H78.6802L82.1541 13.1776H85.5109V26.917H82.2136V23.5611Z" fill="#1D1B1B"/>
<path d="M91.1615 24.6409L90.3372 26.9169H86.8624L92.1633 13.1766H95.9114L101.232 26.9169H97.6985L96.8733 24.6409H91.1615ZM94.812 18.9088C94.3808 17.7703 94.0658 16.907 94.0463 16.8866H93.9868C93.9673 16.907 93.6532 17.7508 93.221 18.8893L92.2397 21.6373H95.7916L94.812 18.9088Z" fill="#1D1B1B"/>
<path d="M48.1522 30.8132C48.3314 30.9534 48.422 31.1477 48.422 31.3953C48.422 31.5825 48.3696 31.7396 48.2658 31.8665C48.162 31.9934 48.0164 32.0768 47.8292 32.1158C48.0617 32.146 48.2427 32.232 48.3723 32.374C48.5018 32.516 48.5666 32.6952 48.5666 32.9126C48.5666 33.1841 48.4654 33.3953 48.2631 33.5462C48.0608 33.697 47.7804 33.7724 47.421 33.7724H46.0812V30.6038H47.4077C47.7245 30.602 47.973 30.6721 48.1522 30.8132ZM47.9144 31.854C48.0377 31.7564 48.0999 31.6162 48.0999 31.4352C48.0999 31.2604 48.0377 31.1247 47.9144 31.0279C47.7902 30.9312 47.6171 30.8851 47.3935 30.8877H46.3935V32.0013H47.3935C47.6171 32.0013 47.7911 31.9516 47.9144 31.854ZM48.0253 33.3297C48.1744 33.2223 48.2498 33.0723 48.2498 32.8789C48.2498 32.689 48.1744 32.5408 48.0235 32.4352C47.8727 32.3296 47.6633 32.2773 47.3944 32.2773H46.3944V33.4903H47.3944C47.6659 33.4903 47.8762 33.437 48.0253 33.3297Z" fill="#1D1B1B"/>
<path d="M50.8485 31.5417C51.0295 31.6428 51.1714 31.7839 51.2744 31.9649C51.3773 32.146 51.4279 32.3509 51.4279 32.5808C51.4279 32.8132 51.3764 33.0209 51.2744 33.2028C51.1714 33.3856 51.0304 33.5275 50.8485 33.6287C50.6666 33.7298 50.4625 33.7804 50.2326 33.7804C50.0037 33.7804 49.7979 33.7298 49.6168 33.6287C49.4358 33.5275 49.2939 33.3856 49.1909 33.2028C49.088 33.02 49.0374 32.8132 49.0374 32.5808C49.0374 32.3518 49.0889 32.146 49.1909 31.9649C49.2939 31.7839 49.4349 31.6428 49.6168 31.5417C49.7979 31.4405 50.0028 31.39 50.2326 31.39C50.4625 31.39 50.6674 31.4405 50.8485 31.5417ZM49.7712 31.7706C49.6355 31.8487 49.5299 31.9596 49.4545 32.1007C49.379 32.2427 49.3409 32.4042 49.3409 32.5852C49.3409 32.7698 49.379 32.9321 49.4545 33.0741C49.5299 33.2161 49.6355 33.3261 49.7712 33.4042C49.907 33.4823 50.0614 33.5222 50.2326 33.5222C50.4048 33.5222 50.5583 33.4832 50.6941 33.4042C50.8298 33.3261 50.9354 33.2152 51.0108 33.0741C51.0863 32.9321 51.1244 32.7698 51.1244 32.5852C51.1244 32.4042 51.0863 32.2427 51.0108 32.1007C50.9354 31.9587 50.8298 31.8487 50.6941 31.7706C50.5583 31.6925 50.4048 31.6526 50.2326 31.6526C50.0614 31.6526 49.907 31.6916 49.7712 31.7706Z" fill="#1D1B1B"/>
<path d="M52.0924 30.4121H52.3959V33.7707H52.0924V30.4121Z" fill="#1D1B1B"/>
<path d="M54.2302 31.6864C54.1184 31.6544 54.0083 31.6384 53.9001 31.6384C53.7492 31.6384 53.6277 31.6677 53.5354 31.7263C53.4431 31.7849 53.397 31.8736 53.397 31.9916C53.397 32.0732 53.4218 32.1398 53.4715 32.1904C53.5212 32.2418 53.5833 32.2835 53.657 32.3146C53.7306 32.3465 53.8344 32.382 53.9666 32.4211C54.1299 32.469 54.2621 32.5169 54.365 32.5639C54.468 32.611 54.5549 32.6784 54.6277 32.768C54.7005 32.8568 54.7359 32.9739 54.7359 33.1185C54.7359 33.3324 54.6543 33.4965 54.4919 33.6101C54.3287 33.7237 54.1255 33.7796 53.8806 33.7796C53.7084 33.7796 53.5425 33.7512 53.3828 33.6935C53.223 33.6367 53.0882 33.5551 52.9799 33.4495L53.1024 33.2321C53.2053 33.3261 53.3269 33.3998 53.4671 33.4539C53.6073 33.5081 53.7501 33.5356 53.8948 33.5356C54.0545 33.5356 54.1849 33.5027 54.2861 33.4362C54.3872 33.3696 54.4378 33.2729 54.4378 33.1469C54.4378 33.0591 54.4121 32.9881 54.3606 32.9322C54.3091 32.8763 54.2453 32.8328 54.1681 32.8008C54.0909 32.7689 53.9844 32.7325 53.8486 32.6899C53.6889 32.642 53.5593 32.595 53.4591 32.5497C53.3597 32.5045 53.2754 32.4388 53.2053 32.3527C53.1361 32.2667 53.1015 32.154 53.1015 32.0156C53.1015 31.807 53.1787 31.6509 53.3349 31.5444C53.4901 31.4388 53.6845 31.3856 53.9161 31.3856C54.0518 31.3856 54.1831 31.4033 54.31 31.4397C54.4369 31.4761 54.5496 31.5258 54.6499 31.5888L54.5319 31.8195C54.4431 31.7627 54.342 31.7183 54.2302 31.6864Z" fill="#1D1B1B"/>
<path d="M56.8275 33.7706L56.823 33.3722C56.729 33.5106 56.6074 33.6145 56.4566 33.6819C56.3057 33.7493 56.1318 33.7839 55.9357 33.7839C55.776 33.7839 55.6349 33.7529 55.5124 33.6908C55.39 33.6287 55.2959 33.5435 55.2294 33.4352C55.1628 33.327 55.13 33.2045 55.13 33.0688C55.13 32.8638 55.209 32.7023 55.3678 32.5843C55.5258 32.4663 55.744 32.4077 56.0218 32.4077H56.8186V32.2267C56.8186 32.0395 56.7627 31.8948 56.6509 31.7919C56.5391 31.689 56.3767 31.6384 56.162 31.6384C55.9082 31.6384 55.6535 31.7333 55.3971 31.9232L55.2613 31.7147C55.421 31.6029 55.5737 31.5213 55.7183 31.468C55.8629 31.4157 56.0289 31.389 56.2161 31.389C56.5027 31.389 56.7245 31.4609 56.8816 31.6038C57.0387 31.7475 57.1185 31.9454 57.1212 32.1992L57.1256 33.7697L56.8275 33.7706ZM56.5267 33.3838C56.6731 33.2862 56.7716 33.1477 56.823 32.9694V32.6437H56.0582C55.8496 32.6437 55.6917 32.6783 55.5825 32.7475C55.4743 32.8168 55.4193 32.9215 55.4193 33.0599C55.4193 33.2019 55.4716 33.3154 55.5754 33.4015C55.6793 33.4876 55.8177 33.5302 55.9898 33.5302C56.2019 33.5311 56.3803 33.4823 56.5267 33.3838Z" fill="#1D1B1B"/>
<path d="M58.86 31.6864C58.7482 31.6544 58.6382 31.6384 58.5299 31.6384C58.3791 31.6384 58.2575 31.6677 58.1652 31.7263C58.0729 31.7849 58.0268 31.8736 58.0268 31.9916C58.0268 32.0732 58.0516 32.1398 58.1013 32.1904C58.151 32.2418 58.2131 32.2835 58.2868 32.3146C58.3604 32.3465 58.4642 32.382 58.5965 32.4211C58.7597 32.469 58.8919 32.5169 58.9949 32.5639C59.0978 32.611 59.1848 32.6784 59.2575 32.768C59.3303 32.8568 59.3658 32.9739 59.3658 33.1185C59.3658 33.3324 59.2841 33.4965 59.1218 33.6101C58.9585 33.7237 58.7553 33.7796 58.5104 33.7796C58.3382 33.7796 58.1723 33.7512 58.0126 33.6935C57.8529 33.6367 57.718 33.5551 57.6097 33.4495L57.7322 33.2321C57.8351 33.3261 57.9567 33.3998 58.0969 33.4539C58.2371 33.5081 58.3799 33.5356 58.5246 33.5356C58.6843 33.5356 58.8147 33.5027 58.9159 33.4362C59.017 33.3696 59.0676 33.2729 59.0676 33.1469C59.0676 33.0591 59.0419 32.9881 58.9904 32.9322C58.939 32.8763 58.8751 32.8328 58.7979 32.8008C58.7207 32.7689 58.6142 32.7325 58.4784 32.6899C58.3187 32.642 58.1892 32.595 58.0889 32.5497C57.9895 32.5045 57.9052 32.4388 57.8351 32.3527C57.7659 32.2667 57.7313 32.154 57.7313 32.0156C57.7313 31.807 57.8085 31.6509 57.9647 31.5444C58.12 31.4388 58.3143 31.3856 58.5459 31.3856C58.6816 31.3856 58.813 31.4033 58.9398 31.4397C59.0667 31.4761 59.1794 31.5258 59.2797 31.5888L59.1617 31.8195C59.0729 31.7627 58.9718 31.7183 58.86 31.6864Z" fill="#1D1B1B"/>
<path d="M61.633 34.5222C61.5141 34.6154 61.3774 34.6624 61.2231 34.6624C61.0385 34.6624 60.8761 34.6083 60.7341 34.4991L60.8699 34.264C60.9755 34.3368 61.0891 34.3731 61.2097 34.3731C61.3065 34.3731 61.3934 34.3412 61.4724 34.2782C61.5505 34.2152 61.6153 34.1229 61.6667 34.0022L61.7661 33.7573L60.7838 31.3988H61.105L61.9196 33.4361L62.7031 31.3988H63.0155L61.9205 34.1105C61.8477 34.2915 61.7519 34.429 61.633 34.5222Z" fill="#1D1B1B"/>
<path d="M64.7496 30.602H65.1391L66.3796 32.9783L67.6059 30.602H67.9955V33.7706H67.7062L67.7009 31.0368L66.4604 33.4317H66.2882L65.0433 31.0368V33.7706H64.7487L64.7496 30.602Z" fill="#1D1B1B"/>
<path d="M70.7024 31.7404C70.8958 31.9747 70.9846 32.2888 70.9695 32.6846H68.9916C69.0129 32.9383 69.1061 33.1424 69.272 33.2977C69.4379 33.453 69.6429 33.5311 69.8878 33.5311C70.0387 33.5311 70.1789 33.5036 70.3084 33.4494C70.438 33.3953 70.5498 33.3181 70.6429 33.2187L70.8151 33.3909C70.7006 33.5142 70.5622 33.6101 70.4007 33.6784C70.2392 33.7467 70.0617 33.7804 69.8692 33.7804C69.6402 33.7804 69.4362 33.7298 69.2578 33.6287C69.0795 33.5275 68.9401 33.3864 68.839 33.2054C68.7378 33.0244 68.6873 32.8177 68.6873 32.5852C68.6873 32.3563 68.7378 32.1495 68.839 31.9676C68.9401 31.7848 69.0795 31.6428 69.2578 31.5417C69.4362 31.4405 69.6367 31.39 69.8603 31.39C70.2285 31.39 70.5098 31.5071 70.7024 31.7404ZM70.6979 32.4494C70.6829 32.2019 70.6003 32.0049 70.4513 31.8585C70.3022 31.7121 70.1061 31.6393 69.8647 31.6393C69.626 31.6393 69.4273 31.7129 69.2676 31.8611C69.1078 32.0093 69.0156 32.2054 68.9916 32.4494H70.6979Z" fill="#1D1B1B"/>
<path d="M72.2427 31.5373C72.3891 31.4423 72.5648 31.3935 72.7698 31.39V31.6748C72.5196 31.6721 72.3181 31.7449 72.1655 31.894C72.0129 32.043 71.9259 32.2462 71.9055 32.5027V33.7698H71.6021V31.3979H71.9055V31.9499C71.9845 31.7706 72.0972 31.6322 72.2427 31.5373Z" fill="#1D1B1B"/>
<path d="M74.2023 31.657C74.0328 31.657 73.8811 31.6961 73.7453 31.7751C73.6095 31.8531 73.5039 31.9632 73.4285 32.1034C73.3531 32.2436 73.3149 32.4042 73.3149 32.5852C73.3149 32.7662 73.3531 32.9277 73.4285 33.0697C73.5039 33.2116 73.6095 33.3217 73.7453 33.3998C73.8811 33.4778 74.0337 33.5178 74.2023 33.5178C74.3558 33.5178 74.4969 33.4903 74.6255 33.4361C74.7542 33.382 74.8616 33.303 74.9494 33.201L75.1216 33.382C75.016 33.5089 74.8829 33.6065 74.7231 33.6766C74.5634 33.7458 74.3851 33.7804 74.189 33.7804C73.9627 33.7804 73.7604 33.7298 73.582 33.6287C73.4037 33.5275 73.2644 33.3856 73.1632 33.2028C73.0621 33.02 73.0115 32.8141 73.0115 32.5852C73.0115 32.3563 73.0621 32.1495 73.1632 31.9676C73.2644 31.7848 73.4037 31.6428 73.582 31.5417C73.7604 31.4405 73.9627 31.39 74.189 31.39C74.3726 31.39 74.5412 31.4201 74.6939 31.4805C74.8465 31.5408 74.9769 31.6251 75.0852 31.7342L74.913 31.9383C74.7196 31.7511 74.4827 31.657 74.2023 31.657Z" fill="#1D1B1B"/>
<path d="M77.1486 33.7706L77.1442 33.3722C77.0501 33.5106 76.9286 33.6145 76.7777 33.6819C76.6269 33.7493 76.453 33.7839 76.2569 33.7839C76.0972 33.7839 75.9561 33.7529 75.8336 33.6908C75.7112 33.6287 75.6171 33.5435 75.5506 33.4352C75.484 33.327 75.4512 33.2045 75.4512 33.0688C75.4512 32.8638 75.5301 32.7023 75.689 32.5843C75.8469 32.4663 76.0652 32.4077 76.3429 32.4077H77.1398V32.2267C77.1398 32.0395 77.0839 31.8948 76.9721 31.7919C76.8603 31.689 76.6979 31.6384 76.4831 31.6384C76.2294 31.6384 75.9747 31.7333 75.7183 31.9232L75.5825 31.7147C75.7422 31.6029 75.8948 31.5213 76.0395 31.468C76.1841 31.4157 76.35 31.389 76.5373 31.389C76.8239 31.389 77.0457 31.4609 77.2028 31.6038C77.3598 31.7475 77.4397 31.9454 77.4423 32.1992L77.4468 33.7697L77.1486 33.7706ZM76.8478 33.3838C76.9942 33.2862 77.0927 33.1477 77.1442 32.9694V32.6437H76.3793C76.1708 32.6437 76.0129 32.6783 75.9037 32.7475C75.7955 32.8168 75.7404 32.9215 75.7404 33.0599C75.7404 33.2019 75.7928 33.3154 75.8966 33.4015C76.0004 33.4876 76.1389 33.5302 76.311 33.5302C76.5222 33.5311 76.7014 33.4823 76.8478 33.3838Z" fill="#1D1B1B"/>
<path d="M80.4161 30.4121V33.7707H80.1126V33.2276C80.0221 33.406 79.8952 33.5435 79.732 33.642C79.5687 33.7405 79.3788 33.7893 79.1614 33.7893C78.9378 33.7893 78.7391 33.7378 78.5642 33.6358C78.3894 33.5328 78.2537 33.39 78.157 33.2054C78.0602 33.0217 78.0123 32.8132 78.0123 32.5807C78.0123 32.3483 78.0611 32.1415 78.1596 31.9605C78.2572 31.7795 78.3939 31.6375 78.5669 31.5355C78.7399 31.4325 78.9369 31.3811 79.1579 31.3811C79.3753 31.3811 79.566 31.4308 79.7302 31.5301C79.8944 31.6295 80.0221 31.7688 80.1126 31.9463V30.4121H80.4161ZM79.6787 33.4068C79.8145 33.327 79.921 33.2161 79.9982 33.0741C80.0754 32.9321 80.1135 32.7706 80.1135 32.5896C80.1135 32.4086 80.0754 32.2462 79.9982 32.1034C79.921 31.9605 79.8145 31.8478 79.6787 31.7662C79.543 31.6845 79.3895 31.6437 79.2173 31.6437C79.0452 31.6437 78.8917 31.6845 78.7559 31.7662C78.6202 31.8478 78.5128 31.9605 78.4347 32.1034C78.3566 32.2471 78.3167 32.4086 78.3167 32.5896C78.3167 32.7706 78.3548 32.9321 78.432 33.0741C78.5092 33.2161 78.6157 33.327 78.7532 33.4068C78.8908 33.4867 79.0452 33.5266 79.2173 33.5266C79.3886 33.5266 79.543 33.4867 79.6787 33.4068Z" fill="#1D1B1B"/>
<path d="M82.8935 31.5417C83.0745 31.6428 83.2165 31.7839 83.3185 31.9649C83.4214 32.146 83.4729 32.3509 83.4729 32.5808C83.4729 32.8132 83.4214 33.0209 83.3185 33.2028C83.2156 33.3856 83.0745 33.5275 82.8935 33.6287C82.7125 33.7298 82.5075 33.7804 82.2777 33.7804C82.0478 33.7804 81.8429 33.7298 81.6619 33.6287C81.4808 33.5275 81.3389 33.3856 81.2368 33.2028C81.1339 33.02 81.0833 32.8132 81.0833 32.5808C81.0833 32.3518 81.1348 32.146 81.2368 31.9649C81.3398 31.7839 81.4808 31.6428 81.6619 31.5417C81.8429 31.4405 82.0478 31.39 82.2777 31.39C82.5075 31.39 82.7125 31.4405 82.8935 31.5417ZM81.8163 31.7706C81.6805 31.8487 81.5749 31.9596 81.4995 32.1007C81.424 32.2427 81.3859 32.4042 81.3859 32.5852C81.3859 32.7698 81.424 32.9321 81.4995 33.0741C81.5749 33.2161 81.6805 33.3261 81.8163 33.4042C81.952 33.4823 82.1055 33.5222 82.2777 33.5222C82.4498 33.5222 82.6033 33.4832 82.7391 33.4042C82.8748 33.3261 82.9804 33.2152 83.0558 33.0741C83.1313 32.9321 83.1694 32.7698 83.1694 32.5852C83.1694 32.4042 83.1313 32.2427 83.0558 32.1007C82.9804 31.9587 82.8748 31.8487 82.7391 31.7706C82.6033 31.6925 82.4498 31.6526 82.2777 31.6526C82.1055 31.6526 81.952 31.6916 81.8163 31.7706Z" fill="#1D1B1B"/>
<path d="M85.0389 31.6863C84.9271 31.6544 84.8171 31.6384 84.7088 31.6384C84.558 31.6384 84.4364 31.6677 84.3441 31.7263C84.2518 31.7857 84.2057 31.8744 84.2057 31.9925C84.2057 32.0741 84.2305 32.1406 84.2802 32.1912C84.3299 32.2427 84.392 32.2844 84.4657 32.3154C84.5393 32.3474 84.6431 32.3829 84.7753 32.4219C84.9386 32.4698 85.0708 32.5178 85.1738 32.5648C85.2767 32.6118 85.3636 32.6793 85.4364 32.7689C85.5092 32.8576 85.5447 32.9747 85.5447 33.1194C85.5447 33.3332 85.463 33.4974 85.3006 33.611C85.1374 33.7245 84.9342 33.7804 84.6893 33.7804C84.5171 33.7804 84.3512 33.752 84.1915 33.6944C84.0318 33.6376 83.8969 33.5559 83.7886 33.4503L83.9111 33.2329C84.014 33.327 84.1356 33.4007 84.2758 33.4548C84.416 33.5089 84.5588 33.5364 84.7035 33.5364C84.8632 33.5364 84.9936 33.5036 85.0948 33.437C85.1959 33.3705 85.2465 33.2738 85.2465 33.1478C85.2465 33.0599 85.2208 32.9889 85.1693 32.933C85.1179 32.8771 85.054 32.8337 84.9768 32.8017C84.8996 32.7698 84.7931 32.7334 84.6573 32.6908C84.4976 32.6429 84.3681 32.5958 84.2678 32.5506C84.1684 32.5053 84.0841 32.4397 84.014 32.3536C83.9448 32.2675 83.9102 32.1548 83.9102 32.0164C83.9102 31.8079 83.9874 31.6517 84.1436 31.5452C84.2989 31.4397 84.4932 31.3864 84.7248 31.3864C84.8605 31.3864 84.9919 31.4042 85.1187 31.4405C85.2456 31.4769 85.3583 31.5266 85.4586 31.5896L85.3406 31.8203C85.2518 31.7626 85.1507 31.7183 85.0389 31.6863Z" fill="#1D1B1B"/>
<path d="M48.4438 38.966L48.0684 38.1239H46.3124L45.9415 38.966H45.6061L47.032 35.8018H47.3577L48.7836 38.966H48.4438ZM46.434 37.8426H47.946L47.1855 36.1318L46.434 37.8426Z" fill="#1D1B1B"/>
<path d="M49.8903 36.7317C50.0367 36.6368 50.2124 36.588 50.4174 36.5844V36.8692C50.1671 36.8666 49.9657 36.9393 49.8131 37.0884C49.6605 37.2375 49.5735 37.4407 49.5531 37.6971V38.9642H49.2496V36.5924H49.5531V37.1443C49.6321 36.9651 49.7439 36.8267 49.8903 36.7317Z" fill="#1D1B1B"/>
<path d="M52.9572 36.5933V38.7167C52.9572 38.9456 52.9093 39.147 52.8126 39.3192C52.7159 39.4913 52.5774 39.6235 52.3982 39.7149C52.2189 39.8072 52.0113 39.8533 51.7753 39.8533C51.4248 39.8533 51.1009 39.7327 50.8019 39.4913L50.9465 39.2739C51.0672 39.3795 51.1941 39.4594 51.3272 39.5135C51.4603 39.5676 51.6049 39.5951 51.762 39.5951C52.0335 39.5951 52.25 39.5162 52.4115 39.3573C52.573 39.1985 52.6537 38.9864 52.6537 38.7211V38.336C52.5694 38.5019 52.4488 38.6315 52.2917 38.7255C52.1346 38.8196 51.9536 38.8657 51.7487 38.8657C51.5375 38.8657 51.3494 38.8169 51.1852 38.7184C51.0211 38.6208 50.8924 38.4842 50.8001 38.3112C50.7078 38.1381 50.6617 37.9411 50.6617 37.7202C50.6617 37.5001 50.7078 37.304 50.8001 37.1319C50.8924 36.9598 51.021 36.8258 51.187 36.729C51.3529 36.6323 51.5419 36.5844 51.7531 36.5844C51.9581 36.5844 52.1382 36.6306 52.2917 36.7228C52.4452 36.8151 52.5659 36.9456 52.6537 37.1141V36.5933H52.9572ZM52.242 38.5064C52.3716 38.4292 52.4727 38.3227 52.5455 38.1869C52.6182 38.0512 52.6537 37.8985 52.6537 37.73C52.6537 37.5578 52.6174 37.4043 52.5455 37.2685C52.4727 37.1328 52.3716 37.0263 52.242 36.9491C52.1125 36.8719 51.9661 36.8338 51.8028 36.8338C51.6395 36.8338 51.4931 36.8719 51.3636 36.9491C51.234 37.0263 51.132 37.1328 51.0583 37.2685C50.9847 37.4043 50.9474 37.5578 50.9474 37.73C50.9474 37.9021 50.9847 38.0556 51.0583 38.1896C51.132 38.3236 51.2331 38.4292 51.3618 38.5064C51.4904 38.5836 51.6369 38.6217 51.8028 38.6217C51.9661 38.6217 52.1125 38.5827 52.242 38.5064Z" fill="#1D1B1B"/>
<path d="M55.5467 36.9349C55.7401 37.1692 55.8289 37.4833 55.8138 37.879H53.8359C53.8572 38.1328 53.9504 38.3369 54.1163 38.4922C54.2823 38.6475 54.4872 38.7255 54.7321 38.7255C54.883 38.7255 55.0232 38.698 55.1536 38.6439C55.2832 38.5898 55.395 38.5126 55.4881 38.4132L55.6603 38.5853C55.5458 38.7087 55.4074 38.8045 55.2459 38.8728C55.0844 38.9412 54.9069 38.9749 54.7144 38.9749C54.4846 38.9749 54.2814 38.9243 54.103 38.8231C53.9247 38.722 53.7854 38.5809 53.6842 38.3999C53.583 38.2189 53.5325 38.0121 53.5325 37.7796C53.5325 37.5507 53.583 37.344 53.6842 37.1621C53.7854 36.9793 53.9247 36.8373 54.103 36.7361C54.2814 36.635 54.4819 36.5844 54.7055 36.5844C55.0729 36.5844 55.3533 36.7015 55.5467 36.9349ZM55.5414 37.6439C55.5263 37.3963 55.4438 37.1993 55.2947 37.0529C55.1456 36.9065 54.9495 36.8338 54.7082 36.8338C54.4695 36.8338 54.2707 36.9074 54.111 37.0556C53.9513 37.2038 53.859 37.3999 53.835 37.6439H55.5414Z" fill="#1D1B1B"/>
<path d="M58.356 36.8311C58.5175 36.9952 58.5982 37.2215 58.5982 37.5081V38.966H58.2903V37.58C58.2903 37.3564 58.2282 37.1816 58.1049 37.0547C57.9806 36.9278 57.8094 36.8648 57.5884 36.8648C57.3444 36.8675 57.1483 36.9429 57.0019 37.0911C56.8555 37.2393 56.7721 37.438 56.7508 37.6883V38.9651H56.4473V36.5933H56.7508V37.1452C56.8324 36.9615 56.9522 36.8222 57.1111 36.729C57.269 36.6359 57.4615 36.5871 57.6878 36.5844C57.9718 36.5844 58.1945 36.6669 58.356 36.8311Z" fill="#1D1B1B"/>
<path d="M60.6038 38.8027C60.4406 38.9145 60.2657 38.9731 60.0785 38.9793C59.8975 38.9793 59.7538 38.9234 59.6482 38.8116C59.5426 38.6998 59.4902 38.5321 59.4902 38.3094V36.8967H59.1504L59.1459 36.6616H59.4902V36.0502H59.7937V36.6616L60.563 36.6572V36.8967H59.7937V38.2597C59.7937 38.5525 59.9019 38.6989 60.1193 38.6989C60.24 38.6989 60.3713 38.6563 60.5133 38.572L60.6038 38.8027Z" fill="#1D1B1B"/>
<path d="M61.4548 35.7583C61.4938 35.7991 61.5133 35.8497 61.5133 35.91C61.5133 35.9704 61.4929 36.0218 61.4521 36.0636C61.4113 36.1061 61.3625 36.1266 61.3048 36.1266C61.2445 36.1266 61.1939 36.1053 61.1531 36.0636C61.1123 36.0218 61.0919 35.9704 61.0919 35.91C61.0919 35.8497 61.1123 35.7991 61.1531 35.7583C61.1939 35.7175 61.2445 35.6971 61.3048 35.6971C61.366 35.6971 61.4157 35.7175 61.4548 35.7583ZM61.1513 36.5933H61.4548V38.9651H61.1513V36.5933Z" fill="#1D1B1B"/>
<path d="M64.2443 36.8311C64.4058 36.9952 64.4866 37.2215 64.4866 37.5081V38.966H64.1787V37.58C64.1787 37.3564 64.1166 37.1816 63.9932 37.0547C63.869 36.9278 63.6977 36.8648 63.4768 36.8648C63.2328 36.8675 63.0367 36.9429 62.8903 37.0911C62.7439 37.2393 62.6605 37.438 62.6392 37.6883V38.9651H62.3357V36.5933H62.6392V37.1452C62.7208 36.9615 62.8406 36.8222 62.9994 36.729C63.1574 36.6359 63.3499 36.5871 63.5762 36.5844C63.8601 36.5844 64.0828 36.6669 64.2443 36.8311Z" fill="#1D1B1B"/>
<path d="M66.8641 36.7361C67.0451 36.8373 67.1871 36.9784 67.2891 37.1594C67.392 37.3404 67.4426 37.5454 67.4426 37.7752C67.4426 38.0077 67.3912 38.2153 67.2891 38.3972C67.1862 38.58 67.0451 38.722 66.8641 38.8231C66.6831 38.9243 66.4781 38.9749 66.2483 38.9749C66.0193 38.9749 65.8135 38.9243 65.6325 38.8231C65.4515 38.722 65.3095 38.58 65.2074 38.3972C65.1045 38.2144 65.053 38.0077 65.053 37.7752C65.053 37.5463 65.1045 37.3404 65.2074 37.1594C65.3104 36.9784 65.4515 36.8373 65.6325 36.7361C65.8135 36.635 66.0185 36.5844 66.2483 36.5844C66.4781 36.5844 66.6831 36.635 66.8641 36.7361ZM65.7869 36.9651C65.6511 37.0432 65.5455 37.1541 65.4701 37.2952C65.3947 37.4371 65.3565 37.5986 65.3565 37.7796C65.3565 37.9642 65.3947 38.1266 65.4701 38.2686C65.5455 38.4105 65.6511 38.5206 65.7869 38.5987C65.9226 38.6767 66.0761 38.7167 66.2483 38.7167C66.4204 38.7167 66.5739 38.6776 66.7097 38.5987C66.8454 38.5206 66.951 38.4097 67.0265 38.2686C67.1019 38.1266 67.14 37.9642 67.14 37.7796C67.14 37.5986 67.1019 37.4371 67.0265 37.2952C66.951 37.1532 66.8454 37.0432 66.7097 36.9651C66.5739 36.887 66.4204 36.8471 66.2483 36.8471C66.0761 36.8471 65.9226 36.8861 65.7869 36.9651Z" fill="#1D1B1B"/>
<path d="M69.0099 36.8808C68.8981 36.8488 68.7881 36.8328 68.6798 36.8328C68.529 36.8328 68.4074 36.8621 68.3151 36.9207C68.2228 36.9793 68.1767 37.068 68.1767 37.186C68.1767 37.2676 68.2015 37.3342 68.2512 37.3848C68.3009 37.4362 68.363 37.4779 68.4367 37.509C68.5103 37.5409 68.6141 37.5764 68.7464 37.6155C68.9096 37.6634 69.0418 37.7113 69.1448 37.7583C69.2477 37.8054 69.3347 37.8728 69.4074 37.9624C69.4802 38.052 69.5157 38.1683 69.5157 38.3129C69.5157 38.5268 69.434 38.6909 69.2717 38.8045C69.1084 38.9181 68.9052 38.974 68.6603 38.974C68.4881 38.974 68.3222 38.9456 68.1625 38.8879C68.0028 38.8311 67.8679 38.7495 67.7596 38.6439L67.8821 38.4265C67.985 38.5205 68.1066 38.5942 68.2468 38.6483C68.387 38.7024 68.5299 38.73 68.6745 38.73C68.8342 38.73 68.9646 38.6971 69.0658 38.6306C69.1669 38.564 69.2175 38.4673 69.2175 38.3413C69.2175 38.2535 69.1918 38.1825 69.1403 38.1266C69.0889 38.0707 69.025 38.0272 68.9478 37.9952C68.8706 37.9633 68.7641 37.9269 68.6283 37.8843C68.4686 37.8364 68.3391 37.7894 68.2388 37.7441C68.1394 37.6989 68.0551 37.6332 67.985 37.5471C67.9158 37.4611 67.8812 37.3484 67.8812 37.21C67.8812 37.0014 67.9584 36.8453 68.1146 36.7388C68.2699 36.6332 68.4642 36.58 68.6958 36.58C68.8315 36.58 68.9629 36.5977 69.0898 36.6341C69.2166 36.6705 69.3293 36.7202 69.4296 36.7832L69.3116 37.0139C69.222 36.9571 69.1208 36.9127 69.0099 36.8808Z" fill="#1D1B1B"/>
</g>
</svg>
