<svg width="105" height="43" viewBox="0 0 105 43" fill="none" xmlns="http://www.w3.org/2000/svg">
<g opacity="0.8">
<path d="M19.6715 11.5749L19.0451 6.41418C18.3503 6.49493 17.4035 6.69636 16.7158 6.9102L18.2447 11.8766C18.7052 11.7373 19.1853 11.6361 19.6715 11.5749Z" fill="#1D1B1B"/>
<path d="M8.06494 14.7028C7.78721 15.3452 7.48818 16.2662 7.32935 16.9681L12.3951 18.127C12.5051 17.6522 12.6569 17.1855 12.845 16.7401L8.06494 14.7028Z" fill="#1D1B1B"/>
<path d="M11.3468 30.1263L14.8846 26.317C14.5261 25.9816 14.1978 25.6187 13.9077 25.2354L9.75317 28.3561C10.1684 28.9169 10.8171 29.6356 11.3468 30.1263Z" fill="#1D1B1B"/>
<path d="M21.7942 28.5602L22.4206 33.7209C23.1154 33.6402 24.0622 33.4388 24.7499 33.2249L23.221 28.2585C22.7605 28.3987 22.2813 28.4999 21.7942 28.5602Z" fill="#1D1B1B"/>
<path d="M33.4009 25.4332C33.6786 24.7908 33.9777 23.8698 34.1365 23.1679L29.0707 22.009C28.9598 22.4846 28.809 22.9505 28.6208 23.3959L33.4009 25.4332Z" fill="#1D1B1B"/>
<path d="M30.1193 10.0106L26.5815 13.8199C26.94 14.1545 27.2683 14.5183 27.5594 14.9016L31.7139 11.7808C31.2959 11.2183 30.6473 10.4987 30.1193 10.0106Z" fill="#1D1B1B"/>
<path d="M13.9069 14.9042C14.2033 14.5129 14.5307 14.1482 14.8812 13.8199L13.4561 12.2875L10.7107 9.37085C10.0985 9.94406 9.53412 10.5723 9.03101 11.2369L10.0017 11.9752L13.9069 14.9042Z" fill="#1D1B1B"/>
<path d="M7.23116 25.7873L8.37936 25.3055L12.8453 23.3995C12.659 22.9585 12.509 22.4918 12.3972 22.0117L10.3546 22.4802L6.45386 23.3995C6.64286 24.2123 6.90373 25.0153 7.23116 25.7873Z" fill="#1D1B1B"/>
<path d="M18.2476 28.2621L17.6158 30.318L16.4783 34.1007C17.2769 34.343 18.103 34.5169 18.9353 34.618L19.0968 33.3518L19.6753 28.5629C19.1855 28.5017 18.7055 28.4005 18.2476 28.2621Z" fill="#1D1B1B"/>
<path d="M27.5597 25.2318C27.2643 25.6222 26.9368 25.9869 26.5854 26.3161L28.038 27.8787L30.7559 30.7661C31.3673 30.1929 31.9325 29.5655 32.4356 28.9L31.4409 28.144L27.5597 25.2318Z" fill="#1D1B1B"/>
<path d="M34.235 14.3488L33.0877 14.8297L28.6208 16.7366C28.8072 17.1785 28.958 17.6443 29.069 18.1243L31.1737 17.6416L35.0132 16.7366C34.8242 15.9229 34.5624 15.1198 34.235 14.3488Z" fill="#1D1B1B"/>
<path d="M23.2183 11.874L23.8412 9.84824L24.9877 6.03538C24.1891 5.79403 23.363 5.61922 22.5306 5.51807L22.3771 6.72572L21.7915 11.5741C22.2795 11.6335 22.7596 11.7347 23.2183 11.874Z" fill="#1D1B1B"/>
<path d="M13.9069 14.9042C14.2033 14.5129 14.5307 14.1482 14.8812 13.8199L13.4561 12.2875L10.7107 9.37085C10.0985 9.94406 9.53412 10.5723 9.03101 11.2369L10.0017 11.9752L13.9069 14.9042Z" fill="#1D1B1B"/>
<path d="M7.23116 25.7873L8.37936 25.3055L12.8453 23.3995C12.659 22.9585 12.509 22.4918 12.3972 22.0117L10.3546 22.4802L6.45386 23.3995C6.64286 24.2123 6.90373 25.0153 7.23116 25.7873Z" fill="#1D1B1B"/>
<path d="M18.2476 28.2621L17.6158 30.318L16.4783 34.1007C17.2769 34.343 18.103 34.5169 18.9353 34.618L19.0968 33.3518L19.6753 28.5629C19.1855 28.5017 18.7055 28.4005 18.2476 28.2621Z" fill="#1D1B1B"/>
<path d="M27.5597 25.2318C27.2643 25.6222 26.9368 25.9869 26.5854 26.3161L28.038 27.8787L30.7559 30.7661C31.3673 30.1929 31.9325 29.5655 32.4356 28.9L31.4409 28.144L27.5597 25.2318Z" fill="#1D1B1B"/>
<path d="M34.235 14.3488L33.0877 14.8297L28.6208 16.7366C28.8072 17.1785 28.958 17.6443 29.069 18.1243L31.1737 17.6416L35.0132 16.7366C34.8242 15.9229 34.5624 15.1198 34.235 14.3488Z" fill="#1D1B1B"/>
<path d="M23.2183 11.874L23.8412 9.84824L24.9877 6.03538C24.1891 5.79403 23.363 5.61922 22.5306 5.51807L22.3771 6.72572L21.7915 11.5741C22.2795 11.6335 22.7596 11.7347 23.2183 11.874Z" fill="#1D1B1B"/>
<path d="M15.4975 4.88623C14.6191 5.18881 13.761 5.57036 12.9482 6.02113L15.6883 10.9414C16.2074 10.653 16.754 10.4072 17.3228 10.2102L15.4975 4.88623Z" fill="#1D1B1B"/>
<path d="M4.96645 17.0107C4.79076 17.9194 4.69404 18.8528 4.67896 19.7872L10.3295 19.8742C10.3401 19.2681 10.4013 18.6745 10.5114 18.0968L4.96645 17.0107Z" fill="#1D1B1B"/>
<path d="M10.2056 32.1903C10.9101 32.8017 11.6688 33.3536 12.462 33.8319L15.3663 28.9773C14.8543 28.6685 14.3716 28.3172 13.9226 27.9276L10.2056 32.1903Z" fill="#1D1B1B"/>
<path d="M25.9691 35.2498C26.8476 34.9472 27.7047 34.5656 28.5184 34.1149L25.765 29.1707C25.2468 29.4573 24.702 29.7013 24.135 29.8983L25.9691 35.2498Z" fill="#1D1B1B"/>
<path d="M36.5008 23.1254C36.6765 22.2168 36.7733 21.2833 36.7883 20.3489L31.1369 20.262C31.1254 20.868 31.0615 21.4616 30.9497 22.0384L36.5008 23.1254Z" fill="#1D1B1B"/>
<path d="M31.261 7.94576C30.5565 7.33439 29.7978 6.78247 29.0045 6.3042L26.1145 11.1366C26.6265 11.4472 27.1101 11.8003 27.56 12.1916L31.261 7.94576Z" fill="#1D1B1B"/>
<path d="M12.4555 6.30603C11.6586 6.78608 10.9 7.338 10.199 7.94848L13.9045 12.1935C14.3535 11.8022 14.837 11.4481 15.349 11.1375L12.4555 6.30603Z" fill="#1D1B1B"/>
<path d="M4.68018 20.3559C4.68905 20.8271 4.71744 21.2947 4.76536 21.7464C4.81328 22.1998 4.88249 22.6648 4.97299 23.1306L10.5188 22.041C10.407 21.4642 10.3431 20.8715 10.3307 20.2645L4.68018 20.3559Z" fill="#1D1B1B"/>
<path d="M12.9548 34.1158C13.7667 34.5666 14.6239 34.949 15.5041 35.2525L17.3356 29.8992C16.7686 29.7031 16.2229 29.4591 15.7047 29.1725L12.9548 34.1158Z" fill="#1D1B1B"/>
<path d="M29.0115 33.8291C29.8084 33.3491 30.567 32.7963 31.268 32.1867L27.5474 27.924C27.0985 28.3135 26.6157 28.6649 26.1038 28.9745L29.0115 33.8291Z" fill="#1D1B1B"/>
<path d="M36.7872 19.7801C36.7783 19.3089 36.7499 18.8413 36.702 18.3896C36.6541 17.9362 36.5849 17.4712 36.4943 17.0054L30.9539 18.0941C31.0639 18.6709 31.126 19.2645 31.1358 19.8714L36.7872 19.7801Z" fill="#1D1B1B"/>
<path d="M25.8183 10.8615L28.5114 6.02021C27.6986 5.56945 26.8414 5.18701 25.9621 4.88354L24.1404 10.2093C24.7092 10.4063 25.2549 10.6512 25.774 10.9396L25.8183 10.8615Z" fill="#1D1B1B"/>
<path d="M7.57561 10.8651C7.04233 11.6264 6.57293 12.4392 6.17896 13.2804L11.2971 15.6549C11.55 15.111 11.849 14.5928 12.1888 14.1056L7.57561 10.8651Z" fill="#1D1B1B"/>
<path d="M6.18018 26.8628C6.57149 27.7013 7.04177 28.5141 7.57772 29.2781L12.206 26.0234C11.8653 25.5371 11.5654 25.0207 11.3107 24.4785L6.18018 26.8628Z" fill="#1D1B1B"/>
<path d="M33.8898 29.271C34.4231 28.5097 34.8925 27.6969 35.2864 26.8548L30.1559 24.475C29.9012 25.0171 29.6013 25.5336 29.2615 26.0198L33.8898 29.271Z" fill="#1D1B1B"/>
<path d="M35.2851 13.2733C34.8938 12.4339 34.4235 11.622 33.8876 10.858L29.2734 14.1021C29.6133 14.5901 29.9123 15.1075 30.1661 15.6514L35.2851 13.2733Z" fill="#1D1B1B"/>
<path d="M21.6264 9.67607L22.1251 4.06992C21.6717 4.03087 21.2112 4.01135 20.7551 4.01135C20.2839 4.01135 19.8065 4.03265 19.3345 4.07347L19.8358 9.67607C20.1313 9.65122 20.4303 9.63702 20.7329 9.63702C21.0346 9.63791 21.3327 9.65122 21.6264 9.67607Z" fill="#1D1B1B"/>
<path d="M19.843 30.429L19.3425 36.0644C19.8146 36.1052 20.2849 36.1256 20.7418 36.1256C21.1962 36.1256 21.6647 36.1052 22.1341 36.0644L21.6283 30.4281C21.3337 30.4529 21.0356 30.4671 20.7339 30.4671C20.4339 30.4671 20.1367 30.4538 19.843 30.429Z" fill="#1D1B1B"/>
<path d="M54.2912 19.6349C55.6257 20.028 56.7846 21.1265 56.7846 22.9517C56.7846 25.0724 55.2726 26.9571 51.8572 26.9571H45.9485V13.2159H51.8767C54.3497 13.2159 56.0569 14.885 56.0569 16.7892C56.0569 18.3199 55.0365 19.2817 54.2903 19.5568V19.6349H54.2912ZM51.2485 18.6526C52.1509 18.6526 52.7401 18.1025 52.7401 17.2985C52.7401 16.5328 52.1713 15.9436 51.229 15.9436H49.2458V18.6526H51.2485ZM51.5626 24.2277C52.7011 24.2277 53.3098 23.58 53.3098 22.6571C53.3098 21.6757 52.6416 21.0866 51.5626 21.0866H49.2458V24.2277H51.5626Z" fill="#1D1B1B"/>
<path d="M65.1048 26.9542H61.8066V21.537L56.6831 13.2139H60.4915L62.6114 16.9433C63.1021 17.8076 63.5147 18.5529 63.5342 18.5725H63.5927C63.6131 18.5529 64.0249 17.7872 64.5156 16.9433L66.7135 13.2139H70.2273L65.1039 21.537L65.1048 26.9542Z" fill="#1D1B1B"/>
<path d="M82.0997 23.5983C82.0997 20.34 82.1387 18.7304 82.1387 18.7108H82.0997C82.081 18.7304 81.412 19.9673 80.7456 21.1439L79.4102 23.5583H77.5654L76.2309 21.1838C75.5441 19.9664 74.8954 18.7295 74.8768 18.71H74.8174C74.8174 18.7295 74.8564 20.3391 74.8564 23.5974V26.9533H71.5591V13.2147H75.0525L78.5078 19.3586H78.5663L82.0402 13.2147H85.397V26.9541H82.0997V23.5983Z" fill="#1D1B1B"/>
<path d="M91.0477 24.6782L90.2233 26.9542H86.7485L92.0494 13.2139H95.7975L101.118 26.9542H97.5846L96.7594 24.6782H91.0477ZM94.6981 18.946C94.2669 17.8076 93.9519 16.9442 93.9324 16.9238H93.8729C93.8534 16.9442 93.5393 17.7881 93.1071 18.9265L92.1258 21.6746H95.6777L94.6981 18.946Z" fill="#1D1B1B"/>
<path d="M48.0381 30.8504C48.2173 30.9906 48.3078 31.185 48.3078 31.4325C48.3078 31.6197 48.2555 31.7768 48.1516 31.9037C48.0478 32.0306 47.9023 32.114 47.7151 32.153C47.9476 32.1832 48.1286 32.2693 48.2581 32.4112C48.3877 32.5532 48.4525 32.7325 48.4525 32.9499C48.4525 33.2214 48.3513 33.4326 48.149 33.5834C47.9467 33.7343 47.6663 33.8097 47.3069 33.8097H45.967V30.641H47.2936C47.6104 30.6392 47.8588 30.7093 48.0381 30.8504ZM47.8003 31.8913C47.9236 31.7937 47.9857 31.6535 47.9857 31.4725C47.9857 31.2976 47.9236 31.1619 47.8003 31.0652C47.676 30.9684 47.503 30.9223 47.2794 30.925H46.2794V32.0386H47.2794C47.503 32.0386 47.6769 31.9889 47.8003 31.8913ZM47.9112 33.3669C48.0603 33.2595 48.1357 33.1096 48.1357 32.9161C48.1357 32.7262 48.0603 32.5781 47.9094 32.4725C47.7586 32.3669 47.5492 32.3145 47.2803 32.3145H46.2803V33.5275H47.2803C47.5518 33.5275 47.7621 33.4743 47.9112 33.3669Z" fill="#1D1B1B"/>
<path d="M50.7344 31.579C50.9154 31.6801 51.0574 31.8212 51.1603 32.0022C51.2632 32.1833 51.3138 32.3882 51.3138 32.618C51.3138 32.8505 51.2623 33.0582 51.1603 33.2401C51.0574 33.4229 50.9163 33.5648 50.7344 33.666C50.5525 33.7671 50.3484 33.8177 50.1186 33.8177C49.8896 33.8177 49.6838 33.7671 49.5028 33.666C49.3218 33.5648 49.1798 33.4229 49.0768 33.2401C48.9739 33.0573 48.9233 32.8505 48.9233 32.618C48.9233 32.3891 48.9748 32.1833 49.0768 32.0022C49.1798 31.8212 49.3209 31.6801 49.5028 31.579C49.6838 31.4778 49.8888 31.4272 50.1186 31.4272C50.3484 31.4272 50.5534 31.4778 50.7344 31.579ZM49.6572 31.8079C49.5214 31.886 49.4158 31.9969 49.3404 32.138C49.265 32.28 49.2268 32.4415 49.2268 32.6225C49.2268 32.807 49.265 32.9694 49.3404 33.1114C49.4158 33.2534 49.5214 33.3634 49.6572 33.4415C49.7929 33.5196 49.9473 33.5595 50.1186 33.5595C50.2907 33.5595 50.4442 33.5205 50.58 33.4415C50.7157 33.3634 50.8213 33.2525 50.8968 33.1114C50.9722 32.9694 51.0103 32.807 51.0103 32.6225C51.0103 32.4415 50.9722 32.28 50.8968 32.138C50.8213 31.996 50.7157 31.886 50.58 31.8079C50.4442 31.7298 50.2907 31.6899 50.1186 31.6899C49.9473 31.6899 49.7929 31.7289 49.6572 31.8079Z" fill="#1D1B1B"/>
<path d="M51.9783 30.4493H52.2817V33.8079H51.9783V30.4493Z" fill="#1D1B1B"/>
<path d="M54.116 31.7235C54.0042 31.6916 53.8941 31.6756 53.7859 31.6756C53.635 31.6756 53.5135 31.7049 53.4212 31.7635C53.3289 31.822 53.2828 31.9108 53.2828 32.0288C53.2828 32.1104 53.3076 32.177 53.3573 32.2275C53.407 32.279 53.4691 32.3207 53.5428 32.3518C53.6164 32.3837 53.7202 32.4192 53.8524 32.4582C54.0157 32.5062 54.1479 32.5541 54.2508 32.6011C54.3538 32.6481 54.4407 32.7156 54.5135 32.8052C54.5863 32.8939 54.6217 33.0111 54.6217 33.1557C54.6217 33.3695 54.5401 33.5337 54.3777 33.6473C54.2145 33.7608 54.0113 33.8167 53.7664 33.8167C53.5942 33.8167 53.4283 33.7884 53.2686 33.7307C53.1088 33.6739 52.974 33.5923 52.8657 33.4867L52.9882 33.2693C53.0911 33.3633 53.2127 33.437 53.3529 33.4911C53.4931 33.5452 53.6359 33.5727 53.7806 33.5727C53.9403 33.5727 54.0707 33.5399 54.1719 33.4734C54.273 33.4068 54.3236 33.3101 54.3236 33.1841C54.3236 33.0962 54.2979 33.0252 54.2464 32.9693C54.1949 32.9134 54.1311 32.87 54.0539 32.838C53.9767 32.8061 53.8702 32.7697 53.7344 32.7271C53.5747 32.6792 53.4452 32.6322 53.3449 32.5869C53.2455 32.5417 53.1612 32.476 53.0911 32.3899C53.0219 32.3038 52.9873 32.1912 52.9873 32.0527C52.9873 31.8442 53.0645 31.688 53.2207 31.5816C53.3759 31.476 53.5703 31.4227 53.8019 31.4227C53.9376 31.4227 54.0689 31.4405 54.1958 31.4769C54.3227 31.5132 54.4354 31.5629 54.5357 31.6259L54.4177 31.8566C54.3289 31.7998 54.2278 31.7555 54.116 31.7235Z" fill="#1D1B1B"/>
<path d="M56.7133 33.8079L56.7089 33.4095C56.6148 33.5479 56.4933 33.6517 56.3424 33.7191C56.1916 33.7866 56.0177 33.8212 55.8216 33.8212C55.6618 33.8212 55.5208 33.7901 55.3983 33.728C55.2759 33.6659 55.1818 33.5807 55.1152 33.4725C55.0487 33.3642 55.0159 33.2417 55.0159 33.106C55.0159 32.901 55.0948 32.7395 55.2537 32.6215C55.4116 32.5035 55.6299 32.4449 55.9076 32.4449H56.7045V32.2639C56.7045 32.0767 56.6486 31.932 56.5368 31.8291C56.425 31.7262 56.2626 31.6756 56.0478 31.6756C55.7941 31.6756 55.5394 31.7706 55.283 31.9604L55.1472 31.7519C55.3069 31.6401 55.4595 31.5585 55.6042 31.5052C55.7488 31.4529 55.9147 31.4263 56.102 31.4263C56.3886 31.4263 56.6104 31.4981 56.7675 31.641C56.9245 31.7848 57.0044 31.9826 57.007 32.2364L57.0115 33.807L56.7133 33.8079ZM56.4125 33.421C56.5589 33.3234 56.6574 33.185 56.7089 33.0066V32.681H55.944C55.7355 32.681 55.5776 32.7156 55.4684 32.7848C55.3602 32.854 55.3051 32.9587 55.3051 33.0971C55.3051 33.2391 55.3575 33.3527 55.4613 33.4387C55.5651 33.5248 55.7036 33.5674 55.8757 33.5674C56.0878 33.5683 56.2661 33.5195 56.4125 33.421Z" fill="#1D1B1B"/>
<path d="M58.7458 31.7235C58.634 31.6916 58.524 31.6756 58.4158 31.6756C58.2649 31.6756 58.1434 31.7049 58.0511 31.7635C57.9588 31.822 57.9127 31.9108 57.9127 32.0288C57.9127 32.1104 57.9375 32.177 57.9872 32.2275C58.0369 32.279 58.099 32.3207 58.1726 32.3518C58.2463 32.3837 58.3501 32.4192 58.4823 32.4582C58.6456 32.5062 58.7778 32.5541 58.8807 32.6011C58.9837 32.6481 59.0706 32.7156 59.1434 32.8052C59.2161 32.8939 59.2516 33.0111 59.2516 33.1557C59.2516 33.3695 59.17 33.5337 59.0076 33.6473C58.8443 33.7608 58.6411 33.8167 58.3962 33.8167C58.2241 33.8167 58.0582 33.7884 57.8985 33.7307C57.7387 33.6739 57.6039 33.5923 57.4956 33.4867L57.6181 33.2693C57.721 33.3633 57.8425 33.437 57.9827 33.4911C58.1229 33.5452 58.2658 33.5727 58.4104 33.5727C58.5702 33.5727 58.7006 33.5399 58.8018 33.4734C58.9029 33.4068 58.9535 33.3101 58.9535 33.1841C58.9535 33.0962 58.9278 33.0252 58.8763 32.9693C58.8248 32.9134 58.7609 32.87 58.6837 32.838C58.6065 32.8061 58.5001 32.7697 58.3643 32.7271C58.2046 32.6792 58.075 32.6322 57.9748 32.5869C57.8754 32.5417 57.7911 32.476 57.721 32.3899C57.6518 32.3038 57.6172 32.1912 57.6172 32.0527C57.6172 31.8442 57.6944 31.688 57.8505 31.5816C58.0058 31.476 58.2001 31.4227 58.4317 31.4227C58.5675 31.4227 58.6988 31.4405 58.8257 31.4769C58.9526 31.5132 59.0653 31.5629 59.1656 31.6259L59.0475 31.8566C58.9588 31.7998 58.8577 31.7555 58.7458 31.7235Z" fill="#1D1B1B"/>
<path d="M61.519 34.5594C61.4001 34.6526 61.2634 34.6996 61.109 34.6996C60.9245 34.6996 60.7621 34.6455 60.6201 34.5364L60.7559 34.3012C60.8615 34.374 60.9751 34.4104 61.0957 34.4104C61.1924 34.4104 61.2794 34.3784 61.3584 34.3154C61.4365 34.2524 61.5012 34.1601 61.5527 34.0395L61.6521 33.7946L60.6698 31.436H60.991L61.8056 33.4733L62.5891 31.436H62.9014L61.8065 34.1477C61.7337 34.3287 61.6379 34.4663 61.519 34.5594Z" fill="#1D1B1B"/>
<path d="M64.6354 30.6393H65.0249L66.2654 33.0155L67.4917 30.6393H67.8813V33.8079H67.592L67.5867 31.0741L66.3462 33.469H66.174L64.9291 31.0741V33.8079H64.6345L64.6354 30.6393Z" fill="#1D1B1B"/>
<path d="M70.5881 31.7777C70.7816 32.012 70.8703 32.3261 70.8552 32.7219H68.8773C68.8986 32.9756 68.9918 33.1797 69.1577 33.335C69.3237 33.4903 69.5286 33.5684 69.7736 33.5684C69.9244 33.5684 70.0646 33.5409 70.1941 33.4867C70.3237 33.4326 70.4355 33.3554 70.5287 33.256L70.7008 33.4282C70.5863 33.5515 70.4479 33.6473 70.2864 33.7157C70.1249 33.784 69.9475 33.8177 69.7549 33.8177C69.526 33.8177 69.3219 33.7671 69.1435 33.666C68.9652 33.5648 68.8259 33.4237 68.7247 33.2427C68.6236 33.0617 68.573 32.855 68.573 32.6225C68.573 32.3935 68.6236 32.1868 68.7247 32.0049C68.8259 31.8221 68.9652 31.6801 69.1435 31.579C69.3219 31.4778 69.5224 31.4272 69.746 31.4272C70.1143 31.4272 70.3956 31.5444 70.5881 31.7777ZM70.5837 32.4867C70.5686 32.2392 70.4861 32.0422 70.337 31.8958C70.1879 31.7493 69.9918 31.6766 69.7505 31.6766C69.5118 31.6766 69.313 31.7502 69.1533 31.8984C68.9936 32.0466 68.9013 32.2427 68.8773 32.4867H70.5837Z" fill="#1D1B1B"/>
<path d="M72.1287 31.5745C72.2751 31.4796 72.4508 31.4308 72.6558 31.4272V31.7121C72.4055 31.7094 72.2041 31.7822 72.0515 31.9313C71.8989 32.0803 71.8119 32.2835 71.7915 32.54V33.8071H71.488V31.4352H71.7915V31.9872C71.8705 31.8079 71.9832 31.6695 72.1287 31.5745Z" fill="#1D1B1B"/>
<path d="M74.088 31.6943C73.9185 31.6943 73.7668 31.7334 73.631 31.8123C73.4953 31.8904 73.3897 32.0005 73.3143 32.1407C73.2388 32.2809 73.2007 32.4415 73.2007 32.6225C73.2007 32.8035 73.2388 32.965 73.3143 33.107C73.3897 33.2489 73.4953 33.359 73.631 33.4371C73.7668 33.5151 73.9194 33.5551 74.088 33.5551C74.2415 33.5551 74.3826 33.5276 74.5113 33.4734C74.6399 33.4193 74.7473 33.3403 74.8352 33.2383L75.0073 33.4193C74.9017 33.5462 74.7686 33.6438 74.6089 33.7139C74.4492 33.7831 74.2708 33.8177 74.0747 33.8177C73.8484 33.8177 73.6461 33.7671 73.4678 33.666C73.2894 33.5648 73.1501 33.4229 73.049 33.2401C72.9478 33.0573 72.8972 32.8514 72.8972 32.6225C72.8972 32.3935 72.9478 32.1868 73.049 32.0049C73.1501 31.8221 73.2894 31.6801 73.4678 31.579C73.6461 31.4778 73.8484 31.4272 74.0747 31.4272C74.2584 31.4272 74.427 31.4574 74.5796 31.5178C74.7322 31.5781 74.8627 31.6624 74.9709 31.7715L74.7988 31.9756C74.6053 31.7884 74.3684 31.6943 74.088 31.6943Z" fill="#1D1B1B"/>
<path d="M77.0344 33.8079L77.0299 33.4095C76.9359 33.5479 76.8143 33.6517 76.6635 33.7191C76.5126 33.7866 76.3387 33.8212 76.1426 33.8212C75.9829 33.8212 75.8418 33.7901 75.7194 33.728C75.5969 33.6659 75.5029 33.5807 75.4363 33.4725C75.3698 33.3642 75.3369 33.2417 75.3369 33.106C75.3369 32.901 75.4159 32.7395 75.5747 32.6215C75.7327 32.5035 75.951 32.4449 76.2287 32.4449H77.0255V32.2639C77.0255 32.0767 76.9696 31.932 76.8578 31.8291C76.746 31.7262 76.5836 31.6756 76.3689 31.6756C76.1151 31.6756 75.8604 31.7706 75.604 31.9604L75.4682 31.7519C75.628 31.6401 75.7806 31.5585 75.9252 31.5052C76.0699 31.4529 76.2358 31.4263 76.423 31.4263C76.7096 31.4263 76.9315 31.4981 77.0885 31.641C77.2456 31.7848 77.3254 31.9826 77.3281 32.2364L77.3325 33.807L77.0344 33.8079ZM76.7336 33.421C76.88 33.3234 76.9785 33.185 77.0299 33.0066V32.681H76.2651C76.0565 32.681 75.8986 32.7156 75.7895 32.7848C75.6812 32.854 75.6262 32.9587 75.6262 33.0971C75.6262 33.2391 75.6785 33.3527 75.7824 33.4387C75.8862 33.5248 76.0246 33.5674 76.1967 33.5674C76.4079 33.5683 76.5872 33.5195 76.7336 33.421Z" fill="#1D1B1B"/>
<path d="M80.302 30.4493V33.8079H79.9985V33.2648C79.908 33.4432 79.7811 33.5807 79.6178 33.6792C79.4546 33.7777 79.2647 33.8265 79.0473 33.8265C78.8237 33.8265 78.6249 33.7751 78.4501 33.673C78.2753 33.5701 78.1395 33.4272 78.0428 33.2427C77.9461 33.059 77.8982 32.8505 77.8982 32.618C77.8982 32.3855 77.947 32.1787 78.0455 31.9977C78.1431 31.8167 78.2797 31.6747 78.4528 31.5727C78.6258 31.4698 78.8228 31.4183 79.0437 31.4183C79.2611 31.4183 79.4519 31.468 79.6161 31.5674C79.7802 31.6668 79.908 31.8061 79.9985 31.9835V30.4493H80.302ZM79.5646 33.4441C79.7004 33.3642 79.8068 33.2533 79.884 33.1113C79.9612 32.9694 79.9994 32.8079 79.9994 32.6268C79.9994 32.4458 79.9612 32.2835 79.884 32.1406C79.8068 31.9977 79.7004 31.885 79.5646 31.8034C79.4288 31.7218 79.2753 31.681 79.1032 31.681C78.931 31.681 78.7775 31.7218 78.6418 31.8034C78.506 31.885 78.3987 31.9977 78.3206 32.1406C78.2425 32.2843 78.2025 32.4458 78.2025 32.6268C78.2025 32.8079 78.2407 32.9694 78.3179 33.1113C78.3951 33.2533 78.5016 33.3642 78.6391 33.4441C78.7766 33.5239 78.931 33.5639 79.1032 33.5639C79.2744 33.5639 79.4288 33.5239 79.5646 33.4441Z" fill="#1D1B1B"/>
<path d="M82.7794 31.579C82.9604 31.6801 83.1024 31.8212 83.2044 32.0022C83.3074 32.1833 83.3588 32.3882 83.3588 32.618C83.3588 32.8505 83.3074 33.0582 83.2044 33.2401C83.1015 33.4229 82.9604 33.5648 82.7794 33.666C82.5984 33.7671 82.3934 33.8177 82.1636 33.8177C81.9338 33.8177 81.7288 33.7671 81.5478 33.666C81.3668 33.5648 81.2248 33.4229 81.1228 33.2401C81.0198 33.0573 80.9692 32.8505 80.9692 32.618C80.9692 32.3891 81.0207 32.1833 81.1228 32.0022C81.2257 31.8212 81.3668 31.6801 81.5478 31.579C81.7288 31.4778 81.9338 31.4272 82.1636 31.4272C82.3934 31.4272 82.5984 31.4778 82.7794 31.579ZM81.7022 31.8079C81.5664 31.886 81.4608 31.9969 81.3854 32.138C81.31 32.28 81.2718 32.4415 81.2718 32.6225C81.2718 32.807 81.31 32.9694 81.3854 33.1114C81.4608 33.2534 81.5664 33.3634 81.7022 33.4415C81.8379 33.5196 81.9914 33.5595 82.1636 33.5595C82.3357 33.5595 82.4892 33.5205 82.625 33.4415C82.7608 33.3634 82.8663 33.2525 82.9418 33.1114C83.0172 32.9694 83.0554 32.807 83.0554 32.6225C83.0554 32.4415 83.0172 32.28 82.9418 32.138C82.8663 31.996 82.7608 31.886 82.625 31.8079C82.4892 31.7298 82.3357 31.6899 82.1636 31.6899C81.9914 31.6899 81.8379 31.7289 81.7022 31.8079Z" fill="#1D1B1B"/>
<path d="M84.9248 31.7235C84.813 31.6916 84.703 31.6756 84.5947 31.6756C84.4439 31.6756 84.3223 31.7049 84.23 31.7634C84.1377 31.8229 84.0916 31.9116 84.0916 32.0296C84.0916 32.1113 84.1165 32.1778 84.1661 32.2284C84.2158 32.2799 84.2779 32.3216 84.3516 32.3526C84.4252 32.3846 84.5291 32.4201 84.6613 32.4591C84.8245 32.507 84.9567 32.5549 85.0597 32.602C85.1626 32.649 85.2496 32.7164 85.3223 32.806C85.3951 32.8948 85.4306 33.0119 85.4306 33.1565C85.4306 33.3704 85.349 33.5345 85.1866 33.6481C85.0233 33.7617 84.8201 33.8176 84.5752 33.8176C84.4031 33.8176 84.2371 33.7892 84.0774 33.7315C83.9177 33.6747 83.7828 33.5931 83.6746 33.4875L83.797 33.2701C83.8999 33.3642 84.0215 33.4378 84.1617 33.492C84.3019 33.5461 84.4448 33.5736 84.5894 33.5736C84.7491 33.5736 84.8796 33.5408 84.9807 33.4742C85.0819 33.4077 85.1324 33.3109 85.1324 33.1849C85.1324 33.0971 85.1067 33.0261 85.0552 32.9702C85.0038 32.9143 84.9399 32.8708 84.8627 32.8389C84.7855 32.8069 84.679 32.7706 84.5433 32.728C84.3835 32.68 84.254 32.633 84.1537 32.5878C84.0543 32.5425 83.97 32.4768 83.8999 32.3908C83.8307 32.3047 83.7961 32.192 83.7961 32.0536C83.7961 31.8451 83.8733 31.6889 84.0295 31.5824C84.1848 31.4768 84.3791 31.4236 84.6107 31.4236C84.7465 31.4236 84.8778 31.4413 85.0047 31.4777C85.1316 31.5141 85.2442 31.5638 85.3445 31.6268L85.2265 31.8575C85.1378 31.7998 85.0366 31.7554 84.9248 31.7235Z" fill="#1D1B1B"/>
<path d="M48.3296 39.0032L47.9543 38.1611H46.1983L45.8274 39.0032H45.4919L46.9179 35.839H47.2435L48.6695 39.0032H48.3296ZM46.3198 37.8799H47.8318L47.0714 36.1691L46.3198 37.8799Z" fill="#1D1B1B"/>
<path d="M49.7762 36.7689C49.9226 36.6739 50.0982 36.6251 50.3032 36.6216V36.9064C50.053 36.9038 49.8516 36.9765 49.699 37.1256C49.5463 37.2747 49.4594 37.4779 49.439 37.7343V39.0014H49.1355V36.6296H49.439V37.1815C49.5179 37.0022 49.6297 36.8638 49.7762 36.7689Z" fill="#1D1B1B"/>
<path d="M52.8431 36.6305V38.7538C52.8431 38.9828 52.7952 39.1842 52.6985 39.3563C52.6018 39.5285 52.4634 39.6607 52.2841 39.7521C52.1049 39.8444 51.8972 39.8905 51.6612 39.8905C51.3107 39.8905 50.9868 39.7698 50.6878 39.5285L50.8324 39.3111C50.9531 39.4167 51.08 39.4965 51.2131 39.5507C51.3462 39.6048 51.4908 39.6323 51.6479 39.6323C51.9194 39.6323 52.1359 39.5533 52.2974 39.3945C52.4589 39.2357 52.5397 39.0236 52.5397 38.7583V38.3732C52.4554 38.5391 52.3347 38.6687 52.1776 38.7627C52.0206 38.8568 51.8396 38.9029 51.6346 38.9029C51.4234 38.9029 51.2353 38.8541 51.0711 38.7556C50.907 38.658 50.7783 38.5214 50.686 38.3483C50.5937 38.1753 50.5476 37.9783 50.5476 37.7574C50.5476 37.5373 50.5937 37.3412 50.686 37.1691C50.7783 36.9969 50.907 36.8629 51.0729 36.7662C51.2388 36.6695 51.4278 36.6216 51.639 36.6216C51.844 36.6216 52.0241 36.6677 52.1776 36.76C52.3311 36.8523 52.4518 36.9827 52.5397 37.1513V36.6305H52.8431ZM52.1279 38.5435C52.2575 38.4663 52.3586 38.3599 52.4314 38.2241C52.5042 38.0883 52.5397 37.9357 52.5397 37.7671C52.5397 37.595 52.5033 37.4415 52.4314 37.3057C52.3586 37.17 52.2575 37.0635 52.1279 36.9863C51.9984 36.9091 51.852 36.8709 51.6887 36.8709C51.5254 36.8709 51.379 36.9091 51.2495 36.9863C51.1199 37.0635 51.0179 37.17 50.9442 37.3057C50.8706 37.4415 50.8333 37.595 50.8333 37.7671C50.8333 37.9393 50.8706 38.0928 50.9442 38.2268C51.0179 38.3608 51.119 38.4663 51.2477 38.5435C51.3764 38.6207 51.5228 38.6589 51.6887 38.6589C51.852 38.6589 51.9984 38.6199 52.1279 38.5435Z" fill="#1D1B1B"/>
<path d="M55.4325 36.9721C55.6259 37.2063 55.7146 37.5205 55.6995 37.9162H53.7217C53.743 38.17 53.8361 38.3741 54.0021 38.5293C54.168 38.6846 54.373 38.7627 54.6179 38.7627C54.7687 38.7627 54.9089 38.7352 55.0394 38.6811C55.1689 38.627 55.2807 38.5498 55.3739 38.4504L55.546 38.6225C55.4316 38.7459 55.2931 38.8417 55.1316 38.91C54.9702 38.9783 54.7927 39.012 54.6001 39.012C54.3703 39.012 54.1671 38.9615 53.9888 38.8603C53.8104 38.7592 53.6711 38.6181 53.5699 38.4371C53.4688 38.256 53.4182 38.0493 53.4182 37.8168C53.4182 37.5879 53.4688 37.3811 53.5699 37.1992C53.6711 37.0164 53.8104 36.8745 53.9888 36.7733C54.1671 36.6722 54.3677 36.6216 54.5913 36.6216C54.9586 36.6216 55.239 36.7387 55.4325 36.9721ZM55.4271 37.6811C55.412 37.4335 55.3295 37.2365 55.1805 37.0901C55.0314 36.9437 54.8353 36.8709 54.5939 36.8709C54.3552 36.8709 54.1565 36.9446 53.9968 37.0928C53.837 37.2409 53.7448 37.437 53.7208 37.6811H55.4271Z" fill="#1D1B1B"/>
<path d="M58.2419 36.8683C58.4034 37.0324 58.4841 37.2587 58.4841 37.5453V39.0032H58.1762V37.6172C58.1762 37.3936 58.1141 37.2188 57.9908 37.0919C57.8666 36.965 57.6953 36.902 57.4744 36.902C57.2303 36.9046 57.0342 36.9801 56.8878 37.1283C56.7414 37.2764 56.658 37.4752 56.6367 37.7254V39.0023H56.3333V36.6305H56.6367V37.1824C56.7184 36.9987 56.8381 36.8594 56.997 36.7662C57.1549 36.673 57.3475 36.6242 57.5737 36.6216C57.8577 36.6216 58.0804 36.7041 58.2419 36.8683Z" fill="#1D1B1B"/>
<path d="M60.4896 38.8399C60.3264 38.9517 60.1516 39.0103 59.9643 39.0165C59.7833 39.0165 59.6396 38.9606 59.534 38.8488C59.4284 38.737 59.376 38.5693 59.376 38.3465V36.9339H59.0362L59.0317 36.6988H59.376V36.0874H59.6795V36.6988L60.4488 36.6943V36.9339H59.6795V38.2969C59.6795 38.5897 59.7877 38.7361 60.0051 38.7361C60.1258 38.7361 60.2571 38.6935 60.3991 38.6092L60.4896 38.8399Z" fill="#1D1B1B"/>
<path d="M61.3407 35.7955C61.3797 35.8363 61.3993 35.8869 61.3993 35.9472C61.3993 36.0076 61.3789 36.059 61.338 36.1007C61.2972 36.1433 61.2484 36.1637 61.1907 36.1637C61.1304 36.1637 61.0798 36.1424 61.039 36.1007C60.9982 36.059 60.9778 36.0076 60.9778 35.9472C60.9778 35.8869 60.9982 35.8363 61.039 35.7955C61.0798 35.7547 61.1304 35.7343 61.1907 35.7343C61.252 35.7343 61.3017 35.7547 61.3407 35.7955ZM61.0372 36.6305H61.3407V39.0023H61.0372V36.6305Z" fill="#1D1B1B"/>
<path d="M64.1303 36.8683C64.2918 37.0324 64.3726 37.2587 64.3726 37.5453V39.0032H64.0647V37.6172C64.0647 37.3936 64.0026 37.2188 63.8792 37.0919C63.755 36.965 63.5837 36.902 63.3628 36.902C63.1188 36.9046 62.9227 36.9801 62.7763 37.1283C62.6299 37.2764 62.5464 37.4752 62.5251 37.7254V39.0023H62.2217V36.6305H62.5251V37.1824C62.6068 36.9987 62.7266 36.8594 62.8854 36.7662C63.0433 36.673 63.2359 36.6242 63.4622 36.6216C63.7461 36.6216 63.9688 36.7041 64.1303 36.8683Z" fill="#1D1B1B"/>
<path d="M66.75 36.7733C66.931 36.8745 67.073 37.0156 67.175 37.1966C67.278 37.3776 67.3285 37.5826 67.3285 37.8124C67.3285 38.0449 67.2771 38.2525 67.175 38.4344C67.0721 38.6172 66.931 38.7592 66.75 38.8603C66.569 38.9615 66.364 39.012 66.1342 39.012C65.9053 39.012 65.6994 38.9615 65.5184 38.8603C65.3374 38.7592 65.1954 38.6172 65.0934 38.4344C64.9904 38.2516 64.939 38.0449 64.939 37.8124C64.939 37.5835 64.9904 37.3776 65.0934 37.1966C65.1963 37.0156 65.3374 36.8745 65.5184 36.7733C65.6994 36.6722 65.9044 36.6216 66.1342 36.6216C66.364 36.6216 66.569 36.6722 66.75 36.7733ZM65.6728 37.0022C65.537 37.0803 65.4314 37.1913 65.356 37.3323C65.2806 37.4743 65.2424 37.6358 65.2424 37.8168C65.2424 38.0014 65.2806 38.1638 65.356 38.3057C65.4314 38.4477 65.537 38.5577 65.6728 38.6358C65.8085 38.7139 65.9621 38.7538 66.1342 38.7538C66.3063 38.7538 66.4598 38.7148 66.5956 38.6358C66.7314 38.5577 66.837 38.4468 66.9124 38.3057C66.9878 38.1638 67.026 38.0014 67.026 37.8168C67.026 37.6358 66.9878 37.4743 66.9124 37.3323C66.837 37.1904 66.7314 37.0803 66.5956 37.0022C66.4598 36.9242 66.3063 36.8842 66.1342 36.8842C65.9621 36.8842 65.8085 36.9233 65.6728 37.0022Z" fill="#1D1B1B"/>
<path d="M68.8958 36.918C68.784 36.886 68.6739 36.8701 68.5657 36.8701C68.4148 36.8701 68.2933 36.8994 68.201 36.9579C68.1087 37.0165 68.0626 37.1052 68.0626 37.2232C68.0626 37.3049 68.0874 37.3714 68.1371 37.422C68.1868 37.4735 68.2489 37.5152 68.3225 37.5462C68.3962 37.5782 68.5 37.6137 68.6322 37.6527C68.7955 37.7006 68.9277 37.7485 69.0306 37.7956C69.1336 37.8426 69.2205 37.91 69.2933 37.9996C69.366 38.0893 69.4015 38.2055 69.4015 38.3501C69.4015 38.564 69.3199 38.7281 69.1575 38.8417C68.9943 38.9553 68.7911 39.0112 68.5461 39.0112C68.374 39.0112 68.2081 38.9828 68.0484 38.9251C67.8886 38.8683 67.7538 38.7867 67.6455 38.6811L67.768 38.4637C67.8709 38.5578 67.9925 38.6314 68.1327 38.6856C68.2729 38.7397 68.4157 38.7672 68.5604 38.7672C68.7201 38.7672 68.8505 38.7344 68.9517 38.6678C69.0528 38.6013 69.1034 38.5045 69.1034 38.3785C69.1034 38.2907 69.0777 38.2197 69.0262 38.1638C68.9747 38.1079 68.9108 38.0644 68.8336 38.0325C68.7564 38.0005 68.65 37.9642 68.5142 37.9216C68.3545 37.8736 68.2249 37.8266 68.1247 37.7814C68.0253 37.7361 67.941 37.6704 67.8709 37.5844C67.8017 37.4983 67.7671 37.3856 67.7671 37.2472C67.7671 37.0387 67.8443 36.8825 68.0004 36.776C68.1557 36.6704 68.35 36.6172 68.5816 36.6172C68.7174 36.6172 68.8487 36.6349 68.9756 36.6713C69.1025 36.7077 69.2152 36.7574 69.3155 36.8204L69.1974 37.0511C69.1078 36.9943 69.0067 36.9499 68.8958 36.918Z" fill="#1D1B1B"/>
</g>
</svg>
