<svg width="14" height="14" viewBox="0 0 14 14" fill="none" xmlns="http://www.w3.org/2000/svg">
<path opacity="0.34" d="M2.92545 5.74085H4.00693C5.08841 5.74085 5.62915 5.2001 5.62915 4.11862V3.03714C5.62915 1.95566 5.08841 1.41492 4.00693 1.41492H2.92545C1.84396 1.41492 1.30322 1.95566 1.30322 3.03714V4.11862C1.30322 5.2001 1.84396 5.74085 2.92545 5.74085Z" stroke="#4B1FFC" stroke-width="0.811112" stroke-miterlimit="10" stroke-linecap="round" stroke-linejoin="round"/>
<path d="M9.41422 5.74085H10.4957C11.5772 5.74085 12.1179 5.2001 12.1179 4.11862V3.03714C12.1179 1.95566 11.5772 1.41492 10.4957 1.41492H9.41422C8.33273 1.41492 7.79199 1.95566 7.79199 3.03714V4.11862C7.79199 5.2001 8.33273 5.74085 9.41422 5.74085Z" stroke="#4B1FFC" stroke-width="0.811112" stroke-miterlimit="10" stroke-linecap="round" stroke-linejoin="round"/>
<path opacity="0.34" d="M9.41422 12.2297H10.4957C11.5772 12.2297 12.1179 11.689 12.1179 10.6075V9.52603C12.1179 8.44455 11.5772 7.90381 10.4957 7.90381H9.41422C8.33273 7.90381 7.79199 8.44455 7.79199 9.52603V10.6075C7.79199 11.689 8.33273 12.2297 9.41422 12.2297Z" stroke="#4B1FFC" stroke-width="0.811112" stroke-miterlimit="10" stroke-linecap="round" stroke-linejoin="round"/>
<path d="M2.92545 12.2297H4.00693C5.08841 12.2297 5.62915 11.689 5.62915 10.6075V9.52603C5.62915 8.44455 5.08841 7.90381 4.00693 7.90381H2.92545C1.84396 7.90381 1.30322 8.44455 1.30322 9.52603V10.6075C1.30322 11.689 1.84396 12.2297 2.92545 12.2297Z" stroke="#4B1FFC" stroke-width="0.811112" stroke-miterlimit="10" stroke-linecap="round" stroke-linejoin="round"/>
</svg>
