<svg width="5" height="5" viewBox="0 0 5 5" fill="none" xmlns="http://www.w3.org/2000/svg">
<path opacity="0.34" d="M1.36139 2.47965H1.68223C2.00307 2.47965 2.16349 2.31923 2.16349 1.99839V1.67755C2.16349 1.35671 2.00307 1.19629 1.68223 1.19629H1.36139C1.04055 1.19629 0.880127 1.35671 0.880127 1.67755V1.99839C0.880127 2.31923 1.04055 2.47965 1.36139 2.47965Z" stroke="#4B1FFC" stroke-width="0.24063" stroke-miterlimit="10" stroke-linecap="round" stroke-linejoin="round"/>
<path d="M3.28644 2.47965H3.60727C3.92811 2.47965 4.08853 2.31923 4.08853 1.99839V1.67755C4.08853 1.35671 3.92811 1.19629 3.60727 1.19629H3.28644C2.9656 1.19629 2.80518 1.35671 2.80518 1.67755V1.99839C2.80518 2.31923 2.9656 2.47965 3.28644 2.47965Z" stroke="#4B1FFC" stroke-width="0.24063" stroke-miterlimit="10" stroke-linecap="round" stroke-linejoin="round"/>
<path opacity="0.34" d="M3.28644 4.4047H3.60727C3.92811 4.4047 4.08853 4.24428 4.08853 3.92344V3.6026C4.08853 3.28176 3.92811 3.12134 3.60727 3.12134H3.28644C2.9656 3.12134 2.80518 3.28176 2.80518 3.6026V3.92344C2.80518 4.24428 2.9656 4.4047 3.28644 4.4047Z" stroke="#4B1FFC" stroke-width="0.24063" stroke-miterlimit="10" stroke-linecap="round" stroke-linejoin="round"/>
<path d="M1.36139 4.4047H1.68223C2.00307 4.4047 2.16349 4.24428 2.16349 3.92344V3.6026C2.16349 3.28176 2.00307 3.12134 1.68223 3.12134H1.36139C1.04055 3.12134 0.880127 3.28176 0.880127 3.6026V3.92344C0.880127 4.24428 1.04055 4.4047 1.36139 4.4047Z" stroke="#4B1FFC" stroke-width="0.24063" stroke-miterlimit="10" stroke-linecap="round" stroke-linejoin="round"/>
</svg>
