<svg width="14" height="14" viewBox="0 0 14 14" fill="none" xmlns="http://www.w3.org/2000/svg">
<path opacity="0.34" d="M2.92557 5.74085H4.00705C5.08853 5.74085 5.62927 5.2001 5.62927 4.11862V3.03714C5.62927 1.95566 5.08853 1.41492 4.00705 1.41492H2.92557C1.84409 1.41492 1.30334 1.95566 1.30334 3.03714V4.11862C1.30334 5.2001 1.84409 5.74085 2.92557 5.74085Z" stroke="#4B1FFC" stroke-width="0.811112" stroke-miterlimit="10" stroke-linecap="round" stroke-linejoin="round"/>
<path d="M9.41446 5.74085H10.4959C11.5774 5.74085 12.1182 5.2001 12.1182 4.11862V3.03714C12.1182 1.95566 11.5774 1.41492 10.4959 1.41492H9.41446C8.33298 1.41492 7.79224 1.95566 7.79224 3.03714V4.11862C7.79224 5.2001 8.33298 5.74085 9.41446 5.74085Z" stroke="#4B1FFC" stroke-width="0.811112" stroke-miterlimit="10" stroke-linecap="round" stroke-linejoin="round"/>
<path opacity="0.34" d="M9.41446 12.2297H10.4959C11.5774 12.2297 12.1182 11.689 12.1182 10.6075V9.52603C12.1182 8.44455 11.5774 7.90381 10.4959 7.90381H9.41446C8.33298 7.90381 7.79224 8.44455 7.79224 9.52603V10.6075C7.79224 11.689 8.33298 12.2297 9.41446 12.2297Z" stroke="#4B1FFC" stroke-width="0.811112" stroke-miterlimit="10" stroke-linecap="round" stroke-linejoin="round"/>
<path d="M2.92557 12.2297H4.00705C5.08853 12.2297 5.62927 11.689 5.62927 10.6075V9.52603C5.62927 8.44455 5.08853 7.90381 4.00705 7.90381H2.92557C1.84409 7.90381 1.30334 8.44455 1.30334 9.52603V10.6075C1.30334 11.689 1.84409 12.2297 2.92557 12.2297Z" stroke="#4B1FFC" stroke-width="0.811112" stroke-miterlimit="10" stroke-linecap="round" stroke-linejoin="round"/>
</svg>
