<svg width="9" height="10" viewBox="0 0 9 10" fill="none" xmlns="http://www.w3.org/2000/svg">
<path opacity="0.34" d="M2.11945 4.28834H2.80439C3.48933 4.28834 3.83179 3.94587 3.83179 3.26093V2.57599C3.83179 1.89105 3.48933 1.54858 2.80439 1.54858H2.11945C1.43451 1.54858 1.09204 1.89105 1.09204 2.57599V3.26093C1.09204 3.94587 1.43451 4.28834 2.11945 4.28834Z" stroke="#4B1FFC" stroke-width="0.513704" stroke-miterlimit="10" stroke-linecap="round" stroke-linejoin="round"/>
<path d="M6.22907 4.28834H6.91401C7.59894 4.28834 7.94141 3.94587 7.94141 3.26093V2.57599C7.94141 1.89105 7.59894 1.54858 6.91401 1.54858H6.22907C5.54413 1.54858 5.20166 1.89105 5.20166 2.57599V3.26093C5.20166 3.94587 5.54413 4.28834 6.22907 4.28834Z" stroke="#4B1FFC" stroke-width="0.513704" stroke-miterlimit="10" stroke-linecap="round" stroke-linejoin="round"/>
<path opacity="0.34" d="M6.22907 8.39796H6.91401C7.59894 8.39796 7.94141 8.05549 7.94141 7.37055V6.68561C7.94141 6.00067 7.59894 5.6582 6.91401 5.6582H6.22907C5.54413 5.6582 5.20166 6.00067 5.20166 6.68561V7.37055C5.20166 8.05549 5.54413 8.39796 6.22907 8.39796Z" stroke="#4B1FFC" stroke-width="0.513704" stroke-miterlimit="10" stroke-linecap="round" stroke-linejoin="round"/>
<path d="M2.11945 8.39796H2.80439C3.48933 8.39796 3.83179 8.05549 3.83179 7.37055V6.68561C3.83179 6.00067 3.48933 5.6582 2.80439 5.6582H2.11945C1.43451 5.6582 1.09204 6.00067 1.09204 6.68561V7.37055C1.09204 8.05549 1.43451 8.39796 2.11945 8.39796Z" stroke="#4B1FFC" stroke-width="0.513704" stroke-miterlimit="10" stroke-linecap="round" stroke-linejoin="round"/>
</svg>
