<svg width="14" height="14" viewBox="0 0 14 14" fill="none" xmlns="http://www.w3.org/2000/svg">
<path d="M6.71073 8.82048C6.48903 8.82048 6.30518 8.63663 6.30518 8.41493V5.71122C6.30518 5.48952 6.48903 5.30566 6.71073 5.30566C6.93244 5.30566 7.11629 5.48952 7.11629 5.71122V8.41493C7.11629 8.63663 6.93244 8.82048 6.71073 8.82048Z" fill="#5F5E5E"/>
<path d="M6.71079 10.578C6.67834 10.578 6.64049 10.5725 6.60264 10.5671C6.57019 10.5617 6.53775 10.5509 6.5053 10.5347C6.47286 10.5239 6.44041 10.5077 6.40797 10.486C6.38093 10.4644 6.3539 10.4428 6.32686 10.4211C6.22953 10.3184 6.17004 10.1778 6.17004 10.0372C6.17004 9.89662 6.22953 9.75603 6.32686 9.65328C6.3539 9.63165 6.38093 9.61002 6.40797 9.58839C6.44041 9.56677 6.47286 9.55054 6.5053 9.53973C6.53775 9.52351 6.57019 9.51269 6.60264 9.50728C6.67293 9.49106 6.74864 9.49106 6.81353 9.50728C6.85138 9.51269 6.88382 9.52351 6.91627 9.53973C6.94871 9.55054 6.98116 9.56677 7.0136 9.58839C7.04064 9.61002 7.06767 9.63165 7.09471 9.65328C7.19204 9.75603 7.25153 9.89662 7.25153 10.0372C7.25153 10.1778 7.19204 10.3184 7.09471 10.4211C7.06767 10.4428 7.04064 10.4644 7.0136 10.486C6.98116 10.5077 6.94871 10.5239 6.91627 10.5347C6.88382 10.5509 6.85138 10.5617 6.81353 10.5671C6.78108 10.5725 6.74323 10.578 6.71079 10.578Z" fill="#5F5E5E"/>
<path d="M6.60477 2.24905C5.93433 2.2985 5.37531 2.81417 4.97596 3.51021C5.44296 2.68751 6.02472 2.29176 6.60477 2.24905ZM1.67941 9.4393L4.87525 3.69101L1.68442 9.44505C1.68435 9.44518 1.68428 9.44531 1.68421 9.44544C1.28315 10.1652 1.15828 10.9349 1.51485 11.5494C1.51959 11.5575 1.5244 11.5656 1.52927 11.5737C1.52341 11.5643 1.51765 11.5549 1.51199 11.5453C1.20159 11.0146 1.21153 10.2816 1.67935 9.43941C1.67937 9.43937 1.67939 9.43934 1.67941 9.4393ZM6.81658 2.24905C7.39671 2.29177 7.97854 2.68762 8.44557 3.51054C8.04621 2.81433 7.48712 2.29851 6.81658 2.24905Z" fill="#292D32" stroke="#5F5E5E" stroke-width="0.811112"/>
</svg>
