<svg width="14" height="14" viewBox="0 0 14 14" fill="none" xmlns="http://www.w3.org/2000/svg">
<path d="M6.71073 8.82048C6.48903 8.82048 6.30518 8.63663 6.30518 8.41493V5.71122C6.30518 5.48952 6.48903 5.30566 6.71073 5.30566C6.93244 5.30566 7.11629 5.48952 7.11629 5.71122V8.41493C7.11629 8.63663 6.93244 8.82048 6.71073 8.82048Z" fill="#5F5E5E"/>
<path d="M6.71066 10.578C6.67822 10.578 6.64037 10.5725 6.60251 10.5671C6.57007 10.5617 6.53763 10.5509 6.50518 10.5347C6.47274 10.5239 6.44029 10.5077 6.40785 10.486C6.38081 10.4644 6.35377 10.4428 6.32674 10.4211C6.2294 10.3184 6.16992 10.1778 6.16992 10.0372C6.16992 9.89662 6.2294 9.75603 6.32674 9.65328C6.35377 9.63165 6.38081 9.61002 6.40785 9.58839C6.44029 9.56677 6.47274 9.55054 6.50518 9.53973C6.53763 9.52351 6.57007 9.51269 6.60251 9.50728C6.67281 9.49106 6.74851 9.49106 6.8134 9.50728C6.85126 9.51269 6.8837 9.52351 6.91614 9.53973C6.94859 9.55054 6.98103 9.56677 7.01348 9.58839C7.04052 9.61002 7.06755 9.63165 7.09459 9.65328C7.19192 9.75603 7.2514 9.89662 7.2514 10.0372C7.2514 10.1778 7.19192 10.3184 7.09459 10.4211C7.06755 10.4428 7.04052 10.4644 7.01348 10.486C6.98103 10.5077 6.94859 10.5239 6.91614 10.5347C6.8837 10.5509 6.85126 10.5617 6.8134 10.5671C6.78096 10.5725 6.74311 10.578 6.71066 10.578Z" fill="#5F5E5E"/>
<path d="M6.60452 2.24905C5.93409 2.2985 5.37507 2.81417 4.97572 3.51021C5.44272 2.68751 6.02448 2.29176 6.60452 2.24905ZM1.67917 9.4393L4.87501 3.69101L1.68418 9.44505C1.68411 9.44518 1.68403 9.44531 1.68396 9.44544C1.28291 10.1652 1.15804 10.9349 1.51461 11.5494C1.51935 11.5575 1.52415 11.5656 1.52903 11.5737C1.52316 11.5643 1.5174 11.5549 1.51175 11.5453C1.20134 11.0146 1.21128 10.2816 1.67911 9.43941C1.67913 9.43937 1.67915 9.43934 1.67917 9.4393ZM6.81634 2.24905C7.39646 2.29177 7.9783 2.68762 8.44533 3.51054C8.04597 2.81433 7.48688 2.29851 6.81634 2.24905Z" fill="#292D32" stroke="#5F5E5E" stroke-width="0.811112"/>
</svg>
