<svg width="9" height="9" viewBox="0 0 9 9" fill="none" xmlns="http://www.w3.org/2000/svg">
<path d="M4.51711 5.14915C4.37669 5.14915 4.26025 5.03271 4.26025 4.89229V3.17995C4.26025 3.03954 4.37669 2.9231 4.51711 2.9231C4.65752 2.9231 4.77396 3.03954 4.77396 3.17995V4.89229C4.77396 5.03271 4.65752 5.14915 4.51711 5.14915Z" fill="#5F5E5E"/>
<path d="M4.51703 6.26221C4.49648 6.26221 4.47251 6.25879 4.44854 6.25536C4.42799 6.25194 4.40744 6.24509 4.38689 6.23481C4.36634 6.22796 4.3458 6.21769 4.32525 6.20399C4.30812 6.19029 4.291 6.17659 4.27388 6.16289C4.21223 6.09782 4.17456 6.00878 4.17456 5.91974C4.17456 5.8307 4.21223 5.74166 4.27388 5.67659C4.291 5.66289 4.30812 5.64919 4.32525 5.63549C4.3458 5.62179 4.36634 5.61152 4.38689 5.60467C4.40744 5.5944 4.42799 5.58755 4.44854 5.58412C4.49306 5.57385 4.541 5.57385 4.5821 5.58412C4.60607 5.58755 4.62662 5.5944 4.64717 5.60467C4.66772 5.61152 4.68826 5.62179 4.70881 5.63549C4.72594 5.64919 4.74306 5.66289 4.76018 5.67659C4.82183 5.74166 4.8595 5.8307 4.8595 5.91974C4.8595 6.00878 4.82183 6.09782 4.76018 6.16289C4.74306 6.17659 4.72594 6.19029 4.70881 6.20399C4.68826 6.21769 4.66772 6.22796 4.64717 6.23481C4.62662 6.24509 4.60607 6.25194 4.5821 6.25536C4.56155 6.25879 4.53758 6.26221 4.51703 6.26221Z" fill="#5F5E5E"/>
<path d="M4.45013 0.987223C4.02545 1.01855 3.67136 1.34523 3.41844 1.78617C3.71422 1.26498 4.08272 1.01428 4.45013 0.987223ZM1.33074 5.54105L3.35479 1.90043L1.33392 5.54469C1.33386 5.54478 1.33381 5.54488 1.33375 5.54498C1.07977 6.0008 1.0007 6.48824 1.22652 6.87742C1.22952 6.8826 1.23257 6.88773 1.23565 6.89283C1.23194 6.88688 1.22829 6.8809 1.22471 6.87488C1.02812 6.53876 1.03441 6.07448 1.3307 5.54112C1.33072 5.54109 1.33073 5.54107 1.33074 5.54105ZM4.58428 0.987223C4.95164 1.01428 5.32008 1.26491 5.61585 1.78594C5.36293 1.34512 5.00888 1.01854 4.58428 0.987223Z" fill="#292D32" stroke="#5F5E5E" stroke-width="0.513704"/>
</svg>
