<svg width="5" height="5" viewBox="0 0 5 5" fill="none" xmlns="http://www.w3.org/2000/svg">
<path d="M2.48433 2.63001C2.41856 2.63001 2.36401 2.57547 2.36401 2.50969V1.7076C2.36401 1.64182 2.41856 1.58728 2.48433 1.58728C2.5501 1.58728 2.60464 1.64182 2.60464 1.7076V2.50969C2.60464 2.57547 2.5501 2.63001 2.48433 2.63001Z" fill="#5F5E5E"/>
<path d="M2.48439 3.15132C2.47477 3.15132 2.46354 3.14971 2.45231 3.14811C2.44269 3.14651 2.43306 3.1433 2.42343 3.13849C2.41381 3.13528 2.40418 3.13046 2.39456 3.12405C2.38654 3.11763 2.37852 3.11121 2.3705 3.1048C2.34162 3.07432 2.32397 3.03261 2.32397 2.9909C2.32397 2.94919 2.34162 2.90748 2.3705 2.877C2.37852 2.87058 2.38654 2.86417 2.39456 2.85775C2.40418 2.85133 2.41381 2.84652 2.42343 2.84331C2.43306 2.8385 2.44269 2.83529 2.45231 2.83369C2.47317 2.82887 2.49562 2.82887 2.51487 2.83369C2.5261 2.83529 2.53573 2.8385 2.54535 2.84331C2.55498 2.84652 2.5646 2.85133 2.57423 2.85775C2.58225 2.86417 2.59027 2.87058 2.59829 2.877C2.62717 2.90748 2.64481 2.94919 2.64481 2.9909C2.64481 3.03261 2.62717 3.07432 2.59829 3.1048C2.59027 3.11121 2.58225 3.11763 2.57423 3.12405C2.5646 3.13046 2.55498 3.13528 2.54535 3.13849C2.53573 3.1433 2.5261 3.14651 2.51487 3.14811C2.50525 3.14971 2.49402 3.15132 2.48439 3.15132Z" fill="#5F5E5E"/>
<path d="M1.93978 1.10825L0.991709 2.81354C0.852903 3.06339 0.849951 3.28088 0.942044 3.43833C0.942101 3.43843 0.942159 3.43853 0.942217 3.43863L1.93978 1.10825ZM1.93978 1.10825L0.993197 2.81524C0.993177 2.81528 0.993157 2.81531 0.993137 2.81535C0.874154 3.02887 0.837107 3.25722 0.94289 3.43952C0.944297 3.44195 0.945725 3.44436 0.947171 3.44674L1.93978 1.10825ZM2.45181 0.680511C2.2534 0.695658 2.08794 0.848455 1.96969 1.05457C2.10794 0.811018 2.28009 0.693596 2.45181 0.680511ZM2.51682 0.680511C2.68862 0.693601 2.86084 0.811122 2.99913 1.05489C2.88086 0.848614 2.71534 0.695666 2.51682 0.680511Z" fill="#292D32" stroke="#5F5E5E" stroke-width="0.24063"/>
</svg>
