<svg width="32" height="32" viewBox="0 0 32 32" fill="none" xmlns="http://www.w3.org/2000/svg">
<g clip-path="url(#clip0_3674_28707)">
<path d="M6.13489 16.1681C6.13489 16.5104 6.27087 16.8387 6.51291 17.0807C6.75496 17.3228 7.08324 17.4588 7.42555 17.4588C7.76785 17.4588 8.09613 17.3228 8.33818 17.0807C8.58022 16.8387 8.7162 16.5104 8.7162 16.1681C8.7162 15.8258 8.58022 15.4975 8.33818 15.2555C8.09613 15.0134 7.76785 14.8774 7.42555 14.8774C7.08324 14.8774 6.75496 15.0134 6.51291 15.2555C6.27087 15.4975 6.13489 15.8258 6.13489 16.1681Z" stroke="black" stroke-opacity="0.5" stroke-width="2.58131" stroke-linecap="round" stroke-linejoin="round"/>
<path d="M15.1694 16.1681C15.1694 16.5104 15.3054 16.8387 15.5475 17.0807C15.7895 17.3228 16.1178 17.4588 16.4601 17.4588C16.8024 17.4588 17.1307 17.3228 17.3727 17.0807C17.6148 16.8387 17.7507 16.5104 17.7507 16.1681C17.7507 15.8258 17.6148 15.4975 17.3727 15.2555C17.1307 15.0134 16.8024 14.8774 16.4601 14.8774C16.1178 14.8774 15.7895 15.0134 15.5475 15.2555C15.3054 15.4975 15.1694 15.8258 15.1694 16.1681Z" stroke="black" stroke-opacity="0.5" stroke-width="2.58131" stroke-linecap="round" stroke-linejoin="round"/>
<path d="M24.204 16.1681C24.204 16.5104 24.34 16.8387 24.582 17.0807C24.824 17.3228 25.1523 17.4588 25.4946 17.4588C25.8369 17.4588 26.1652 17.3228 26.4073 17.0807C26.6493 16.8387 26.7853 16.5104 26.7853 16.1681C26.7853 15.8258 26.6493 15.4975 26.4073 15.2555C26.1652 15.0134 25.8369 14.8774 25.4946 14.8774C25.1523 14.8774 24.824 15.0134 24.582 15.2555C24.34 15.4975 24.204 15.8258 24.204 16.1681Z" stroke="black" stroke-opacity="0.5" stroke-width="2.58131" stroke-linecap="round" stroke-linejoin="round"/>
</g>
<defs>
<clipPath id="clip0_3674_28707">
<rect width="30.9758" height="30.9758" fill="white" transform="translate(0.97229 0.680176)"/>
</clipPath>
</defs>
</svg>
