<svg width="32" height="32" viewBox="0 0 32 32" fill="none" xmlns="http://www.w3.org/2000/svg">
<g clip-path="url(#clip0_3674_28720)">
<path d="M6.13489 16.1196C6.13489 16.4619 6.27087 16.7902 6.51291 17.0323C6.75496 17.2743 7.08324 17.4103 7.42555 17.4103C7.76785 17.4103 8.09613 17.2743 8.33818 17.0323C8.58022 16.7902 8.7162 16.4619 8.7162 16.1196C8.7162 15.7773 8.58022 15.449 8.33818 15.207C8.09613 14.965 7.76785 14.829 7.42555 14.829C7.08324 14.829 6.75496 14.965 6.51291 15.207C6.27087 15.449 6.13489 15.7773 6.13489 16.1196Z" stroke="black" stroke-opacity="0.5" stroke-width="2.58131" stroke-linecap="round" stroke-linejoin="round"/>
<path d="M15.1694 16.1196C15.1694 16.4619 15.3054 16.7902 15.5475 17.0323C15.7895 17.2743 16.1178 17.4103 16.4601 17.4103C16.8024 17.4103 17.1307 17.2743 17.3727 17.0323C17.6148 16.7902 17.7507 16.4619 17.7507 16.1196C17.7507 15.7773 17.6148 15.449 17.3727 15.207C17.1307 14.965 16.8024 14.829 16.4601 14.829C16.1178 14.829 15.7895 14.965 15.5475 15.207C15.3054 15.449 15.1694 15.7773 15.1694 16.1196Z" stroke="black" stroke-opacity="0.5" stroke-width="2.58131" stroke-linecap="round" stroke-linejoin="round"/>
<path d="M24.204 16.1196C24.204 16.4619 24.34 16.7902 24.582 17.0323C24.824 17.2743 25.1523 17.4103 25.4946 17.4103C25.8369 17.4103 26.1652 17.2743 26.4073 17.0323C26.6493 16.7902 26.7853 16.4619 26.7853 16.1196C26.7853 15.7773 26.6493 15.449 26.4073 15.207C26.1652 14.965 25.8369 14.829 25.4946 14.829C25.1523 14.829 24.824 14.965 24.582 15.207C24.34 15.449 24.204 15.7773 24.204 16.1196Z" stroke="black" stroke-opacity="0.5" stroke-width="2.58131" stroke-linecap="round" stroke-linejoin="round"/>
</g>
<defs>
<clipPath id="clip0_3674_28720">
<rect width="30.9758" height="30.9758" fill="white" transform="translate(0.97229 0.631714)"/>
</clipPath>
</defs>
</svg>
