<svg width="24" height="25" viewBox="0 0 24 25" fill="none" xmlns="http://www.w3.org/2000/svg">
<g clip-path="url(#clip0_3602_3331)">
<path d="M4 12.7739C4 13.0391 4.10536 13.2935 4.29289 13.481C4.48043 13.6686 4.73478 13.7739 5 13.7739C5.26522 13.7739 5.51957 13.6686 5.70711 13.481C5.89464 13.2935 6 13.0391 6 12.7739C6 12.5087 5.89464 12.2544 5.70711 12.0668C5.51957 11.8793 5.26522 11.7739 5 11.7739C4.73478 11.7739 4.48043 11.8793 4.29289 12.0668C4.10536 12.2544 4 12.5087 4 12.7739Z" stroke="black" stroke-opacity="0.5" stroke-width="2" stroke-linecap="round" stroke-linejoin="round"/>
<path d="M11 12.7739C11 13.0391 11.1054 13.2935 11.2929 13.481C11.4804 13.6686 11.7348 13.7739 12 13.7739C12.2652 13.7739 12.5196 13.6686 12.7071 13.481C12.8946 13.2935 13 13.0391 13 12.7739C13 12.5087 12.8946 12.2544 12.7071 12.0668C12.5196 11.8793 12.2652 11.7739 12 11.7739C11.7348 11.7739 11.4804 11.8793 11.2929 12.0668C11.1054 12.2544 11 12.5087 11 12.7739Z" stroke="black" stroke-opacity="0.5" stroke-width="2" stroke-linecap="round" stroke-linejoin="round"/>
<path d="M18 12.7739C18 13.0391 18.1054 13.2935 18.2929 13.481C18.4804 13.6686 18.7348 13.7739 19 13.7739C19.2652 13.7739 19.5196 13.6686 19.7071 13.481C19.8946 13.2935 20 13.0391 20 12.7739C20 12.5087 19.8946 12.2544 19.7071 12.0668C19.5196 11.8793 19.2652 11.7739 19 11.7739C18.7348 11.7739 18.4804 11.8793 18.2929 12.0668C18.1054 12.2544 18 12.5087 18 12.7739Z" stroke="black" stroke-opacity="0.5" stroke-width="2" stroke-linecap="round" stroke-linejoin="round"/>
</g>
<defs>
<clipPath id="clip0_3602_3331">
<rect width="24" height="24" fill="white" transform="translate(0 0.773926)"/>
</clipPath>
</defs>
</svg>
