<svg width="32" height="32" viewBox="0 0 32 32" fill="none" xmlns="http://www.w3.org/2000/svg">
<g clip-path="url(#clip0_3674_25492)">
<path d="M5.33569 16.4675C5.33569 16.8098 5.47167 17.1381 5.71372 17.3801C5.95576 17.6222 6.28405 17.7581 6.62635 17.7581C6.96865 17.7581 7.29694 17.6222 7.53898 17.3801C7.78103 17.1381 7.91701 16.8098 7.91701 16.4675C7.91701 16.1252 7.78103 15.7969 7.53898 15.5548C7.29694 15.3128 6.96865 15.1768 6.62635 15.1768C6.28405 15.1768 5.95576 15.3128 5.71372 15.5548C5.47167 15.7969 5.33569 16.1252 5.33569 16.4675Z" stroke="black" stroke-opacity="0.5" stroke-width="2.58131" stroke-linecap="round" stroke-linejoin="round"/>
<path d="M14.3704 16.4675C14.3704 16.8098 14.5063 17.1381 14.7484 17.3801C14.9904 17.6222 15.3187 17.7581 15.661 17.7581C16.0033 17.7581 16.3316 17.6222 16.5737 17.3801C16.8157 17.1381 16.9517 16.8098 16.9517 16.4675C16.9517 16.1252 16.8157 15.7969 16.5737 15.5548C16.3316 15.3128 16.0033 15.1768 15.661 15.1768C15.3187 15.1768 14.9904 15.3128 14.7484 15.5548C14.5063 15.7969 14.3704 16.1252 14.3704 16.4675Z" stroke="black" stroke-opacity="0.5" stroke-width="2.58131" stroke-linecap="round" stroke-linejoin="round"/>
<path d="M23.4048 16.4675C23.4048 16.8098 23.5408 17.1381 23.7828 17.3801C24.0249 17.6222 24.3531 17.7581 24.6954 17.7581C25.0377 17.7581 25.366 17.6222 25.6081 17.3801C25.8501 17.1381 25.9861 16.8098 25.9861 16.4675C25.9861 16.1252 25.8501 15.7969 25.6081 15.5548C25.366 15.3128 25.0377 15.1768 24.6954 15.1768C24.3531 15.1768 24.0249 15.3128 23.7828 15.5548C23.5408 15.7969 23.4048 16.1252 23.4048 16.4675Z" stroke="black" stroke-opacity="0.5" stroke-width="2.58131" stroke-linecap="round" stroke-linejoin="round"/>
</g>
<defs>
<clipPath id="clip0_3674_25492">
<rect width="30.9758" height="30.9758" fill="white" transform="translate(0.173096 0.979553)"/>
</clipPath>
</defs>
</svg>
