<svg width="32" height="32" viewBox="0 0 32 32" fill="none" xmlns="http://www.w3.org/2000/svg">
<g clip-path="url(#clip0_3674_25505)">
<path d="M5.23535 16.4675C5.23535 16.8098 5.37133 17.1381 5.61338 17.3801C5.85542 17.6222 6.18371 17.7581 6.52601 17.7581C6.86831 17.7581 7.1966 17.6222 7.43864 17.3801C7.68069 17.1381 7.81667 16.8098 7.81667 16.4675C7.81667 16.1252 7.68069 15.7969 7.43864 15.5548C7.1966 15.3128 6.86831 15.1768 6.52601 15.1768C6.18371 15.1768 5.85542 15.3128 5.61338 15.5548C5.37133 15.7969 5.23535 16.1252 5.23535 16.4675Z" stroke="black" stroke-opacity="0.5" stroke-width="2.58131" stroke-linecap="round" stroke-linejoin="round"/>
<path d="M14.2698 16.4675C14.2698 16.8098 14.4058 17.1381 14.6478 17.3801C14.8898 17.6222 15.2181 17.7581 15.5604 17.7581C15.9027 17.7581 16.231 17.6222 16.4731 17.3801C16.7151 17.1381 16.8511 16.8098 16.8511 16.4675C16.8511 16.1252 16.7151 15.7969 16.4731 15.5548C16.231 15.3128 15.9027 15.1768 15.5604 15.1768C15.2181 15.1768 14.8898 15.3128 14.6478 15.5548C14.4058 15.7969 14.2698 16.1252 14.2698 16.4675Z" stroke="black" stroke-opacity="0.5" stroke-width="2.58131" stroke-linecap="round" stroke-linejoin="round"/>
<path d="M23.3044 16.4675C23.3044 16.8098 23.4404 17.1381 23.6825 17.3801C23.9245 17.6222 24.2528 17.7581 24.5951 17.7581C24.9374 17.7581 25.2657 17.6222 25.5077 17.3801C25.7498 17.1381 25.8858 16.8098 25.8858 16.4675C25.8858 16.1252 25.7498 15.7969 25.5077 15.5548C25.2657 15.3128 24.9374 15.1768 24.5951 15.1768C24.2528 15.1768 23.9245 15.3128 23.6825 15.5548C23.4404 15.7969 23.3044 16.1252 23.3044 16.4675Z" stroke="black" stroke-opacity="0.5" stroke-width="2.58131" stroke-linecap="round" stroke-linejoin="round"/>
</g>
<defs>
<clipPath id="clip0_3674_25505">
<rect width="30.9758" height="30.9758" fill="white" transform="translate(0.0727539 0.979553)"/>
</clipPath>
</defs>
</svg>
