<svg width="60" height="61" viewBox="0 0 60 61" fill="none" xmlns="http://www.w3.org/2000/svg">
<rect width="59.9359" height="60" transform="translate(0 0.740723)" fill="white"/>
<path d="M45.1923 10.7407H14.7436C12.1154 10.7407 10 12.8561 10 15.4843V45.9971C10 48.6253 12.1154 50.7407 14.7436 50.7407H45.1923C47.8205 50.7407 49.9359 48.6253 49.9359 45.9971V15.4843C49.9359 12.8561 47.8205 10.7407 45.1923 10.7407ZM27.1795 39.5228C27.1795 40.4202 26.4744 41.1253 25.5769 41.1253H18.9103C18.0128 41.1253 17.3077 40.4202 17.3077 39.5228V19.7151C17.3077 18.8176 18.0128 18.1125 18.9103 18.1125H25.5769C26.4744 18.1125 27.1795 18.8176 27.1795 19.7151V39.5228ZM42.5641 30.4202C42.5641 31.3176 41.859 32.0228 41.0256 32.0228H34.2949C33.3974 32.0228 32.6923 31.3176 32.6923 30.4202V19.7151C32.6923 18.8176 33.3974 18.1125 34.2949 18.1125H40.9615C41.859 18.1125 42.5641 18.8176 42.5641 19.7151V30.4202Z" fill="url(#paint0_linear_3496_32687)"/>
<defs>
<linearGradient id="paint0_linear_3496_32687" x1="6239" y1="4210.74" x2="6239" y2="11.4125" gradientUnits="userSpaceOnUse">
<stop stop-color="#0052CC"/>
<stop offset="1" stop-color="#2684FF"/>
</linearGradient>
</defs>
</svg>
