<svg width="29" height="28" viewBox="0 0 29 28" fill="none" xmlns="http://www.w3.org/2000/svg">
<rect width="28.2156" height="27.7333" transform="translate(0.299927 0.128174)" fill="white"/>
<path d="M14.4078 4.46143C19.8082 4.46143 24.1822 8.8355 24.1822 14.2359C24.1817 16.2839 23.539 18.2802 22.3444 19.9437C21.1499 21.6073 19.4638 22.8544 17.5234 23.5094C17.0347 23.6072 16.8514 23.3017 16.8514 23.0451C16.8514 22.7152 16.8636 21.6645 16.8636 20.3572C16.8636 19.4408 16.5582 18.8543 16.2038 18.5489C18.3786 18.3045 20.6634 17.4737 20.6634 13.7227C20.6634 12.6475 20.2847 11.7801 19.6615 11.0958C19.7593 10.8515 20.1014 9.8496 19.5638 8.50561C19.5638 8.50561 18.7452 8.23681 16.8758 9.5075C16.0939 9.28757 15.263 9.17761 14.4322 9.17761C13.6014 9.17761 12.7705 9.28757 11.9886 9.5075C10.1192 8.24903 9.30061 8.50561 9.30061 8.50561C8.76301 9.8496 9.10512 10.8515 9.20287 11.0958C8.57974 11.7801 8.20098 12.6598 8.20098 13.7227C8.20098 17.4615 10.4735 18.3045 12.6484 18.5489C12.3673 18.7932 12.1108 19.2209 12.0252 19.8562C11.4632 20.1128 10.0581 20.5282 9.17843 19.0498C8.99516 18.7566 8.44534 18.0357 7.67561 18.0479C6.85699 18.0602 7.34572 18.5122 7.68782 18.6955C8.10324 18.9276 8.57974 19.7951 8.68971 20.0761C8.8852 20.626 9.52054 21.6767 11.9764 21.2246C11.9764 22.0433 11.9886 22.813 11.9886 23.0451C11.9886 23.3017 11.8053 23.5949 11.3166 23.5094C9.36981 22.8614 7.6765 21.6169 6.47688 19.9523C5.27725 18.2877 4.63223 16.2877 4.6333 14.2359C4.6333 8.8355 9.00738 4.46143 14.4078 4.46143Z" fill="black"/>
</svg>
