<svg width="27" height="26" viewBox="0 0 27 26" fill="none" xmlns="http://www.w3.org/2000/svg">
<rect width="26.0008" height="26" transform="translate(0.933228 -0.00524902)" fill="white"/>
<path d="M11.6779 7.98346C10.6672 7.98346 9.85022 7.16652 9.85022 6.15573C9.85022 5.14494 10.6672 4.328 11.6779 4.328C12.6887 4.328 13.5057 5.14494 13.5057 6.15573V7.98346H11.6779Z" fill="#36C5F0"/>
<path d="M11.6776 8.91113C12.6884 8.91113 13.5053 9.72807 13.5053 10.7389C13.5053 11.7496 12.6884 12.5666 11.6776 12.5666H7.09445C6.08366 12.5666 5.26672 11.7496 5.26672 10.7389C5.26672 9.72807 6.08366 8.91113 7.09445 8.91113H11.6776Z" fill="#36C5F0"/>
<path d="M18.9446 10.7389C18.9446 9.72807 19.7615 8.91113 20.7723 8.91113C21.7831 8.91113 22.6 9.72807 22.6 10.7389C22.6 11.7496 21.7831 12.5666 20.7723 12.5666H18.9446V10.7389Z" fill="#2EB67D"/>
<path d="M18.0306 10.7389C18.0306 11.7497 17.2136 12.5666 16.2029 12.5666C15.1921 12.5666 14.3751 11.7497 14.3751 10.7389V6.15573C14.3751 5.14494 15.1921 4.328 16.2029 4.328C17.2136 4.328 18.0306 5.14494 18.0306 6.15573V10.7389Z" fill="#2EB67D"/>
<path d="M8.92218 15.2639C8.92218 16.2747 8.10524 17.0916 7.09445 17.0916C6.08366 17.0916 5.26672 16.2747 5.26672 15.2639C5.26672 14.2531 6.08366 13.4362 7.09445 13.4362H8.92218V15.2639Z" fill="#E01E5A"/>
<path d="M9.83606 15.2639C9.83606 14.2531 10.653 13.4362 11.6638 13.4362C12.6746 13.4362 13.4915 14.2531 13.4915 15.2639V19.8332C13.4915 20.844 12.6746 21.6609 11.6638 21.6609C10.653 21.6609 9.83606 20.844 9.83606 19.8332V15.2639Z" fill="#E01E5A"/>
<path d="M16.1899 18.0056C17.2007 18.0056 18.0176 18.8226 18.0176 19.8333C18.0176 20.8441 17.2007 21.6611 16.1899 21.6611C15.1791 21.6611 14.3622 20.8441 14.3622 19.8333V18.0056H16.1899Z" fill="#ECB22E"/>
<path d="M16.1899 17.0917C15.1791 17.0917 14.3622 16.2748 14.3622 15.264C14.3622 14.2532 15.1791 13.4363 16.1899 13.4363H20.7731C21.7839 13.4363 22.6008 14.2532 22.6008 15.264C22.6008 16.2748 21.7839 17.0917 20.7731 17.0917H16.1899Z" fill="#ECB22E"/>
</svg>
