<svg width="51" height="51" viewBox="0 0 51 51" fill="none" xmlns="http://www.w3.org/2000/svg">
<rect width="49.7348" height="49.7334" transform="translate(0.72876 0.489502)" fill="white"/>
<path d="M21.2815 15.7705C19.3481 15.7705 17.7854 14.2079 17.7854 12.2744C17.7854 10.341 19.3481 8.77832 21.2815 8.77832C23.215 8.77832 24.7776 10.341 24.7776 12.2744V15.7705H21.2815Z" fill="#36C5F0"/>
<path d="M21.2807 17.545C23.2142 17.545 24.7768 19.1077 24.7768 21.0412C24.7768 22.9746 23.2142 24.5373 21.2807 24.5373H12.5139C10.5805 24.5373 9.01782 22.9746 9.01782 21.0412C9.01782 19.1077 10.5805 17.545 12.5139 17.545H21.2807Z" fill="#36C5F0"/>
<path d="M35.1812 21.0412C35.1812 19.1077 36.7438 17.545 38.6773 17.545C40.6107 17.545 42.1734 19.1077 42.1734 21.0412C42.1734 22.9746 40.6107 24.5373 38.6773 24.5373H35.1812V21.0412Z" fill="#2EB67D"/>
<path d="M33.4329 21.0412C33.4329 22.9747 31.8702 24.5373 29.9368 24.5373C28.0033 24.5373 26.4407 22.9747 26.4407 21.0412V12.2744C26.4407 10.341 28.0033 8.77832 29.9368 8.77832C31.8702 8.77832 33.4329 10.341 33.4329 12.2744V21.0412Z" fill="#2EB67D"/>
<path d="M16.01 29.6969C16.01 31.6304 14.4474 33.193 12.5139 33.193C10.5805 33.193 9.01782 31.6304 9.01782 29.6969C9.01782 27.7635 10.5805 26.2008 12.5139 26.2008H16.01V29.6969Z" fill="#E01E5A"/>
<path d="M17.7583 29.697C17.7583 27.7636 19.321 26.2009 21.2544 26.2009C23.1879 26.2009 24.7505 27.7636 24.7505 29.697V38.4373C24.7505 40.3708 23.1879 41.9334 21.2544 41.9334C19.321 41.9334 17.7583 40.3708 17.7583 38.4373V29.697Z" fill="#E01E5A"/>
<path d="M29.9119 34.9417C31.8453 34.9417 33.408 36.5043 33.408 38.4378C33.408 40.3712 31.8453 41.9339 29.9119 41.9339C27.9784 41.9339 26.4158 40.3712 26.4158 38.4378V34.9417H29.9119Z" fill="#ECB22E"/>
<path d="M29.9119 33.1933C27.9784 33.1933 26.4158 31.6306 26.4158 29.6972C26.4158 27.7637 27.9784 26.201 29.9119 26.201H38.6787C40.6121 26.201 42.1748 27.7637 42.1748 29.6972C42.1748 31.6306 40.6121 33.1933 38.6787 33.1933H29.9119Z" fill="#ECB22E"/>
</svg>
