<svg width="44" height="44" viewBox="0 0 44 44" fill="none" xmlns="http://www.w3.org/2000/svg">
<rect width="42.8993" height="43.1022" transform="translate(0.768799 0.805054)" fill="white"/>
<path d="M17.5222 27.101H15.1647C11.6087 27.101 9.05786 24.923 9.05786 21.7336H21.7358C22.3923 21.7336 22.8173 22.2011 22.8173 22.8619V35.6184C19.6481 35.6184 17.5222 33.0516 17.5222 29.4734V27.101ZM23.7841 20.7615H21.4255C17.8707 20.7615 15.3198 18.6229 15.3198 15.4335H27.9966C28.6532 15.4335 29.1175 15.8606 29.1175 16.5225V29.279C25.9483 29.279 23.7841 26.7121 23.7841 23.1339V20.7615ZM30.0843 14.4614H27.7257C24.1698 14.4614 21.6189 12.2834 21.6189 9.09399H34.2968C34.9534 9.09399 35.3794 9.5604 35.3794 10.183V22.9395C32.2102 22.9395 30.0843 20.3727 30.0843 16.7944V14.4614Z" fill="#357DE8"/>
</svg>
