<svg width="23" height="24" viewBox="0 0 23 24" fill="none" xmlns="http://www.w3.org/2000/svg">
<rect width="22.4272" height="22.5333" transform="translate(0.533325 0.728027)" fill="white"/>
<path d="M9.29175 14.4753H8.05927C6.20027 14.4753 4.8667 13.3366 4.8667 11.6693H11.4946C11.8378 11.6693 12.06 11.9136 12.06 12.2591V18.9281C10.4031 18.9281 9.29175 17.5862 9.29175 15.7155V14.4753ZM12.5654 11.161H11.3324C9.47392 11.161 8.14036 10.043 8.14036 8.3756H14.7677C15.1109 8.3756 15.3536 8.59888 15.3536 8.94491V15.6139C13.6968 15.6139 12.5654 14.272 12.5654 12.4013V11.161ZM15.8591 7.86739H14.626C12.767 7.86739 11.4335 6.72878 11.4335 5.0614H18.0613C18.4046 5.0614 18.6273 5.30523 18.6273 5.63071V12.2997C16.9705 12.2997 15.8591 10.9578 15.8591 9.0871V7.86739Z" fill="#357DE8"/>
</svg>
