<svg width="31" height="30" viewBox="0 0 31 30" fill="none" xmlns="http://www.w3.org/2000/svg">
<rect width="29.4667" height="29.4667" transform="translate(0.666626 0.261353)" fill="white"/>
<path d="M12.2232 6.01255H17.8648L12.0083 23.3647C11.9481 23.543 11.8335 23.698 11.6806 23.8077C11.5278 23.9175 11.3443 23.9766 11.1562 23.9766H6.76562C6.62303 23.9766 6.48249 23.9427 6.35562 23.8776C6.22875 23.8125 6.1192 23.7182 6.03603 23.6024C5.95286 23.4865 5.89847 23.3526 5.87734 23.2116C5.85622 23.0706 5.86897 22.9265 5.91455 22.7914L11.3709 6.62441C11.431 6.44603 11.5456 6.29102 11.6986 6.18121C11.8515 6.07141 12.035 6.01256 12.2232 6.01255Z" fill="url(#paint0_linear_3674_28828)"/>
<path d="M20.4211 17.6514H11.4749C11.3918 17.6513 11.3105 17.6762 11.2417 17.723C11.1729 17.7697 11.1198 17.8361 11.0893 17.9135C11.0588 17.9909 11.0523 18.0757 11.0706 18.1568C11.089 18.2379 11.1313 18.3116 11.1922 18.3683L16.9408 23.7339C17.1082 23.89 17.3285 23.9768 17.5574 23.9767H22.6231L20.4211 17.6514Z" fill="#0078D4"/>
<path d="M12.2232 6.01258C12.0329 6.01185 11.8473 6.07199 11.6936 6.18421C11.5399 6.29644 11.4261 6.45487 11.3689 6.63636L5.92122 22.7767C5.87257 22.9123 5.8573 23.0576 5.8767 23.2004C5.89609 23.3431 5.94958 23.4791 6.03264 23.5968C6.1157 23.7145 6.22588 23.8105 6.35387 23.8766C6.48187 23.9427 6.6239 23.977 6.76795 23.9766H11.2718C11.4395 23.9467 11.5963 23.8727 11.7261 23.7623C11.8559 23.6519 11.9541 23.5091 12.0106 23.3483L13.097 20.1466L16.9775 23.766C17.1401 23.9005 17.3441 23.9749 17.5551 23.9766H22.602L20.3885 17.6513L13.9359 17.6528L17.8851 6.01258H12.2232Z" fill="url(#paint1_linear_3674_28828)"/>
<path d="M19.4289 6.62357C19.3688 6.44548 19.2544 6.29073 19.1017 6.18111C18.949 6.0715 18.7658 6.01255 18.5779 6.01257H12.2904C12.4784 6.01258 12.6616 6.07154 12.8142 6.18115C12.9669 6.29076 13.0814 6.4455 13.1415 6.62357L18.598 22.7912C18.6436 22.9264 18.6564 23.0704 18.6353 23.2115C18.6142 23.3525 18.5598 23.4865 18.4766 23.6024C18.3935 23.7182 18.2839 23.8126 18.157 23.8777C18.0301 23.9429 17.8896 23.9768 17.7469 23.9768H24.0346C24.1772 23.9768 24.3177 23.9428 24.4446 23.8777C24.5715 23.8125 24.681 23.7181 24.7641 23.6023C24.8473 23.4864 24.9017 23.3525 24.9228 23.2114C24.9438 23.0704 24.9311 22.9264 24.8855 22.7912L19.4289 6.62357Z" fill="url(#paint2_linear_3674_28828)"/>
<defs>
<linearGradient id="paint0_linear_3674_28828" x1="14.2794" y1="7.34375" x2="8.42052" y2="24.6524" gradientUnits="userSpaceOnUse">
<stop stop-color="#114A8B"/>
<stop offset="1" stop-color="#0669BC"/>
</linearGradient>
<linearGradient id="paint1_linear_3674_28828" x1="16.1095" y1="15.4101" x2="14.7543" y2="15.8683" gradientUnits="userSpaceOnUse">
<stop stop-opacity="0.3"/>
<stop offset="0.071" stop-opacity="0.2"/>
<stop offset="0.321" stop-opacity="0.1"/>
<stop offset="0.623" stop-opacity="0.05"/>
<stop offset="1" stop-opacity="0"/>
</linearGradient>
<linearGradient id="paint2_linear_3674_28828" x1="15.3643" y1="6.83894" x2="21.7956" y2="23.9732" gradientUnits="userSpaceOnUse">
<stop stop-color="#3CCBF4"/>
<stop offset="1" stop-color="#2892DF"/>
</linearGradient>
</defs>
</svg>
