<svg width="51" height="51" viewBox="0 0 51 51" fill="none" xmlns="http://www.w3.org/2000/svg">
<rect width="49.6802" height="49.7333" transform="translate(0.879883 0.489502)" fill="white"/>
<path d="M38.3395 8.77832H13.1009C10.9224 8.77832 9.16895 10.5317 9.16895 12.7102V38.002C9.16895 40.1805 10.9224 41.9339 13.1009 41.9339H38.3395C40.518 41.9339 42.2714 40.1805 42.2714 38.002V12.7102C42.2714 10.5317 40.518 8.77832 38.3395 8.77832ZM23.4088 32.6354C23.4088 33.3793 22.8244 33.9638 22.0805 33.9638H16.5546C15.8107 33.9638 15.2262 33.3793 15.2262 32.6354V16.2171C15.2262 15.4732 15.8107 14.8887 16.5546 14.8887H22.0805C22.8244 14.8887 23.4088 15.4732 23.4088 16.2171V32.6354ZM36.161 25.0904C36.161 25.8343 35.5765 26.4188 34.8858 26.4188H29.3067C28.5628 26.4188 27.9783 25.8343 27.9783 25.0904V16.2171C27.9783 15.4732 28.5628 14.8887 29.3067 14.8887H34.8326C35.5765 14.8887 36.161 15.4732 36.161 16.2171V25.0904Z" fill="url(#paint0_linear_3674_25617)"/>
<defs>
<linearGradient id="paint0_linear_3674_25617" x1="5172.32" y1="3490.11" x2="5172.32" y2="9.33517" gradientUnits="userSpaceOnUse">
<stop stop-color="#0052CC"/>
<stop offset="1" stop-color="#2684FF"/>
</linearGradient>
</defs>
</svg>
