<svg width="27" height="26" viewBox="0 0 27 26" fill="none" xmlns="http://www.w3.org/2000/svg">
<rect width="25.9722" height="26" transform="translate(0.199951 -0.00524902)" fill="white"/>
<path d="M19.7833 4.328H6.58888C5.44999 4.328 4.53333 5.24467 4.53333 6.38356V19.6058C4.53333 20.7447 5.44999 21.6613 6.58888 21.6613H19.7833C20.9222 21.6613 21.8389 20.7447 21.8389 19.6058V6.38356C21.8389 5.24467 20.9222 4.328 19.7833 4.328ZM11.9778 16.8002C11.9778 17.1891 11.6722 17.4947 11.2833 17.4947H8.39444C8.00555 17.4947 7.69999 17.1891 7.69999 16.8002V8.21689C7.69999 7.828 8.00555 7.52245 8.39444 7.52245H11.2833C11.6722 7.52245 11.9778 7.828 11.9778 8.21689V16.8002ZM18.6444 12.8558C18.6444 13.2447 18.3389 13.5502 17.9778 13.5502H15.0611C14.6722 13.5502 14.3667 13.2447 14.3667 12.8558V8.21689C14.3667 7.828 14.6722 7.52245 15.0611 7.52245H17.95C18.3389 7.52245 18.6444 7.828 18.6444 8.21689V12.8558Z" fill="url(#paint0_linear_3674_28810)"/>
<defs>
<linearGradient id="paint0_linear_3674_28810" x1="2703.77" y1="1824.33" x2="2703.77" y2="4.61912" gradientUnits="userSpaceOnUse">
<stop stop-color="#0052CC"/>
<stop offset="1" stop-color="#2684FF"/>
</linearGradient>
</defs>
</svg>
