<svg width="17" height="17" viewBox="0 0 17 17" fill="none" xmlns="http://www.w3.org/2000/svg">
<g clip-path="url(#clip0_3674_25050)">
<path d="M2.25635 6.71968C2.25635 7.33761 2.37806 7.9495 2.61453 8.5204C2.85101 9.0913 3.19762 9.61003 3.63456 10.047C4.07151 10.4839 4.59024 10.8305 5.16114 11.067C5.73205 11.3035 6.34393 11.4252 6.96187 11.4252C7.57981 11.4252 8.1917 11.3035 8.7626 11.067C9.3335 10.8305 9.85223 10.4839 10.2892 10.047C10.7261 9.61003 11.0727 9.0913 11.3092 8.5204C11.5457 7.9495 11.6674 7.33761 11.6674 6.71968C11.6674 6.10174 11.5457 5.48985 11.3092 4.91895C11.0727 4.34805 10.7261 3.82932 10.2892 3.39237C9.85223 2.95542 9.3335 2.60881 8.7626 2.37234C8.1917 2.13586 7.57981 2.01415 6.96187 2.01415C6.34393 2.01415 5.73205 2.13586 5.16114 2.37234C4.59024 2.60881 4.07151 2.95542 3.63456 3.39237C3.19762 3.82932 2.85101 4.34805 2.61453 4.91895C2.37806 5.48985 2.25635 6.10174 2.25635 6.71968Z" stroke="#808080" stroke-width="1.36124" stroke-linecap="round" stroke-linejoin="round"/>
<path d="M14.3561 14.1141L10.3228 10.0807" stroke="#808080" stroke-width="1.36124" stroke-linecap="round" stroke-linejoin="round"/>
</g>
<defs>
<clipPath id="clip0_3674_25050">
<rect width="16.1332" height="16.1332" fill="white" transform="translate(0.239258 -0.00249481)"/>
</clipPath>
</defs>
</svg>
