<svg width="52" height="53" viewBox="0 0 52 53" fill="none" xmlns="http://www.w3.org/2000/svg">
<rect width="51.7552" height="52" transform="translate(0 0.740723)" fill="white"/>
<path d="M20.2116 32.465H17.3675C13.0775 32.465 10 29.8374 10 25.9896H25.295C26.0872 25.9896 26.5999 26.5536 26.5999 27.3508V42.7407C22.7764 42.7407 20.2116 39.644 20.2116 35.3271V32.465ZM27.7662 24.8168H24.9208C20.6321 24.8168 17.5546 22.2367 17.5546 18.3889H32.8484C33.6405 18.3889 34.2006 18.9041 34.2006 19.7027V35.0926C30.3772 35.0926 27.7662 31.9959 27.7662 27.679V24.8168ZM35.367 17.2161H32.5215C28.2315 17.2161 25.154 14.5885 25.154 10.7407H40.4491C41.2412 10.7407 41.7552 11.3034 41.7552 12.0545V27.4444C37.9317 27.4444 35.367 24.3477 35.367 20.0308V17.2161Z" fill="#357DE8"/>
</svg>
