<svg width="9" height="9" viewBox="0 0 9 9" fill="none" xmlns="http://www.w3.org/2000/svg">
<g clip-path="url(#clip0_3674_28243)">
<path d="M1.74475 4.0104C1.74475 4.29369 1.80055 4.57421 1.90896 4.83594C2.01737 5.09766 2.17627 5.33547 2.37659 5.53579C2.5769 5.73611 2.81471 5.89501 3.07644 6.00342C3.33817 6.11183 3.61868 6.16763 3.90197 6.16763C4.18527 6.16763 4.46578 6.11183 4.72751 6.00342C4.98924 5.89501 5.22705 5.73611 5.42736 5.53579C5.62768 5.33547 5.78658 5.09766 5.89499 4.83594C6.0034 4.57421 6.0592 4.29369 6.0592 4.0104C6.0592 3.72711 6.0034 3.4466 5.89499 3.18487C5.78658 2.92314 5.62768 2.68533 5.42736 2.48502C5.22705 2.2847 4.98924 2.1258 4.72751 2.01739C4.46578 1.90898 4.18527 1.85318 3.90197 1.85318C3.61868 1.85318 3.33817 1.90898 3.07644 2.01739C2.81471 2.1258 2.5769 2.2847 2.37659 2.48502C2.17627 2.68533 2.01737 2.92314 1.90896 3.18487C1.80055 3.4466 1.74475 3.72711 1.74475 4.0104Z" stroke="#808080" stroke-width="0.624054" stroke-linecap="round" stroke-linejoin="round"/>
<path d="M7.2918 7.40032L5.44275 5.55127" stroke="#808080" stroke-width="0.624054" stroke-linecap="round" stroke-linejoin="round"/>
</g>
<defs>
<clipPath id="clip0_3674_28243">
<rect width="7.39619" height="7.39619" fill="white" transform="translate(0.820068 0.92865)"/>
</clipPath>
</defs>
</svg>
