<svg width="32" height="32" viewBox="0 0 32 32" fill="none" xmlns="http://www.w3.org/2000/svg">
<g clip-path="url(#clip0_3674_25497)">
<path d="M15.6644 0.30481C24.2215 0.30481 31.1523 7.23564 31.1523 15.7927C31.1515 19.0378 30.133 22.2009 28.2403 24.8369C26.3475 27.4728 23.6758 29.4489 20.6012 30.4868C19.8268 30.6417 19.5364 30.1577 19.5364 29.7512C19.5364 29.2284 19.5557 27.5635 19.5557 25.492C19.5557 24.04 19.0717 23.1107 18.5103 22.6267C21.9564 22.2395 25.5767 20.9231 25.5767 14.9796C25.5767 13.2759 24.9765 11.9014 23.9891 10.8172C24.144 10.43 24.6861 8.84251 23.8343 6.71292C23.8343 6.71292 22.5372 6.28701 19.5751 8.30043C18.3361 7.95196 17.0196 7.77772 15.7031 7.77772C14.3867 7.77772 13.0702 7.95196 11.8312 8.30043C8.86909 6.30637 7.57198 6.71292 7.57198 6.71292C6.72015 8.84251 7.26223 10.43 7.4171 10.8172C6.42975 11.9014 5.8296 13.2953 5.8296 14.9796C5.8296 20.9037 9.43053 22.2395 12.8766 22.6267C12.4313 23.0139 12.0248 23.6915 11.8892 24.6982C10.9987 25.1048 8.77229 25.763 7.37839 23.4205C7.08799 22.9558 6.21679 21.8136 4.99712 21.833C3.70001 21.8523 4.47441 22.5687 5.01648 22.859C5.67472 23.2269 6.42975 24.6014 6.60399 25.0467C6.91375 25.9179 7.92046 27.5829 11.8118 26.8665C11.8118 28.1637 11.8312 29.3833 11.8312 29.7512C11.8312 30.1577 11.5408 30.6224 10.7664 30.4868C7.68163 29.4601 4.99854 27.488 3.09771 24.8505C1.19687 22.2129 0.174809 19.0438 0.176516 15.7927C0.176516 7.23564 7.10735 0.30481 15.6644 0.30481Z" fill="black"/>
</g>
<defs>
<clipPath id="clip0_3674_25497">
<rect width="30.9758" height="30.9758" fill="white" transform="translate(0.176514 0.30481)"/>
</clipPath>
</defs>
</svg>
