<svg width="66" height="65" viewBox="0 0 66 65" fill="none" xmlns="http://www.w3.org/2000/svg">
<rect width="65.1129" height="64" transform="translate(0 0.740723)" fill="white"/>
<path d="M32.5565 10.7407C45.0189 10.7407 55.1129 20.8347 55.1129 33.2972C55.1117 38.0233 53.6284 42.6301 50.8719 46.4691C48.1153 50.3081 44.2242 53.1859 39.7463 54.6976C38.6185 54.9232 38.1956 54.2183 38.1956 53.6262C38.1956 52.8649 38.2238 50.4401 38.2238 47.4232C38.2238 45.3085 37.5189 43.9551 36.7012 43.2502C41.72 42.6863 46.9926 40.769 46.9926 32.113C46.9926 29.6318 46.1185 27.6299 44.6806 26.0509C44.9061 25.487 45.6956 23.175 44.455 20.0735C44.455 20.0735 42.5659 19.4532 38.252 22.3855C36.4475 21.878 34.5302 21.6242 32.6129 21.6242C30.6956 21.6242 28.7783 21.878 26.9737 22.3855C22.6598 19.4814 20.7707 20.0735 20.7707 20.0735C19.5301 23.175 20.3196 25.487 20.5451 26.0509C19.1072 27.6299 18.2331 29.66 18.2331 32.113C18.2331 40.7408 23.4775 42.6863 28.4963 43.2502C27.8478 43.8141 27.2557 44.801 27.0583 46.2672C25.7613 46.8593 22.5188 47.8179 20.4888 44.4062C20.0658 43.7295 18.797 42.066 17.0207 42.0942C15.1316 42.1224 16.2594 43.1656 17.0489 43.5886C18.0075 44.1243 19.1072 46.1262 19.3609 46.7747C19.8121 48.0435 21.2782 50.4683 26.9455 49.4251C26.9455 51.3142 26.9737 53.0905 26.9737 53.6262C26.9737 54.2183 26.5508 54.895 25.423 54.6976C20.9304 53.2022 17.0228 50.3302 14.2544 46.4889C11.486 42.6476 9.99752 38.0321 10 33.2972C10 20.8347 20.094 10.7407 32.5565 10.7407Z" fill="black"/>
</svg>
