<svg width="55" height="54" viewBox="0 0 55 54" fill="none" xmlns="http://www.w3.org/2000/svg">
<rect width="53.9714" height="53.0489" transform="translate(0.819824 0.831787)" fill="white"/>
<path d="M27.8054 9.12073C38.1354 9.12073 46.5022 17.4875 46.5022 27.8175C46.5012 31.735 45.2718 35.5535 42.9869 38.7356C40.702 41.9177 37.4767 44.3031 33.7651 45.5561C32.8302 45.7431 32.4796 45.1588 32.4796 44.668C32.4796 44.037 32.503 42.0271 32.503 39.5264C32.503 37.7736 31.9187 36.6518 31.241 36.0675C35.401 35.6001 39.7714 34.0108 39.7714 26.8359C39.7714 24.7793 39.0469 23.12 37.855 21.8112C38.0419 21.3438 38.6963 19.4273 37.668 16.8565C37.668 16.8565 36.1022 16.3424 32.5264 18.773C31.0306 18.3523 29.4414 18.1419 27.8522 18.1419C26.263 18.1419 24.6737 18.3523 23.178 18.773C19.6022 16.3657 18.0364 16.8565 18.0364 16.8565C17.008 19.4273 17.6624 21.3438 17.8494 21.8112C16.6575 23.12 15.933 24.8027 15.933 26.8359C15.933 33.9875 20.28 35.6001 24.44 36.0675C23.9025 36.5349 23.4117 37.3529 23.2481 38.5682C22.173 39.059 19.4854 39.8536 17.8027 37.0257C17.4521 36.4648 16.4004 35.0859 14.928 35.1093C13.3622 35.1327 14.297 35.9974 14.9514 36.3479C15.746 36.792 16.6575 38.4513 16.8678 38.9889C17.2418 40.0406 18.457 42.0505 23.1546 41.1857C23.1546 42.7516 23.178 44.224 23.178 44.668C23.178 45.1588 22.8274 45.7197 21.8926 45.5561C18.1687 44.3166 14.9297 41.936 12.6351 38.752C10.3404 35.568 9.10658 31.7422 9.10865 27.8175C9.10865 17.4875 17.4755 9.12073 27.8054 9.12073Z" fill="black"/>
</svg>
