<svg width="14" height="14" viewBox="0 0 14 14" fill="none" xmlns="http://www.w3.org/2000/svg">
<g clip-path="url(#clip0_3602_2860)">
<path d="M2.46875 5.91976C2.46875 6.39854 2.56305 6.87263 2.74627 7.31496C2.92949 7.75729 3.19804 8.15921 3.53659 8.49775C3.87514 8.8363 4.27705 9.10485 4.71938 9.28807C5.16172 9.47129 5.63581 9.56559 6.11458 9.56559C6.59336 9.56559 7.06745 9.47129 7.50979 9.28807C7.95212 9.10485 8.35403 8.8363 8.69258 8.49775C9.03113 8.15921 9.29968 7.75729 9.4829 7.31496C9.66612 6.87263 9.76042 6.39854 9.76042 5.91976C9.76042 5.44098 9.66612 4.96689 9.4829 4.52456C9.29968 4.08223 9.03113 3.68031 8.69258 3.34177C8.35403 3.00322 7.95212 2.73467 7.50979 2.55145C7.06745 2.36823 6.59336 2.27393 6.11458 2.27393C5.63581 2.27393 5.16172 2.36823 4.71938 2.55145C4.27705 2.73467 3.87514 3.00322 3.53659 3.34177C3.19804 3.68031 2.92949 4.08223 2.74627 4.52456C2.56305 4.96689 2.46875 5.44098 2.46875 5.91976Z" stroke="#808080" stroke-width="1.05469" stroke-linecap="round" stroke-linejoin="round"/>
<path d="M11.8437 11.6489L8.71875 8.52393" stroke="#808080" stroke-width="1.05469" stroke-linecap="round" stroke-linejoin="round"/>
</g>
<defs>
<clipPath id="clip0_3602_2860">
<rect width="12.5" height="12.5" fill="white" transform="translate(0.90625 0.711426)"/>
</clipPath>
</defs>
</svg>
