<svg width="31" height="31" viewBox="0 0 31 31" fill="none" xmlns="http://www.w3.org/2000/svg">
<g clip-path="url(#clip0_3674_28712)">
<path d="M15.4879 0.0296631C24.045 0.0296631 30.9758 6.96049 30.9758 15.5176C30.975 18.7627 29.9565 21.9258 28.0637 24.5618C26.171 27.1977 23.4993 29.1737 20.4247 30.2117C19.6503 30.3666 19.3599 29.8826 19.3599 29.476C19.3599 28.9533 19.3792 27.2884 19.3792 25.2168C19.3792 23.7649 18.8952 22.8356 18.3338 22.3516C21.7798 21.9644 25.4001 20.6479 25.4001 14.7044C25.4001 13.0008 24.8 11.6262 23.8126 10.5421C23.9675 10.1549 24.5096 8.56736 23.6578 6.43778C23.6578 6.43778 22.3606 6.01186 19.3986 8.02529C18.1596 7.67681 16.8431 7.50257 15.5266 7.50257C14.2101 7.50257 12.8937 7.67681 11.6546 8.02529C8.69258 6.03122 7.39547 6.43778 7.39547 6.43778C6.54364 8.56736 7.08571 10.1549 7.24059 10.5421C6.25324 11.6262 5.65308 13.0201 5.65308 14.7044C5.65308 20.6286 9.25402 21.9644 12.7001 22.3516C12.2548 22.7388 11.8482 23.4164 11.7127 24.4231C10.8222 24.8296 8.59578 25.4879 7.20187 23.1453C6.91147 22.6807 6.04028 21.5385 4.82061 21.5578C3.5235 21.5772 4.29789 22.2935 4.83997 22.5839C5.4982 22.9517 6.25324 24.3263 6.42748 24.7716C6.73723 25.6428 7.74395 27.3077 11.6353 26.5914C11.6353 27.8885 11.6546 29.1082 11.6546 29.476C11.6546 29.8826 11.3642 30.3472 10.5898 30.2117C7.50512 29.1849 4.82203 27.2129 2.92119 24.5753C1.02036 21.9378 -0.0017046 18.7687 2.13406e-06 15.5176C2.13406e-06 6.96049 6.93083 0.0296631 15.4879 0.0296631Z" fill="black"/>
</g>
<defs>
<clipPath id="clip0_3674_28712">
<rect width="30.9758" height="30.9758" fill="white" transform="translate(0 0.0296631)"/>
</clipPath>
</defs>
</svg>
