<svg width="60" height="61" viewBox="0 0 60 61" fill="none" xmlns="http://www.w3.org/2000/svg">
<rect width="60.0018" height="60.0001" transform="translate(0 0.740723)" fill="white"/>
<path d="M24.7952 19.1764C22.4626 19.1764 20.5774 17.2911 20.5774 14.9586C20.5774 12.626 22.4626 10.7407 24.7952 10.7407C27.1278 10.7407 29.0131 12.626 29.0131 14.9586V19.1764H24.7952Z" fill="#36C5F0"/>
<path d="M24.7944 21.3171C27.127 21.3171 29.0122 23.2024 29.0122 25.535C29.0122 27.8676 27.127 29.7528 24.7944 29.7528H14.2178C11.8852 29.7528 10 27.8676 10 25.535C10 23.2024 11.8852 21.3171 14.2178 21.3171H24.7944Z" fill="#36C5F0"/>
<path d="M41.5643 25.535C41.5643 23.2024 43.4496 21.3171 45.7822 21.3171C48.1148 21.3171 50 23.2024 50 25.535C50 27.8676 48.1148 29.7528 45.7822 29.7528H41.5643V25.535Z" fill="#2EB67D"/>
<path d="M39.4551 25.5351C39.4551 27.8677 37.5698 29.7529 35.2372 29.7529C32.9047 29.7529 31.0194 27.8677 31.0194 25.5351V14.9586C31.0194 12.626 32.9047 10.7407 35.2372 10.7407C37.5698 10.7407 39.4551 12.626 39.4551 14.9586V25.5351Z" fill="#2EB67D"/>
<path d="M18.4357 35.9775C18.4357 38.3101 16.5504 40.1954 14.2178 40.1954C11.8852 40.1954 10 38.3101 10 35.9775C10 33.6449 11.8852 31.7597 14.2178 31.7597H18.4357V35.9775Z" fill="#E01E5A"/>
<path d="M20.5449 35.9775C20.5449 33.6449 22.4302 31.7596 24.7628 31.7596C27.0953 31.7596 28.9806 33.6449 28.9806 35.9775V46.522C28.9806 48.8546 27.0953 50.7399 24.7628 50.7399C22.4302 50.7399 20.5449 48.8546 20.5449 46.522V35.9775Z" fill="#E01E5A"/>
<path d="M35.2075 42.3051C37.5401 42.3051 39.4253 44.1903 39.4253 46.5229C39.4253 48.8555 37.5401 50.7407 35.2075 50.7407C32.8749 50.7407 30.9896 48.8555 30.9896 46.5229V42.3051H35.2075Z" fill="#ECB22E"/>
<path d="M35.2075 40.1957C32.8749 40.1957 30.9896 38.3105 30.9896 35.9779C30.9896 33.6453 32.8749 31.7601 35.2075 31.7601H45.784C48.1166 31.7601 50.0018 33.6453 50.0018 35.9779C50.0018 38.3105 48.1166 40.1957 45.784 40.1957H35.2075Z" fill="#ECB22E"/>
</svg>
