<svg width="57" height="57" viewBox="0 0 57 57" fill="none" xmlns="http://www.w3.org/2000/svg">
<rect width="56.3644" height="56.3644" transform="translate(0.644531 0.173828)" fill="white"/>
<path d="M22.75 11.1749H33.5413L22.3389 44.3665C22.2238 44.7075 22.0046 45.0039 21.7122 45.2139C21.4198 45.4238 21.0689 45.5368 20.7089 45.5369H12.3106C12.0379 45.5369 11.769 45.472 11.5263 45.3475C11.2837 45.223 11.0741 45.0425 10.915 44.821C10.7559 44.5995 10.6519 44.3432 10.6115 44.0735C10.5711 43.8038 10.5955 43.5283 10.6827 43.2698L21.1196 12.3452C21.2347 12.004 21.4539 11.7075 21.7464 11.4975C22.0389 11.2874 22.3899 11.1749 22.75 11.1749Z" fill="url(#paint0_linear_3674_25635)"/>
<path d="M38.4312 33.4377H21.3188C21.1597 33.4376 21.0042 33.4853 20.8726 33.5747C20.7411 33.6642 20.6395 33.7912 20.5811 33.9392C20.5227 34.0872 20.5103 34.2493 20.5454 34.4045C20.5805 34.5597 20.6615 34.7007 20.7779 34.8091L31.7739 45.0724C32.0941 45.3711 32.5156 45.5371 32.9535 45.537H42.6432L38.4312 33.4377Z" fill="#0078D4"/>
<path d="M22.75 11.1749C22.386 11.1735 22.0311 11.2886 21.7371 11.5032C21.4431 11.7179 21.2254 12.021 21.1159 12.3681L10.6955 43.2418C10.6025 43.5011 10.5732 43.7791 10.6103 44.0521C10.6474 44.3252 10.7498 44.5853 10.9086 44.8104C11.0675 45.0356 11.2783 45.2191 11.5231 45.3456C11.7679 45.4721 12.0396 45.5377 12.3152 45.5369H20.9302C21.2511 45.4796 21.551 45.3382 21.7993 45.127C22.0476 44.9158 22.2354 44.6425 22.3435 44.3351L24.4215 38.2108L31.8442 45.1341C32.1553 45.3914 32.5455 45.5337 32.9491 45.5369H42.6028L38.3688 33.4377L26.0262 33.4406L33.5803 11.1749H22.75Z" fill="url(#paint1_linear_3674_25635)"/>
<path d="M36.5331 12.3437C36.4182 12.003 36.1993 11.707 35.9072 11.4973C35.6152 11.2876 35.2647 11.1749 34.9052 11.1749H22.8784C23.2379 11.1749 23.5884 11.2877 23.8804 11.4974C24.1725 11.7071 24.3914 12.003 24.5064 12.3437L34.9437 43.2695C35.031 43.528 35.0554 43.8035 35.0151 44.0733C34.9747 44.3431 34.8707 44.5994 34.7116 44.8211C34.5525 45.0427 34.3429 45.2232 34.1002 45.3478C33.8575 45.4724 33.5886 45.5373 33.3158 45.5373H45.343C45.6157 45.5373 45.8846 45.4722 46.1272 45.3477C46.3699 45.2231 46.5794 45.0425 46.7385 44.8209C46.8975 44.5993 47.0015 44.343 47.0418 44.0732C47.0822 43.8035 47.0577 43.528 46.9705 43.2695L36.5331 12.3437Z" fill="url(#paint2_linear_3674_25635)"/>
<defs>
<linearGradient id="paint0_linear_3674_25635" x1="26.6831" y1="13.7212" x2="15.4761" y2="46.8295" gradientUnits="userSpaceOnUse">
<stop stop-color="#114A8B"/>
<stop offset="1" stop-color="#0669BC"/>
</linearGradient>
<linearGradient id="paint1_linear_3674_25635" x1="30.1839" y1="29.1506" x2="27.5916" y2="30.0272" gradientUnits="userSpaceOnUse">
<stop stop-opacity="0.3"/>
<stop offset="0.071" stop-opacity="0.2"/>
<stop offset="0.321" stop-opacity="0.1"/>
<stop offset="0.623" stop-opacity="0.05"/>
<stop offset="1" stop-opacity="0"/>
</linearGradient>
<linearGradient id="paint2_linear_3674_25635" x1="28.7581" y1="12.7556" x2="41.0601" y2="45.5303" gradientUnits="userSpaceOnUse">
<stop stop-color="#3CCBF4"/>
<stop offset="1" stop-color="#2892DF"/>
</linearGradient>
</defs>
</svg>
