<svg width="68" height="69" viewBox="0 0 68 69" fill="none" xmlns="http://www.w3.org/2000/svg">
<rect width="68" height="68" transform="translate(0 0.740723)" fill="white"/>
<path d="M26.669 14.0127H39.688L26.173 54.0562C26.0341 54.4677 25.7697 54.8252 25.4169 55.0785C25.0641 55.3318 24.6408 55.4681 24.2065 55.4682H14.0745C13.7455 55.4682 13.4211 55.3899 13.1284 55.2398C12.8356 55.0896 12.5828 54.8718 12.3908 54.6046C12.1989 54.3373 12.0734 54.0282 12.0246 53.7028C11.9759 53.3773 12.0053 53.045 12.1105 52.7332L24.702 15.4247C24.8409 15.0131 25.1053 14.6553 25.4582 14.4019C25.8111 14.1485 26.2346 14.0127 26.669 14.0127Z" fill="url(#paint0_linear_3496_32705)"/>
<path d="M45.5875 40.8712H24.9425C24.7506 40.871 24.563 40.9286 24.4043 41.0365C24.2456 41.1444 24.123 41.2976 24.0526 41.4762C23.9822 41.6547 23.9672 41.8503 24.0095 42.0375C24.0519 42.2247 24.1496 42.3949 24.29 42.5257L37.556 54.9077C37.9423 55.268 38.4508 55.4683 38.979 55.4682H50.669L45.5875 40.8712Z" fill="#0078D4"/>
<path d="M26.669 14.0127C26.2298 14.011 25.8016 14.1498 25.4469 14.4088C25.0922 14.6678 24.8296 15.0334 24.6975 15.4522L12.126 52.6992C12.0137 53.0121 11.9785 53.3475 12.0232 53.6769C12.068 54.0063 12.1914 54.3201 12.3831 54.5917C12.5748 54.8633 12.8291 55.0848 13.1244 55.2374C13.4198 55.3899 13.7475 55.4691 14.08 55.4682H24.4735C24.8606 55.3991 25.2224 55.2284 25.5219 54.9736C25.8215 54.7189 26.0481 54.3892 26.1785 54.0182L28.6855 46.6297L37.6405 54.9822C38.0158 55.2926 38.4865 55.4642 38.9735 55.4682H50.62L45.512 40.8712L30.6215 40.8747L39.735 14.0127H26.669Z" fill="url(#paint1_linear_3496_32705)"/>
<path d="M43.2975 15.4227C43.1588 15.0117 42.8947 14.6546 42.5424 14.4016C42.19 14.1487 41.7672 14.0126 41.3335 14.0127H26.824C27.2577 14.0127 27.6805 14.1488 28.0328 14.4017C28.3851 14.6547 28.6493 15.0118 28.788 15.4227L41.38 52.7327C41.4852 53.0445 41.5147 53.377 41.466 53.7025C41.4173 54.028 41.2918 54.3372 41.0999 54.6046C40.908 54.8719 40.6551 55.0898 40.3623 55.24C40.0695 55.3903 39.7451 55.4687 39.416 55.4687H53.926C54.2551 55.4686 54.5794 55.3902 54.8721 55.2399C55.1649 55.0896 55.4177 54.8717 55.6095 54.6044C55.8014 54.337 55.9269 54.0278 55.9756 53.7023C56.0242 53.3769 55.9947 53.0445 55.8895 52.7327L43.2975 15.4227Z" fill="url(#paint2_linear_3496_32705)"/>
<defs>
<linearGradient id="paint0_linear_3496_32705" x1="31.414" y1="17.0847" x2="17.8935" y2="57.0277" gradientUnits="userSpaceOnUse">
<stop stop-color="#114A8B"/>
<stop offset="1" stop-color="#0669BC"/>
</linearGradient>
<linearGradient id="paint1_linear_3496_32705" x1="35.6375" y1="35.6992" x2="32.51" y2="36.7567" gradientUnits="userSpaceOnUse">
<stop stop-opacity="0.3"/>
<stop offset="0.071" stop-opacity="0.2"/>
<stop offset="0.321" stop-opacity="0.1"/>
<stop offset="0.623" stop-opacity="0.05"/>
<stop offset="1" stop-opacity="0"/>
</linearGradient>
<linearGradient id="paint2_linear_3496_32705" x1="33.9175" y1="15.9197" x2="48.759" y2="55.4602" gradientUnits="userSpaceOnUse">
<stop stop-color="#3CCBF4"/>
<stop offset="1" stop-color="#2892DF"/>
</linearGradient>
</defs>
</svg>
