<svg width="24" height="25" viewBox="0 0 24 25" fill="none" xmlns="http://www.w3.org/2000/svg">
<g clip-path="url(#clip0_3602_3323)">
<path d="M12 0.773926C18.63 0.773926 24 6.14393 24 12.7739C23.9994 15.2882 23.2103 17.739 21.7438 19.7814C20.2773 21.8237 18.2072 23.3547 15.825 24.1589C15.225 24.2789 15 23.9039 15 23.5889C15 23.1839 15.015 21.8939 15.015 20.2889C15.015 19.1639 14.64 18.4439 14.205 18.0689C16.875 17.7689 19.68 16.7489 19.68 12.1439C19.68 10.8239 19.215 9.75893 18.45 8.91893C18.57 8.61893 18.99 7.38893 18.33 5.73893C18.33 5.73893 17.325 5.40893 15.03 6.96893C14.07 6.69893 13.05 6.56393 12.03 6.56393C11.01 6.56393 9.99 6.69893 9.03 6.96893C6.735 5.42393 5.73 5.73893 5.73 5.73893C5.07 7.38893 5.49 8.61893 5.61 8.91893C4.845 9.75893 4.38 10.8389 4.38 12.1439C4.38 16.7339 7.17 17.7689 9.84 18.0689C9.495 18.3689 9.18 18.8939 9.075 19.6739C8.385 19.9889 6.66 20.4989 5.58 18.6839C5.355 18.3239 4.68 17.4389 3.735 17.4539C2.73 17.4689 3.33 18.0239 3.75 18.2489C4.26 18.5339 4.845 19.5989 4.98 19.9439C5.22 20.6189 6 21.9089 9.015 21.3539C9.015 22.3589 9.03 23.3039 9.03 23.5889C9.03 23.9039 8.805 24.2639 8.205 24.1589C5.81496 23.3634 3.7361 21.8354 2.26334 19.7919C0.79057 17.7483 -0.00132072 15.2929 1.65347e-06 12.7739C1.65347e-06 6.14393 5.37 0.773926 12 0.773926Z" fill="black"/>
</g>
<defs>
<clipPath id="clip0_3602_3323">
<rect width="24" height="24" fill="white" transform="translate(0 0.773926)"/>
</clipPath>
</defs>
</svg>
