<svg width="60" height="61" viewBox="0 0 60 61" fill="none" xmlns="http://www.w3.org/2000/svg">
<rect width="60.0018" height="60.0001" transform="translate(0 0.740723)" fill="white"/>
<path d="M24.795 19.1764C22.4624 19.1764 20.5771 17.2911 20.5771 14.9586C20.5771 12.626 22.4624 10.7407 24.795 10.7407C27.1276 10.7407 29.0128 12.626 29.0128 14.9586V19.1764H24.795Z" fill="#36C5F0"/>
<path d="M24.7944 21.3171C27.127 21.3171 29.0122 23.2024 29.0122 25.535C29.0122 27.8676 27.127 29.7528 24.7944 29.7528H14.2178C11.8852 29.7528 10 27.8676 10 25.535C10 23.2024 11.8852 21.3171 14.2178 21.3171H24.7944Z" fill="#36C5F0"/>
<path d="M41.5645 25.535C41.5645 23.2024 43.4497 21.3171 45.7823 21.3171C48.1149 21.3171 50.0001 23.2024 50.0001 25.535C50.0001 27.8676 48.1149 29.7528 45.7823 29.7528H41.5645V25.535Z" fill="#2EB67D"/>
<path d="M39.4552 25.5351C39.4552 27.8677 37.57 29.7529 35.2374 29.7529C32.9048 29.7529 31.0195 27.8677 31.0195 25.5351V14.9586C31.0195 12.626 32.9048 10.7407 35.2374 10.7407C37.57 10.7407 39.4552 12.626 39.4552 14.9586V25.5351Z" fill="#2EB67D"/>
<path d="M18.4357 35.9775C18.4357 38.3101 16.5504 40.1954 14.2178 40.1954C11.8852 40.1954 10 38.3101 10 35.9775C10 33.6449 11.8852 31.7597 14.2178 31.7597H18.4357V35.9775Z" fill="#E01E5A"/>
<path d="M20.5449 35.9775C20.5449 33.6449 22.4302 31.7596 24.7628 31.7596C27.0953 31.7596 28.9806 33.6449 28.9806 35.9775V46.522C28.9806 48.8546 27.0953 50.7399 24.7628 50.7399C22.4302 50.7399 20.5449 48.8546 20.5449 46.522V35.9775Z" fill="#E01E5A"/>
<path d="M35.2076 42.3051C37.5402 42.3051 39.4254 44.1903 39.4254 46.5229C39.4254 48.8555 37.5402 50.7407 35.2076 50.7407C32.875 50.7407 30.9897 48.8555 30.9897 46.5229V42.3051H35.2076Z" fill="#ECB22E"/>
<path d="M35.2076 40.1957C32.875 40.1957 30.9897 38.3105 30.9897 35.9779C30.9897 33.6453 32.875 31.7601 35.2076 31.7601H45.7841C48.1167 31.7601 50.0019 33.6453 50.0019 35.9779C50.0019 38.3105 48.1167 40.1957 45.7841 40.1957H35.2076Z" fill="#ECB22E"/>
</svg>
