<svg width="68" height="69" viewBox="0 0 68 69" fill="none" xmlns="http://www.w3.org/2000/svg">
<rect width="68" height="68" transform="translate(0 0.740723)" fill="white"/>
<path d="M26.6692 14.0127H39.6882L26.1732 54.0562C26.0343 54.4677 25.7698 54.8252 25.4171 55.0785C25.0643 55.3318 24.641 55.4681 24.2067 55.4682H14.0747C13.7456 55.4682 13.4213 55.3899 13.1285 55.2398C12.8358 55.0896 12.583 54.8718 12.391 54.6046C12.1991 54.3373 12.0736 54.0282 12.0248 53.7028C11.9761 53.3773 12.0055 53.045 12.1107 52.7332L24.7022 15.4247C24.841 15.0131 25.1055 14.6553 25.4584 14.4019C25.8113 14.1485 26.2348 14.0127 26.6692 14.0127Z" fill="url(#paint0_linear_3496_32705)"/>
<path d="M45.5874 40.8712H24.9424C24.7505 40.871 24.5629 40.9286 24.4042 41.0365C24.2454 41.1444 24.1229 41.2976 24.0525 41.4762C23.9821 41.6547 23.967 41.8503 24.0094 42.0375C24.0517 42.2247 24.1495 42.3949 24.2899 42.5257L37.5559 54.9077C37.9421 55.268 38.4507 55.4683 38.9789 55.4682H50.6689L45.5874 40.8712Z" fill="#0078D4"/>
<path d="M26.669 14.0127C26.2298 14.011 25.8016 14.1498 25.4469 14.4088C25.0922 14.6678 24.8296 15.0334 24.6975 15.4522L12.126 52.6992C12.0137 53.0121 11.9785 53.3475 12.0232 53.6769C12.068 54.0063 12.1914 54.3201 12.3831 54.5917C12.5748 54.8633 12.8291 55.0848 13.1244 55.2374C13.4198 55.3899 13.7475 55.4691 14.08 55.4682H24.4735C24.8606 55.3991 25.2224 55.2284 25.5219 54.9736C25.8215 54.7189 26.0481 54.3892 26.1785 54.0182L28.6855 46.6297L37.6405 54.9822C38.0158 55.2926 38.4865 55.4642 38.9735 55.4682H50.62L45.512 40.8712L30.6215 40.8747L39.735 14.0127H26.669Z" fill="url(#paint1_linear_3496_32705)"/>
<path d="M43.2977 15.4227C43.1591 15.0117 42.895 14.6546 42.5426 14.4016C42.1903 14.1487 41.7675 14.0126 41.3337 14.0127H26.8242C27.2579 14.0127 27.6807 14.1488 28.0331 14.4017C28.3854 14.6547 28.6495 15.0118 28.7882 15.4227L41.3802 52.7327C41.4855 53.0445 41.515 53.377 41.4663 53.7025C41.4176 54.028 41.2921 54.3372 41.1001 54.6046C40.9082 54.8719 40.6554 55.0898 40.3626 55.24C40.0697 55.3903 39.7453 55.4687 39.4162 55.4687H53.9262C54.2553 55.4686 54.5796 55.3902 54.8724 55.2399C55.1651 55.0896 55.4179 54.8717 55.6098 54.6044C55.8017 54.337 55.9271 54.0278 55.9758 53.7023C56.0245 53.3769 55.995 53.0445 55.8897 52.7327L43.2977 15.4227Z" fill="url(#paint2_linear_3496_32705)"/>
<defs>
<linearGradient id="paint0_linear_3496_32705" x1="31.4142" y1="17.0847" x2="17.8937" y2="57.0277" gradientUnits="userSpaceOnUse">
<stop stop-color="#114A8B"/>
<stop offset="1" stop-color="#0669BC"/>
</linearGradient>
<linearGradient id="paint1_linear_3496_32705" x1="35.6375" y1="35.6992" x2="32.51" y2="36.7567" gradientUnits="userSpaceOnUse">
<stop stop-opacity="0.3"/>
<stop offset="0.071" stop-opacity="0.2"/>
<stop offset="0.321" stop-opacity="0.1"/>
<stop offset="0.623" stop-opacity="0.05"/>
<stop offset="1" stop-opacity="0"/>
</linearGradient>
<linearGradient id="paint2_linear_3496_32705" x1="33.9177" y1="15.9197" x2="48.7592" y2="55.4602" gradientUnits="userSpaceOnUse">
<stop stop-color="#3CCBF4"/>
<stop offset="1" stop-color="#2892DF"/>
</linearGradient>
</defs>
</svg>
