<svg width="60" height="61" viewBox="0 0 60 61" fill="none" xmlns="http://www.w3.org/2000/svg">
<path opacity="0.4" d="M30 50.6025C41.0457 50.6025 50 41.6482 50 30.6025C50 19.5568 41.0457 10.6025 30 10.6025C18.9543 10.6025 10 19.5568 10 30.6025C10 41.6482 18.9543 50.6025 30 50.6025Z" fill="#4B1FFC"/>
<path d="M29.9999 38.4025C34.3078 38.4025 37.7999 34.9103 37.7999 30.6025C37.7999 26.2947 34.3078 22.8025 29.9999 22.8025C25.6921 22.8025 22.2 26.2947 22.2 30.6025C22.2 34.9103 25.6921 38.4025 29.9999 38.4025Z" fill="#4B1FFC"/>
<path d="M31.875 5.60254V10.7025H31.85C31.25 10.6275 30.625 10.6025 30 10.6025C29.375 10.6025 28.75 10.6275 28.15 10.7025H28.125V5.60254C28.125 4.57754 28.975 3.72754 30 3.72754C31.025 3.72754 31.875 4.57754 31.875 5.60254Z" fill="#4B1FFC"/>
<path d="M10 30.6025C10 31.2275 10.025 31.8775 10.1 32.4775H5C3.975 32.4775 3.125 31.6275 3.125 30.6025C3.125 29.5775 3.975 28.7275 5 28.7275H10.1C10.025 29.3275 10 29.9775 10 30.6025Z" fill="#4B1FFC"/>
<path d="M31.875 50.5024V55.6024C31.875 56.6274 31.025 57.4774 30 57.4774C28.975 57.4774 28.125 56.6274 28.125 55.6024V50.5024H28.15C28.75 50.5774 29.375 50.6024 30 50.6024C30.625 50.6024 31.25 50.5774 31.85 50.5024H31.875Z" fill="#4B1FFC"/>
<path d="M56.8749 30.6025C56.8749 31.6275 56.0249 32.4775 54.9999 32.4775H49.8999C49.9749 31.8775 49.9999 31.2275 49.9999 30.6025C49.9999 29.9775 49.9749 29.3275 49.8999 28.7275H54.9999C56.0249 28.7275 56.8749 29.5775 56.8749 30.6025Z" fill="#4B1FFC"/>
</svg>
