<svg width="60" height="61" viewBox="0 0 60 61" fill="none" xmlns="http://www.w3.org/2000/svg">
<path opacity="0.4" d="M30 50.2393C41.0457 50.2393 50 41.285 50 30.2393C50 19.1936 41.0457 10.2393 30 10.2393C18.9543 10.2393 10 19.1936 10 30.2393C10 41.285 18.9543 50.2393 30 50.2393Z" fill="#4B1FFC"/>
<path d="M29.9999 38.0392C34.3078 38.0392 37.7999 34.547 37.7999 30.2392C37.7999 25.9314 34.3078 22.4392 29.9999 22.4392C25.6921 22.4392 22.2 25.9314 22.2 30.2392C22.2 34.547 25.6921 38.0392 29.9999 38.0392Z" fill="#4B1FFC"/>
<path d="M31.875 5.23926V10.3393H31.85C31.25 10.2643 30.625 10.2393 30 10.2393C29.375 10.2393 28.75 10.2643 28.15 10.3393H28.125V5.23926C28.125 4.21426 28.975 3.36426 30 3.36426C31.025 3.36426 31.875 4.21426 31.875 5.23926Z" fill="#4B1FFC"/>
<path d="M10 30.2393C10 30.8643 10.025 31.5143 10.1 32.1143H5C3.975 32.1143 3.125 31.2643 3.125 30.2393C3.125 29.2143 3.975 28.3643 5 28.3643H10.1C10.025 28.9643 10 29.6143 10 30.2393Z" fill="#4B1FFC"/>
<path d="M31.875 50.1392V55.2392C31.875 56.2642 31.025 57.1142 30 57.1142C28.975 57.1142 28.125 56.2642 28.125 55.2392V50.1392H28.15C28.75 50.2142 29.375 50.2392 30 50.2392C30.625 50.2392 31.25 50.2142 31.85 50.1392H31.875Z" fill="#4B1FFC"/>
<path d="M56.875 30.2393C56.875 31.2643 56.025 32.1143 55 32.1143H49.9C49.975 31.5143 50 30.8643 50 30.2393C50 29.6143 49.975 28.9643 49.9 28.3643H55C56.025 28.3643 56.875 29.2143 56.875 30.2393Z" fill="#4B1FFC"/>
</svg>
