<svg width="60" height="61" viewBox="0 0 60 61" fill="none" xmlns="http://www.w3.org/2000/svg">
<path opacity="0.4" d="M30 50.2739C41.0457 50.2739 50 41.3196 50 30.2739C50 19.2282 41.0457 10.2739 30 10.2739C18.9543 10.2739 10 19.2282 10 30.2739C10 41.3196 18.9543 50.2739 30 50.2739Z" fill="#4B1FFC"/>
<path d="M29.9999 38.0739C34.3078 38.0739 37.7999 34.5817 37.7999 30.2739C37.7999 25.9661 34.3078 22.4739 29.9999 22.4739C25.6921 22.4739 22.2 25.9661 22.2 30.2739C22.2 34.5817 25.6921 38.0739 29.9999 38.0739Z" fill="#4B1FFC"/>
<path d="M31.875 5.27393V10.3739H31.85C31.25 10.2989 30.625 10.2739 30 10.2739C29.375 10.2739 28.75 10.2989 28.15 10.3739H28.125V5.27393C28.125 4.24893 28.975 3.39893 30 3.39893C31.025 3.39893 31.875 4.24893 31.875 5.27393Z" fill="#4B1FFC"/>
<path d="M10 30.2739C10 30.8989 10.025 31.5489 10.1 32.1489H5C3.975 32.1489 3.125 31.2989 3.125 30.2739C3.125 29.2489 3.975 28.3989 5 28.3989H10.1C10.025 28.9989 10 29.6489 10 30.2739Z" fill="#4B1FFC"/>
<path d="M31.875 50.174V55.274C31.875 56.299 31.025 57.149 30 57.149C28.975 57.149 28.125 56.299 28.125 55.274V50.174H28.15C28.75 50.249 29.375 50.274 30 50.274C30.625 50.274 31.25 50.249 31.85 50.174H31.875Z" fill="#4B1FFC"/>
<path d="M56.875 30.2739C56.875 31.2989 56.025 32.1489 55 32.1489H49.9C49.975 31.5489 50 30.8989 50 30.2739C50 29.6489 49.975 28.9989 49.9 28.3989H55C56.025 28.3989 56.875 29.2489 56.875 30.2739Z" fill="#4B1FFC"/>
</svg>
