<svg width="14" height="14" viewBox="0 0 14 14" fill="none" xmlns="http://www.w3.org/2000/svg">
<path d="M10.1282 7.31683H8.33295C6.98651 7.31683 6.30518 6.55438 6.30518 5.04571V3.49379C6.30518 2.94223 6.37006 2.15275 6.94325 1.72016C7.42451 1.36327 8.11666 1.33623 9.13866 1.63364C10.4797 2.02297 11.599 3.14231 11.9884 4.48334C12.2858 5.49994 12.2587 6.19749 11.9018 6.67334C11.4693 7.25194 10.6798 7.31683 10.1282 7.31683ZM7.94362 2.23927C7.72192 2.23927 7.54888 2.28253 7.43532 2.36905C7.22444 2.52586 7.12169 2.89356 7.12169 3.49379V5.05112C7.12169 6.26238 7.58673 6.51112 8.33836 6.51112H10.1336C10.7284 6.51112 11.0961 6.40838 11.2584 6.19749C11.4476 5.94875 11.4314 5.45127 11.2205 4.72127C10.9069 3.65601 9.98762 2.73134 8.92236 2.42312C8.52221 2.29875 8.19777 2.23927 7.94362 2.23927Z" fill="#5F5E5E"/>
<path d="M6.20786 12.7243C5.92127 12.7243 5.62927 12.7027 5.33727 12.654C3.12564 12.2971 1.32497 10.5019 0.96808 8.29024C0.50845 5.44594 2.34156 2.76387 5.14801 2.19068C5.36971 2.14742 5.5806 2.28801 5.62927 2.50431C5.67253 2.72601 5.53194 2.9369 5.31564 2.98557C2.94179 3.47224 1.38445 5.74335 1.77919 8.16046C2.08201 10.0314 3.60149 11.5509 5.47245 11.8537C7.90038 12.2431 10.1661 10.6803 10.6473 8.29565C10.6906 8.07395 10.9069 7.93335 11.1232 7.97661C11.3449 8.01987 11.4855 8.23617 11.4422 8.45246C10.9285 10.9777 8.72231 12.7243 6.20786 12.7243Z" fill="#5F5E5E"/>
</svg>
