<svg width="9" height="10" viewBox="0 0 9 10" fill="none" xmlns="http://www.w3.org/2000/svg">
<path d="M6.68151 5.2583H5.54451C4.69177 5.2583 4.26025 4.77542 4.26025 3.81993V2.83705C4.26025 2.48773 4.30135 1.98772 4.66437 1.71375C4.96917 1.48772 5.40753 1.4706 6.05479 1.65895C6.90412 1.90553 7.61303 2.61444 7.85961 3.46377C8.04796 4.10761 8.03084 4.54939 7.80481 4.85077C7.53083 5.21721 7.03083 5.2583 6.68151 5.2583ZM5.29794 2.04252C5.15752 2.04252 5.04793 2.06992 4.97601 2.12471C4.84245 2.22403 4.77738 2.45691 4.77738 2.83705V3.82336C4.77738 4.59049 5.07191 4.74803 5.54794 4.74803H6.68494C7.06165 4.74803 7.29453 4.68296 7.39727 4.54939C7.51714 4.39186 7.50686 4.07679 7.3733 3.61445C7.17467 2.93979 6.59247 2.35417 5.9178 2.15896C5.66438 2.08019 5.4589 2.04252 5.29794 2.04252Z" fill="#5F5E5E"/>
<path d="M4.19862 8.68309C4.01711 8.68309 3.83218 8.66939 3.64725 8.63857C2.24655 8.41254 1.10613 7.27554 0.880097 5.87484C0.588998 4.07345 1.74997 2.37481 3.52738 2.01179C3.6678 1.98439 3.80136 2.07343 3.83218 2.21042C3.85958 2.35083 3.77054 2.4844 3.63355 2.51522C2.13011 2.82344 1.1438 4.26181 1.3938 5.79265C1.58558 6.97759 2.54792 7.93993 3.73287 8.13171C5.27055 8.37829 6.7055 7.38855 7.0103 5.87827C7.03769 5.73785 7.17468 5.64881 7.31167 5.67621C7.45208 5.70361 7.54112 5.84059 7.51372 5.97758C7.18838 7.57691 5.7911 8.68309 4.19862 8.68309Z" fill="#5F5E5E"/>
</svg>
