<svg width="5" height="5" viewBox="0 0 5 5" fill="none" xmlns="http://www.w3.org/2000/svg">
<path d="M3.49818 2.83392H2.96559C2.56614 2.83392 2.36401 2.60773 2.36401 2.16016V1.69975C2.36401 1.53612 2.38326 1.30191 2.55331 1.17357C2.69608 1.0677 2.90142 1.05968 3.20461 1.14791C3.60245 1.26341 3.93452 1.59548 4.05003 1.99332C4.13826 2.29491 4.13024 2.50185 4.02436 2.64302C3.89602 2.81467 3.66181 2.83392 3.49818 2.83392ZM2.85009 1.32758C2.78431 1.32758 2.73298 1.34041 2.69929 1.36608C2.63673 1.4126 2.60625 1.52169 2.60625 1.69975V2.16176C2.60625 2.5211 2.74421 2.59489 2.96719 2.59489H3.49979C3.67625 2.59489 3.78533 2.56441 3.83346 2.50185C3.88961 2.42806 3.88479 2.28047 3.82223 2.0639C3.72919 1.74788 3.45647 1.47356 3.14045 1.38212C3.02173 1.34522 2.92548 1.32758 2.85009 1.32758Z" fill="#5F5E5E"/>
<path d="M2.33515 4.43809C2.25013 4.43809 2.1635 4.43167 2.07687 4.41723C1.42075 4.31136 0.886557 3.77876 0.78068 3.12265C0.644323 2.27884 1.18815 1.48316 2.02072 1.31311C2.0865 1.30028 2.14906 1.34199 2.1635 1.40615C2.17633 1.47193 2.13462 1.53449 2.07045 1.54893C1.36621 1.69331 0.904203 2.36707 1.02131 3.08415C1.11114 3.6392 1.56192 4.08998 2.11698 4.17981C2.83726 4.29532 3.50942 3.8317 3.65219 3.12425C3.66503 3.05848 3.7292 3.01677 3.79336 3.0296C3.85914 3.04244 3.90084 3.1066 3.88801 3.17077C3.73561 3.91993 3.0811 4.43809 2.33515 4.43809Z" fill="#5F5E5E"/>
</svg>
