<svg width="94" height="21" viewBox="0 0 94 21" fill="none" xmlns="http://www.w3.org/2000/svg">
<path d="M50.098 19.8958H48.6516V2.13531C48.6516 1.57543 49.056 1.17108 49.6158 1.17108H50.098V19.8958Z" fill="#1D1B1B"/>
<path d="M64.0899 6.5365H64.572C65.1319 6.5365 65.5363 6.94085 65.5363 7.50073V19.9113H64.0899V17.0186C63.0479 19.1026 60.964 20.4556 58.4134 20.4556C54.4165 20.4556 51.5238 17.4074 51.5238 13.255C51.5238 9.10259 54.401 6.05438 58.4134 6.05438C60.9795 6.05438 63.0479 7.40742 64.0899 9.4914V6.5365ZM64.0899 13.255C64.0899 9.89575 61.6949 7.40742 58.4912 7.40742C55.2097 7.40742 52.8924 9.89575 52.8924 13.255C52.8924 16.6143 55.2097 19.1026 58.4912 19.1026C61.6949 19.1026 64.0899 16.6143 64.0899 13.255Z" fill="#1D1B1B"/>
<path d="M69.4605 1.17108V9.41369C70.5025 7.32971 72.5865 6.05444 75.137 6.05444C79.1339 6.05444 82.0266 9.10265 82.0266 13.2551C82.0266 17.4075 79.0717 20.4557 75.137 20.4557C72.5709 20.4557 70.5025 19.1026 69.4605 17.0964V19.8958H68.0142V2.13531C68.0142 1.57543 68.4185 1.17108 68.9784 1.17108H69.4605ZM74.9815 7.40747C71.7 7.40747 69.3827 9.89581 69.3827 13.1617C69.3827 16.521 71.7 18.916 74.9815 18.916C78.1852 18.916 80.5803 16.521 80.5803 13.1617C80.5803 9.89581 78.1852 7.40747 74.9815 7.40747Z" fill="#1D1B1B"/>
<path d="M82.6595 15.5728H84.1058C84.1058 17.6568 85.941 19.0876 88.4293 19.0876C90.7466 19.0876 92.3484 17.8901 92.3484 16.366C92.3484 12.6024 82.9861 15.0129 82.9861 10.0363C82.9861 7.719 85.1478 6.03937 87.9472 6.03937C91.1509 6.03937 93.3904 7.95228 93.3904 10.5184H91.9441C91.9441 8.68323 90.2645 7.3924 87.9472 7.3924C85.941 7.3924 84.3391 8.51215 84.3391 9.9585C84.3391 13.5666 93.7015 11.3115 93.7015 16.1949C93.7015 18.5899 91.462 20.3629 88.336 20.3629C85.0545 20.4562 82.6595 18.3722 82.6595 15.5728Z" fill="#1D1B1B"/>
<path d="M4.79303 19.8958H0.391785V3.73718C0.391785 2.29083 1.51154 1.17108 2.95788 1.17108H4.79303V19.8958Z" fill="#1D1B1B"/>
<path d="M37.0504 16.6921L41.2184 3.08399C41.545 2.042 42.5714 1.24884 43.7067 1.24884H46.4284L40.4097 19.8958H33.6912L27.6881 1.17108H30.4097C31.5294 1.17108 32.4937 1.88648 32.8047 2.92847L37.0504 16.6921Z" fill="#1D1B1B"/>
<path d="M17.4409 0.533936C11.2823 0.533936 7.11432 4.60858 7.11432 10.5339C7.11432 16.4593 11.2823 20.5339 17.4409 20.5339C23.5218 20.5339 27.7675 16.4593 27.7675 10.5339C27.7675 4.68634 23.5218 0.533936 17.4409 0.533936ZM17.4409 16.7703C13.9261 16.7703 11.5156 14.2042 11.5156 10.5339C11.5156 9.41418 11.7488 8.3722 12.231 7.48573C12.231 7.48573 12.231 7.48573 12.231 7.40797C12.231 7.40797 12.231 7.40797 12.231 7.3302C12.231 7.3302 12.3087 7.25244 12.3087 7.17468C12.3087 7.17468 12.3087 7.09692 12.3865 7.09692C12.3865 7.01916 12.4642 7.01916 12.4642 6.9414C12.9464 6.22601 14.0661 4.85742 16.0723 4.54638H16.1501H16.2278C16.8655 4.46861 18.7939 4.46862 19.6649 5.89941C19.6649 5.89941 19.6649 5.89941 19.6649 5.97717C19.7426 6.05493 19.7426 6.13269 19.7426 6.21045C19.7426 6.21045 19.7426 6.28821 19.8204 6.28821C20.8624 8.52771 19.7426 11.8092 18.374 13.0845C18.374 13.0845 22.542 10.6895 22.3709 7.00361C22.9308 7.96784 23.2574 9.16535 23.2574 10.4406C23.3663 14.2198 20.9557 16.7703 17.4409 16.7703Z" fill="#1D1B1B"/>
</svg>
