<svg width="111" height="29" viewBox="0 0 111 29" fill="none" xmlns="http://www.w3.org/2000/svg">
<g opacity="0.8">
<mask id="mask0_3496_30644" style="mask-type:luminance" maskUnits="userSpaceOnUse" x="101" y="4" width="10" height="10">
<path d="M104.83 11.2307C104.475 10.7636 104.274 10.0742 104.274 9.20687C104.274 8.33953 104.452 7.65011 104.83 7.18308C105.564 6.31574 106.854 6.22678 107.722 6.96069C107.811 7.0274 107.877 7.11636 107.944 7.18308C108.3 7.65011 108.478 8.33953 108.478 9.20687C108.478 10.0742 108.3 10.7636 107.944 11.2307C107.21 12.098 105.92 12.187 105.053 11.4531C104.964 11.3863 104.897 11.3196 104.83 11.2307ZM103.007 5.91543C101.517 7.85026 101.517 10.5412 103.007 12.4983C103.741 13.4101 104.875 13.8772 106.387 13.8772C107.899 13.8772 109.034 13.4324 109.768 12.4983C111.258 10.5635 111.258 7.8725 109.768 5.91543C109.034 4.98137 107.899 4.51435 106.387 4.53659C104.875 4.55883 103.741 5.00361 103.007 5.91543Z" fill="white"/>
</mask>
<g mask="url(#mask0_3496_30644)">
<path d="M114.215 1.2005H98.5586V17.1907H114.215V1.2005Z" fill="#1D1B1B"/>
</g>
<mask id="mask1_3496_30644" style="mask-type:luminance" maskUnits="userSpaceOnUse" x="84" y="4" width="9" height="10">
<path d="M87.1452 11.8975C86.9006 11.6751 86.7894 11.3638 86.8116 11.0524C86.7894 10.6521 86.9895 10.2741 87.3454 10.0739C87.679 9.91822 88.0348 9.80703 88.3906 9.76255L88.9021 9.67359C89.1023 9.62911 89.3024 9.58463 89.5026 9.51791C89.6583 9.4512 89.8139 9.38448 89.9474 9.29552V10.1629C89.9251 10.9412 89.725 11.475 89.3024 11.7641C88.9021 12.0532 88.4351 12.2089 87.9458 12.2089C87.6567 12.1866 87.3898 12.0977 87.1452 11.8975ZM85.4772 5.69273C85.0769 6.24871 84.8545 6.9159 84.8323 7.60532H87.0118C87.0562 7.31621 87.1674 7.0271 87.3454 6.8047C87.5678 6.53783 87.9458 6.40439 88.5018 6.40439C88.8799 6.38215 89.258 6.44887 89.6138 6.60455C89.8807 6.76022 90.0141 7.04934 89.9919 7.36069C89.9919 7.67204 89.7917 7.93891 89.5026 8.02787C89.2135 8.13907 88.9021 8.20579 88.5908 8.22803L87.8124 8.31698C87.123 8.3837 86.4335 8.56162 85.8108 8.89521C84.988 9.38448 84.5654 10.1629 84.5654 11.2526C84.5654 12.0977 84.8101 12.7426 85.3438 13.1874C85.8776 13.6322 86.5003 13.8324 87.3009 13.8768C92.238 14.0992 92.1936 11.2304 92.238 10.6299V7.29397C92.238 6.22647 91.86 5.51481 91.1261 5.1145C90.3477 4.71419 89.4581 4.51404 88.5908 4.53628C87.123 4.53628 86.0777 4.91435 85.4772 5.69273Z" fill="white"/>
</mask>
<g mask="url(#mask1_3496_30644)">
<path d="M95.5519 1.20056H81.2297V17.1907H95.5519V1.20056Z" fill="#1D1B1B"/>
</g>
<mask id="mask2_3496_30644" style="mask-type:luminance" maskUnits="userSpaceOnUse" x="75" y="4" width="9" height="10">
<path d="M76.6913 5.78197C75.9352 6.62707 75.5571 7.80576 75.5571 9.31804C75.5571 10.6524 75.8907 11.7421 76.5801 12.5872C77.2696 13.4323 78.3371 13.8549 79.7826 13.8549C81.2282 13.8549 82.3402 13.3434 83.0741 12.3426C83.5188 11.7644 83.7857 11.075 83.8524 10.3411H81.4506C81.4283 10.7414 81.2727 11.1417 81.028 11.4753C80.8056 11.7644 80.4053 11.9201 79.8493 11.9201C79.1377 11.9645 78.4705 11.4975 78.2481 10.8303C78.0702 10.3411 78.0035 9.80731 78.0257 9.27356C78.0035 8.71757 78.0924 8.16159 78.2481 7.65008C78.5372 6.8717 79.0932 6.49363 79.8938 6.49363C80.3608 6.44915 80.8279 6.64931 81.1392 7.02738C81.3171 7.29425 81.4283 7.6056 81.4728 7.91695H83.8969C83.7635 6.64931 83.3409 5.78197 82.607 5.2927C81.8731 4.80343 80.9613 4.5588 79.8271 4.5588C78.4927 4.53656 77.4475 4.93687 76.6913 5.78197Z" fill="white"/>
</mask>
<g mask="url(#mask2_3496_30644)">
<path d="M87.2128 1.20068H72.2234V17.1908H87.2128V1.20068Z" fill="#1D1B1B"/>
</g>
<mask id="mask3_3496_30644" style="mask-type:luminance" maskUnits="userSpaceOnUse" x="70" y="4" width="6" height="10">
<path d="M70.2275 8.98482V13.5217H72.496V9.27393C72.496 8.58451 72.5849 8.073 72.7628 7.73941C73.0742 7.13894 73.6746 6.84983 74.5865 6.84983C74.6532 6.84983 74.7421 6.84983 74.8533 6.84983C74.9645 6.84983 75.098 6.87207 75.2314 6.87207V4.53693H75.0313H74.9201C69.9384 4.53693 70.2498 9.00706 70.2275 8.98482Z" fill="white"/>
</mask>
<g mask="url(#mask3_3496_30644)">
<path d="M78.547 1.20142H66.8936V16.858H78.547V1.20142Z" fill="#1D1B1B"/>
</g>
<mask id="mask4_3496_30644" style="mask-type:luminance" maskUnits="userSpaceOnUse" x="60" y="4" width="10" height="10">
<path d="M63.529 6.93857C63.8848 6.58274 64.3964 6.40482 64.8856 6.42706C65.3749 6.40482 65.8642 6.58274 66.2422 6.89409C66.6203 7.24992 66.8427 7.76142 66.8427 8.29517H62.9063C62.973 7.78366 63.1954 7.31664 63.529 6.93857ZM61.7721 5.75988C60.9715 6.58273 60.5712 7.73919 60.5712 9.27371C60.5712 10.8972 61.016 12.0759 61.9055 12.7875C62.7729 13.4992 63.8626 13.8773 64.9746 13.8773C66.3757 13.8773 67.4876 13.4547 68.266 12.5874C68.6441 12.2093 68.911 11.7645 69.0666 11.253H66.6203C66.5313 11.3865 66.4201 11.4977 66.3089 11.6088C65.9754 11.8757 65.5306 11.9647 65.0191 11.9647C64.5965 11.9869 64.174 11.898 63.7959 11.6756C63.2177 11.3197 62.9063 10.7193 62.8618 9.82969H69.2223C69.2446 9.25147 69.2223 8.67324 69.1556 8.07278C69.0666 7.42783 68.822 6.80513 68.4662 6.24914C68.0881 5.67092 67.5766 5.22613 66.9539 4.93702C66.3089 4.6479 65.6195 4.51447 64.9079 4.51447C63.618 4.5367 62.5727 4.93702 61.7721 5.75988Z" fill="white"/>
</mask>
<g mask="url(#mask4_3496_30644)">
<path d="M72.5582 1.20093H57.2352V17.1911H72.5582V1.20093Z" fill="#1D1B1B"/>
</g>
<mask id="mask5_3496_30644" style="mask-type:luminance" maskUnits="userSpaceOnUse" x="47" y="4" width="13" height="10">
<path d="M53.4254 5.73788C52.8027 4.9595 51.8686 4.51471 50.8678 4.53695C48.6661 4.53695 47.2428 6.18267 47.2428 8.3399V13.5439H49.3111V8.29542C49.3111 7.33912 49.956 6.67194 50.8678 6.67194C52.2244 6.67194 52.3579 7.80615 52.3579 8.29542V13.5439H54.4261V8.29542C54.4261 7.33912 55.0933 6.67194 55.9829 6.67194C57.3395 6.67194 57.4952 7.80615 57.4952 8.29542V13.5439H59.5635V8.31766C59.5635 6.09371 58.2291 4.51471 55.9829 4.51471C54.9821 4.51471 54.0258 4.9595 53.4254 5.73788Z" fill="white"/>
</mask>
<g mask="url(#mask5_3496_30644)">
<path d="M62.9033 1.20081H43.9108V16.8574H62.9033V1.20081Z" fill="#1D1B1B"/>
</g>
<mask id="mask6_3496_30644" style="mask-type:luminance" maskUnits="userSpaceOnUse" x="93" y="1" width="9" height="13">
<path d="M95.9943 11.2532C95.6607 10.6528 95.4828 9.94111 95.5272 9.25168C95.505 8.5845 95.6607 7.93956 95.9943 7.38357C96.2834 6.87206 96.8394 6.58295 97.4398 6.62743C97.8624 6.62743 98.2627 6.76087 98.574 7.04998C99.1078 7.51701 99.3747 8.33987 99.3747 9.40736C99.3969 10.0745 99.219 10.7195 98.8854 11.2755C98.574 11.7425 98.018 12.0316 97.4398 11.9871C96.8394 12.0094 96.2834 11.7425 95.9943 11.2532ZM99.2857 3.46943V5.93801C99.0411 5.5377 98.7075 5.2041 98.3072 4.98171C97.8846 4.73708 97.4176 4.62588 96.9283 4.62588C95.8831 4.60364 94.8823 5.07067 94.2373 5.91577C93.5702 6.7831 93.2366 8.00628 93.2366 9.49632C93.2366 10.7862 93.5702 11.8537 94.2596 12.6766C94.949 13.4994 96.2834 13.8552 97.4621 13.8552C101.599 13.8552 101.554 10.2302 101.554 10.2302V1.86819C101.554 1.86819 101.443 1.84595 101.287 1.84595C100.687 1.86819 99.2857 2.02386 99.2857 3.46943Z" fill="white"/>
</mask>
<g mask="url(#mask6_3496_30644)">
<path d="M104.867 -1.46741H89.8772V17.1915H104.867V-1.46741Z" fill="#1D1B1B"/>
</g>
<mask id="mask7_3496_30644" style="mask-type:luminance" maskUnits="userSpaceOnUse" x="69" y="18" width="9" height="10">
<path d="M72.1979 20.5052C72.5759 20.1716 73.0652 19.9937 73.5545 20.016C74.0437 19.9937 74.533 20.1716 74.9111 20.483C75.2891 20.8166 75.5115 21.3058 75.5115 21.8174H71.5751C71.6419 21.3281 71.842 20.8611 72.1979 20.5052ZM70.4187 19.371C69.6181 20.1494 69.2178 21.2836 69.2178 22.7514C69.2178 24.3082 69.6626 25.4424 70.5521 26.1541C71.4195 26.8435 72.5092 27.2215 73.6212 27.1993C75.0223 27.1993 76.112 26.7767 76.9126 25.9539C77.2907 25.5981 77.5576 25.1533 77.7132 24.664H75.2669C75.1779 24.7974 75.0667 24.9086 74.9555 25.0198C74.5775 25.2867 74.1105 25.3979 73.6434 25.3757C73.2209 25.3979 72.7983 25.3089 72.4203 25.0866C71.842 24.753 71.5529 24.1525 71.5084 23.3074H77.8689C77.8912 22.7514 77.8689 22.1732 77.78 21.6172C77.691 20.9945 77.4464 20.394 77.0905 19.8603C76.7125 19.3043 76.201 18.8817 75.5783 18.6149C74.9333 18.348 74.2216 18.2146 73.5322 18.2146C72.2646 18.1923 71.2193 18.5926 70.4187 19.371Z" fill="white"/>
</mask>
<g mask="url(#mask7_3496_30644)">
<path d="M81.2069 14.8564H65.8839V30.513H81.2069V14.8564Z" fill="#1D1B1B"/>
</g>
<mask id="mask8_3496_30644" style="mask-type:luminance" maskUnits="userSpaceOnUse" x="54" y="15" width="10" height="13">
<path d="M57.5924 24.5963C57.2365 24.0403 57.0586 23.3954 57.1031 22.7282C57.1031 21.6607 57.37 20.9045 57.9037 20.4375C58.2151 20.1706 58.6154 20.015 59.0379 20.015C59.6162 19.9705 60.1721 20.2596 60.4835 20.7711C60.8171 21.3493 60.9728 21.9943 60.9505 22.6615C60.9728 23.3286 60.8171 24.0181 60.4835 24.5963C60.1721 25.0856 59.6384 25.3524 59.0602 25.308C58.4819 25.3524 57.926 25.0633 57.5924 24.5963ZM54.9014 16.857V23.551C54.9014 23.551 54.8569 27.1761 58.9935 27.1761C60.1721 27.1761 61.5287 26.8202 62.1959 25.9974C62.8854 25.1745 63.2189 24.107 63.2189 22.8171C63.2189 21.3271 62.8854 20.1484 62.2182 19.3033C61.5732 18.4582 60.5725 17.9912 59.5272 18.0134C59.0379 18.0134 58.5709 18.1246 58.1483 18.3692C57.748 18.6139 57.4144 18.9475 57.1698 19.3478V15.2112C57.1031 15.2112 57.0141 15.2112 56.9474 15.2112C56.3692 15.2112 54.9014 15.3447 54.9014 16.857Z" fill="white"/>
</mask>
<g mask="url(#mask8_3496_30644)">
<path d="M66.5535 11.8531H51.5641V30.5121H66.5535V11.8531Z" fill="#1D1B1B"/>
</g>
<mask id="mask9_3496_30644" style="mask-type:luminance" maskUnits="userSpaceOnUse" x="63" y="17" width="6" height="10">
<path d="M63.9029 22.3503V26.8426H66.1713V22.6172C66.1713 21.9055 66.2603 21.394 66.4382 21.0604C66.7496 20.4599 67.35 20.1708 68.2618 20.1708C68.3286 20.1708 68.4175 20.1708 68.5287 20.1708C68.6399 20.1708 68.7733 20.1931 68.9068 20.1931V17.8802L68.7066 17.8579H68.5954C63.6138 17.8579 63.9029 22.3725 63.9029 22.3503Z" fill="white"/>
</mask>
<g mask="url(#mask9_3496_30644)">
<path d="M72.2211 14.522H60.5676V30.1785H72.2211V14.522Z" fill="#1D1B1B"/>
</g>
<mask id="mask10_3496_30644" style="mask-type:luminance" maskUnits="userSpaceOnUse" x="47" y="15" width="3" height="12">
<path d="M47.2428 16.8354V26.8654H49.2443V15.2119H49.1999C48.8885 15.1897 47.2428 15.2564 47.2428 16.8354Z" fill="white"/>
</mask>
<g mask="url(#mask10_3496_30644)">
<path d="M52.5619 11.8536H43.9108V30.1789H52.5619V11.8536Z" fill="#1D1B1B"/>
</g>
<path d="M53.2332 15.1895H50.8981V17.5247H53.2332V15.1895Z" fill="#1D1B1B"/>
<path d="M53.2332 18.1917H50.8981V26.865H53.2332V18.1917Z" fill="#1D1B1B"/>
<mask id="mask11_3496_30644" style="mask-type:luminance" maskUnits="userSpaceOnUse" x="0" y="0" width="42" height="29">
<path d="M20.9162 0.533936C9.77419 0.556175 0.767209 6.53859 0.811687 13.8331V14.6115C0.833927 22.3508 8.72893 28.6001 21.0051 28.5334C33.348 28.5112 41.1318 22.1952 41.1318 14.4781C41.1096 14.2112 41.1318 14.0555 41.1318 13.6997C41.0873 6.44963 32.1026 0.533936 21.0051 0.533936H20.9162Z" fill="white"/>
</mask>
<g mask="url(#mask11_3496_30644)">
<path d="M44.4458 -2.78027H-2.54614V31.891H44.4458V-2.78027Z" fill="#1D1B1B"/>
</g>
<mask id="mask12_3496_30644" style="mask-type:luminance" maskUnits="userSpaceOnUse" x="1" y="1" width="40" height="26">
<path d="M20.92 1.24542C10.3117 1.26766 1.72732 6.91648 1.74955 13.8552C1.77179 20.7939 10.3785 26.3982 20.9867 26.3538C31.5949 26.3093 40.1793 20.6827 40.1571 13.744C40.1348 6.80528 31.5727 1.24542 21.0089 1.24542H20.92Z" fill="white"/>
</mask>
<g mask="url(#mask12_3496_30644)">
<path d="M43.4916 -2.09027H-1.58777V29.6899H43.4916V-2.09027Z" fill="white"/>
</g>
<mask id="mask13_3496_30644" style="mask-type:luminance" maskUnits="userSpaceOnUse" x="1" y="5" width="40" height="18">
<path d="M11.7748 15.234C11.0186 15.2563 10.4404 15.9012 10.4627 16.6573C10.4849 17.369 11.0631 17.925 11.7748 17.9695C12.1306 17.9695 12.4642 17.8138 12.7088 17.5692C12.7311 17.5692 12.7311 17.5914 12.7088 17.6136C12.6421 17.9472 12.5532 19.1704 13.8208 19.6597C14.2656 19.8376 14.7771 19.7486 15.1329 19.4373C15.2441 19.3483 15.2664 19.3928 15.2441 19.504C15.1997 19.8153 15.2664 20.5048 16.2004 20.8606C16.6897 21.083 17.2679 20.9718 17.6238 20.5937C17.7572 20.4825 17.7794 20.5048 17.8017 20.6827C17.8239 21.6167 18.6023 22.3506 19.5364 22.3284C20.4704 22.3062 21.2043 21.5278 21.1821 20.5937C21.1598 19.6597 20.4037 18.9035 19.4696 18.9035C19.0916 18.9035 18.669 19.1259 18.6023 19.1037C18.6023 19.0147 18.6245 18.9258 18.669 18.8368C18.7135 18.7478 19.2028 17.2133 17.9796 16.7018C17.0233 16.3015 16.4451 16.7685 16.2672 16.9465C16.2004 17.0132 16.1782 16.9909 16.1782 16.9242C16.156 16.346 15.7779 15.8345 15.2219 15.6566C14.4213 15.4119 13.5762 15.7233 13.1092 16.4127C13.0424 15.7455 12.4642 15.234 11.797 15.234H11.7748ZM1.70032 12.2984C2.05615 12.4096 2.61214 12.5653 2.85677 12.6098C8.37215 13.8329 10.1068 15.0783 10.3959 15.3452C10.7295 14.9449 11.241 14.7225 11.7526 14.7225C12.353 14.7225 12.909 15.0116 13.2426 15.5009C13.6207 15.1895 14.0877 15.0339 14.5547 15.0339C14.8216 15.0339 15.0885 15.0783 15.3553 15.1673C15.8668 15.3007 16.2672 15.6788 16.4673 16.1681C16.7119 16.0569 16.9788 16.0124 17.2457 16.0124C17.557 16.0124 17.8684 16.0791 18.1575 16.2126C19.1805 16.6351 19.3362 17.6581 19.2472 18.4143C19.314 18.4143 19.3807 18.4143 19.4474 18.4143C20.6483 18.4143 21.6269 19.3928 21.6269 20.5937C21.6269 20.9496 21.5379 21.3054 21.36 21.639C21.6936 21.8169 22.5164 22.2394 23.2503 22.1505C23.8286 22.0838 24.0732 21.8614 24.1399 21.7502C24.2066 21.639 24.2511 21.5723 24.2066 21.5278L22.6499 19.7931C22.6499 19.7931 22.4052 19.5485 22.472 19.4595C22.5609 19.3706 22.7166 19.504 22.8278 19.5929C23.6062 20.2601 24.5847 21.2609 24.5847 21.2609C24.5847 21.2609 24.6737 21.4166 25.0295 21.4611C25.4521 21.5278 25.8968 21.4388 26.2749 21.1719C26.3639 21.083 26.4751 20.994 26.5418 20.9051L26.5195 20.9273C26.9199 20.4158 26.4751 19.9043 26.4751 19.9043L24.6514 17.8583C24.6514 17.8583 24.4068 17.6136 24.4735 17.5247C24.5625 17.4357 24.7182 17.5692 24.8294 17.6581C25.4076 18.1251 26.2304 18.948 26.9866 19.7041C27.1423 19.8153 27.8317 20.2379 28.7213 19.6374C29.255 19.2816 29.3884 18.8368 29.3662 18.481C29.3217 18.1919 29.1883 17.925 28.9881 17.7248L26.4973 15.234C26.4973 15.234 26.2527 15.0116 26.3194 14.9004C26.4084 14.7892 26.564 14.9449 26.6752 15.0339C27.4536 15.701 29.6108 17.6581 29.6108 17.6581C30.1223 17.9917 30.7895 17.9695 31.301 17.6136C31.6124 17.4357 31.8348 17.1021 31.857 16.7241C31.8793 16.346 31.7236 15.9679 31.4345 15.701C31.3678 15.6343 25.1407 10.2079 23.7396 9.14041C22.9168 8.53994 22.472 8.38427 21.9827 8.31755C21.6936 8.29531 21.4267 8.31755 21.1376 8.38427C20.4927 8.56218 19.6253 9.14041 18.8692 9.74087C18.0686 10.3858 17.3569 10.964 16.6675 11.1197C15.7779 11.3199 14.7104 11.0752 14.2211 10.7416C14.0432 10.6304 13.9098 10.4748 13.8208 10.2969C13.6429 9.87431 13.9765 9.54072 14.021 9.474L15.7334 7.60589C15.9336 7.40573 16.1337 7.20558 16.3339 7.00542C15.8001 7.09438 15.2886 7.20557 14.7771 7.36125C14.1989 7.56141 13.5762 7.6726 12.9535 7.69484C12.3308 7.62812 11.7081 7.53917 11.0854 7.40573C9.37293 6.96094 7.72721 6.38272 6.12597 5.64881C3.76859 7.49469 2.14511 9.78535 1.70032 12.2984ZM21.6936 5.33746C18.7802 5.42642 17.5126 6.67183 16.2004 8.02843L14.5102 9.87431C14.5102 9.89655 14.3101 10.0967 14.4213 10.2524C14.7104 10.6527 15.6667 10.8751 16.623 10.6527C17.179 10.5193 17.9129 9.94103 18.6245 9.3628C19.4029 8.7401 20.1368 8.13963 20.9152 7.895C21.449 7.69484 22.0494 7.6726 22.5832 7.85052C23.1392 8.05067 23.6507 8.36203 24.0954 8.7401C25.4298 9.74087 30.7673 14.4112 31.7013 15.1895C34.4368 13.9886 37.3057 13.0545 40.219 12.4096C39.8187 10.0077 38.3509 7.82828 36.1492 6.04913C33.0802 7.36125 29.3217 8.05067 25.6522 6.24928C25.63 6.24928 23.7396 5.3597 21.827 5.3597L21.6936 5.33746Z" fill="white"/>
</mask>
<g mask="url(#mask13_3496_30644)">
<path d="M43.5554 2.0014H-1.63513V25.6419H43.5554V2.0014Z" fill="white"/>
</g>
<mask id="mask14_3496_30644" style="mask-type:luminance" maskUnits="userSpaceOnUse" x="1" y="4" width="40" height="20">
<path d="M10.5737 16.657C10.5514 15.9898 11.0852 15.4116 11.7523 15.4116C12.3973 15.3894 12.931 15.8786 12.9978 16.5013L13.0422 16.8349L13.2201 16.5681C13.5537 16.0788 14.0875 15.7897 14.6657 15.7674C14.8436 15.7674 15.0215 15.7897 15.1995 15.8342C15.711 15.9898 16.0446 16.4569 16.0668 16.9906C16.089 17.1685 16.2002 17.1685 16.2225 17.1685C16.267 17.1685 16.3337 17.1463 16.3782 17.1018C16.6005 16.8572 16.9341 16.7237 17.2677 16.7015C17.4901 16.7015 17.7348 16.7682 17.9349 16.8572C19.0914 17.3464 18.5799 18.8365 18.5799 18.8587C18.4687 19.1034 18.4687 19.2146 18.5576 19.2813L18.6021 19.3035H18.6466C18.7133 19.2813 18.8023 19.259 18.869 19.2368C19.0691 19.1478 19.2915 19.1034 19.4917 19.1034C20.359 19.1034 21.0484 19.7928 21.0484 20.6601C21.0484 21.5275 20.359 22.2169 19.4917 22.2169C18.6466 22.2169 17.9349 21.5497 17.8904 20.7046C17.8904 20.6379 17.8904 20.4377 17.7125 20.4377C17.6458 20.4377 17.5791 20.4822 17.5346 20.5489C17.3344 20.7713 17.0676 20.9048 16.7562 20.9048C16.5783 20.9048 16.4004 20.8603 16.2447 20.7936C15.3329 20.4155 15.3329 19.815 15.3774 19.5704C15.3996 19.5037 15.3996 19.437 15.3551 19.3925L15.2884 19.348H15.2439C15.1995 19.348 15.1327 19.3702 15.1105 19.4147C14.8881 19.5926 14.6212 19.7038 14.3321 19.7038C14.1987 19.7038 14.043 19.6816 13.9096 19.6149C12.7309 19.1478 12.8198 18.0359 12.8866 17.68C12.8866 17.6133 12.8866 17.5466 12.8421 17.5244L12.7531 17.4576L12.6642 17.5466C12.4418 17.769 12.1304 17.9024 11.8191 17.8802C11.1296 17.858 10.5959 17.3242 10.5737 16.657ZM21.8713 4.6922H21.6934C19.2693 4.75892 17.9127 5.62626 17.0009 6.36016C16.2002 6.40464 15.4219 6.56032 14.6657 6.78271C14.132 6.96063 13.576 7.07182 13.02 7.09406C12.9088 7.09406 12.7531 7.09406 12.6197 7.09406H12.375C11.7968 7.07182 8.81674 6.36016 6.45935 5.47058C6.21472 5.6485 5.97009 5.82641 5.74769 6.00433C8.21627 7.0051 11.2408 7.78348 12.1749 7.82796L12.9978 7.87244C13.6427 7.82796 14.2654 7.71676 14.8659 7.51661C15.2439 7.40541 15.6442 7.29422 16.0446 7.2275C15.9334 7.3387 15.8222 7.44989 15.711 7.56109L13.9985 9.40696C13.8651 9.5404 13.5537 9.91847 13.7539 10.3633C13.8651 10.5634 13.9985 10.7413 14.1987 10.8525C14.7547 11.1639 15.3774 11.3196 16.0223 11.3196C16.267 11.3196 16.5116 11.2973 16.7562 11.2528C17.4679 11.0972 18.224 10.4745 19.0246 9.85175C19.6474 9.34024 20.5592 8.6953 21.2486 8.49515C21.4487 8.45067 21.6711 8.40619 21.8713 8.40619C21.938 8.40619 21.9825 8.40619 22.0492 8.42843C22.5162 8.49515 22.961 8.65082 23.7394 9.22905C25.1405 10.2965 31.3898 15.723 31.4343 15.7674C31.6789 16.0121 31.8123 16.3457 31.8123 16.6793C31.7901 17.0129 31.6122 17.302 31.3231 17.4799C31.0784 17.6356 30.7893 17.7245 30.5002 17.7468C30.2556 17.7468 29.9887 17.68 29.7885 17.5466C29.7663 17.5244 27.6313 15.5673 26.8307 14.9224C26.7195 14.8334 26.6083 14.7667 26.4749 14.7222C26.4081 14.7222 26.3414 14.7444 26.2969 14.8112C26.1635 14.9668 26.3192 15.167 26.4749 15.3227L28.9657 17.8135C29.1436 17.9914 29.277 18.236 29.3215 18.4807C29.3438 18.9032 29.1436 19.2368 28.7211 19.5259C28.4542 19.7261 28.1428 19.815 27.8315 19.815C27.5868 19.815 27.32 19.7261 27.1198 19.5926L26.764 19.2368C26.0968 18.5919 25.4296 17.9247 24.9403 17.5021C24.8291 17.3909 24.6957 17.3242 24.5623 17.3242C24.4956 17.3242 24.4511 17.3464 24.4066 17.3909C24.3399 17.4576 24.2954 17.5688 24.4511 17.7468C24.4956 17.7912 24.54 17.858 24.5845 17.9024L26.4081 19.9485C26.6305 20.1931 26.6528 20.5489 26.4526 20.8158L26.3859 20.9048L26.2302 21.0827C25.9634 21.2828 25.652 21.3718 25.3406 21.3718C25.2517 21.3718 25.1627 21.3718 25.096 21.3496C24.9626 21.3273 24.8514 21.2828 24.7402 21.2161L24.7179 21.1939C24.6068 21.0827 23.6949 20.1486 22.9388 19.5259C22.8498 19.437 22.7164 19.3702 22.583 19.348C22.5162 19.348 22.4495 19.3702 22.405 19.4147C22.2494 19.5926 22.4718 19.8373 22.583 19.9262L24.1397 21.6387C24.1397 21.6609 24.1175 21.6831 24.073 21.7499C24.0285 21.8166 23.8284 21.9945 23.2724 22.1057C23.2057 22.1057 23.1167 22.1279 23.05 22.1279C22.5162 22.1057 22.0047 21.95 21.5377 21.6831C21.6934 21.3718 21.7601 21.0382 21.7601 20.6824C21.7601 19.4147 20.7593 18.3917 19.4917 18.3695H19.4694H19.3805C19.425 17.7912 19.336 16.6793 18.2018 16.19C17.8904 16.0566 17.5568 15.9898 17.2232 15.9676C16.9786 15.9676 16.734 16.0121 16.5116 16.101C16.2892 15.634 15.8666 15.3004 15.3774 15.1447C15.1105 15.0558 14.8436 15.0113 14.5545 15.0113C14.0875 15.0113 13.6427 15.167 13.2646 15.4339C12.8866 14.9668 12.3306 14.7 11.7523 14.7C11.2408 14.7 10.7293 14.9223 10.3735 15.2782C9.88423 14.9001 7.97164 13.6992 2.83432 12.5427C2.58969 12.476 2.01146 12.3203 1.67787 12.2314C1.61115 12.4982 1.58891 12.7874 1.54443 13.0765C1.54443 13.0765 2.50073 13.2989 2.67865 13.3433C7.92716 14.4998 9.6396 15.7007 9.92871 15.9231C9.83975 16.1678 9.77303 16.4124 9.77303 16.6793C9.79527 17.7912 10.7071 18.6586 11.8191 18.6363C11.908 18.6363 11.997 18.6363 12.0859 18.6141C12.2416 19.4147 12.8198 20.0597 13.576 20.3265C13.7984 20.4155 14.043 20.46 14.2654 20.46C14.4211 20.46 14.5545 20.4377 14.7102 20.4155C14.9326 20.9492 15.3774 21.3718 15.9111 21.5497C16.1558 21.6609 16.4226 21.7054 16.6895 21.7054C16.8897 21.7054 17.1121 21.6609 17.29 21.5942C17.6458 22.4615 18.4909 23.0175 19.425 23.0175C20.0477 23.0175 20.6481 22.7506 21.0707 22.3058C21.6711 22.6394 22.3383 22.8396 23.0277 22.8841C23.1167 22.8841 23.2279 22.8841 23.3169 22.8618C24.1175 22.7729 24.4733 22.4393 24.629 22.2169C24.6512 22.1724 24.6957 22.1279 24.7179 22.0835C24.9181 22.1502 25.1405 22.1946 25.3406 22.1724C25.8077 22.1502 26.2302 21.9945 26.5861 21.7054C26.9641 21.4607 27.231 21.0604 27.32 20.6156V20.5934C27.4534 20.6157 27.5868 20.6379 27.7425 20.6379C28.2095 20.6379 28.6543 20.4822 29.0324 20.2153C29.8553 19.6816 29.9887 18.9922 29.9665 18.5474C30.0999 18.5696 30.2556 18.5919 30.389 18.5919C30.8116 18.5696 31.2341 18.4584 31.6122 18.2138C32.1014 17.9024 32.4128 17.3909 32.4573 16.8349C32.4795 16.4569 32.3906 16.0566 32.1904 15.723C34.8147 14.6555 37.5056 13.7881 40.2411 13.1654C40.2188 12.8986 40.1744 12.5872 40.1299 12.3203C37.2388 12.9653 34.4144 13.8771 31.7234 15.078C29.8108 13.4101 25.3629 9.56264 24.162 8.67306C23.6949 8.27275 23.1834 7.98364 22.6052 7.76124C22.3606 7.67229 22.1159 7.65005 21.8491 7.65005C21.5155 7.65005 21.2041 7.71677 20.8928 7.80572C20.1144 8.05036 19.336 8.67306 18.6021 9.27353L18.5576 9.29577C17.8682 9.85175 17.1343 10.43 16.6005 10.5412C16.3559 10.5857 16.1113 10.6301 15.8666 10.6301C15.2662 10.6301 14.7102 10.4522 14.4878 10.2076C14.4433 10.1631 14.4656 10.0964 14.5545 9.98519L14.5768 9.96295L16.267 8.13931C17.5791 6.82719 18.8245 5.55954 21.6934 5.49282H21.8491C23.6282 5.49282 25.4296 6.29344 25.6298 6.36016C27.231 7.16078 28.9879 7.58333 30.7671 7.58333C32.5685 7.58333 34.4366 7.1163 36.4159 6.20448C36.1935 6.02657 35.9711 5.82641 35.7265 5.67074C34.1697 6.3824 32.4795 6.78271 30.7671 6.80495C29.0991 6.78271 27.4534 6.40464 25.9411 5.67074C25.8522 5.62626 23.8951 4.71444 21.8491 4.71444L21.8713 4.6922Z" fill="white"/>
</mask>
<g mask="url(#mask14_3496_30644)">
<path d="M43.6714 1.35626H-1.76379V26.3089H43.6714V1.35626Z" fill="#1D1B1B"/>
</g>
</g>
</svg>
