<svg width="111" height="29" viewBox="0 0 111 29" fill="none" xmlns="http://www.w3.org/2000/svg">
<g opacity="0.8">
<mask id="mask0_3674_27907" style="mask-type:luminance" maskUnits="userSpaceOnUse" x="101" y="4" width="10" height="10">
<path d="M104.551 11.0117C104.195 10.5447 103.995 9.85528 103.995 8.98794C103.995 8.1206 104.173 7.43117 104.551 6.96415C105.285 6.09681 106.575 6.00785 107.442 6.74175C107.531 6.80847 107.598 6.89743 107.665 6.96415C108.02 7.43117 108.198 8.1206 108.198 8.98794C108.198 9.85528 108.02 10.5447 107.665 11.0117C106.931 11.8791 105.641 11.968 104.773 11.2341C104.684 11.1674 104.618 11.1007 104.551 11.0117ZM102.727 5.6965C101.237 7.63133 101.237 10.3223 102.727 12.2794C103.461 13.1912 104.596 13.6582 106.108 13.6582C107.62 13.6582 108.754 13.2134 109.488 12.2794C110.978 10.3445 110.978 7.65357 109.488 5.6965C108.754 4.76244 107.62 4.29541 106.108 4.31765C104.596 4.33989 103.461 4.78468 102.727 5.6965Z" fill="white"/>
</mask>
<g mask="url(#mask0_3674_27907)">
<path d="M113.936 0.981567H98.2792V16.9717H113.936V0.981567Z" fill="#1D1B1B"/>
</g>
<mask id="mask1_3674_27907" style="mask-type:luminance" maskUnits="userSpaceOnUse" x="84" y="4" width="8" height="10">
<path d="M86.8658 11.6785C86.6211 11.4561 86.51 11.1447 86.5322 10.8334C86.51 10.4331 86.7101 10.055 87.0659 9.85485C87.3995 9.69917 87.7554 9.58797 88.1112 9.54349L88.6227 9.45454C88.8229 9.41006 89.023 9.36558 89.2232 9.29886C89.3788 9.23214 89.5345 9.16542 89.668 9.07646V9.9438C89.6457 10.7222 89.4456 11.2559 89.023 11.545C88.6227 11.8342 88.1557 11.9898 87.6664 11.9898C87.3773 11.9676 87.1104 11.8786 86.8658 11.6785ZM85.1978 5.47367C84.7975 6.02966 84.5751 6.69684 84.5529 7.38627H86.7324C86.7768 7.09715 86.888 6.80804 87.0659 6.58565C87.2883 6.31877 87.6664 6.18534 88.2224 6.18534C88.6005 6.1631 88.9785 6.22982 89.3344 6.38549C89.6012 6.54117 89.7347 6.83028 89.7124 7.14163C89.7124 7.45298 89.5123 7.71986 89.2232 7.80882C88.9341 7.92001 88.6227 7.98673 88.3113 8.00897L87.533 8.09793C86.8435 8.16465 86.1541 8.34257 85.5314 8.67616C84.7086 9.16542 84.286 9.9438 84.286 11.0335C84.286 11.8786 84.5306 12.5236 85.0644 12.9684C85.5981 13.4132 86.2208 13.6133 87.0215 13.6578C91.9586 13.8802 91.9141 11.0113 91.9586 10.4108V7.07491C91.9586 6.00742 91.5806 5.29576 90.8466 4.89545C90.0683 4.49514 89.1787 4.29498 88.3113 4.31722C86.8435 4.31722 85.7983 4.69529 85.1978 5.47367Z" fill="white"/>
</mask>
<g mask="url(#mask1_3674_27907)">
<path d="M95.2725 0.981567H80.9503V16.9717H95.2725V0.981567Z" fill="#1D1B1B"/>
</g>
<mask id="mask2_3674_27907" style="mask-type:luminance" maskUnits="userSpaceOnUse" x="75" y="4" width="9" height="10">
<path d="M76.4118 5.56291C75.6557 6.40801 75.2776 7.5867 75.2776 9.09898C75.2776 10.4334 75.6112 11.5231 76.3006 12.3682C76.99 13.2133 78.0575 13.6358 79.5031 13.6358C80.9486 13.6358 82.0606 13.1243 82.7945 12.1235C83.2393 11.5453 83.5062 10.8559 83.5729 10.122H81.171C81.1488 10.5223 80.9931 10.9226 80.7485 11.2562C80.5261 11.5453 80.1258 11.701 79.5698 11.701C78.8581 11.7455 78.191 11.2784 77.9686 10.6113C77.7906 10.122 77.7239 9.58825 77.7462 9.05451C77.7239 8.49852 77.8129 7.94253 77.9686 7.43103C78.2577 6.65265 78.8137 6.27458 79.6143 6.27458C80.0813 6.2301 80.5483 6.43025 80.8597 6.80832C81.0376 7.07519 81.1488 7.38655 81.1933 7.6979H83.6174C83.4839 6.43025 83.0614 5.56291 82.3275 5.07364C81.5936 4.58438 80.6818 4.33974 79.5476 4.33974C78.2132 4.31751 77.1679 4.71782 76.4118 5.56291Z" fill="white"/>
</mask>
<g mask="url(#mask2_3674_27907)">
<path d="M86.9332 0.981567H71.9438V16.9717H86.9332V0.981567Z" fill="#1D1B1B"/>
</g>
<mask id="mask3_3674_27907" style="mask-type:luminance" maskUnits="userSpaceOnUse" x="69" y="4" width="6" height="10">
<path d="M69.9481 8.76576V13.3026H72.2165V9.05487C72.2165 8.36545 72.3055 7.85394 72.4834 7.52035C72.7948 6.91989 73.3952 6.63077 74.307 6.63077C74.3738 6.63077 74.4627 6.63077 74.5739 6.63077C74.6851 6.63077 74.8186 6.65301 74.952 6.65301V4.31787H74.7518H74.6406C69.659 4.31787 69.9704 8.788 69.9481 8.76576Z" fill="white"/>
</mask>
<g mask="url(#mask3_3674_27907)">
<path d="M78.2676 0.982422H66.6141V16.639H78.2676V0.982422Z" fill="#1D1B1B"/>
</g>
<mask id="mask4_3674_27907" style="mask-type:luminance" maskUnits="userSpaceOnUse" x="60" y="4" width="9" height="10">
<path d="M63.2496 6.71951C63.6054 6.36368 64.1169 6.18576 64.6062 6.208C65.0955 6.18576 65.5847 6.36368 65.9628 6.67503C66.3409 7.03086 66.5633 7.54237 66.5633 8.07612H62.6269C62.6936 7.56461 62.916 7.09758 63.2496 6.71951ZM61.4927 5.54082C60.6921 6.36368 60.2917 7.52013 60.2917 9.05465C60.2917 10.6781 60.7365 11.8568 61.6261 12.5685C62.4935 13.2801 63.5832 13.6582 64.6952 13.6582C66.0962 13.6582 67.2082 13.2357 67.9866 12.3683C68.3647 11.9903 68.6315 11.5455 68.7872 11.034H66.3409C66.2519 11.1674 66.1407 11.2786 66.0295 11.3898C65.6959 11.6567 65.2511 11.7456 64.7396 11.7456C64.3171 11.7679 63.8945 11.6789 63.5165 11.4565C62.9382 11.1007 62.6269 10.5002 62.5824 9.61064H68.9429C68.9651 9.03241 68.9429 8.45419 68.8762 7.85372C68.7872 7.20878 68.5426 6.58607 68.1868 6.03009C67.8087 5.45186 67.2972 5.00707 66.6745 4.71796C66.0295 4.42885 65.3401 4.29541 64.6284 4.29541C63.3386 4.31765 62.2933 4.71796 61.4927 5.54082Z" fill="white"/>
</mask>
<g mask="url(#mask4_3674_27907)">
<path d="M72.2788 0.981812H56.9558V16.972H72.2788V0.981812Z" fill="#1D1B1B"/>
</g>
<mask id="mask5_3674_27907" style="mask-type:luminance" maskUnits="userSpaceOnUse" x="46" y="4" width="14" height="10">
<path d="M53.1459 5.51882C52.5232 4.74044 51.5892 4.29566 50.5884 4.3179C48.3867 4.3179 46.9634 5.96362 46.9634 8.12084V13.3249H49.0317V8.07636C49.0317 7.12006 49.6766 6.45288 50.5884 6.45288C51.945 6.45288 52.0785 7.58709 52.0785 8.07636V13.3249H54.1467V8.07636C54.1467 7.12006 54.8139 6.45288 55.7035 6.45288C57.0601 6.45288 57.2158 7.58709 57.2158 8.07636V13.3249H59.284V8.0986C59.284 5.87466 57.9497 4.29565 55.7035 4.29565C54.7027 4.29565 53.7464 4.74044 53.1459 5.51882Z" fill="white"/>
</mask>
<g mask="url(#mask5_3674_27907)">
<path d="M62.6238 0.981812H43.6313V16.6384H62.6238V0.981812Z" fill="#1D1B1B"/>
</g>
<mask id="mask6_3674_27907" style="mask-type:luminance" maskUnits="userSpaceOnUse" x="92" y="1" width="10" height="13">
<path d="M95.715 11.0342C95.3814 10.4338 95.2035 9.72211 95.2479 9.03269C95.2257 8.36551 95.3814 7.72056 95.715 7.16458C96.0041 6.65307 96.5601 6.36396 97.1605 6.40843C97.5831 6.40843 97.9834 6.54187 98.2947 6.83099C98.8285 7.29801 99.0954 8.12087 99.0954 9.18836C99.1176 9.85555 98.9397 10.5005 98.6061 11.0565C98.2947 11.5235 97.7387 11.8126 97.1605 11.7681C96.5601 11.7904 96.0041 11.5235 95.715 11.0342ZM99.0064 3.25043V5.71901C98.7618 5.3187 98.4282 4.98511 98.0279 4.76272C97.6053 4.51808 97.1383 4.40688 96.649 4.40688C95.6038 4.38464 94.603 4.85167 93.9581 5.69677C93.2909 6.56411 92.9573 7.78728 92.9573 9.27732C92.9573 10.5672 93.2909 11.6347 93.9803 12.4576C94.6697 13.2804 96.0041 13.6363 97.1828 13.6363C101.319 13.6363 101.275 10.0112 101.275 10.0112V1.64919C101.275 1.64919 101.164 1.62695 101.008 1.62695C100.407 1.64919 99.0064 1.80487 99.0064 3.25043Z" fill="white"/>
</mask>
<g mask="url(#mask6_3674_27907)">
<path d="M104.587 -1.6864H89.5979V16.9725H104.587V-1.6864Z" fill="#1D1B1B"/>
</g>
<mask id="mask7_3674_27907" style="mask-type:luminance" maskUnits="userSpaceOnUse" x="68" y="17" width="10" height="10">
<path d="M71.9184 20.2863C72.2965 19.9527 72.7858 19.7748 73.275 19.797C73.7643 19.7748 74.2536 19.9527 74.6316 20.2641C75.0097 20.5976 75.2321 21.0869 75.2321 21.5984H71.2957C71.3624 21.1092 71.5626 20.6421 71.9184 20.2863ZM70.1393 19.1521C69.3387 19.9305 68.9384 21.0647 68.9384 22.5325C68.9384 24.0892 69.3831 25.2235 70.2727 25.9351C71.1401 26.6245 72.2298 27.0026 73.3418 26.9804C74.7428 26.9804 75.8326 26.5578 76.6332 25.735C77.0113 25.3791 77.2781 24.9343 77.4338 24.4451H74.9875C74.8985 24.5785 74.7873 24.6897 74.6761 24.8009C74.2981 25.0678 73.831 25.179 73.364 25.1567C72.9415 25.179 72.5189 25.09 72.1408 24.8676C71.5626 24.534 71.2735 23.9336 71.229 23.0885H77.5895C77.6117 22.5325 77.5895 21.9542 77.5005 21.3983C77.4116 20.7756 77.167 20.1751 76.8111 19.6413C76.433 19.0854 75.9215 18.6628 75.2988 18.3959C74.6539 18.1291 73.9422 17.9956 73.2528 17.9956C71.9852 17.9734 70.9399 18.3737 70.1393 19.1521Z" fill="white"/>
</mask>
<g mask="url(#mask7_3674_27907)">
<path d="M80.9275 14.6376H65.6045V30.2941H80.9275V14.6376Z" fill="#1D1B1B"/>
</g>
<mask id="mask8_3674_27907" style="mask-type:luminance" maskUnits="userSpaceOnUse" x="54" y="14" width="9" height="13">
<path d="M57.3129 24.3774C56.9571 23.8214 56.7792 23.1764 56.8237 22.5092C56.8237 21.4417 57.0905 20.6856 57.6243 20.2186C57.9356 19.9517 58.336 19.796 58.7585 19.796C59.3367 19.7516 59.8927 20.0407 60.2041 20.5522C60.5377 21.1304 60.6933 21.7753 60.6711 22.4425C60.6933 23.1097 60.5377 23.7991 60.2041 24.3774C59.8927 24.8666 59.359 25.1335 58.7807 25.089C58.2025 25.1335 57.6465 24.8444 57.3129 24.3774ZM54.622 16.638V23.3321C54.622 23.3321 54.5775 26.9571 58.714 26.9571C59.8927 26.9571 61.2493 26.6013 61.9165 25.7784C62.6059 24.9556 62.9395 23.8881 62.9395 22.5982C62.9395 21.1082 62.6059 19.9295 61.9388 19.0844C61.2938 18.2393 60.293 17.7722 59.2478 17.7945C58.7585 17.7945 58.2915 17.9057 57.8689 18.1503C57.4686 18.3949 57.135 18.7285 56.8904 19.1288V14.9923C56.8237 14.9923 56.7347 14.9923 56.668 14.9923C56.0898 14.9923 54.622 15.1257 54.622 16.638Z" fill="white"/>
</mask>
<g mask="url(#mask8_3674_27907)">
<path d="M66.2741 11.6342H51.2847V30.2931H66.2741V11.6342Z" fill="#1D1B1B"/>
</g>
<mask id="mask9_3674_27907" style="mask-type:luminance" maskUnits="userSpaceOnUse" x="63" y="17" width="6" height="10">
<path d="M63.6235 22.1313V26.6237H65.8919V22.3982C65.8919 21.6865 65.9809 21.175 66.1588 20.8414C66.4701 20.2409 67.0706 19.9518 67.9824 19.9518C68.0491 19.9518 68.1381 19.9518 68.2493 19.9518C68.3605 19.9518 68.4939 19.9741 68.6274 19.9741V17.6612L68.4272 17.6389H68.316C63.3344 17.6389 63.6235 22.1535 63.6235 22.1313Z" fill="white"/>
</mask>
<g mask="url(#mask9_3674_27907)">
<path d="M71.9417 14.303H60.2882V29.9595H71.9417V14.303Z" fill="#1D1B1B"/>
</g>
<mask id="mask10_3674_27907" style="mask-type:luminance" maskUnits="userSpaceOnUse" x="46" y="14" width="3" height="13">
<path d="M46.9634 16.6164V26.6464H48.9649V14.9929H48.9205C48.6091 14.9707 46.9634 15.0374 46.9634 16.6164Z" fill="white"/>
</mask>
<g mask="url(#mask10_3674_27907)">
<path d="M52.2825 11.6346H43.6313V29.96H52.2825V11.6346Z" fill="#1D1B1B"/>
</g>
<path d="M52.9538 14.9705H50.6187V17.3056H52.9538V14.9705Z" fill="#1D1B1B"/>
<path d="M52.9538 17.9727H50.6187V26.646H52.9538V17.9727Z" fill="#1D1B1B"/>
<mask id="mask11_3674_27907" style="mask-type:luminance" maskUnits="userSpaceOnUse" x="0" y="0" width="41" height="29">
<path d="M20.6367 0.314941C9.49477 0.337181 0.48779 6.31959 0.532269 13.6141V14.3925C0.554508 22.1318 8.44951 28.3811 20.7257 28.3144C33.0686 28.2922 40.8524 21.9762 40.8524 14.2591C40.8302 13.9922 40.8524 13.8365 40.8524 13.4807C40.8079 6.23064 31.8232 0.314941 20.7257 0.314941H20.6367Z" fill="white"/>
</mask>
<g mask="url(#mask11_3674_27907)">
<path d="M44.1664 -2.99927H-2.82556V31.672H44.1664V-2.99927Z" fill="#1D1B1B"/>
</g>
<mask id="mask12_3674_27907" style="mask-type:luminance" maskUnits="userSpaceOnUse" x="1" y="1" width="39" height="26">
<path d="M20.6405 1.02637C10.0323 1.04861 1.4479 6.69743 1.47014 13.6361C1.49238 20.5748 10.099 26.1792 20.7073 26.1347C31.3155 26.0902 39.8999 20.4636 39.8777 13.5249C39.8554 6.58623 31.2932 1.02637 20.7295 1.02637H20.6405Z" fill="white"/>
</mask>
<g mask="url(#mask12_3674_27907)">
<path d="M43.2122 -2.30933H-1.86719V29.4708H43.2122V-2.30933Z" fill="white"/>
</g>
<mask id="mask13_3674_27907" style="mask-type:luminance" maskUnits="userSpaceOnUse" x="1" y="5" width="39" height="18">
<path d="M11.4954 15.0151C10.7392 15.0373 10.161 15.6823 10.1832 16.4384C10.2055 17.1501 10.7837 17.7061 11.4954 17.7505C11.8512 17.7505 12.1848 17.5949 12.4294 17.3502C12.4517 17.3502 12.4517 17.3725 12.4294 17.3947C12.3627 17.7283 12.2738 18.9515 13.5414 19.4407C13.9862 19.6186 14.4977 19.5297 14.8535 19.2183C14.9647 19.1294 14.987 19.1739 14.9647 19.2851C14.9202 19.5964 14.987 20.2858 15.921 20.6417C16.4103 20.8641 16.9885 20.7529 17.3443 20.3748C17.4778 20.2636 17.5 20.2858 17.5223 20.4637C17.5445 21.3978 18.3229 22.1317 19.2569 22.1095C20.191 22.0872 20.9249 21.3088 20.9027 20.3748C20.8804 19.4407 20.1243 18.6846 19.1902 18.6846C18.8122 18.6846 18.3896 18.907 18.3229 18.8847C18.3229 18.7958 18.3451 18.7068 18.3896 18.6179C18.4341 18.5289 18.9233 16.9944 17.7002 16.4829C16.7439 16.0826 16.1657 16.5496 15.9877 16.7275C15.921 16.7942 15.8988 16.772 15.8988 16.7053C15.8765 16.1271 15.4985 15.6155 14.9425 15.4376C14.1419 15.193 13.2968 15.5043 12.8297 16.1938C12.763 15.5266 12.1848 15.0151 11.5176 15.0151H11.4954ZM1.4209 12.0795C1.77673 12.1907 2.33272 12.3463 2.57735 12.3908C8.09274 13.614 9.82741 14.8594 10.1165 15.1263C10.4501 14.726 10.9616 14.5036 11.4731 14.5036C12.0736 14.5036 12.6296 14.7927 12.9632 15.282C13.3412 14.9706 13.8083 14.8149 14.2753 14.8149C14.5422 14.8149 14.8091 14.8594 15.0759 14.9484C15.5874 15.0818 15.9877 15.4599 16.1879 15.9491C16.4325 15.8379 16.6994 15.7935 16.9663 15.7935C17.2776 15.7935 17.589 15.8602 17.8781 15.9936C18.9011 16.4162 19.0568 17.4392 18.9678 18.1953C19.0345 18.1953 19.1013 18.1953 19.168 18.1953C20.3689 18.1953 21.3474 19.1739 21.3474 20.3748C21.3474 20.7306 21.2585 21.0865 21.0806 21.42C21.4142 21.598 22.237 22.0205 22.9709 21.9316C23.5492 21.8648 23.7938 21.6424 23.8605 21.5312C23.9272 21.42 23.9717 21.3533 23.9272 21.3088L22.3705 19.5742C22.3705 19.5742 22.1258 19.3295 22.1925 19.2406C22.2815 19.1516 22.4372 19.2851 22.5484 19.374C23.3268 20.0412 24.3053 21.042 24.3053 21.042C24.3053 21.042 24.3943 21.1977 24.7501 21.2421C25.1726 21.3088 25.6174 21.2199 25.9955 20.953C26.0845 20.8641 26.1957 20.7751 26.2624 20.6861L26.2401 20.7084C26.6404 20.1969 26.1957 19.6854 26.1957 19.6854L24.372 17.6393C24.372 17.6393 24.1274 17.3947 24.1941 17.3057C24.2831 17.2168 24.4387 17.3502 24.5499 17.4392C25.1282 17.9062 25.951 18.7291 26.7072 19.4852C26.8628 19.5964 27.5523 20.019 28.4418 19.4185C28.9756 19.0627 29.109 18.6179 29.0868 18.262C29.0423 17.9729 28.9089 17.7061 28.7087 17.5059L26.2179 15.0151C26.2179 15.0151 25.9733 14.7927 26.04 14.6815C26.1289 14.5703 26.2846 14.726 26.3958 14.8149C27.1742 15.4821 29.3314 17.4392 29.3314 17.4392C29.8429 17.7728 30.5101 17.7505 31.0216 17.3947C31.333 17.2168 31.5554 16.8832 31.5776 16.5051C31.5998 16.1271 31.4442 15.749 31.1551 15.4821C31.0883 15.4154 24.8613 9.98897 23.4602 8.92147C22.6373 8.32101 22.1925 8.16533 21.7033 8.09861C21.4142 8.07638 21.1473 8.09862 20.8582 8.16533C20.2132 8.34325 19.3459 8.92147 18.5898 9.52194C17.7891 10.1669 17.0775 10.7451 16.3881 10.9008C15.4985 11.1009 14.431 10.8563 13.9417 10.5227C13.7638 10.4115 13.6304 10.2558 13.5414 10.0779C13.3635 9.65537 13.6971 9.32178 13.7416 9.25507L15.454 7.38695C15.6541 7.1868 15.8543 6.98664 16.0545 6.78649C15.5207 6.87545 15.0092 6.98664 14.4977 7.14232C13.9195 7.34247 13.2968 7.45367 12.6741 7.47591C12.0514 7.40919 11.4287 7.32023 10.8059 7.1868C9.09351 6.74201 7.44779 6.16378 5.84655 5.42988C3.48917 7.27576 1.86569 9.56642 1.4209 12.0795ZM21.4142 5.11853C18.5008 5.20749 17.2332 6.4529 15.921 7.8095L14.2308 9.65538C14.2308 9.67762 14.0307 9.87777 14.1419 10.0334C14.431 10.4338 15.3873 10.6562 16.3436 10.4338C16.8996 10.3003 17.6335 9.72209 18.3451 9.14387C19.1235 8.52116 19.8574 7.9207 20.6358 7.67607C21.1695 7.47591 21.77 7.45367 22.3037 7.63159C22.8597 7.83174 23.3712 8.14309 23.816 8.52116C25.1504 9.52194 30.4879 14.1922 31.4219 14.9706C34.1574 13.7697 37.0263 12.8356 39.9396 12.1907C39.5393 9.78881 38.0715 7.60935 35.8698 5.83019C32.8008 7.14232 29.0423 7.83174 25.3728 6.03035C25.3506 6.03035 23.4602 5.14077 21.5476 5.14077L21.4142 5.11853Z" fill="white"/>
</mask>
<g mask="url(#mask13_3674_27907)">
<path d="M43.276 1.78247H-1.91455V25.423H43.276V1.78247Z" fill="white"/>
</g>
<mask id="mask14_3674_27907" style="mask-type:luminance" maskUnits="userSpaceOnUse" x="1" y="4" width="39" height="19">
<path d="M10.2942 16.438C10.272 15.7708 10.8057 15.1926 11.4729 15.1926C12.1179 15.1703 12.6516 15.6596 12.7183 16.2823L12.7628 16.6159L12.9407 16.349C13.2743 15.8597 13.8081 15.5706 14.3863 15.5484C14.5642 15.5484 14.7421 15.5706 14.92 15.6151C15.4315 15.7708 15.7651 16.2378 15.7874 16.7716C15.8096 16.9495 15.9208 16.9495 15.9431 16.9495C15.9875 16.9495 16.0543 16.9272 16.0987 16.8828C16.3211 16.6381 16.6547 16.5047 16.9883 16.4825C17.2107 16.4825 17.4553 16.5492 17.6555 16.6381C18.8119 17.1274 18.3004 18.6174 18.3004 18.6397C18.1892 18.8843 18.1892 18.9955 18.2782 19.0622L18.3227 19.0845H18.3672C18.4339 19.0622 18.5228 19.04 18.5896 19.0177C18.7897 18.9288 19.0121 18.8843 19.2123 18.8843C20.0796 18.8843 20.769 19.5737 20.769 20.4411C20.769 21.3084 20.0796 21.9978 19.2123 21.9978C18.3672 21.9978 17.6555 21.3307 17.611 20.4856C17.611 20.4188 17.611 20.2187 17.4331 20.2187C17.3664 20.2187 17.2997 20.2632 17.2552 20.3299C17.055 20.5523 16.7882 20.6857 16.4768 20.6857C16.2989 20.6857 16.121 20.6412 15.9653 20.5745C15.0535 20.1964 15.0535 19.596 15.098 19.3513C15.1202 19.2846 15.1202 19.2179 15.0757 19.1734L15.009 19.1289H14.9645C14.92 19.1289 14.8533 19.1512 14.8311 19.1957C14.6087 19.3736 14.3418 19.4848 14.0527 19.4848C13.9193 19.4848 13.7636 19.4625 13.6302 19.3958C12.4515 18.9288 12.5404 17.8168 12.6071 17.461C12.6071 17.3943 12.6071 17.3275 12.5627 17.3053L12.4737 17.2386L12.3847 17.3275C12.1623 17.5499 11.851 17.6834 11.5396 17.6611C10.8502 17.6389 10.3165 17.1052 10.2942 16.438ZM21.5919 4.47314H21.414C18.9899 4.53986 17.6333 5.4072 16.7214 6.1411C15.9208 6.18558 15.1424 6.34126 14.3863 6.56365C13.8525 6.74157 13.2966 6.85277 12.7406 6.87501C12.6294 6.87501 12.4737 6.87501 12.3403 6.87501H12.0956C11.5174 6.85277 8.53732 6.1411 6.17993 5.25153C5.9353 5.42944 5.69067 5.60736 5.46827 5.78527C7.93685 6.78605 10.9614 7.56443 11.8955 7.60891L12.7183 7.65339C13.3633 7.60891 13.986 7.49771 14.5864 7.29755C14.9645 7.18636 15.3648 7.07516 15.7651 7.00844C15.6539 7.11964 15.5427 7.23084 15.4315 7.34204L13.7191 9.18791C13.5857 9.32134 13.2743 9.69942 13.4745 10.1442C13.5857 10.3444 13.7191 10.5223 13.9193 10.6335C14.4753 10.9448 15.098 11.1005 15.7429 11.1005C15.9875 11.1005 16.2322 11.0783 16.4768 11.0338C17.1885 10.8781 17.9446 10.2554 18.7452 9.6327C19.3679 9.12119 20.2797 8.47625 20.9692 8.27609C21.1693 8.23161 21.3917 8.18713 21.5919 8.18713C21.6586 8.18713 21.7031 8.18713 21.7698 8.20937C22.2368 8.27609 22.6816 8.43177 23.46 9.00999C24.8611 10.0775 31.1104 15.5039 31.1548 15.5484C31.3995 15.793 31.5329 16.1266 31.5329 16.4602C31.5107 16.7938 31.3328 17.0829 31.0436 17.2608C30.799 17.4165 30.5099 17.5055 30.2208 17.5277C29.9762 17.5277 29.7093 17.461 29.5091 17.3275C29.4869 17.3053 27.3519 15.3482 26.5513 14.7033C26.4401 14.6143 26.3289 14.5476 26.1954 14.5031C26.1287 14.5031 26.062 14.5254 26.0175 14.5921C25.8841 14.7478 26.0398 14.9479 26.1954 15.1036L28.6863 17.5944C28.8642 17.7723 28.9976 18.017 29.0421 18.2616C29.0643 18.6842 28.8642 19.0177 28.4416 19.3069C28.1748 19.507 27.8634 19.596 27.5521 19.596C27.3074 19.596 27.0405 19.507 26.8404 19.3736L26.4846 19.0177C25.8174 18.3728 25.1502 17.7056 24.6609 17.2831C24.5497 17.1719 24.4163 17.1052 24.2829 17.1052C24.2161 17.1052 24.1717 17.1274 24.1272 17.1719C24.0605 17.2386 24.016 17.3498 24.1717 17.5277C24.2161 17.5722 24.2606 17.6389 24.3051 17.6834L26.1287 19.7294C26.3511 19.974 26.3734 20.3299 26.1732 20.5968L26.1065 20.6857L25.9508 20.8636C25.6839 21.0638 25.3726 21.1527 25.0612 21.1527C24.9723 21.1527 24.8833 21.1527 24.8166 21.1305C24.6832 21.1083 24.572 21.0638 24.4608 20.9971L24.4385 20.9748C24.3273 20.8636 23.4155 19.9296 22.6594 19.3069C22.5704 19.2179 22.437 19.1512 22.3035 19.1289C22.2368 19.1289 22.1701 19.1512 22.1256 19.1957C21.9699 19.3736 22.1923 19.6182 22.3035 19.7072L23.8603 21.4196C23.8603 21.4418 23.8381 21.4641 23.7936 21.5308C23.7491 21.5975 23.549 21.7754 22.993 21.8866C22.9262 21.8866 22.8373 21.9089 22.7706 21.9089C22.2368 21.8866 21.7253 21.731 21.2583 21.4641C21.414 21.1527 21.4807 20.8191 21.4807 20.4633C21.4807 19.1957 20.4799 18.1726 19.2123 18.1504H19.19H19.1011C19.1455 17.5722 19.0566 16.4602 17.9224 15.9709C17.611 15.8375 17.2774 15.7708 16.9438 15.7485C16.6992 15.7485 16.4546 15.793 16.2322 15.882C16.0098 15.415 15.5872 15.0814 15.098 14.9257C14.8311 14.8367 14.5642 14.7923 14.2751 14.7923C13.8081 14.7923 13.3633 14.9479 12.9852 15.2148C12.6071 14.7478 12.0512 14.4809 11.4729 14.4809C10.9614 14.4809 10.4499 14.7033 10.0941 15.0591C9.60481 14.6811 7.69222 13.4801 2.5549 12.3237C2.31027 12.257 1.73204 12.1013 1.39845 12.0123C1.33173 12.2792 1.30949 12.5683 1.26501 12.8574C1.26501 12.8574 2.22131 13.0798 2.39923 13.1243C7.64774 14.2807 9.36018 15.4817 9.64929 15.7041C9.56033 15.9487 9.49361 16.1933 9.49361 16.4602C9.51585 17.5722 10.4277 18.4395 11.5396 18.4173C11.6286 18.4173 11.7176 18.4173 11.8065 18.395C11.9622 19.1957 12.5404 19.8406 13.2966 20.1075C13.519 20.1964 13.7636 20.2409 13.986 20.2409C14.1417 20.2409 14.2751 20.2187 14.4308 20.1964C14.6532 20.7302 15.098 21.1527 15.6317 21.3306C15.8763 21.4418 16.1432 21.4863 16.4101 21.4863C16.6102 21.4863 16.8326 21.4418 17.0105 21.3751C17.3664 22.2425 18.2115 22.7985 19.1455 22.7985C19.7682 22.7985 20.3687 22.5316 20.7913 22.0868C21.3917 22.4204 22.0589 22.6205 22.7483 22.665C22.8373 22.665 22.9485 22.665 23.0374 22.6428C23.8381 22.5538 24.1939 22.2202 24.3496 21.9978C24.3718 21.9534 24.4163 21.9089 24.4385 21.8644C24.6387 21.9311 24.8611 21.9756 25.0612 21.9534C25.5283 21.9311 25.9508 21.7754 26.3066 21.4863C26.6847 21.2417 26.9516 20.8414 27.0405 20.3966V20.3744C27.174 20.3966 27.3074 20.4188 27.4631 20.4188C27.9301 20.4188 28.3749 20.2632 28.753 19.9963C29.5758 19.4625 29.7093 18.7731 29.687 18.3283C29.8205 18.3506 29.9762 18.3728 30.1096 18.3728C30.5321 18.3506 30.9547 18.2394 31.3328 17.9947C31.822 17.6834 32.1334 17.1719 32.1779 16.6159C32.2001 16.2378 32.1111 15.8375 31.911 15.5039C34.5352 14.4364 37.2262 13.5691 39.9617 12.9464C39.9394 12.6795 39.895 12.3682 39.8505 12.1013C36.9593 12.7462 34.1349 13.658 31.444 14.859C29.5314 13.191 25.0835 9.34359 23.8825 8.45401C23.4155 8.0537 22.904 7.76458 22.3258 7.54219C22.0811 7.45323 21.8365 7.43099 21.5696 7.43099C21.236 7.43099 20.9247 7.49771 20.6133 7.58667C19.835 7.8313 19.0566 8.45401 18.3227 9.05447L18.2782 9.07671C17.5888 9.6327 16.8549 10.2109 16.3211 10.3221C16.0765 10.3666 15.8319 10.4111 15.5872 10.4111C14.9868 10.4111 14.4308 10.2332 14.2084 9.98853C14.1639 9.94405 14.1861 9.87733 14.2751 9.76613L14.2973 9.74389L15.9875 7.92026C17.2997 6.60813 18.5451 5.34048 21.414 5.27377H21.5696C23.3488 5.27377 25.1502 6.07439 25.3503 6.1411C26.9516 6.94172 28.7085 7.36427 30.4877 7.36427C32.2891 7.36427 34.1572 6.89725 36.1365 5.98543C35.9141 5.80751 35.6917 5.60736 35.4471 5.45168C33.8903 6.16334 32.2001 6.56365 30.4877 6.58589C28.8197 6.56365 27.174 6.18558 25.6617 5.45168C25.5727 5.4072 23.6157 4.49539 21.5696 4.49539L21.5919 4.47314Z" fill="white"/>
</mask>
<g mask="url(#mask14_3674_27907)">
<path d="M43.392 1.13721H-2.04321V26.0899H43.392V1.13721Z" fill="#1D1B1B"/>
</g>
</g>
</svg>
