<svg width="95" height="21" viewBox="0 0 95 21" fill="none" xmlns="http://www.w3.org/2000/svg">
<path d="M50.4699 19.6768H49.0236V1.91625C49.0236 1.35638 49.4279 0.952026 49.9878 0.952026H50.4699V19.6768Z" fill="#1D1B1B"/>
<path d="M64.462 6.31757H64.9441C65.504 6.31757 65.9083 6.72192 65.9083 7.28179V19.6924H64.462V16.7997C63.42 18.8837 61.336 20.2367 58.7855 20.2367C54.7886 20.2367 51.8959 17.1885 51.8959 13.0361C51.8959 8.88366 54.773 5.83545 58.7855 5.83545C61.3515 5.83545 63.42 7.18848 64.462 9.27246V6.31757ZM64.462 13.0361C64.462 9.67682 62.0669 7.18848 58.8632 7.18848C55.5817 7.18848 53.2645 9.67682 53.2645 13.0361C53.2645 16.3953 55.5817 18.8837 58.8632 18.8837C62.0669 18.8837 64.462 16.3953 64.462 13.0361Z" fill="#1D1B1B"/>
<path d="M69.8326 0.952026V9.19464C70.8746 7.11066 72.9585 5.83538 75.5091 5.83538C79.506 5.83538 82.3987 8.88359 82.3987 13.036C82.3987 17.1884 79.4438 20.2366 75.5091 20.2366C72.943 20.2366 70.8746 18.8836 69.8326 16.8774V19.6767H68.3862V1.91625C68.3862 1.35638 68.7906 0.952026 69.3505 0.952026H69.8326ZM75.3536 7.18842C72.0721 7.18842 69.7548 9.67675 69.7548 12.9427C69.7548 16.3019 72.0721 18.697 75.3536 18.697C78.5573 18.697 80.9523 16.3019 80.9523 12.9427C80.9523 9.67675 78.5573 7.18842 75.3536 7.18842Z" fill="#1D1B1B"/>
<path d="M83.0315 15.3538H84.4778C84.4778 17.4377 86.313 18.8685 88.8013 18.8685C91.1186 18.8685 92.7204 17.671 92.7204 16.1469C92.7204 12.3833 83.3581 14.7939 83.3581 9.8172C83.3581 7.49994 85.5198 5.82031 88.3192 5.82031C91.5229 5.82031 93.7624 7.73322 93.7624 10.2993H92.3161C92.3161 8.46417 90.6365 7.17335 88.3192 7.17335C86.313 7.17335 84.7111 8.2931 84.7111 9.73944C84.7111 13.3475 94.0735 11.0925 94.0735 15.9758C94.0735 18.3709 91.834 20.1438 88.708 20.1438C85.4265 20.2371 83.0315 18.1531 83.0315 15.3538Z" fill="#1D1B1B"/>
<path d="M5.16504 19.6768H0.763794V3.51812C0.763794 2.07178 1.88354 0.952026 3.32989 0.952026H5.16504V19.6768Z" fill="#1D1B1B"/>
<path d="M37.4224 16.473L41.5904 2.86493C41.917 1.82294 42.9434 1.02979 44.0787 1.02979H46.8003L40.7817 19.6768H34.0632L28.0601 0.952026H30.7817C31.9014 0.952026 32.8657 1.66742 33.1767 2.70941L37.4224 16.473Z" fill="#1D1B1B"/>
<path d="M17.8129 0.314941C11.6543 0.314941 7.48633 4.38959 7.48633 10.3149C7.48633 16.2403 11.6543 20.3149 17.8129 20.3149C23.8938 20.3149 28.1395 16.2403 28.1395 10.3149C28.1395 4.46735 23.8938 0.314941 17.8129 0.314941ZM17.8129 16.5513C14.2981 16.5513 11.8876 13.9852 11.8876 10.3149C11.8876 9.19519 12.1209 8.1532 12.603 7.26673C12.603 7.26673 12.603 7.26673 12.603 7.18897C12.603 7.18897 12.603 7.18897 12.603 7.11121C12.603 7.11121 12.6807 7.03345 12.6807 6.95569C12.6807 6.95569 12.6807 6.87793 12.7585 6.87793C12.7585 6.80017 12.8363 6.80017 12.8363 6.72241C13.3184 6.00701 14.4381 4.63842 16.4443 4.32738H16.5221H16.5999C17.2375 4.24962 19.166 4.24962 20.0369 5.68042C20.0369 5.68042 20.0369 5.68042 20.0369 5.75818C20.1146 5.83594 20.1146 5.9137 20.1146 5.99146C20.1146 5.99146 20.1146 6.06922 20.1924 6.06922C21.2344 8.30872 20.1146 11.5902 18.746 12.8655C18.746 12.8655 22.914 10.4705 22.7429 6.78462C23.3028 7.74885 23.6294 8.94636 23.6294 10.2216C23.7383 14.0008 21.3277 16.5513 17.8129 16.5513Z" fill="#1D1B1B"/>
</svg>
