<svg width="111" height="29" viewBox="0 0 111 29" fill="none" xmlns="http://www.w3.org/2000/svg">
<g opacity="0.8">
<mask id="mask0_3674_24714" style="mask-type:luminance" maskUnits="userSpaceOnUse" x="101" y="4" width="10" height="10">
<path d="M104.717 11.268C104.361 10.8009 104.161 10.1115 104.161 9.24416C104.161 8.37682 104.338 7.6874 104.717 7.22037C105.45 6.35303 106.74 6.26408 107.608 6.99798C107.697 7.0647 107.763 7.15365 107.83 7.22037C108.186 7.6874 108.364 8.37682 108.364 9.24416C108.364 10.1115 108.186 10.8009 107.83 11.268C107.096 12.1353 105.806 12.2243 104.939 11.4903C104.85 11.4236 104.783 11.3569 104.717 11.268ZM102.893 5.95272C101.403 7.88756 101.403 10.5785 102.893 12.5356C103.627 13.4474 104.761 13.9144 106.273 13.9144C107.786 13.9144 108.92 13.4697 109.654 12.5356C111.144 10.6008 111.144 7.9098 109.654 5.95272C108.92 5.01867 107.786 4.55164 106.273 4.57388C104.761 4.59612 103.627 5.04091 102.893 5.95272Z" fill="white"/>
</mask>
<g mask="url(#mask0_3674_24714)">
<path d="M114.101 1.23779H98.4448V17.228H114.101V1.23779Z" fill="#1D1B1B"/>
</g>
<mask id="mask1_3674_24714" style="mask-type:luminance" maskUnits="userSpaceOnUse" x="84" y="4" width="9" height="10">
<path d="M87.0312 11.9347C86.7866 11.7123 86.6754 11.401 86.6976 11.0896C86.6754 10.6893 86.8755 10.3112 87.2313 10.1111C87.5649 9.95539 87.9208 9.8442 88.2766 9.79972L88.7881 9.71076C88.9883 9.66628 89.1884 9.6218 89.3886 9.55508C89.5442 9.48837 89.6999 9.42165 89.8334 9.33269V10.2C89.8111 10.9784 89.611 11.5122 89.1884 11.8013C88.7881 12.0904 88.3211 12.2461 87.8318 12.2461C87.5427 12.2238 87.2758 12.1349 87.0312 11.9347ZM85.3632 5.7299C84.9629 6.28589 84.7405 6.95307 84.7183 7.64249H86.8978C86.9422 7.35338 87.0534 7.06427 87.2313 6.84187C87.4537 6.575 87.8318 6.44156 88.3878 6.44156C88.7659 6.41932 89.1439 6.48604 89.4998 6.64172C89.7666 6.79739 89.9001 7.08651 89.8778 7.39786C89.8778 7.70921 89.6777 7.97608 89.3886 8.06504C89.0995 8.17624 88.7881 8.24296 88.4768 8.2652L87.6984 8.35416C87.0089 8.42087 86.3195 8.59879 85.6968 8.93238C84.874 9.42165 84.4514 10.2 84.4514 11.2898C84.4514 12.1349 84.696 12.7798 85.2298 13.2246C85.7635 13.6694 86.3862 13.8695 87.1869 13.914C92.124 14.1364 92.0795 11.2675 92.124 10.6671V7.33114C92.124 6.26364 91.746 5.55199 91.0121 5.15168C90.2337 4.75137 89.3441 4.55121 88.4768 4.57345C87.0089 4.57345 85.9637 4.95152 85.3632 5.7299Z" fill="white"/>
</mask>
<g mask="url(#mask1_3674_24714)">
<path d="M95.4379 1.23779H81.1157V17.228H95.4379V1.23779Z" fill="#1D1B1B"/>
</g>
<mask id="mask2_3674_24714" style="mask-type:luminance" maskUnits="userSpaceOnUse" x="75" y="4" width="9" height="10">
<path d="M76.5773 5.81914C75.8212 6.66424 75.4431 7.84293 75.4431 9.35521C75.4431 10.6896 75.7767 11.7793 76.4661 12.6244C77.1555 13.4695 78.223 13.8921 79.6686 13.8921C81.1142 13.8921 82.2261 13.3805 82.96 12.3798C83.4048 11.8015 83.6717 11.1121 83.7384 10.3782H81.3366C81.3143 10.7785 81.1586 11.1788 80.914 11.5124C80.6916 11.8015 80.2913 11.9572 79.7353 11.9572C79.0237 12.0017 78.3565 11.5347 78.1341 10.8675C77.9562 10.3782 77.8894 9.84448 77.9117 9.31073C77.8894 8.75475 77.9784 8.19876 78.1341 7.68725C78.4232 6.90887 78.9792 6.5308 79.7798 6.5308C80.2468 6.48632 80.7139 6.68648 81.0252 7.06455C81.2031 7.33142 81.3143 7.64277 81.3588 7.95412H83.7829C83.6495 6.68648 83.2269 5.81914 82.493 5.32987C81.7591 4.8406 80.8473 4.59597 79.7131 4.59597C78.3787 4.57373 77.3335 4.97404 76.5773 5.81914Z" fill="white"/>
</mask>
<g mask="url(#mask2_3674_24714)">
<path d="M87.0988 1.23779H72.1094V17.228H87.0988V1.23779Z" fill="#1D1B1B"/>
</g>
<mask id="mask3_3674_24714" style="mask-type:luminance" maskUnits="userSpaceOnUse" x="70" y="4" width="6" height="10">
<path d="M70.1135 9.02199V13.5588H72.3819V9.3111C72.3819 8.62168 72.4709 8.11017 72.6488 7.77658C72.9602 7.17611 73.5606 6.887 74.4725 6.887C74.5392 6.887 74.6281 6.887 74.7393 6.887C74.8505 6.887 74.984 6.90924 75.1174 6.90924V4.5741H74.9172H74.806C69.8244 4.5741 70.1358 9.04423 70.1135 9.02199Z" fill="white"/>
</mask>
<g mask="url(#mask3_3674_24714)">
<path d="M78.433 1.23865H66.7795V16.8952H78.433V1.23865Z" fill="#1D1B1B"/>
</g>
<mask id="mask4_3674_24714" style="mask-type:luminance" maskUnits="userSpaceOnUse" x="60" y="4" width="10" height="10">
<path d="M63.4151 6.97574C63.771 6.61991 64.2825 6.44199 64.7717 6.46423C65.261 6.44199 65.7503 6.61991 66.1283 6.93126C66.5064 7.28709 66.7288 7.79859 66.7288 8.33234H62.7924C62.8591 7.82083 63.0815 7.35381 63.4151 6.97574ZM61.6582 5.79705C60.8576 6.61991 60.4573 7.77636 60.4573 9.31088C60.4573 10.9344 60.9021 12.113 61.7916 12.8247C62.659 13.5364 63.7487 13.9144 64.8607 13.9144C66.2618 13.9144 67.3737 13.4919 68.1521 12.6246C68.5302 12.2465 68.7971 11.8017 68.9527 11.2902H66.5064C66.4175 11.4236 66.3063 11.5348 66.1951 11.646C65.8615 11.9129 65.4167 12.0018 64.9052 12.0018C64.4826 12.0241 64.0601 11.9351 63.682 11.7127C63.1038 11.3569 62.7924 10.7564 62.7479 9.86686H69.1084C69.1307 9.28864 69.1084 8.71041 69.0417 8.10995C68.9527 7.465 68.7081 6.8423 68.3523 6.28631C67.9742 5.70809 67.4627 5.2633 66.84 4.97419C66.1951 4.68507 65.5056 4.55164 64.794 4.55164C63.5041 4.57388 62.4588 4.97419 61.6582 5.79705Z" fill="white"/>
</mask>
<g mask="url(#mask4_3674_24714)">
<path d="M72.4443 1.23804H57.1213V17.2282H72.4443V1.23804Z" fill="#1D1B1B"/>
</g>
<mask id="mask5_3674_24714" style="mask-type:luminance" maskUnits="userSpaceOnUse" x="47" y="4" width="13" height="10">
<path d="M53.3112 5.77505C52.6885 4.99667 51.7545 4.55188 50.7537 4.57412C48.552 4.57412 47.1287 6.21984 47.1287 8.37707V13.5811H49.1969V8.33259C49.1969 7.37629 49.8419 6.70911 50.7537 6.70911C52.1103 6.70911 52.2437 7.84332 52.2437 8.33259V13.5811H54.312V8.33259C54.312 7.37629 54.9792 6.70911 55.8688 6.70911C57.2254 6.70911 57.381 7.84332 57.381 8.33259V13.5811H59.4493V8.35483C59.4493 6.13088 58.115 4.55188 55.8688 4.55188C54.868 4.55188 53.9117 4.99667 53.3112 5.77505Z" fill="white"/>
</mask>
<g mask="url(#mask5_3674_24714)">
<path d="M62.7891 1.23804H43.7966V16.8946H62.7891V1.23804Z" fill="#1D1B1B"/>
</g>
<mask id="mask6_3674_24714" style="mask-type:luminance" maskUnits="userSpaceOnUse" x="93" y="1" width="9" height="13">
<path d="M95.8802 11.2905C95.5467 10.69 95.3687 9.97834 95.4132 9.28891C95.391 8.62173 95.5467 7.97679 95.8802 7.4208C96.1694 6.9093 96.7253 6.62018 97.3258 6.66466C97.7484 6.66466 98.1487 6.7981 98.46 7.08721C98.9938 7.55424 99.2606 8.3771 99.2606 9.44459C99.2829 10.1118 99.105 10.7567 98.7714 11.3127C98.46 11.7797 97.904 12.0688 97.3258 12.0244C96.7253 12.0466 96.1694 11.7797 95.8802 11.2905ZM99.1717 3.50666V5.97524C98.9271 5.57493 98.5935 5.24134 98.1932 5.01894C97.7706 4.77431 97.3036 4.66311 96.8143 4.66311C95.769 4.64087 94.7683 5.1079 94.1233 5.953C93.4562 6.82034 93.1226 8.04351 93.1226 9.53355C93.1226 10.8234 93.4561 11.8909 94.1456 12.7138C94.835 13.5367 96.1694 13.8925 97.3481 13.8925C101.485 13.8925 101.44 10.2675 101.44 10.2675V1.90542C101.44 1.90542 101.329 1.88318 101.173 1.88318C100.573 1.90542 99.1717 2.06109 99.1717 3.50666Z" fill="white"/>
</mask>
<g mask="url(#mask6_3674_24714)">
<path d="M104.753 -1.43018H89.7632V17.2287H104.753V-1.43018Z" fill="#1D1B1B"/>
</g>
<mask id="mask7_3674_24714" style="mask-type:luminance" maskUnits="userSpaceOnUse" x="69" y="18" width="9" height="10">
<path d="M72.0838 20.5425C72.4619 20.2089 72.9512 20.031 73.4405 20.0533C73.9297 20.031 74.419 20.2089 74.7971 20.5203C75.1751 20.8539 75.3975 21.3431 75.3975 21.8546H71.4611C71.5279 21.3654 71.728 20.8983 72.0838 20.5425ZM70.3047 19.4083C69.5041 20.1867 69.1038 21.3209 69.1038 22.7887C69.1038 24.3455 69.5485 25.4797 70.4381 26.1913C71.3055 26.8808 72.3952 27.2588 73.5072 27.2366C74.9083 27.2366 75.998 26.814 76.7986 25.9912C77.1767 25.6354 77.4436 25.1906 77.5992 24.7013H75.1529C75.0639 24.8347 74.9527 24.9459 74.8415 25.0571C74.4635 25.324 73.9964 25.4352 73.5294 25.413C73.1069 25.4352 72.6843 25.3462 72.3062 25.1238C71.728 24.7903 71.4389 24.1898 71.3944 23.3447H77.7549C77.7771 22.7887 77.7549 22.2105 77.6659 21.6545C77.577 21.0318 77.3324 20.4313 76.9765 19.8976C76.5985 19.3416 76.0869 18.919 75.4642 18.6522C74.8193 18.3853 74.1076 18.2519 73.4182 18.2519C72.1506 18.2296 71.1053 18.6299 70.3047 19.4083Z" fill="white"/>
</mask>
<g mask="url(#mask7_3674_24714)">
<path d="M81.0928 14.8938H65.7698V30.5504H81.0928V14.8938Z" fill="#1D1B1B"/>
</g>
<mask id="mask8_3674_24714" style="mask-type:luminance" maskUnits="userSpaceOnUse" x="54" y="15" width="10" height="13">
<path d="M57.4783 24.6336C57.1225 24.0776 56.9446 23.4326 56.9891 22.7655C56.9891 21.698 57.256 20.9418 57.7897 20.4748C58.1011 20.2079 58.5014 20.0523 58.9239 20.0523C59.5021 20.0078 60.0581 20.2969 60.3695 20.8084C60.7031 21.3866 60.8587 22.0316 60.8365 22.6987C60.8587 23.3659 60.7031 24.0554 60.3695 24.6336C60.0581 25.1229 59.5244 25.3897 58.9462 25.3452C58.3679 25.3897 57.8119 25.1006 57.4783 24.6336ZM54.7874 16.8943V23.5883C54.7874 23.5883 54.7429 27.2134 58.8794 27.2134C60.0581 27.2134 61.4147 26.8575 62.0819 26.0347C62.7713 25.2118 63.1049 24.1443 63.1049 22.8544C63.1049 21.3644 62.7713 20.1857 62.1042 19.3406C61.4592 18.4955 60.4584 18.0285 59.4132 18.0507C58.9239 18.0507 58.4569 18.1619 58.0343 18.4065C57.634 18.6512 57.3004 18.9848 57.0558 19.3851V15.2485C56.9891 15.2485 56.9001 15.2485 56.8334 15.2485C56.2552 15.2485 54.7874 15.382 54.7874 16.8943Z" fill="white"/>
</mask>
<g mask="url(#mask8_3674_24714)">
<path d="M66.4393 11.8904H51.45V30.5493H66.4393V11.8904Z" fill="#1D1B1B"/>
</g>
<mask id="mask9_3674_24714" style="mask-type:luminance" maskUnits="userSpaceOnUse" x="63" y="17" width="6" height="10">
<path d="M63.7888 22.3875V26.8799H66.0572V22.6544C66.0572 21.9427 66.1462 21.4312 66.3241 21.0976C66.6354 20.4972 67.2359 20.208 68.1477 20.208C68.2144 20.208 68.3034 20.208 68.4146 20.208C68.5258 20.208 68.6592 20.2303 68.7926 20.2303V17.9174L68.5925 17.8951H68.4813C63.4997 17.8951 63.7888 22.4098 63.7888 22.3875Z" fill="white"/>
</mask>
<g mask="url(#mask9_3674_24714)">
<path d="M72.1071 14.5592H60.4536V30.2158H72.1071V14.5592Z" fill="#1D1B1B"/>
</g>
<mask id="mask10_3674_24714" style="mask-type:luminance" maskUnits="userSpaceOnUse" x="47" y="15" width="3" height="12">
<path d="M47.1287 16.8726V26.9026H49.1302V15.2491H49.0857C48.7744 15.2269 47.1287 15.2936 47.1287 16.8726Z" fill="white"/>
</mask>
<g mask="url(#mask10_3674_24714)">
<path d="M52.4478 11.8909H43.7966V30.2162H52.4478V11.8909Z" fill="#1D1B1B"/>
</g>
<path d="M53.1193 15.2267H50.7842V17.5618H53.1193V15.2267Z" fill="#1D1B1B"/>
<path d="M53.1193 18.2289H50.7842V26.9023H53.1193V18.2289Z" fill="#1D1B1B"/>
<mask id="mask11_3674_24714" style="mask-type:luminance" maskUnits="userSpaceOnUse" x="0" y="0" width="42" height="29">
<path d="M20.8021 0.571167C9.66018 0.593406 0.653195 6.57582 0.697674 13.8704V14.6487C0.719913 22.3881 8.61492 28.6374 20.8911 28.5706C33.234 28.5484 41.0178 22.2324 41.0178 14.5153C40.9956 14.2484 41.0178 14.0928 41.0178 13.7369C40.9733 6.48686 31.9886 0.571167 20.8911 0.571167H20.8021Z" fill="white"/>
</mask>
<g mask="url(#mask11_3674_24714)">
<path d="M44.3318 -2.74304H-2.66016V31.9283H44.3318V-2.74304Z" fill="#1D1B1B"/>
</g>
<mask id="mask12_3674_24714" style="mask-type:luminance" maskUnits="userSpaceOnUse" x="1" y="1" width="40" height="26">
<path d="M20.8059 1.28259C10.1977 1.30483 1.6133 6.95365 1.63554 13.8924C1.65778 20.8311 10.2644 26.4354 20.8727 26.3909C31.4809 26.3465 40.0653 20.7199 40.0431 13.7812C40.0208 6.84245 31.4586 1.28259 20.8949 1.28259H20.8059Z" fill="white"/>
</mask>
<g mask="url(#mask12_3674_24714)">
<path d="M43.3775 -2.0531H-1.7019V29.7271H43.3775V-2.0531Z" fill="white"/>
</g>
<mask id="mask13_3674_24714" style="mask-type:luminance" maskUnits="userSpaceOnUse" x="1" y="5" width="40" height="18">
<path d="M11.6609 15.2713C10.9048 15.2935 10.3265 15.9385 10.3488 16.6946C10.371 17.4063 10.9492 17.9623 11.6609 18.0068C12.0167 18.0068 12.3503 17.8511 12.595 17.6065C12.6172 17.6065 12.6172 17.6287 12.595 17.6509C12.5282 17.9845 12.4393 19.2077 13.7069 19.697C14.1517 19.8749 14.6632 19.7859 15.0191 19.4746C15.1303 19.3856 15.1525 19.4301 15.1303 19.5413C15.0858 19.8526 15.1525 20.5421 16.0866 20.8979C16.5758 21.1203 17.154 21.0091 17.5099 20.631C17.6433 20.5198 17.6656 20.5421 17.6878 20.72C17.71 21.654 18.4884 22.3879 19.4225 22.3657C20.3565 22.3435 21.0904 21.5651 21.0682 20.631C21.0459 19.697 20.2898 18.9408 19.3557 18.9408C18.9777 18.9408 18.5551 19.1632 18.4884 19.141C18.4884 19.052 18.5106 18.9631 18.5551 18.8741C18.5996 18.7851 19.0889 17.2506 17.8657 16.7391C16.9094 16.3388 16.3312 16.8058 16.1533 16.9837C16.0866 17.0505 16.0643 17.0282 16.0643 16.9615C16.0421 16.3833 15.664 15.8718 15.108 15.6939C14.3074 15.4492 13.4623 15.7606 12.9953 16.45C12.9285 15.7828 12.3503 15.2713 11.6831 15.2713H11.6609ZM1.58643 12.3357C1.94226 12.4469 2.49824 12.6026 2.74288 12.6471C8.25826 13.8702 9.99294 15.1156 10.2821 15.3825C10.6156 14.9822 11.1272 14.7598 11.6387 14.7598C12.2391 14.7598 12.7951 15.0489 13.1287 15.5382C13.5068 15.2268 13.9738 15.0712 14.4408 15.0712C14.7077 15.0712 14.9746 15.1156 15.2415 15.2046C15.753 15.338 16.1533 15.7161 16.3534 16.2054C16.5981 16.0942 16.8649 16.0497 17.1318 16.0497C17.4432 16.0497 17.7545 16.1164 18.0436 16.2498C19.0666 16.6724 19.2223 17.6954 19.1334 18.4515C19.2001 18.4515 19.2668 18.4515 19.3335 18.4515C20.5344 18.4515 21.513 19.4301 21.513 20.631C21.513 20.9868 21.424 21.3427 21.2461 21.6763C21.5797 21.8542 22.4026 22.2767 23.1365 22.1878C23.7147 22.1211 23.9593 21.8987 24.026 21.7875C24.0928 21.6763 24.1372 21.6095 24.0928 21.5651L22.536 19.8304C22.536 19.8304 22.2914 19.5858 22.3581 19.4968C22.447 19.4078 22.6027 19.5413 22.7139 19.6302C23.4923 20.2974 24.4708 21.2982 24.4708 21.2982C24.4708 21.2982 24.5598 21.4539 24.9156 21.4984C25.3382 21.5651 25.783 21.4761 26.161 21.2092C26.25 21.1203 26.3612 21.0313 26.4279 20.9424L26.4057 20.9646C26.806 20.4531 26.3612 19.9416 26.3612 19.9416L24.5375 17.8956C24.5375 17.8956 24.2929 17.6509 24.3596 17.562C24.4486 17.473 24.6043 17.6065 24.7155 17.6954C25.2937 18.1624 26.1165 18.9853 26.8727 19.7414C27.0284 19.8526 27.7178 20.2752 28.6074 19.6747C29.1411 19.3189 29.2745 18.8741 29.2523 18.5183C29.2078 18.2292 29.0744 17.9623 28.8742 17.7621L26.3834 15.2713C26.3834 15.2713 26.1388 15.0489 26.2055 14.9377C26.2945 14.8265 26.4501 14.9822 26.5613 15.0712C27.3397 15.7383 29.4969 17.6954 29.4969 17.6954C30.0084 18.029 30.6756 18.0068 31.1871 17.6509C31.4985 17.473 31.7209 17.1394 31.7431 16.7613C31.7654 16.3833 31.6097 16.0052 31.3206 15.7383C31.2539 15.6716 25.0268 10.2452 23.6257 9.1777C22.8029 8.57723 22.3581 8.42156 21.8688 8.35484C21.5797 8.3326 21.3128 8.35484 21.0237 8.42156C20.3788 8.59947 19.5114 9.1777 18.7553 9.77816C17.9547 10.4231 17.243 11.0013 16.5536 11.157C15.664 11.3572 14.5965 11.1125 14.1072 10.7789C13.9293 10.6677 13.7959 10.5121 13.7069 10.3341C13.529 9.9116 13.8626 9.57801 13.9071 9.51129L15.6195 7.64318C15.8197 7.44302 16.0198 7.24287 16.22 7.04271C15.6862 7.13167 15.1747 7.24287 14.6632 7.39854C14.085 7.5987 13.4623 7.7099 12.8396 7.73214C12.2169 7.66542 11.5942 7.57646 10.9715 7.44302C9.25904 6.99823 7.61332 6.42001 6.01208 5.68611C3.6547 7.53198 2.03121 9.82264 1.58643 12.3357ZM21.5797 5.37476C18.6663 5.46371 17.3987 6.70912 16.0866 8.06573L14.3964 9.9116C14.3964 9.93384 14.1962 10.134 14.3074 10.2897C14.5965 10.69 15.5528 10.9124 16.5091 10.69C17.0651 10.5565 17.799 9.97832 18.5107 9.40009C19.289 8.77739 20.0229 8.17693 20.8013 7.93229C21.3351 7.73214 21.9355 7.7099 22.4693 7.88781C23.0253 8.08797 23.5368 8.39932 23.9816 8.77739C25.3159 9.77816 30.6534 14.4484 31.5874 15.2268C34.3229 14.0259 37.1918 13.0918 40.1052 12.4469C39.7048 10.045 38.237 7.86557 36.0353 6.08642C32.9663 7.39854 29.2078 8.08797 25.5383 6.28657C25.5161 6.28657 23.6257 5.39699 21.7131 5.39699L21.5797 5.37476Z" fill="white"/>
</mask>
<g mask="url(#mask13_3674_24714)">
<path d="M43.4415 2.0387H-1.74902V25.6792H43.4415V2.0387Z" fill="white"/>
</g>
<mask id="mask14_3674_24714" style="mask-type:luminance" maskUnits="userSpaceOnUse" x="1" y="4" width="40" height="20">
<path d="M10.4596 16.6942C10.4374 16.027 10.9711 15.4488 11.6383 15.4488C12.2833 15.4265 12.817 15.9158 12.8837 16.5385L12.9282 16.8721L13.1061 16.6052C13.4397 16.116 13.9735 15.8269 14.5517 15.8046C14.7296 15.8046 14.9075 15.8269 15.0854 15.8713C15.597 16.027 15.9305 16.494 15.9528 17.0278C15.975 17.2057 16.0862 17.2057 16.1085 17.2057C16.1529 17.2057 16.2197 17.1835 16.2641 17.139C16.4865 16.8944 16.8201 16.7609 17.1537 16.7387C17.3761 16.7387 17.6207 16.8054 17.8209 16.8943C18.9774 17.3836 18.4658 18.8737 18.4658 18.8959C18.3546 19.1405 18.3546 19.2517 18.4436 19.3184L18.4881 19.3407H18.5326C18.5993 19.3184 18.6882 19.2962 18.755 19.274C18.9551 19.185 19.1775 19.1405 19.3777 19.1405C20.245 19.1405 20.9344 19.83 20.9344 20.6973C20.9344 21.5646 20.245 22.2541 19.3777 22.2541C18.5326 22.2541 17.8209 21.5869 17.7764 20.7418C17.7764 20.6751 17.7764 20.4749 17.5985 20.4749C17.5318 20.4749 17.4651 20.5194 17.4206 20.5861C17.2204 20.8085 16.9536 20.9419 16.6422 20.9419C16.4643 20.9419 16.2864 20.8975 16.1307 20.8307C15.2189 20.4527 15.2189 19.8522 15.2634 19.6076C15.2856 19.5408 15.2856 19.4741 15.2411 19.4296L15.1744 19.3852H15.1299C15.0854 19.3852 15.0187 19.4074 14.9965 19.4519C14.7741 19.6298 14.5072 19.741 14.2181 19.741C14.0847 19.741 13.929 19.7188 13.7956 19.652C12.6169 19.185 12.7058 18.073 12.7725 17.7172C12.7725 17.6505 12.7725 17.5838 12.7281 17.5615L12.6391 17.4948L12.5501 17.5838C12.3278 17.8062 12.0164 17.9396 11.705 17.9174C11.0156 17.8951 10.4819 17.3614 10.4596 16.6942ZM21.7573 4.72937H21.5794C19.1553 4.79609 17.7987 5.66343 16.8868 6.39733C16.0862 6.44181 15.3078 6.59749 14.5517 6.81988C14.018 6.9978 13.462 7.10899 12.906 7.13123C12.7948 7.13123 12.6391 7.13123 12.5057 7.13123H12.261C11.6828 7.10899 8.70272 6.39733 6.34534 5.50775C6.10071 5.68567 5.85607 5.86358 5.63368 6.0415C8.10226 7.04227 11.1268 7.82066 12.0609 7.86513L12.8837 7.90961C13.5287 7.86513 14.1514 7.75393 14.7519 7.55378C15.1299 7.44258 15.5302 7.33139 15.9305 7.26467C15.8193 7.37587 15.7082 7.48706 15.597 7.59826L13.8845 9.44413C13.7511 9.57757 13.4397 9.95564 13.6399 10.4004C13.7511 10.6006 13.8845 10.7785 14.0847 10.8897C14.6407 11.201 15.2634 11.3567 15.9083 11.3567C16.1529 11.3567 16.3976 11.3345 16.6422 11.29C17.3539 11.1343 18.11 10.5116 18.9106 9.88892C19.5333 9.37741 20.4452 8.73247 21.1346 8.53232C21.3347 8.48784 21.5571 8.44336 21.7573 8.44336C21.824 8.44336 21.8685 8.44336 21.9352 8.4656C22.4022 8.53232 22.847 8.68799 23.6254 9.26622C25.0265 10.3337 31.2758 15.7601 31.3202 15.8046C31.5649 16.0493 31.6983 16.3828 31.6983 16.7164C31.6761 17.05 31.4982 17.3391 31.209 17.5171C30.9644 17.6727 30.6753 17.7617 30.3862 17.7839C30.1416 17.7839 29.8747 17.7172 29.6745 17.5838C29.6523 17.5615 27.5173 15.6045 26.7167 14.9595C26.6055 14.8706 26.4943 14.8038 26.3608 14.7594C26.2941 14.7594 26.2274 14.7816 26.1829 14.8483C26.0495 15.004 26.2052 15.2042 26.3608 15.3598L28.8517 17.8506C29.0296 18.0286 29.163 18.2732 29.2075 18.5178C29.2297 18.9404 29.0296 19.274 28.607 19.5631C28.3402 19.7632 28.0288 19.8522 27.7175 19.8522C27.4728 19.8522 27.2059 19.7632 27.0058 19.6298L26.65 19.274C25.9828 18.629 25.3156 17.9618 24.8263 17.5393C24.7151 17.4281 24.5817 17.3614 24.4483 17.3614C24.3815 17.3614 24.3371 17.3836 24.2926 17.4281C24.2259 17.4948 24.1814 17.606 24.3371 17.7839C24.3815 17.8284 24.426 17.8951 24.4705 17.9396L26.2941 19.9856C26.5165 20.2303 26.5388 20.5861 26.3386 20.853L26.2719 20.9419L26.1162 21.1198C25.8493 21.32 25.538 21.409 25.2266 21.409C25.1377 21.409 25.0487 21.409 24.982 21.3867C24.8486 21.3645 24.7374 21.32 24.6262 21.2533L24.6039 21.231C24.4927 21.1198 23.5809 20.1858 22.8248 19.5631C22.7358 19.4741 22.6024 19.4074 22.4689 19.3852C22.4022 19.3852 22.3355 19.4074 22.291 19.4519C22.1354 19.6298 22.3577 19.8744 22.4689 19.9634L24.0257 21.6758C24.0257 21.6981 24.0035 21.7203 23.959 21.787C23.9145 21.8537 23.7144 22.0317 23.1584 22.1429C23.0917 22.1429 23.0027 22.1651 22.936 22.1651C22.4022 22.1429 21.8907 21.9872 21.4237 21.7203C21.5794 21.409 21.6461 21.0754 21.6461 20.7195C21.6461 19.4519 20.6453 18.4289 19.3777 18.4066H19.3554H19.2665C19.3109 17.8284 19.222 16.7164 18.0878 16.2272C17.7764 16.0937 17.4428 16.027 17.1092 16.0048C16.8646 16.0048 16.62 16.0493 16.3976 16.1382C16.1752 15.6712 15.7526 15.3376 15.2634 15.1819C14.9965 15.093 14.7296 15.0485 14.4405 15.0485C13.9735 15.0485 13.5287 15.2042 13.1506 15.471C12.7725 15.004 12.2166 14.7371 11.6383 14.7371C11.1268 14.7371 10.6153 14.9595 10.2595 15.3153C9.77022 14.9373 7.85762 13.7363 2.72031 12.5799C2.47567 12.5132 1.89745 12.3575 1.56386 12.2685C1.49714 12.5354 1.4749 12.8245 1.43042 13.1136C1.43042 13.1136 2.38672 13.336 2.56463 13.3805C7.81314 14.537 9.52558 15.7379 9.8147 15.9603C9.72574 16.2049 9.65902 16.4496 9.65902 16.7164C9.68126 17.8284 10.5931 18.6957 11.705 18.6735C11.794 18.6735 11.883 18.6735 11.9719 18.6513C12.1276 19.4519 12.7058 20.0968 13.462 20.3637C13.6844 20.4527 13.929 20.4971 14.1514 20.4971C14.3071 20.4971 14.4405 20.4749 14.5962 20.4527C14.8186 20.9864 15.2634 21.409 15.7971 21.5869C16.0417 21.6981 16.3086 21.7426 16.5755 21.7426C16.7756 21.7426 16.998 21.6981 17.176 21.6314C17.5318 22.4987 18.3769 23.0547 19.3109 23.0547C19.9336 23.0547 20.5341 22.7878 20.9567 22.343C21.5571 22.6766 22.2243 22.8768 22.9137 22.9212C23.0027 22.9212 23.1139 22.9212 23.2028 22.899C24.0035 22.81 24.3593 22.4765 24.515 22.2541C24.5372 22.2096 24.5817 22.1651 24.6039 22.1206C24.8041 22.1873 25.0265 22.2318 25.2266 22.2096C25.6937 22.1873 26.1162 22.0317 26.472 21.7426C26.8501 21.4979 27.117 21.0976 27.2059 20.6528V20.6306C27.3394 20.6528 27.4728 20.6751 27.6285 20.6751C28.0955 20.6751 28.5403 20.5194 28.9184 20.2525C29.7412 19.7188 29.8747 19.0293 29.8524 18.5845C29.9859 18.6068 30.1416 18.629 30.275 18.629C30.6975 18.6068 31.1201 18.4956 31.4982 18.251C31.9874 17.9396 32.2988 17.4281 32.3433 16.8721C32.3655 16.494 32.2765 16.0937 32.0764 15.7601C34.7006 14.6926 37.3916 13.8253 40.1271 13.2026C40.1048 12.9357 40.0604 12.6244 40.0159 12.3575C37.1247 13.0024 34.3003 13.9143 31.6094 15.1152C29.6968 13.4472 25.2489 9.59981 24.0479 8.71023C23.5809 8.30992 23.0694 8.02081 22.4912 7.79841C22.2466 7.70946 22.0019 7.68722 21.735 7.68722C21.4014 7.68722 21.0901 7.75394 20.7787 7.84289C20.0004 8.08753 19.222 8.71023 18.4881 9.3107L18.4436 9.33294C17.7542 9.88892 17.0203 10.4671 16.4865 10.5783C16.2419 10.6228 15.9973 10.6673 15.7526 10.6673C15.1522 10.6673 14.5962 10.4894 14.3738 10.2448C14.3293 10.2003 14.3515 10.1336 14.4405 10.0224L14.4627 10.0001L16.1529 8.17649C17.4651 6.86436 18.7105 5.59671 21.5794 5.52999H21.735C23.5142 5.52999 25.3156 6.33061 25.5157 6.39733C27.117 7.19795 28.8739 7.6205 30.6531 7.6205C32.4545 7.6205 34.3226 7.15347 36.3019 6.24165C36.0795 6.06374 35.8571 5.86358 35.6125 5.70791C34.0557 6.41957 32.3655 6.81988 30.6531 6.84212C28.9851 6.81988 27.3394 6.44181 25.8271 5.70791C25.7381 5.66343 23.7811 4.75161 21.735 4.75161L21.7573 4.72937Z" fill="white"/>
</mask>
<g mask="url(#mask14_3674_24714)">
<path d="M43.5575 1.39343H-1.87769V26.3461H43.5575V1.39343Z" fill="#1D1B1B"/>
</g>
</g>
</svg>
