<svg width="95" height="21" viewBox="0 0 95 21" fill="none" xmlns="http://www.w3.org/2000/svg">
<path d="M50.6573 19.933H49.2109V2.17248C49.2109 1.6126 49.6153 1.20825 50.1752 1.20825H50.6573V19.933Z" fill="#1D1B1B"/>
<path d="M64.6493 6.57379H65.1315C65.6913 6.57379 66.0957 6.97814 66.0957 7.53802V19.9486H64.6493V17.0559C63.6074 19.1399 61.5234 20.4929 58.9728 20.4929C54.9759 20.4929 52.0833 17.4447 52.0833 13.2923C52.0833 9.13988 54.9604 6.09167 58.9728 6.09167C61.5389 6.09167 63.6074 7.44471 64.6493 9.52869V6.57379ZM64.6493 13.2923C64.6493 9.93304 62.2543 7.44471 59.0506 7.44471C55.7691 7.44471 53.4518 9.93304 53.4518 13.2923C53.4518 16.6515 55.7691 19.1399 59.0506 19.1399C62.2543 19.1399 64.6493 16.6515 64.6493 13.2923Z" fill="#1D1B1B"/>
<path d="M70.0198 1.20825V9.45086C71.0618 7.36688 73.1458 6.09161 75.6963 6.09161C79.6932 6.09161 82.5859 9.13982 82.5859 13.2922C82.5859 17.4446 79.631 20.4928 75.6963 20.4928C73.1302 20.4928 71.0618 19.1398 70.0198 17.1336V19.933H68.5735V2.17248C68.5735 1.6126 68.9778 1.20825 69.5377 1.20825H70.0198ZM75.5408 7.44464C72.2593 7.44464 69.9421 9.93298 69.9421 13.1989C69.9421 16.5582 72.2593 18.9532 75.5408 18.9532C78.7446 18.9532 81.1396 16.5582 81.1396 13.1989C81.1396 9.93298 78.7446 7.44464 75.5408 7.44464Z" fill="#1D1B1B"/>
<path d="M83.219 15.61H84.6653C84.6653 17.694 86.5005 19.1247 88.9888 19.1247C91.3061 19.1247 92.9079 17.9272 92.9079 16.4031C92.9079 12.6395 83.5456 15.0501 83.5456 10.0734C83.5456 7.75617 85.7073 6.07654 88.5067 6.07654C91.7104 6.07654 93.9499 7.98945 93.9499 10.5555H92.5036C92.5036 8.7204 90.824 7.42957 88.5067 7.42957C86.5005 7.42957 84.8986 8.54932 84.8986 9.99567C84.8986 13.6038 94.261 11.3487 94.261 16.2321C94.261 18.6271 92.0215 20.4 88.8955 20.4C85.614 20.4933 83.219 18.4094 83.219 15.61Z" fill="#1D1B1B"/>
<path d="M5.35242 19.933H0.951172V3.77435C0.951172 2.328 2.07092 1.20825 3.51727 1.20825H5.35242V19.933Z" fill="#1D1B1B"/>
<path d="M37.6099 16.7292L41.7779 3.12116C42.1045 2.07917 43.1309 1.28601 44.2662 1.28601H46.9878L40.9692 19.933H34.2507L28.2476 1.20825H30.9692C32.0889 1.20825 33.0532 1.92365 33.3642 2.96564L37.6099 16.7292Z" fill="#1D1B1B"/>
<path d="M18.0002 0.571167C11.8415 0.571167 7.67358 4.64582 7.67358 10.5712C7.67358 16.4965 11.8415 20.5712 18.0002 20.5712C24.081 20.5712 28.3268 16.4965 28.3268 10.5712C28.3268 4.72358 24.081 0.571167 18.0002 0.571167ZM18.0002 16.8076C14.4854 16.8076 12.0748 14.2415 12.0748 10.5712C12.0748 9.45141 12.3081 8.40943 12.7902 7.52296C12.7902 7.52296 12.7902 7.52296 12.7902 7.4452C12.7902 7.4452 12.7902 7.4452 12.7902 7.36744C12.7902 7.36744 12.868 7.28968 12.868 7.21192C12.868 7.21192 12.868 7.13415 12.9457 7.13415C12.9457 7.05639 13.0235 7.05639 13.0235 6.97863C13.5056 6.26324 14.6254 4.89465 16.6316 4.58361H16.7094H16.7871C17.4247 4.50585 19.3532 4.50585 20.2241 5.93664C20.2241 5.93664 20.2241 5.93664 20.2241 6.0144C20.3019 6.09216 20.3019 6.16992 20.3019 6.24768C20.3019 6.24768 20.3019 6.32544 20.3796 6.32544C21.4216 8.56495 20.3019 11.8464 18.9333 13.1217C18.9333 13.1217 23.1013 10.7267 22.9302 7.04084C23.4901 8.00507 23.8167 9.20258 23.8167 10.4779C23.9255 14.257 21.515 16.8076 18.0002 16.8076Z" fill="#1D1B1B"/>
</svg>
