<svg width="94" height="21" viewBox="0 0 94 21" fill="none" xmlns="http://www.w3.org/2000/svg">
<path d="M50.098 19.8958H48.6516V2.13531C48.6516 1.57543 49.056 1.17108 49.6158 1.17108H50.098V19.8958Z" fill="#1D1B1B"/>
<path d="M64.09 6.5365H64.5721C65.132 6.5365 65.5364 6.94085 65.5364 7.50073V19.9113H64.09V17.0186C63.048 19.1026 60.964 20.4556 58.4135 20.4556C54.4166 20.4556 51.5239 17.4074 51.5239 13.255C51.5239 9.10259 54.4011 6.05438 58.4135 6.05438C60.9796 6.05438 63.048 7.40742 64.09 9.4914V6.5365ZM64.09 13.255C64.09 9.89575 61.695 7.40742 58.4913 7.40742C55.2098 7.40742 52.8925 9.89575 52.8925 13.255C52.8925 16.6143 55.2098 19.1026 58.4913 19.1026C61.695 19.1026 64.09 16.6143 64.09 13.255Z" fill="#1D1B1B"/>
<path d="M69.4605 1.17108V9.41369C70.5025 7.32971 72.5865 6.05444 75.137 6.05444C79.1339 6.05444 82.0266 9.10265 82.0266 13.2551C82.0266 17.4075 79.0717 20.4557 75.137 20.4557C72.5709 20.4557 70.5025 19.1026 69.4605 17.0964V19.8958H68.0142V2.13531C68.0142 1.57543 68.4185 1.17108 68.9784 1.17108H69.4605ZM74.9815 7.40747C71.7 7.40747 69.3827 9.89581 69.3827 13.1617C69.3827 16.521 71.7 18.916 74.9815 18.916C78.1852 18.916 80.5803 16.521 80.5803 13.1617C80.5803 9.89581 78.1852 7.40747 74.9815 7.40747Z" fill="#1D1B1B"/>
<path d="M82.6597 15.5728H84.106C84.106 17.6568 85.9412 19.0876 88.4295 19.0876C90.7468 19.0876 92.3486 17.8901 92.3486 16.366C92.3486 12.6024 82.9863 15.0129 82.9863 10.0363C82.9863 7.719 85.148 6.03937 87.9474 6.03937C91.1511 6.03937 93.3906 7.95228 93.3906 10.5184H91.9443C91.9443 8.68323 90.2646 7.3924 87.9474 7.3924C85.9412 7.3924 84.3393 8.51215 84.3393 9.9585C84.3393 13.5666 93.7017 11.3115 93.7017 16.1949C93.7017 18.5899 91.4622 20.3629 88.3362 20.3629C85.0547 20.4562 82.6597 18.3722 82.6597 15.5728Z" fill="#1D1B1B"/>
<path d="M4.79309 19.8958H0.391846V3.73718C0.391846 2.29083 1.5116 1.17108 2.95794 1.17108H4.79309V19.8958Z" fill="#1D1B1B"/>
<path d="M37.0506 16.6921L41.2186 3.08399C41.5452 2.042 42.5716 1.24884 43.7069 1.24884H46.4285L40.4099 19.8958H33.6913L27.6882 1.17108H30.4098C31.5296 1.17108 32.4938 1.88648 32.8049 2.92847L37.0506 16.6921Z" fill="#1D1B1B"/>
<path d="M17.4409 0.533936C11.2822 0.533936 7.11426 4.60858 7.11426 10.5339C7.11426 16.4593 11.2822 20.5339 17.4409 20.5339C23.5217 20.5339 27.7674 16.4593 27.7674 10.5339C27.7674 4.68634 23.5217 0.533936 17.4409 0.533936ZM17.4409 16.7703C13.9261 16.7703 11.5155 14.2042 11.5155 10.5339C11.5155 9.41418 11.7488 8.3722 12.2309 7.48573C12.2309 7.48573 12.2309 7.48573 12.2309 7.40797C12.2309 7.40797 12.2309 7.40797 12.2309 7.3302C12.2309 7.3302 12.3087 7.25244 12.3087 7.17468C12.3087 7.17468 12.3087 7.09692 12.3864 7.09692C12.3864 7.01916 12.4642 7.01916 12.4642 6.9414C12.9463 6.22601 14.066 4.85742 16.0723 4.54638H16.15H16.2278C16.8654 4.46861 18.7939 4.46862 19.6648 5.89941C19.6648 5.89941 19.6648 5.89941 19.6648 5.97717C19.7426 6.05493 19.7426 6.13269 19.7426 6.21045C19.7426 6.21045 19.7426 6.28821 19.8203 6.28821C20.8623 8.52771 19.7426 11.8092 18.374 13.0845C18.374 13.0845 22.5419 10.6895 22.3709 7.00361C22.9307 7.96784 23.2573 9.16535 23.2573 10.4406C23.3662 14.2198 20.9556 16.7703 17.4409 16.7703Z" fill="#1D1B1B"/>
</svg>
