<svg width="9" height="9" viewBox="0 0 9 9" fill="none" xmlns="http://www.w3.org/2000/svg">
<path d="M3.14714 7.7524C3.13686 7.7524 3.12659 7.7524 3.11974 7.7524C2.97933 7.73528 2.87659 7.60856 2.89371 7.46815L3.57865 1.30371C3.59577 1.1633 3.72249 1.06398 3.8629 1.07768C4.00331 1.0948 4.10605 1.22151 4.08893 1.36193L3.40399 7.52637C3.38687 7.65651 3.27728 7.7524 3.14714 7.7524Z" fill="#5F5E5E"/>
<path d="M5.20207 7.7524C5.1918 7.7524 5.18152 7.7524 5.17467 7.7524C5.03426 7.73528 4.93152 7.60856 4.94864 7.46815L5.63358 1.30371C5.65071 1.1633 5.77399 1.06398 5.91783 1.07768C6.05824 1.0948 6.16098 1.22151 6.14386 1.36193L5.45892 7.52637C5.4418 7.65651 5.33221 7.7524 5.20207 7.7524Z" fill="#5F5E5E"/>
<mask id="path-3-inside-1_3674_24667" fill="white">
<path d="M7.77042 3.64273H1.60597C1.46556 3.64273 1.34912 3.52629 1.34912 3.38588C1.34912 3.24547 1.46556 3.12903 1.60597 3.12903H7.77042C7.91083 3.12903 8.02727 3.24547 8.02727 3.38588C8.02727 3.52629 7.91083 3.64273 7.77042 3.64273Z"/>
</mask>
<path d="M7.77042 3.64273H1.60597C1.46556 3.64273 1.34912 3.52629 1.34912 3.38588C1.34912 3.24547 1.46556 3.12903 1.60597 3.12903H7.77042C7.91083 3.12903 8.02727 3.24547 8.02727 3.38588C8.02727 3.52629 7.91083 3.64273 7.77042 3.64273Z" fill="#292D32"/>
<path d="M7.77042 3.12903H1.60597V4.15644H7.77042V3.12903ZM1.60597 3.12903C1.74927 3.12903 1.86282 3.24258 1.86282 3.38588H0.835417C0.835417 3.81 1.18185 4.15644 1.60597 4.15644V3.12903ZM1.86282 3.38588C1.86282 3.52918 1.74927 3.64273 1.60597 3.64273V2.61532C1.18185 2.61532 0.835417 2.96176 0.835417 3.38588H1.86282ZM1.60597 3.64273H7.77042V2.61532H1.60597V3.64273ZM7.77042 3.64273C7.62712 3.64273 7.51357 3.52918 7.51357 3.38588H8.54097C8.54097 2.96176 8.19454 2.61532 7.77042 2.61532V3.64273ZM7.51357 3.38588C7.51357 3.24258 7.62712 3.12903 7.77042 3.12903V4.15644C8.19454 4.15644 8.54097 3.81 8.54097 3.38588H7.51357Z" fill="#5F5E5E" mask="url(#path-3-inside-1_3674_24667)"/>
<path d="M7.42813 5.69754H1.26369C1.12328 5.69754 1.00684 5.5811 1.00684 5.44069C1.00684 5.30028 1.12328 5.18384 1.26369 5.18384H7.42813C7.56854 5.18384 7.68498 5.30028 7.68498 5.44069C7.68498 5.5811 7.56854 5.69754 7.42813 5.69754Z" fill="#292D32"/>
</svg>
