<svg width="14" height="14" viewBox="0 0 14 14" fill="none" xmlns="http://www.w3.org/2000/svg">
<path d="M4.54763 12.028C4.5314 12.028 4.51518 12.028 4.50437 12.028C4.28266 12.0009 4.12044 11.8009 4.14748 11.5792L5.22896 1.84582C5.256 1.62412 5.45607 1.4673 5.67777 1.48893C5.89948 1.51597 6.0617 1.71604 6.03466 1.93775L4.95318 11.6711C4.92614 11.8766 4.75311 12.028 4.54763 12.028Z" fill="#5F5E5E"/>
<path d="M7.79225 12.028C7.77603 12.028 7.75981 12.028 7.749 12.028C7.52729 12.0009 7.36507 11.8009 7.39211 11.5792L8.47359 1.84582C8.50063 1.62412 8.69529 1.4673 8.9224 1.48893C9.14411 1.51597 9.30633 1.71604 9.27929 1.93775L8.19781 11.6711C8.17077 11.8766 7.99774 12.028 7.79225 12.028Z" fill="#5F5E5E"/>
<mask id="path-3-inside-1_3496_30597" fill="white">
<path d="M11.8479 5.53902H2.11454C1.89284 5.53902 1.70898 5.35517 1.70898 5.13346C1.70898 4.91176 1.89284 4.72791 2.11454 4.72791H11.8479C12.0696 4.72791 12.2534 4.91176 12.2534 5.13346C12.2534 5.35517 12.0696 5.53902 11.8479 5.53902Z"/>
</mask>
<path d="M11.8479 5.53902H2.11454C1.89284 5.53902 1.70898 5.35517 1.70898 5.13346C1.70898 4.91176 1.89284 4.72791 2.11454 4.72791H11.8479C12.0696 4.72791 12.2534 4.91176 12.2534 5.13346C12.2534 5.35517 12.0696 5.53902 11.8479 5.53902Z" fill="#292D32"/>
<path d="M11.8479 4.72791H2.11454V6.35013H11.8479V4.72791ZM2.11454 4.72791C2.3408 4.72791 2.5201 4.9072 2.5201 5.13346H0.897873C0.897873 5.80313 1.44487 6.35013 2.11454 6.35013V4.72791ZM2.5201 5.13346C2.5201 5.35972 2.3408 5.53902 2.11454 5.53902V3.91679C1.44487 3.91679 0.897873 4.46379 0.897873 5.13346H2.5201ZM2.11454 5.53902H11.8479V3.91679H2.11454V5.53902ZM11.8479 5.53902C11.6216 5.53902 11.4423 5.35972 11.4423 5.13346H13.0645C13.0645 4.46379 12.5175 3.91679 11.8479 3.91679V5.53902ZM11.4423 5.13346C11.4423 4.9072 11.6216 4.72791 11.8479 4.72791V6.35013C12.5175 6.35013 13.0645 5.80313 13.0645 5.13346H11.4423Z" fill="#5F5E5E" mask="url(#path-3-inside-1_3496_30597)"/>
<path d="M11.3069 8.78352H1.57352C1.35182 8.78352 1.16797 8.59967 1.16797 8.37797C1.16797 8.15626 1.35182 7.97241 1.57352 7.97241H11.3069C11.5286 7.97241 11.7124 8.15626 11.7124 8.37797C11.7124 8.59967 11.5286 8.78352 11.3069 8.78352Z" fill="#292D32"/>
</svg>
