<svg width="5" height="5" viewBox="0 0 5 5" fill="none" xmlns="http://www.w3.org/2000/svg">
<path d="M1.84273 4.22813C1.83792 4.22813 1.8331 4.22813 1.8299 4.22813C1.76412 4.2201 1.716 4.16075 1.72402 4.09498L2.04486 1.20742C2.05288 1.14165 2.11223 1.09513 2.17801 1.10154C2.24378 1.10956 2.2919 1.16892 2.28388 1.23469L1.96304 4.12225C1.95502 4.18321 1.90369 4.22813 1.84273 4.22813Z" fill="#5F5E5E"/>
<path d="M2.80525 4.22813C2.80044 4.22813 2.79563 4.22813 2.79242 4.22813C2.72665 4.2201 2.67852 4.16075 2.68654 4.09498L3.00738 1.20742C3.0154 1.14165 3.07315 1.09513 3.14053 1.10154C3.2063 1.10956 3.25443 1.16892 3.24641 1.23469L2.92557 4.12225C2.91755 4.18321 2.86621 4.22813 2.80525 4.22813Z" fill="#5F5E5E"/>
<mask id="path-3-inside-1_3674_27860" fill="white">
<path d="M4.00836 2.30313H1.1208C1.05503 2.30313 1.00049 2.24859 1.00049 2.18281C1.00049 2.11704 1.05503 2.0625 1.1208 2.0625H4.00836C4.07413 2.0625 4.12867 2.11704 4.12867 2.18281C4.12867 2.24859 4.07413 2.30313 4.00836 2.30313Z"/>
</mask>
<path d="M4.00836 2.30313H1.1208C1.05503 2.30313 1.00049 2.24859 1.00049 2.18281C1.00049 2.11704 1.05503 2.0625 1.1208 2.0625H4.00836C4.07413 2.0625 4.12867 2.11704 4.12867 2.18281C4.12867 2.24859 4.07413 2.30313 4.00836 2.30313Z" fill="#292D32"/>
<path d="M4.00836 2.0625H1.1208V2.54376H4.00836V2.0625ZM1.1208 2.0625C1.18793 2.0625 1.24112 2.11569 1.24112 2.18281H0.759859C0.759859 2.38148 0.922135 2.54376 1.1208 2.54376V2.0625ZM1.24112 2.18281C1.24112 2.24994 1.18793 2.30313 1.1208 2.30313V1.82187C0.922135 1.82187 0.759859 1.98415 0.759859 2.18281H1.24112ZM1.1208 2.30313H4.00836V1.82187H1.1208V2.30313ZM4.00836 2.30313C3.94124 2.30313 3.88804 2.24994 3.88804 2.18281H4.3693C4.3693 1.98415 4.20703 1.82187 4.00836 1.82187V2.30313ZM3.88804 2.18281C3.88804 2.11569 3.94124 2.0625 4.00836 2.0625V2.54376C4.20703 2.54376 4.3693 2.38148 4.3693 2.18281H3.88804Z" fill="#5F5E5E" mask="url(#path-3-inside-1_3674_27860)"/>
<path d="M3.84796 3.26565H0.960403C0.894631 3.26565 0.840088 3.21111 0.840088 3.14534C0.840088 3.07957 0.894631 3.02502 0.960403 3.02502H3.84796C3.91373 3.02502 3.96827 3.07957 3.96827 3.14534C3.96827 3.21111 3.91373 3.26565 3.84796 3.26565Z" fill="#292D32"/>
</svg>
