<svg width="14" height="14" viewBox="0 0 14 14" fill="none" xmlns="http://www.w3.org/2000/svg">
<path d="M4.54775 12.028C4.53153 12.028 4.5153 12.028 4.50449 12.028C4.28278 12.0009 4.12056 11.8009 4.1476 11.5792L5.22908 1.84582C5.25612 1.62412 5.45619 1.4673 5.6779 1.48893C5.8996 1.51597 6.06182 1.71604 6.03479 1.93775L4.9533 11.6711C4.92627 11.8766 4.75323 12.028 4.54775 12.028Z" fill="#5F5E5E"/>
<path d="M7.79225 12.028C7.77603 12.028 7.75981 12.028 7.749 12.028C7.52729 12.0009 7.36507 11.8009 7.39211 11.5792L8.47359 1.84582C8.50063 1.62412 8.69529 1.4673 8.9224 1.48893C9.14411 1.51597 9.30633 1.71604 9.27929 1.93775L8.19781 11.6711C8.17077 11.8766 7.99774 12.028 7.79225 12.028Z" fill="#5F5E5E"/>
<mask id="path-3-inside-1_3496_30597" fill="white">
<path d="M11.8478 5.53902H2.11442C1.89271 5.53902 1.70886 5.35517 1.70886 5.13346C1.70886 4.91176 1.89271 4.72791 2.11442 4.72791H11.8478C12.0695 4.72791 12.2533 4.91176 12.2533 5.13346C12.2533 5.35517 12.0695 5.53902 11.8478 5.53902Z"/>
</mask>
<path d="M11.8478 5.53902H2.11442C1.89271 5.53902 1.70886 5.35517 1.70886 5.13346C1.70886 4.91176 1.89271 4.72791 2.11442 4.72791H11.8478C12.0695 4.72791 12.2533 4.91176 12.2533 5.13346C12.2533 5.35517 12.0695 5.53902 11.8478 5.53902Z" fill="#292D32"/>
<path d="M11.8478 4.72791H2.11442V6.35013H11.8478V4.72791ZM2.11442 4.72791C2.34068 4.72791 2.51997 4.9072 2.51997 5.13346H0.897751C0.897751 5.80313 1.44475 6.35013 2.11442 6.35013V4.72791ZM2.51997 5.13346C2.51997 5.35972 2.34068 5.53902 2.11442 5.53902V3.91679C1.44475 3.91679 0.897751 4.46379 0.897751 5.13346H2.51997ZM2.11442 5.53902H11.8478V3.91679H2.11442V5.53902ZM11.8478 5.53902C11.6215 5.53902 11.4422 5.35972 11.4422 5.13346H13.0644C13.0644 4.46379 12.5174 3.91679 11.8478 3.91679V5.53902ZM11.4422 5.13346C11.4422 4.9072 11.6215 4.72791 11.8478 4.72791V6.35013C12.5174 6.35013 13.0644 5.80313 13.0644 5.13346H11.4422Z" fill="#5F5E5E" mask="url(#path-3-inside-1_3496_30597)"/>
<path d="M11.307 8.78352H1.57365C1.35194 8.78352 1.16809 8.59967 1.16809 8.37797C1.16809 8.15626 1.35194 7.97241 1.57365 7.97241H11.307C11.5287 7.97241 11.7125 8.15626 11.7125 8.37797C11.7125 8.59967 11.5287 8.78352 11.307 8.78352Z" fill="#292D32"/>
</svg>
