<svg width="89" height="14" viewBox="0 0 89 14" fill="none" xmlns="http://www.w3.org/2000/svg">
<path d="M16.8428 5.0062H17.9293V3.245H19.3245V5.0062H20.411V6.1727H19.3245V9.48979H20.411V10.6562H19.0427C18.428 10.6562 17.9297 10.1579 17.9297 9.54322L17.9293 6.1727H16.8428V5.0062Z" fill="#4B1FFC"/>
<path d="M23.7511 10.804C23.1948 10.804 22.6994 10.6783 22.2651 10.4268C21.8383 10.1677 21.503 9.81717 21.2592 9.37518C21.0153 8.92557 20.8934 8.41118 20.8934 7.83203C20.8934 7.24525 21.0115 6.72705 21.2477 6.27744C21.484 5.82783 21.8155 5.47729 22.2422 5.22581C22.669 4.96671 23.1567 4.83716 23.7054 4.83716C24.2769 4.83716 24.7684 4.95909 25.1799 5.20295C25.5914 5.43918 25.9077 5.77068 26.1287 6.19742C26.3573 6.62417 26.4716 7.13475 26.4716 7.72915V8.15209L21.625 8.16352L21.6478 7.27192H25.0885C25.0885 6.88327 24.9627 6.57083 24.7113 6.33459C24.4674 6.09836 24.1359 5.98024 23.7168 5.98024C23.3891 5.98024 23.111 6.04882 22.8823 6.18599C22.6613 6.32316 22.4937 6.52892 22.3794 6.80326C22.2651 7.07759 22.2079 7.4129 22.2079 7.80916C22.2079 8.41881 22.3375 8.87985 22.5966 9.19229C22.8633 9.50473 23.2557 9.66095 23.7739 9.66095C24.155 9.66095 24.4674 9.58856 24.7113 9.44377C24.9627 9.29898 25.1266 9.09322 25.2028 8.8265H26.4945C26.3725 9.44377 26.0677 9.92767 25.58 10.2782C25.0999 10.6288 24.4903 10.804 23.7511 10.804Z" fill="#4B1FFC"/>
<path d="M28.9836 10.804C28.3892 10.804 27.9167 10.644 27.5662 10.3239C27.2233 9.99625 27.0518 9.5695 27.0518 9.04369C27.0518 8.52549 27.2309 8.11398 27.589 7.80916C27.9548 7.49672 28.473 7.31383 29.1436 7.26049L30.8354 7.12332V6.99758C30.8354 6.73848 30.7859 6.53273 30.6868 6.38032C30.5953 6.22029 30.462 6.10598 30.2867 6.03739C30.1114 5.96119 29.9057 5.92309 29.6694 5.92309C29.2579 5.92309 28.9417 6.00691 28.7207 6.17456C28.4997 6.33459 28.3892 6.56321 28.3892 6.86041H27.2004C27.2004 6.4489 27.3033 6.09455 27.509 5.79735C27.7224 5.49253 28.0196 5.25629 28.4006 5.08864C28.7893 4.92099 29.2351 4.83716 29.738 4.83716C30.2486 4.83716 30.6868 4.92861 31.0526 5.1115C31.4184 5.28677 31.7003 5.55349 31.8984 5.91166C32.0966 6.2622 32.1956 6.70038 32.1956 7.22619V10.6554H30.9726L30.8697 9.82098C30.7478 10.1106 30.5115 10.3468 30.161 10.5297C29.818 10.7126 29.4256 10.804 28.9836 10.804ZM29.4294 9.7524C29.8638 9.7524 30.2067 9.63047 30.4582 9.38661C30.7173 9.14276 30.8468 8.80364 30.8468 8.36927V8.07207L29.6694 8.16352C29.2351 8.20162 28.9264 8.29307 28.7436 8.43786C28.5607 8.57503 28.4692 8.75792 28.4692 8.98653C28.4692 9.23801 28.553 9.42852 28.7207 9.55807C28.8883 9.68762 29.1246 9.7524 29.4294 9.7524Z" fill="#4B1FFC"/>
<path d="M34.7316 10.6554H33.337V5.00862H34.6173L34.7887 6.01453L34.6287 5.87736C34.743 5.60302 34.9526 5.36298 35.2574 5.15722C35.5622 4.94385 35.9432 4.83716 36.4005 4.83716C36.8958 4.83716 37.2997 4.96671 37.6121 5.22581C37.9322 5.48491 38.1532 5.82783 38.2751 6.25458H38.0465C38.1303 5.82783 38.3437 5.48491 38.6866 5.22581C39.0372 4.96671 39.4601 4.83716 39.9554 4.83716C40.6413 4.83716 41.1671 5.03149 41.5329 5.42013C41.8987 5.80116 42.0816 6.31554 42.0816 6.96329V10.6554H40.6985V7.32907C40.6985 6.92518 40.5956 6.62036 40.3898 6.41461C40.1917 6.20124 39.925 6.09455 39.5897 6.09455C39.3763 6.09455 39.1782 6.14408 38.9953 6.24315C38.82 6.34221 38.679 6.49081 38.5723 6.68895C38.4656 6.88708 38.4123 7.14237 38.4123 7.45481V10.6554H37.0177V7.31764C37.0177 6.92137 36.9187 6.62036 36.7205 6.41461C36.5224 6.20886 36.2595 6.10598 35.9318 6.10598C35.7108 6.10598 35.5089 6.15551 35.326 6.25458C35.1431 6.34602 34.9983 6.49462 34.8916 6.70038C34.7849 6.89851 34.7316 7.14999 34.7316 7.45481V10.6554Z" fill="#4B1FFC"/>
<path d="M44.5136 10.6554H43.222V2.15093H44.6165V5.83164C44.7994 5.51158 45.0661 5.26772 45.4167 5.10007C45.7672 4.9248 46.1597 4.83716 46.594 4.83716C47.1351 4.83716 47.5961 4.96671 47.9772 5.22581C48.3658 5.47729 48.663 5.83164 48.8688 6.28887C49.0821 6.7461 49.1888 7.27573 49.1888 7.87775C49.1888 8.44929 49.0783 8.95605 48.8573 9.39804C48.6363 9.84003 48.3239 10.1868 47.92 10.4382C47.5161 10.6821 47.0437 10.804 46.5026 10.804C46.0835 10.804 45.7024 10.7126 45.3595 10.5297C45.0242 10.3468 44.7727 10.0953 44.6051 9.77526L44.5136 10.6554ZM44.628 7.80916C44.628 8.14447 44.6927 8.44548 44.8223 8.7122C44.9518 8.97129 45.1347 9.17324 45.371 9.31803C45.6148 9.4552 45.8968 9.52378 46.2168 9.52378C46.5445 9.52378 46.8265 9.45139 47.0627 9.3066C47.2989 9.16181 47.478 8.95986 47.6 8.70076C47.7219 8.44167 47.7829 8.14447 47.7829 7.80916C47.7829 7.47386 47.7219 7.17666 47.6 6.91756C47.478 6.65847 47.2989 6.45652 47.0627 6.31173C46.8265 6.15932 46.5445 6.08312 46.2168 6.08312C45.8968 6.08312 45.6148 6.15932 45.371 6.31173C45.1347 6.45652 44.9518 6.65847 44.8223 6.91756C44.6927 7.16904 44.628 7.46624 44.628 7.80916Z" fill="#1D1B1B"/>
<path d="M49.7391 7.82059C49.7391 7.23381 49.8687 6.71943 50.1278 6.27744C50.3869 5.82783 50.745 5.47729 51.2023 5.22581C51.6595 4.97433 52.1777 4.84859 52.7568 4.84859C53.3436 4.84859 53.8618 4.97433 54.3114 5.22581C54.7687 5.47729 55.1268 5.82783 55.3859 6.27744C55.645 6.71943 55.7746 7.23381 55.7746 7.82059C55.7746 8.40737 55.645 8.92557 55.3859 9.37518C55.1268 9.81717 54.7687 10.1639 54.3114 10.4154C53.8618 10.6669 53.3436 10.7926 52.7568 10.7926C52.1777 10.7926 51.6595 10.6669 51.2023 10.4154C50.745 10.1639 50.3869 9.81717 50.1278 9.37518C49.8687 8.92557 49.7391 8.40737 49.7391 7.82059ZM51.1337 7.82059C51.1337 8.16352 51.2023 8.46453 51.3394 8.72363C51.4842 8.98272 51.6747 9.18467 51.911 9.32946C52.1548 9.47425 52.4368 9.54664 52.7568 9.54664C53.0769 9.54664 53.3589 9.47425 53.6027 9.32946C53.8466 9.18467 54.0371 8.98272 54.1743 8.72363C54.3114 8.46453 54.38 8.16352 54.38 7.82059C54.38 7.47005 54.3114 7.16904 54.1743 6.91756C54.0371 6.65847 53.8466 6.45652 53.6027 6.31173C53.3589 6.16694 53.0769 6.09455 52.7568 6.09455C52.4368 6.09455 52.1548 6.16694 51.911 6.31173C51.6747 6.45652 51.4842 6.65847 51.3394 6.91756C51.2023 7.16904 51.1337 7.47005 51.1337 7.82059Z" fill="#1D1B1B"/>
<path d="M58.3317 10.804C57.7373 10.804 57.2648 10.644 56.9143 10.3239C56.5713 9.99625 56.3999 9.5695 56.3999 9.04369C56.3999 8.52549 56.5789 8.11398 56.9371 7.80916C57.3029 7.49672 57.8211 7.31383 58.4917 7.26049L60.1835 7.12332V6.99758C60.1835 6.73848 60.1339 6.53273 60.0349 6.38032C59.9434 6.22029 59.81 6.10598 59.6348 6.03739C59.4595 5.96119 59.2538 5.92309 59.0175 5.92309C58.606 5.92309 58.2898 6.00691 58.0688 6.17456C57.8478 6.33459 57.7373 6.56321 57.7373 6.86041H56.5485C56.5485 6.4489 56.6513 6.09455 56.8571 5.79735C57.0705 5.49253 57.3677 5.25629 57.7487 5.08864C58.1373 4.92099 58.5831 4.83716 59.0861 4.83716C59.5967 4.83716 60.0349 4.92861 60.4006 5.1115C60.7664 5.28677 61.0484 5.55349 61.2465 5.91166C61.4446 6.2622 61.5437 6.70038 61.5437 7.22619V10.6554H60.3206L60.2177 9.82098C60.0958 10.1106 59.8596 10.3468 59.509 10.5297C59.1661 10.7126 58.7737 10.804 58.3317 10.804ZM58.7775 9.7524C59.2118 9.7524 59.5548 9.63047 59.8062 9.38661C60.0653 9.14276 60.1949 8.80364 60.1949 8.36927V8.07207L59.0175 8.16352C58.5831 8.20162 58.2745 8.29307 58.0916 8.43786C57.9087 8.57503 57.8173 8.75792 57.8173 8.98653C57.8173 9.23801 57.9011 9.42852 58.0688 9.55807C58.2364 9.68762 58.4726 9.7524 58.7775 9.7524Z" fill="#1D1B1B"/>
<path d="M66.2286 4.98576V6.27744H65.7143C65.2037 6.27744 64.8036 6.41461 64.514 6.68895C64.2244 6.95567 64.0796 7.36336 64.0796 7.91204V10.6554H62.6851V5.02005H63.9996L64.1139 6.18599H63.9768C64.053 5.81259 64.2321 5.50777 64.514 5.27153C64.796 5.0353 65.1618 4.91718 65.6114 4.91718C65.7104 4.91718 65.8095 4.92099 65.9086 4.92861C66.0076 4.93623 66.1143 4.95528 66.2286 4.98576Z" fill="#1D1B1B"/>
<path d="M69.0746 10.804C68.5259 10.804 68.0535 10.6821 67.6572 10.4382C67.2686 10.1868 66.9637 9.84003 66.7428 9.39804C66.5294 8.95605 66.4227 8.44167 66.4227 7.85489C66.4227 7.26811 66.5294 6.74991 66.7428 6.3003C66.9637 5.84307 67.28 5.48491 67.6915 5.22581C68.103 4.96671 68.5907 4.83716 69.1546 4.83716C69.5509 4.83716 69.9129 4.91718 70.2406 5.07721C70.5683 5.22962 70.8197 5.4468 70.995 5.72876V2.15093H72.3781V10.6554H71.0979L71.0064 9.77526C70.8388 10.0953 70.5797 10.3468 70.2291 10.5297C69.8862 10.7126 69.5014 10.804 69.0746 10.804ZM69.3833 9.52378C69.7109 9.52378 69.9929 9.4552 70.2291 9.31803C70.4654 9.17324 70.6483 8.97129 70.7778 8.7122C70.915 8.44548 70.9836 8.14447 70.9836 7.80916C70.9836 7.46624 70.915 7.16904 70.7778 6.91756C70.6483 6.65847 70.4654 6.45652 70.2291 6.31173C69.9929 6.15932 69.7109 6.08312 69.3833 6.08312C69.0632 6.08312 68.7851 6.15932 68.5488 6.31173C68.3126 6.45652 68.1297 6.65847 68.0001 6.91756C67.8782 7.17666 67.8172 7.47386 67.8172 7.80916C67.8172 8.14447 67.8782 8.44167 68.0001 8.70076C68.1297 8.95986 68.3126 9.16181 68.5488 9.3066C68.7851 9.45139 69.0632 9.52378 69.3833 9.52378Z" fill="#1D1B1B"/>
<path d="M73.6028 10.6554V5.00862H74.9974V10.6554H73.6028ZM74.2887 3.87698C74.0524 3.87698 73.8505 3.79696 73.6828 3.63693C73.5228 3.46928 73.4428 3.26734 73.4428 3.0311C73.4428 2.79486 73.5228 2.59673 73.6828 2.4367C73.8505 2.27667 74.0524 2.19665 74.2887 2.19665C74.5249 2.19665 74.723 2.27667 74.8831 2.4367C75.0507 2.59673 75.1345 2.79486 75.1345 3.0311C75.1345 3.26734 75.0507 3.46928 74.8831 3.63693C74.723 3.79696 74.5249 3.87698 74.2887 3.87698Z" fill="#1D1B1B"/>
<path d="M77.6041 10.6554H76.2096V5.00862H77.5013L77.6156 5.74019C77.7908 5.45823 78.0385 5.23724 78.3586 5.07721C78.6862 4.91718 79.0406 4.83716 79.4216 4.83716C80.1303 4.83716 80.6638 5.04673 81.0219 5.46585C81.3877 5.88498 81.5706 6.45652 81.5706 7.18047V10.6554H80.1761V7.51196C80.1761 7.03949 80.0694 6.68895 79.856 6.46033C79.6426 6.2241 79.353 6.10598 78.9873 6.10598C78.5529 6.10598 78.2138 6.24315 77.9699 6.51749C77.7261 6.79183 77.6041 7.15761 77.6041 7.61484V10.6554Z" fill="#1D1B1B"/>
<path d="M82.3921 7.70629C82.3921 7.15761 82.5026 6.6699 82.7236 6.24315C82.9522 5.80878 83.2685 5.46586 83.6724 5.21438C84.0762 4.9629 84.5449 4.83716 85.0783 4.83716C85.5584 4.83716 85.9699 4.94385 86.3129 5.15722C86.6558 5.36298 86.8958 5.65256 87.033 6.02596L86.8844 6.1517L86.9987 5.00862H88.2904V10.3697C88.2904 10.9945 88.1685 11.5356 87.9246 11.9928C87.6884 12.4577 87.3493 12.812 86.9073 13.0559C86.4729 13.3074 85.9471 13.4331 85.3298 13.4331C84.522 13.4331 83.8591 13.2159 83.3409 12.7816C82.8227 12.3472 82.5178 11.7528 82.4264 10.9984H83.821C83.8667 11.3641 84.0191 11.6499 84.2782 11.8557C84.5449 12.0614 84.8954 12.1643 85.3298 12.1643C85.8099 12.1643 86.1909 12.0233 86.4729 11.7414C86.7625 11.467 86.9073 11.0936 86.9073 10.6211V9.21515L87.0673 9.36375C86.9301 9.72191 86.6786 10.0077 86.3129 10.2211C85.9471 10.4344 85.5241 10.5411 85.044 10.5411C84.5106 10.5411 84.0458 10.4192 83.6495 10.1753C83.2532 9.93148 82.9446 9.59618 82.7236 9.16943C82.5026 8.74268 82.3921 8.25496 82.3921 7.70629ZM83.7981 7.67199C83.7981 7.99206 83.8591 8.27783 83.981 8.5293C84.1105 8.77316 84.2896 8.96748 84.5182 9.11227C84.7468 9.25706 85.0136 9.32946 85.3184 9.32946C85.6384 9.32946 85.9128 9.26087 86.1414 9.1237C86.3776 8.97891 86.5567 8.78459 86.6786 8.54073C86.8082 8.28926 86.873 7.99968 86.873 7.67199C86.873 7.34431 86.812 7.06235 86.6901 6.82612C86.5681 6.58226 86.3891 6.39175 86.1528 6.25458C85.9242 6.11741 85.6461 6.04882 85.3184 6.04882C85.0059 6.04882 84.7354 6.12122 84.5068 6.26601C84.2782 6.40318 84.1029 6.59369 83.981 6.83755C83.8591 7.0814 83.7981 7.35955 83.7981 7.67199Z" fill="#1D1B1B"/>
<path d="M8.49514 4.5027V1.99839C8.49514 1.07633 7.74767 0.328857 6.82561 0.328857C5.90355 0.328857 5.15607 1.07633 5.15607 1.99839V2.41578C5.15607 3.56835 6.09042 4.5027 7.24299 4.5027H8.49514Z" fill="#4B1FFC"/>
<path d="M5.15607 9.51132V12.0156C5.15607 12.9377 5.90354 13.6852 6.8256 13.6852C7.74766 13.6852 8.49514 12.9377 8.49514 12.0156V11.5982C8.49514 10.4457 7.56079 9.51132 6.40822 9.51132H5.15607Z" fill="#4B1FFC"/>
<path d="M6.82561 5.33747H11.8342C12.7563 5.33747 13.5038 6.08495 13.5038 7.007C13.5038 7.92906 12.7563 8.67654 11.8342 8.67654H10.1647C8.32056 8.67654 6.82561 7.18159 6.82561 5.33747Z" fill="#4B1FFC"/>
<path d="M6.82561 8.67655H1.817C0.894939 8.67655 0.147461 7.92907 0.147461 7.00701C0.147461 6.08495 0.894938 5.33747 1.817 5.33747H3.48653C5.33065 5.33747 6.82561 6.83243 6.82561 8.67655Z" fill="#4B1FFC"/>
</svg>
