<svg width="400" height="27" viewBox="0 0 400 27" fill="none" xmlns="http://www.w3.org/2000/svg">
<path d="M32.5 9.37906H34.615V5.95063H37.331V9.37906H39.4459V11.6498H37.331V18.107H39.4459V20.3777H36.7824C35.5857 20.3777 34.6157 19.4077 34.6157 18.211L34.615 11.6498H32.5V9.37906Z" fill="#4B1FFC"/>
<path d="M45.9479 20.6654C44.865 20.6654 43.9008 20.4206 43.0552 19.9311C42.2245 19.4267 41.5717 18.7443 41.097 17.8839C40.6223 17.0087 40.385 16.0074 40.385 14.8799C40.385 13.7377 40.6149 12.729 41.0748 11.8537C41.5347 10.9785 42.18 10.2961 43.0107 9.80656C43.8414 9.30219 44.7908 9.05 45.8589 9.05C46.9715 9.05 47.9283 9.28736 48.7294 9.76206C49.5304 10.2219 50.1461 10.8672 50.5763 11.698C51.0213 12.5287 51.2438 13.5226 51.2438 14.6797V15.503L41.8091 15.5252L41.8536 13.7896H48.5514C48.5514 13.0331 48.3066 12.4248 47.8171 11.965C47.3424 11.5051 46.6971 11.2752 45.8812 11.2752C45.2433 11.2752 44.7018 11.4087 44.2568 11.6757C43.8266 11.9427 43.5002 12.3433 43.2777 12.8773C43.0552 13.4113 42.9439 14.0641 42.9439 14.8354C42.9439 16.0222 43.1961 16.9197 43.7005 17.5279C44.2197 18.1361 44.9837 18.4402 45.9924 18.4402C46.7341 18.4402 47.3424 18.2993 47.8171 18.0174C48.3066 17.7356 48.6255 17.335 48.7739 16.8158H51.2883C51.051 18.0174 50.4576 18.9594 49.5082 19.6418C48.5736 20.3242 47.3869 20.6654 45.9479 20.6654Z" fill="#4B1FFC"/>
<path d="M56.1338 20.6654C54.9767 20.6654 54.057 20.3539 53.3746 19.7308C52.707 19.0929 52.3733 18.2622 52.3733 17.2386C52.3733 16.2299 52.7219 15.4288 53.4191 14.8354C54.1311 14.2272 55.1399 13.8712 56.4453 13.7674L59.7386 13.5003V13.2556C59.7386 12.7512 59.6421 12.3507 59.4493 12.054C59.2713 11.7425 59.0117 11.5199 58.6705 11.3864C58.3293 11.2381 57.9288 11.1639 57.4689 11.1639C56.6678 11.1639 56.0522 11.3271 55.622 11.6535C55.1918 11.965 54.9767 12.41 54.9767 12.9886H52.6625C52.6625 12.1875 52.8628 11.4977 53.2633 10.9191C53.6787 10.3258 54.2572 9.8659 54.999 9.53954C55.7555 9.21318 56.6233 9.05 57.6024 9.05C58.5963 9.05 59.4493 9.22802 60.1614 9.58405C60.8734 9.92524 61.4223 10.4444 61.808 11.1417C62.1937 11.824 62.3865 12.677 62.3865 13.7006V20.3761H60.0056L59.8053 18.7517C59.568 19.3154 59.1081 19.7753 58.4257 20.1313C57.7582 20.4874 56.9942 20.6654 56.1338 20.6654ZM57.0016 18.6182C57.8472 18.6182 58.5147 18.3809 59.0043 17.9062C59.5086 17.4315 59.7608 16.7713 59.7608 15.9258V15.3472L57.4689 15.5252C56.6233 15.5994 56.0225 15.7774 55.6665 16.0593C55.3105 16.3263 55.1325 16.6823 55.1325 17.1274C55.1325 17.6169 55.2956 17.9878 55.622 18.24C55.9484 18.4921 56.4082 18.6182 57.0016 18.6182Z" fill="#4B1FFC"/>
<path d="M67.3231 20.3761H64.6084V9.38378H67.1006L67.4344 11.3419L67.1228 11.0749C67.3453 10.5409 67.7533 10.0736 68.3467 9.67305C68.94 9.25769 69.6818 9.05 70.5718 9.05C71.5361 9.05 72.3223 9.30219 72.9305 9.80656C73.5536 10.3109 73.9838 10.9785 74.2211 11.8092H73.7761C73.9393 10.9785 74.3546 10.3109 75.0222 9.80656C75.7046 9.30219 76.5279 9.05 77.4921 9.05C78.8272 9.05 79.8508 9.42828 80.5629 10.1848C81.2749 10.9266 81.6309 11.9279 81.6309 13.1888V20.3761H78.9385V13.9009C78.9385 13.1146 78.7382 12.5213 78.3377 12.1207C77.952 11.7054 77.4328 11.4977 76.7801 11.4977C76.3647 11.4977 75.979 11.5941 75.623 11.787C75.2818 11.9798 75.0073 12.2691 74.7997 12.6548C74.592 13.0405 74.4881 13.5374 74.4881 14.1456V20.3761H71.7734V13.8786C71.7734 13.1072 71.5806 12.5213 71.1949 12.1207C70.8092 11.7202 70.2974 11.5199 69.6595 11.5199C69.2293 11.5199 68.8362 11.6164 68.4802 11.8092C68.1242 11.9872 67.8423 12.2765 67.6346 12.677C67.4269 13.0627 67.3231 13.5523 67.3231 14.1456V20.3761Z" fill="#4B1FFC"/>
<path d="M86.3653 20.3761H83.8509V3.82086H86.5656V10.9859C86.9216 10.3629 87.4408 9.88815 88.1232 9.56179C88.8056 9.2206 89.5696 9.05 90.4151 9.05C91.4684 9.05 92.3659 9.30219 93.1076 9.80656C93.8641 10.2961 94.4427 10.9859 94.8432 11.876C95.2586 12.766 95.4663 13.797 95.4663 14.969C95.4663 16.0815 95.2512 17.068 94.821 17.9284C94.3908 18.7888 93.7825 19.4638 92.9963 19.9533C92.2101 20.428 91.2904 20.6654 90.2371 20.6654C89.4212 20.6654 88.6795 20.4874 88.0119 20.1313C87.3592 19.7753 86.8697 19.2858 86.5433 18.6627L86.3653 20.3761ZM86.5878 14.8354C86.5878 15.4882 86.7139 16.0741 86.9661 16.5933C87.2183 17.0977 87.5743 17.4908 88.0342 17.7727C88.5089 18.0397 89.0578 18.1732 89.6808 18.1732C90.3187 18.1732 90.8676 18.0323 91.3274 17.7504C91.7873 17.4686 92.1359 17.0754 92.3733 16.5711C92.6106 16.0667 92.7293 15.4882 92.7293 14.8354C92.7293 14.1827 92.6106 13.6042 92.3733 13.0998C92.1359 12.5954 91.7873 12.2023 91.3274 11.9205C90.8676 11.6238 90.3187 11.4754 89.6808 11.4754C89.0578 11.4754 88.5089 11.6238 88.0342 11.9205C87.5743 12.2023 87.2183 12.5954 86.9661 13.0998C86.7139 13.5893 86.5878 14.1679 86.5878 14.8354Z" fill="#1D1B1B"/>
<path d="M96.5375 14.8577C96.5375 13.7154 96.7896 12.7141 97.294 11.8537C97.7984 10.9785 98.4956 10.2961 99.3857 9.80656C100.276 9.31703 101.285 9.07226 102.412 9.07226C103.554 9.07226 104.563 9.31703 105.438 9.80656C106.328 10.2961 107.025 10.9785 107.53 11.8537C108.034 12.7141 108.286 13.7154 108.286 14.8577C108.286 15.9999 108.034 17.0087 107.53 17.8839C107.025 18.7443 106.328 19.4193 105.438 19.9088C104.563 20.3984 103.554 20.6431 102.412 20.6431C101.285 20.6431 100.276 20.3984 99.3857 19.9088C98.4956 19.4193 97.7984 18.7443 97.294 17.8839C96.7896 17.0087 96.5375 15.9999 96.5375 14.8577ZM99.2522 14.8577C99.2522 15.5252 99.3857 16.1112 99.6527 16.6156C99.9346 17.1199 100.305 17.5131 100.765 17.7949C101.24 18.0768 101.789 18.2177 102.412 18.2177C103.035 18.2177 103.584 18.0768 104.059 17.7949C104.533 17.5131 104.904 17.1199 105.171 16.6156C105.438 16.1112 105.572 15.5252 105.572 14.8577C105.572 14.1753 105.438 13.5893 105.171 13.0998C104.904 12.5954 104.533 12.2023 104.059 11.9205C103.584 11.6386 103.035 11.4977 102.412 11.4977C101.789 11.4977 101.24 11.6386 100.765 11.9205C100.305 12.2023 99.9346 12.5954 99.6527 13.0998C99.3857 13.5893 99.2522 14.1753 99.2522 14.8577Z" fill="#1D1B1B"/>
<path d="M113.264 20.6654C112.107 20.6654 111.187 20.3539 110.505 19.7308C109.837 19.0929 109.504 18.2622 109.504 17.2386C109.504 16.2299 109.852 15.4288 110.549 14.8354C111.261 14.2272 112.27 13.8712 113.576 13.7674L116.869 13.5003V13.2556C116.869 12.7512 116.772 12.3507 116.58 12.054C116.402 11.7425 116.142 11.5199 115.801 11.3864C115.46 11.2381 115.059 11.1639 114.599 11.1639C113.798 11.1639 113.183 11.3271 112.752 11.6535C112.322 11.965 112.107 12.41 112.107 12.9886H109.793C109.793 12.1875 109.993 11.4977 110.394 10.9191C110.809 10.3258 111.388 9.8659 112.129 9.53954C112.886 9.21318 113.754 9.05 114.733 9.05C115.727 9.05 116.58 9.22802 117.292 9.58405C118.004 9.92524 118.553 10.4444 118.938 11.1417C119.324 11.824 119.517 12.677 119.517 13.7006V20.3761H117.136L116.936 18.7517C116.698 19.3154 116.238 19.7753 115.556 20.1313C114.888 20.4874 114.125 20.6654 113.264 20.6654ZM114.132 18.6182C114.978 18.6182 115.645 18.3809 116.135 17.9062C116.639 17.4315 116.891 16.7713 116.891 15.9258V15.3472L114.599 15.5252C113.754 15.5994 113.153 15.7774 112.797 16.0593C112.441 16.3263 112.263 16.6823 112.263 17.1274C112.263 17.6169 112.426 17.9878 112.752 18.24C113.079 18.4921 113.539 18.6182 114.132 18.6182Z" fill="#1D1B1B"/>
<path d="M128.637 9.33928V11.8537H127.635C126.642 11.8537 125.863 12.1207 125.299 12.6548C124.735 13.174 124.453 13.9676 124.453 15.0357V20.3761H121.739V9.40603H124.298L124.52 11.6757H124.253C124.402 10.9488 124.75 10.3554 125.299 9.89557C125.848 9.4357 126.56 9.20577 127.435 9.20577C127.628 9.20577 127.821 9.21318 128.014 9.22802C128.207 9.24285 128.414 9.27994 128.637 9.33928Z" fill="#1D1B1B"/>
<path d="M134.177 20.6654C133.109 20.6654 132.189 20.428 131.418 19.9533C130.661 19.4638 130.068 18.7888 129.638 17.9284C129.222 17.068 129.014 16.0667 129.014 14.9244C129.014 13.7822 129.222 12.7735 129.638 11.8982C130.068 11.0082 130.683 10.3109 131.484 9.80656C132.285 9.30219 133.235 9.05 134.333 9.05C135.104 9.05 135.809 9.20577 136.447 9.51729C137.084 9.81398 137.574 10.2368 137.915 10.7856V3.82086H140.608V20.3761H138.115L137.937 18.6627C137.611 19.2858 137.107 19.7753 136.424 20.1313C135.757 20.4874 135.008 20.6654 134.177 20.6654ZM134.778 18.1732C135.416 18.1732 135.964 18.0397 136.424 17.7727C136.884 17.4908 137.24 17.0977 137.492 16.5933C137.759 16.0741 137.893 15.4882 137.893 14.8354C137.893 14.1679 137.759 13.5893 137.492 13.0998C137.24 12.5954 136.884 12.2023 136.424 11.9205C135.964 11.6238 135.416 11.4754 134.778 11.4754C134.155 11.4754 133.613 11.6238 133.153 11.9205C132.693 12.2023 132.337 12.5954 132.085 13.0998C131.848 13.6042 131.729 14.1827 131.729 14.8354C131.729 15.4882 131.848 16.0667 132.085 16.5711C132.337 17.0754 132.693 17.4686 133.153 17.7504C133.613 18.0323 134.155 18.1732 134.778 18.1732Z" fill="#1D1B1B"/>
<path d="M142.992 20.3761V9.38378H145.706V20.3761H142.992ZM144.327 7.18086C143.867 7.18086 143.474 7.0251 143.147 6.71358C142.836 6.38722 142.68 5.99411 142.68 5.53424C142.68 5.07437 142.836 4.68867 143.147 4.37715C143.474 4.06563 143.867 3.90987 144.327 3.90987C144.787 3.90987 145.172 4.06563 145.484 4.37715C145.81 4.68867 145.973 5.07437 145.973 5.53424C145.973 5.99411 145.81 6.38722 145.484 6.71358C145.172 7.0251 144.787 7.18086 144.327 7.18086Z" fill="#1D1B1B"/>
<path d="M150.781 20.3761H148.066V9.38378H150.581L150.803 10.8079C151.144 10.259 151.626 9.82881 152.249 9.51729C152.887 9.20577 153.577 9.05 154.319 9.05C155.698 9.05 156.737 9.45795 157.434 10.2738C158.146 11.0897 158.502 12.2023 158.502 13.6116V20.3761H155.787V14.2569C155.787 13.3372 155.58 12.6548 155.164 12.2097C154.749 11.7499 154.185 11.5199 153.473 11.5199C152.628 11.5199 151.968 11.787 151.493 12.321C151.018 12.855 150.781 13.5671 150.781 14.4572V20.3761Z" fill="#1D1B1B"/>
<path d="M160.101 14.6352C160.101 13.5671 160.316 12.6177 160.747 11.787C161.192 10.9414 161.807 10.2738 162.594 9.78431C163.38 9.29477 164.292 9.05 165.33 9.05C166.265 9.05 167.066 9.25769 167.734 9.67305C168.401 10.0736 168.868 10.6373 169.135 11.3642L168.846 11.6089L169.069 9.38378H171.583V19.8198C171.583 21.0362 171.346 22.0895 170.871 22.9796C170.411 23.8845 169.751 24.5743 168.891 25.049C168.045 25.5385 167.022 25.7833 165.82 25.7833C164.248 25.7833 162.957 25.3605 161.948 24.5149C160.939 23.6694 160.346 22.5123 160.168 21.0437H162.883C162.972 21.7557 163.268 22.312 163.773 22.7125C164.292 23.1131 164.974 23.3133 165.82 23.3133C166.755 23.3133 167.496 23.0389 168.045 22.49C168.609 21.956 168.891 21.2291 168.891 20.3094V17.5724L169.202 17.8617C168.935 18.5589 168.446 19.1152 167.734 19.5306C167.022 19.9459 166.198 20.1536 165.264 20.1536C164.225 20.1536 163.32 19.9162 162.549 19.4415C161.778 18.9668 161.177 18.3141 160.747 17.4834C160.316 16.6527 160.101 15.7033 160.101 14.6352ZM162.838 14.5684C162.838 15.1915 162.957 15.7478 163.194 16.2373C163.446 16.712 163.795 17.0903 164.24 17.3721C164.685 17.654 165.204 17.7949 165.798 17.7949C166.421 17.7949 166.955 17.6614 167.4 17.3944C167.86 17.1125 168.208 16.7343 168.446 16.2596C168.698 15.77 168.824 15.2063 168.824 14.5684C168.824 13.9305 168.705 13.3817 168.468 12.9218C168.231 12.4471 167.882 12.0762 167.422 11.8092C166.977 11.5422 166.436 11.4087 165.798 11.4087C165.19 11.4087 164.663 11.5496 164.218 11.8315C163.773 12.0985 163.432 12.4693 163.194 12.944C162.957 13.4188 162.838 13.9602 162.838 14.5684Z" fill="#1D1B1B"/>
<path d="M16.25 8.39892V3.52392C16.25 1.729 14.7949 0.273926 13 0.273926C11.2051 0.273926 9.75 1.729 9.75 3.52392V4.33642C9.75 6.58008 11.5688 8.39892 13.8125 8.39892H16.25Z" fill="#4B1FFC"/>
<path d="M9.74999 18.1489V23.0239C9.74999 24.8189 11.2051 26.2739 13 26.2739C14.7949 26.2739 16.25 24.8189 16.25 23.0239V22.2114C16.25 19.9678 14.4311 18.1489 12.1875 18.1489H9.74999Z" fill="#4B1FFC"/>
<path d="M13 10.0239H22.75C24.5449 10.0239 26 11.479 26 13.2739C26 15.0688 24.5449 16.5239 22.75 16.5239H19.5C15.9101 16.5239 13 13.6138 13 10.0239Z" fill="#4B1FFC"/>
<path d="M13 16.5239H3.25C1.45508 16.5239 0 15.0689 0 13.2739C0 11.479 1.45507 10.0239 3.25 10.0239H6.49999C10.0898 10.0239 13 12.9341 13 16.5239Z" fill="#4B1FFC"/>
</svg>
