<svg width="342" height="27" viewBox="0 0 342 27" fill="none" xmlns="http://www.w3.org/2000/svg">
<path d="M117.708 9.34439H119.823V5.91596H122.539V9.34439H124.654V11.6152H122.539V18.0724H124.654V20.343H121.991C120.794 20.343 119.824 19.373 119.824 18.1764L119.823 11.6152H117.708V9.34439Z" fill="#4B1FFC"/>
<path d="M131.156 20.6307C130.073 20.6307 129.109 20.386 128.264 19.8964C127.433 19.392 126.78 18.7097 126.305 17.8493C125.831 16.974 125.593 15.9727 125.593 14.8453C125.593 13.703 125.823 12.6943 126.283 11.819C126.743 10.9438 127.388 10.2614 128.219 9.77189C129.05 9.26752 129.999 9.01534 131.067 9.01534C132.18 9.01534 133.137 9.25269 133.938 9.72739C134.739 10.1873 135.354 10.8326 135.785 11.6633C136.23 12.494 136.452 13.4879 136.452 14.645V15.4683L127.017 15.4906L127.062 13.7549H133.76C133.76 12.9984 133.515 12.3902 133.025 11.9303C132.551 11.4704 131.905 11.2405 131.09 11.2405C130.452 11.2405 129.91 11.374 129.465 11.641C129.035 11.9081 128.709 12.3086 128.486 12.8426C128.264 13.3767 128.152 14.0294 128.152 14.8008C128.152 15.9875 128.404 16.885 128.909 17.4932C129.428 18.1014 130.192 18.4055 131.201 18.4055C131.943 18.4055 132.551 18.2646 133.025 17.9828C133.515 17.7009 133.834 17.3004 133.982 16.7812H136.497C136.259 17.9828 135.666 18.9248 134.717 19.6071C133.782 20.2895 132.595 20.6307 131.156 20.6307Z" fill="#4B1FFC"/>
<path d="M141.342 20.6307C140.185 20.6307 139.265 20.3192 138.583 19.6961C137.915 19.0583 137.582 18.2275 137.582 17.204C137.582 16.1952 137.93 15.3942 138.627 14.8008C139.34 14.1926 140.348 13.8365 141.654 13.7327L144.947 13.4657V13.2209C144.947 12.7165 144.851 12.316 144.658 12.0193C144.48 11.7078 144.22 11.4853 143.879 11.3518C143.538 11.2034 143.137 11.1292 142.677 11.1292C141.876 11.1292 141.261 11.2924 140.83 11.6188C140.4 11.9303 140.185 12.3753 140.185 12.9539H137.871C137.871 12.1528 138.071 11.463 138.472 10.8845C138.887 10.2911 139.466 9.83123 140.207 9.50487C140.964 9.17852 141.832 9.01534 142.811 9.01534C143.805 9.01534 144.658 9.19335 145.37 9.54938C146.082 9.89057 146.631 10.4098 147.016 11.107C147.402 11.7894 147.595 12.6424 147.595 13.6659V20.3414H145.214L145.014 18.7171C144.776 19.2808 144.316 19.7407 143.634 20.0967C142.967 20.4527 142.203 20.6307 141.342 20.6307ZM142.21 18.5836C143.056 18.5836 143.723 18.3462 144.213 17.8715C144.717 17.3968 144.969 16.7367 144.969 15.8911V15.3126L142.677 15.4906C141.832 15.5647 141.231 15.7428 140.875 16.0246C140.519 16.2916 140.341 16.6477 140.341 17.0927C140.341 17.5822 140.504 17.9531 140.83 18.2053C141.157 18.4575 141.617 18.5836 142.21 18.5836Z" fill="#4B1FFC"/>
<path d="M152.531 20.3414H149.817V9.34911H152.309L152.643 11.3073L152.331 11.0402C152.554 10.5062 152.962 10.0389 153.555 9.63838C154.148 9.22302 154.89 9.01534 155.78 9.01534C156.744 9.01534 157.531 9.26752 158.139 9.77189C158.762 10.2763 159.192 10.9438 159.429 11.7745H158.984C159.148 10.9438 159.563 10.2763 160.231 9.77189C160.913 9.26752 161.736 9.01534 162.7 9.01534C164.036 9.01534 165.059 9.39361 165.771 10.1502C166.483 10.8919 166.839 11.8932 166.839 13.1542V20.3414H164.147V13.8662C164.147 13.08 163.947 12.4866 163.546 12.0861C163.16 11.6707 162.641 11.463 161.988 11.463C161.573 11.463 161.187 11.5594 160.831 11.7523C160.49 11.9451 160.216 12.2344 160.008 12.6201C159.8 13.0058 159.697 13.5028 159.697 14.111V20.3414H156.982V13.844C156.982 13.0726 156.789 12.4866 156.403 12.0861C156.018 11.6855 155.506 11.4853 154.868 11.4853C154.438 11.4853 154.045 11.5817 153.689 11.7745C153.333 11.9526 153.051 12.2418 152.843 12.6424C152.635 13.0281 152.531 13.5176 152.531 14.111V20.3414Z" fill="#4B1FFC"/>
<path d="M171.574 20.3414H169.059V3.78619H171.774V10.9512C172.13 10.3282 172.649 9.85348 173.332 9.52713C174.014 9.18593 174.778 9.01534 175.623 9.01534C176.677 9.01534 177.574 9.26752 178.316 9.77189C179.073 10.2614 179.651 10.9512 180.052 11.8413C180.467 12.7314 180.675 13.7624 180.675 14.9343C180.675 16.0469 180.46 17.0334 180.029 17.8938C179.599 18.7542 178.991 19.4291 178.205 19.9187C177.418 20.3934 176.499 20.6307 175.445 20.6307C174.63 20.6307 173.888 20.4527 173.22 20.0967C172.568 19.7407 172.078 19.2511 171.752 18.6281L171.574 20.3414ZM171.796 14.8008C171.796 15.4535 171.922 16.0395 172.174 16.5587C172.427 17.063 172.783 17.4561 173.243 17.738C173.717 18.005 174.266 18.1385 174.889 18.1385C175.527 18.1385 176.076 17.9976 176.536 17.7157C176.996 17.4339 177.344 17.0408 177.582 16.5364C177.819 16.032 177.938 15.4535 177.938 14.8008C177.938 14.1481 177.819 13.5695 177.582 13.0651C177.344 12.5608 176.996 12.1677 176.536 11.8858C176.076 11.5891 175.527 11.4408 174.889 11.4408C174.266 11.4408 173.717 11.5891 173.243 11.8858C172.783 12.1677 172.427 12.5608 172.174 13.0651C171.922 13.5547 171.796 14.1332 171.796 14.8008Z" fill="#1D1B1B"/>
<path d="M181.746 14.823C181.746 13.6808 181.998 12.6794 182.502 11.819C183.007 10.9438 183.704 10.2614 184.594 9.77189C185.484 9.28236 186.493 9.03759 187.62 9.03759C188.763 9.03759 189.771 9.28236 190.647 9.77189C191.537 10.2614 192.234 10.9438 192.738 11.819C193.243 12.6794 193.495 13.6808 193.495 14.823C193.495 15.9653 193.243 16.974 192.738 17.8493C192.234 18.7097 191.537 19.3846 190.647 19.8742C189.771 20.3637 188.763 20.6085 187.62 20.6085C186.493 20.6085 185.484 20.3637 184.594 19.8742C183.704 19.3846 183.007 18.7097 182.502 17.8493C181.998 16.974 181.746 15.9653 181.746 14.823ZM184.461 14.823C184.461 15.4906 184.594 16.0765 184.861 16.5809C185.143 17.0853 185.514 17.4784 185.974 17.7603C186.448 18.0421 186.997 18.183 187.62 18.183C188.243 18.183 188.792 18.0421 189.267 17.7603C189.742 17.4784 190.112 17.0853 190.379 16.5809C190.647 16.0765 190.78 15.4906 190.78 14.823C190.78 14.1406 190.647 13.5547 190.379 13.0651C190.112 12.5608 189.742 12.1677 189.267 11.8858C188.792 11.6039 188.243 11.463 187.62 11.463C186.997 11.463 186.448 11.6039 185.974 11.8858C185.514 12.1677 185.143 12.5608 184.861 13.0651C184.594 13.5547 184.461 14.1406 184.461 14.823Z" fill="#1D1B1B"/>
<path d="M198.473 20.6307C197.315 20.6307 196.396 20.3192 195.713 19.6961C195.046 19.0583 194.712 18.2275 194.712 17.204C194.712 16.1952 195.061 15.3942 195.758 14.8008C196.47 14.1926 197.479 13.8365 198.784 13.7327L202.077 13.4657V13.2209C202.077 12.7165 201.981 12.316 201.788 12.0193C201.61 11.7078 201.35 11.4853 201.009 11.3518C200.668 11.2034 200.267 11.1292 199.808 11.1292C199.007 11.1292 198.391 11.2924 197.961 11.6188C197.531 11.9303 197.315 12.3753 197.315 12.9539H195.001C195.001 12.1528 195.201 11.463 195.602 10.8845C196.017 10.2911 196.596 9.83123 197.338 9.50487C198.094 9.17852 198.962 9.01534 199.941 9.01534C200.935 9.01534 201.788 9.19335 202.5 9.54938C203.212 9.89057 203.761 10.4098 204.147 11.107C204.532 11.7894 204.725 12.6424 204.725 13.6659V20.3414H202.344L202.144 18.7171C201.907 19.2808 201.447 19.7407 200.764 20.0967C200.097 20.4527 199.333 20.6307 198.473 20.6307ZM199.34 18.5836C200.186 18.5836 200.853 18.3462 201.343 17.8715C201.847 17.3968 202.1 16.7367 202.1 15.8911V15.3126L199.808 15.4906C198.962 15.5647 198.361 15.7428 198.005 16.0246C197.649 16.2916 197.471 16.6477 197.471 17.0927C197.471 17.5822 197.634 17.9531 197.961 18.2053C198.287 18.4575 198.747 18.5836 199.34 18.5836Z" fill="#1D1B1B"/>
<path d="M213.845 9.30461V11.819H212.844C211.85 11.819 211.071 12.0861 210.507 12.6201C209.944 13.1393 209.662 13.933 209.662 15.001V20.3414H206.947V9.37136H209.506L209.729 11.641H209.462C209.61 10.9141 209.958 10.3208 210.507 9.8609C211.056 9.40103 211.768 9.1711 212.644 9.1711C212.836 9.1711 213.029 9.17852 213.222 9.19335C213.415 9.20819 213.623 9.24527 213.845 9.30461Z" fill="#1D1B1B"/>
<path d="M219.385 20.6307C218.317 20.6307 217.397 20.3934 216.626 19.9187C215.869 19.4291 215.276 18.7542 214.846 17.8938C214.431 17.0334 214.223 16.032 214.223 14.8898C214.223 13.7475 214.431 12.7388 214.846 11.8636C215.276 10.9735 215.892 10.2763 216.693 9.77189C217.494 9.26752 218.443 9.01534 219.541 9.01534C220.312 9.01534 221.017 9.1711 221.655 9.48262C222.293 9.77931 222.782 10.2021 223.124 10.751V3.78619H225.816V20.3414H223.324L223.146 18.6281C222.819 19.2511 222.315 19.7407 221.633 20.0967C220.965 20.4527 220.216 20.6307 219.385 20.6307ZM219.986 18.1385C220.624 18.1385 221.173 18.005 221.633 17.738C222.093 17.4561 222.449 17.063 222.701 16.5587C222.968 16.0395 223.101 15.4535 223.101 14.8008C223.101 14.1332 222.968 13.5547 222.701 13.0651C222.449 12.5608 222.093 12.1677 221.633 11.8858C221.173 11.5891 220.624 11.4408 219.986 11.4408C219.363 11.4408 218.822 11.5891 218.362 11.8858C217.902 12.1677 217.546 12.5608 217.294 13.0651C217.056 13.5695 216.938 14.1481 216.938 14.8008C216.938 15.4535 217.056 16.032 217.294 16.5364C217.546 17.0408 217.902 17.4339 218.362 17.7157C218.822 17.9976 219.363 18.1385 219.986 18.1385Z" fill="#1D1B1B"/>
<path d="M228.2 20.3414V9.34911H230.915V20.3414H228.2ZM229.535 7.14619C229.075 7.14619 228.682 6.99043 228.356 6.67891C228.044 6.35255 227.889 5.95944 227.889 5.49957C227.889 5.0397 228.044 4.65401 228.356 4.34248C228.682 4.03096 229.075 3.8752 229.535 3.8752C229.995 3.8752 230.381 4.03096 230.692 4.34248C231.019 4.65401 231.182 5.0397 231.182 5.49957C231.182 5.95944 231.019 6.35255 230.692 6.67891C230.381 6.99043 229.995 7.14619 229.535 7.14619Z" fill="#1D1B1B"/>
<path d="M235.989 20.3414H233.274V9.34911H235.789L236.011 10.7732C236.353 10.2243 236.835 9.79415 237.458 9.48262C238.096 9.1711 238.785 9.01534 239.527 9.01534C240.907 9.01534 241.945 9.42328 242.642 10.2392C243.355 11.0551 243.711 12.1677 243.711 13.5769V20.3414H240.996V14.2222C240.996 13.3025 240.788 12.6201 240.373 12.1751C239.957 11.7152 239.394 11.4853 238.682 11.4853C237.836 11.4853 237.176 11.7523 236.701 12.2863C236.227 12.8204 235.989 13.5324 235.989 14.4225V20.3414Z" fill="#1D1B1B"/>
<path d="M245.31 14.6005C245.31 13.5324 245.525 12.583 245.955 11.7523C246.4 10.9067 247.016 10.2392 247.802 9.74964C248.588 9.26011 249.5 9.01534 250.539 9.01534C251.473 9.01534 252.274 9.22302 252.942 9.63838C253.61 10.0389 254.077 10.6026 254.344 11.3295L254.055 11.5743L254.277 9.34911H256.792V19.7852C256.792 21.0016 256.554 22.0548 256.08 22.9449C255.62 23.8498 254.96 24.5396 254.099 25.0143C253.254 25.5038 252.23 25.7486 251.028 25.7486C249.456 25.7486 248.165 25.3258 247.157 24.4803C246.148 23.6347 245.554 22.4776 245.376 21.009H248.091C248.18 21.721 248.477 22.2773 248.981 22.6779C249.5 23.0784 250.183 23.2787 251.028 23.2787C251.963 23.2787 252.705 23.0042 253.254 22.4554C253.817 21.9213 254.099 21.1944 254.099 20.2747V17.5377L254.411 17.827C254.144 18.5242 253.654 19.0805 252.942 19.4959C252.23 19.9112 251.407 20.1189 250.472 20.1189C249.434 20.1189 248.529 19.8816 247.757 19.4069C246.986 18.9322 246.385 18.2795 245.955 17.4487C245.525 16.618 245.31 15.6686 245.31 14.6005ZM248.047 14.5338C248.047 15.1568 248.165 15.7131 248.403 16.2026C248.655 16.6773 249.003 17.0556 249.449 17.3375C249.894 17.6193 250.413 17.7603 251.006 17.7603C251.629 17.7603 252.163 17.6267 252.608 17.3597C253.068 17.0779 253.417 16.6996 253.654 16.2249C253.906 15.7353 254.032 15.1716 254.032 14.5338C254.032 13.8959 253.914 13.347 253.676 12.8871C253.439 12.4124 253.09 12.0416 252.63 11.7745C252.185 11.5075 251.644 11.374 251.006 11.374C250.398 11.374 249.871 11.5149 249.426 11.7968C248.981 12.0638 248.64 12.4347 248.403 12.9094C248.165 13.3841 248.047 13.9255 248.047 14.5338Z" fill="#1D1B1B"/>
<path d="M101.458 8.36425V3.48925C101.458 1.69433 100.003 0.239258 98.2084 0.239258C96.4134 0.239258 94.9584 1.69433 94.9584 3.48926V4.30176C94.9584 6.54541 96.7772 8.36425 99.0209 8.36425H101.458Z" fill="#4B1FFC"/>
<path d="M94.9584 18.1143V22.9893C94.9584 24.7842 96.4134 26.2393 98.2084 26.2393C100.003 26.2393 101.458 24.7842 101.458 22.9893V22.1768C101.458 19.9331 99.6395 18.1143 97.3959 18.1143H94.9584Z" fill="#4B1FFC"/>
<path d="M98.2084 9.98925H107.958C109.753 9.98925 111.208 11.4443 111.208 13.2393C111.208 15.0342 109.753 16.4893 107.958 16.4893H104.708C101.119 16.4893 98.2084 13.5791 98.2084 9.98925Z" fill="#4B1FFC"/>
<path d="M98.2084 16.4893H88.4584C86.6634 16.4893 85.2084 15.0342 85.2084 13.2393C85.2084 11.4443 86.6634 9.98926 88.4584 9.98926H91.7084C95.2982 9.98926 98.2084 12.8994 98.2084 16.4893Z" fill="#4B1FFC"/>
</svg>
