<svg width="42" height="8" viewBox="0 0 42 8" fill="none" xmlns="http://www.w3.org/2000/svg">
<path d="M8.37381 2.96611H8.88273V2.14113H9.53629V2.96611H10.0452V3.51253H9.53629V5.06632H10.0452V5.61271H9.40427C9.11633 5.61271 8.88291 5.37929 8.88291 5.09135L8.88273 3.51253H8.37381V2.96611Z" fill="#4B1FFC"/>
<path d="M11.6098 5.68194C11.3492 5.68194 11.1172 5.62304 10.9137 5.50524C10.7138 5.38388 10.5567 5.21967 10.4425 5.01264C10.3283 4.80203 10.2712 4.56108 10.2712 4.28979C10.2712 4.01493 10.3265 3.7722 10.4372 3.56159C10.5478 3.35098 10.7031 3.18678 10.903 3.06898C11.1029 2.94762 11.3313 2.88693 11.5884 2.88693C11.8561 2.88693 12.0863 2.94405 12.2791 3.05827C12.4718 3.16893 12.62 3.32421 12.7235 3.52411C12.8306 3.72401 12.8841 3.96317 12.8841 4.2416V4.43971L10.6139 4.44507L10.6246 4.02742H12.2362C12.2362 3.84537 12.1773 3.69902 12.0595 3.58836C11.9453 3.4777 11.79 3.42237 11.5937 3.42237C11.4402 3.42237 11.3099 3.4545 11.2028 3.51875C11.0993 3.58301 11.0208 3.67939 10.9672 3.80789C10.9137 3.9364 10.8869 4.09346 10.8869 4.27908C10.8869 4.56465 10.9476 4.78061 11.069 4.92696C11.1939 5.07332 11.3778 5.1465 11.6205 5.1465C11.799 5.1465 11.9453 5.11258 12.0595 5.04476C12.1773 4.97694 12.2541 4.88056 12.2898 4.75562H12.8948C12.8377 5.04476 12.6949 5.27143 12.4665 5.43563C12.2416 5.59984 11.956 5.68194 11.6098 5.68194Z" fill="#4B1FFC"/>
<path d="M14.0608 5.68194C13.7824 5.68194 13.5611 5.60698 13.3969 5.45705C13.2362 5.30356 13.1559 5.10366 13.1559 4.85736C13.1559 4.61462 13.2398 4.42186 13.4076 4.27908C13.5789 4.13273 13.8216 4.04706 14.1358 4.02207L14.9282 3.95782V3.89892C14.9282 3.77755 14.905 3.68117 14.8586 3.60978C14.8158 3.53482 14.7533 3.48127 14.6712 3.44915C14.5891 3.41345 14.4927 3.3956 14.3821 3.3956C14.1893 3.3956 14.0412 3.43487 13.9377 3.5134C13.8341 3.58836 13.7824 3.69545 13.7824 3.83466H13.2255C13.2255 3.6419 13.2737 3.47592 13.3701 3.3367C13.47 3.19392 13.6092 3.08326 13.7877 3.00473C13.9698 2.9262 14.1786 2.88693 14.4142 2.88693C14.6534 2.88693 14.8586 2.92977 15.03 3.01544C15.2013 3.09754 15.3334 3.22248 15.4262 3.39025C15.519 3.55445 15.5654 3.7597 15.5654 4.006V5.61233H14.9925L14.9443 5.22146C14.8872 5.3571 14.7765 5.46776 14.6123 5.55343C14.4517 5.6391 14.2678 5.68194 14.0608 5.68194ZM14.2696 5.18933C14.4731 5.18933 14.6337 5.13222 14.7515 5.01799C14.8729 4.90376 14.9336 4.74491 14.9336 4.54145V4.40223L14.3821 4.44507C14.1786 4.46292 14.034 4.50575 13.9484 4.57357C13.8627 4.63783 13.8199 4.7235 13.8199 4.83059C13.8199 4.94838 13.8591 5.03762 13.9377 5.09831C14.0162 5.15899 14.1268 5.18933 14.2696 5.18933Z" fill="#4B1FFC"/>
<path d="M16.7533 5.61233H16.1V2.96725H16.6997L16.7801 3.43844L16.7051 3.37418C16.7586 3.24568 16.8568 3.13324 16.9996 3.03686C17.1424 2.93691 17.3208 2.88693 17.535 2.88693C17.7671 2.88693 17.9562 2.94762 18.1026 3.06898C18.2525 3.19035 18.356 3.35098 18.4131 3.55088H18.3061C18.3453 3.35098 18.4453 3.19035 18.6059 3.06898C18.7701 2.94762 18.9682 2.88693 19.2003 2.88693C19.5215 2.88693 19.7678 2.97796 19.9392 3.16001C20.1105 3.33849 20.1962 3.57944 20.1962 3.88285V5.61233H19.5483V4.05419C19.5483 3.86501 19.5001 3.72222 19.4037 3.62584C19.3109 3.52589 19.186 3.47592 19.0289 3.47592C18.929 3.47592 18.8361 3.49912 18.7505 3.54553C18.6684 3.59193 18.6023 3.66154 18.5524 3.75435C18.5024 3.84716 18.4774 3.96674 18.4774 4.11309V5.61233H17.8242V4.04884C17.8242 3.86322 17.7778 3.72222 17.6849 3.62584C17.5921 3.52946 17.469 3.48127 17.3155 3.48127C17.212 3.48127 17.1174 3.50447 17.0317 3.55088C16.946 3.59371 16.8782 3.66332 16.8282 3.7597C16.7783 3.85251 16.7533 3.97031 16.7533 4.11309V5.61233Z" fill="#4B1FFC"/>
<path d="M21.3354 5.61233H20.7304V1.62864H21.3836V3.35277C21.4693 3.20284 21.5942 3.08861 21.7584 3.01008C21.9226 2.92798 22.1064 2.88693 22.3099 2.88693C22.5634 2.88693 22.7793 2.94762 22.9578 3.06898C23.1398 3.18678 23.2791 3.35277 23.3754 3.56694C23.4754 3.78112 23.5254 4.02921 23.5254 4.31121C23.5254 4.57893 23.4736 4.81631 23.3701 5.02334C23.2666 5.23038 23.1202 5.3928 22.931 5.5106C22.7418 5.62482 22.5205 5.68194 22.2671 5.68194C22.0707 5.68194 21.8923 5.6391 21.7316 5.55343C21.5746 5.46776 21.4568 5.34996 21.3782 5.20004L21.3354 5.61233ZM21.389 4.27908C21.389 4.43614 21.4193 4.57714 21.48 4.70208C21.5407 4.82345 21.6263 4.91804 21.737 4.98586C21.8512 5.05012 21.9833 5.08224 22.1332 5.08224C22.2867 5.08224 22.4188 5.04833 22.5294 4.98051C22.6401 4.91269 22.724 4.81809 22.7811 4.69672C22.8382 4.57536 22.8668 4.43614 22.8668 4.27908C22.8668 4.12202 22.8382 3.9828 22.7811 3.86144C22.724 3.74007 22.6401 3.64547 22.5294 3.57765C22.4188 3.50626 22.2867 3.47056 22.1332 3.47056C21.9833 3.47056 21.8512 3.50626 21.737 3.57765C21.6263 3.64547 21.5407 3.74007 21.48 3.86144C21.4193 3.97923 21.389 4.11845 21.389 4.27908Z" fill="#1D1B1B"/>
<path d="M23.7831 4.28443C23.7831 4.00957 23.8438 3.76863 23.9652 3.56159C24.0865 3.35098 24.2543 3.18678 24.4685 3.06898C24.6827 2.95118 24.9254 2.89229 25.1967 2.89229C25.4716 2.89229 25.7143 2.95118 25.9249 3.06898C26.1391 3.18678 26.3068 3.35098 26.4282 3.56159C26.5496 3.76863 26.6103 4.00957 26.6103 4.28443C26.6103 4.55929 26.5496 4.80203 26.4282 5.01264C26.3068 5.21967 26.1391 5.38209 25.9249 5.49989C25.7143 5.61768 25.4716 5.67658 25.1967 5.67658C24.9254 5.67658 24.6827 5.61768 24.4685 5.49989C24.2543 5.38209 24.0865 5.21967 23.9652 5.01264C23.8438 4.80203 23.7831 4.55929 23.7831 4.28443ZM24.4364 4.28443C24.4364 4.44507 24.4685 4.58607 24.5327 4.70743C24.6006 4.8288 24.6898 4.9234 24.8005 4.99122C24.9147 5.05904 25.0468 5.09295 25.1967 5.09295C25.3466 5.09295 25.4787 5.05904 25.5929 4.99122C25.7071 4.9234 25.7964 4.8288 25.8606 4.70743C25.9249 4.58607 25.957 4.44507 25.957 4.28443C25.957 4.12023 25.9249 3.97923 25.8606 3.86144C25.7964 3.74007 25.7071 3.64547 25.5929 3.57765C25.4787 3.50983 25.3466 3.47592 25.1967 3.47592C25.0468 3.47592 24.9147 3.50983 24.8005 3.57765C24.6898 3.64547 24.6006 3.74007 24.5327 3.86144C24.4685 3.97923 24.4364 4.12023 24.4364 4.28443Z" fill="#1D1B1B"/>
<path d="M27.8081 5.68194C27.5296 5.68194 27.3083 5.60698 27.1441 5.45705C26.9835 5.30356 26.9032 5.10366 26.9032 4.85736C26.9032 4.61462 26.987 4.42186 27.1548 4.27908C27.3262 4.13273 27.5689 4.04706 27.883 4.02207L28.6755 3.95782V3.89892C28.6755 3.77755 28.6523 3.68117 28.6059 3.60978C28.563 3.53482 28.5006 3.48127 28.4185 3.44915C28.3364 3.41345 28.24 3.3956 28.1293 3.3956C27.9366 3.3956 27.7884 3.43487 27.6849 3.5134C27.5814 3.58836 27.5296 3.69545 27.5296 3.83466H26.9728C26.9728 3.6419 27.021 3.47592 27.1173 3.3367C27.2173 3.19392 27.3565 3.08326 27.535 3.00473C27.717 2.9262 27.9259 2.88693 28.1615 2.88693C28.4006 2.88693 28.6059 2.92977 28.7772 3.01544C28.9486 3.09754 29.0806 3.22248 29.1734 3.39025C29.2662 3.55445 29.3127 3.7597 29.3127 4.006V5.61233H28.7397L28.6915 5.22146C28.6344 5.3571 28.5238 5.46776 28.3596 5.55343C28.1989 5.6391 28.0151 5.68194 27.8081 5.68194ZM28.0169 5.18933C28.2204 5.18933 28.381 5.13222 28.4988 5.01799C28.6201 4.90376 28.6808 4.74491 28.6808 4.54145V4.40223L28.1293 4.44507C27.9259 4.46292 27.7813 4.50575 27.6956 4.57357C27.6099 4.63783 27.5671 4.7235 27.5671 4.83059C27.5671 4.94838 27.6064 5.03762 27.6849 5.09831C27.7634 5.15899 27.8741 5.18933 28.0169 5.18933Z" fill="#1D1B1B"/>
<path d="M31.5072 2.95654V3.56159H31.2662C31.0271 3.56159 30.8397 3.62584 30.704 3.75435C30.5684 3.87928 30.5005 4.07026 30.5005 4.32727V5.61233H29.8473V2.9726H30.4631L30.5166 3.51875H30.4523C30.488 3.34384 30.5719 3.20106 30.704 3.0904C30.8361 2.97974 31.0074 2.92441 31.218 2.92441C31.2644 2.92441 31.3108 2.9262 31.3572 2.92977C31.4036 2.93334 31.4536 2.94226 31.5072 2.95654Z" fill="#1D1B1B"/>
<path d="M32.8403 5.68194C32.5833 5.68194 32.362 5.62482 32.1763 5.5106C31.9943 5.3928 31.8515 5.23038 31.748 5.02334C31.648 4.81631 31.5981 4.57536 31.5981 4.3005C31.5981 4.02564 31.648 3.7829 31.748 3.5723C31.8515 3.35812 31.9996 3.19035 32.1924 3.06898C32.3852 2.94762 32.6136 2.88693 32.8778 2.88693C33.0634 2.88693 33.2329 2.92441 33.3864 2.99937C33.5399 3.07077 33.6577 3.1725 33.7398 3.30458V1.62864H34.3877V5.61233H33.788L33.7452 5.20004C33.6667 5.34996 33.5453 5.46776 33.3811 5.55343C33.2205 5.6391 33.0402 5.68194 32.8403 5.68194ZM32.9849 5.08224C33.1384 5.08224 33.2704 5.05012 33.3811 4.98586C33.4917 4.91804 33.5774 4.82345 33.6381 4.70208C33.7024 4.57714 33.7345 4.43614 33.7345 4.27908C33.7345 4.11845 33.7024 3.97923 33.6381 3.86144C33.5774 3.74007 33.4917 3.64547 33.3811 3.57765C33.2704 3.50626 33.1384 3.47056 32.9849 3.47056C32.8349 3.47056 32.7046 3.50626 32.594 3.57765C32.4833 3.64547 32.3977 3.74007 32.337 3.86144C32.2799 3.9828 32.2513 4.12202 32.2513 4.27908C32.2513 4.43614 32.2799 4.57536 32.337 4.69672C32.3977 4.81809 32.4833 4.91269 32.594 4.98051C32.7046 5.04833 32.8349 5.08224 32.9849 5.08224Z" fill="#1D1B1B"/>
<path d="M34.9614 5.61233V2.96725H35.6146V5.61233H34.9614ZM35.2827 2.43716C35.172 2.43716 35.0774 2.39968 34.9989 2.32472C34.9239 2.24619 34.8864 2.15159 34.8864 2.04093C34.8864 1.93028 34.9239 1.83747 34.9989 1.7625C35.0774 1.68754 35.172 1.65006 35.2827 1.65006C35.3933 1.65006 35.4861 1.68754 35.5611 1.7625C35.6396 1.83747 35.6789 1.93028 35.6789 2.04093C35.6789 2.15159 35.6396 2.24619 35.5611 2.32472C35.4861 2.39968 35.3933 2.43716 35.2827 2.43716Z" fill="#1D1B1B"/>
<path d="M36.8357 5.61233H36.1825V2.96725H36.7875L36.841 3.30993C36.9231 3.17786 37.0392 3.07434 37.1891 2.99937C37.3426 2.92441 37.5086 2.88693 37.687 2.88693C38.019 2.88693 38.2689 2.9851 38.4367 3.18142C38.608 3.37775 38.6937 3.64547 38.6937 3.98459V5.61233H38.0404V4.13987C38.0404 3.91855 37.9905 3.75435 37.8905 3.64726C37.7906 3.5366 37.6549 3.48127 37.4836 3.48127C37.2801 3.48127 37.1213 3.54553 37.007 3.67403C36.8928 3.80254 36.8357 3.97388 36.8357 4.18806V5.61233Z" fill="#1D1B1B"/>
<path d="M39.0785 4.23089C39.0785 3.97388 39.1302 3.74542 39.2338 3.54553C39.3408 3.34206 39.489 3.18142 39.6782 3.06363C39.8674 2.94583 40.0869 2.88693 40.3368 2.88693C40.5617 2.88693 40.7544 2.93691 40.915 3.03686C41.0757 3.13324 41.1881 3.26888 41.2524 3.44379L41.1828 3.50269L41.2363 2.96725H41.8414V5.47847C41.8414 5.77118 41.7842 6.02462 41.67 6.2388C41.5594 6.45654 41.4005 6.62253 41.1935 6.73676C40.99 6.85456 40.7437 6.91345 40.4546 6.91345C40.0762 6.91345 39.7656 6.81172 39.5229 6.60825C39.2802 6.40478 39.1374 6.12635 39.0945 5.77296H39.7478C39.7692 5.9443 39.8406 6.07816 39.962 6.17454C40.0869 6.27092 40.2511 6.31911 40.4546 6.31911C40.6795 6.31911 40.8579 6.25308 40.99 6.121C41.1257 5.99249 41.1935 5.81758 41.1935 5.59627V4.93767L41.2684 5.00728C41.2042 5.17505 41.0864 5.30891 40.915 5.40886C40.7437 5.50881 40.5456 5.55879 40.3207 5.55879C40.0708 5.55879 39.8531 5.50167 39.6675 5.38745C39.4818 5.27322 39.3373 5.11615 39.2338 4.91626C39.1302 4.71636 39.0785 4.4879 39.0785 4.23089ZM39.7371 4.21483C39.7371 4.36475 39.7656 4.49861 39.8227 4.61641C39.8834 4.73064 39.9673 4.82166 40.0744 4.88948C40.1815 4.95731 40.3064 4.99122 40.4492 4.99122C40.5991 4.99122 40.7276 4.95909 40.8347 4.89484C40.9454 4.82702 41.0293 4.73599 41.0864 4.62176C41.1471 4.50397 41.1774 4.36832 41.1774 4.21483C41.1774 4.06133 41.1489 3.92926 41.0917 3.8186C41.0346 3.70437 40.9507 3.61513 40.8401 3.55088C40.733 3.48663 40.6027 3.4545 40.4492 3.4545C40.3029 3.4545 40.1761 3.48841 40.0691 3.55623C39.962 3.62049 39.8799 3.70973 39.8227 3.82395C39.7656 3.93818 39.7371 4.06847 39.7371 4.21483Z" fill="#1D1B1B"/>
<path d="M4.46358 2.73026V1.55719C4.46358 1.12528 4.11344 0.775147 3.68153 0.775146C3.24962 0.775146 2.89948 1.12528 2.89948 1.55719V1.7527C2.89948 2.29259 3.33715 2.73026 3.87704 2.73026H4.46358Z" fill="#4B1FFC"/>
<path d="M2.89948 5.0764V6.24947C2.89948 6.68139 3.24962 7.03152 3.68153 7.03152C4.11344 7.03152 4.46357 6.68138 4.46357 6.24947V6.05396C4.46357 5.51407 4.02591 5.0764 3.48602 5.0764H2.89948Z" fill="#4B1FFC"/>
<path d="M3.68153 3.12129H6.02767C6.45958 3.12129 6.80971 3.47142 6.80971 3.90333C6.80971 4.33524 6.45958 4.68538 6.02767 4.68538H5.24562C4.3818 4.68538 3.68153 3.98511 3.68153 3.12129Z" fill="#4B1FFC"/>
<path d="M3.68153 4.68538H1.33539C0.903479 4.68538 0.553345 4.33525 0.553345 3.90333C0.553345 3.47142 0.903479 3.12129 1.33539 3.12129H2.11744C2.98126 3.12129 3.68153 3.82156 3.68153 4.68538Z" fill="#4B1FFC"/>
</svg>
