<svg width="140" height="22" viewBox="0 0 140 22" fill="none" xmlns="http://www.w3.org/2000/svg">
<path d="M26.3826 7.85195H28.0981V5.07111H30.3011V7.85195H32.0165V9.69381H30.3011V14.9313H32.0165V16.7731H29.8561C28.8855 16.7731 28.0987 15.9863 28.0987 15.0157L28.0981 9.69381H26.3826V7.85195Z" fill="#4B1FFC"/>
<path d="M37.2904 17.0064C36.412 17.0064 35.6299 16.8079 34.9441 16.4108C34.2702 16.0017 33.7408 15.4482 33.3558 14.7504C32.9707 14.0404 32.7782 13.2283 32.7782 12.3138C32.7782 11.3873 32.9647 10.5691 33.3377 9.85918C33.7107 9.14927 34.2341 8.59578 34.908 8.19871C35.5818 7.78961 36.3518 7.58506 37.2182 7.58506C38.1206 7.58506 38.8967 7.77757 39.5464 8.16261C40.1962 8.53562 40.6955 9.05902 41.0445 9.73284C41.4055 10.4067 41.5859 11.2128 41.5859 12.1514V12.8192L33.9333 12.8372L33.9694 11.4294H39.4021C39.4021 10.8158 39.2035 10.3224 38.8065 9.94942C38.4214 9.57642 37.898 9.38992 37.2362 9.38992C36.7188 9.38992 36.2796 9.49821 35.9187 9.71479C35.5697 9.93137 35.305 10.2562 35.1245 10.6894C34.9441 11.1226 34.8538 11.652 34.8538 12.2777C34.8538 13.2403 35.0584 13.9682 35.4675 14.4616C35.8886 14.9549 36.5083 15.2016 37.3265 15.2016C37.9281 15.2016 38.4214 15.0873 38.8065 14.8586C39.2035 14.63 39.4622 14.3052 39.5825 13.884H41.622C41.4295 14.8586 40.9482 15.6227 40.1782 16.1762C39.4201 16.7297 38.4575 17.0064 37.2904 17.0064Z" fill="#4B1FFC"/>
<path d="M45.5523 17.0064C44.6137 17.0064 43.8677 16.7537 43.3142 16.2484C42.7728 15.731 42.502 15.0572 42.502 14.2269C42.502 13.4087 42.7848 12.759 43.3503 12.2777C43.9279 11.7844 44.7461 11.4956 45.8049 11.4114L48.4761 11.1948V10.9962C48.4761 10.5871 48.3979 10.2623 48.2415 10.0216C48.0971 9.76894 47.8865 9.58845 47.6098 9.48016C47.3331 9.35983 47.0082 9.29967 46.6352 9.29967C45.9854 9.29967 45.4861 9.43203 45.1371 9.69674C44.7882 9.94942 44.6137 10.3104 44.6137 10.7797H42.7367C42.7367 10.1299 42.8991 9.5704 43.224 9.10114C43.5609 8.61984 44.0302 8.24684 44.6318 7.98212C45.2454 7.71741 45.9493 7.58506 46.7435 7.58506C47.5496 7.58506 48.2415 7.72944 48.8191 8.01822C49.3966 8.29497 49.8418 8.7161 50.1547 9.28162C50.4675 9.83511 50.6239 10.527 50.6239 11.3572V16.7718H48.6927L48.5303 15.4542C48.3378 15.9115 47.9648 16.2845 47.4113 16.5733C46.8698 16.862 46.2501 17.0064 45.5523 17.0064ZM46.2562 15.346C46.942 15.346 47.4835 15.1534 47.8805 14.7684C48.2896 14.3834 48.4942 13.8479 48.4942 13.1621V12.6928L46.6352 12.8372C45.9493 12.8974 45.462 13.0417 45.1732 13.2704C44.8845 13.4869 44.7401 13.7757 44.7401 14.1367C44.7401 14.5338 44.8724 14.8346 45.1371 15.0391C45.4019 15.2437 45.7749 15.346 46.2562 15.346Z" fill="#4B1FFC"/>
<path d="M54.628 16.7718H52.4261V7.85578H54.4475L54.7183 9.44406L54.4656 9.22748C54.6461 8.79431 54.977 8.41529 55.4583 8.09042C55.9396 7.75351 56.5412 7.58506 57.2631 7.58506C58.0452 7.58506 58.6829 7.78961 59.1763 8.19871C59.6816 8.60781 60.0306 9.14927 60.2231 9.82308H59.8621C59.9945 9.14927 60.3314 8.60781 60.8728 8.19871C61.4263 7.78961 62.0941 7.58506 62.8762 7.58506C63.9592 7.58506 64.7894 7.89188 65.367 8.50553C65.9445 9.10715 66.2333 9.91934 66.2333 10.9421V16.7718H64.0494V11.5197C64.0494 10.8819 63.887 10.4006 63.5621 10.0758C63.2492 9.73886 62.8281 9.5704 62.2987 9.5704C61.9618 9.5704 61.6489 9.64861 61.3602 9.80503C61.0834 9.96145 60.8608 10.1961 60.6924 10.5089C60.5239 10.8218 60.4397 11.2249 60.4397 11.7182V16.7718H58.2378V11.5016C58.2378 10.8759 58.0813 10.4006 57.7685 10.0758C57.4556 9.75089 57.0405 9.58845 56.5231 9.58845C56.1742 9.58845 55.8553 9.66666 55.5666 9.82308C55.2778 9.96747 55.0492 10.2021 54.8807 10.527C54.7123 10.8398 54.628 11.2369 54.628 11.7182V16.7718Z" fill="#4B1FFC"/>
<path d="M70.0734 16.7718H68.0339V3.34363H70.2358V9.15528C70.5246 8.64992 70.9457 8.26489 71.4992 8.00017C72.0527 7.72343 72.6724 7.58506 73.3582 7.58506C74.2125 7.58506 74.9405 7.78961 75.5421 8.19871C76.1558 8.59578 76.625 9.15528 76.9499 9.87723C77.2868 10.5992 77.4553 11.4354 77.4553 12.386C77.4553 13.2884 77.2808 14.0886 76.9319 14.7864C76.5829 15.4843 76.0896 16.0318 75.4519 16.4289C74.8142 16.8139 74.0682 17.0064 73.2139 17.0064C72.5521 17.0064 71.9505 16.862 71.409 16.5733C70.8796 16.2845 70.4825 15.8874 70.2178 15.3821L70.0734 16.7718ZM70.2539 12.2777C70.2539 12.8071 70.3562 13.2824 70.5607 13.7035C70.7653 14.1126 71.054 14.4315 71.427 14.6601C71.8121 14.8767 72.2573 14.985 72.7626 14.985C73.28 14.985 73.7252 14.8707 74.0982 14.6421C74.4712 14.4134 74.754 14.0946 74.9465 13.6855C75.139 13.2764 75.2353 12.8071 75.2353 12.2777C75.2353 11.7483 75.139 11.279 74.9465 10.8699C74.754 10.4608 74.4712 10.1419 74.0982 9.91333C73.7252 9.67268 73.28 9.55235 72.7626 9.55235C72.2573 9.55235 71.8121 9.67268 71.427 9.91333C71.054 10.1419 70.7653 10.4608 70.5607 10.8699C70.3562 11.267 70.2539 11.7362 70.2539 12.2777Z" fill="#1D1B1B"/>
<path d="M78.3242 12.2957C78.3242 11.3692 78.5287 10.5571 78.9378 9.85918C79.3469 9.14927 79.9124 8.59578 80.6344 8.19871C81.3563 7.80164 82.1745 7.6031 83.089 7.6031C84.0155 7.6031 84.8337 7.80164 85.5436 8.19871C86.2655 8.59578 86.8311 9.14927 87.2402 9.85918C87.6493 10.5571 87.8538 11.3692 87.8538 12.2957C87.8538 13.2222 87.6493 14.0404 87.2402 14.7504C86.8311 15.4482 86.2655 15.9957 85.5436 16.3928C84.8337 16.7898 84.0155 16.9884 83.089 16.9884C82.1745 16.9884 81.3563 16.7898 80.6344 16.3928C79.9124 15.9957 79.3469 15.4482 78.9378 14.7504C78.5287 14.0404 78.3242 13.2222 78.3242 12.2957ZM80.5261 12.2957C80.5261 12.8372 80.6344 13.3125 80.851 13.7216C81.0796 14.1307 81.3804 14.4495 81.7534 14.6782C82.1384 14.9068 82.5836 15.0211 83.089 15.0211C83.5943 15.0211 84.0395 14.9068 84.4246 14.6782C84.8096 14.4495 85.1104 14.1307 85.327 13.7216C85.5436 13.3125 85.6519 12.8372 85.6519 12.2957C85.6519 11.7423 85.5436 11.267 85.327 10.8699C85.1104 10.4608 84.8096 10.1419 84.4246 9.91333C84.0395 9.68471 83.5943 9.5704 83.089 9.5704C82.5836 9.5704 82.1384 9.68471 81.7534 9.91333C81.3804 10.1419 81.0796 10.4608 80.851 10.8699C80.6344 11.267 80.5261 11.7423 80.5261 12.2957Z" fill="#1D1B1B"/>
<path d="M91.8913 17.0064C90.9528 17.0064 90.2068 16.7537 89.6533 16.2484C89.1119 15.731 88.8411 15.0572 88.8411 14.2269C88.8411 13.4087 89.1239 12.759 89.6894 12.2777C90.267 11.7844 91.0852 11.4956 92.144 11.4114L94.8152 11.1948V10.9962C94.8152 10.5871 94.737 10.2623 94.5806 10.0216C94.4362 9.76894 94.2256 9.58845 93.9489 9.48016C93.6721 9.35983 93.3473 9.29967 92.9743 9.29967C92.3245 9.29967 91.8252 9.43203 91.4762 9.69674C91.1273 9.94942 90.9528 10.3104 90.9528 10.7797H89.0758C89.0758 10.1299 89.2382 9.5704 89.5631 9.10114C89.9 8.61984 90.3692 8.24684 90.9709 7.98212C91.5845 7.71741 92.2884 7.58506 93.0826 7.58506C93.8887 7.58506 94.5806 7.72944 95.1581 8.01822C95.7357 8.29497 96.1809 8.7161 96.4937 9.28162C96.8066 9.83511 96.963 10.527 96.963 11.3572V16.7718H95.0318L94.8694 15.4542C94.6768 15.9115 94.3038 16.2845 93.7503 16.5733C93.2089 16.862 92.5892 17.0064 91.8913 17.0064ZM92.5952 15.346C93.2811 15.346 93.8225 15.1534 94.2196 14.7684C94.6287 14.3834 94.8333 13.8479 94.8333 13.1621V12.6928L92.9743 12.8372C92.2884 12.8974 91.8011 13.0417 91.5123 13.2704C91.2235 13.4869 91.0792 13.7757 91.0792 14.1367C91.0792 14.5338 91.2115 14.8346 91.4762 15.0391C91.7409 15.2437 92.1139 15.346 92.5952 15.346Z" fill="#1D1B1B"/>
<path d="M104.36 7.81969V9.85918H103.548C102.742 9.85918 102.11 10.0758 101.653 10.5089C101.196 10.9301 100.967 11.5738 100.967 12.4401V16.7718H98.7652V7.87383H100.841L101.021 9.71479H100.805C100.925 9.1252 101.208 8.64391 101.653 8.2709C102.098 7.8979 102.676 7.7114 103.386 7.7114C103.542 7.7114 103.698 7.71741 103.855 7.72944C104.011 7.74148 104.18 7.77156 104.36 7.81969Z" fill="#1D1B1B"/>
<path d="M108.854 17.0064C107.988 17.0064 107.242 16.8139 106.616 16.4289C106.002 16.0318 105.521 15.4843 105.172 14.7864C104.835 14.0886 104.667 13.2764 104.667 12.3499C104.667 11.4234 104.835 10.6052 105.172 9.89528C105.521 9.17333 106.02 8.60781 106.67 8.19871C107.32 7.78961 108.09 7.58506 108.98 7.58506C109.606 7.58506 110.177 7.7114 110.695 7.96408C111.212 8.20472 111.609 8.54765 111.886 8.99285V3.34363H114.07V16.7718H112.049L111.904 15.3821C111.639 15.8874 111.23 16.2845 110.677 16.5733C110.135 16.862 109.528 17.0064 108.854 17.0064ZM109.341 14.985C109.859 14.985 110.304 14.8767 110.677 14.6601C111.05 14.4315 111.339 14.1126 111.543 13.7035C111.76 13.2824 111.868 12.8071 111.868 12.2777C111.868 11.7362 111.76 11.267 111.543 10.8699C111.339 10.4608 111.05 10.1419 110.677 9.91333C110.304 9.67268 109.859 9.55235 109.341 9.55235C108.836 9.55235 108.397 9.67268 108.024 9.91333C107.651 10.1419 107.362 10.4608 107.157 10.8699C106.965 11.279 106.869 11.7483 106.869 12.2777C106.869 12.8071 106.965 13.2764 107.157 13.6855C107.362 14.0946 107.651 14.4134 108.024 14.6421C108.397 14.8707 108.836 14.985 109.341 14.985Z" fill="#1D1B1B"/>
<path d="M116.004 16.7718V7.85578H118.206V16.7718H116.004ZM117.087 6.06897C116.714 6.06897 116.395 5.94263 116.13 5.68995C115.877 5.42524 115.751 5.10638 115.751 4.73338C115.751 4.36037 115.877 4.04753 116.13 3.79485C116.395 3.54217 116.714 3.41583 117.087 3.41583C117.46 3.41583 117.772 3.54217 118.025 3.79485C118.29 4.04753 118.422 4.36037 118.422 4.73338C118.422 5.10638 118.29 5.42524 118.025 5.68995C117.772 5.94263 117.46 6.06897 117.087 6.06897Z" fill="#1D1B1B"/>
<path d="M122.322 16.7718H120.12V7.85578H122.159L122.34 9.01089C122.616 8.5657 123.007 8.21676 123.513 7.96408C124.03 7.7114 124.59 7.58506 125.191 7.58506C126.31 7.58506 127.153 7.91595 127.718 8.57773C128.296 9.23951 128.584 10.1419 128.584 11.285V16.7718H126.382V11.8084C126.382 11.0624 126.214 10.5089 125.877 10.148C125.54 9.77495 125.083 9.58845 124.505 9.58845C123.82 9.58845 123.284 9.80503 122.899 10.2382C122.514 10.6714 122.322 11.2489 122.322 11.9709V16.7718Z" fill="#1D1B1B"/>
<path d="M129.882 12.1153C129.882 11.2489 130.056 10.4788 130.405 9.80503C130.766 9.11919 131.265 8.57773 131.903 8.18066C132.541 7.78359 133.281 7.58506 134.123 7.58506C134.881 7.58506 135.531 7.75351 136.072 8.09042C136.614 8.41529 136.993 8.87252 137.209 9.46211L136.975 9.66064L137.155 7.85578H139.195V16.3206C139.195 17.3072 139.002 18.1615 138.617 18.8835C138.244 19.6175 137.709 20.177 137.011 20.562C136.325 20.9591 135.495 21.1576 134.52 21.1576C133.245 21.1576 132.198 20.8147 131.38 20.1288C130.561 19.443 130.08 18.5045 129.936 17.3133H132.138C132.21 17.8908 132.45 18.342 132.86 18.6669C133.281 18.9918 133.834 19.1542 134.52 19.1542C135.278 19.1542 135.88 18.9316 136.325 18.4864C136.782 18.0532 137.011 17.4637 137.011 16.7176V14.4977L137.263 14.7323C137.047 15.2978 136.65 15.749 136.072 16.0859C135.495 16.4229 134.827 16.5913 134.069 16.5913C133.227 16.5913 132.493 16.3988 131.867 16.0138C131.241 15.6287 130.754 15.0993 130.405 14.4255C130.056 13.7517 129.882 12.9816 129.882 12.1153ZM132.102 12.0611C132.102 12.5665 132.198 13.0177 132.39 13.4148C132.595 13.7998 132.878 14.1066 133.239 14.3352C133.6 14.5638 134.021 14.6782 134.502 14.6782C135.007 14.6782 135.441 14.5699 135.801 14.3533C136.174 14.1247 136.457 13.8178 136.65 13.4328C136.854 13.0357 136.957 12.5785 136.957 12.0611C136.957 11.5437 136.86 11.0985 136.668 10.7255C136.475 10.3405 136.193 10.0397 135.82 9.82308C135.459 9.6065 135.019 9.49821 134.502 9.49821C134.009 9.49821 133.582 9.61252 133.221 9.84113C132.86 10.0577 132.583 10.3585 132.39 10.7436C132.198 11.1286 132.102 11.5678 132.102 12.0611Z" fill="#1D1B1B"/>
<path d="M13.202 7.05695V3.10279C13.202 1.6469 12.0218 0.466675 10.5659 0.466675C9.11005 0.466675 7.92982 1.6469 7.92982 3.10279V3.76181C7.92982 5.58167 9.40511 7.05695 11.225 7.05695H13.202Z" fill="#4B1FFC"/>
<path d="M7.92982 14.9653V18.9195C7.92982 20.3754 9.11004 21.5556 10.5659 21.5556C12.0218 21.5556 13.202 20.3754 13.202 18.9195V18.2604C13.202 16.4406 11.7268 14.9653 9.9069 14.9653H7.92982Z" fill="#4B1FFC"/>
<path d="M10.5659 8.37501H18.4743C19.9301 8.37501 21.1104 9.55524 21.1104 11.0111C21.1104 12.467 19.9301 13.6472 18.4743 13.6472H15.8382C12.9264 13.6472 10.5659 11.2868 10.5659 8.37501Z" fill="#4B1FFC"/>
<path d="M10.5659 13.6472H2.6576C1.20171 13.6472 0.0214844 12.467 0.0214844 11.0111C0.0214844 9.55525 1.20171 8.37502 2.6576 8.37502H5.29371C8.20547 8.37502 10.5659 10.7355 10.5659 13.6472Z" fill="#4B1FFC"/>
</svg>
