<svg width="30" height="30" viewBox="0 0 30 30" fill="none" xmlns="http://www.w3.org/2000/svg">
<path d="M18.75 9.37499V3.75C18.75 1.67893 17.0711 9.05292e-08 15 0C12.9289 -9.05292e-08 11.25 1.67893 11.25 3.75V4.6875C11.25 7.27633 13.3487 9.37499 15.9375 9.37499H18.75Z" fill="#4B1FFC"/>
<path d="M11.25 20.625V26.25C11.25 28.3211 12.9289 30 15 30C17.0711 30 18.75 28.3211 18.75 26.25V25.3125C18.75 22.7237 16.6513 20.625 14.0625 20.625H11.25Z" fill="#4B1FFC"/>
<path d="M15 11.25H26.25C28.3211 11.25 30 12.9289 30 15C30 17.0711 28.3211 18.75 26.25 18.75H22.5C18.3579 18.75 15 15.3921 15 11.25Z" fill="#4B1FFC"/>
<path d="M15 18.75H3.75C1.67893 18.75 0 17.0711 0 15C0 12.9289 1.67893 11.25 3.75 11.25H7.49999C11.6421 11.25 15 14.6079 15 18.75Z" fill="#4B1FFC"/>
</svg>
