<svg width="140" height="22" viewBox="0 0 140 22" fill="none" xmlns="http://www.w3.org/2000/svg">
<path d="M26.3829 7.85195H28.0983V5.07111H30.3013V7.85195H32.0168V9.69381H30.3013V14.9313H32.0168V16.7731H29.8563C28.8857 16.7731 28.0989 15.9863 28.0989 15.0157L28.0983 9.69381H26.3829V7.85195Z" fill="#4B1FFC"/>
<path d="M37.2906 17.0064C36.4123 17.0064 35.6301 16.8079 34.9443 16.4108C34.2705 16.0017 33.7411 15.4482 33.356 14.7504C32.971 14.0404 32.7785 13.2283 32.7785 12.3138C32.7785 11.3873 32.965 10.5691 33.338 9.85918C33.711 9.14927 34.2344 8.59578 34.9082 8.19871C35.582 7.78961 36.3521 7.58506 37.2184 7.58506C38.1209 7.58506 38.8969 7.77757 39.5467 8.16261C40.1964 8.53562 40.6958 9.05902 41.0447 9.73284C41.4057 10.4067 41.5862 11.2128 41.5862 12.1514V12.8192L33.9336 12.8372L33.9697 11.4294H39.4023C39.4023 10.8158 39.2038 10.3224 38.8067 9.94942C38.4217 9.57642 37.8983 9.38992 37.2365 9.38992C36.7191 9.38992 36.2799 9.49821 35.9189 9.71479C35.57 9.93137 35.3053 10.2562 35.1248 10.6894C34.9443 11.1226 34.8541 11.652 34.8541 12.2777C34.8541 13.2403 35.0586 13.9682 35.4677 14.4616C35.8888 14.9549 36.5085 15.2016 37.3267 15.2016C37.9283 15.2016 38.4217 15.0873 38.8067 14.8586C39.2038 14.63 39.4625 14.3052 39.5828 13.884H41.6223C41.4298 14.8586 40.9485 15.6227 40.1784 16.1762C39.4204 16.7297 38.4578 17.0064 37.2906 17.0064Z" fill="#4B1FFC"/>
<path d="M45.5525 17.0064C44.614 17.0064 43.868 16.7537 43.3145 16.2484C42.773 15.731 42.5023 15.0572 42.5023 14.2269C42.5023 13.4087 42.7851 12.759 43.3506 12.2777C43.9281 11.7844 44.7463 11.4956 45.8052 11.4114L48.4764 11.1948V10.9962C48.4764 10.5871 48.3982 10.2623 48.2417 10.0216C48.0974 9.76894 47.8868 9.58845 47.61 9.48016C47.3333 9.35983 47.0084 9.29967 46.6354 9.29967C45.9857 9.29967 45.4863 9.43203 45.1374 9.69674C44.7884 9.94942 44.614 10.3104 44.614 10.7797H42.7369C42.7369 10.1299 42.8994 9.5704 43.2242 9.10114C43.5611 8.61984 44.0304 8.24684 44.632 7.98212C45.2457 7.71741 45.9496 7.58506 46.7437 7.58506C47.5499 7.58506 48.2417 7.72944 48.8193 8.01822C49.3969 8.29497 49.8421 8.7161 50.1549 9.28162C50.4677 9.83511 50.6242 10.527 50.6242 11.3572V16.7718H48.693L48.5305 15.4542C48.338 15.9115 47.965 16.2845 47.4115 16.5733C46.8701 16.862 46.2504 17.0064 45.5525 17.0064ZM46.2564 15.346C46.9422 15.346 47.4837 15.1534 47.8808 14.7684C48.2899 14.3834 48.4944 13.8479 48.4944 13.1621V12.6928L46.6354 12.8372C45.9496 12.8974 45.4623 13.0417 45.1735 13.2704C44.8847 13.4869 44.7403 13.7757 44.7403 14.1367C44.7403 14.5338 44.8727 14.8346 45.1374 15.0391C45.4021 15.2437 45.7751 15.346 46.2564 15.346Z" fill="#4B1FFC"/>
<path d="M54.6283 16.7718H52.4263V7.85578H54.4478L54.7185 9.44406L54.4658 9.22748C54.6463 8.79431 54.9772 8.41529 55.4585 8.09042C55.9398 7.75351 56.5414 7.58506 57.2634 7.58506C58.0455 7.58506 58.6832 7.78961 59.1765 8.19871C59.6819 8.60781 60.0308 9.14927 60.2233 9.82308H59.8624C59.9947 9.14927 60.3316 8.60781 60.8731 8.19871C61.4266 7.78961 62.0944 7.58506 62.8765 7.58506C63.9594 7.58506 64.7896 7.89188 65.3672 8.50553C65.9447 9.10715 66.2335 9.91934 66.2335 10.9421V16.7718H64.0496V11.5197C64.0496 10.8819 63.8872 10.4006 63.5623 10.0758C63.2495 9.73886 62.8284 9.5704 62.2989 9.5704C61.962 9.5704 61.6492 9.64861 61.3604 9.80503C61.0837 9.96145 60.8611 10.1961 60.6926 10.5089C60.5242 10.8218 60.4399 11.2249 60.4399 11.7182V16.7718H58.238V11.5016C58.238 10.8759 58.0816 10.4006 57.7687 10.0758C57.4559 9.75089 57.0408 9.58845 56.5234 9.58845C56.1744 9.58845 55.8556 9.66666 55.5668 9.82308C55.278 9.96747 55.0494 10.2021 54.881 10.527C54.7125 10.8398 54.6283 11.2369 54.6283 11.7182V16.7718Z" fill="#4B1FFC"/>
<path d="M70.0736 16.7718H68.0341V3.34363H70.2361V9.15528C70.5249 8.64992 70.946 8.26489 71.4995 8.00017C72.053 7.72343 72.6726 7.58506 73.3585 7.58506C74.2128 7.58506 74.9408 7.78961 75.5424 8.19871C76.156 8.59578 76.6253 9.15528 76.9502 9.87723C77.2871 10.5992 77.4555 11.4354 77.4555 12.386C77.4555 13.2884 77.2811 14.0886 76.9321 14.7864C76.5832 15.4843 76.0898 16.0318 75.4521 16.4289C74.8144 16.8139 74.0684 17.0064 73.2141 17.0064C72.5523 17.0064 71.9507 16.862 71.4092 16.5733C70.8798 16.2845 70.4827 15.8874 70.218 15.3821L70.0736 16.7718ZM70.2541 12.2777C70.2541 12.8071 70.3564 13.2824 70.561 13.7035C70.7655 14.1126 71.0543 14.4315 71.4273 14.6601C71.8123 14.8767 72.2575 14.985 72.7629 14.985C73.2803 14.985 73.7255 14.8707 74.0985 14.6421C74.4715 14.4134 74.7542 14.0946 74.9468 13.6855C75.1393 13.2764 75.2355 12.8071 75.2355 12.2777C75.2355 11.7483 75.1393 11.279 74.9468 10.8699C74.7542 10.4608 74.4715 10.1419 74.0985 9.91333C73.7255 9.67268 73.2803 9.55235 72.7629 9.55235C72.2575 9.55235 71.8123 9.67268 71.4273 9.91333C71.0543 10.1419 70.7655 10.4608 70.561 10.8699C70.3564 11.267 70.2541 11.7362 70.2541 12.2777Z" fill="#1D1B1B"/>
<path d="M78.3244 12.2957C78.3244 11.3692 78.5289 10.5571 78.938 9.85918C79.3471 9.14927 79.9127 8.59578 80.6346 8.19871C81.3566 7.80164 82.1748 7.6031 83.0892 7.6031C84.0157 7.6031 84.8339 7.80164 85.5438 8.19871C86.2658 8.59578 86.8313 9.14927 87.2404 9.85918C87.6495 10.5571 87.8541 11.3692 87.8541 12.2957C87.8541 13.2222 87.6495 14.0404 87.2404 14.7504C86.8313 15.4482 86.2658 15.9957 85.5438 16.3928C84.8339 16.7898 84.0157 16.9884 83.0892 16.9884C82.1748 16.9884 81.3566 16.7898 80.6346 16.3928C79.9127 15.9957 79.3471 15.4482 78.938 14.7504C78.5289 14.0404 78.3244 13.2222 78.3244 12.2957ZM80.5263 12.2957C80.5263 12.8372 80.6346 13.3125 80.8512 13.7216C81.0798 14.1307 81.3806 14.4495 81.7536 14.6782C82.1387 14.9068 82.5839 15.0211 83.0892 15.0211C83.5946 15.0211 84.0398 14.9068 84.4248 14.6782C84.8099 14.4495 85.1107 14.1307 85.3273 13.7216C85.5438 13.3125 85.6521 12.8372 85.6521 12.2957C85.6521 11.7423 85.5438 11.267 85.3273 10.8699C85.1107 10.4608 84.8099 10.1419 84.4248 9.91333C84.0398 9.68471 83.5946 9.5704 83.0892 9.5704C82.5839 9.5704 82.1387 9.68471 81.7536 9.91333C81.3806 10.1419 81.0798 10.4608 80.8512 10.8699C80.6346 11.267 80.5263 11.7423 80.5263 12.2957Z" fill="#1D1B1B"/>
<path d="M91.8916 17.0064C90.9531 17.0064 90.2071 16.7537 89.6536 16.2484C89.1121 15.731 88.8414 15.0572 88.8414 14.2269C88.8414 13.4087 89.1241 12.759 89.6897 12.2777C90.2672 11.7844 91.0854 11.4956 92.1443 11.4114L94.8155 11.1948V10.9962C94.8155 10.5871 94.7373 10.2623 94.5808 10.0216C94.4364 9.76894 94.2259 9.58845 93.9491 9.48016C93.6724 9.35983 93.3475 9.29967 92.9745 9.29967C92.3248 9.29967 91.8254 9.43203 91.4765 9.69674C91.1275 9.94942 90.9531 10.3104 90.9531 10.7797H89.076C89.076 10.1299 89.2384 9.5704 89.5633 9.10114C89.9002 8.61984 90.3695 8.24684 90.9711 7.98212C91.5848 7.71741 92.2887 7.58506 93.0828 7.58506C93.889 7.58506 94.5808 7.72944 95.1584 8.01822C95.7359 8.29497 96.1811 8.7161 96.494 9.28162C96.8068 9.83511 96.9632 10.527 96.9632 11.3572V16.7718H95.0321L94.8696 15.4542C94.6771 15.9115 94.3041 16.2845 93.7506 16.5733C93.2091 16.862 92.5895 17.0064 91.8916 17.0064ZM92.5955 15.346C93.2813 15.346 93.8228 15.1534 94.2199 14.7684C94.629 14.3834 94.8335 13.8479 94.8335 13.1621V12.6928L92.9745 12.8372C92.2887 12.8974 91.8013 13.0417 91.5126 13.2704C91.2238 13.4869 91.0794 13.7757 91.0794 14.1367C91.0794 14.5338 91.2118 14.8346 91.4765 15.0391C91.7412 15.2437 92.1142 15.346 92.5955 15.346Z" fill="#1D1B1B"/>
<path d="M104.36 7.81969V9.85918H103.548C102.742 9.85918 102.11 10.0758 101.653 10.5089C101.196 10.9301 100.967 11.5738 100.967 12.4401V16.7718H98.7654V7.87383H100.841L101.021 9.71479H100.805C100.925 9.1252 101.208 8.64391 101.653 8.2709C102.098 7.8979 102.676 7.7114 103.386 7.7114C103.542 7.7114 103.699 7.71741 103.855 7.72944C104.012 7.74148 104.18 7.77156 104.36 7.81969Z" fill="#1D1B1B"/>
<path d="M108.854 17.0064C107.988 17.0064 107.242 16.8139 106.616 16.4289C106.002 16.0318 105.521 15.4843 105.172 14.7864C104.835 14.0886 104.667 13.2764 104.667 12.3499C104.667 11.4234 104.835 10.6052 105.172 9.89528C105.521 9.17333 106.021 8.60781 106.67 8.19871C107.32 7.78961 108.09 7.58506 108.981 7.58506C109.606 7.58506 110.178 7.7114 110.695 7.96408C111.213 8.20472 111.61 8.54765 111.886 8.99285V3.34363H114.07V16.7718H112.049L111.904 15.3821C111.64 15.8874 111.231 16.2845 110.677 16.5733C110.136 16.862 109.528 17.0064 108.854 17.0064ZM109.341 14.985C109.859 14.985 110.304 14.8767 110.677 14.6601C111.05 14.4315 111.339 14.1126 111.543 13.7035C111.76 13.2824 111.868 12.8071 111.868 12.2777C111.868 11.7362 111.76 11.267 111.543 10.8699C111.339 10.4608 111.05 10.1419 110.677 9.91333C110.304 9.67268 109.859 9.55235 109.341 9.55235C108.836 9.55235 108.397 9.67268 108.024 9.91333C107.651 10.1419 107.362 10.4608 107.158 10.8699C106.965 11.279 106.869 11.7483 106.869 12.2777C106.869 12.8071 106.965 13.2764 107.158 13.6855C107.362 14.0946 107.651 14.4134 108.024 14.6421C108.397 14.8707 108.836 14.985 109.341 14.985Z" fill="#1D1B1B"/>
<path d="M116.004 16.7718V7.85578H118.206V16.7718H116.004ZM117.087 6.06897C116.714 6.06897 116.395 5.94263 116.13 5.68995C115.878 5.42524 115.751 5.10638 115.751 4.73338C115.751 4.36037 115.878 4.04753 116.13 3.79485C116.395 3.54217 116.714 3.41583 117.087 3.41583C117.46 3.41583 117.773 3.54217 118.025 3.79485C118.29 4.04753 118.422 4.36037 118.422 4.73338C118.422 5.10638 118.29 5.42524 118.025 5.68995C117.773 5.94263 117.46 6.06897 117.087 6.06897Z" fill="#1D1B1B"/>
<path d="M122.322 16.7718H120.12V7.85578H122.159L122.34 9.01089C122.617 8.5657 123.008 8.21676 123.513 7.96408C124.03 7.7114 124.59 7.58506 125.192 7.58506C126.311 7.58506 127.153 7.91595 127.718 8.57773C128.296 9.23951 128.585 10.1419 128.585 11.285V16.7718H126.383V11.8084C126.383 11.0624 126.214 10.5089 125.877 10.148C125.54 9.77495 125.083 9.58845 124.506 9.58845C123.82 9.58845 123.284 9.80503 122.899 10.2382C122.514 10.6714 122.322 11.2489 122.322 11.9709V16.7718Z" fill="#1D1B1B"/>
<path d="M129.882 12.1153C129.882 11.2489 130.056 10.4788 130.405 9.80503C130.766 9.11919 131.266 8.57773 131.903 8.18066C132.541 7.78359 133.281 7.58506 134.123 7.58506C134.881 7.58506 135.531 7.75351 136.072 8.09042C136.614 8.41529 136.993 8.87252 137.21 9.46211L136.975 9.66064L137.155 7.85578H139.195V16.3206C139.195 17.3072 139.002 18.1615 138.617 18.8835C138.244 19.6175 137.709 20.177 137.011 20.562C136.325 20.9591 135.495 21.1576 134.52 21.1576C133.245 21.1576 132.198 20.8147 131.38 20.1288C130.562 19.443 130.08 18.5045 129.936 17.3133H132.138C132.21 17.8908 132.451 18.342 132.86 18.6669C133.281 18.9918 133.834 19.1542 134.52 19.1542C135.278 19.1542 135.88 18.9316 136.325 18.4864C136.782 18.0532 137.011 17.4637 137.011 16.7176V14.4977L137.264 14.7323C137.047 15.2978 136.65 15.749 136.072 16.0859C135.495 16.4229 134.827 16.5913 134.069 16.5913C133.227 16.5913 132.493 16.3988 131.867 16.0138C131.241 15.6287 130.754 15.0993 130.405 14.4255C130.056 13.7517 129.882 12.9816 129.882 12.1153ZM132.102 12.0611C132.102 12.5665 132.198 13.0177 132.391 13.4148C132.595 13.7998 132.878 14.1066 133.239 14.3352C133.6 14.5638 134.021 14.6782 134.502 14.6782C135.008 14.6782 135.441 14.5699 135.802 14.3533C136.175 14.1247 136.457 13.8178 136.65 13.4328C136.855 13.0357 136.957 12.5785 136.957 12.0611C136.957 11.5437 136.861 11.0985 136.668 10.7255C136.476 10.3405 136.193 10.0397 135.82 9.82308C135.459 9.6065 135.02 9.49821 134.502 9.49821C134.009 9.49821 133.582 9.61252 133.221 9.84113C132.86 10.0577 132.583 10.3585 132.391 10.7436C132.198 11.1286 132.102 11.5678 132.102 12.0611Z" fill="#1D1B1B"/>
<path d="M13.2023 7.05695V3.10279C13.2023 1.6469 12.0221 0.466675 10.5662 0.466675C9.1103 0.466675 7.93007 1.6469 7.93007 3.10279V3.76181C7.93007 5.58167 9.40535 7.05695 11.2252 7.05695H13.2023Z" fill="#4B1FFC"/>
<path d="M7.93006 14.9653V18.9195C7.93006 20.3754 9.11029 21.5556 10.5662 21.5556C12.0221 21.5556 13.2023 20.3754 13.2023 18.9195V18.2604C13.2023 16.4406 11.727 14.9653 9.90714 14.9653H7.93006Z" fill="#4B1FFC"/>
<path d="M10.5662 8.37501H18.4745C19.9304 8.37501 21.1106 9.55524 21.1106 11.0111C21.1106 12.467 19.9304 13.6472 18.4745 13.6472H15.8384C12.9266 13.6472 10.5662 11.2868 10.5662 8.37501Z" fill="#4B1FFC"/>
<path d="M10.5662 13.6472H2.65784C1.20196 13.6472 0.0217285 12.467 0.0217285 11.0111C0.0217285 9.55525 1.20196 8.37502 2.65784 8.37502H5.29395C8.20572 8.37502 10.5662 10.7355 10.5662 13.6472Z" fill="#4B1FFC"/>
</svg>
