<svg width="746" height="27" viewBox="0 0 746 27" fill="none" xmlns="http://www.w3.org/2000/svg">
<path d="M319.709 9.70767H321.823V6.27924H324.539V9.70767H326.654V11.9784H324.539V18.4356H326.654V20.7063H323.991C322.794 20.7063 321.824 19.7363 321.824 18.5396L321.823 11.9784H319.709V9.70767Z" fill="#4B1FFC"/>
<path d="M333.156 20.994C332.073 20.994 331.109 20.7492 330.264 20.2597C329.433 19.7553 328.78 19.0729 328.306 18.2125C327.831 17.3373 327.593 16.336 327.593 15.2086C327.593 14.0663 327.823 13.0576 328.283 12.1823C328.743 11.3071 329.388 10.6247 330.219 10.1352C331.05 9.6308 331.999 9.37862 333.067 9.37862C334.18 9.37862 335.137 9.61597 335.938 10.0907C336.739 10.5505 337.355 11.1958 337.785 12.0266C338.23 12.8573 338.452 13.8512 338.452 15.0083V15.8316L329.018 15.8539L329.062 14.1182H335.76C335.76 13.3617 335.515 12.7535 335.026 12.2936C334.551 11.8337 333.906 11.6038 333.09 11.6038C332.452 11.6038 331.91 11.7373 331.465 12.0043C331.035 12.2713 330.709 12.6719 330.486 13.2059C330.264 13.7399 330.152 14.3927 330.152 15.1641C330.152 16.3508 330.405 17.2483 330.909 17.8565C331.428 18.4647 332.192 18.7688 333.201 18.7688C333.943 18.7688 334.551 18.6279 335.026 18.346C335.515 18.0642 335.834 17.6637 335.982 17.1445H338.497C338.259 18.346 337.666 19.288 336.717 19.9704C335.782 20.6528 334.595 20.994 333.156 20.994Z" fill="#4B1FFC"/>
<path d="M343.342 20.994C342.185 20.994 341.265 20.6825 340.583 20.0594C339.916 19.4215 339.582 18.5908 339.582 17.5672C339.582 16.5585 339.93 15.7574 340.628 15.1641C341.34 14.5558 342.348 14.1998 343.654 14.096L346.947 13.829V13.5842C346.947 13.0798 346.851 12.6793 346.658 12.3826C346.48 12.0711 346.22 11.8486 345.879 11.715C345.538 11.5667 345.137 11.4925 344.677 11.4925C343.876 11.4925 343.261 11.6557 342.831 11.9821C342.4 12.2936 342.185 12.7386 342.185 13.3172H339.871C339.871 12.5161 340.071 11.8263 340.472 11.2478C340.887 10.6544 341.466 10.1945 342.207 9.86816C342.964 9.5418 343.832 9.37862 344.811 9.37862C345.805 9.37862 346.658 9.55663 347.37 9.91266C348.082 10.2539 348.631 10.7731 349.016 11.4703C349.402 12.1527 349.595 13.0056 349.595 14.0292V20.7047H347.214L347.014 19.0804C346.776 19.6441 346.317 20.1039 345.634 20.46C344.967 20.816 344.203 20.994 343.342 20.994ZM344.21 18.9468C345.056 18.9468 345.723 18.7095 346.213 18.2348C346.717 17.7601 346.969 17.1 346.969 16.2544V15.6758L344.677 15.8539C343.832 15.928 343.231 16.106 342.875 16.3879C342.519 16.6549 342.341 17.0109 342.341 17.456C342.341 17.9455 342.504 18.3164 342.831 18.5686C343.157 18.8208 343.617 18.9468 344.21 18.9468Z" fill="#4B1FFC"/>
<path d="M354.532 20.7047H351.817V9.71239H354.309L354.643 11.6705L354.331 11.4035C354.554 10.8695 354.962 10.4022 355.555 10.0017C356.149 9.5863 356.89 9.37862 357.78 9.37862C358.745 9.37862 359.531 9.6308 360.139 10.1352C360.762 10.6395 361.192 11.3071 361.43 12.1378H360.985C361.148 11.3071 361.563 10.6395 362.231 10.1352C362.913 9.6308 363.736 9.37862 364.701 9.37862C366.036 9.37862 367.059 9.7569 367.771 10.5135C368.483 11.2552 368.839 12.2565 368.839 13.5174V20.7047H366.147V14.2295C366.147 13.4433 365.947 12.8499 365.546 12.4494C365.16 12.034 364.641 11.8263 363.989 11.8263C363.573 11.8263 363.187 11.9227 362.831 12.1156C362.49 12.3084 362.216 12.5977 362.008 12.9834C361.8 13.3691 361.697 13.866 361.697 14.4743V20.7047H358.982V14.2072C358.982 13.4358 358.789 12.8499 358.403 12.4494C358.018 12.0488 357.506 11.8486 356.868 11.8486C356.438 11.8486 356.045 11.945 355.689 12.1378C355.333 12.3158 355.051 12.6051 354.843 13.0056C354.635 13.3913 354.532 13.8809 354.532 14.4743V20.7047Z" fill="#4B1FFC"/>
<path d="M373.574 20.7047H371.059V4.14947H373.774V11.3145C374.13 10.6915 374.649 10.2168 375.332 9.89041C376.014 9.54921 376.778 9.37862 377.624 9.37862C378.677 9.37862 379.574 9.6308 380.316 10.1352C381.073 10.6247 381.651 11.3145 382.052 12.2046C382.467 13.0947 382.675 14.1256 382.675 15.2976C382.675 16.4102 382.46 17.3966 382.029 18.257C381.599 19.1174 380.991 19.7924 380.205 20.2819C379.419 20.7566 378.499 20.994 377.446 20.994C376.63 20.994 375.888 20.816 375.22 20.46C374.568 20.1039 374.078 19.6144 373.752 18.9913L373.574 20.7047ZM373.796 15.1641C373.796 15.8168 373.922 16.4027 374.175 16.9219C374.427 17.4263 374.783 17.8194 375.243 18.1013C375.717 18.3683 376.266 18.5018 376.889 18.5018C377.527 18.5018 378.076 18.3609 378.536 18.079C378.996 17.7972 379.344 17.4041 379.582 16.8997C379.819 16.3953 379.938 15.8168 379.938 15.1641C379.938 14.5113 379.819 13.9328 379.582 13.4284C379.344 12.9241 378.996 12.5309 378.536 12.2491C378.076 11.9524 377.527 11.8041 376.889 11.8041C376.266 11.8041 375.717 11.9524 375.243 12.2491C374.783 12.5309 374.427 12.9241 374.175 13.4284C373.922 13.918 373.796 14.4965 373.796 15.1641Z" fill="#1D1B1B"/>
<path d="M383.746 15.1863C383.746 14.0441 383.998 13.0427 384.503 12.1823C385.007 11.3071 385.704 10.6247 386.594 10.1352C387.484 9.64564 388.493 9.40087 389.62 9.40087C390.763 9.40087 391.771 9.64564 392.647 10.1352C393.537 10.6247 394.234 11.3071 394.738 12.1823C395.243 13.0427 395.495 14.0441 395.495 15.1863C395.495 16.3286 395.243 17.3373 394.738 18.2125C394.234 19.0729 393.537 19.7479 392.647 20.2374C391.771 20.727 390.763 20.9717 389.62 20.9717C388.493 20.9717 387.484 20.727 386.594 20.2374C385.704 19.7479 385.007 19.0729 384.503 18.2125C383.998 17.3373 383.746 16.3286 383.746 15.1863ZM386.461 15.1863C386.461 15.8539 386.594 16.4398 386.861 16.9442C387.143 17.4486 387.514 17.8417 387.974 18.1235C388.448 18.4054 388.997 18.5463 389.62 18.5463C390.243 18.5463 390.792 18.4054 391.267 18.1235C391.742 17.8417 392.113 17.4486 392.38 16.9442C392.647 16.4398 392.78 15.8539 392.78 15.1863C392.78 14.5039 392.647 13.918 392.38 13.4284C392.113 12.9241 391.742 12.5309 391.267 12.2491C390.792 11.9672 390.243 11.8263 389.62 11.8263C388.997 11.8263 388.448 11.9672 387.974 12.2491C387.514 12.5309 387.143 12.9241 386.861 13.4284C386.594 13.918 386.461 14.5039 386.461 15.1863Z" fill="#1D1B1B"/>
<path d="M400.473 20.994C399.316 20.994 398.396 20.6825 397.713 20.0594C397.046 19.4215 396.712 18.5908 396.712 17.5672C396.712 16.5585 397.061 15.7574 397.758 15.1641C398.47 14.5558 399.479 14.1998 400.784 14.096L404.077 13.829V13.5842C404.077 13.0798 403.981 12.6793 403.788 12.3826C403.61 12.0711 403.351 11.8486 403.009 11.715C402.668 11.5667 402.268 11.4925 401.808 11.4925C401.007 11.4925 400.391 11.6557 399.961 11.9821C399.531 12.2936 399.316 12.7386 399.316 13.3172H397.001C397.001 12.5161 397.202 11.8263 397.602 11.2478C398.018 10.6544 398.596 10.1945 399.338 9.86816C400.094 9.5418 400.962 9.37862 401.941 9.37862C402.935 9.37862 403.788 9.55663 404.5 9.91266C405.212 10.2539 405.761 10.7731 406.147 11.4703C406.533 12.1527 406.725 13.0056 406.725 14.0292V20.7047H404.344L404.144 19.0804C403.907 19.6441 403.447 20.1039 402.765 20.46C402.097 20.816 401.333 20.994 400.473 20.994ZM401.34 18.9468C402.186 18.9468 402.854 18.7095 403.343 18.2348C403.847 17.7601 404.1 17.1 404.1 16.2544V15.6758L401.808 15.8539C400.962 15.928 400.361 16.106 400.005 16.3879C399.649 16.6549 399.471 17.0109 399.471 17.456C399.471 17.9455 399.634 18.3164 399.961 18.5686C400.287 18.8208 400.747 18.9468 401.34 18.9468Z" fill="#1D1B1B"/>
<path d="M415.845 9.66789V12.1823H414.844C413.85 12.1823 413.071 12.4494 412.507 12.9834C411.944 13.5026 411.662 14.2962 411.662 15.3643V20.7047H408.947V9.73464H411.506L411.729 12.0043H411.462C411.61 11.2774 411.959 10.684 412.507 10.2242C413.056 9.76431 413.768 9.53438 414.644 9.53438C414.836 9.53438 415.029 9.5418 415.222 9.55663C415.415 9.57147 415.623 9.60855 415.845 9.66789Z" fill="#1D1B1B"/>
<path d="M421.385 20.994C420.317 20.994 419.398 20.7566 418.626 20.2819C417.87 19.7924 417.276 19.1174 416.846 18.257C416.431 17.3966 416.223 16.3953 416.223 15.2531C416.223 14.1108 416.431 13.1021 416.846 12.2268C417.276 11.3368 417.892 10.6395 418.693 10.1352C419.494 9.6308 420.443 9.37862 421.541 9.37862C422.313 9.37862 423.017 9.53438 423.655 9.8459C424.293 10.1426 424.782 10.5654 425.124 11.1142V4.14947H427.816V20.7047H425.324L425.146 18.9913C424.82 19.6144 424.315 20.1039 423.633 20.46C422.965 20.816 422.216 20.994 421.385 20.994ZM421.986 18.5018C422.624 18.5018 423.173 18.3683 423.633 18.1013C424.093 17.8194 424.449 17.4263 424.701 16.9219C424.968 16.4027 425.101 15.8168 425.101 15.1641C425.101 14.4965 424.968 13.918 424.701 13.4284C424.449 12.9241 424.093 12.5309 423.633 12.2491C423.173 11.9524 422.624 11.8041 421.986 11.8041C421.363 11.8041 420.822 11.9524 420.362 12.2491C419.902 12.5309 419.546 12.9241 419.294 13.4284C419.056 13.9328 418.938 14.5113 418.938 15.1641C418.938 15.8168 419.056 16.3953 419.294 16.8997C419.546 17.4041 419.902 17.7972 420.362 18.079C420.822 18.3609 421.363 18.5018 421.986 18.5018Z" fill="#1D1B1B"/>
<path d="M430.2 20.7047V9.71239H432.915V20.7047H430.2ZM431.535 7.50948C431.075 7.50948 430.682 7.35371 430.356 7.04219C430.044 6.71583 429.889 6.32272 429.889 5.86285C429.889 5.40298 430.044 5.01729 430.356 4.70576C430.682 4.39424 431.075 4.23848 431.535 4.23848C431.995 4.23848 432.381 4.39424 432.692 4.70576C433.019 5.01729 433.182 5.40298 433.182 5.86285C433.182 6.32272 433.019 6.71583 432.692 7.04219C432.381 7.35371 431.995 7.50948 431.535 7.50948Z" fill="#1D1B1B"/>
<path d="M437.989 20.7047H435.275V9.71239H437.789L438.012 11.1365C438.353 10.5876 438.835 10.1574 439.458 9.8459C440.096 9.53438 440.786 9.37862 441.527 9.37862C442.907 9.37862 443.945 9.78656 444.643 10.6025C445.355 11.4184 445.711 12.5309 445.711 13.9402V20.7047H442.996V14.5855C442.996 13.6658 442.788 12.9834 442.373 12.5384C441.958 12.0785 441.394 11.8486 440.682 11.8486C439.836 11.8486 439.176 12.1156 438.701 12.6496C438.227 13.1837 437.989 13.8957 437.989 14.7858V20.7047Z" fill="#1D1B1B"/>
<path d="M447.31 14.9638C447.31 13.8957 447.525 12.9463 447.955 12.1156C448.4 11.27 449.016 10.6025 449.802 10.1129C450.588 9.62339 451.501 9.37862 452.539 9.37862C453.474 9.37862 454.275 9.5863 454.942 10.0017C455.61 10.4022 456.077 10.9659 456.344 11.6928L456.055 11.9376L456.277 9.71239H458.792V20.1484C458.792 21.3649 458.554 22.4181 458.08 23.3082C457.62 24.2131 456.96 24.9029 456.099 25.3776C455.254 25.8671 454.23 26.1119 453.029 26.1119C451.456 26.1119 450.165 25.6891 449.157 24.8435C448.148 23.998 447.555 22.8409 447.377 21.3723H450.091C450.18 22.0843 450.477 22.6406 450.981 23.0412C451.501 23.4417 452.183 23.642 453.029 23.642C453.963 23.642 454.705 23.3675 455.254 22.8186C455.817 22.2846 456.099 21.5577 456.099 20.638V17.901L456.411 18.1903C456.144 18.8875 455.654 19.4438 454.942 19.8592C454.23 20.2745 453.407 20.4822 452.472 20.4822C451.434 20.4822 450.529 20.2449 449.757 19.7702C448.986 19.2955 448.385 18.6427 447.955 17.812C447.525 16.9813 447.31 16.0319 447.31 14.9638ZM450.047 14.897C450.047 15.5201 450.165 16.0764 450.403 16.5659C450.655 17.0406 451.004 17.4189 451.449 17.7008C451.894 17.9826 452.413 18.1235 453.006 18.1235C453.629 18.1235 454.163 17.99 454.608 17.723C455.068 17.4411 455.417 17.0629 455.654 16.5882C455.906 16.0986 456.032 15.5349 456.032 14.897C456.032 14.2592 455.914 13.7103 455.676 13.2504C455.439 12.7757 455.09 12.4048 454.631 12.1378C454.186 11.8708 453.644 11.7373 453.006 11.7373C452.398 11.7373 451.871 11.8782 451.426 12.1601C450.981 12.4271 450.64 12.798 450.403 13.2727C450.165 13.7474 450.047 14.2888 450.047 14.897Z" fill="#1D1B1B"/>
<path d="M303.458 8.72753V3.85254C303.458 2.05761 302.003 0.602539 300.208 0.602539C298.414 0.602539 296.958 2.05761 296.958 3.85254V4.66504C296.958 6.90869 298.777 8.72753 301.021 8.72753H303.458Z" fill="#4B1FFC"/>
<path d="M296.958 18.4775V23.3525C296.958 25.1475 298.414 26.6025 300.208 26.6025C302.003 26.6025 303.458 25.1475 303.458 23.3525V22.54C303.458 20.2964 301.64 18.4775 299.396 18.4775H296.958Z" fill="#4B1FFC"/>
<path d="M300.208 10.3525H309.958C311.753 10.3525 313.208 11.8076 313.208 13.6025C313.208 15.3975 311.753 16.8525 309.958 16.8525H306.708C303.119 16.8525 300.208 13.9424 300.208 10.3525Z" fill="#4B1FFC"/>
<path d="M300.208 16.8525H290.458C288.664 16.8525 287.208 15.3975 287.208 13.6025C287.208 11.8076 288.664 10.3525 290.458 10.3525H293.708C297.298 10.3525 300.208 13.2627 300.208 16.8525Z" fill="#4B1FFC"/>
</svg>
