<svg width="374" height="30" viewBox="0 0 374 30" fill="none" xmlns="http://www.w3.org/2000/svg">
<path d="M37.5 10.5059H39.9403V6.55004H43.0742V10.5059H45.5145V13.126H43.0742V20.5767H45.5145V23.1967H42.4412C41.0605 23.1967 39.9412 22.0774 39.9412 20.6967L39.9403 13.126H37.5V10.5059Z" fill="#4B1FFC"/>
<path d="M53.0168 23.5286C51.7673 23.5286 50.6547 23.2462 49.6791 22.6813C48.7205 22.0994 47.9674 21.312 47.4197 20.3192C46.8719 19.3093 46.5981 18.154 46.5981 16.8531C46.5981 15.5351 46.8634 14.3712 47.394 13.3613C47.9246 12.3514 48.6692 11.564 49.6277 10.9992C50.5863 10.4172 51.6817 10.1262 52.9141 10.1262C54.1979 10.1262 55.3019 10.4001 56.2262 10.9478C57.1505 11.4785 57.8608 12.223 58.3572 13.1816C58.8707 14.1401 59.1275 15.2869 59.1275 16.622V17.572L48.2413 17.5977L48.2926 15.595H56.0208C56.0208 14.7221 55.7384 14.0203 55.1735 13.4897C54.6258 12.9591 53.8812 12.6937 52.9398 12.6937C52.2038 12.6937 51.579 12.8478 51.0655 13.1559C50.5691 13.464 50.1926 13.9261 49.9358 14.5423C49.6791 15.1585 49.5507 15.9117 49.5507 16.8018C49.5507 18.1711 49.8417 19.2066 50.4236 19.9084C51.0227 20.6102 51.9042 20.9611 53.0682 20.9611C53.924 20.9611 54.6258 20.7985 55.1735 20.4733C55.7384 20.1481 56.1064 19.6859 56.2775 19.0868H59.1788C58.905 20.4733 58.2203 21.5602 57.1248 22.3476C56.0465 23.1349 54.6771 23.5286 53.0168 23.5286Z" fill="#4B1FFC"/>
<path d="M64.7698 23.5286C63.4347 23.5286 62.3734 23.1692 61.5861 22.4503C60.8158 21.7142 60.4307 20.7557 60.4307 19.5747C60.4307 18.4107 60.8329 17.4864 61.6374 16.8018C62.459 16.1 63.6229 15.6892 65.1292 15.5694L68.9291 15.2613V14.9788C68.9291 14.3969 68.8179 13.9347 68.5953 13.5924C68.3899 13.2329 68.0904 12.9762 67.6967 12.8221C67.303 12.651 66.8409 12.5654 66.3103 12.5654C65.386 12.5654 64.6756 12.7537 64.1792 13.1302C63.6829 13.4897 63.4347 14.0032 63.4347 14.6707H60.7645C60.7645 13.7464 60.9955 12.9505 61.4577 12.2829C61.937 11.5983 62.6045 11.0677 63.4603 10.6911C64.3333 10.3145 65.3346 10.1262 66.4643 10.1262C67.6111 10.1262 68.5953 10.3316 69.4169 10.7424C70.2385 11.1361 70.8719 11.7352 71.3169 12.5397C71.7619 13.3271 71.9844 14.3113 71.9844 15.4923V23.1948H69.2372L69.0061 21.3206C68.7323 21.971 68.2017 22.5016 67.4143 22.9124C66.644 23.3232 65.7625 23.5286 64.7698 23.5286ZM65.7711 21.1665C66.7467 21.1665 67.517 20.8926 68.0818 20.3449C68.6638 19.7972 68.9548 19.0355 68.9548 18.0598V17.3923L66.3103 17.5977C65.3346 17.6833 64.6414 17.8887 64.2306 18.2139C63.8198 18.522 63.6144 18.9328 63.6144 19.4463C63.6144 20.0111 63.8027 20.439 64.1792 20.73C64.5558 21.021 65.0864 21.1665 65.7711 21.1665Z" fill="#4B1FFC"/>
<path d="M77.6805 23.1948H74.5481V10.5114H77.4237L77.8089 12.7708L77.4494 12.4627C77.7062 11.8465 78.1769 11.3073 78.8615 10.8451C79.5462 10.3659 80.402 10.1262 81.429 10.1262C82.5416 10.1262 83.4488 10.4172 84.1506 10.9992C84.8695 11.5812 85.3659 12.3514 85.6397 13.3099H85.1263C85.3145 12.3514 85.7938 11.5812 86.564 10.9992C87.3514 10.4172 88.3014 10.1262 89.414 10.1262C90.9545 10.1262 92.1355 10.5627 92.9571 11.4357C93.7787 12.2915 94.1895 13.4469 94.1895 14.9018V23.1948H91.0829V15.7234C91.0829 14.8162 90.8518 14.1315 90.3896 13.6694C89.9446 13.1901 89.3455 12.9505 88.5924 12.9505C88.1131 12.9505 87.6681 13.0618 87.2573 13.2843C86.8636 13.5068 86.5469 13.8406 86.3073 14.2856C86.0677 14.7306 85.9479 15.304 85.9479 16.0058V23.1948H82.8155V15.6977C82.8155 14.8077 82.593 14.1315 82.1479 13.6694C81.7029 13.2072 81.1124 12.9762 80.3764 12.9762C79.88 12.9762 79.4264 13.0874 79.0156 13.3099C78.6048 13.5153 78.2796 13.8491 78.0399 14.3113C77.8003 14.7563 77.6805 15.3212 77.6805 16.0058V23.1948Z" fill="#4B1FFC"/>
<path d="M99.6523 23.1948H96.751V4.09261H99.8834V12.36C100.294 11.6411 100.893 11.0933 101.681 10.7168C102.468 10.3231 103.349 10.1262 104.325 10.1262C105.54 10.1262 106.576 10.4172 107.432 10.9992C108.305 11.564 108.972 12.36 109.434 13.387C109.914 14.414 110.153 15.6036 110.153 16.9558C110.153 18.2396 109.905 19.3778 109.409 20.3706C108.912 21.3633 108.211 22.1422 107.303 22.707C106.396 23.2547 105.335 23.5286 104.12 23.5286C103.178 23.5286 102.322 23.3232 101.552 22.9124C100.799 22.5016 100.234 21.9368 99.8577 21.2179L99.6523 23.1948ZM99.909 16.8018C99.909 17.5549 100.055 18.231 100.346 18.8301C100.636 19.412 101.047 19.8656 101.578 20.1909C102.126 20.499 102.759 20.653 103.478 20.653C104.214 20.653 104.847 20.4904 105.378 20.1652C105.908 19.84 106.311 19.3864 106.585 18.8044C106.858 18.2224 106.995 17.5549 106.995 16.8018C106.995 16.0486 106.858 15.3811 106.585 14.7991C106.311 14.2171 105.908 13.7635 105.378 13.4383C104.847 13.096 104.214 12.9248 103.478 12.9248C102.759 12.9248 102.126 13.096 101.578 13.4383C101.047 13.7635 100.636 14.2171 100.346 14.7991C100.055 15.364 99.909 16.0315 99.909 16.8018Z" fill="#1D1B1B"/>
<path d="M111.389 16.8274C111.389 15.5094 111.68 14.3541 112.262 13.3613C112.844 12.3514 113.649 11.564 114.676 10.9992C115.703 10.4343 116.867 10.1519 118.168 10.1519C119.486 10.1519 120.65 10.4343 121.659 10.9992C122.686 11.564 123.491 12.3514 124.073 13.3613C124.655 14.3541 124.946 15.5094 124.946 16.8274C124.946 18.1454 124.655 19.3093 124.073 20.3192C123.491 21.312 122.686 22.0908 121.659 22.6557C120.65 23.2205 119.486 23.5029 118.168 23.5029C116.867 23.5029 115.703 23.2205 114.676 22.6557C113.649 22.0908 112.844 21.312 112.262 20.3192C111.68 19.3093 111.389 18.1454 111.389 16.8274ZM114.522 16.8274C114.522 17.5977 114.676 18.2738 114.984 18.8558C115.309 19.4377 115.737 19.8913 116.268 20.2165C116.815 20.5417 117.449 20.7044 118.168 20.7044C118.886 20.7044 119.52 20.5417 120.068 20.2165C120.615 19.8913 121.043 19.4377 121.351 18.8558C121.659 18.2738 121.813 17.5977 121.813 16.8274C121.813 16.0401 121.659 15.364 121.351 14.7991C121.043 14.2171 120.615 13.7635 120.068 13.4383C119.52 13.1131 118.886 12.9505 118.168 12.9505C117.449 12.9505 116.815 13.1131 116.268 13.4383C115.737 13.7635 115.309 14.2171 114.984 14.7991C114.676 15.364 114.522 16.0401 114.522 16.8274Z" fill="#1D1B1B"/>
<path d="M130.689 23.5286C129.354 23.5286 128.293 23.1692 127.506 22.4503C126.735 21.7142 126.35 20.7557 126.35 19.5747C126.35 18.4107 126.753 17.4864 127.557 16.8018C128.379 16.1 129.543 15.6892 131.049 15.5694L134.849 15.2613V14.9788C134.849 14.3969 134.737 13.9347 134.515 13.5924C134.31 13.2329 134.01 12.9762 133.616 12.8221C133.223 12.651 132.76 12.5654 132.23 12.5654C131.306 12.5654 130.595 12.7537 130.099 13.1302C129.602 13.4897 129.354 14.0032 129.354 14.6707H126.684C126.684 13.7464 126.915 12.9505 127.377 12.2829C127.857 11.5983 128.524 11.0677 129.38 10.6911C130.253 10.3145 131.254 10.1262 132.384 10.1262C133.531 10.1262 134.515 10.3316 135.337 10.7424C136.158 11.1361 136.791 11.7352 137.237 12.5397C137.682 13.3271 137.904 14.3113 137.904 15.4923V23.1948H135.157L134.926 21.3206C134.652 21.971 134.121 22.5016 133.334 22.9124C132.564 23.3232 131.682 23.5286 130.689 23.5286ZM131.691 21.1665C132.666 21.1665 133.437 20.8926 134.001 20.3449C134.583 19.7972 134.874 19.0355 134.874 18.0598V17.3923L132.23 17.5977C131.254 17.6833 130.561 17.8887 130.15 18.2139C129.739 18.522 129.534 18.9328 129.534 19.4463C129.534 20.0111 129.722 20.439 130.099 20.73C130.475 21.021 131.006 21.1665 131.691 21.1665Z" fill="#1D1B1B"/>
<path d="M148.427 10.46V13.3613H147.272C146.125 13.3613 145.226 13.6694 144.576 14.2856C143.925 14.8847 143.6 15.8004 143.6 17.0328V23.1948H140.468V10.537H143.42L143.677 13.1559H143.369C143.54 12.3172 143.942 11.6325 144.576 11.1019C145.209 10.5713 146.031 10.306 147.041 10.306C147.263 10.306 147.486 10.3145 147.708 10.3316C147.931 10.3488 148.17 10.3916 148.427 10.46Z" fill="#1D1B1B"/>
<path d="M154.819 23.5286C153.587 23.5286 152.526 23.2547 151.636 22.707C150.763 22.1422 150.078 21.3633 149.582 20.3706C149.103 19.3778 148.863 18.2224 148.863 16.9045C148.863 15.5865 149.103 14.4225 149.582 13.4126C150.078 12.3856 150.788 11.5812 151.713 10.9992C152.637 10.4172 153.733 10.1262 154.999 10.1262C155.889 10.1262 156.702 10.306 157.438 10.6654C158.174 11.0078 158.739 11.4956 159.133 12.1289V4.09261H162.24V23.1948H159.364L159.159 21.2179C158.782 21.9368 158.2 22.5016 157.413 22.9124C156.642 23.3232 155.778 23.5286 154.819 23.5286ZM155.513 20.653C156.249 20.653 156.882 20.499 157.413 20.1909C157.943 19.8656 158.354 19.412 158.645 18.8301C158.953 18.231 159.107 17.5549 159.107 16.8018C159.107 16.0315 158.953 15.364 158.645 14.7991C158.354 14.2171 157.943 13.7635 157.413 13.4383C156.882 13.096 156.249 12.9248 155.513 12.9248C154.794 12.9248 154.169 13.096 153.638 13.4383C153.108 13.7635 152.697 14.2171 152.406 14.7991C152.132 15.3811 151.995 16.0486 151.995 16.8018C151.995 17.5549 152.132 18.2224 152.406 18.8044C152.697 19.3864 153.108 19.84 153.638 20.1652C154.169 20.4904 154.794 20.653 155.513 20.653Z" fill="#1D1B1B"/>
<path d="M164.99 23.1948V10.5114H168.123V23.1948H164.99ZM166.531 7.96954C166 7.96954 165.547 7.78982 165.17 7.43037C164.811 7.0538 164.631 6.60021 164.631 6.06959C164.631 5.53897 164.811 5.09394 165.17 4.73449C165.547 4.37504 166 4.19531 166.531 4.19531C167.062 4.19531 167.507 4.37504 167.866 4.73449C168.243 5.09394 168.431 5.53897 168.431 6.06959C168.431 6.60021 168.243 7.0538 167.866 7.43037C167.507 7.78982 167.062 7.96954 166.531 7.96954Z" fill="#1D1B1B"/>
<path d="M173.978 23.1948H170.846V10.5114H173.747L174.004 12.1546C174.397 11.5213 174.954 11.0249 175.672 10.6654C176.408 10.306 177.204 10.1262 178.06 10.1262C179.652 10.1262 180.85 10.597 181.655 11.5384C182.476 12.4798 182.887 13.7635 182.887 15.3896V23.1948H179.755V16.1342C179.755 15.073 179.515 14.2856 179.036 13.7721C178.557 13.2415 177.906 12.9762 177.085 12.9762C176.109 12.9762 175.347 13.2843 174.799 13.9005C174.252 14.5167 173.978 15.3383 173.978 16.3653V23.1948Z" fill="#1D1B1B"/>
<path d="M184.732 16.5707C184.732 15.3383 184.98 14.2428 185.477 13.2843C185.99 12.3086 186.701 11.5384 187.608 10.9735C188.515 10.4087 189.568 10.1262 190.766 10.1262C191.844 10.1262 192.769 10.3659 193.539 10.8451C194.309 11.3073 194.848 11.9577 195.156 12.7964L194.823 13.0789L195.079 10.5114H197.981V22.553C197.981 23.9565 197.707 25.1718 197.159 26.1988C196.628 27.2429 195.867 28.0389 194.874 28.5866C193.898 29.1514 192.717 29.4339 191.331 29.4339C189.516 29.4339 188.027 28.946 186.863 27.9704C185.699 26.9947 185.015 25.6596 184.809 23.9651H187.942C188.044 24.7867 188.387 25.4286 188.969 25.8907C189.568 26.3529 190.355 26.5839 191.331 26.5839C192.409 26.5839 193.265 26.2673 193.898 25.634C194.549 25.0178 194.874 24.179 194.874 23.1178V19.9598L195.233 20.2936C194.925 21.098 194.36 21.7399 193.539 22.2192C192.717 22.6985 191.767 22.9381 190.689 22.9381C189.491 22.9381 188.447 22.6642 187.557 22.1165C186.666 21.5688 185.973 20.8156 185.477 19.8571C184.98 18.8985 184.732 17.8031 184.732 16.5707ZM187.89 16.4937C187.89 17.2126 188.027 17.8544 188.301 18.4193C188.592 18.967 188.994 19.4035 189.508 19.7287C190.021 20.0539 190.62 20.2165 191.305 20.2165C192.024 20.2165 192.64 20.0625 193.154 19.7544C193.684 19.4292 194.087 18.9927 194.36 18.445C194.651 17.8801 194.797 17.2297 194.797 16.4937C194.797 15.7576 194.66 15.1243 194.386 14.5937C194.112 14.046 193.71 13.618 193.179 13.3099C192.666 13.0018 192.041 12.8478 191.305 12.8478C190.603 12.8478 189.996 13.0104 189.482 13.3356C188.969 13.6437 188.575 14.0716 188.301 14.6194C188.027 15.1671 187.89 15.7919 187.89 16.4937Z" fill="#1D1B1B"/>
<path d="M18.75 9.375V3.75C18.75 1.67893 17.0711 9.05292e-08 15 0C12.9289 -9.05292e-08 11.25 1.67893 11.25 3.75V4.6875C11.25 7.27633 13.3487 9.375 15.9375 9.375H18.75Z" fill="#4B1FFC"/>
<path d="M11.25 20.625V26.25C11.25 28.3211 12.9289 30 15 30C17.0711 30 18.75 28.3211 18.75 26.25V25.3125C18.75 22.7237 16.6513 20.625 14.0625 20.625H11.25Z" fill="#4B1FFC"/>
<path d="M15 11.25H26.25C28.3211 11.25 30 12.9289 30 15C30 17.0711 28.3211 18.75 26.25 18.75H22.5C18.3579 18.75 15 15.3921 15 11.25Z" fill="#4B1FFC"/>
<path d="M15 18.75H3.75C1.67893 18.75 0 17.0711 0 15C0 12.9289 1.67893 11.25 3.75 11.25H7.49999C11.6421 11.25 15 14.6079 15 18.75Z" fill="#4B1FFC"/>
</svg>
