<svg width="5" height="5" viewBox="0 0 5 5" fill="none" xmlns="http://www.w3.org/2000/svg">
<path d="M2.96078 4.26262H1.99826C1.12718 4.26262 0.755005 3.89045 0.755005 3.01937V2.05685C0.755005 1.18577 1.12718 0.813599 1.99826 0.813599H2.96078C3.83186 0.813599 4.20403 1.18577 4.20403 2.05685V3.01937C4.20403 3.89045 3.83346 4.26262 2.96078 4.26262ZM1.99826 1.05423C1.25872 1.05423 0.995635 1.31732 0.995635 2.05685V3.01937C0.995635 3.75891 1.25872 4.022 1.99826 4.022H2.96078C3.70031 4.022 3.9634 3.75891 3.9634 3.01937V2.05685C3.9634 1.31732 3.70031 1.05423 2.96078 1.05423H1.99826Z" fill="#5F5E5E"/>
<path d="M2.39619 3.51022C2.35769 3.51022 2.26464 3.49578 2.2101 3.35622L2.02722 2.89421C2.00155 2.82844 1.91012 2.76748 1.84113 2.76748L0.878616 2.77069C0.812844 2.77069 0.758301 2.71775 0.758301 2.65037C0.758301 2.5846 0.811239 2.53006 0.878616 2.53006L1.84113 2.52685H1.84274C2.01118 2.52685 2.19085 2.64877 2.25341 2.80598L2.3994 3.17494L2.72986 2.33755C2.77959 2.21242 2.86782 2.19478 2.90472 2.19157C2.94161 2.18997 3.03145 2.19799 3.09401 2.3167L3.26085 2.63272C3.28973 2.68727 3.37635 2.74021 3.43892 2.74021H4.09022C4.15599 2.74021 4.21054 2.79475 4.21054 2.86052C4.21054 2.92629 4.15599 2.98084 4.09022 2.98084H3.43892C3.28652 2.98084 3.11968 2.87977 3.0491 2.74502L2.92397 2.5076L2.58709 3.35622C2.52773 3.49418 2.43308 3.51022 2.39619 3.51022Z" fill="#5F5E5E"/>
</svg>
