<svg width="14" height="14" viewBox="0 0 14 14" fill="none" xmlns="http://www.w3.org/2000/svg">
<path d="M8.31654 12.3464H5.07209C2.13587 12.3464 0.881348 11.0919 0.881348 8.15565V4.9112C0.881348 1.97498 2.13587 0.720459 5.07209 0.720459H8.31654C11.2528 0.720459 12.5073 1.97498 12.5073 4.9112V8.15565C12.5073 11.0919 11.2582 12.3464 8.31654 12.3464ZM5.07209 1.53157C2.57927 1.53157 1.69246 2.41839 1.69246 4.9112V8.15565C1.69246 10.6485 2.57927 11.5353 5.07209 11.5353H8.31654C10.8094 11.5353 11.6962 10.6485 11.6962 8.15565V4.9112C11.6962 2.41839 10.8094 1.53157 8.31654 1.53157H5.07209Z" fill="#5F5E5E"/>
<path d="M6.41306 9.81031C6.28328 9.81031 5.96965 9.76164 5.7858 9.2912L5.16935 7.73387C5.08283 7.51216 4.77461 7.30668 4.54209 7.30668L1.29765 7.31749C1.07594 7.31749 0.89209 7.13905 0.89209 6.91194C0.89209 6.69023 1.07053 6.50638 1.29765 6.50638L4.54209 6.49557H4.5475C5.11528 6.49557 5.72091 6.90653 5.9318 7.43646L6.42387 8.68016L7.5378 5.85749C7.70543 5.43571 8.00284 5.37623 8.12721 5.36542C8.25158 5.36001 8.55439 5.38705 8.76528 5.7872L9.32765 6.85246C9.42498 7.03631 9.71699 7.21475 9.92787 7.21475H12.1233C12.345 7.21475 12.5288 7.39861 12.5288 7.62031C12.5288 7.84201 12.345 8.02587 12.1233 8.02587H9.92787C9.41417 8.02587 8.8518 7.6852 8.61387 7.23098L8.1921 6.43068L7.05654 9.2912C6.85646 9.75624 6.53743 9.81031 6.41306 9.81031Z" fill="#5F5E5E"/>
</svg>
