<svg width="14" height="14" viewBox="0 0 14 14" fill="none" xmlns="http://www.w3.org/2000/svg">
<path d="M8.31678 12.3464H5.07234C2.13611 12.3464 0.881592 11.0919 0.881592 8.15565V4.9112C0.881592 1.97498 2.13611 0.720459 5.07234 0.720459H8.31678C11.253 0.720459 12.5075 1.97498 12.5075 4.9112V8.15565C12.5075 11.0919 11.2584 12.3464 8.31678 12.3464ZM5.07234 1.53157C2.57952 1.53157 1.6927 2.41839 1.6927 4.9112V8.15565C1.6927 10.6485 2.57952 11.5353 5.07234 11.5353H8.31678C10.8096 11.5353 11.6964 10.6485 11.6964 8.15565V4.9112C11.6964 2.41839 10.8096 1.53157 8.31678 1.53157H5.07234Z" fill="#5F5E5E"/>
<path d="M6.41342 9.81031C6.28365 9.81031 5.97002 9.76164 5.78616 9.2912L5.16972 7.73387C5.0832 7.51216 4.77498 7.30668 4.54246 7.30668L1.29801 7.31749C1.07631 7.31749 0.892456 7.13905 0.892456 6.91194C0.892456 6.69023 1.0709 6.50638 1.29801 6.50638L4.54246 6.49557H4.54787C5.11564 6.49557 5.72127 6.90653 5.93216 7.43646L6.42424 8.68016L7.53816 5.85749C7.70579 5.43571 8.0032 5.37623 8.12757 5.36542C8.25194 5.36001 8.55476 5.38705 8.76565 5.7872L9.32802 6.85246C9.42535 7.03631 9.71735 7.21475 9.92824 7.21475H12.1236C12.3454 7.21475 12.5292 7.39861 12.5292 7.62031C12.5292 7.84201 12.3454 8.02587 12.1236 8.02587H9.92824C9.41454 8.02587 8.85217 7.6852 8.61424 7.23098L8.19246 6.43068L7.05691 9.2912C6.85683 9.75624 6.53779 9.81031 6.41342 9.81031Z" fill="#5F5E5E"/>
</svg>
