<svg width="9" height="9" viewBox="0 0 9 9" fill="none" xmlns="http://www.w3.org/2000/svg">
<path d="M5.53439 8.25774H3.47958C1.61997 8.25774 0.825439 7.46321 0.825439 5.6036V3.54879C0.825439 1.68918 1.61997 0.894653 3.47958 0.894653H5.53439C7.394 0.894653 8.18853 1.68918 8.18853 3.54879V5.6036C8.18853 7.46321 7.39742 8.25774 5.53439 8.25774ZM3.47958 1.40836C1.90079 1.40836 1.33914 1.97001 1.33914 3.54879V5.6036C1.33914 7.18239 1.90079 7.74404 3.47958 7.74404H5.53439C7.11317 7.74404 7.67482 7.18239 7.67482 5.6036V3.54879C7.67482 1.97001 7.11317 1.40836 5.53439 1.40836H3.47958Z" fill="#5F5E5E"/>
<path d="M4.32889 6.65151C4.24669 6.65151 4.04806 6.62068 3.93162 6.32273L3.54121 5.33642C3.48641 5.19601 3.2912 5.06587 3.14394 5.06587L1.08913 5.07272C0.948715 5.07272 0.832275 4.95971 0.832275 4.81587C0.832275 4.67546 0.94529 4.55902 1.08913 4.55902L3.14394 4.55217H3.14737C3.50696 4.55217 3.89053 4.81245 4.02409 5.14807L4.33574 5.93574L5.04122 4.14806C5.14739 3.88093 5.33575 3.84326 5.41451 3.83641C5.49328 3.83298 5.68506 3.85011 5.81863 4.10353L6.17479 4.7782C6.23644 4.89464 6.42137 5.00765 6.55494 5.00765H7.94536C8.08577 5.00765 8.20221 5.12409 8.20221 5.2645C8.20221 5.40492 8.08577 5.52136 7.94536 5.52136H6.55494C6.22959 5.52136 5.87342 5.3056 5.72274 5.01793L5.45561 4.51107L4.73642 6.32273C4.60971 6.61726 4.40765 6.65151 4.32889 6.65151Z" fill="#5F5E5E"/>
</svg>
