<svg width="6" height="6" viewBox="0 0 6 6" fill="none" xmlns="http://www.w3.org/2000/svg">
<g clip-path="url(#clip0_3676_954)">
<path d="M3.85735 3.50493L4.52911 4.17669M2.6542 3.50493L1.98244 4.17669M1.98244 1.63002L2.6542 2.30178M4.52911 1.63002L3.85735 2.30178M2.45367 2.90336C2.45367 3.11609 2.53818 3.3201 2.6886 3.47053C2.83903 3.62095 3.04304 3.70545 3.25577 3.70545C3.4685 3.70545 3.67252 3.62095 3.82294 3.47053C3.97336 3.3201 4.05787 3.11609 4.05787 2.90336C4.05787 2.69063 3.97336 2.48661 3.82294 2.33619C3.67252 2.18576 3.4685 2.10126 3.25577 2.10126C3.04304 2.10126 2.83903 2.18576 2.6886 2.33619C2.53818 2.48661 2.45367 2.69063 2.45367 2.90336ZM1.45105 2.90336C1.45105 3.14036 1.49773 3.37503 1.58843 3.59399C1.67912 3.81295 1.81206 4.0119 1.97964 4.17949C2.14722 4.34707 2.34618 4.48001 2.56514 4.5707C2.78409 4.6614 3.01877 4.70808 3.25577 4.70808C3.49277 4.70808 3.72745 4.6614 3.94641 4.5707C4.16537 4.48001 4.36432 4.34707 4.5319 4.17949C4.69949 4.0119 4.83242 3.81295 4.92312 3.59399C5.01382 3.37503 5.0605 3.14036 5.0605 2.90336C5.0605 2.66636 5.01382 2.43168 4.92312 2.21272C4.83242 1.99376 4.69949 1.79481 4.5319 1.62722C4.36432 1.45964 4.16537 1.32671 3.94641 1.23601C3.72745 1.14531 3.49277 1.09863 3.25577 1.09863C3.01877 1.09863 2.78409 1.14531 2.56514 1.23601C2.34618 1.32671 2.14722 1.45964 1.97964 1.62722C1.81206 1.79481 1.67912 1.99376 1.58843 2.21272C1.49773 2.43168 1.45105 2.66636 1.45105 2.90336Z" stroke="#5F5E5E" stroke-width="0.32485" stroke-linecap="round" stroke-linejoin="round"/>
</g>
<defs>
<clipPath id="clip0_3676_954">
<rect width="4.81259" height="4.81259" fill="white" transform="translate(0.849487 0.496948)"/>
</clipPath>
</defs>
</svg>
