<svg width="17" height="18" viewBox="0 0 17 18" fill="none" xmlns="http://www.w3.org/2000/svg">
<path d="M7.7459 3.81793C8.03384 2.631 9.72231 2.631 10.0103 3.81793C10.0535 3.99624 10.1382 4.16183 10.2574 4.30122C10.3767 4.44061 10.5273 4.54986 10.6968 4.62008C10.8663 4.69031 11.0499 4.71951 11.2329 4.70533C11.4158 4.69115 11.5928 4.63398 11.7494 4.53847C12.7924 3.9031 13.9867 5.09678 13.3514 6.14041C13.256 6.29699 13.1989 6.47387 13.1848 6.65667C13.1706 6.83946 13.1998 7.02302 13.2699 7.19241C13.3401 7.3618 13.4492 7.51226 13.5884 7.63154C13.7277 7.75082 13.8931 7.83557 14.0712 7.8789C15.2581 8.16684 15.2581 9.8553 14.0712 10.1432C13.8929 10.1865 13.7273 10.2711 13.5879 10.3904C13.4485 10.5097 13.3393 10.6603 13.2691 10.8298C13.1988 10.9993 13.1696 11.1829 13.1838 11.3659C13.198 11.5488 13.2552 11.7258 13.3507 11.8824C13.9861 12.9254 12.7924 14.1197 11.7487 13.4844C11.5922 13.389 11.4153 13.3319 11.2325 13.3177C11.0497 13.3036 10.8661 13.3328 10.6967 13.4029C10.5273 13.4731 10.3769 13.5822 10.2576 13.7214C10.1383 13.8607 10.0536 14.0261 10.0103 14.2042C9.72231 15.3911 8.03384 15.3911 7.7459 14.2042C7.7027 14.0259 7.618 13.8603 7.49871 13.7209C7.37941 13.5815 7.22889 13.4723 7.05939 13.4021C6.8899 13.3318 6.70621 13.3026 6.52329 13.3168C6.34037 13.331 6.16339 13.3882 6.00674 13.4837C4.96379 14.119 3.76942 12.9254 4.4048 11.8817C4.50017 11.7251 4.55725 11.5483 4.5714 11.3655C4.58555 11.1827 4.55637 10.9991 4.48623 10.8297C4.41608 10.6603 4.30696 10.5099 4.16773 10.3906C4.0285 10.2713 3.86308 10.1866 3.68493 10.1432C2.49801 9.8553 2.49801 8.16684 3.68493 7.8789C3.86324 7.83569 4.02883 7.751 4.16822 7.6317C4.30761 7.51241 4.41686 7.36189 4.48709 7.19239C4.55731 7.02289 4.58652 6.83921 4.57234 6.65629C4.55815 6.47337 4.50098 6.29638 4.40547 6.13974C3.7701 5.09678 4.96379 3.90242 6.00742 4.53779C6.68334 4.94875 7.55934 4.58511 7.7459 3.81793Z" stroke="#5F5E5E" stroke-width="1.095" stroke-linecap="round" stroke-linejoin="round"/>
<path d="M6.8503 9.01107C6.8503 9.54887 7.06394 10.0646 7.44422 10.4449C7.8245 10.8252 8.34028 11.0389 8.87808 11.0389C9.41588 11.0389 9.93165 10.8252 10.3119 10.4449C10.6922 10.0646 10.9059 9.54887 10.9059 9.01107C10.9059 8.47327 10.6922 7.9575 10.3119 7.57722C9.93165 7.19693 9.41588 6.98329 8.87808 6.98329C8.34028 6.98329 7.8245 7.19693 7.44422 7.57722C7.06394 7.9575 6.8503 8.47327 6.8503 9.01107Z" stroke="#5F5E5E" stroke-width="1.095" stroke-linecap="round" stroke-linejoin="round"/>
</svg>
