<svg width="11" height="12" viewBox="0 0 11 12" fill="none" xmlns="http://www.w3.org/2000/svg">
<path d="M4.77221 2.71809C4.95457 1.96637 6.02393 1.96637 6.2063 2.71809C6.23366 2.83102 6.2873 2.93589 6.36285 3.02417C6.43841 3.11245 6.53374 3.18164 6.64108 3.22612C6.74843 3.27059 6.86477 3.28909 6.98061 3.28011C7.09646 3.27113 7.20855 3.23492 7.30776 3.17443C7.9683 2.77203 8.72473 3.52803 8.32233 4.18899C8.26193 4.28816 8.22577 4.40018 8.21681 4.51595C8.20785 4.63172 8.22633 4.74797 8.27076 4.85526C8.31518 4.96254 8.38429 5.05783 8.47247 5.13337C8.56065 5.20892 8.66541 5.26259 8.77824 5.29003C9.52996 5.4724 9.52996 6.54175 8.77824 6.72412C8.66531 6.75148 8.56044 6.80512 8.47216 6.88068C8.38388 6.95623 8.31469 7.05156 8.27021 7.15891C8.22574 7.26625 8.20724 7.38259 8.21622 7.49844C8.2252 7.61429 8.26141 7.72638 8.3219 7.82559C8.7243 8.48612 7.9683 9.24255 7.30734 8.84015C7.20817 8.77975 7.09615 8.7436 6.98038 8.73463C6.8646 8.72567 6.74835 8.74416 6.64107 8.78858C6.53379 8.833 6.4385 8.90211 6.36295 8.99029C6.28741 9.07847 6.23374 9.18324 6.2063 9.29606C6.02393 10.0478 4.95457 10.0478 4.77221 9.29606C4.74485 9.18313 4.69121 9.07826 4.61565 8.98998C4.5401 8.9017 4.44477 8.83251 4.33742 8.78803C4.23007 8.74356 4.11374 8.72506 3.99789 8.73404C3.88204 8.74302 3.76995 8.77923 3.67074 8.83972C3.0102 9.24212 2.25378 8.48612 2.65618 7.82516C2.71658 7.72599 2.75273 7.61397 2.76169 7.4982C2.77065 7.38243 2.75217 7.26618 2.70775 7.15889C2.66333 7.05161 2.59422 6.95632 2.50604 6.88078C2.41785 6.80523 2.31309 6.75156 2.20026 6.72412C1.44854 6.54175 1.44854 5.4724 2.20026 5.29003C2.31319 5.26267 2.41807 5.20903 2.50635 5.13347C2.59463 5.05792 2.66382 4.96259 2.70829 4.85524C2.75277 4.7479 2.77127 4.63156 2.76229 4.51571C2.7533 4.39986 2.71709 4.28777 2.6566 4.18856C2.2542 3.52803 3.0102 2.7716 3.67117 3.174C4.09926 3.43428 4.65406 3.20396 4.77221 2.71809Z" stroke="#5F5E5E" stroke-width="0.6935" stroke-linecap="round" stroke-linejoin="round"/>
<path d="M4.20499 6.00708C4.20499 6.34768 4.3403 6.67434 4.58114 6.91518C4.82199 7.15603 5.14865 7.29133 5.48925 7.29133C5.82986 7.29133 6.15652 7.15603 6.39736 6.91518C6.63821 6.67434 6.77351 6.34768 6.77351 6.00708C6.77351 5.66647 6.63821 5.33981 6.39736 5.09897C6.15652 4.85812 5.82986 4.72282 5.48925 4.72282C5.14865 4.72282 4.82199 4.85812 4.58114 5.09897C4.3403 5.33981 4.20499 5.66647 4.20499 6.00708Z" stroke="#5F5E5E" stroke-width="0.6935" stroke-linecap="round" stroke-linejoin="round"/>
</svg>
