<svg width="17" height="18" viewBox="0 0 17 18" fill="none" xmlns="http://www.w3.org/2000/svg">
<path d="M6.40575 12.3907V13.0666C6.40575 13.6044 6.61939 14.1202 6.99968 14.5005C7.37996 14.8808 7.89573 15.0944 8.43353 15.0944C8.97133 15.0944 9.48711 14.8808 9.86739 14.5005C10.2477 14.1202 10.4613 13.6044 10.4613 13.0666V12.3907M7.08168 4.27959C7.08168 3.92105 7.22411 3.5772 7.47763 3.32368C7.73115 3.07016 8.075 2.92773 8.43353 2.92773C8.79207 2.92773 9.13592 3.07016 9.38944 3.32368C9.64296 3.5772 9.78539 3.92105 9.78539 4.27959C10.5616 4.64663 11.2234 5.21799 11.6996 5.93243C12.1759 6.64687 12.4488 7.47744 12.4891 8.33515V10.3629C12.54 10.7832 12.6888 11.1856 12.9236 11.5378C13.1584 11.89 13.4726 12.1821 13.8409 12.3907H3.02612C3.39446 12.1821 3.70868 11.89 3.94348 11.5378C4.17828 11.1856 4.32711 10.7832 4.37798 10.3629V8.33515C4.41823 7.47744 4.69113 6.64687 5.16742 5.93243C5.64371 5.21799 6.30544 4.64663 7.08168 4.27959Z" stroke="#5F5E5E" stroke-width="1.095" stroke-linecap="round" stroke-linejoin="round"/>
</svg>
