<svg width="9" height="8" viewBox="0 0 9 8" fill="none" xmlns="http://www.w3.org/2000/svg">
<rect x="0.935547" y="0.178467" width="7.70015" height="7.70015" rx="3.85008" fill="#F6F6FD"/>
<g clip-path="url(#clip0_3674_26971)">
<path d="M4.78579 4.02851C5.18684 3.43496 4.78579 2.62484 4.58527 2.42432C4.58527 3.03351 4.22973 3.375 3.98369 3.62746C3.73785 3.88013 3.58264 4.27717 3.58264 4.63009C3.58264 4.94918 3.7094 5.25521 3.93504 5.48084C4.16067 5.70648 4.4667 5.83324 4.78579 5.83324C5.10488 5.83324 5.41091 5.70648 5.63654 5.48084C5.86218 5.25521 5.98894 4.94918 5.98894 4.63009C5.98894 4.32288 5.77718 3.84002 5.58789 3.62746C5.22975 4.22904 5.02822 4.22904 4.78579 4.02851Z" stroke="#8C81FF" stroke-width="0.360945" stroke-linecap="round" stroke-linejoin="round"/>
</g>
<defs>
<clipPath id="clip0_3674_26971">
<rect width="4.81259" height="4.81259" fill="white" transform="translate(2.37939 1.62219)"/>
</clipPath>
</defs>
</svg>
