<svg width="11" height="12" viewBox="0 0 11 12" fill="none" xmlns="http://www.w3.org/2000/svg">
<path d="M3.89019 8.14751V8.57559C3.89019 8.9162 4.02549 9.24286 4.26634 9.4837C4.50718 9.72455 4.83384 9.85985 5.17445 9.85985C5.51505 9.85985 5.84171 9.72455 6.08256 9.4837C6.3234 9.24286 6.45871 8.9162 6.45871 8.57559V8.14751M4.31827 3.01047C4.31827 2.7834 4.40848 2.56563 4.56904 2.40506C4.72961 2.2445 4.94738 2.1543 5.17445 2.1543C5.40152 2.1543 5.61929 2.2445 5.77985 2.40506C5.94042 2.56563 6.03062 2.7834 6.03062 3.01047C6.52224 3.24293 6.94133 3.60479 7.24298 4.05727C7.54463 4.50975 7.71747 5.03578 7.74297 5.57899V6.86325C7.77518 7.12939 7.86944 7.38425 8.01815 7.60732C8.16685 7.83038 8.36586 8.01541 8.59914 8.14751H1.74976C1.98304 8.01541 2.18204 7.83038 2.33075 7.60732C2.47946 7.38425 2.57371 7.12939 2.60593 6.86325V5.57899C2.63143 5.03578 2.80426 4.50975 3.10591 4.05727C3.40756 3.60479 3.82666 3.24293 4.31827 3.01047Z" stroke="#5F5E5E" stroke-width="0.6935" stroke-linecap="round" stroke-linejoin="round"/>
</svg>
