<svg width="27" height="27" viewBox="0 0 27 27" fill="none" xmlns="http://www.w3.org/2000/svg">
<rect x="0.333008" y="0.978394" width="25.9556" height="25.9556" rx="12.9778" fill="#F6F6FD"/>
<g clip-path="url(#clip0_3496_29708)">
<path d="M13.3114 13.9561C14.6633 11.9554 13.3114 9.22463 12.6355 8.54871C12.6355 10.6022 11.4371 11.7533 10.6077 12.6043C9.77903 13.4559 9.25586 14.7943 9.25586 15.9839C9.25586 17.0595 9.68314 18.091 10.4437 18.8516C11.2043 19.6122 12.2358 20.0395 13.3114 20.0395C14.387 20.0395 15.4186 19.6122 16.1791 18.8516C16.9397 18.091 17.367 17.0595 17.367 15.9839C17.367 14.9484 16.6532 13.3207 16.0151 12.6043C14.8079 14.632 14.1286 14.632 13.3114 13.9561Z" stroke="#8C81FF" stroke-width="1.21667" stroke-linecap="round" stroke-linejoin="round"/>
</g>
<defs>
<clipPath id="clip0_3496_29708">
<rect width="16.2222" height="16.2222" fill="white" transform="translate(5.19971 5.84509)"/>
</clipPath>
</defs>
</svg>
