<svg width="27" height="27" viewBox="0 0 27 27" fill="none" xmlns="http://www.w3.org/2000/svg">
<rect x="0.333008" y="0.445068" width="25.9556" height="25.9556" rx="12.9778" fill="#F6F6FD"/>
<g clip-path="url(#clip0_3496_29717)">
<path d="M13.3114 13.423C14.6633 11.4223 13.3114 8.69155 12.6355 8.01562C12.6355 10.0691 11.4371 11.2202 10.6077 12.0712C9.77903 12.9229 9.25586 14.2612 9.25586 15.4508C9.25586 16.5264 9.68314 17.558 10.4437 18.3185C11.2043 19.0791 12.2358 19.5064 13.3114 19.5064C14.387 19.5064 15.4186 19.0791 16.1791 18.3185C16.9397 17.558 17.367 16.5264 17.367 15.4508C17.367 14.4153 16.6532 12.7877 16.0151 12.0712C14.8079 14.099 14.1286 14.099 13.3114 13.423Z" stroke="#8C81FF" stroke-width="1.21667" stroke-linecap="round" stroke-linejoin="round"/>
</g>
<defs>
<clipPath id="clip0_3496_29717">
<rect width="16.2222" height="16.2222" fill="white" transform="translate(5.19971 5.31177)"/>
</clipPath>
</defs>
</svg>
