<svg width="17" height="18" viewBox="0 0 17 18" fill="none" xmlns="http://www.w3.org/2000/svg">
<path d="M10.3502 11.0389L12.6146 13.3032M6.29466 11.0389L4.03031 13.3032M4.03031 4.71894L6.29466 6.98329M12.6146 4.71894L10.3502 6.98329M5.61874 9.01107C5.61874 9.72814 5.90359 10.4158 6.41063 10.9229C6.91768 11.4299 7.60537 11.7148 8.32244 11.7148C9.03951 11.7148 9.72721 11.4299 10.2343 10.9229C10.7413 10.4158 11.0261 9.72814 11.0261 9.01107C11.0261 8.294 10.7413 7.60631 10.2343 7.09926C9.72721 6.59222 9.03951 6.30737 8.32244 6.30737C7.60537 6.30737 6.91768 6.59222 6.41063 7.09926C5.90359 7.60631 5.61874 8.294 5.61874 9.01107ZM2.23911 9.01107C2.23911 9.80995 2.39646 10.601 2.70217 11.3391C3.00789 12.0771 3.45598 12.7478 4.02087 13.3126C4.58576 13.8775 5.25639 14.3256 5.99445 14.6313C6.73251 14.9371 7.52357 15.0944 8.32244 15.0944C9.12132 15.0944 9.91237 14.9371 10.6504 14.6313C11.3885 14.3256 12.0591 13.8775 12.624 13.3126C13.1889 12.7478 13.637 12.0771 13.9427 11.3391C14.2484 10.601 14.4058 9.80995 14.4058 9.01107C14.4058 8.2122 14.2484 7.42114 13.9427 6.68308C13.637 5.94502 13.1889 5.27439 12.624 4.7095C12.0591 4.14461 11.3885 3.69652 10.6504 3.3908C9.91237 3.08508 9.12132 2.92773 8.32244 2.92773C7.52357 2.92773 6.73251 3.08508 5.99445 3.3908C5.25639 3.69652 4.58576 4.14461 4.02087 4.7095C3.45598 5.27439 3.00789 5.94502 2.70217 6.68308C2.39646 7.42114 2.23911 8.2122 2.23911 9.01107Z" stroke="#5F5E5E" stroke-width="1.095" stroke-linecap="round" stroke-linejoin="round"/>
</svg>
