<svg width="6" height="6" viewBox="0 0 6 6" fill="none" xmlns="http://www.w3.org/2000/svg">
<g clip-path="url(#clip0_3676_962)">
<path d="M2.7171 3.90598V4.1065C2.7171 4.26605 2.78048 4.41906 2.8933 4.53188C3.00611 4.6447 3.15913 4.70808 3.31868 4.70808C3.47822 4.70808 3.63124 4.6447 3.74405 4.53188C3.85687 4.41906 3.92025 4.26605 3.92025 4.1065V3.90598M2.91763 1.49968C2.91763 1.39332 2.95988 1.29131 3.03509 1.2161C3.1103 1.14089 3.21231 1.09863 3.31868 1.09863C3.42504 1.09863 3.52705 1.14089 3.60226 1.2161C3.67747 1.29131 3.71973 1.39332 3.71973 1.49968C3.95001 1.60857 4.14632 1.77808 4.28762 1.99003C4.42892 2.20197 4.50988 2.44838 4.52182 2.70283V3.30441C4.53691 3.42907 4.58107 3.54846 4.65072 3.65294C4.72038 3.75743 4.8136 3.8441 4.92287 3.90598H1.71448C1.82375 3.8441 1.91697 3.75743 1.98663 3.65294C2.05629 3.54846 2.10044 3.42907 2.11553 3.30441V2.70283C2.12747 2.44838 2.20843 2.20197 2.34973 1.99003C2.49103 1.77808 2.68734 1.60857 2.91763 1.49968Z" stroke="#5F5E5E" stroke-width="0.32485" stroke-linecap="round" stroke-linejoin="round"/>
</g>
<defs>
<clipPath id="clip0_3676_962">
<rect width="4.81259" height="4.81259" fill="white" transform="translate(0.912476 0.496948)"/>
</clipPath>
</defs>
</svg>
