<svg width="17" height="17" viewBox="0 0 17 17" fill="none" xmlns="http://www.w3.org/2000/svg">
<rect x="0.244385" y="0.0860596" width="16.4385" height="16.4385" rx="8.21926" fill="#F6F6FD"/>
<g clip-path="url(#clip0_3674_23778)">
<path d="M8.46403 8.30531C9.3202 7.03817 8.46403 5.3087 8.03594 4.88062C8.03594 6.18114 7.27694 6.91017 6.75168 7.44913C6.22685 7.98852 5.89551 8.83613 5.89551 9.58957C5.89551 10.2708 6.16612 10.9241 6.64781 11.4058C7.1295 11.8875 7.78281 12.1581 8.46403 12.1581C9.14524 12.1581 9.79855 11.8875 10.2802 11.4058C10.7619 10.9241 11.0325 10.2708 11.0325 9.58957C11.0325 8.93374 10.5805 7.90291 10.1764 7.44913C9.41181 8.73339 8.98158 8.73339 8.46403 8.30531Z" stroke="#8C81FF" stroke-width="0.770556" stroke-linecap="round" stroke-linejoin="round"/>
</g>
<defs>
<clipPath id="clip0_3674_23778">
<rect width="10.2741" height="10.2741" fill="white" transform="translate(3.32666 3.16833)"/>
</clipPath>
</defs>
</svg>
