<svg width="11" height="12" viewBox="0 0 11 12" fill="none" xmlns="http://www.w3.org/2000/svg">
<g clip-path="url(#clip0_3676_623)">
<path d="M7.08845 7.29133L8.52254 8.72542M4.51993 7.29133L3.08584 8.72542M3.08584 3.28873L4.51993 4.72282M8.52254 3.28873L7.08845 4.72282M4.09185 6.00707C4.09185 6.46122 4.27226 6.89676 4.59338 7.21789C4.91451 7.53901 5.35005 7.71942 5.80419 7.71942C6.25834 7.71942 6.69388 7.53901 7.015 7.21789C7.33613 6.89676 7.51654 6.46122 7.51654 6.00707C7.51654 5.55293 7.33613 5.11739 7.015 4.79626C6.69388 4.47514 6.25834 4.29473 5.80419 4.29473C5.35005 4.29473 4.91451 4.47514 4.59338 4.79626C4.27226 5.11739 4.09185 5.55293 4.09185 6.00707ZM1.95142 6.00708C1.95142 6.51303 2.05107 7.01403 2.24469 7.48147C2.43831 7.94891 2.7221 8.37364 3.07987 8.7314C3.43763 9.08916 3.86236 9.37296 4.3298 9.56658C4.79724 9.7602 5.29824 9.85985 5.80419 9.85985C6.31015 9.85985 6.81115 9.7602 7.27859 9.56658C7.74603 9.37296 8.17076 9.08916 8.52852 8.7314C8.88628 8.37364 9.17008 7.94891 9.3637 7.48147C9.55732 7.01403 9.65697 6.51303 9.65697 6.00708C9.65697 5.50112 9.55732 5.00012 9.3637 4.53268C9.17008 4.06524 8.88628 3.64051 8.52852 3.28275C8.17076 2.92499 7.74603 2.64119 7.27859 2.44757C6.81115 2.25395 6.31015 2.1543 5.80419 2.1543C5.29824 2.1543 4.79724 2.25395 4.3298 2.44757C3.86236 2.64119 3.43763 2.92499 3.07987 3.28275C2.7221 3.64051 2.43831 4.06524 2.24469 4.53268C2.05107 5.00012 1.95142 5.50112 1.95142 6.00708Z" stroke="#5F5E5E" stroke-width="0.6935" stroke-linecap="round" stroke-linejoin="round"/>
</g>
<defs>
<clipPath id="clip0_3676_623">
<rect width="10.2741" height="10.2741" fill="white" transform="translate(0.666992 0.869995)"/>
</clipPath>
</defs>
</svg>
