<svg width="17" height="18" viewBox="0 0 17 18" fill="none" xmlns="http://www.w3.org/2000/svg">
<path d="M7.74584 3.81793C8.03378 2.631 9.72225 2.631 10.0102 3.81793C10.0534 3.99624 10.1381 4.16183 10.2574 4.30122C10.3767 4.44061 10.5272 4.54986 10.6967 4.62008C10.8662 4.69031 11.0499 4.71951 11.2328 4.70533C11.4157 4.69115 11.5927 4.63398 11.7493 4.53847C12.7923 3.9031 13.9867 5.09678 13.3513 6.14041C13.2559 6.29699 13.1988 6.47387 13.1847 6.65667C13.1705 6.83946 13.1997 7.02302 13.2699 7.19241C13.34 7.3618 13.4491 7.51226 13.5884 7.63154C13.7276 7.75082 13.893 7.83557 14.0712 7.8789C15.2581 8.16684 15.2581 9.8553 14.0712 10.1432C13.8928 10.1865 13.7273 10.2711 13.5879 10.3904C13.4485 10.5097 13.3392 10.6603 13.269 10.8298C13.1988 10.9993 13.1696 11.1829 13.1838 11.3659C13.1979 11.5488 13.2551 11.7258 13.3506 11.8824C13.986 12.9254 12.7923 14.1197 11.7487 13.4844C11.5921 13.389 11.4152 13.3319 11.2324 13.3177C11.0496 13.3036 10.8661 13.3328 10.6967 13.4029C10.5273 13.4731 10.3768 13.5822 10.2575 13.7214C10.1383 13.8607 10.0535 14.0261 10.0102 14.2042C9.72225 15.3911 8.03378 15.3911 7.74584 14.2042C7.70263 14.0259 7.61794 13.8603 7.49865 13.7209C7.37935 13.5815 7.22883 13.4723 7.05933 13.4021C6.88984 13.3318 6.70615 13.3026 6.52323 13.3168C6.34031 13.331 6.16333 13.3882 6.00668 13.4837C4.96373 14.119 3.76936 12.9254 4.40473 11.8817C4.50011 11.7251 4.55719 11.5483 4.57134 11.3655C4.58549 11.1827 4.55631 10.9991 4.48616 10.8297C4.41602 10.6603 4.3069 10.5099 4.16767 10.3906C4.02844 10.2713 3.86302 10.1866 3.68487 10.1432C2.49795 9.8553 2.49795 8.16684 3.68487 7.8789C3.86318 7.83569 4.02877 7.751 4.16816 7.6317C4.30755 7.51241 4.4168 7.36189 4.48703 7.19239C4.55725 7.02289 4.58646 6.83921 4.57228 6.65629C4.55809 6.47337 4.50092 6.29638 4.40541 6.13974C3.77004 5.09678 4.96373 3.90242 6.00736 4.53779C6.68328 4.94875 7.55928 4.58511 7.74584 3.81793Z" stroke="#5F5E5E" stroke-width="1.095" stroke-linecap="round" stroke-linejoin="round"/>
<path d="M6.85024 9.01107C6.85024 9.54887 7.06388 10.0646 7.44416 10.4449C7.82444 10.8252 8.34021 11.0389 8.87802 11.0389C9.41582 11.0389 9.93159 10.8252 10.3119 10.4449C10.6922 10.0646 10.9058 9.54887 10.9058 9.01107C10.9058 8.47327 10.6922 7.9575 10.3119 7.57722C9.93159 7.19693 9.41582 6.98329 8.87802 6.98329C8.34021 6.98329 7.82444 7.19693 7.44416 7.57722C7.06388 7.9575 6.85024 8.47327 6.85024 9.01107Z" stroke="#5F5E5E" stroke-width="1.095" stroke-linecap="round" stroke-linejoin="round"/>
</svg>
