<svg width="17" height="17" viewBox="0 0 17 17" fill="none" xmlns="http://www.w3.org/2000/svg">
<rect x="0.244385" y="0.414795" width="16.4385" height="16.4385" rx="8.21926" fill="#F6F6FD"/>
<g clip-path="url(#clip0_3674_23787)">
<path d="M8.46403 8.63416C9.3202 7.36703 8.46403 5.63756 8.03594 5.20947C8.03594 6.51 7.27694 7.23903 6.75168 7.77799C6.22685 8.31738 5.89551 9.16499 5.89551 9.91842C5.89551 10.5996 6.16612 11.253 6.64781 11.7346C7.1295 12.2163 7.78281 12.4869 8.46403 12.4869C9.14524 12.4869 9.79855 12.2163 10.2802 11.7346C10.7619 11.253 11.0325 10.5996 11.0325 9.91842C11.0325 9.2626 10.5805 8.23176 10.1764 7.77799C9.41181 9.06225 8.98158 9.06225 8.46403 8.63416Z" stroke="#8C81FF" stroke-width="0.770556" stroke-linecap="round" stroke-linejoin="round"/>
</g>
<defs>
<clipPath id="clip0_3674_23787">
<rect width="10.2741" height="10.2741" fill="white" transform="translate(3.32666 3.49707)"/>
</clipPath>
</defs>
</svg>
