<svg width="27" height="27" viewBox="0 0 27 27" fill="none" xmlns="http://www.w3.org/2000/svg">
<rect x="0.333252" y="0.978394" width="25.9556" height="25.9556" rx="12.9778" fill="#F6F6FD"/>
<g clip-path="url(#clip0_3496_29708)">
<path d="M13.3117 13.9561C14.6635 11.9554 13.3117 9.22463 12.6357 8.54871C12.6357 10.6022 11.4373 11.7533 10.608 12.6043C9.77927 13.4559 9.2561 14.7943 9.2561 15.9839C9.2561 17.0595 9.68338 18.091 10.4439 18.8516C11.2045 19.6122 12.2361 20.0395 13.3117 20.0395C14.3873 20.0395 15.4188 19.6122 16.1794 18.8516C16.9399 18.091 17.3672 17.0595 17.3672 15.9839C17.3672 14.9484 16.6534 13.3207 16.0154 12.6043C14.8082 14.632 14.1289 14.632 13.3117 13.9561Z" stroke="#8C81FF" stroke-width="1.21667" stroke-linecap="round" stroke-linejoin="round"/>
</g>
<defs>
<clipPath id="clip0_3496_29708">
<rect width="16.2222" height="16.2222" fill="white" transform="translate(5.19995 5.84509)"/>
</clipPath>
</defs>
</svg>
