<svg width="6" height="6" viewBox="0 0 6 6" fill="none" xmlns="http://www.w3.org/2000/svg">
<g clip-path="url(#clip0_3676_958)">
<path d="M2.95139 1.36272C3.03681 1.0106 3.53772 1.0106 3.62315 1.36272C3.63596 1.41562 3.66109 1.46475 3.69648 1.5061C3.73187 1.54745 3.77652 1.57986 3.82681 1.6007C3.87709 1.62153 3.93159 1.63019 3.98585 1.62599C4.04012 1.62178 4.09262 1.60482 4.1391 1.57648C4.44851 1.38799 4.80283 1.74212 4.61434 2.05173C4.58605 2.09818 4.56911 2.15065 4.56491 2.20488C4.56072 2.25911 4.56937 2.31357 4.59018 2.36382C4.61099 2.41407 4.64336 2.45871 4.68467 2.4941C4.72597 2.52948 4.77505 2.55462 4.8279 2.56748C5.18002 2.6529 5.18002 3.15381 4.8279 3.23923C4.775 3.25205 4.72588 3.27718 4.68452 3.31257C4.64317 3.34796 4.61076 3.39261 4.58993 3.4429C4.56909 3.49318 4.56043 3.54767 4.56464 3.60194C4.56884 3.65621 4.5858 3.70871 4.61414 3.75518C4.80263 4.06459 4.44851 4.41892 4.1389 4.23043C4.09244 4.20213 4.03997 4.1852 3.98574 4.181C3.93151 4.1768 3.87706 4.18546 3.8268 4.20627C3.77655 4.22708 3.73191 4.25945 3.69653 4.30076C3.66114 4.34206 3.636 4.39114 3.62315 4.44399C3.53772 4.79611 3.03681 4.79611 2.95139 4.44399C2.93857 4.39109 2.91344 4.34196 2.87805 4.30061C2.84266 4.25926 2.79801 4.22685 2.74772 4.20602C2.69744 4.18518 2.64295 4.17652 2.58868 4.18072C2.53442 4.18493 2.48191 4.20189 2.43544 4.23023C2.12603 4.41872 1.7717 4.06459 1.96019 3.75498C1.98849 3.70853 2.00542 3.65606 2.00962 3.60183C2.01382 3.5476 2.00516 3.49315 1.98435 3.44289C1.96354 3.39264 1.93117 3.348 1.88986 3.31262C1.84856 3.27723 1.79949 3.25209 1.74664 3.23923C1.39451 3.15381 1.39451 2.6529 1.74664 2.56748C1.79953 2.55466 1.84866 2.52953 1.89001 2.49414C1.93136 2.45875 1.96377 2.4141 1.98461 2.36381C2.00544 2.31353 2.01411 2.25904 2.0099 2.20477C2.00569 2.1505 1.98873 2.098 1.96039 2.05153C1.7719 1.74212 2.12603 1.38779 2.43564 1.57628C2.63616 1.6982 2.89604 1.59032 2.95139 1.36272Z" stroke="#5F5E5E" stroke-width="0.32485" stroke-linecap="round" stroke-linejoin="round"/>
<path d="M2.68569 2.90336C2.68569 3.0629 2.74907 3.21592 2.86189 3.32873C2.97471 3.44155 3.12772 3.50493 3.28727 3.50493C3.44681 3.50493 3.59983 3.44155 3.71264 3.32873C3.82546 3.21592 3.88884 3.0629 3.88884 2.90336C3.88884 2.74381 3.82546 2.5908 3.71264 2.47798C3.59983 2.36516 3.44681 2.30178 3.28727 2.30178C3.12772 2.30178 2.97471 2.36516 2.86189 2.47798C2.74907 2.5908 2.68569 2.74381 2.68569 2.90336Z" stroke="#5F5E5E" stroke-width="0.32485" stroke-linecap="round" stroke-linejoin="round"/>
</g>
<defs>
<clipPath id="clip0_3676_958">
<rect width="4.81259" height="4.81259" fill="white" transform="translate(0.880981 0.496948)"/>
</clipPath>
</defs>
</svg>
