<svg width="17" height="18" viewBox="0 0 17 18" fill="none" xmlns="http://www.w3.org/2000/svg">
<path d="M6.40591 12.3907V13.0666C6.40591 13.6044 6.61955 14.1202 6.99983 14.5005C7.38011 14.8808 7.89589 15.0944 8.43369 15.0944C8.97149 15.0944 9.48726 14.8808 9.86754 14.5005C10.2478 14.1202 10.4615 13.6044 10.4615 13.0666V12.3907M7.08183 4.27959C7.08183 3.92105 7.22426 3.5772 7.47778 3.32368C7.7313 3.07016 8.07515 2.92773 8.43369 2.92773C8.79222 2.92773 9.13607 3.07016 9.38959 3.32368C9.64311 3.5772 9.78554 3.92105 9.78554 4.27959C10.5618 4.64663 11.2235 5.21799 11.6998 5.93243C12.1761 6.64687 12.449 7.47744 12.4892 8.33515V10.3629C12.5401 10.7832 12.6889 11.1856 12.9237 11.5378C13.1585 11.89 13.4728 12.1821 13.8411 12.3907H3.02628C3.39461 12.1821 3.70883 11.89 3.94363 11.5378C4.17844 11.1856 4.32726 10.7832 4.37813 10.3629V8.33515C4.41839 7.47744 4.69129 6.64687 5.16758 5.93243C5.64387 5.21799 6.30559 4.64663 7.08183 4.27959Z" stroke="#5F5E5E" stroke-width="1.095" stroke-linecap="round" stroke-linejoin="round"/>
</svg>
