<svg width="17" height="18" viewBox="0 0 17 18" fill="none" xmlns="http://www.w3.org/2000/svg">
<path d="M10.3504 11.0389L12.6147 13.3032M6.29482 11.0389L4.03046 13.3032M4.03046 4.71894L6.29482 6.98329M12.6147 4.71894L10.3504 6.98329M5.61889 9.01107C5.61889 9.72814 5.90374 10.4158 6.41079 10.9229C6.91783 11.4299 7.60553 11.7148 8.32259 11.7148C9.03966 11.7148 9.72736 11.4299 10.2344 10.9229C10.7414 10.4158 11.0263 9.72814 11.0263 9.01107C11.0263 8.294 10.7414 7.60631 10.2344 7.09926C9.72736 6.59222 9.03966 6.30737 8.32259 6.30737C7.60553 6.30737 6.91783 6.59222 6.41079 7.09926C5.90374 7.60631 5.61889 8.294 5.61889 9.01107ZM2.23926 9.01107C2.23926 9.80995 2.39661 10.601 2.70232 11.3391C3.00804 12.0771 3.45614 12.7478 4.02103 13.3126C4.58592 13.8775 5.25654 14.3256 5.9946 14.6313C6.73267 14.9371 7.52372 15.0944 8.3226 15.0944C9.12147 15.0944 9.91252 14.9371 10.6506 14.6313C11.3887 14.3256 12.0593 13.8775 12.6242 13.3126C13.1891 12.7478 13.6372 12.0771 13.9429 11.3391C14.2486 10.601 14.4059 9.80995 14.4059 9.01107C14.4059 8.2122 14.2486 7.42114 13.9429 6.68308C13.6372 5.94502 13.1891 5.27439 12.6242 4.7095C12.0593 4.14461 11.3887 3.69652 10.6506 3.3908C9.91252 3.08508 9.12147 2.92773 8.3226 2.92773C7.52372 2.92773 6.73267 3.08508 5.9946 3.3908C5.25654 3.69652 4.58592 4.14461 4.02103 4.7095C3.45614 5.27439 3.00804 5.94502 2.70232 6.68308C2.39661 7.42114 2.23926 8.2122 2.23926 9.01107Z" stroke="#5F5E5E" stroke-width="1.095" stroke-linecap="round" stroke-linejoin="round"/>
</svg>
