<svg width="9" height="9" viewBox="0 0 9 9" fill="none" xmlns="http://www.w3.org/2000/svg">
<rect x="0.935669" y="0.953613" width="7.70015" height="7.70015" rx="3.85008" fill="#F6F6FD"/>
<g clip-path="url(#clip0_3674_26980)">
<path d="M4.78591 4.80378C5.18696 4.21023 4.78591 3.40011 4.58539 3.19958C4.58539 3.80878 4.22986 4.15027 3.98381 4.40273C3.73797 4.65539 3.58276 5.05243 3.58276 5.40536C3.58276 5.72445 3.70952 6.03048 3.93516 6.25611C4.16079 6.48175 4.46682 6.60851 4.78591 6.60851C5.10501 6.60851 5.41103 6.48175 5.63667 6.25611C5.8623 6.03048 5.98906 5.72445 5.98906 5.40536C5.98906 5.09815 5.77731 4.61529 5.58801 4.40273C5.22987 5.00431 5.02835 5.00431 4.78591 4.80378Z" stroke="#8C81FF" stroke-width="0.360945" stroke-linecap="round" stroke-linejoin="round"/>
</g>
<defs>
<clipPath id="clip0_3674_26980">
<rect width="4.81259" height="4.81259" fill="white" transform="translate(2.37952 2.39746)"/>
</clipPath>
</defs>
</svg>
