<svg width="18" height="17" viewBox="0 0 18 17" fill="none" xmlns="http://www.w3.org/2000/svg">
<rect x="0.931396" y="0.414795" width="16.4385" height="16.4385" rx="8.21926" fill="#E6E2E1"/>
<g clip-path="url(#clip0_3674_23818)">
<path d="M5.72656 6.49375C5.72656 6.26667 5.81677 6.0489 5.97733 5.88834C6.13789 5.72778 6.35566 5.63757 6.58274 5.63757H11.7198C11.9468 5.63757 12.1646 5.72778 12.3252 5.88834C12.4857 6.0489 12.5759 6.26667 12.5759 6.49375V11.6308C12.5759 11.8579 12.4857 12.0756 12.3252 12.2362C12.1646 12.3968 11.9468 12.487 11.7198 12.487H6.58274C6.35566 12.487 6.13789 12.3968 5.97733 12.2362C5.81677 12.0756 5.72656 11.8579 5.72656 11.6308V6.49375Z" stroke="#797776" stroke-width="0.770556" stroke-linecap="round" stroke-linejoin="round"/>
<path d="M10.8633 4.78137V6.49372" stroke="#797776" stroke-width="0.770556" stroke-linecap="round" stroke-linejoin="round"/>
<path d="M7.43823 4.78137V6.49372" stroke="#797776" stroke-width="0.770556" stroke-linecap="round" stroke-linejoin="round"/>
<path d="M5.72656 8.20605H12.5759" stroke="#797776" stroke-width="0.770556" stroke-linecap="round" stroke-linejoin="round"/>
<path d="M7.43823 9.91846H8.29441V10.7746H7.43823V9.91846Z" stroke="#797776" stroke-width="0.770556" stroke-linecap="round" stroke-linejoin="round"/>
</g>
<defs>
<clipPath id="clip0_3674_23818">
<rect width="10.2741" height="10.2741" fill="white" transform="translate(4.01367 3.49707)"/>
</clipPath>
</defs>
</svg>
