<svg width="9" height="9" viewBox="0 0 9 9" fill="none" xmlns="http://www.w3.org/2000/svg">
<rect x="0.94165" y="0.953613" width="7.70015" height="7.70015" rx="3.85008" fill="#E6E2E1"/>
<g clip-path="url(#clip0_3674_27011)">
<path d="M3.18774 3.80107C3.18774 3.69471 3.23 3.5927 3.30521 3.51749C3.38042 3.44228 3.48243 3.40002 3.58879 3.40002H5.99509C6.10146 3.40002 6.20346 3.44228 6.27868 3.51749C6.35389 3.5927 6.39614 3.69471 6.39614 3.80107V6.20737C6.39614 6.31374 6.35389 6.41574 6.27868 6.49096C6.20346 6.56617 6.10146 6.60842 5.99509 6.60842H3.58879C3.48243 6.60842 3.38042 6.56617 3.30521 6.49096C3.23 6.41574 3.18774 6.31374 3.18774 6.20737V3.80107Z" stroke="#797776" stroke-width="0.360945" stroke-linecap="round" stroke-linejoin="round"/>
<path d="M5.59399 2.99902V3.80112" stroke="#797776" stroke-width="0.360945" stroke-linecap="round" stroke-linejoin="round"/>
<path d="M3.98962 2.99902V3.80112" stroke="#797776" stroke-width="0.360945" stroke-linecap="round" stroke-linejoin="round"/>
<path d="M3.18774 4.60327H6.39614" stroke="#797776" stroke-width="0.360945" stroke-linecap="round" stroke-linejoin="round"/>
<path d="M3.98962 5.4054H4.39067V5.80644H3.98962V5.4054Z" stroke="#797776" stroke-width="0.360945" stroke-linecap="round" stroke-linejoin="round"/>
</g>
<defs>
<clipPath id="clip0_3674_27011">
<rect width="4.81259" height="4.81259" fill="white" transform="translate(2.3855 2.39746)"/>
</clipPath>
</defs>
</svg>
