<svg width="27" height="27" viewBox="0 0 27 27" fill="none" xmlns="http://www.w3.org/2000/svg">
<rect x="0.333252" y="0.445068" width="25.9556" height="25.9556" rx="12.9778" fill="#F6F6FD"/>
<g clip-path="url(#clip0_3496_29717)">
<path d="M13.3117 13.423C14.6635 11.4223 13.3117 8.69155 12.6357 8.01562C12.6357 10.0691 11.4373 11.2202 10.608 12.0712C9.77927 12.9229 9.2561 14.2612 9.2561 15.4508C9.2561 16.5264 9.68338 17.558 10.4439 18.3185C11.2045 19.0791 12.2361 19.5064 13.3117 19.5064C14.3873 19.5064 15.4188 19.0791 16.1794 18.3185C16.9399 17.558 17.3672 16.5264 17.3672 15.4508C17.3672 14.4153 16.6534 12.7877 16.0154 12.0712C14.8082 14.099 14.1289 14.099 13.3117 13.423Z" stroke="#8C81FF" stroke-width="1.21667" stroke-linecap="round" stroke-linejoin="round"/>
</g>
<defs>
<clipPath id="clip0_3496_29717">
<rect width="16.2222" height="16.2222" fill="white" transform="translate(5.19995 5.31177)"/>
</clipPath>
</defs>
</svg>
