<svg width="9" height="8" viewBox="0 0 9 8" fill="none" xmlns="http://www.w3.org/2000/svg">
<rect x="0.941528" y="0.178467" width="7.70015" height="7.70015" rx="3.85008" fill="#E6E2E1"/>
<g clip-path="url(#clip0_3674_26998)">
<path d="M3.18762 3.02593C3.18762 2.91956 3.22988 2.81755 3.30509 2.74234C3.3803 2.66713 3.48231 2.62488 3.58867 2.62488H5.99497C6.10133 2.62488 6.20334 2.66713 6.27855 2.74234C6.35376 2.81755 6.39602 2.91956 6.39602 3.02593V5.43222C6.39602 5.53859 6.35376 5.6406 6.27855 5.71581C6.20334 5.79102 6.10133 5.83327 5.99497 5.83327H3.58867C3.48231 5.83327 3.3803 5.79102 3.30509 5.71581C3.22988 5.6406 3.18762 5.53859 3.18762 5.43222V3.02593Z" stroke="#797776" stroke-width="0.360945" stroke-linecap="round" stroke-linejoin="round"/>
<path d="M5.59387 2.22375V3.02585" stroke="#797776" stroke-width="0.360945" stroke-linecap="round" stroke-linejoin="round"/>
<path d="M3.9895 2.22375V3.02585" stroke="#797776" stroke-width="0.360945" stroke-linecap="round" stroke-linejoin="round"/>
<path d="M3.18762 3.828H6.39602" stroke="#797776" stroke-width="0.360945" stroke-linecap="round" stroke-linejoin="round"/>
<path d="M3.9895 4.63013H4.39055V5.03118H3.9895V4.63013Z" stroke="#797776" stroke-width="0.360945" stroke-linecap="round" stroke-linejoin="round"/>
</g>
<defs>
<clipPath id="clip0_3674_26998">
<rect width="4.81259" height="4.81259" fill="white" transform="translate(2.38538 1.62219)"/>
</clipPath>
</defs>
</svg>
