<svg width="471" height="63" viewBox="0 0 471 63" fill="none" xmlns="http://www.w3.org/2000/svg">
<g clip-path="url(#clip0_3496_29826)">
<path d="M164.668 23.4573L158.918 21.7917L159.76 18.9103L165.509 20.5759L164.668 23.4573Z" fill="#E8008B"/>
<path d="M128.714 14.9816L126.483 17.7096L127.853 18.8398L130.084 16.0728L128.714 14.9816Z" fill="#E8008B"/>
<path d="M328.615 33.457L327.18 36.7031L325.568 35.9968L327.003 32.7507L328.615 33.457Z" fill="#E8008B"/>
<path d="M284.326 54.9796L288.288 55.4689L288.042 57.4414L284.08 56.9521L284.326 54.9796Z" fill="#A182BA"/>
<path d="M16.3253 31.7935L17.7825 28.0508L19.6435 28.7692L18.1864 32.5119L16.3253 31.7935Z" fill="#00ACEA"/>
<path d="M387.834 47.3625L382.644 44.9812L383.84 42.3973L389.029 44.7786L387.834 47.3625Z" fill="#FFEE00"/>
<path d="M224.709 58.3225L225.382 52.2014L228.455 52.5366L227.782 58.6576L224.709 58.3225Z" fill="#FFEE00"/>
<path d="M74.0533 67.4802L74.7266 61.3591L77.8001 61.6943L77.1269 67.8153L74.0533 67.4802Z" fill="#FFEE00"/>
<path d="M137.046 35.1892L136.125 31.5219L137.985 31.0586L138.906 34.726L137.046 35.1892Z" fill="#E8008B"/>
<path d="M20.2386 45.752L16.6011 52.873L13.0079 51.0532L16.6455 43.9321L20.2386 45.752Z" fill="#8E268D"/>
<path d="M107.211 37.8173L105.545 40.8188L104.038 39.9893L105.704 36.9878L107.211 37.8173Z" fill="#E8008B"/>
<path d="M126.619 31.73L125.807 36.0986L123.613 35.6942L124.425 31.3256L126.619 31.73Z" fill="#FFEE00"/>
<path d="M420.864 46.1395L413.707 45.8583L413.849 42.2756L421.006 42.5569L420.864 46.1395Z" fill="#8AC13E"/>
<path d="M125.241 0.464073L122.001 2.91797L120.769 1.30505L124.008 -1.14885L125.241 0.464073Z" fill="#E8008B"/>
<path d="M47.7102 45.9886L46.2073 51.8812L43.2484 51.133L44.7513 45.2403L47.7102 45.9886Z" fill="#A182BA"/>
<path d="M452.623 43.3129L455.277 46.4375L453.723 47.7461L451.069 44.6215L452.623 43.3129Z" fill="#00ACEA"/>
<path d="M246.927 40.821L248.971 46.674L246.05 47.6849L244.007 41.832L246.927 40.821Z" fill="#8E268D"/>
<path d="M157.99 48.0301L156.346 44.6395L154.663 45.4579L156.307 48.8485L157.99 48.0301Z" fill="#E81B26"/>
<path d="M435.331 13.4096L433.724 9.18152L435.847 8.38142L437.454 12.6095L435.331 13.4096Z" fill="#8AC13E"/>
<path d="M82.228 7.50899L84.9878 5.32935L86.0823 6.70337L83.3225 8.88302L82.228 7.50899Z" fill="#A182BA"/>
<path d="M386.922 9.88015L386.434 14.3748L384.177 14.1318L384.665 9.63721L386.922 9.88015Z" fill="#8E268D"/>
<path d="M206.003 41.9839L205.015 35.3138L208.383 34.8191L209.371 41.4892L206.003 41.9839Z" fill="#A182BA"/>
<path d="M456.309 28.1913L458.418 25.0947L459.973 26.1446L457.864 29.2412L456.309 28.1913Z" fill="#E8008B"/>
<path d="M300.574 11.9353L301.736 7.84778L303.807 8.4314L302.645 12.5189L300.574 11.9353Z" fill="#E8008B"/>
<path d="M322.331 17.6938L320.161 14.0822L321.974 13.0014L324.145 16.613L322.331 17.6938Z" fill="#A182BA"/>
<path d="M294.728 1.36435L291.032 -2.82056L293.148 -4.67363L296.844 -0.488731L294.728 1.36435Z" fill="#00ACEA"/>
<path d="M451.12 2.47175L453.734 -1.55396L455.772 -0.242194L453.158 3.78351L451.12 2.47175Z" fill="#E81B26"/>
<path d="M344.086 12.2927L346.985 7.70923L349.303 9.16335L346.404 13.7468L344.086 12.2927Z" fill="#A182BA"/>
<path d="M328.982 54.3743L334.285 53.3536L334.797 55.9939L329.494 57.0145L328.982 54.3743Z" fill="#E8008B"/>
<path d="M397.596 27.8213L394.258 25.303L395.511 23.6566L398.848 26.1749L397.596 27.8213Z" fill="#00ACEA"/>
<path d="M435.632 60.9144L437.331 57.5339L439.011 58.3713L437.312 61.7517L435.632 60.9144Z" fill="#E8008B"/>
<path d="M44.2517 15.683L39.7793 18.6982L38.2653 16.4715L42.7377 13.4563L44.2517 15.683Z" fill="#A182BA"/>
<path d="M287.843 36.3889L281.598 38.8934L280.341 35.7845L286.585 33.28L287.843 36.3889Z" fill="#FFEE00"/>
<path d="M63.5847 29.8696L61.6208 24.4019L64.3479 23.4306L66.3118 28.8983L63.5847 29.8696Z" fill="#8E268D"/>
<path d="M191.324 59.5489L186.757 64.7876L184.126 62.5139L188.693 57.2752L191.324 59.5489Z" fill="#A182BA"/>
<path d="M414.772 9.13034L415.425 3.83093L418.105 4.15865L417.452 9.45806L414.772 9.13034Z" fill="#8E268D"/>
<path d="M191.334 24.257L191.53 27.8035L193.291 27.6866L193.095 24.1791L191.334 24.257Z" fill="#8E268D"/>
<path d="M224.547 0.279074L219.459 0.303833L219.447 -2.22933L224.534 -2.25409L224.547 0.279074Z" fill="#00ACEA"/>
<path d="M146.738 3.58146L141.869 7.37756L139.963 4.95342L144.831 1.15732L146.738 3.58146Z" fill="#8E268D"/>
<path d="M364.483 59L361.424 64.2615L358.782 62.7383L361.841 57.4769L364.483 59Z" fill="#8AC13E"/>
<path d="M362.767 6.66586L365.188 10.5361L363.228 11.7519L360.807 7.88162L362.767 6.66586Z" fill="#FFEE00"/>
<path d="M215.237 21.4234L219.528 20.5286L219.977 22.6647L215.687 23.5595L215.237 21.4234Z" fill="#A182BA"/>
</g>
<defs>
<clipPath id="clip0_3496_29826">
<rect width="469.66" height="324.445" fill="white" transform="matrix(-1 0 0 1 470.273 -220.333)"/>
</clipPath>
</defs>
</svg>
