<svg width="140" height="19" viewBox="0 0 140 19" fill="none" xmlns="http://www.w3.org/2000/svg">
<g clip-path="url(#clip0_3674_27089)">
<path d="M49.2848 7.10569L47.579 6.61157L47.8287 5.75675L49.5345 6.25087L49.2848 7.10569Z" fill="#E8008B"/>
<path d="M38.6186 4.59131L37.9568 5.40063L38.3632 5.73592L39.025 4.91504L38.6186 4.59131Z" fill="#E8008B"/>
<path d="M97.9225 10.0723L97.4969 11.0353L97.0187 10.8257L97.4442 9.86272L97.9225 10.0723Z" fill="#E8008B"/>
<path d="M84.7835 16.4574L85.9589 16.6025L85.886 17.1877L84.7107 17.0426L84.7835 16.4574Z" fill="#A182BA"/>
<path d="M5.27658 9.57885L5.70886 8.46851L6.26098 8.68164L5.8287 9.79198L5.27658 9.57885Z" fill="#00ACEA"/>
<path d="M115.491 14.1975L113.951 13.4911L114.306 12.7245L115.846 13.431L115.491 14.1975Z" fill="#FFEE00"/>
<path d="M67.0969 17.4491L67.2966 15.6332L68.2085 15.7326L68.0087 17.5485L67.0969 17.4491Z" fill="#FFEE00"/>
<path d="M22.4026 20.1659L22.6023 18.35L23.5141 18.4494L23.3144 20.2653L22.4026 20.1659Z" fill="#FFEE00"/>
<path d="M41.0904 10.5862L40.8171 9.49817L41.3691 9.36073L41.6423 10.4487L41.0904 10.5862Z" fill="#E8008B"/>
<path d="M6.43753 13.7198L5.3584 15.8324L4.29243 15.2925L5.37157 13.1799L6.43753 13.7198Z" fill="#8E268D"/>
<path d="M32.2395 11.3659L31.7452 12.2563L31.2981 12.0103L31.7924 11.1198L32.2395 11.3659Z" fill="#E8008B"/>
<path d="M37.997 9.55994L37.756 10.856L37.1052 10.736L37.3462 9.43996L37.997 9.55994Z" fill="#FFEE00"/>
<path d="M125.29 13.8348L123.167 13.7513L123.209 12.6885L125.332 12.7719L125.29 13.8348Z" fill="#8AC13E"/>
<path d="M37.588 0.284462L36.627 1.01245L36.2614 0.533951L37.2225 -0.194038L37.588 0.284462Z" fill="#E8008B"/>
<path d="M14.5875 13.7901L14.1416 15.5382L13.2638 15.3162L13.7097 13.5681L14.5875 13.7901Z" fill="#A182BA"/>
<path d="M134.712 12.9963L135.499 13.9232L135.038 14.3114L134.251 13.3845L134.712 12.9963Z" fill="#00ACEA"/>
<path d="M73.6886 12.2569L74.2948 13.9933L73.4284 14.2932L72.8222 12.5568L73.6886 12.2569Z" fill="#8E268D"/>
<path d="M47.3037 14.3956L46.816 13.3898L46.3168 13.6326L46.8044 14.6384L47.3037 14.3956Z" fill="#E81B26"/>
<path d="M129.582 4.12494L129.105 2.87061L129.735 2.63324L130.211 3.88758L129.582 4.12494Z" fill="#8AC13E"/>
<path d="M24.8278 2.37441L25.6465 1.72778L25.9712 2.13541L25.1524 2.78204L24.8278 2.37441Z" fill="#A182BA"/>
<path d="M115.22 3.07786L115.075 4.41125L114.406 4.33918L114.551 3.00578L115.22 3.07786Z" fill="#8E268D"/>
<path d="M61.5475 12.602L61.2544 10.6232L62.2537 10.4764L62.5468 12.4552L61.5475 12.602Z" fill="#A182BA"/>
<path d="M135.805 8.51021L136.431 7.59155L136.892 7.90301L136.267 8.82166L135.805 8.51021Z" fill="#E8008B"/>
<path d="M89.6036 3.68747L89.9482 2.47485L90.5627 2.648L90.2181 3.86062L89.6036 3.68747Z" fill="#E8008B"/>
<path d="M96.0584 5.3959L95.4144 4.32446L95.9524 4.00384L96.5964 5.07528L96.0584 5.3959Z" fill="#A182BA"/>
<path d="M87.8695 0.551457L86.7729 -0.690063L87.4007 -1.23981L88.4972 0.00171117L87.8695 0.551457Z" fill="#00ACEA"/>
<path d="M134.266 0.879962L135.041 -0.314331L135.646 0.0748247L134.87 1.26912L134.266 0.879962Z" fill="#E81B26"/>
<path d="M102.512 3.7936L103.372 2.43384L104.06 2.86523L103.2 4.22499L102.512 3.7936Z" fill="#A182BA"/>
<path d="M98.0313 16.2778L99.6045 15.975L99.7565 16.7582L98.1833 17.061L98.0313 16.2778Z" fill="#E8008B"/>
<path d="M118.387 8.40042L117.396 7.65332L117.768 7.1649L118.758 7.912L118.387 8.40042Z" fill="#00ACEA"/>
<path d="M129.671 18.218L130.175 17.2151L130.673 17.4635L130.169 18.4664L129.671 18.218Z" fill="#E8008B"/>
<path d="M13.5614 4.79933L12.2346 5.69385L11.7855 5.03325L13.1123 4.13874L13.5614 4.79933Z" fill="#A182BA"/>
<path d="M85.8267 10.942L83.9742 11.6851L83.6011 10.7628L85.4536 10.0197L85.8267 10.942Z" fill="#FFEE00"/>
<path d="M19.2969 9.00807L18.7142 7.38599L19.5233 7.09786L20.1059 8.71994L19.2969 9.00807Z" fill="#8E268D"/>
<path d="M57.1927 17.8129L55.8379 19.3671L55.0575 18.6925L56.4123 17.1384L57.1927 17.8129Z" fill="#A182BA"/>
<path d="M123.482 2.85536L123.676 1.2832L124.471 1.38043L124.277 2.95258L123.482 2.85536Z" fill="#8E268D"/>
<path d="M57.1958 7.34294L57.2539 8.39507L57.7764 8.36038L57.7183 7.31982L57.1958 7.34294Z" fill="#8E268D"/>
<path d="M67.049 0.229471L65.5396 0.236816L65.5359 -0.514688L67.0453 -0.522033L67.049 0.229471Z" fill="#00ACEA"/>
<path d="M43.9656 1.20927L42.5211 2.33545L41.9556 1.61629L43.4001 0.490111L43.9656 1.20927Z" fill="#8E268D"/>
<path d="M108.563 17.65L107.656 19.2109L106.872 18.7591L107.78 17.1982L108.563 17.65Z" fill="#8AC13E"/>
<path d="M108.054 2.12428L108.773 3.27246L108.191 3.63314L107.473 2.48496L108.054 2.12428Z" fill="#FFEE00"/>
<path d="M64.2871 6.50229L65.5599 6.23682L65.6932 6.87053L64.4204 7.136L64.2871 6.50229Z" fill="#A182BA"/>
</g>
<defs>
<clipPath id="clip0_3674_27089">
<rect width="139.332" height="96.2519" fill="white" transform="matrix(-1 0 0 1 139.948 -65.2188)"/>
</clipPath>
</defs>
</svg>
