<svg width="298" height="40" viewBox="0 0 298 40" fill="none" xmlns="http://www.w3.org/2000/svg">
<g clip-path="url(#clip0_3674_23896)">
<path d="M103.956 14.9895L100.314 13.9347L100.848 12.1098L104.489 13.1647L103.956 14.9895Z" fill="#E8008B"/>
<path d="M81.1857 9.62158L79.7728 11.3494L80.6403 12.0651L82.0532 10.3127L81.1857 9.62158Z" fill="#E8008B"/>
<path d="M207.789 21.3228L206.881 23.3787L205.86 22.9313L206.768 20.8754L207.789 21.3228Z" fill="#E8008B"/>
<path d="M179.74 34.9537L182.249 35.2635L182.093 36.5128L179.584 36.2029L179.74 34.9537Z" fill="#A182BA"/>
<path d="M10.0061 20.2692L10.929 17.8988L12.1076 18.3538L11.1848 20.7242L10.0061 20.2692Z" fill="#00ACEA"/>
<path d="M245.295 30.1295L242.008 28.6213L242.765 26.9849L246.052 28.493L245.295 30.1295Z" fill="#FFEE00"/>
<path d="M141.982 37.0709L142.408 33.1942L144.355 33.4065L143.929 37.2831L141.982 37.0709Z" fill="#FFEE00"/>
<path d="M46.567 42.8707L46.9934 38.994L48.94 39.2063L48.5136 43.083L46.567 42.8707Z" fill="#FFEE00"/>
<path d="M86.4622 22.4198L85.8789 20.0972L87.0572 19.8038L87.6405 22.1264L86.4622 22.4198Z" fill="#E8008B"/>
<path d="M12.4844 29.1095L10.1807 33.6195L7.90501 32.4669L10.2088 27.9569L12.4844 29.1095Z" fill="#8E268D"/>
<path d="M67.5674 24.0842L66.5122 25.9852L65.5577 25.4599L66.6128 23.5589L67.5674 24.0842Z" fill="#E8008B"/>
<path d="M79.8587 20.229L79.3442 22.9957L77.955 22.7396L78.4694 19.9728L79.8587 20.229Z" fill="#FFEE00"/>
<path d="M266.214 29.355L261.681 29.1769L261.771 26.9079L266.303 27.086L266.214 29.355Z" fill="#8AC13E"/>
<path d="M78.9856 0.42719L76.9338 1.98132L76.1535 0.959806L78.2052 -0.594327L78.9856 0.42719Z" fill="#E8008B"/>
<path d="M29.883 29.2595L28.9312 32.9915L27.0572 32.5176L28.0091 28.7856L29.883 29.2595Z" fill="#A182BA"/>
<path d="M286.328 27.5648L288.009 29.5437L287.024 30.3725L285.344 28.3936L286.328 27.5648Z" fill="#00ACEA"/>
<path d="M156.054 25.9866L157.348 29.6935L155.499 30.3338L154.204 26.6269L156.054 25.9866Z" fill="#8E268D"/>
<path d="M99.7268 30.5524L98.6857 28.405L97.6199 28.9234L98.6609 31.0707L99.7268 30.5524Z" fill="#E81B26"/>
<path d="M275.376 8.62604L274.359 5.94824L275.703 5.44151L276.721 8.11931L275.376 8.62604Z" fill="#8AC13E"/>
<path d="M51.7443 4.88899L53.4922 3.50854L54.1853 4.37876L52.4375 5.7592L51.7443 4.88899Z" fill="#A182BA"/>
<path d="M244.717 6.39072L244.408 9.2373L242.979 9.08344L243.288 6.23686L244.717 6.39072Z" fill="#8E268D"/>
<path d="M130.135 26.7232L129.509 22.4988L131.643 22.1855L132.268 26.4098L130.135 26.7232Z" fill="#A182BA"/>
<path d="M288.662 17.9878L289.998 16.0266L290.983 16.6915L289.647 18.6527L288.662 17.9878Z" fill="#E8008B"/>
<path d="M190.03 7.69226L190.766 5.10352L192.078 5.47315L191.342 8.06189L190.03 7.69226Z" fill="#E8008B"/>
<path d="M203.81 11.3393L202.435 9.052L203.584 8.36753L204.958 10.6549L203.81 11.3393Z" fill="#A182BA"/>
<path d="M186.328 0.997361L183.987 -1.65308L185.327 -2.82669L187.668 -0.176254L186.328 0.997361Z" fill="#00ACEA"/>
<path d="M285.376 1.69878L287.031 -0.85083L288.322 -0.0200482L286.667 2.52957L285.376 1.69878Z" fill="#E81B26"/>
<path d="M217.588 7.91872L219.424 5.01587L220.892 5.93681L219.056 8.83967L217.588 7.91872Z" fill="#A182BA"/>
<path d="M208.022 34.5704L211.38 33.924L211.705 35.5961L208.346 36.2425L208.022 34.5704Z" fill="#E8008B"/>
<path d="M251.477 17.7534L249.363 16.1584L250.157 15.1158L252.271 16.7107L251.477 17.7534Z" fill="#00ACEA"/>
<path d="M275.567 38.7124L276.643 36.5714L277.707 37.1017L276.631 39.2427L275.567 38.7124Z" fill="#E8008B"/>
<path d="M27.6929 10.0658L24.8604 11.9755L23.9015 10.5652L26.734 8.65557L27.6929 10.0658Z" fill="#A182BA"/>
<path d="M181.967 23.1795L178.012 24.7657L177.216 22.7968L181.17 21.2106L181.967 23.1795Z" fill="#FFEE00"/>
<path d="M39.9369 19.0506L38.6931 15.5878L40.4202 14.9727L41.6641 18.4355L39.9369 19.0506Z" fill="#8E268D"/>
<path d="M120.838 37.8476L117.946 41.1654L116.28 39.7254L119.172 36.4076L120.838 37.8476Z" fill="#A182BA"/>
<path d="M262.355 5.91586L262.769 2.55957L264.467 2.76712L264.053 6.12342L262.355 5.91586Z" fill="#8E268D"/>
<path d="M120.845 15.496L120.969 17.7421L122.084 17.6681L121.96 15.4467L120.845 15.496Z" fill="#8E268D"/>
<path d="M141.88 0.310003L138.657 0.325684L138.649 -1.27865L141.872 -1.29433L141.88 0.310003Z" fill="#00ACEA"/>
<path d="M92.6005 2.40159L89.5168 4.80579L88.3096 3.2705L91.3933 0.866302L92.6005 2.40159Z" fill="#8E268D"/>
<path d="M230.506 37.5L228.568 40.8323L226.895 39.8676L228.833 36.5354L230.506 37.5Z" fill="#8AC13E"/>
<path d="M229.419 4.35498L230.952 6.80615L229.711 7.57613L228.178 5.12496L229.419 4.35498Z" fill="#FFEE00"/>
<path d="M135.984 13.7015L138.701 13.1348L138.986 14.4876L136.268 15.0544L135.984 13.7015Z" fill="#A182BA"/>
</g>
<defs>
<clipPath id="clip0_3674_23896">
<rect width="297.451" height="205.482" fill="white" transform="matrix(-1 0 0 1 297.506 -139.411)"/>
</clipPath>
</defs>
</svg>
