<svg width="24" height="25" viewBox="0 0 24 25" fill="none" xmlns="http://www.w3.org/2000/svg">
<path opacity="0.4" d="M7.93997 14.9861C7.31997 14.7561 6.76997 14.3061 6.41997 13.6661C5.61997 12.2061 6.10997 10.3061 7.52997 9.42609L9.86996 7.97607C11.28 7.09607 13.1 7.57606 13.9 9.02606C14.7 10.4861 14.21 12.3861 12.79 13.2661L12.48 13.4861" stroke="#4B1FFC" stroke-width="1.5" stroke-linecap="round" stroke-linejoin="round"/>
<path opacity="0.4" d="M16.11 9.92609C16.73 10.1561 17.28 10.6061 17.63 11.2461C18.43 12.7061 17.94 14.6061 16.52 15.4861L14.1799 16.9361C12.7699 17.8161 10.9499 17.3361 10.1499 15.8861C9.34995 14.4261 9.83995 12.5261 11.2599 11.6461L11.57 11.4261" stroke="#4B1FFC" stroke-width="1.5" stroke-linecap="round" stroke-linejoin="round"/>
<path d="M12 22.4761C17.5228 22.4761 22 17.9989 22 12.4761C22 6.95323 17.5228 2.47607 12 2.47607C6.47715 2.47607 2 6.95323 2 12.4761C2 17.9989 6.47715 22.4761 12 22.4761Z" stroke="#4B1FFC" stroke-width="1.5" stroke-linecap="round" stroke-linejoin="round"/>
</svg>
