<svg width="24" height="25" viewBox="0 0 24 25" fill="none" xmlns="http://www.w3.org/2000/svg">
<path opacity="0.4" d="M7.93997 14.7249C7.31997 14.4949 6.76997 14.0448 6.41997 13.4048C5.61997 11.9448 6.10997 10.0449 7.52997 9.16486L9.86996 7.71484C11.28 6.83484 13.1 7.31483 13.9 8.76483C14.7 10.2248 14.21 12.1249 12.79 13.0049L12.48 13.2249" stroke="#4B1FFC" stroke-width="1.5" stroke-linecap="round" stroke-linejoin="round"/>
<path opacity="0.4" d="M16.11 9.66486C16.73 9.89486 17.28 10.3448 17.63 10.9848C18.43 12.4448 17.94 14.3449 16.52 15.2249L14.1799 16.6748C12.7699 17.5548 10.9499 17.0748 10.1499 15.6248C9.34995 14.1648 9.83995 12.2649 11.2599 11.3849L11.57 11.1649" stroke="#4B1FFC" stroke-width="1.5" stroke-linecap="round" stroke-linejoin="round"/>
<path d="M12 22.2148C17.5228 22.2148 22 17.7377 22 12.2148C22 6.692 17.5228 2.21484 12 2.21484C6.47715 2.21484 2 6.692 2 12.2148C2 17.7377 6.47715 22.2148 12 22.2148Z" stroke="#4B1FFC" stroke-width="1.5" stroke-linecap="round" stroke-linejoin="round"/>
</svg>
