<svg width="24" height="25" viewBox="0 0 24 25" fill="none" xmlns="http://www.w3.org/2000/svg">
<path opacity="0.4" d="M7.93997 14.7839C7.31997 14.5539 6.76997 14.1039 6.41997 13.4639C5.61997 12.0039 6.10997 10.1039 7.52997 9.22394L9.86996 7.77393C11.28 6.89393 13.1 7.37391 13.9 8.82391C14.7 10.2839 14.21 12.1839 12.79 13.0639L12.48 13.2839" stroke="#4B1FFC" stroke-width="1.5" stroke-linecap="round" stroke-linejoin="round"/>
<path opacity="0.4" d="M16.11 9.72394C16.73 9.95394 17.28 10.4039 17.63 11.0439C18.43 12.5039 17.94 14.4039 16.52 15.2839L14.1799 16.7339C12.7699 17.6139 10.9499 17.1339 10.1499 15.6839C9.34995 14.2239 9.83995 12.3239 11.2599 11.4439L11.57 11.2239" stroke="#4B1FFC" stroke-width="1.5" stroke-linecap="round" stroke-linejoin="round"/>
<path d="M12 22.2739C17.5228 22.2739 22 17.7968 22 12.2739C22 6.75108 17.5228 2.27393 12 2.27393C6.47715 2.27393 2 6.75108 2 12.2739C2 17.7968 6.47715 22.2739 12 22.2739Z" stroke="#4B1FFC" stroke-width="1.5" stroke-linecap="round" stroke-linejoin="round"/>
</svg>
