<svg width="24" height="25" viewBox="0 0 24 25" fill="none" xmlns="http://www.w3.org/2000/svg">
<path opacity="0.4" d="M12 6.84393V10.1739" stroke="#4B1FFC" stroke-width="1.5" stroke-miterlimit="10" stroke-linecap="round"/>
<path d="M12.0199 2.40393C8.3399 2.40393 5.3599 5.38393 5.3599 9.06393V11.1639C5.3599 11.8439 5.0799 12.8639 4.7299 13.4439L3.4599 15.5639C2.6799 16.8739 3.2199 18.3339 4.6599 18.8139C9.4399 20.4039 14.6099 20.4039 19.3899 18.8139C20.7399 18.3639 21.3199 16.7839 20.5899 15.5639L19.3199 13.4439C18.9699 12.8639 18.6899 11.8339 18.6899 11.1639V9.06393C18.6799 5.40393 15.6799 2.40393 12.0199 2.40393Z" stroke="#4B1FFC" stroke-width="1.5" stroke-miterlimit="10" stroke-linecap="round"/>
<path opacity="0.4" d="M15.3299 19.2239C15.3299 21.0539 13.8299 22.5539 11.9999 22.5539C11.0899 22.5539 10.2499 22.1739 9.64992 21.5739C9.04992 20.9739 8.66992 20.1339 8.66992 19.2239" stroke="#4B1FFC" stroke-width="1.5" stroke-miterlimit="10"/>
</svg>
