<svg width="24" height="25" viewBox="0 0 24 25" fill="none" xmlns="http://www.w3.org/2000/svg">
<path opacity="0.4" d="M12 6.75494V10.0849" stroke="#4B1FFC" stroke-width="1.5" stroke-miterlimit="10" stroke-linecap="round"/>
<path d="M12.02 2.31494C8.34002 2.31494 5.36002 5.29494 5.36002 8.97494V11.0749C5.36002 11.7549 5.08002 12.7749 4.73002 13.3549L3.46002 15.4749C2.68002 16.7849 3.22002 18.2449 4.66002 18.7249C9.44002 20.3149 14.61 20.3149 19.39 18.7249C20.74 18.2749 21.32 16.6949 20.59 15.4749L19.32 13.3549C18.97 12.7749 18.69 11.7449 18.69 11.0749V8.97494C18.68 5.31494 15.68 2.31494 12.02 2.31494Z" stroke="#4B1FFC" stroke-width="1.5" stroke-miterlimit="10" stroke-linecap="round"/>
<path opacity="0.4" d="M15.33 19.1349C15.33 20.9649 13.83 22.4649 12 22.4649C11.09 22.4649 10.25 22.0849 9.65004 21.4849C9.05004 20.8849 8.67004 20.0449 8.67004 19.1349" stroke="#4B1FFC" stroke-width="1.5" stroke-miterlimit="10"/>
</svg>
