<svg width="24" height="25" viewBox="0 0 24 25" fill="none" xmlns="http://www.w3.org/2000/svg">
<path opacity="0.4" d="M12 6.84393V10.1739" stroke="#4B1FFC" stroke-width="1.5" stroke-miterlimit="10" stroke-linecap="round"/>
<path d="M12.02 2.40393C8.34002 2.40393 5.36002 5.38393 5.36002 9.06393V11.1639C5.36002 11.8439 5.08002 12.8639 4.73002 13.4439L3.46002 15.5639C2.68002 16.8739 3.22002 18.3339 4.66002 18.8139C9.44002 20.4039 14.61 20.4039 19.39 18.8139C20.74 18.3639 21.32 16.7839 20.59 15.5639L19.32 13.4439C18.97 12.8639 18.69 11.8339 18.69 11.1639V9.06393C18.68 5.40393 15.68 2.40393 12.02 2.40393Z" stroke="#4B1FFC" stroke-width="1.5" stroke-miterlimit="10" stroke-linecap="round"/>
<path opacity="0.4" d="M15.33 19.2239C15.33 21.0539 13.83 22.5539 12 22.5539C11.09 22.5539 10.25 22.1739 9.65004 21.5739C9.05004 20.9739 8.67004 20.1339 8.67004 19.2239" stroke="#4B1FFC" stroke-width="1.5" stroke-miterlimit="10"/>
</svg>
