<svg width="24" height="25" viewBox="0 0 24 25" fill="none" xmlns="http://www.w3.org/2000/svg">
<path opacity="0.4" d="M12 7.01117V10.3412" stroke="#4B1FFC" stroke-width="1.5" stroke-miterlimit="10" stroke-linecap="round"/>
<path d="M12.0199 2.57117C8.3399 2.57117 5.3599 5.55117 5.3599 9.23117V11.3312C5.3599 12.0112 5.0799 13.0312 4.7299 13.6112L3.4599 15.7312C2.6799 17.0412 3.2199 18.5012 4.6599 18.9812C9.4399 20.5712 14.6099 20.5712 19.3899 18.9812C20.7399 18.5312 21.3199 16.9512 20.5899 15.7312L19.3199 13.6112C18.9699 13.0312 18.6899 12.0012 18.6899 11.3312V9.23117C18.6799 5.57117 15.6799 2.57117 12.0199 2.57117Z" stroke="#4B1FFC" stroke-width="1.5" stroke-miterlimit="10" stroke-linecap="round"/>
<path opacity="0.4" d="M15.3299 19.3912C15.3299 21.2212 13.8299 22.7212 11.9999 22.7212C11.0899 22.7212 10.2499 22.3412 9.64992 21.7412C9.04992 21.1412 8.66992 20.3012 8.66992 19.3912" stroke="#4B1FFC" stroke-width="1.5" stroke-miterlimit="10"/>
</svg>
