<svg width="110" height="25" viewBox="0 0 110 25" fill="none" xmlns="http://www.w3.org/2000/svg">
<g clip-path="url(#clip0_3674_28079)">
<path d="M33.4107 4.66846C36.9827 4.66846 39.3548 6.73357 39.3548 9.66381C39.3548 12.5382 36.9827 14.6871 33.4107 14.6871H31.1223V19.6266H28.1362V5.2266C28.1362 4.91962 28.3874 4.66846 28.6944 4.66846H33.4107ZM33.1316 12.2033C35.0293 12.2312 36.2851 11.3382 36.2851 9.69171C36.2851 8.10101 35.0293 7.18008 33.1316 7.18008H31.0944V12.1754L33.1316 12.2033Z" fill="#1D1B1B"/>
<path d="M48.1167 8.49177V11.4778C47.8935 11.3941 47.3353 11.3383 47.0284 11.3383C46.3586 11.3383 45.1865 11.4778 44.1819 12.2871V19.6267H41.4191V8.74294H44.1819V10.6127C44.9633 9.52433 46.3028 8.46387 47.7539 8.46387C47.8935 8.46387 48.033 8.46387 48.1167 8.49177Z" fill="#1D1B1B"/>
<path d="M49.8187 5.33828C49.8187 4.38945 50.6001 3.69177 51.5211 3.69177C52.4978 3.69177 53.2513 4.38945 53.2513 5.33828C53.2513 6.28712 52.4699 6.9848 51.5211 6.9848C50.6001 6.9848 49.8187 6.28712 49.8187 5.33828ZM50.1536 19.6267V8.74294H52.9164V19.6267H50.1536Z" fill="#1D1B1B"/>
<path d="M72.3964 12.7615V19.6266H69.6336V13.0406C69.6336 11.7289 68.9081 10.8359 67.8197 10.8359C66.9546 10.8359 66.1453 11.422 65.5313 12.2871C65.5592 12.4266 65.5592 12.5941 65.5592 12.7615V19.6266H62.7964V13.0406C62.7964 11.7289 62.0709 10.8359 60.9825 10.8359C60.1174 10.8359 59.3081 11.3941 58.722 12.2592V19.5987H55.9592V8.71498H58.722V10.0266C59.4755 9.07777 60.536 8.43591 61.7081 8.43591C63.215 8.43591 64.443 9.13359 65.0848 10.4452C65.8662 9.24521 67.2895 8.43591 68.5453 8.43591C70.8057 8.46382 72.3964 10.0545 72.3964 12.7615Z" fill="#1D1B1B"/>
<path d="M83.3907 8.74286H86.1535V19.6266H83.3907V18.5382C82.5535 19.3475 81.2419 19.8777 79.8744 19.8777C76.9721 19.8777 74.5442 17.6731 74.5442 14.1847C74.5442 10.6963 76.9721 8.4917 79.8744 8.4917C81.2698 8.4917 82.5535 9.02193 83.3907 9.83123V8.74286ZM83.3907 16.3615V12.008C82.6093 11.2545 81.493 10.7801 80.4605 10.7801C78.7581 10.7801 77.2791 12.0638 77.2512 14.1847C77.2791 16.3056 78.7581 17.5894 80.4605 17.5894C81.493 17.5615 82.6093 17.115 83.3907 16.3615Z" fill="#1D1B1B"/>
<path d="M95.811 8.57547V11.5336C95.5877 11.4499 95.0296 11.3941 94.7226 11.3941C94.0528 11.3941 92.8807 11.5336 91.8761 12.3429V19.6824H89.1133V8.79872H91.8761V10.6685C92.6575 9.58012 93.997 8.51965 95.4482 8.51965C95.5877 8.54756 95.7272 8.54756 95.811 8.57547Z" fill="#1D1B1B"/>
<path d="M106.945 8.79871H109.764V8.99406L105.382 20.101C104.573 22.1382 102.759 24.1196 99.6613 24.1196C99.0753 24.1196 98.3218 24.0359 97.7637 23.8964V21.6638C98.3497 21.8034 98.9078 21.8871 99.3544 21.8871C100.75 21.8871 101.754 20.9941 102.368 20.1289L97.5404 9.02196V8.82661H100.415L103.875 17.0592L106.945 8.79871Z" fill="#1D1B1B"/>
<path d="M21.4368 9.88708L19.567 6.73359C19.3996 6.42661 19.0926 6.23126 18.7577 6.14754C18.4228 6.06382 18.088 6.11963 17.781 6.28708C17.474 6.45452 17.2787 6.76149 17.1949 7.09638C17.1112 7.43126 17.167 7.76615 17.3345 8.07312L19.2322 11.1987C19.3438 11.3661 19.3717 11.5336 19.3717 11.7289C19.3438 11.9522 19.2322 12.1754 19.0647 12.3429C18.8973 12.4824 18.6461 12.5661 18.4228 12.5382C18.1996 12.5103 17.9205 12.4266 17.7531 12.1475C17.6135 11.9243 15.074 6.06382 13.7345 2.99405C13.3717 2.04521 12.1717 0.482422 9.99494 0.482422C7.76238 0.482422 5.94843 2.26847 5.94843 4.50103C5.92052 5.53359 6.31122 6.28708 6.47866 6.53824L11.1112 15.3568C11.167 15.4406 11.1949 15.5522 11.2508 15.608C11.3624 15.8313 11.4461 15.9708 11.474 16.2778C11.474 16.8359 10.9996 17.3103 10.4415 17.3103C9.93913 17.3103 9.54843 16.808 9.4368 16.501C9.15773 15.915 7.06471 10.6127 7.06471 10.5568C6.70192 9.63591 6.11587 8.12894 3.96703 8.12894C2.26471 8.12894 0.925171 9.49638 0.925171 11.1429V22.8638C0.925171 23.5615 1.51122 24.1475 2.20889 24.1475C2.90657 24.1475 3.49261 23.5615 3.49261 22.8638V11.1429C3.49261 10.8917 3.68796 10.6964 3.93913 10.6964H3.99494C4.32982 10.6964 4.49726 11.1987 4.55308 11.3661C4.55308 11.3941 4.58099 11.422 4.58099 11.422C4.60889 11.4778 5.0275 12.5103 5.4461 13.5987C6.03215 15.0778 6.70192 16.7522 6.89727 17.2266C7.65075 19.0964 8.68331 19.8778 10.3856 19.8778C12.3949 19.8778 14.0135 18.2592 14.0135 16.2499C14.0135 15.5801 13.6228 14.6871 13.3996 14.2127L8.76703 5.36614L8.68331 5.1987C8.65541 5.14289 8.51587 4.89173 8.51587 4.50103C8.51587 3.69173 9.15773 3.04986 9.96703 3.04986C10.888 3.04986 11.2508 3.80335 11.3066 3.94289L15.4368 13.3475L15.4647 13.4034C16.0228 14.3801 17.0554 15.022 18.1717 15.1336C19.0926 15.2173 19.9856 14.9103 20.6833 14.3243C21.381 13.7382 21.8275 12.901 21.8833 11.9522C21.9949 11.2266 21.8275 10.501 21.4368 9.88708Z" fill="#1D1B1B"/>
</g>
<defs>
<clipPath id="clip0_3674_28079">
<rect width="108.837" height="24" fill="white" transform="translate(0.926514 0.314941)"/>
</clipPath>
</defs>
</svg>
