<svg width="110" height="25" viewBox="0 0 110 25" fill="none" xmlns="http://www.w3.org/2000/svg">
<g clip-path="url(#clip0_3496_30816)">
<path d="M33.0388 4.88739C36.6109 4.88739 38.9829 6.95251 38.9829 9.88274C38.9829 12.7572 36.6109 14.906 33.0388 14.906H30.7504V19.8455H27.7643V5.44553C27.7643 5.13855 28.0155 4.88739 28.3225 4.88739H33.0388ZM32.7597 12.4223C34.6574 12.4502 35.9132 11.5572 35.9132 9.91065C35.9132 8.31995 34.6574 7.39902 32.7597 7.39902H30.7225V12.3944L32.7597 12.4223Z" fill="#1D1B1B"/>
<path d="M47.7449 8.71065V11.6967C47.5216 11.613 46.9635 11.5572 46.6565 11.5572C45.9867 11.5572 44.8146 11.6967 43.81 12.506V19.8455H41.0472V8.96181H43.81V10.8316C44.5914 9.7432 45.9309 8.68274 47.3821 8.68274C47.5216 8.68274 47.6611 8.68274 47.7449 8.71065Z" fill="#1D1B1B"/>
<path d="M49.4468 5.55716C49.4468 4.60832 50.2282 3.91064 51.1491 3.91064C52.1258 3.91064 52.8793 4.60832 52.8793 5.55716C52.8793 6.50599 52.0979 7.20367 51.1491 7.20367C50.2282 7.20367 49.4468 6.50599 49.4468 5.55716ZM49.7817 19.8455V8.96181H52.5445V19.8455H49.7817Z" fill="#1D1B1B"/>
<path d="M72.0246 12.9804V19.8455H69.2618V13.2595C69.2618 11.9479 68.5362 11.0548 67.4478 11.0548C66.5827 11.0548 65.7734 11.6409 65.1594 12.506C65.1873 12.6455 65.1873 12.813 65.1873 12.9804V19.8455H62.4246V13.2595C62.4246 11.9479 61.699 11.0548 60.6106 11.0548C59.7455 11.0548 58.9362 11.613 58.3501 12.4781V19.8176H55.5873V8.93392H58.3501V10.2455C59.1036 9.29671 60.1641 8.65485 61.3362 8.65485C62.8432 8.65485 64.0711 9.35252 64.7129 10.6641C65.4943 9.46415 66.9176 8.65485 68.1734 8.65485C70.4339 8.68275 72.0246 10.2735 72.0246 12.9804Z" fill="#1D1B1B"/>
<path d="M83.0188 8.9618H85.7816V19.8455H83.0188V18.7571C82.1816 19.5664 80.87 20.0967 79.5025 20.0967C76.6002 20.0967 74.1723 17.892 74.1723 14.4037C74.1723 10.9153 76.6002 8.71063 79.5025 8.71063C80.8979 8.71063 82.1816 9.24086 83.0188 10.0502V8.9618ZM83.0188 16.5804V12.2269C82.2374 11.4734 81.1211 10.999 80.0886 10.999C78.3863 10.999 76.9072 12.2827 76.8793 14.4037C76.9072 16.5246 78.3863 17.8083 80.0886 17.8083C81.1211 17.7804 82.2374 17.3339 83.0188 16.5804Z" fill="#1D1B1B"/>
<path d="M95.4391 8.79434V11.7525C95.2158 11.6688 94.6577 11.6129 94.3507 11.6129C93.6809 11.6129 92.5088 11.7525 91.5042 12.5618V19.9013H88.7414V9.0176H91.5042V10.8874C92.2856 9.79899 93.6251 8.73853 95.0763 8.73853C95.2158 8.76643 95.3553 8.76643 95.4391 8.79434Z" fill="#1D1B1B"/>
<path d="M106.573 9.01758H109.392V9.21293L105.01 20.3199C104.201 22.3571 102.387 24.3385 99.2894 24.3385C98.7034 24.3385 97.9499 24.2548 97.3918 24.1153V21.8827C97.9778 22.0222 98.536 22.106 98.9825 22.106C100.378 22.106 101.382 21.2129 101.996 20.3478L97.1685 9.24083V9.04549H100.043L103.503 17.278L106.573 9.01758Z" fill="#1D1B1B"/>
<path d="M21.0649 10.106L19.1951 6.95252C19.0276 6.64554 18.7207 6.45019 18.3858 6.36647C18.0509 6.28275 17.716 6.33857 17.409 6.50601C17.1021 6.67345 16.9067 6.98043 16.823 7.31531C16.7393 7.65019 16.7951 7.98508 16.9625 8.29206L18.8602 11.4176C18.9718 11.5851 18.9997 11.7525 18.9997 11.9479C18.9718 12.1711 18.8602 12.3944 18.6928 12.5618C18.5253 12.7014 18.2742 12.7851 18.0509 12.7572C17.8276 12.7293 17.5486 12.6455 17.3811 12.3665C17.2416 12.1432 14.7021 6.28275 13.3625 3.21298C12.9997 2.26415 11.7997 0.701355 9.62299 0.701355C7.39043 0.701355 5.57648 2.4874 5.57648 4.71996C5.54857 5.75252 5.93927 6.50601 6.10671 6.75717L10.7393 15.5758C10.7951 15.6595 10.823 15.7711 10.8788 15.8269C10.9904 16.0502 11.0742 16.1897 11.1021 16.4967C11.1021 17.0548 10.6276 17.5293 10.0695 17.5293C9.56718 17.5293 9.17648 17.0269 9.06485 16.72C8.78578 16.1339 6.69276 10.8316 6.69276 10.7758C6.32997 9.85485 5.74392 8.34787 3.59508 8.34787C1.89276 8.34787 0.553223 9.71531 0.553223 11.3618V23.0828C0.553223 23.7804 1.13927 24.3665 1.83694 24.3665C2.53462 24.3665 3.12067 23.7804 3.12067 23.0828V11.3618C3.12067 11.1107 3.31601 10.9153 3.56718 10.9153H3.62299C3.95787 10.9153 4.12532 11.4176 4.18113 11.5851C4.18113 11.613 4.20904 11.6409 4.20904 11.6409C4.23694 11.6967 4.65555 12.7293 5.07415 13.8176C5.6602 15.2967 6.32997 16.9711 6.52532 17.4455C7.27881 19.3153 8.31136 20.0967 10.0137 20.0967C12.023 20.0967 13.6416 18.4781 13.6416 16.4688C13.6416 15.799 13.2509 14.906 13.0276 14.4316L8.39509 5.58508L8.31136 5.41764C8.28346 5.36182 8.14392 5.11066 8.14392 4.71996C8.14392 3.91066 8.78578 3.2688 9.59509 3.2688C10.516 3.2688 10.8788 4.02229 10.9346 4.16182L15.0649 13.5665L15.0928 13.6223C15.6509 14.599 16.6835 15.2409 17.7997 15.3525C18.7207 15.4362 19.6137 15.1293 20.3114 14.5432C21.009 13.9572 21.4556 13.12 21.5114 12.1711C21.623 11.4455 21.4556 10.72 21.0649 10.106Z" fill="#1D1B1B"/>
</g>
<defs>
<clipPath id="clip0_3496_30816">
<rect width="108.837" height="24" fill="white" transform="translate(0.554565 0.533936)"/>
</clipPath>
</defs>
</svg>
