<svg width="110" height="25" viewBox="0 0 110 25" fill="none" xmlns="http://www.w3.org/2000/svg">
<g clip-path="url(#clip0_3496_30816)">
<path d="M33.0391 4.88739C36.6112 4.88739 38.9833 6.95251 38.9833 9.88274C38.9833 12.7572 36.6112 14.906 33.0391 14.906H30.7507V19.8455H27.7646V5.44553C27.7646 5.13855 28.0158 4.88739 28.3228 4.88739H33.0391ZM32.76 12.4223C34.6577 12.4502 35.9135 11.5572 35.9135 9.91065C35.9135 8.31995 34.6577 7.39902 32.76 7.39902H30.7228V12.3944L32.76 12.4223Z" fill="#1D1B1B"/>
<path d="M47.745 8.71065V11.6967C47.5218 11.613 46.9636 11.5572 46.6567 11.5572C45.9869 11.5572 44.8148 11.6967 43.8102 12.506V19.8455H41.0474V8.96181H43.8102V10.8316C44.5915 9.7432 45.9311 8.68274 47.3822 8.68274C47.5218 8.68274 47.6613 8.68274 47.745 8.71065Z" fill="#1D1B1B"/>
<path d="M49.447 5.55716C49.447 4.60832 50.2284 3.91064 51.1493 3.91064C52.1261 3.91064 52.8796 4.60832 52.8796 5.55716C52.8796 6.50599 52.0982 7.20367 51.1493 7.20367C50.2284 7.20367 49.447 6.50599 49.447 5.55716ZM49.7819 19.8455V8.96181H52.5447V19.8455H49.7819Z" fill="#1D1B1B"/>
<path d="M72.0249 12.9804V19.8455H69.2621V13.2595C69.2621 11.9479 68.5365 11.0548 67.4481 11.0548C66.583 11.0548 65.7737 11.6409 65.1597 12.506C65.1876 12.6455 65.1877 12.813 65.1877 12.9804V19.8455H62.4249V13.2595C62.4249 11.9479 61.6993 11.0548 60.6109 11.0548C59.7458 11.0548 58.9365 11.613 58.3504 12.4781V19.8176H55.5876V8.93392H58.3504V10.2455C59.1039 9.29671 60.1644 8.65485 61.3365 8.65485C62.8435 8.65485 64.0714 9.35252 64.7132 10.6641C65.4946 9.46415 66.9179 8.65485 68.1737 8.65485C70.4342 8.68275 72.0249 10.2735 72.0249 12.9804Z" fill="#1D1B1B"/>
<path d="M83.0191 8.9618H85.7819V19.8455H83.0191V18.7571C82.1819 19.5664 80.8703 20.0967 79.5028 20.0967C76.6005 20.0967 74.1726 17.892 74.1726 14.4037C74.1726 10.9153 76.6005 8.71063 79.5028 8.71063C80.8982 8.71063 82.1819 9.24086 83.0191 10.0502V8.9618ZM83.0191 16.5804V12.2269C82.2377 11.4734 81.1214 10.999 80.0889 10.999C78.3866 10.999 76.9075 12.2827 76.8796 14.4037C76.9075 16.5246 78.3866 17.8083 80.0889 17.8083C81.1214 17.7804 82.2377 17.3339 83.0191 16.5804Z" fill="#1D1B1B"/>
<path d="M95.4394 8.79434V11.7525C95.2161 11.6688 94.658 11.6129 94.351 11.6129C93.6812 11.6129 92.5091 11.7525 91.5045 12.5618V19.9013H88.7417V9.0176H91.5045V10.8874C92.2859 9.79899 93.6254 8.73853 95.0766 8.73853C95.2161 8.76643 95.3557 8.76643 95.4394 8.79434Z" fill="#1D1B1B"/>
<path d="M106.574 9.01758H109.392V9.21293L105.011 20.3199C104.202 22.3571 102.388 24.3385 99.2899 24.3385C98.7038 24.3385 97.9503 24.2548 97.3922 24.1153V21.8827C97.9782 22.0222 98.5364 22.106 98.9829 22.106C100.378 22.106 101.383 21.2129 101.997 20.3478L97.1689 9.24083V9.04549H100.043L103.504 17.278L106.574 9.01758Z" fill="#1D1B1B"/>
<path d="M21.0651 10.106L19.1953 6.95252C19.0279 6.64554 18.7209 6.45019 18.386 6.36647C18.0511 6.28275 17.7163 6.33857 17.4093 6.50601C17.1023 6.67345 16.907 6.98043 16.8232 7.31531C16.7395 7.65019 16.7953 7.98508 16.9628 8.29206L18.8604 11.4176C18.9721 11.5851 19 11.7525 19 11.9479C18.9721 12.1711 18.8604 12.3944 18.693 12.5618C18.5256 12.7014 18.2744 12.7851 18.0511 12.7572C17.8279 12.7293 17.5488 12.6455 17.3814 12.3665C17.2418 12.1432 14.7023 6.28275 13.3628 3.21298C13 2.26415 11.8 0.701355 9.62324 0.701355C7.39068 0.701355 5.57672 2.4874 5.57672 4.71996C5.54882 5.75252 5.93951 6.50601 6.10696 6.75717L10.7395 15.5758C10.7953 15.6595 10.8232 15.7711 10.8791 15.8269C10.9907 16.0502 11.0744 16.1897 11.1023 16.4967C11.1023 17.0548 10.6279 17.5293 10.0697 17.5293C9.56742 17.5293 9.17672 17.0269 9.0651 16.72C8.78603 16.1339 6.693 10.8316 6.693 10.7758C6.33021 9.85485 5.74417 8.34787 3.59533 8.34787C1.893 8.34787 0.553467 9.71531 0.553467 11.3618V23.0828C0.553467 23.7804 1.13951 24.3665 1.83719 24.3665C2.53486 24.3665 3.12091 23.7804 3.12091 23.0828V11.3618C3.12091 11.1107 3.31626 10.9153 3.56742 10.9153H3.62323C3.95812 10.9153 4.12556 11.4176 4.18137 11.5851C4.18137 11.613 4.20928 11.6409 4.20928 11.6409C4.23719 11.6967 4.65579 12.7293 5.0744 13.8176C5.66045 15.2967 6.33021 16.9711 6.52556 17.4455C7.27905 19.3153 8.31161 20.0967 10.0139 20.0967C12.0232 20.0967 13.6418 18.4781 13.6418 16.4688C13.6418 15.799 13.2511 14.906 13.0279 14.4316L8.39533 5.58508L8.31161 5.41764C8.2837 5.36182 8.14417 5.11066 8.14417 4.71996C8.14417 3.91066 8.78603 3.2688 9.59533 3.2688C10.5163 3.2688 10.8791 4.02229 10.9349 4.16182L15.0651 13.5665L15.093 13.6223C15.6511 14.599 16.6837 15.2409 17.8 15.3525C18.7209 15.4362 19.6139 15.1293 20.3116 14.5432C21.0093 13.9572 21.4558 13.12 21.5116 12.1711C21.6232 11.4455 21.4558 10.72 21.0651 10.106Z" fill="#1D1B1B"/>
</g>
<defs>
<clipPath id="clip0_3496_30816">
<rect width="108.837" height="24" fill="white" transform="translate(0.554688 0.533936)"/>
</clipPath>
</defs>
</svg>
