<svg width="109" height="25" viewBox="0 0 109 25" fill="none" xmlns="http://www.w3.org/2000/svg">
<g clip-path="url(#clip0_3674_24886)">
<path d="M32.5984 4.92468C36.1705 4.92468 38.5426 6.9898 38.5426 9.92003C38.5426 12.7944 36.1705 14.9433 32.5984 14.9433H30.31V19.8828H27.324V5.48282C27.324 5.17585 27.5751 4.92468 27.8821 4.92468H32.5984ZM32.3193 12.4596C34.217 12.4875 35.4728 11.5944 35.4728 9.94794C35.4728 8.35724 34.217 7.43631 32.3193 7.43631H30.2821V12.4317L32.3193 12.4596Z" fill="#1D1B1B"/>
<path d="M47.3044 8.748V11.734C47.0811 11.6503 46.523 11.5945 46.216 11.5945C45.5462 11.5945 44.3741 11.734 43.3695 12.5433V19.8829H40.6067V8.99916H43.3695V10.8689C44.1509 9.78056 45.4904 8.72009 46.9416 8.72009C47.0811 8.72009 47.2206 8.72009 47.3044 8.748Z" fill="#1D1B1B"/>
<path d="M49.0063 5.59451C49.0063 4.64567 49.7877 3.948 50.7087 3.948C51.6854 3.948 52.4389 4.64567 52.4389 5.59451C52.4389 6.54335 51.6575 7.24102 50.7087 7.24102C49.7877 7.24102 49.0063 6.54335 49.0063 5.59451ZM49.3412 19.8829V8.99916H52.104V19.8829H49.3412Z" fill="#1D1B1B"/>
<path d="M71.5842 13.0177V19.8828H68.8214V13.2968C68.8214 11.9852 68.0958 11.0921 67.0074 11.0921C66.1423 11.0921 65.333 11.6782 64.7191 12.5433C64.747 12.6828 64.747 12.8503 64.747 13.0177V19.8828H61.9842V13.2968C61.9842 11.9852 61.2586 11.0921 60.1702 11.0921C59.3051 11.0921 58.4958 11.6503 57.9098 12.5154V19.8549H55.147V8.97121H57.9098V10.2828C58.6633 9.334 59.7237 8.69214 60.8958 8.69214C62.4028 8.69214 63.6307 9.38981 64.2726 10.7014C65.054 9.50144 66.4772 8.69214 67.733 8.69214C69.9935 8.72005 71.5842 10.3107 71.5842 13.0177Z" fill="#1D1B1B"/>
<path d="M82.5785 8.99909H85.3412V19.8828H82.5785V18.7944C81.7412 19.6037 80.4296 20.134 79.0622 20.134C76.1598 20.134 73.7319 17.9293 73.7319 14.4409C73.7319 10.9526 76.1598 8.74792 79.0622 8.74792C80.4575 8.74792 81.7412 9.27816 82.5785 10.0875V8.99909ZM82.5785 16.6177V12.2642C81.7971 11.5107 80.6808 11.0363 79.6482 11.0363C77.9459 11.0363 76.4668 12.32 76.4389 14.4409C76.4668 16.5619 77.9459 17.8456 79.6482 17.8456C80.6808 17.8177 81.7971 17.3712 82.5785 16.6177Z" fill="#1D1B1B"/>
<path d="M94.9987 8.83169V11.7898C94.7754 11.7061 94.2173 11.6503 93.9103 11.6503C93.2406 11.6503 92.0685 11.7898 91.0638 12.5991V19.9387H88.301V9.05495H91.0638V10.9247C91.8452 9.83634 93.1847 8.77588 94.6359 8.77588C94.7754 8.80379 94.915 8.80379 94.9987 8.83169Z" fill="#1D1B1B"/>
<path d="M106.133 9.05493H108.952V9.25028L104.57 20.3573C103.761 22.3945 101.947 24.3759 98.8492 24.3759C98.2631 24.3759 97.5097 24.2921 96.9515 24.1526V21.9201C97.5376 22.0596 98.0957 22.1433 98.5422 22.1433C99.9376 22.1433 100.942 21.2503 101.556 20.3852L96.7283 9.27819V9.08284H99.6027L103.063 17.3154L106.133 9.05493Z" fill="#1D1B1B"/>
<path d="M20.6244 10.1433L18.7547 6.98981C18.5872 6.68284 18.2802 6.48749 17.9454 6.40377C17.6105 6.32004 17.2756 6.37586 16.9686 6.5433C16.6616 6.71074 16.4663 7.01772 16.3826 7.3526C16.2988 7.68749 16.3547 8.02237 16.5221 8.32935L18.4198 11.4549C18.5314 11.6224 18.5593 11.7898 18.5593 11.9852C18.5314 12.2084 18.4198 12.4317 18.2523 12.5991C18.0849 12.7387 17.8337 12.8224 17.6105 12.7945C17.3872 12.7666 17.1081 12.6828 16.9407 12.4038C16.8012 12.1805 14.2616 6.32004 12.9221 3.25028C12.5593 2.30144 11.3593 0.738647 9.18256 0.738647C6.95 0.738647 5.13605 2.52469 5.13605 4.75725C5.10814 5.78981 5.49884 6.5433 5.66628 6.79446L10.2988 15.6131C10.3547 15.6968 10.3826 15.8084 10.4384 15.8642C10.55 16.0875 10.6337 16.227 10.6616 16.534C10.6616 17.0921 10.1872 17.5666 9.62907 17.5666C9.12675 17.5666 8.73605 17.0642 8.62442 16.7573C8.34535 16.1712 6.25233 10.8689 6.25233 10.8131C5.88954 9.89214 5.30349 8.38516 3.15465 8.38516C1.45233 8.38516 0.112793 9.7526 0.112793 11.3991V23.1201C0.112793 23.8177 0.69884 24.4038 1.39651 24.4038C2.09419 24.4038 2.68024 23.8177 2.68024 23.1201V11.3991C2.68024 11.148 2.87558 10.9526 3.12675 10.9526H3.18256C3.51745 10.9526 3.68489 11.4549 3.7407 11.6224C3.7407 11.6503 3.76861 11.6782 3.76861 11.6782C3.79651 11.734 4.21512 12.7666 4.63372 13.8549C5.21977 15.334 5.88954 17.0084 6.08489 17.4828C6.83838 19.3526 7.87093 20.134 9.57326 20.134C11.5826 20.134 13.2012 18.5154 13.2012 16.5061C13.2012 15.8363 12.8105 14.9433 12.5872 14.4689L7.95466 5.62237L7.87093 5.45493C7.84303 5.39911 7.70349 5.14795 7.70349 4.75725C7.70349 3.94795 8.34535 3.30609 9.15466 3.30609C10.0756 3.30609 10.4384 4.05958 10.4942 4.19911L14.6244 13.6038L14.6523 13.6596C15.2105 14.6363 16.243 15.2782 17.3593 15.3898C18.2802 15.4735 19.1733 15.1666 19.8709 14.5805C20.5686 13.9945 21.0151 13.1573 21.0709 12.2084C21.1826 11.4828 21.0151 10.7573 20.6244 10.1433Z" fill="#1D1B1B"/>
</g>
<defs>
<clipPath id="clip0_3674_24886">
<rect width="108.837" height="24" fill="white" transform="translate(0.114014 0.571167)"/>
</clipPath>
</defs>
</svg>
