<svg width="61" height="61" viewBox="0 0 61 61" fill="none" xmlns="http://www.w3.org/2000/svg">
<path d="M33.9164 20.5489L37.2164 27.1489C37.6664 28.0489 38.8664 28.9489 39.8664 29.0989L45.8414 30.0989C49.6664 30.7489 50.5664 33.4989 47.8164 36.2489L43.1664 40.8989C42.3914 41.6739 41.9414 43.1989 42.1914 44.2989L43.5165 50.0739C44.5665 54.6239 42.1414 56.3989 38.1164 54.0239L32.5164 50.6989C31.4914 50.0989 29.8414 50.0989 28.8164 50.6989L23.2164 54.0239C19.1914 56.3989 16.7664 54.6239 17.8164 50.0739L19.1415 44.2989C19.3915 43.2239 18.9414 41.6989 18.1664 40.8989L13.5165 36.2489C10.7665 33.4989 11.6664 30.7239 15.4914 30.0989L21.4664 29.0989C22.4664 28.9239 23.6664 28.0489 24.1164 27.1489L27.4164 20.5489C29.1915 16.9739 32.1414 16.9739 33.9164 20.5489Z" fill="#4B1FFC"/>
<path opacity="0.4" d="M15.6665 24.6489C14.6415 24.6489 13.7915 23.7989 13.7915 22.7739V5.27393C13.7915 4.24893 14.6415 3.39893 15.6665 3.39893C16.6915 3.39893 17.5415 4.24893 17.5415 5.27393V22.7739C17.5415 23.7989 16.6915 24.6489 15.6665 24.6489Z" fill="#4B1FFC"/>
<path opacity="0.4" d="M45.6665 24.6489C44.6415 24.6489 43.7915 23.7989 43.7915 22.7739V5.27393C43.7915 4.24893 44.6415 3.39893 45.6665 3.39893C46.6915 3.39893 47.5415 4.24893 47.5415 5.27393V22.7739C47.5415 23.7989 46.6915 24.6489 45.6665 24.6489Z" fill="#4B1FFC"/>
<path opacity="0.4" d="M30.6665 12.1489C29.6415 12.1489 28.7915 11.2989 28.7915 10.2739V5.27393C28.7915 4.24893 29.6415 3.39893 30.6665 3.39893C31.6915 3.39893 32.5415 4.24893 32.5415 5.27393V10.2739C32.5415 11.2989 31.6915 12.1489 30.6665 12.1489Z" fill="#4B1FFC"/>
</svg>
