<svg width="61" height="61" viewBox="0 0 61 61" fill="none" xmlns="http://www.w3.org/2000/svg">
<path d="M33.9166 20.5489L37.2166 27.1489C37.6666 28.0489 38.8666 28.9489 39.8666 29.0989L45.8416 30.0989C49.6666 30.7489 50.5666 33.4989 47.8166 36.2489L43.1666 40.8989C42.3916 41.6739 41.9416 43.1989 42.1916 44.2989L43.5166 50.0739C44.5666 54.6239 42.1416 56.3989 38.1166 54.0239L32.5166 50.6989C31.4916 50.0989 29.8416 50.0989 28.8166 50.6989L23.2166 54.0239C19.1916 56.3989 16.7666 54.6239 17.8166 50.0739L19.1416 44.2989C19.3916 43.2239 18.9416 41.6989 18.1666 40.8989L13.5166 36.2489C10.7666 33.4989 11.6666 30.7239 15.4916 30.0989L21.4666 29.0989C22.4666 28.9239 23.6666 28.0489 24.1166 27.1489L27.4166 20.5489C29.1916 16.9739 32.1416 16.9739 33.9166 20.5489Z" fill="#4B1FFC"/>
<path opacity="0.4" d="M15.6666 24.6489C14.6416 24.6489 13.7916 23.7989 13.7916 22.7739V5.27393C13.7916 4.24893 14.6416 3.39893 15.6666 3.39893C16.6916 3.39893 17.5416 4.24893 17.5416 5.27393V22.7739C17.5416 23.7989 16.6916 24.6489 15.6666 24.6489Z" fill="#4B1FFC"/>
<path opacity="0.4" d="M45.6666 24.6489C44.6416 24.6489 43.7916 23.7989 43.7916 22.7739V5.27393C43.7916 4.24893 44.6416 3.39893 45.6666 3.39893C46.6916 3.39893 47.5416 4.24893 47.5416 5.27393V22.7739C47.5416 23.7989 46.6916 24.6489 45.6666 24.6489Z" fill="#4B1FFC"/>
<path opacity="0.4" d="M30.6666 12.1489C29.6416 12.1489 28.7916 11.2989 28.7916 10.2739V5.27393C28.7916 4.24893 29.6416 3.39893 30.6666 3.39893C31.6916 3.39893 32.5416 4.24893 32.5416 5.27393V10.2739C32.5416 11.2989 31.6916 12.1489 30.6666 12.1489Z" fill="#4B1FFC"/>
</svg>
