<svg width="60" height="61" viewBox="0 0 60 61" fill="none" xmlns="http://www.w3.org/2000/svg">
<path d="M33.25 20.5143L36.55 27.1143C37 28.0143 38.2 28.9143 39.2 29.0643L45.1751 30.0642C49.0001 30.7142 49.9 33.4643 47.15 36.2143L42.5 40.8643C41.725 41.6393 41.275 43.1643 41.525 44.2643L42.8501 50.0393C43.9001 54.5893 41.4751 56.3643 37.4501 53.9893L31.85 50.6643C30.825 50.0643 29.1751 50.0643 28.1501 50.6643L22.55 53.9893C18.525 56.3643 16.1 54.5893 17.15 50.0393L18.4751 44.2643C18.7251 43.1893 18.275 41.6643 17.5 40.8643L12.8501 36.2143C10.1001 33.4643 11 30.6892 14.825 30.0642L20.8001 29.0643C21.8001 28.8893 23 28.0143 23.45 27.1143L26.7501 20.5143C28.5251 16.9393 31.475 16.9393 33.25 20.5143Z" fill="#4B1FFC"/>
<path opacity="0.4" d="M15 24.6143C13.975 24.6143 13.125 23.7643 13.125 22.7393V5.23926C13.125 4.21426 13.975 3.36426 15 3.36426C16.025 3.36426 16.875 4.21426 16.875 5.23926V22.7393C16.875 23.7643 16.025 24.6143 15 24.6143Z" fill="#4B1FFC"/>
<path opacity="0.4" d="M45 24.6143C43.975 24.6143 43.125 23.7643 43.125 22.7393V5.23926C43.125 4.21426 43.975 3.36426 45 3.36426C46.025 3.36426 46.875 4.21426 46.875 5.23926V22.7393C46.875 23.7643 46.025 24.6143 45 24.6143Z" fill="#4B1FFC"/>
<path opacity="0.4" d="M30 12.1143C28.975 12.1143 28.125 11.2643 28.125 10.2393V5.23926C28.125 4.21426 28.975 3.36426 30 3.36426C31.025 3.36426 31.875 4.21426 31.875 5.23926V10.2393C31.875 11.2643 31.025 12.1143 30 12.1143Z" fill="#4B1FFC"/>
</svg>
