<svg width="60" height="61" viewBox="0 0 60 61" fill="none" xmlns="http://www.w3.org/2000/svg">
<path d="M33.2499 20.8775L36.5499 27.4775C36.9999 28.3775 38.1999 29.2775 39.1999 29.4275L45.1749 30.4275C48.9999 31.0775 49.8999 33.8275 47.1499 36.5775L42.4999 41.2275C41.7249 42.0025 41.2749 43.5275 41.5249 44.6275L42.85 50.4025C43.9 54.9525 41.4749 56.7275 37.4499 54.3525L31.8499 51.0275C30.8249 50.4275 29.1749 50.4275 28.1499 51.0275L22.5499 54.3525C18.5249 56.7275 16.0999 54.9525 17.1499 50.4025L18.475 44.6275C18.725 43.5525 18.2749 42.0275 17.4999 41.2275L12.85 36.5775C10.1 33.8275 10.9999 31.0525 14.8249 30.4275L20.7999 29.4275C21.7999 29.2525 22.9999 28.3775 23.4499 27.4775L26.7499 20.8775C28.5249 17.3025 31.4749 17.3025 33.2499 20.8775Z" fill="#4B1FFC"/>
<path opacity="0.4" d="M15 24.9775C13.975 24.9775 13.125 24.1275 13.125 23.1025V5.60254C13.125 4.57754 13.975 3.72754 15 3.72754C16.025 3.72754 16.875 4.57754 16.875 5.60254V23.1025C16.875 24.1275 16.025 24.9775 15 24.9775Z" fill="#4B1FFC"/>
<path opacity="0.4" d="M45 24.9775C43.975 24.9775 43.125 24.1275 43.125 23.1025V5.60254C43.125 4.57754 43.975 3.72754 45 3.72754C46.025 3.72754 46.875 4.57754 46.875 5.60254V23.1025C46.875 24.1275 46.025 24.9775 45 24.9775Z" fill="#4B1FFC"/>
<path opacity="0.4" d="M30 12.4775C28.975 12.4775 28.125 11.6275 28.125 10.6025V5.60254C28.125 4.57754 28.975 3.72754 30 3.72754C31.025 3.72754 31.875 4.57754 31.875 5.60254V10.6025C31.875 11.6275 31.025 12.4775 30 12.4775Z" fill="#4B1FFC"/>
</svg>
