<svg width="9" height="9" viewBox="0 0 9 9" fill="none" xmlns="http://www.w3.org/2000/svg">
<path d="M3.82871 8.2859C3.76021 8.2859 3.70542 8.2722 3.66432 8.25508C3.52733 8.20371 3.29446 8.0359 3.29446 7.50507V5.29615H2.49308C2.03417 5.29615 1.86978 5.08039 1.81156 4.95368C1.75334 4.82354 1.70197 4.55984 2.00335 4.21394L4.59584 1.26871C4.94516 0.871443 5.22941 0.898841 5.36639 0.950211C5.50338 1.00158 5.73626 1.16939 5.73626 1.70022V3.90915H6.53764C6.99655 3.90915 7.16093 4.1249 7.21915 4.25161C7.27737 4.38175 7.32874 4.64545 7.02737 4.99135L4.43488 7.93658C4.19172 8.21398 3.97939 8.2859 3.82871 8.2859ZM5.17804 1.43309C5.16776 1.44679 5.09584 1.48104 4.98283 1.61118L2.39034 4.55641C2.29445 4.666 2.28075 4.7345 2.28075 4.74819C2.2876 4.75162 2.34924 4.78587 2.49308 4.78587H3.55131C3.69172 4.78587 3.80816 4.90231 3.80816 5.04272V7.5085C3.80816 7.67973 3.83898 7.75507 3.85268 7.77562C3.86295 7.76192 3.93487 7.72768 4.04789 7.59754L6.64038 4.6523C6.73627 4.54271 6.74997 4.47422 6.74997 4.46052C6.74312 4.4571 6.68148 4.42285 6.53764 4.42285H5.47941C5.339 4.42285 5.22256 4.30641 5.22256 4.166V1.70022C5.22598 1.52898 5.19174 1.45707 5.17804 1.43309Z" fill="#5F5E5E"/>
</svg>
