<svg width="5" height="5" viewBox="0 0 5 5" fill="none" xmlns="http://www.w3.org/2000/svg">
<path d="M2.16187 4.1757C2.12979 4.1757 2.10412 4.16929 2.08487 4.16127C2.0207 4.1372 1.91162 4.0586 1.91162 3.80995V2.77524H1.53624C1.32127 2.77524 1.24427 2.67417 1.217 2.61482C1.18973 2.55386 1.16567 2.43034 1.30683 2.26831L2.52121 0.888702C2.68484 0.702615 2.81799 0.715448 2.88216 0.739511C2.94633 0.763574 3.05541 0.84218 3.05541 1.09083V2.12554H3.43079C3.64576 2.12554 3.72276 2.2266 3.75003 2.28596C3.7773 2.34692 3.80136 2.47044 3.66019 2.63247L2.44582 4.01208C2.33192 4.14202 2.23246 4.1757 2.16187 4.1757ZM2.79393 0.965703C2.78911 0.97212 2.75543 0.988162 2.70249 1.04912L1.48811 2.42873C1.44319 2.48007 1.43677 2.51215 1.43677 2.51857C1.43998 2.52017 1.46886 2.53621 1.53624 2.53621H2.03193C2.0977 2.53621 2.15225 2.59076 2.15225 2.65653V3.81155C2.15225 3.89176 2.16668 3.92705 2.1731 3.93668C2.17791 3.93026 2.2116 3.91422 2.26454 3.85326L3.47892 2.47365C3.52384 2.42232 3.53025 2.39023 3.53025 2.38381C3.52705 2.38221 3.49817 2.36617 3.43079 2.36617H2.9351C2.86932 2.36617 2.81478 2.31163 2.81478 2.24585V1.09083C2.81639 1.01062 2.80034 0.976933 2.79393 0.965703Z" fill="#5F5E5E"/>
</svg>
