<svg width="14" height="14" viewBox="0 0 14 14" fill="none" xmlns="http://www.w3.org/2000/svg">
<path d="M5.62384 12.4353C5.51569 12.4353 5.42917 12.4136 5.36428 12.3866C5.14799 12.3055 4.78028 12.0405 4.78028 11.2024V7.71459H3.51495C2.79036 7.71459 2.5308 7.37393 2.43887 7.17385C2.34695 6.96837 2.26584 6.552 2.74169 6.00585L6.8351 1.35548C7.38666 0.728219 7.83547 0.771479 8.05177 0.85259C8.26806 0.933701 8.63577 1.19866 8.63577 2.03681V5.52459H9.9011C10.6257 5.52459 10.8853 5.86526 10.9772 6.06533C11.0691 6.27082 11.1502 6.68719 10.6744 7.23334L6.58095 11.8837C6.19703 12.3217 5.86177 12.4353 5.62384 12.4353ZM7.75436 1.61503C7.73814 1.63666 7.62458 1.69074 7.44614 1.89622L3.35273 6.54659C3.20132 6.71963 3.17969 6.82778 3.17969 6.84941C3.1905 6.85482 3.28784 6.90889 3.51495 6.90889H5.18584C5.40754 6.90889 5.5914 7.09274 5.5914 7.31445V11.2078C5.5914 11.4782 5.64006 11.5971 5.66169 11.6296C5.67791 11.6079 5.79147 11.5539 5.96991 11.3484L10.0633 6.698C10.2147 6.52496 10.2364 6.41682 10.2364 6.39519C10.2255 6.38978 10.1282 6.3357 9.9011 6.3357H8.23021C8.00851 6.3357 7.82466 6.15185 7.82466 5.93015V2.03681C7.83006 1.76644 7.77599 1.65289 7.75436 1.61503Z" fill="#5F5E5E"/>
</svg>
