<svg width="61" height="61" viewBox="0 0 61 61" fill="none" xmlns="http://www.w3.org/2000/svg">
<path opacity="0.4" d="M40.8084 5.27393H19.8584C10.7584 5.27393 5.33337 10.6989 5.33337 19.7989V40.7239C5.33337 49.8489 10.7584 55.2739 19.8584 55.2739H40.7834C49.8834 55.2739 55.3084 49.8489 55.3084 40.7489V19.7989C55.3334 10.6989 49.9084 5.27393 40.8084 5.27393Z" fill="#4B1FFC"/>
<path d="M42.5334 31.4489C42.5334 30.4739 41.7584 29.6989 40.7834 29.6989C39.8084 29.6989 39.0334 30.4739 39.0334 31.4489V31.8989L32.2334 25.0989C31.8584 24.7239 31.3584 24.5489 30.8334 24.5989C30.3084 24.6489 29.8334 24.9239 29.5584 25.3739L27.0084 29.1739L21.1084 23.2239C20.4334 22.5489 19.3334 22.5489 18.6334 23.2239C17.9584 23.8989 17.9584 24.9989 18.6334 25.6989L26.0834 33.1489C26.4584 33.5239 26.9584 33.6989 27.4834 33.6489C28.0084 33.5989 28.4834 33.3239 28.7584 32.8739L31.3084 29.0739L36.5834 34.3489H36.1334C35.1584 34.3489 34.3834 35.1239 34.3834 36.0989C34.3834 37.0739 35.1584 37.8489 36.1334 37.8489H40.7834C41.0084 37.8489 41.2334 37.7989 41.4584 37.7239C41.8834 37.5489 42.2334 37.1989 42.4084 36.7739C42.5084 36.5489 42.5334 36.3239 42.5334 36.0989V31.4489Z" fill="#4B1FFC"/>
</svg>
