<svg width="60" height="61" viewBox="0 0 60 61" fill="none" xmlns="http://www.w3.org/2000/svg">
<path opacity="0.4" d="M40.475 5.60254H19.525C10.425 5.60254 5 11.0275 5 20.1275V41.0525C5 50.1775 10.425 55.6025 19.525 55.6025H40.45C49.55 55.6025 54.975 50.1775 54.975 41.0775V20.1275C55 11.0275 49.575 5.60254 40.475 5.60254Z" fill="#4B1FFC"/>
<path d="M42.1999 31.7776C42.1999 30.8026 41.425 30.0276 40.45 30.0276C39.475 30.0276 38.6999 30.8026 38.6999 31.7776V32.2276L31.9 25.4276C31.525 25.0526 31.025 24.8776 30.5 24.9276C29.9749 24.9776 29.4999 25.2526 29.2249 25.7026L26.675 29.5026L20.775 23.5526C20.1 22.8776 19 22.8776 18.3 23.5526C17.625 24.2276 17.625 25.3276 18.3 26.0276L25.75 33.4776C26.125 33.8526 26.625 34.0276 27.15 33.9776C27.675 33.9276 28.15 33.6526 28.4249 33.2026L30.975 29.4026L36.25 34.6776H35.7999C34.8249 34.6776 34.0499 35.4526 34.0499 36.4276C34.0499 37.4026 34.8249 38.1776 35.7999 38.1776H40.45C40.675 38.1776 40.9 38.1276 41.125 38.0526C41.55 37.8776 41.9 37.5276 42.075 37.1026C42.1749 36.8776 42.1999 36.6526 42.1999 36.4276V31.7776Z" fill="#4B1FFC"/>
</svg>
