<svg width="61" height="61" viewBox="0 0 61 61" fill="none" xmlns="http://www.w3.org/2000/svg">
<path opacity="0.4" d="M40.8085 5.27393H19.8585C10.7585 5.27393 5.3335 10.6989 5.3335 19.7989V40.7239C5.3335 49.8489 10.7585 55.2739 19.8585 55.2739H40.7835C49.8835 55.2739 55.3085 49.8489 55.3085 40.7489V19.7989C55.3335 10.6989 49.9085 5.27393 40.8085 5.27393Z" fill="#4B1FFC"/>
<path d="M42.5337 31.4489C42.5337 30.4739 41.7587 29.6989 40.7837 29.6989C39.8087 29.6989 39.0337 30.4739 39.0337 31.4489V31.8989L32.2337 25.0989C31.8587 24.7239 31.3587 24.5489 30.8337 24.5989C30.3087 24.6489 29.8337 24.9239 29.5587 25.3739L27.0087 29.1739L21.1087 23.2239C20.4337 22.5489 19.3337 22.5489 18.6337 23.2239C17.9587 23.8989 17.9587 24.9989 18.6337 25.6989L26.0837 33.1489C26.4587 33.5239 26.9587 33.6989 27.4837 33.6489C28.0087 33.5989 28.4837 33.3239 28.7587 32.8739L31.3087 29.0739L36.5837 34.3489H36.1337C35.1587 34.3489 34.3837 35.1239 34.3837 36.0989C34.3837 37.0739 35.1587 37.8489 36.1337 37.8489H40.7837C41.0087 37.8489 41.2337 37.7989 41.4587 37.7239C41.8837 37.5489 42.2337 37.1989 42.4087 36.7739C42.5087 36.5489 42.5337 36.3239 42.5337 36.0989V31.4489Z" fill="#4B1FFC"/>
</svg>
