<svg width="60" height="61" viewBox="0 0 60 61" fill="none" xmlns="http://www.w3.org/2000/svg">
<path opacity="0.4" d="M40.475 5.23926H19.525C10.425 5.23926 5 10.6643 5 19.7643V40.6893C5 49.8143 10.425 55.2393 19.525 55.2393H40.45C49.55 55.2393 54.975 49.8143 54.975 40.7143V19.7643C55 10.6643 49.575 5.23926 40.475 5.23926Z" fill="#4B1FFC"/>
<path d="M42.1999 31.4144C42.1999 30.4394 41.425 29.6644 40.45 29.6644C39.475 29.6644 38.6999 30.4394 38.6999 31.4144V31.8644L31.9 25.0644C31.525 24.6894 31.025 24.5144 30.5 24.5644C29.9749 24.6144 29.4999 24.8894 29.2249 25.3394L26.675 29.1394L20.775 23.1894C20.1 22.5144 19 22.5144 18.3 23.1894C17.625 23.8644 17.625 24.9644 18.3 25.6644L25.75 33.1144C26.125 33.4894 26.625 33.6644 27.15 33.6144C27.675 33.5644 28.15 33.2894 28.4249 32.8394L30.975 29.0394L36.25 34.3144H35.7999C34.8249 34.3144 34.0499 35.0894 34.0499 36.0644C34.0499 37.0394 34.8249 37.8144 35.7999 37.8144H40.45C40.675 37.8144 40.9 37.7644 41.125 37.6894C41.55 37.5144 41.9 37.1644 42.075 36.7394C42.1749 36.5144 42.1999 36.2894 42.1999 36.0644V31.4144Z" fill="#4B1FFC"/>
</svg>
