<svg width="760" height="761" viewBox="0 0 760 761" fill="none" xmlns="http://www.w3.org/2000/svg">
<path fill-rule="evenodd" clip-rule="evenodd" d="M380 758.741C171.236 758.741 2 589.504 2 380.741C2 171.977 171.236 2.74072 380 2.74072C588.764 2.74072 758 171.977 758 380.741C758 589.504 588.764 758.741 380 758.741ZM0 380.741C0 170.873 170.132 0.740723 380 0.740723C589.868 0.740723 760 170.873 760 380.741C760 590.609 589.868 760.741 380 760.741C170.132 760.741 0 590.609 0 380.741ZM97 380.741C97 537.037 223.703 663.741 380 663.741C536.297 663.741 663 537.037 663 380.741C663 224.444 536.297 97.7407 380 97.7407C223.703 97.7407 97 224.444 97 380.741ZM380 95.7407C222.599 95.7407 95 223.34 95 380.741C95 538.142 222.599 665.741 380 665.741C537.401 665.741 665 538.142 665 380.741C665 223.34 537.401 95.7407 380 95.7407ZM380 568.741C276.17 568.741 192 484.57 192 380.741C192 276.911 276.17 192.741 380 192.741C483.83 192.741 568 276.911 568 380.741C568 484.57 483.83 568.741 380 568.741ZM190 380.741C190 275.807 275.066 190.741 380 190.741C484.934 190.741 570 275.807 570 380.741C570 485.675 484.934 570.741 380 570.741C275.066 570.741 190 485.675 190 380.741ZM380 473.741C328.638 473.741 287 432.103 287 380.741C287 329.378 328.638 287.741 380 287.741C431.362 287.741 473 329.378 473 380.741C473 432.103 431.362 473.741 380 473.741ZM285 380.741C285 328.274 327.533 285.741 380 285.741C432.467 285.741 475 328.274 475 380.741C475 433.208 432.467 475.741 380 475.741C327.533 475.741 285 433.208 285 380.741Z" fill="url(#paint0_linear_3496_32678)"/>
<defs>
<linearGradient id="paint0_linear_3496_32678" x1="380" y1="193.741" x2="380" y2="573.741" gradientUnits="userSpaceOnUse">
<stop stop-color="#E4DFFF" stop-opacity="0"/>
<stop offset="0.5" stop-color="#E4DFFF"/>
<stop offset="1" stop-color="#E4DFFF" stop-opacity="0"/>
</linearGradient>
</defs>
</svg>
