<svg width="630" height="631" viewBox="0 0 630 631" fill="none" xmlns="http://www.w3.org/2000/svg">
<path fill-rule="evenodd" clip-rule="evenodd" d="M315 628.676C141.958 628.676 1.67999 488.398 1.67999 315.356C1.67999 142.314 141.958 2.03607 315 2.03607C488.042 2.03607 628.32 142.314 628.32 315.356C628.32 488.398 488.042 628.676 315 628.676ZM0.0222168 315.356C0.0222168 141.399 141.043 0.378296 315 0.378296C488.957 0.378296 629.978 141.399 629.978 315.356C629.978 489.313 488.957 630.334 315 630.334C141.043 630.334 0.0222168 489.313 0.0222168 315.356ZM80.4244 315.356C80.4244 444.909 185.447 549.932 315 549.932C444.552 549.932 549.576 444.909 549.576 315.356C549.576 185.804 444.552 80.7805 315 80.7805C185.447 80.7805 80.4244 185.804 80.4244 315.356ZM315 79.1228C184.532 79.1228 78.7666 184.888 78.7666 315.356C78.7666 445.824 184.532 551.589 315 551.589C445.468 551.589 551.233 445.824 551.233 315.356C551.233 184.888 445.468 79.1228 315 79.1228ZM315 471.187C228.937 471.187 159.169 401.419 159.169 315.356C159.169 229.293 228.937 159.525 315 159.525C401.063 159.525 470.831 229.293 470.831 315.356C470.831 401.419 401.063 471.187 315 471.187ZM157.511 315.356C157.511 228.377 228.021 157.867 315 157.867C401.979 157.867 472.489 228.377 472.489 315.356C472.489 402.335 401.979 472.845 315 472.845C228.021 472.845 157.511 402.335 157.511 315.356ZM315 392.443C272.426 392.443 237.913 357.93 237.913 315.356C237.913 272.782 272.426 238.269 315 238.269C357.574 238.269 392.087 272.782 392.087 315.356C392.087 357.93 357.574 392.443 315 392.443ZM236.256 315.356C236.256 271.867 271.511 236.612 315 236.612C358.489 236.612 393.744 271.867 393.744 315.356C393.744 358.845 358.489 394.101 315 394.101C271.511 394.101 236.256 358.845 236.256 315.356Z" fill="url(#paint0_linear_3674_25608)"/>
<defs>
<linearGradient id="paint0_linear_3674_25608" x1="315" y1="160.354" x2="315" y2="475.332" gradientUnits="userSpaceOnUse">
<stop stop-color="#E4DFFF" stop-opacity="0"/>
<stop offset="0.5" stop-color="#E4DFFF"/>
<stop offset="1" stop-color="#E4DFFF" stop-opacity="0"/>
</linearGradient>
</defs>
</svg>
