<svg width="330" height="330" viewBox="0 0 330 330" fill="none" xmlns="http://www.w3.org/2000/svg">
<path fill-rule="evenodd" clip-rule="evenodd" d="M165 328.795C74.5358 328.795 1.20004 255.459 1.20004 164.995C1.20004 74.5306 74.5358 1.19479 165 1.19479C255.464 1.19479 328.8 74.5306 328.8 164.995C328.8 255.459 255.464 328.795 165 328.795ZM0.333374 164.995C0.333374 74.0519 74.0572 0.328125 165 0.328125C255.943 0.328125 329.667 74.0519 329.667 164.995C329.667 255.938 255.943 329.661 165 329.661C74.0572 329.661 0.333374 255.938 0.333374 164.995ZM42.3666 164.995C42.3666 232.723 97.2714 287.628 165 287.628C232.728 287.628 287.633 232.723 287.633 164.995C287.633 97.2662 232.728 42.3614 165 42.3614C97.2714 42.3614 42.3666 97.2662 42.3666 164.995ZM165 41.4948C96.7928 41.4948 41.5 96.7876 41.5 164.995C41.5 233.202 96.7928 288.495 165 288.495C233.207 288.495 288.5 233.202 288.5 164.995C288.5 96.7876 233.207 41.4948 165 41.4948ZM165 246.462C120.007 246.462 83.5333 209.988 83.5333 164.995C83.5333 120.002 120.007 83.5282 165 83.5282C209.993 83.5282 246.467 120.002 246.467 164.995C246.467 209.988 209.993 246.462 165 246.462ZM82.6667 164.995C82.6667 119.523 119.529 82.6615 165 82.6615C210.471 82.6615 247.333 119.523 247.333 164.995C247.333 210.466 210.471 247.328 165 247.328C119.529 247.328 82.6667 210.466 82.6667 164.995ZM165 205.295C142.743 205.295 124.7 187.252 124.7 164.995C124.7 142.738 142.743 124.695 165 124.695C187.257 124.695 205.3 142.738 205.3 164.995C205.3 187.252 187.257 205.295 165 205.295ZM123.833 164.995C123.833 142.259 142.264 123.828 165 123.828C187.736 123.828 206.167 142.259 206.167 164.995C206.167 187.731 187.736 206.161 165 206.161C142.264 206.161 123.833 187.731 123.833 164.995Z" fill="url(#paint0_linear_3674_28801)"/>
<defs>
<linearGradient id="paint0_linear_3674_28801" x1="165" y1="83.9615" x2="165" y2="248.628" gradientUnits="userSpaceOnUse">
<stop stop-color="#E4DFFF" stop-opacity="0"/>
<stop offset="0.5" stop-color="#E4DFFF"/>
<stop offset="1" stop-color="#E4DFFF" stop-opacity="0"/>
</linearGradient>
</defs>
</svg>
