<svg width="24" height="25" viewBox="0 0 24 25" fill="none" xmlns="http://www.w3.org/2000/svg">
<path d="M21.08 9.05611V15.8961C21.08 17.0161 20.48 18.0561 19.51 18.6261L13.57 22.0561C12.6 22.6161 11.4 22.6161 10.42 22.0561L4.48003 18.6261C3.51003 18.0661 2.91003 17.0261 2.91003 15.8961V9.05611C2.91003 7.93611 3.51003 6.89607 4.48003 6.32607L10.42 2.89607C11.39 2.33607 12.59 2.33607 13.57 2.89607L19.51 6.32607C20.48 6.89607 21.08 7.92611 21.08 9.05611Z" stroke="#4B1FFC" stroke-width="1.5" stroke-linecap="round" stroke-linejoin="round"/>
<path opacity="0.4" d="M12 11.4761C13.2869 11.4761 14.33 10.4329 14.33 9.14606C14.33 7.85923 13.2869 6.8161 12 6.8161C10.7132 6.8161 9.67004 7.85923 9.67004 9.14606C9.67004 10.4329 10.7132 11.4761 12 11.4761Z" stroke="#4B1FFC" stroke-width="1.5" stroke-linecap="round" stroke-linejoin="round"/>
<path opacity="0.4" d="M16 17.136C16 15.336 14.21 13.8761 12 13.8761C9.79 13.8761 8 15.336 8 17.136" stroke="#4B1FFC" stroke-width="1.5" stroke-linecap="round" stroke-linejoin="round"/>
</svg>
