<svg width="24" height="25" viewBox="0 0 24 25" fill="none" xmlns="http://www.w3.org/2000/svg">
<path d="M21.0799 8.85396V15.6939C21.0799 16.8139 20.4799 17.854 19.5099 18.424L13.5699 21.854C12.5999 22.414 11.3999 22.414 10.4199 21.854L4.47991 18.424C3.50991 17.864 2.90991 16.8239 2.90991 15.6939V8.85396C2.90991 7.73396 3.50991 6.69392 4.47991 6.12392L10.4199 2.69393C11.3899 2.13393 12.5899 2.13393 13.5699 2.69393L19.5099 6.12392C20.4799 6.69392 21.0799 7.72396 21.0799 8.85396Z" stroke="#4B1FFC" stroke-width="1.5" stroke-linecap="round" stroke-linejoin="round"/>
<path opacity="0.4" d="M11.9999 11.2739C13.2867 11.2739 14.3299 10.2307 14.3299 8.94391C14.3299 7.65709 13.2867 6.61395 11.9999 6.61395C10.7131 6.61395 9.66992 7.65709 9.66992 8.94391C9.66992 10.2307 10.7131 11.2739 11.9999 11.2739Z" stroke="#4B1FFC" stroke-width="1.5" stroke-linecap="round" stroke-linejoin="round"/>
<path opacity="0.4" d="M16 16.9339C16 15.1339 14.21 13.674 12 13.674C9.79 13.674 8 15.1339 8 16.9339" stroke="#4B1FFC" stroke-width="1.5" stroke-linecap="round" stroke-linejoin="round"/>
</svg>
