<svg width="24" height="25" viewBox="0 0 24 25" fill="none" xmlns="http://www.w3.org/2000/svg">
<path d="M21.08 8.85396V15.6939C21.08 16.8139 20.48 17.854 19.51 18.424L13.57 21.854C12.6 22.414 11.4 22.414 10.42 21.854L4.47997 18.424C3.50997 17.864 2.90997 16.8239 2.90997 15.6939V8.85396C2.90997 7.73396 3.50997 6.69392 4.47997 6.12392L10.42 2.69393C11.39 2.13393 12.59 2.13393 13.57 2.69393L19.51 6.12392C20.48 6.69392 21.08 7.72396 21.08 8.85396Z" stroke="#4B1FFC" stroke-width="1.5" stroke-linecap="round" stroke-linejoin="round"/>
<path opacity="0.4" d="M12 11.2739C13.2868 11.2739 14.33 10.2307 14.33 8.94391C14.33 7.65709 13.2868 6.61395 12 6.61395C10.7132 6.61395 9.66998 7.65709 9.66998 8.94391C9.66998 10.2307 10.7132 11.2739 12 11.2739Z" stroke="#4B1FFC" stroke-width="1.5" stroke-linecap="round" stroke-linejoin="round"/>
<path opacity="0.4" d="M16 16.9339C16 15.1339 14.21 13.674 12 13.674C9.79 13.674 8 15.1339 8 16.9339" stroke="#4B1FFC" stroke-width="1.5" stroke-linecap="round" stroke-linejoin="round"/>
</svg>
