<svg width="24" height="25" viewBox="0 0 24 25" fill="none" xmlns="http://www.w3.org/2000/svg">
<path d="M21.0799 8.79488V15.6348C21.0799 16.7548 20.4799 17.7949 19.5099 18.3649L13.5699 21.7949C12.5999 22.3549 11.3999 22.3549 10.4199 21.7949L4.47991 18.3649C3.50991 17.8049 2.90991 16.7648 2.90991 15.6348V8.79488C2.90991 7.67488 3.50991 6.63484 4.47991 6.06484L10.4199 2.63484C11.3899 2.07484 12.5899 2.07484 13.5699 2.63484L19.5099 6.06484C20.4799 6.63484 21.0799 7.66488 21.0799 8.79488Z" stroke="#4B1FFC" stroke-width="1.5" stroke-linecap="round" stroke-linejoin="round"/>
<path opacity="0.4" d="M11.9999 11.2148C13.2867 11.2148 14.3299 10.1717 14.3299 8.88483C14.3299 7.598 13.2867 6.55487 11.9999 6.55487C10.7131 6.55487 9.66992 7.598 9.66992 8.88483C9.66992 10.1717 10.7131 11.2148 11.9999 11.2148Z" stroke="#4B1FFC" stroke-width="1.5" stroke-linecap="round" stroke-linejoin="round"/>
<path opacity="0.4" d="M16 16.8748C16 15.0748 14.21 13.6149 12 13.6149C9.79 13.6149 8 15.0748 8 16.8748" stroke="#4B1FFC" stroke-width="1.5" stroke-linecap="round" stroke-linejoin="round"/>
</svg>
