<svg width="31" height="32" viewBox="0 0 31 32" fill="none" xmlns="http://www.w3.org/2000/svg">
<path d="M9.96098 21.3337H7.20782C3.05514 21.3337 0.0761719 18.7903 0.0761719 15.0656H14.8817C15.6484 15.0656 16.1447 15.6116 16.1447 16.3833V31.2806C12.4437 31.2806 9.96098 28.283 9.96098 24.1043V21.3337ZM17.2738 13.9304H14.5194C10.3679 13.9304 7.38897 11.4328 7.38897 7.70818H22.1932C22.96 7.70818 23.5022 8.20695 23.5022 8.97991V23.8772C19.8011 23.8772 17.2738 20.8796 17.2738 16.7009V13.9304ZM24.6312 6.57292H21.8768C17.7242 6.57292 14.7452 4.02945 14.7452 0.30481H29.5507C30.3174 0.30481 30.815 0.849485 30.815 1.57655V16.4739C27.1139 16.4739 24.6312 13.4763 24.6312 9.29754V6.57292Z" fill="#357DE8"/>
</svg>
