<svg width="26" height="26" viewBox="0 0 26 26" fill="none" xmlns="http://www.w3.org/2000/svg">
<path d="M16.25 8.11975V3.24475C16.25 1.44982 14.7949 -0.00524894 13 -0.00524902C11.2051 -0.0052491 9.75 1.44982 9.75 3.24475V4.05725C9.75 6.30091 11.5688 8.11975 13.8125 8.11975H16.25Z" fill="#4B1FFC"/>
<path d="M9.74999 17.8698V22.7448C9.74999 24.5397 11.2051 25.9947 13 25.9948C14.7949 25.9948 16.25 24.5397 16.25 22.7448V21.9323C16.25 19.6886 14.4311 17.8698 12.1875 17.8698H9.74999Z" fill="#4B1FFC"/>
<path d="M13 9.74475H22.75C24.5449 9.74475 26 11.1998 26 12.9947C26 14.7897 24.5449 16.2447 22.75 16.2447H19.5C15.9101 16.2447 13 13.3346 13 9.74475Z" fill="#4B1FFC"/>
<path d="M13 16.2448H3.25C1.45508 16.2448 0 14.7897 0 12.9948C0 11.1998 1.45507 9.74476 3.25 9.74476H6.49999C10.0898 9.74476 13 12.6549 13 16.2448Z" fill="#4B1FFC"/>
</svg>
