<svg width="60" height="61" viewBox="0 0 60 61" fill="none" xmlns="http://www.w3.org/2000/svg">
<path d="M37.5 19.4907V8.24072C37.5 4.09858 34.1421 0.740723 30 0.740723C25.8579 0.740722 22.5 4.09858 22.5 8.24072V10.1157C22.5 15.2934 26.6973 19.4907 31.875 19.4907H37.5Z" fill="#4B1FFC"/>
<path d="M22.5 41.9907V53.2407C22.5 57.3829 25.8578 60.7407 30 60.7407C34.1421 60.7407 37.5 57.3829 37.5 53.2407V51.3657C37.5 46.1881 33.3026 41.9907 28.125 41.9907H22.5Z" fill="#4B1FFC"/>
<path d="M30 23.2407H52.5C56.6421 23.2407 60 26.5986 60 30.7407C60 34.8828 56.6421 38.2407 52.5 38.2407H45C36.7157 38.2407 30 31.525 30 23.2407Z" fill="#4B1FFC"/>
<path d="M30 38.2407H7.5C3.35787 38.2407 0 34.8829 0 30.7407C0 26.5986 3.35786 23.2407 7.5 23.2407H15C23.2843 23.2407 30 29.9565 30 38.2407Z" fill="#4B1FFC"/>
</svg>
