<svg width="31" height="32" viewBox="0 0 31 32" fill="none" xmlns="http://www.w3.org/2000/svg">
<path d="M9.8848 22.0101H7.13165C2.97897 22.0101 0 19.4667 0 15.742H14.8055C15.5723 15.742 16.0685 16.2879 16.0685 17.0597V31.957C12.3675 31.957 9.8848 28.9594 9.8848 24.7807V22.0101ZM17.1976 14.6068H14.4432C10.2918 14.6068 7.3128 12.1092 7.3128 8.38457H22.1171C22.8838 8.38457 23.426 8.88334 23.426 9.65631V24.5536C19.7249 24.5536 17.1976 21.556 17.1976 17.3773V14.6068ZM24.5551 7.24931H21.8007C17.648 7.24931 14.669 4.70584 14.669 0.981201H29.4745C30.2413 0.981201 30.7388 1.52588 30.7388 2.25294V17.1502C27.0377 17.1502 24.5551 14.1527 24.5551 9.97393V7.24931Z" fill="#357DE8"/>
</svg>
