<svg width="24" height="25" viewBox="0 0 24 25" fill="none" xmlns="http://www.w3.org/2000/svg">
<path d="M7.65874 17.0671H5.5256C2.3081 17.0671 0 15.0964 0 12.2106H11.4713C12.0654 12.2106 12.4499 12.6336 12.4499 13.2315V24.7739C9.58231 24.7739 7.65874 22.4514 7.65874 19.2137V17.0671ZM13.3247 11.331H11.1906C7.97404 11.331 5.66595 9.39589 5.66595 6.51005H17.1363C17.7304 6.51005 18.1504 6.89649 18.1504 7.49539V19.0378C15.2829 19.0378 13.3247 16.7153 13.3247 13.4776V11.331ZM19.0252 5.63045H16.8911C13.6736 5.63045 11.3655 3.65977 11.3655 0.773926H22.8368C23.4309 0.773926 23.8164 1.19594 23.8164 1.75927V13.3017C20.9488 13.3017 19.0252 10.9792 19.0252 7.74148V5.63045Z" fill="#357DE8"/>
</svg>
