<svg width="50" height="51" viewBox="0 0 50 51" fill="none" xmlns="http://www.w3.org/2000/svg">
<path d="M31.2166 16.0312V6.70616C31.2166 3.27279 28.4333 0.489502 25 0.489502C21.5666 0.489502 18.7833 3.2728 18.7833 6.70616V8.26033C18.7833 12.552 22.2624 16.0312 26.5541 16.0312H31.2166Z" fill="#4B1FFC"/>
<path d="M18.7833 34.6812V44.0062C18.7833 47.4395 21.5666 50.2228 24.9999 50.2228C28.4333 50.2228 31.2166 47.4395 31.2166 44.0062V42.452C31.2166 38.1603 27.7375 34.6812 23.4458 34.6812H18.7833Z" fill="#4B1FFC"/>
<path d="M25 19.1395H43.6499C47.0833 19.1395 49.8666 21.9228 49.8666 25.3562C49.8666 28.7895 47.0833 31.5728 43.6499 31.5728H37.4333C30.5666 31.5728 25 26.0062 25 19.1395Z" fill="#4B1FFC"/>
<path d="M25 31.5728H6.34997C2.9166 31.5728 0.133301 28.7895 0.133301 25.3562C0.133301 21.9228 2.9166 19.1395 6.34996 19.1395H12.5666C19.4334 19.1395 25 24.7061 25 31.5728Z" fill="#4B1FFC"/>
</svg>
